<svg width="802" height="535" viewBox="0 0 802 535" fill="none" xmlns="http://www.w3.org/2000/svg">
<g clip-path="url(#clip0_20_13878)">
<path vector-effect="non-scaling-stroke" d="M766.835 8.89062H36.0584C25.5091 8.89062 16.9573 17.4425 16.9573 27.9918V499.24C16.9573 509.789 25.5091 518.341 36.0584 518.341H766.835C777.384 518.341 785.936 509.789 785.936 499.24V27.9918C785.936 17.4425 777.384 8.89062 766.835 8.89062Z" stroke="white" stroke-width="1.37418" stroke-linecap="round" stroke-linejoin="round"/>
<path vector-effect="non-scaling-stroke" d="M289.348 492.507C286.489 492.507 283.686 492.782 280.965 493.29C276.637 488.096 270.865 484.138 264.269 482.022C260.27 459.595 240.702 442.569 217.148 442.569C199.737 442.569 184.511 451.873 176.129 465.779C167.746 451.873 152.534 442.569 135.123 442.569C112.133 442.569 92.9222 458.798 88.305 480.428C87.3293 480.346 86.3536 480.304 85.3505 480.304C73.0516 480.304 62.1955 486.461 55.6819 495.86C49.8416 490.721 42.2012 487.601 33.8187 487.601C15.5146 487.601 0.687134 502.456 0.687134 520.774C0.687134 521.86 0.742101 522.931 0.838294 523.99H332.896C326.849 505.699 309.644 492.507 289.334 492.507H289.348Z" fill="#202020" stroke="white" stroke-width="1.37418" stroke-miterlimit="10"/>
<path vector-effect="non-scaling-stroke" d="M755.333 492.507C752.474 492.507 749.671 492.782 746.95 493.29C742.622 488.096 736.85 484.138 730.254 482.022C726.255 459.595 706.687 442.569 683.133 442.569C665.722 442.569 650.496 451.873 642.114 465.779C633.731 451.873 618.519 442.569 601.108 442.569C578.118 442.569 558.907 458.798 554.29 480.428C553.314 480.346 552.339 480.304 551.335 480.304C539.037 480.304 528.18 486.461 521.667 495.86C515.827 490.721 508.186 487.601 499.804 487.601C481.5 487.601 466.672 502.456 466.672 520.774C466.672 521.86 466.727 522.931 466.823 523.99H798.881C792.834 505.699 775.629 492.507 755.319 492.507H755.333Z" fill="#202020" stroke="white" stroke-width="1.37418" stroke-miterlimit="10"/>
<path vector-effect="non-scaling-stroke" d="M389.608 474.423C388.385 460.461 376.691 449.523 362.427 449.523C355.515 449.523 349.221 452.093 344.411 456.325C339.038 448.575 330.092 443.504 319.964 443.504C319.14 443.504 318.329 443.545 317.532 443.614C313.726 425.791 297.895 412.42 278.959 412.42C260.023 412.42 243.436 426.45 240.138 444.933C234.71 446.678 229.956 449.935 226.383 454.209C224.143 453.797 221.834 453.563 219.484 453.563C212.71 453.563 206.375 455.363 200.878 458.483C197.36 457.452 193.65 456.888 189.802 456.888C170.399 456.888 154.279 470.919 150.981 489.402C145.553 491.147 140.799 494.404 137.226 498.677C134.986 498.265 132.677 498.031 130.327 498.031C113.604 498.031 99.422 508.901 94.4475 523.976H429.514C429.514 499.68 412.433 479.384 389.622 474.409L389.608 474.423Z" fill="#A2A2A0" stroke="white" stroke-width="1.37418" stroke-miterlimit="10"/>
<path vector-effect="non-scaling-stroke" d="M347.998 523.99C352.725 509.712 366.151 499.419 381.995 499.419C384.235 499.419 386.42 499.639 388.536 500.024C391.917 495.97 396.424 492.878 401.563 491.229C404.683 473.722 419.964 460.434 438.35 460.434C456.297 460.434 471.289 473.104 474.89 489.992C475.646 489.937 476.415 489.896 477.198 489.896C486.79 489.896 495.269 494.706 500.353 502.044C504.902 498.031 510.88 495.599 517.421 495.599C531.698 495.599 543.283 507.197 543.283 521.488C543.283 522.34 543.242 523.179 543.159 524.003H347.998V523.99Z" fill="#A2A2A0" stroke="white" stroke-width="1.37418" stroke-miterlimit="10"/>
<path vector-effect="non-scaling-stroke" d="M432.579 492.507C429.72 492.507 426.917 492.782 424.196 493.29C419.868 488.096 414.096 484.138 407.5 482.022C403.501 459.595 383.933 442.569 360.379 442.569C342.968 442.569 327.742 451.873 319.36 465.779C310.977 451.873 295.765 442.569 278.354 442.569C255.364 442.569 236.153 458.798 231.536 480.428C230.56 480.346 229.585 480.304 228.581 480.304C216.282 480.304 205.426 486.461 198.913 495.86C193.073 490.721 185.432 487.601 177.05 487.601C158.746 487.601 143.918 502.456 143.918 520.774C143.918 521.86 143.973 522.931 144.069 523.99H476.127C470.08 505.699 452.875 492.507 432.565 492.507H432.579Z" fill="#020202" stroke="white" stroke-width="1.37418" stroke-miterlimit="10"/>
<path vector-effect="non-scaling-stroke" d="M392.244 148.878L386.329 167.083L514.865 208.847L520.78 190.641L392.244 148.878Z" fill="#020202" stroke="white" stroke-width="1.37418" stroke-miterlimit="10"/>
<path vector-effect="non-scaling-stroke" d="M364.479 234.314L358.563 252.52L487.1 294.283L493.015 276.078L364.479 234.314Z" fill="#020202" stroke="white" stroke-width="1.37418" stroke-miterlimit="10"/>
<path vector-effect="non-scaling-stroke" d="M407.843 111.24C407.156 106.815 404.16 82.5473 404.16 82.5473C404.16 82.5473 403.556 79.799 400.327 78.6034C400.175 78.5485 400.038 78.5072 399.901 78.466C399.763 78.4248 399.626 78.3698 399.475 78.3286C396.149 77.3941 394.046 79.2768 394.046 79.2768C394.046 79.2768 377.364 97.1411 374.203 100.315C371.043 103.49 370.204 106.073 370.204 106.073L368.157 112.381L365.793 119.664L275.716 396.919L313.231 409.108L403.308 131.853L405.672 124.57L407.72 118.262C407.72 118.262 408.558 115.679 407.871 111.254L407.843 111.24Z" fill="#020202" stroke="white" stroke-width="1.37418" stroke-miterlimit="10"/>
<path vector-effect="non-scaling-stroke" d="M407.706 118.453L407.761 118.275C407.761 118.275 408.53 115.898 407.981 111.816L373.874 100.727C371.029 103.722 370.259 106.086 370.259 106.086L370.204 106.265L407.72 118.453H407.706Z" fill="#020202" stroke="white" stroke-width="1.37418" stroke-miterlimit="10"/>
<path vector-effect="non-scaling-stroke" d="M275.687 396.923L271.318 410.371L308.827 422.558L313.196 409.11L275.687 396.923Z" fill="#020202" stroke="white" stroke-width="1.37418" stroke-miterlimit="10"/>
<path vector-effect="non-scaling-stroke" d="M530.255 151.009C533.416 147.835 550.099 129.971 550.099 129.971C550.099 129.971 552.201 128.102 555.527 129.023C555.678 129.064 555.815 129.105 555.953 129.16C556.09 129.201 556.227 129.242 556.379 129.297C559.608 130.493 560.213 133.241 560.213 133.241C560.213 133.241 563.208 157.496 563.895 161.934C564.583 166.373 563.744 168.943 563.744 168.943L561.697 175.25L559.333 182.533L469.256 459.788L431.74 447.599L521.818 170.344L524.182 163.061L526.229 156.754C526.229 156.754 527.067 154.17 530.228 150.996L530.255 151.009Z" fill="#020202" stroke="white" stroke-width="1.37418" stroke-miterlimit="10"/>
<path vector-effect="non-scaling-stroke" d="M526.119 156.932L526.174 156.754C526.174 156.754 526.944 154.377 529.788 151.395L563.895 162.47C564.445 166.566 563.675 168.929 563.675 168.929L563.62 169.108L526.105 156.919L526.119 156.932Z" fill="#020202" stroke="white" stroke-width="1.37418" stroke-miterlimit="10"/>
<path vector-effect="non-scaling-stroke" d="M431.77 447.634L427.4 461.082L464.909 473.269L469.279 459.821L431.77 447.634Z" fill="#020202" stroke="white" stroke-width="1.37418" stroke-miterlimit="10"/>
<path vector-effect="non-scaling-stroke" d="M511.127 1.60878C487.793 -5.9767 452.71 33.7784 422.547 97.0595L332.909 372.968L437.058 406.8L526.696 130.892C539.476 61.9629 534.474 9.18052 511.127 1.60878Z" fill="#020202" stroke="white" stroke-width="1.37418" stroke-miterlimit="10"/>
<path vector-effect="non-scaling-stroke" d="M426.697 190.174C426.697 190.174 378.752 261.563 351.955 280.169C325.159 298.776 293.319 300.425 281.322 310.456C269.326 320.501 266.206 323.387 261.04 338.146L354.154 388.743L426.683 190.146L426.697 190.174Z" fill="#404040" stroke="white" stroke-width="1.37418" stroke-miterlimit="10"/>
<path vector-effect="non-scaling-stroke" d="M313.203 350.953L265.547 333.198L272.212 322.672L317.601 337.417L313.203 350.953Z" fill="#404040" stroke="white" stroke-width="1.37418" stroke-miterlimit="10"/>
<path vector-effect="non-scaling-stroke" d="M363.856 370.796L313.162 351.09L317.601 337.417L369.243 354.196L363.856 370.796Z" fill="#404040" stroke="white" stroke-width="1.37418" stroke-miterlimit="10"/>
<path vector-effect="non-scaling-stroke" d="M315.279 351.915L310.441 349.977L311.225 347.559L316.24 349.194L315.279 351.915Z" fill="#020202" stroke="white" stroke-width="1.37418" stroke-miterlimit="10"/>
<path vector-effect="non-scaling-stroke" d="M468.61 203.792C468.61 203.792 465.449 289.733 476.182 320.542C486.914 351.352 511.704 371.387 515.511 386.558C519.317 401.729 520.142 405.907 515.634 420.885L410.564 407.088L468.61 203.792Z" fill="#404040" stroke="white" stroke-width="1.37418" stroke-miterlimit="10"/>
<path vector-effect="non-scaling-stroke" d="M465.93 400.575L514.92 414.22L515.717 401.784L470.328 387.039L465.93 400.575Z" fill="#404040" stroke="white" stroke-width="1.37418" stroke-miterlimit="10"/>
<path vector-effect="non-scaling-stroke" d="M413.285 386.86L465.889 400.712L470.327 387.039L418.686 370.26L413.285 386.86Z" fill="#404040" stroke="white" stroke-width="1.37418" stroke-miterlimit="10"/>
<path vector-effect="non-scaling-stroke" d="M463.677 400.135L468.733 401.413L469.53 398.995L464.501 397.359L463.677 400.135Z" fill="#020202" stroke="white" stroke-width="1.37418" stroke-miterlimit="10"/>
<path vector-effect="non-scaling-stroke" d="M463.896 146.969C451.281 142.874 432.4 164.063 408.723 220.982L360.833 368.39L417.16 386.695L472.567 216.159C479.342 179.317 476.525 151.077 463.91 146.982L463.896 146.969Z" fill="#020202" stroke="white" stroke-width="1.37418" stroke-miterlimit="10"/>
<path vector-effect="non-scaling-stroke" d="M417.517 387.218L360.214 368.598L408.228 220.804C430.38 167.582 449.673 141.913 464.02 146.585C476.539 150.652 480.084 177.999 473.062 216.27L417.517 387.218Z" fill="#404040" stroke="white" stroke-width="1.37418" stroke-miterlimit="10"/>
<path vector-effect="non-scaling-stroke" d="M452.6 183.729C452.6 183.729 436.522 177.889 423.633 193.678L430.957 198.914C430.957 198.914 433.843 192.166 442.816 191.301C447.653 190.833 452.545 192.427 456.187 195.643C462.948 201.621 461.313 208.78 461.313 208.78L470.314 208.849C469.159 188.497 452.614 183.743 452.614 183.743L452.6 183.729Z" fill="#020202" stroke="white" stroke-width="1.37418" stroke-miterlimit="10"/>
<path vector-effect="non-scaling-stroke" d="M458.633 165.879C464.569 167.802 470.492 167.967 475.48 166.689C473.818 156.026 470.08 148.962 464.253 147.066C458.427 145.17 451.487 148.578 444.011 155.971C447.282 160.217 452.38 163.831 458.647 165.865L458.633 165.879Z" fill="#020202" stroke="white" stroke-width="1.37418" stroke-miterlimit="10"/>
<path vector-effect="non-scaling-stroke" d="M450.469 170.041L448.843 175.047L459.573 178.533L461.199 173.528L450.469 170.041Z" fill="#202020" stroke="white" stroke-width="1.37418" stroke-miterlimit="10"/>
<path vector-effect="non-scaling-stroke" d="M438.632 216.668L394.129 353.634L398.899 355.184L443.402 218.218L438.632 216.668Z" fill="#404040" stroke="white" stroke-width="1.37418" stroke-miterlimit="10"/>
<path vector-effect="non-scaling-stroke" d="M346.321 392.137C350.911 385.857 353.591 383.741 353.591 383.741L362.605 386.668L367.387 388.221L375.811 390.956C375.811 390.956 377.323 394.432 377.35 402.21C377.364 409.988 375.261 416.474 375.261 416.474L361.08 411.871L353.824 409.507L339.643 404.904C339.643 404.904 341.745 398.417 346.335 392.137H346.321Z" fill="#202020" stroke="white" stroke-width="1.37418" stroke-miterlimit="10"/>
<path vector-effect="non-scaling-stroke" d="M351.845 356.367C358.538 343.615 368.72 341.196 368.72 341.196L371.029 341.952L375.811 343.505L378.12 344.261C378.12 344.261 384.936 352.217 382.861 366.467C380.772 380.718 376.732 393.168 376.732 393.168L362.55 388.564L355.294 386.201L341.113 381.597C341.113 381.597 345.167 369.133 351.845 356.381V356.367Z" fill="#404040" stroke="white" stroke-width="1.37418" stroke-miterlimit="10"/>
<path vector-effect="non-scaling-stroke" d="M414.92 414.429C414.907 406.651 413.972 403.367 413.972 403.367L404.957 400.44L400.175 398.887L391.752 396.152C391.752 396.152 388.481 398.076 383.891 404.356C379.301 410.636 377.199 417.136 377.199 417.136L391.381 421.74L398.636 424.103L412.818 428.707C412.818 428.707 414.92 422.221 414.907 414.443L414.92 414.429Z" fill="#202020" stroke="white" stroke-width="1.37418" stroke-miterlimit="10"/>
<path vector-effect="non-scaling-stroke" d="M431.479 382.245C433.554 367.995 426.738 360.038 426.738 360.038L424.43 359.282L419.648 357.729L417.339 356.974C417.339 356.974 407.142 359.406 400.464 372.158C393.772 384.911 389.732 397.375 389.732 397.375L403.913 401.978L411.169 404.342L425.35 408.945C425.35 408.945 429.404 396.481 431.479 382.245Z" fill="#404040" stroke="white" stroke-width="1.37418" stroke-miterlimit="10"/>
<path vector-effect="non-scaling-stroke" d="M371.757 424.884C373.145 408.957 377.666 377.859 392.274 353.99C392.453 353.701 392.879 353.591 393.291 353.729C393.992 353.962 394.899 354.278 395.613 354.512C395.929 354.608 396.177 354.691 396.383 354.759L373.461 425.31C373.2 426.093 371.675 425.722 371.744 424.884H371.757Z" fill="#404040" stroke="white" stroke-width="1.37418" stroke-miterlimit="10"/>
<path vector-effect="non-scaling-stroke" d="M375.11 425.97C383.342 412.269 397.963 384.442 400.189 356.56C400.217 356.216 399.928 355.887 399.516 355.749C398.815 355.529 397.894 355.241 397.18 355.007C396.864 354.911 396.616 354.829 396.41 354.746L373.489 425.297C373.228 426.08 374.698 426.671 375.124 425.956L375.11 425.97Z" fill="#404040" stroke="white" stroke-width="1.37418" stroke-miterlimit="10"/>
<path vector-effect="non-scaling-stroke" d="M125.655 475.053H7.73656C3.83389 475.053 0.687012 471.247 0.687012 466.547V211.801C0.687012 207.101 3.84763 203.295 7.73656 203.295H202.087C205.99 203.295 209.137 207.101 209.137 211.801V466.547C209.137 471.247 205.976 475.053 202.087 475.053H112.174" fill="#020202"/>
<path vector-effect="non-scaling-stroke" d="M125.655 475.053H7.73656C3.83389 475.053 0.687012 471.247 0.687012 466.547V211.801C0.687012 207.101 3.84763 203.295 7.73656 203.295H202.087C205.99 203.295 209.137 207.101 209.137 211.801V466.547C209.137 471.247 205.976 475.053 202.087 475.053H112.174" stroke="white" stroke-width="1.37418" stroke-miterlimit="10"/>
<path vector-effect="non-scaling-stroke" d="M171.085 218.371C173.491 218.371 175.442 216.42 175.442 214.014C175.442 211.609 173.491 209.658 171.085 209.658C168.68 209.658 166.729 211.609 166.729 214.014C166.729 216.42 168.68 218.371 171.085 218.371Z" fill="#020202" stroke="white" stroke-width="1.37418" stroke-miterlimit="10"/>
<path vector-effect="non-scaling-stroke" d="M184.154 218.371C186.56 218.371 188.51 216.42 188.51 214.014C188.51 211.609 186.56 209.658 184.154 209.658C181.748 209.658 179.798 211.609 179.798 214.014C179.798 216.42 181.748 218.371 184.154 218.371Z" fill="#020202" stroke="white" stroke-width="1.37418" stroke-miterlimit="10"/>
<path vector-effect="non-scaling-stroke" d="M197.222 218.371C199.628 218.371 201.579 216.42 201.579 214.014C201.579 211.609 199.628 209.658 197.222 209.658C194.817 209.658 192.866 211.609 192.866 214.014C192.866 216.42 194.817 218.371 197.222 218.371Z" fill="#020202" stroke="white" stroke-width="1.37418" stroke-miterlimit="10"/>
<path vector-effect="non-scaling-stroke" d="M0.687012 225.158H209.137" stroke="white" stroke-width="1.37418" stroke-miterlimit="10"/>
<path vector-effect="non-scaling-stroke" d="M192.371 341.193C203.392 336.672 224.967 338.555 222.205 345.013C220.473 349.053 203.653 342.334 203.653 342.334L192.371 341.207V341.193Z" fill="#404040" stroke="white" stroke-width="1.37418" stroke-miterlimit="10"/>
<path vector-effect="non-scaling-stroke" d="M224.197 361.531C231.687 361.283 241.938 364.98 245.36 366.299C246.102 366.588 246.954 366.189 247.16 365.42C247.833 362.905 246.789 357.394 227.674 353.602L224.184 361.531H224.197Z" fill="#404040" stroke="white" stroke-width="1.37418" stroke-miterlimit="10"/>
<path vector-effect="non-scaling-stroke" d="M226.836 360.639L244.343 357.712C245.525 357.52 246.226 356.297 245.813 355.156C245.113 353.218 242.474 351.047 237.719 351.116C229.955 351.212 226.836 360.639 226.836 360.639Z" fill="#404040" stroke="white" stroke-width="1.37418" stroke-miterlimit="10"/>
<path vector-effect="non-scaling-stroke" d="M202.623 366.107V366.134C208.078 363.509 214.07 362.094 220.102 361.737C222.205 361.613 224.349 361.613 226.341 360.953C229.117 360.033 231.33 357.944 233.446 355.91C235.961 353.492 238.489 351.059 241.004 348.641C241.375 348.297 241.801 347.844 241.718 347.294C241.581 346.332 240.111 346.002 239.341 345.837C238.352 345.618 237.321 345.645 236.345 345.837C234.696 346.181 233.171 346.992 231.756 347.912C229.942 349.094 228.251 350.468 226.589 351.87C225.778 352.557 224.926 353.258 223.909 353.547C222.164 354.028 220.281 353.134 219.003 351.856C217.725 350.578 216.846 348.943 215.788 347.473C213.259 343.968 209.508 341.371 205.344 340.217C201.551 339.159 197.319 339.283 193.622 340.67C193.223 340.822 192.77 341.028 192.688 341.495C192.591 341.99 192.949 342.553 193.127 342.993C193.581 344.106 194.034 345.205 194.474 346.305C195.381 348.517 196.288 350.729 197.195 352.942C198.995 357.326 200.809 361.709 202.623 366.093V366.107Z" fill="#404040" stroke="white" stroke-width="1.37418" stroke-miterlimit="10"/>
<path vector-effect="non-scaling-stroke" d="M194.474 346.319C194.474 346.319 201.565 336.947 217.34 349.795Z" fill="#404040"/>
<path vector-effect="non-scaling-stroke" d="M194.474 346.319C194.474 346.319 201.565 336.947 217.34 349.795" stroke="white" stroke-width="1.37418" stroke-miterlimit="10"/>
<path vector-effect="non-scaling-stroke" d="M191.025 354.218C194.364 352.844 198.184 354.452 199.558 357.777L203.063 366.297L190.97 371.258L187.466 362.738C186.091 359.399 187.699 355.579 191.025 354.205V354.218Z" fill="#020202" stroke="white" stroke-width="1.37418" stroke-miterlimit="10"/>
<path vector-effect="non-scaling-stroke" d="M192.343 357.422C193.044 357.133 193.855 357.477 194.157 358.177C194.446 358.878 194.102 359.689 193.402 359.991C192.701 360.294 191.89 359.936 191.588 359.236C191.285 358.535 191.643 357.724 192.343 357.422Z" stroke="white" stroke-width="1.37418" stroke-miterlimit="10"/>
<path vector-effect="non-scaling-stroke" d="M189.224 349.849C189.925 349.561 190.736 349.904 191.038 350.605C191.34 351.306 190.983 352.117 190.282 352.419C189.581 352.721 188.771 352.364 188.468 351.663C188.166 350.963 188.523 350.152 189.224 349.849Z" stroke="white" stroke-width="1.37418" stroke-miterlimit="10"/>
<path vector-effect="non-scaling-stroke" d="M142.447 391.818C141.623 392.079 140.73 392.052 139.933 391.708L87.755 369.914C85.8999 369.144 85.0204 367.014 85.8037 365.159L97.5529 337.043C98.3224 335.188 100.452 334.309 102.308 335.092L145.155 352.998C145.869 353.3 146.666 353.355 147.422 353.176L177.97 345.646C179.715 345.22 181.515 346.127 182.203 347.79L190.145 367.138C192.426 372.69 190.145 375.974 185.693 377.87C185.583 377.925 142.434 391.818 142.434 391.818H142.447Z" fill="#404040" stroke="white" stroke-width="1.37418" stroke-miterlimit="10"/>
<path vector-effect="non-scaling-stroke" d="M89.4451 303.884L92.8668 285.58C92.8668 285.58 108.958 299.761 117.781 293.825C123.965 289.675 122.948 281.375 122.425 271.343L123.209 271.687C125.256 272.58 127.373 270.601 126.63 268.499C125.421 265.118 123.758 261.628 122.48 259.14C122.522 258.673 122.577 258.206 122.632 257.739C124.5 241.936 110.443 232.825 102.898 229.884C95.3541 226.943 84.8278 222.257 75.1261 229.527C65.2595 236.92 73.5458 253.534 68.4338 275.919C67.3757 280.536 64.6823 287.05 57.6877 295.35L89.4313 303.898L89.4451 303.884Z" fill="#404040" stroke="white" stroke-width="1.37418" stroke-miterlimit="10"/>
<path vector-effect="non-scaling-stroke" d="M119.155 241.936C113.892 234.172 105.51 230.462 103.064 229.5L102.005 229.087C94.5437 226.147 84.3335 222.134 74.8929 229.197C69.1213 233.526 69.3687 240.96 69.6985 250.387C69.8771 255.527 70.0695 261.353 69.3824 267.757L69.3412 268.169L69.7534 268.21C70.6741 268.307 71.5811 268.362 72.4606 268.362C91.0258 268.362 99.7518 247.13 100.865 244.19C111.515 246.072 118.922 242.568 119.004 242.541L119.43 242.335L119.169 241.95L119.155 241.936Z" fill="#020202" stroke="white" stroke-width="1.37418" stroke-miterlimit="10"/>
<path vector-effect="non-scaling-stroke" d="M71.8833 229.28C80.9667 229.28 88.3185 221.914 88.3185 212.817C88.3185 203.734 80.9529 196.354 71.8833 196.354C62.8 196.354 55.4481 203.72 55.4481 212.817C55.4481 221.901 62.8137 229.28 71.8833 229.28Z" fill="#020202" stroke="white" stroke-width="1.37418" stroke-miterlimit="10"/>
<path vector-effect="non-scaling-stroke" d="M97.347 253.15C97.347 253.15 92.0289 247.117 87.4529 250.841C81.6401 255.568 87.4529 262.865 90.4486 263.703" fill="#404040"/>
<path vector-effect="non-scaling-stroke" d="M97.347 253.15C97.347 253.15 92.0289 247.117 87.4529 250.841C81.6401 255.568 87.4529 262.865 90.4486 263.703" stroke="white" stroke-width="1.37418" stroke-miterlimit="10"/>
<path vector-effect="non-scaling-stroke" d="M97.347 253.15C97.347 253.15 92.0289 247.117 87.4529 250.841C81.6401 255.568 87.4529 262.865 90.4486 263.703" stroke="white" stroke-width="1.37418" stroke-miterlimit="10"/>
<path vector-effect="non-scaling-stroke" d="M122.632 276.785C114.923 276.785 113.356 270.299 113.342 270.23" stroke="white" stroke-width="1.37418" stroke-miterlimit="10"/>
<path vector-effect="non-scaling-stroke" d="M43.3552 310.701C52.3561 280.593 90.4072 287.244 96.4811 310.976L124.349 475.053H22.7837L35.646 383.464L43.3552 310.701Z" fill="#020202" stroke="white" stroke-width="1.37418" stroke-miterlimit="10"/>
<path vector-effect="non-scaling-stroke" d="M45.1555 503.113H118.083C125.104 503.113 130.795 497.422 130.795 490.402V459.854C130.795 452.834 125.104 447.143 118.083 447.143H45.1555C38.1354 447.143 32.4444 452.834 32.4444 459.854V490.402C32.4444 497.422 38.1354 503.113 45.1555 503.113Z" fill="#020202" stroke="white" stroke-width="1.37418" stroke-miterlimit="10"/>
<path vector-effect="non-scaling-stroke" d="M85.6939 447.06L96.5636 446.978C91.9326 438.458 82.1072 436.562 82.1072 436.562C82.1072 436.562 71.3749 434.542 68.0631 426.764L48.3024 429.306L54.6648 446.016C58.8286 459.772 73.6972 475.918 73.6972 475.918C75.1401 477.031 75.9372 476.399 75.9372 476.399C77.6961 475.602 76.7342 473.843 76.7342 473.843L72.7765 465.722L83.344 477.031C85.3091 478.955 87.4528 477.828 87.4528 477.828C89.2118 476.385 87.2879 473.513 87.2879 473.513L78.9741 461.956L92.235 470.944C95.478 473.129 98.3088 473.582 99.2708 472.057C100.384 470.298 98.1577 468.058 98.1577 468.058C101.195 469.652 103.393 469.02 104.108 468.278C106.32 465.983 103.503 463.578 103.503 463.578L77.6824 439.585" fill="#404040"/>
<path vector-effect="non-scaling-stroke" d="M85.6939 447.06L96.5636 446.978C91.9326 438.458 82.1072 436.562 82.1072 436.562C82.1072 436.562 71.3749 434.542 68.0631 426.764L48.3024 429.306L54.6648 446.016C58.8286 459.772 73.6972 475.918 73.6972 475.918C75.1401 477.031 75.9372 476.399 75.9372 476.399C77.6961 475.602 76.7342 473.843 76.7342 473.843L72.7765 465.722L83.344 477.031C85.3091 478.955 87.4528 477.828 87.4528 477.828C89.2118 476.385 87.2879 473.513 87.2879 473.513L78.9741 461.956L92.235 470.944C95.478 473.129 98.3088 473.582 99.2708 472.057C100.384 470.298 98.1577 468.058 98.1577 468.058C101.195 469.652 103.393 469.02 104.108 468.278C106.32 465.983 103.503 463.578 103.503 463.578L77.6824 439.585" stroke="white" stroke-width="1.37418" stroke-miterlimit="10"/>
<path vector-effect="non-scaling-stroke" d="M98.1713 468.085L84.4158 456.418" stroke="white" stroke-width="1.37418" stroke-miterlimit="10"/>
<path vector-effect="non-scaling-stroke" d="M63.1297 411.234L74.5492 431.132L50.7758 443.83L39.3701 423.932L63.1297 411.234Z" fill="#020202" stroke="white" stroke-width="1.37418" stroke-miterlimit="10"/>
<path vector-effect="non-scaling-stroke" d="M18.6474 386.624L40.4969 315.194C43.5201 305.946 50.02 299.569 59.4194 299.569C59.8592 299.569 60.2989 299.583 60.7386 299.611C72.7352 300.421 80.5818 312.665 77.0914 324.167L57.949 387.187C57.5643 388.396 57.578 389.716 58.004 390.911L62.154 402.551C66.3041 414.176 69.3547 424.689 50.4323 432.892L48.1511 434.115C42.8605 436.946 39.3564 435.022 37.0202 430.776C36.9653 430.666 18.7849 389.138 18.7849 389.138C18.4413 388.341 18.3863 387.448 18.6337 386.624H18.6474Z" fill="#404040" stroke="white" stroke-width="1.37418" stroke-miterlimit="10"/>
<path vector-effect="non-scaling-stroke" d="M177.97 345.633L194.364 340.411" stroke="white" stroke-width="1.37418" stroke-miterlimit="10"/>
<path vector-effect="non-scaling-stroke" d="M175.772 284.111L192.372 295.008C192.468 295.077 192.592 295.091 192.715 295.063L228.636 287.038C229.007 286.956 229.104 286.475 228.801 286.255L213.864 275.371C213.768 275.303 213.63 275.275 213.507 275.303L175.909 283.314C175.524 283.396 175.428 283.905 175.758 284.111H175.772Z" fill="#202020" stroke="white" stroke-width="1.37418" stroke-miterlimit="10"/>
<path vector-effect="non-scaling-stroke" d="M226.067 250.458L210.181 238.888L173.133 248.809L174.878 283.246C174.878 283.397 175.029 283.507 175.167 283.466L213.699 275.262" fill="#020202"/>
<path vector-effect="non-scaling-stroke" d="M226.067 250.458L210.181 238.888L173.133 248.809L174.878 283.246C174.878 283.397 175.029 283.507 175.167 283.466L213.699 275.262" stroke="white" stroke-width="1.37418" stroke-miterlimit="10"/>
<path vector-effect="non-scaling-stroke" d="M229.584 286.832L226.067 250.457L210.181 238.873L173.133 248.795L174.892 283.52L192.537 295.105L229.584 286.832Z" stroke="white" stroke-width="1.37418" stroke-miterlimit="10"/>
<path vector-effect="non-scaling-stroke" d="M229.585 286.832L213.713 275.261L210.181 238.873" stroke="white" stroke-width="1.37418" stroke-miterlimit="10"/>
<path vector-effect="non-scaling-stroke" d="M229.585 309.851L243.684 314.496L246.336 296.906L233.254 293.278C232.91 293.182 232.553 293.402 232.498 293.759L229.571 309.865L229.585 309.851Z" fill="#202020" stroke="white" stroke-width="1.37418" stroke-miterlimit="10"/>
<path vector-effect="non-scaling-stroke" d="M230.23 310.001L244.33 314.646L254.595 313.052L257.645 296.287L244.33 292.659L233.281 293.25" stroke="white" stroke-width="1.37418" stroke-miterlimit="10"/>
<path vector-effect="non-scaling-stroke" d="M257.645 296.287L246.982 297.056L233.281 293.25" stroke="white" stroke-width="1.37418" stroke-miterlimit="10"/>
<path vector-effect="non-scaling-stroke" d="M246.982 297.058L244.33 314.647" stroke="white" stroke-width="1.37418" stroke-miterlimit="10"/>
<path vector-effect="non-scaling-stroke" d="M123.209 252.944H108.684C107.47 252.944 106.485 253.929 106.485 255.143V258.111C106.485 259.326 107.47 260.31 108.684 260.31H123.209C124.423 260.31 125.408 259.326 125.408 258.111V255.143C125.408 253.929 124.423 252.944 123.209 252.944Z" fill="#A100FF" stroke="white" stroke-width="1.37418" stroke-miterlimit="10"/>
<path vector-effect="non-scaling-stroke" d="M709.463 496.754L713.242 523.99H675.218C675.218 523.99 673.583 519.318 685.071 511.856C695.57 505.04 684.384 480.868 684.384 480.868L709.463 496.754Z" fill="#020202" stroke="white" stroke-width="1.37418" stroke-miterlimit="10"/>
<path vector-effect="non-scaling-stroke" d="M675.218 523.989H713.242L712.128 515.923H679.725C674.173 520.98 675.232 523.989 675.232 523.989H675.218Z" fill="#020202" stroke="white" stroke-width="1.37418" stroke-miterlimit="10"/>
<path vector-effect="non-scaling-stroke" d="M696.38 500.643H689.551V500.217H696.38V500.643ZM689.317 504.518V504.944H696.147V504.518H689.317ZM694.635 508.819H687.805V509.245H694.635V508.819Z" fill="#020202" stroke="white" stroke-width="1.37418" stroke-miterlimit="10"/>
<path vector-effect="non-scaling-stroke" d="M756.212 496.754L759.991 523.99H721.968C721.968 523.99 720.332 519.318 731.821 511.856C742.319 505.04 731.134 480.868 731.134 480.868L756.212 496.754Z" fill="#020202" stroke="white" stroke-width="1.37418" stroke-miterlimit="10"/>
<path vector-effect="non-scaling-stroke" d="M721.968 523.989H759.991L758.878 515.923H726.475C720.923 520.98 721.981 523.989 721.981 523.989H721.968Z" fill="#020202" stroke="white" stroke-width="1.37418" stroke-miterlimit="10"/>
<path vector-effect="non-scaling-stroke" d="M743.116 500.643H736.287V500.217H743.116V500.643ZM736.053 504.518V504.944H742.883V504.518H736.053ZM741.371 508.819H734.542V509.245H741.371V508.819Z" fill="#020202" stroke="white" stroke-width="1.37418" stroke-miterlimit="10"/>
<path vector-effect="non-scaling-stroke" d="M648.91 275.842L649.398 275.44C650.84 274.254 651.047 272.124 649.861 270.682L637.814 256.037C636.628 254.595 634.498 254.388 633.056 255.574L632.568 255.975C631.126 257.161 630.919 259.292 632.105 260.733L644.152 275.379C645.338 276.821 647.468 277.028 648.91 275.842Z" fill="#A100FF" stroke="white" stroke-width="1.37418" stroke-miterlimit="10"/>
<path vector-effect="non-scaling-stroke" d="M653.918 275.677C653.918 275.677 654.07 266.264 648.655 262.842C648.655 262.842 644.615 262.045 647.57 272.503C647.57 272.503 636.054 269.067 633.429 263.749C633.429 263.749 628.633 269.727 633.347 275.072C633.347 275.072 635.875 278.247 647.212 284.747" fill="#020202"/>
<path vector-effect="non-scaling-stroke" d="M653.918 275.677C653.918 275.677 654.07 266.264 648.655 262.842C648.655 262.842 644.615 262.045 647.57 272.503C647.57 272.503 636.054 269.067 633.429 263.749C633.429 263.749 628.633 269.727 633.347 275.072C633.347 275.072 635.875 278.247 647.212 284.747" stroke="white" stroke-width="1.37418" stroke-miterlimit="10"/>
<path vector-effect="non-scaling-stroke" d="M638.28 273.368C638.28 273.368 632.11 270.276 631.643 267.321Z" fill="white"/>
<path vector-effect="non-scaling-stroke" d="M638.28 273.368C638.28 273.368 632.11 270.276 631.643 267.321" stroke="white" stroke-width="1.37418" stroke-miterlimit="10"/>
<path vector-effect="non-scaling-stroke" d="M672.676 221.944C672.676 221.944 655.32 207.144 653.698 208.766C650.854 211.61 659.621 217.684 659.621 217.684C659.621 217.684 653.547 225.064 655.485 226.781C657.422 228.499 665.228 232.099 665.228 232.099L672.662 221.944H672.676Z" fill="#020202" stroke="white" stroke-width="1.37418" stroke-miterlimit="10"/>
<path vector-effect="non-scaling-stroke" d="M707.896 241.045L673.418 219.306L663.606 234.559L695.817 257.797L707.896 241.045Z" fill="#404040" stroke="white" stroke-width="1.37418" stroke-miterlimit="10"/>
<path vector-effect="non-scaling-stroke" d="M713.558 334.778L722.6 420.431L729.278 503.5L761.489 503.267L755.264 417.215L751.939 334.778H713.558Z" fill="#020202" stroke="white" stroke-width="1.37418" stroke-miterlimit="10"/>
<path vector-effect="non-scaling-stroke" d="M692.959 334.778L682.515 420.83V503.652L715.152 503.5L715.454 423.372L729.966 334.778H692.959Z" fill="#020202" stroke="white" stroke-width="1.37418" stroke-miterlimit="10"/>
<path vector-effect="non-scaling-stroke" d="M726.42 236.332L725.266 227.922L714.011 229.076V229.791V196.632H710.232V261.205H714.011V236.208L726.42 236.332Z" fill="#020202" stroke="white" stroke-width="1.37418" stroke-miterlimit="10"/>
<path vector-effect="non-scaling-stroke" d="M691.076 270.233C691.145 276.733 691.241 283.797 691.365 290.846C691.667 308.422 692.065 325.943 692.272 334.573C692.285 335.164 692.299 335.699 692.313 336.208C692.327 336.73 692.34 337.211 692.354 337.637C692.395 339.231 692.423 340.111 692.423 340.111C692.423 340.111 711.51 347.614 734.94 343.807C750.07 341.347 751.952 336.73 751.952 336.73C751.952 336.73 751.952 336.414 751.98 335.809C751.98 335.507 752.007 335.122 752.021 334.683C752.241 327.248 752.928 300.946 752.09 279.111C751.636 267.444 750.757 257.055 749.135 251.476C746.744 243.258 741.206 239.878 735.682 238.188C731.944 237.047 728.193 236.69 725.417 236.126C725.348 236.113 725.279 236.099 725.211 236.085C718.147 234.711 711.153 236.126 705.395 239.575C703.361 240.785 701.492 242.255 699.816 243.945C696.284 247.518 693.66 252.053 692.423 257.275C691.543 260.958 691.049 265.245 691.09 270.22L691.076 270.233Z" fill="#404040" stroke="white" stroke-width="1.37418" stroke-miterlimit="10"/>
<path vector-effect="non-scaling-stroke" d="M702.303 204.519C702.303 204.519 697.576 241.113 721.129 230.656C728.042 228.059 730.859 218.137 730.859 218.137L729.155 212.572C729.155 212.572 731.821 193.649 719.219 193.855C702.702 194.13 702.317 204.505 702.317 204.505L702.303 204.519Z" fill="#020202" stroke="white" stroke-width="1.37418" stroke-miterlimit="10"/>
<path vector-effect="non-scaling-stroke" d="M705.395 206.69L709.463 213.836C709.463 213.836 712.129 210.964 713.461 212.228C714.808 213.493 713.599 220.13 710.342 219.044C710.342 219.044 710.095 225.585 712.197 227.097C714.3 228.609 723.342 229.351 727.794 226.987C734.253 223.552 737.386 212.696 733.277 203.118C727.616 189.898 705.725 185.803 700.682 192.907C694.374 201.757 705.381 206.704 705.381 206.704L705.395 206.69Z" fill="#020202" stroke="white" stroke-width="1.37418" stroke-miterlimit="10"/>
<path vector-effect="non-scaling-stroke" d="M730.281 236.977L729.814 233.212C729.814 233.212 714.094 234.49 709.463 234.091L710.232 237.293C712.458 237.98 717.625 238.063 721.487 238.104C725.101 238.145 728.124 237.568 730.281 236.991V236.977Z" fill="#020202" stroke="white" stroke-width="1.37418" stroke-miterlimit="10"/>
<path vector-effect="non-scaling-stroke" d="M696.147 248.026C691.076 257.604 689.564 259.473 674.284 283.672L656.062 271.882L644.464 287.218C644.464 287.218 661.82 306.676 675.685 306.676C681.1 306.676 686.363 302.416 690.952 296.768C696.367 290.103 712.115 275.496 719.879 268.061C728.811 259.5 711.812 235.603 696.147 248.04V248.026Z" fill="#404040" stroke="white" stroke-width="1.37418" stroke-miterlimit="10"/>
<path vector-effect="non-scaling-stroke" d="M692.23 336.207V337.622C692.23 337.622 692.203 340.398 692.23 340.398C692.876 340.632 705.271 345.524 728.701 344.892C739.681 344.589 747.253 342.721 751.884 339.821C751.925 342.295 751.911 335.135 751.925 334.695L751.829 334.792C750.441 335.08 732.631 344.796 692.217 336.221L692.23 336.207Z" fill="#020202" stroke="white" stroke-width="1.37418" stroke-miterlimit="10"/>
<path vector-effect="non-scaling-stroke" d="M620.745 207.215C619.357 210.994 615.166 212.931 611.387 211.53C607.608 210.142 605.671 205.951 607.072 202.172C608.474 198.393 612.651 196.455 616.43 197.857C620.209 199.245 622.147 203.436 620.745 207.215Z" stroke="white" stroke-width="1.37418" stroke-linecap="round" stroke-linejoin="round"/>
<path vector-effect="non-scaling-stroke" d="M643.681 197.059C643.681 201.085 640.41 204.356 636.384 204.356C632.357 204.356 629.087 201.085 629.087 197.059C629.087 193.032 632.357 189.762 636.384 189.762C640.41 189.762 643.681 193.032 643.681 197.059Z" stroke="white" stroke-width="1.37418" stroke-linecap="round" stroke-linejoin="round"/>
<path vector-effect="non-scaling-stroke" d="M668.251 193.17C668.251 197.196 664.98 200.467 660.954 200.467C656.928 200.467 653.657 197.196 653.657 193.17C653.657 189.144 656.928 185.873 660.954 185.873C664.98 185.873 668.251 189.144 668.251 193.17Z" stroke="white" stroke-width="1.37418" stroke-linecap="round" stroke-linejoin="round"/>
<path vector-effect="non-scaling-stroke" d="M603.101 276.007C608.254 273.822 613.778 271.788 619.632 269.919" stroke="white" stroke-width="1.37418" stroke-linejoin="round"/>
<path vector-effect="non-scaling-stroke" d="M567.496 299.56C572.924 293.238 580.702 287.357 590.39 282.094" stroke="white" stroke-width="1.37418" stroke-linejoin="round"/>
<path vector-effect="non-scaling-stroke" d="M641.248 175.114C653.492 172.379 666.726 170.276 680.66 168.93V217.438" stroke="white" stroke-width="1.37418" stroke-linejoin="round"/>
<path vector-effect="non-scaling-stroke" d="M558.605 232.004V321.01C558.605 356.835 629.76 385.858 717.543 385.858C753.327 385.858 786.348 381.021 801.313 377.036V288.03C786.348 292.015 753.327 296.852 717.543 296.852C671.989 296.852 630.914 289.033 601.933 276.514C575.068 264.902 558.605 249.237 558.605 232.004ZM558.605 232.004C558.605 216.201 573.02 187.962 641.248 175.113" stroke="white" stroke-width="1.37418" stroke-linejoin="round"/>
<path vector-effect="non-scaling-stroke" d="M593.963 22.8809H795.322C797.287 22.8809 798.894 24.4749 798.894 26.4537V136.155C798.894 138.12 797.3 139.728 795.322 139.728H749.012L732.315 161.44L732.453 139.728H593.963C591.998 139.728 590.39 138.133 590.39 136.155V26.4537C590.39 24.4887 591.984 22.8809 593.963 22.8809Z" fill="black" stroke="white" stroke-width="1.37418" stroke-linecap="round" stroke-linejoin="round"/>
<path vector-effect="non-scaling-stroke" d="M707.772 56.8496H789.454" stroke="white" stroke-width="1.37418" stroke-linecap="round" stroke-linejoin="round"/>
<path vector-effect="non-scaling-stroke" d="M707.772 42.6416H749.534" stroke="white" stroke-width="1.37418" stroke-linecap="round" stroke-linejoin="round"/>
<path vector-effect="non-scaling-stroke" d="M697.947 42.6416H679.849C679.204 42.6416 678.681 43.1646 678.681 43.8097V56.0811C678.681 56.7262 679.204 57.2492 679.849 57.2492H697.947C698.592 57.2492 699.115 56.7262 699.115 56.0811V43.8097C699.115 43.1646 698.592 42.6416 697.947 42.6416Z" fill="#9F20F5" stroke="white" stroke-width="1.37418" stroke-linecap="round" stroke-linejoin="round"/>
<path vector-effect="non-scaling-stroke" d="M697.947 71.0732H679.849C679.204 71.0732 678.681 71.5962 678.681 72.2413V84.5127C678.681 85.1578 679.204 85.6808 679.849 85.6808H697.947C698.592 85.6808 699.115 85.1578 699.115 84.5127V72.2413C699.115 71.5962 698.592 71.0732 697.947 71.0732Z" fill="black" stroke="white" stroke-width="1.37418" stroke-linecap="round" stroke-linejoin="round"/>
<path vector-effect="non-scaling-stroke" d="M693.536 120.158V110.607L709.119 105.097V98.6245L724.702 89.3076L740.285 89.2664L755.869 77.8057L764.155 71.4707H771.369V120.117" fill="black"/>
<path vector-effect="non-scaling-stroke" d="M693.536 120.158V110.607L709.119 105.097V98.6245L724.702 89.3076L740.285 89.2664L755.869 77.8057L764.155 71.4707H771.369V120.117" stroke="white" stroke-width="1.37418" stroke-linecap="round" stroke-linejoin="round"/>
<path vector-effect="non-scaling-stroke" d="M709.119 98.624V120.157" stroke="white" stroke-width="1.37418" stroke-linecap="round" stroke-linejoin="round"/>
<path vector-effect="non-scaling-stroke" d="M724.702 89.3076V120.158" stroke="white" stroke-width="1.37418" stroke-linecap="round" stroke-linejoin="round"/>
<path vector-effect="non-scaling-stroke" d="M740.286 89.2666V120.117" stroke="white" stroke-width="1.37418" stroke-linecap="round" stroke-linejoin="round"/>
<path vector-effect="non-scaling-stroke" d="M755.869 77.8047V120.157" stroke="white" stroke-width="1.37418" stroke-linecap="round" stroke-linejoin="round"/>
<path vector-effect="non-scaling-stroke" d="M771.369 71.4707H785.936V120.117H678.681V110.607H693.536" stroke="white" stroke-width="1.37418" stroke-linecap="round" stroke-linejoin="round"/>
<path vector-effect="non-scaling-stroke" d="M630.365 56.1632C630.365 56.1632 624.085 78.1363 618.822 85.0347C613.572 91.9331 605.657 94.9563 603.445 98.4742C601.232 101.992 600.682 102.982 600.586 107.132L628.276 112.312L630.365 56.1494V56.1632Z" fill="#020202" stroke="white" stroke-width="1.37418" stroke-miterlimit="10"/>
<path vector-effect="non-scaling-stroke" d="M642.072 56.1777C642.072 56.1777 648.297 78.1646 653.533 85.0768C658.769 91.9889 666.684 95.0259 668.883 98.5575C671.081 102.089 671.631 103.065 671.727 107.229L644.024 112.341L642.072 56.1777Z" fill="#020202" stroke="white" stroke-width="1.37418" stroke-miterlimit="10"/>
<path vector-effect="non-scaling-stroke" d="M636.232 42.1876C632.701 42.1876 629.664 49.086 628.331 65.4112L628.276 106.609H644.01L644.065 58.9663C642.76 49.0997 639.737 42.1876 636.219 42.1738L636.232 42.1876Z" fill="#020202" stroke="white" stroke-width="1.37418" stroke-miterlimit="10"/>
<path vector-effect="non-scaling-stroke" d="M644.162 106.747H628.139L628.194 65.4254C629.444 50.1583 632.22 42.0781 636.232 42.0918C639.737 42.0918 642.87 48.7291 644.216 58.9805L644.162 106.761V106.747Z" fill="#020202" stroke="white" stroke-width="1.37418" stroke-miterlimit="10"/>
<path vector-effect="non-scaling-stroke" d="M626.558 113.809C627.204 111.844 627.713 111.088 627.713 111.088H630.227H631.56H633.91C633.91 111.088 634.583 111.844 635.216 113.809C635.861 115.774 635.861 117.588 635.861 117.588H631.904H629.87H625.912C625.912 117.588 625.912 115.774 626.558 113.809Z" fill="#020202" stroke="white" stroke-width="1.37418" stroke-miterlimit="10"/>
<path vector-effect="non-scaling-stroke" d="M625.033 104.315C625.679 100.549 628.056 99.0928 628.056 99.0928H628.702H630.035H630.681C630.681 99.0928 633.058 100.549 633.69 104.315C634.322 108.094 634.322 111.57 634.322 111.57H630.365H628.331H624.373C624.373 111.57 624.373 108.08 625.019 104.315H625.033Z" fill="#020202" stroke="white" stroke-width="1.37418" stroke-miterlimit="10"/>
<path vector-effect="non-scaling-stroke" d="M645.728 113.838C645.082 111.873 644.587 111.117 644.587 111.117H642.073H640.74H638.39C638.39 111.117 637.717 111.873 637.071 113.838C636.425 115.803 636.425 117.617 636.425 117.617H640.382H642.416H646.374C646.374 117.617 646.374 115.803 645.728 113.838Z" fill="#020202" stroke="white" stroke-width="1.37418" stroke-miterlimit="10"/>
<path vector-effect="non-scaling-stroke" d="M647.295 104.342C646.649 100.563 644.285 99.1201 644.285 99.1201H643.639H642.306H641.66C641.66 99.1201 639.283 100.563 638.637 104.342C637.991 108.107 637.991 111.598 637.991 111.598H641.949H643.983H647.94C647.94 111.598 647.94 108.121 647.308 104.342H647.295Z" fill="#020202" stroke="white" stroke-width="1.37418" stroke-miterlimit="10"/>
<path vector-effect="non-scaling-stroke" d="M635.435 62.6492L635.064 100.329C635.064 100.329 635.064 100.425 635.051 100.48C633.333 107.695 634.735 115.885 635.683 120.008C635.738 120.227 636.15 120.2 636.15 119.98C636.15 120.2 636.562 120.227 636.617 120.008C637.579 115.885 638.995 107.695 637.291 100.48C637.291 100.425 637.277 100.384 637.277 100.329L636.906 62.6492C636.906 62.2507 636.576 61.9209 636.177 61.9209C635.779 61.9209 635.449 62.2507 635.435 62.6492Z" fill="#020202" stroke="white" stroke-width="1.37418" stroke-miterlimit="10"/>
<path vector-effect="non-scaling-stroke" d="M205.028 161.194L205.399 119.35C205.399 118.004 206.787 117.097 208.024 117.605L308.119 158.583C308.834 158.872 309.301 159.573 309.301 160.342V196.648C309.301 197.967 307.995 198.888 306.759 198.448L206.306 163.008C205.536 162.733 205.028 162.005 205.028 161.194Z" fill="#020202" stroke="white" stroke-width="1.37418" stroke-miterlimit="10"/>
<path vector-effect="non-scaling-stroke" d="M257.316 140.8L235.466 131.771V149.677L257.316 158.128V140.8Z" fill="#020202" stroke="white" stroke-width="1.37418" stroke-miterlimit="10"/>
<path vector-effect="non-scaling-stroke" d="M285.376 168.97L306.346 177.078V162.044C306.346 161.426 305.975 160.876 305.412 160.643L285.39 152.37V168.97H285.376Z" fill="#020202" stroke="white" stroke-width="1.37418" stroke-miterlimit="10"/>
<path vector-effect="non-scaling-stroke" d="M282.422 170.991L260.27 162.43V178.508L282.422 186.56V170.991Z" fill="#020202" stroke="white" stroke-width="1.37418" stroke-miterlimit="10"/>
<path vector-effect="non-scaling-stroke" d="M260.27 159.269L282.422 167.83V151.161L275.949 148.481L260.27 142.009V159.269Z" fill="#020202" stroke="white" stroke-width="1.37418" stroke-miterlimit="10"/>
<path vector-effect="non-scaling-stroke" d="M257.315 161.289L235.466 152.838V169.507L235.686 169.575L257.315 177.436V161.289Z" fill="#020202" stroke="white" stroke-width="1.37418" stroke-miterlimit="10"/>
<path vector-effect="non-scaling-stroke" d="M232.511 148.537V130.549L211.102 121.713C210.098 121.3 208.999 122.029 208.999 123.114V139.44L232.511 148.537Z" fill="#020202" stroke="white" stroke-width="1.37418" stroke-miterlimit="10"/>
<path vector-effect="non-scaling-stroke" d="M285.376 172.131V187.618L304.312 194.489C305.302 194.846 306.346 194.118 306.346 193.06V180.225L285.376 172.117V172.131Z" fill="#020202" stroke="white" stroke-width="1.37418" stroke-miterlimit="10"/>
<path vector-effect="non-scaling-stroke" d="M232.511 151.697L208.985 142.6V158.801C208.985 159.433 209.37 160.01 209.975 160.23L232.511 168.42V151.697Z" fill="#020202" stroke="white" stroke-width="1.37418" stroke-miterlimit="10"/>
<path vector-effect="non-scaling-stroke" d="M6.89832 95.3294L7.3518 44.0037C7.36554 42.3547 9.04204 41.2279 10.5811 41.86L133.351 92.1275C134.23 92.4848 134.807 93.3368 134.807 94.2988V138.836C134.807 140.444 133.213 141.584 131.688 141.048L8.46488 97.5556C7.5167 97.2258 6.89832 96.3325 6.89832 95.3294Z" fill="#020202" stroke="white" stroke-width="1.37418" stroke-miterlimit="10"/>
<path vector-effect="non-scaling-stroke" d="M195.134 132.665L205.234 136.636L205.138 146.902L194.969 143.15L195.134 132.665Z" fill="#020202" stroke="white" stroke-width="1.37418" stroke-miterlimit="10"/>
<path vector-effect="non-scaling-stroke" d="M173.188 73.9472H173.999L173.71 56.3027H173.188H172.652L172.364 73.9472H173.188Z" fill="#020202" stroke="white" stroke-width="1.37418" stroke-miterlimit="10"/>
<path vector-effect="non-scaling-stroke" d="M169.863 84.8163V74.0977L173.078 72.1738L176.5 74.455V84.8163H169.863Z" fill="#020202" stroke="white" stroke-width="1.37418" stroke-miterlimit="10"/>
<path vector-effect="non-scaling-stroke" d="M173.188 58.3223C174.304 58.3223 175.208 57.4179 175.208 56.3023C175.208 55.1866 174.304 54.2822 173.188 54.2822C172.072 54.2822 171.168 55.1866 171.168 56.3023C171.168 57.4179 172.072 58.3223 173.188 58.3223Z" fill="#020202" stroke="white" stroke-width="1.37418" stroke-miterlimit="10"/>
<path vector-effect="non-scaling-stroke" d="M173.188 117.384V79.2646C173.188 79.1547 173.298 79.086 173.394 79.1135L212.613 92.7866C212.613 92.7866 212.668 92.8278 212.668 92.869V132.528C212.668 132.528 212.613 132.624 212.558 132.61L173.243 117.467C173.243 117.467 173.188 117.426 173.188 117.384Z" fill="#020202" stroke="white" stroke-width="1.37418" stroke-miterlimit="10"/>
<path vector-effect="non-scaling-stroke" d="M143.946 137.406L181.516 151.134L212.668 132.665L173.188 117.453L143.946 137.31C143.946 137.31 143.918 137.392 143.946 137.406Z" fill="#020202" stroke="white" stroke-width="1.37418" stroke-miterlimit="10"/>
<path vector-effect="non-scaling-stroke" d="M229.713 130.972C240.663 124.65 241.326 105.299 231.194 87.7503C221.062 70.2014 203.972 61.1002 193.022 67.4222C182.072 73.7442 181.409 93.0953 191.541 110.644C201.673 128.193 218.763 137.294 229.713 130.972Z" fill="#202020" stroke="white" stroke-width="1.37418" stroke-miterlimit="10"/>
<path vector-effect="non-scaling-stroke" d="M211.706 98.8065L211.954 99.2737C212.751 100.758 214.647 101.253 216.063 100.346L234.834 88.3764L234.037 86.8923L233.24 85.4082L212.847 94.3404C211.308 95.0137 210.662 96.8689 211.459 98.353L211.706 98.8202V98.8065Z" fill="#020202" stroke="white" stroke-width="1.37418" stroke-miterlimit="10"/>
<path vector-effect="non-scaling-stroke" d="M231.357 81.9313C234.106 80.4609 237.527 81.5053 238.984 84.2537C240.454 87.002 239.41 90.4237 236.662 91.8804C233.913 93.3507 230.491 92.3064 229.035 89.558C227.564 86.8096 228.609 83.3879 231.357 81.9313Z" fill="#020202" stroke="white" stroke-width="1.37418" stroke-miterlimit="10"/>
<path vector-effect="non-scaling-stroke" d="M151.393 103.423V132.24L156.698 128.639V99.3555L151.393 103.423Z" fill="#020202" stroke="white" stroke-width="1.37418" stroke-miterlimit="10"/>
<path vector-effect="non-scaling-stroke" d="M173.051 79.156L144.344 99.7962C144.344 99.7962 144.303 99.8375 144.303 99.8649L143.835 137.201C143.835 137.27 143.918 137.311 143.973 137.27L151.338 132.268C151.338 132.268 151.38 132.227 151.38 132.199V103.465C151.38 103.465 151.38 103.41 151.407 103.397L156.547 99.4527C156.547 99.4527 156.684 99.4527 156.684 99.5214V128.475C156.684 128.544 156.767 128.585 156.821 128.544L160.271 126.208C160.271 126.208 160.312 126.167 160.312 126.139V97.4601C160.312 97.4601 160.312 97.4052 160.339 97.3914L165.479 93.4475C165.479 93.4475 165.616 93.4475 165.616 93.5162V122.415C165.616 122.484 165.699 122.525 165.754 122.484L173.133 117.482C173.133 117.482 173.174 117.441 173.174 117.413V79.2385C173.174 79.1698 173.092 79.1285 173.037 79.1698L173.051 79.156Z" fill="#020202" stroke="white" stroke-width="1.37418" stroke-miterlimit="10"/>
<path vector-effect="non-scaling-stroke" d="M160.326 97.4035V126.179L165.63 122.565V93.3359L160.326 97.4035Z" fill="#020202" stroke="white" stroke-width="1.37418" stroke-miterlimit="10"/>
<path vector-effect="non-scaling-stroke" d="M191.547 110.637C181.419 93.0887 182.079 73.7402 193.031 67.4189C179.949 74.2624 176.61 95.411 186.751 112.959C196.879 130.508 217.286 139.646 229.722 130.975C218.77 137.296 201.689 128.199 191.547 110.651V110.637Z" fill="#202020" stroke="white" stroke-width="1.37418" stroke-miterlimit="10"/>
<path vector-effect="non-scaling-stroke" d="M71.0451 70.321L44.2485 59.2588V81.2182L71.0451 91.5795V70.321Z" fill="#020202" stroke="white" stroke-width="1.37418" stroke-miterlimit="10"/>
<path vector-effect="non-scaling-stroke" d="M74.6731 92.9817L101.827 103.48V83.0327L93.8979 79.7484L74.6731 71.8193V92.9817Z" fill="#020202" stroke="white" stroke-width="1.37418" stroke-miterlimit="10"/>
<path vector-effect="non-scaling-stroke" d="M105.455 104.881L131.165 114.816V96.3748C131.165 95.619 130.712 94.9457 130.011 94.6571L105.441 84.5156V104.867L105.455 104.881Z" fill="#020202" stroke="white" stroke-width="1.37418" stroke-miterlimit="10"/>
<path vector-effect="non-scaling-stroke" d="M101.827 107.354L74.673 96.8555V116.575L101.827 126.442V107.354Z" fill="#020202" stroke="white" stroke-width="1.37418" stroke-miterlimit="10"/>
<path vector-effect="non-scaling-stroke" d="M40.6207 79.8158V57.7601L14.3463 46.9178C13.1233 46.4094 11.7766 47.3164 11.7766 48.6356V68.6574L40.6207 79.8158Z" fill="#020202" stroke="white" stroke-width="1.37418" stroke-miterlimit="10"/>
<path vector-effect="non-scaling-stroke" d="M40.6208 83.6906L11.7629 72.5322V92.4029C11.7629 93.1862 12.2439 93.887 12.9722 94.1481L40.607 104.193V83.6768L40.6208 83.6906Z" fill="#020202" stroke="white" stroke-width="1.37418" stroke-miterlimit="10"/>
<path vector-effect="non-scaling-stroke" d="M105.455 108.757V127.762L128.678 136.199C129.888 136.639 131.179 135.746 131.179 134.454V118.706L105.468 108.771L105.455 108.757Z" fill="#020202" stroke="white" stroke-width="1.37418" stroke-miterlimit="10"/>
<path vector-effect="non-scaling-stroke" d="M71.0452 95.4541L44.2487 85.0928V105.527L44.5097 105.623L71.0452 115.256V95.4541Z" fill="#020202" stroke="white" stroke-width="1.37418" stroke-miterlimit="10"/>
<path vector-effect="non-scaling-stroke" d="M134.794 111.325L144.138 114.816L144.001 125.466L134.794 122.058V111.325Z" fill="#020202" stroke="white" stroke-width="1.37418" stroke-miterlimit="10"/>
<path vector-effect="non-scaling-stroke" d="M286.05 112.436C298.582 80.4865 282.848 44.4417 250.898 31.9092" stroke="white" stroke-width="1.37418" stroke-miterlimit="10"/>
<path vector-effect="non-scaling-stroke" d="M276.375 108.644C286.805 82.0399 273.71 52.0278 247.105 41.584" stroke="white" stroke-width="1.37418" stroke-miterlimit="10"/>
<path vector-effect="non-scaling-stroke" d="M266.701 104.837C275.043 83.5786 264.571 59.5854 243.313 51.2578" stroke="white" stroke-width="1.37418" stroke-miterlimit="10"/>
<path vector-effect="non-scaling-stroke" d="M257.027 101.045C263.266 85.132 255.433 67.1714 239.52 60.9326" stroke="white" stroke-width="1.37418" stroke-miterlimit="10"/>
<path vector-effect="non-scaling-stroke" d="M55.4482 140.868V161.921" stroke="white" stroke-width="1.37418" stroke-miterlimit="10"/>
<path vector-effect="non-scaling-stroke" d="M65.9745 151.394H44.922" stroke="white" stroke-width="1.37418" stroke-miterlimit="10"/>
<path vector-effect="non-scaling-stroke" d="M60.5877 146.241L50.295 156.534" stroke="white" stroke-width="1.37418" stroke-miterlimit="10"/>
<path vector-effect="non-scaling-stroke" d="M60.5877 156.534L50.295 146.241" stroke="white" stroke-width="1.37418" stroke-miterlimit="10"/>
<path vector-effect="non-scaling-stroke" d="M343.875 30.5068V45.774" stroke="white" stroke-width="1.37418" stroke-miterlimit="10"/>
<path vector-effect="non-scaling-stroke" d="M351.502 38.1475H336.235" stroke="white" stroke-width="1.37418" stroke-miterlimit="10"/>
<path vector-effect="non-scaling-stroke" d="M347.599 34.4092L340.137 41.871" stroke="white" stroke-width="1.37418" stroke-miterlimit="10"/>
<path vector-effect="non-scaling-stroke" d="M347.599 41.871L340.137 34.4092" stroke="white" stroke-width="1.37418" stroke-miterlimit="10"/>
<path vector-effect="non-scaling-stroke" d="M329.13 79.0303V101.045" stroke="white" stroke-width="1.37418" stroke-miterlimit="10"/>
<path vector-effect="non-scaling-stroke" d="M340.137 90.0381H318.109" stroke="white" stroke-width="1.37418" stroke-miterlimit="10"/>
<path vector-effect="non-scaling-stroke" d="M334.517 84.6514L323.743 95.425" stroke="white" stroke-width="1.37418" stroke-miterlimit="10"/>
<path vector-effect="non-scaling-stroke" d="M334.517 95.425L323.743 84.6514" stroke="white" stroke-width="1.37418" stroke-miterlimit="10"/>
<path vector-effect="non-scaling-stroke" d="M554.29 359.239V381.267" stroke="white" stroke-width="1.37418" stroke-miterlimit="10"/>
<path vector-effect="non-scaling-stroke" d="M565.297 370.26H543.269" stroke="white" stroke-width="1.37418" stroke-miterlimit="10"/>
<path vector-effect="non-scaling-stroke" d="M559.677 364.874L548.903 375.648" stroke="white" stroke-width="1.37418" stroke-miterlimit="10"/>
<path vector-effect="non-scaling-stroke" d="M559.677 375.648L548.903 364.874" stroke="white" stroke-width="1.37418" stroke-miterlimit="10"/>
<path vector-effect="non-scaling-stroke" d="M131.166 19.1572V44.662" stroke="white" stroke-width="1.37418" stroke-miterlimit="10"/>
<path vector-effect="non-scaling-stroke" d="M143.932 31.9092H118.413" stroke="white" stroke-width="1.37418" stroke-miterlimit="10"/>
<path vector-effect="non-scaling-stroke" d="M137.405 25.6709L124.941 38.1485" stroke="white" stroke-width="1.37418" stroke-miterlimit="10"/>
<path vector-effect="non-scaling-stroke" d="M137.405 38.1485L124.941 25.6709" stroke="white" stroke-width="1.37418" stroke-miterlimit="10"/>
<path vector-effect="non-scaling-stroke" d="M279.962 222.987V254.772" stroke="white" stroke-width="1.37418" stroke-miterlimit="10"/>
<path vector-effect="non-scaling-stroke" d="M295.861 238.873H264.077" stroke="white" stroke-width="1.37418" stroke-miterlimit="10"/>
<path vector-effect="non-scaling-stroke" d="M287.74 231.109L272.198 246.651" stroke="white" stroke-width="1.37418" stroke-miterlimit="10"/>
<path vector-effect="non-scaling-stroke" d="M287.74 246.651L272.198 231.109" stroke="white" stroke-width="1.37418" stroke-miterlimit="10"/>
<path vector-effect="non-scaling-stroke" d="M541.07 414.222V451.421" stroke="white" stroke-width="1.37418" stroke-miterlimit="10"/>
<path vector-effect="non-scaling-stroke" d="M559.677 432.814H522.464" stroke="white" stroke-width="1.37418" stroke-miterlimit="10"/>
<path vector-effect="non-scaling-stroke" d="M550.167 423.718L531.973 441.912" stroke="white" stroke-width="1.37418" stroke-miterlimit="10"/>
<path vector-effect="non-scaling-stroke" d="M550.167 441.912L531.973 423.718" stroke="white" stroke-width="1.37418" stroke-miterlimit="10"/>
<path vector-effect="non-scaling-stroke" d="M621.199 398.239V418.385" stroke="white" stroke-width="1.37418" stroke-miterlimit="10"/>
<path vector-effect="non-scaling-stroke" d="M631.272 408.312H611.126" stroke="white" stroke-width="1.37418" stroke-miterlimit="10"/>
<path vector-effect="non-scaling-stroke" d="M626.118 403.378L616.266 413.231" stroke="white" stroke-width="1.37418" stroke-miterlimit="10"/>
<path vector-effect="non-scaling-stroke" d="M626.118 413.231L616.266 403.378" stroke="white" stroke-width="1.37418" stroke-miterlimit="10"/>
</g>
<defs>
<clipPath id="clip0_20_13878">
<rect width="802" height="524.676" fill="white"/>
</clipPath>
</defs>
</svg>
