<svg width="802" height="535" viewBox="0 0 802 535" fill="none" xmlns="http://www.w3.org/2000/svg">
<g clip-path="url(#clip0_24_402)">
<g clip-path="url(#clip1_24_402)">
<path vector-effect="non-scaling-stroke" d="M694.402 421.63C694.402 384.053 663.984 353.58 626.46 353.58H202.467C164.943 353.58 134.525 384.053 134.525 421.63C134.525 459.208 164.943 489.681 202.467 489.681H626.447C663.97 489.681 694.388 459.222 694.388 421.63H694.402Z" fill="#020202" stroke="white" stroke-width="1.35856" stroke-miterlimit="10"/>
<path vector-effect="non-scaling-stroke" d="M414.09 353.58H279.932V489.667H414.09V353.58Z" fill="#202020" stroke="white" stroke-width="1.35856" stroke-miterlimit="10"/>
<path vector-effect="non-scaling-stroke" d="M548.044 353.58H413.886V489.667H548.044V353.58Z" fill="#020202" stroke="white" stroke-width="1.35856" stroke-miterlimit="10"/>
<path vector-effect="non-scaling-stroke" d="M338.519 376.524L313.187 445.635C311.909 449.122 313.7 452.985 317.187 454.263L351.207 466.733C354.694 468.011 358.557 466.22 359.835 462.733L385.167 393.622C386.445 390.135 384.655 386.272 381.167 384.994L347.148 372.524C343.661 371.246 339.798 373.037 338.519 376.524Z" stroke="white" stroke-width="1.35856" stroke-linecap="round" stroke-linejoin="round"/>
<path vector-effect="non-scaling-stroke" d="M383.455 398.33L336.815 381.226" stroke="white" stroke-width="1.35856" stroke-linecap="round" stroke-linejoin="round"/>
<path vector-effect="non-scaling-stroke" d="M361.595 457.944L314.956 440.854" stroke="white" stroke-width="1.35856" stroke-linecap="round" stroke-linejoin="round"/>
<path vector-effect="non-scaling-stroke" d="M332.277 453.501L340.198 456.409" stroke="white" stroke-width="1.35856" stroke-linecap="round" stroke-linejoin="round"/>
<path vector-effect="non-scaling-stroke" d="M346.746 409.022L349.613 401.224" stroke="white" stroke-width="1.35856" stroke-linecap="round" stroke-linejoin="round"/>
<path vector-effect="non-scaling-stroke" d="M361.718 414.511L364.571 406.713" stroke="white" stroke-width="1.35856" stroke-linecap="round" stroke-linejoin="round"/>
<path vector-effect="non-scaling-stroke" d="M367.763 416.725L370.616 408.927" stroke="white" stroke-width="1.35856" stroke-linecap="round" stroke-linejoin="round"/>
<path vector-effect="non-scaling-stroke" d="M343.065 403.249C342.277 405.395 340.578 406.754 339.261 406.278C337.943 405.803 337.535 403.67 338.323 401.51C339.111 399.363 340.809 398.005 342.127 398.48C343.445 398.956 343.853 401.089 343.065 403.249Z" stroke="white" stroke-width="1.35856" stroke-linecap="round" stroke-linejoin="round"/>
<path vector-effect="non-scaling-stroke" d="M358.026 408.714C358.816 406.558 358.394 404.421 357.084 403.941C355.774 403.461 354.071 404.819 353.281 406.975C352.491 409.13 352.912 411.267 354.223 411.748C355.533 412.228 357.236 410.87 358.026 408.714Z" stroke="white" stroke-width="1.35856" stroke-linecap="round" stroke-linejoin="round"/>
<path vector-effect="non-scaling-stroke" d="M353.335 425.596L356.188 417.798" stroke="white" stroke-width="1.35856" stroke-linecap="round" stroke-linejoin="round"/>
<path vector-effect="non-scaling-stroke" d="M347.29 423.37L350.143 415.585" stroke="white" stroke-width="1.35856" stroke-linecap="round" stroke-linejoin="round"/>
<path vector-effect="non-scaling-stroke" d="M332.319 417.894L335.185 410.096" stroke="white" stroke-width="1.35856" stroke-linecap="round" stroke-linejoin="round"/>
<path vector-effect="non-scaling-stroke" d="M343.606 417.583C344.397 415.427 343.975 413.29 342.665 412.81C341.354 412.33 339.652 413.688 338.861 415.844C338.071 418 338.493 420.136 339.803 420.617C341.114 421.097 342.816 419.739 343.606 417.583Z" stroke="white" stroke-width="1.35856" stroke-linecap="round" stroke-linejoin="round"/>
<path vector-effect="non-scaling-stroke" d="M364.62 425.281C365.41 423.126 364.989 420.989 363.678 420.508C362.368 420.028 360.665 421.386 359.875 423.542C359.085 425.698 359.507 427.835 360.817 428.315C362.127 428.795 363.83 427.437 364.62 425.281Z" stroke="white" stroke-width="1.35856" stroke-linecap="round" stroke-linejoin="round"/>
<path vector-effect="non-scaling-stroke" d="M337.603 433.979L340.456 426.181" stroke="white" stroke-width="1.35856" stroke-linecap="round" stroke-linejoin="round"/>
<path vector-effect="non-scaling-stroke" d="M343.649 436.194L346.502 428.396" stroke="white" stroke-width="1.35856" stroke-linecap="round" stroke-linejoin="round"/>
<path vector-effect="non-scaling-stroke" d="M358.606 441.682L361.473 433.884" stroke="white" stroke-width="1.35856" stroke-linecap="round" stroke-linejoin="round"/>
<path vector-effect="non-scaling-stroke" d="M333.921 428.205C333.133 430.352 331.435 431.71 330.117 431.235C328.813 430.76 328.392 428.627 329.18 426.466C329.968 424.306 331.666 422.961 332.984 423.437C334.302 423.912 334.709 426.045 333.921 428.205Z" stroke="white" stroke-width="1.35856" stroke-linecap="round" stroke-linejoin="round"/>
<path vector-effect="non-scaling-stroke" d="M354.92 435.89C355.71 433.734 355.288 431.597 353.978 431.117C352.668 430.637 350.965 431.995 350.175 434.15C349.385 436.306 349.806 438.443 351.117 438.923C352.427 439.404 354.13 438.045 354.92 435.89Z" stroke="white" stroke-width="1.35856" stroke-linecap="round" stroke-linejoin="round"/>
<path vector-effect="non-scaling-stroke" d="M581.532 460.946V442.538H574.834L588.216 422.458L601.598 442.538H594.9V460.946" stroke="white" stroke-width="1.35856" stroke-linecap="round" stroke-linejoin="round"/>
<path vector-effect="non-scaling-stroke" d="M566.466 467.631H651.919" stroke="white" stroke-width="1.35856" stroke-linecap="round" stroke-linejoin="round"/>
<path vector-effect="non-scaling-stroke" d="M566.466 467.631V375.602" stroke="white" stroke-width="1.35856" stroke-linecap="round" stroke-linejoin="round"/>
<path vector-effect="non-scaling-stroke" d="M609.98 460.947V419.117H603.283L616.665 399.038L630.046 419.117H623.349V460.947" stroke="white" stroke-width="1.35856" stroke-linecap="round" stroke-linejoin="round"/>
<path vector-effect="non-scaling-stroke" d="M638.415 460.947V395.695H631.717L645.099 375.615L658.481 395.695H651.783V460.947" stroke="white" stroke-width="1.35856" stroke-linecap="round" stroke-linejoin="round"/>
<path vector-effect="non-scaling-stroke" d="M68.9878 462.672L67.6972 260.681C67.6157 248.698 71.1072 236.933 77.8049 226.771C111.511 175.662 224.244 32.021 351.379 170.934C351.379 170.934 456.735 291.832 572.417 211.664C574.495 210.224 576.628 208.851 578.87 207.629C627.37 181.096 707.104 135.951 749.655 227.246C753.336 235.14 755.102 243.699 755.102 252.312V462.278C755.102 497.424 724.929 525.913 687.704 525.913H136.386C99.3245 525.913 69.2188 497.655 69.0014 462.658L68.9878 462.672Z" stroke="white" stroke-width="1.35856" stroke-linecap="round" stroke-linejoin="round"/>
<path vector-effect="non-scaling-stroke" d="M697.853 165.065H687.365C679.105 165.065 672.42 158.368 672.42 150.121V69.8846C672.42 61.6246 679.118 54.9404 687.365 54.9404H786.377C794.637 54.9404 801.321 61.6381 801.321 69.8846V150.121C801.321 158.381 794.623 165.065 786.377 165.065H737.509L697.853 195.226V165.038" fill="#202020"/>
<path vector-effect="non-scaling-stroke" d="M697.853 165.065H687.365C679.105 165.065 672.42 158.368 672.42 150.121V69.8846C672.42 61.6246 679.118 54.9404 687.365 54.9404H786.377C794.637 54.9404 801.321 61.6381 801.321 69.8846V150.121C801.321 158.381 794.623 165.065 786.377 165.065H737.509L697.853 195.226V165.038" stroke="white" stroke-width="1.35856" stroke-miterlimit="10"/>
<path vector-effect="non-scaling-stroke" d="M723.394 89.2844V70.4819" stroke="white" stroke-width="1.35856" stroke-miterlimit="10"/>
<path vector-effect="non-scaling-stroke" d="M759.504 89.2844V70.4819" stroke="white" stroke-width="1.35856" stroke-miterlimit="10"/>
<path vector-effect="non-scaling-stroke" d="M774.096 89.2844V70.4819" stroke="white" stroke-width="1.35856" stroke-miterlimit="10"/>
<path vector-effect="non-scaling-stroke" d="M711.058 79.8832C711.058 85.0729 708.504 89.2844 705.339 89.2844C702.173 89.2844 699.619 85.0729 699.619 79.8832C699.619 74.6935 702.173 70.4819 705.339 70.4819C708.504 70.4819 711.058 74.6935 711.058 79.8832Z" fill="#202020" stroke="white" stroke-width="1.35856" stroke-miterlimit="10"/>
<path vector-effect="non-scaling-stroke" d="M747.169 79.8832C747.169 85.0729 744.615 89.2844 741.45 89.2844C738.284 89.2844 735.73 85.0729 735.73 79.8832C735.73 74.6935 738.284 70.4819 741.45 70.4819C744.615 70.4819 747.169 74.6935 747.169 79.8832Z" fill="#202020" stroke="white" stroke-width="1.35856" stroke-miterlimit="10"/>
<path vector-effect="non-scaling-stroke" d="M750.334 119.403V100.587" stroke="white" stroke-width="1.35856" stroke-miterlimit="10"/>
<path vector-effect="non-scaling-stroke" d="M735.73 119.403V100.587" stroke="white" stroke-width="1.35856" stroke-miterlimit="10"/>
<path vector-effect="non-scaling-stroke" d="M699.619 119.403V100.587" stroke="white" stroke-width="1.35856" stroke-miterlimit="10"/>
<path vector-effect="non-scaling-stroke" d="M723.394 110.002C723.394 115.192 720.84 119.404 717.675 119.404C714.509 119.404 711.955 115.192 711.955 110.002C711.955 104.813 714.509 100.601 717.675 100.601C720.84 100.601 723.394 104.813 723.394 110.002Z" fill="#202020" stroke="white" stroke-width="1.35856" stroke-miterlimit="10"/>
<path vector-effect="non-scaling-stroke" d="M774.096 110.002C774.096 115.192 771.542 119.404 768.376 119.404C765.211 119.404 762.657 115.192 762.657 110.002C762.657 104.813 765.211 100.601 768.376 100.601C771.542 100.601 774.096 104.813 774.096 110.002Z" fill="#202020" stroke="white" stroke-width="1.35856" stroke-miterlimit="10"/>
<path vector-effect="non-scaling-stroke" d="M723.394 149.523V130.707" stroke="white" stroke-width="1.35856" stroke-miterlimit="10"/>
<path vector-effect="non-scaling-stroke" d="M737.999 149.523V130.707" stroke="white" stroke-width="1.35856" stroke-miterlimit="10"/>
<path vector-effect="non-scaling-stroke" d="M774.096 149.523V130.707" stroke="white" stroke-width="1.35856" stroke-miterlimit="10"/>
<path vector-effect="non-scaling-stroke" d="M711.058 140.108C711.058 145.298 708.504 149.51 705.339 149.51C702.173 149.51 699.619 145.298 699.619 140.108C699.619 134.919 702.173 130.707 705.339 130.707C708.504 130.707 711.058 134.919 711.058 140.108Z" fill="#202020" stroke="white" stroke-width="1.35856" stroke-miterlimit="10"/>
<path vector-effect="non-scaling-stroke" d="M761.76 140.108C761.76 145.298 759.206 149.51 756.04 149.51C752.875 149.51 750.321 145.298 750.321 140.108C750.321 134.919 752.875 130.707 756.04 130.707C759.206 130.707 761.76 134.919 761.76 140.108Z" fill="#202020" stroke="white" stroke-width="1.35856" stroke-miterlimit="10"/>
<path vector-effect="non-scaling-stroke" d="M299.617 34.8066C363.021 34.8066 414.429 86.2146 414.429 149.619" stroke="white" stroke-width="1.35856" stroke-miterlimit="10"/>
<path vector-effect="non-scaling-stroke" d="M593.012 304.903C531.864 321.681 468.69 285.706 451.926 224.557" stroke="white" stroke-width="1.35856" stroke-miterlimit="10"/>
<path vector-effect="non-scaling-stroke" d="M562.213 287.322C616.851 287.322 661.144 243.029 661.144 188.391C661.144 133.754 616.851 89.4609 562.213 89.4609C507.575 89.4609 463.283 133.754 463.283 188.391C463.283 243.029 507.575 287.322 562.213 287.322Z" fill="#020202"/>
<mask id="mask0_24_402" style="mask-type:luminance" maskUnits="userSpaceOnUse" x="463" y="89" width="199" height="199">
<path vector-effect="non-scaling-stroke" d="M562.213 287.322C616.851 287.322 661.144 243.029 661.144 188.391C661.144 133.754 616.851 89.4609 562.213 89.4609C507.575 89.4609 463.283 133.754 463.283 188.391C463.283 243.029 507.575 287.322 562.213 287.322Z" fill="white"/>
</mask>
<g mask="url(#mask0_24_402)">
<path vector-effect="non-scaling-stroke" d="M529.54 222.546H495.236V217.071H529.54V222.546ZM495.644 222.139H529.132V217.492H495.644V222.139Z" fill="#020202" stroke="white" stroke-width="1.35856" stroke-linejoin="round"/>
<path vector-effect="non-scaling-stroke" d="M529.336 217.275V222.343H499.353H494.312L482.819 187.794L487.873 186.164L497.749 217.275H529.336Z" fill="#020202" stroke="white" stroke-width="1.35856" stroke-miterlimit="10"/>
<path vector-effect="non-scaling-stroke" d="M623.213 182.347L612.412 199.03L612.752 199.247L623.566 182.564L623.213 182.347Z" fill="#020202" stroke="white" stroke-width="1.35856" stroke-linejoin="round"/>
<path vector-effect="non-scaling-stroke" d="M604.179 222.343H440.133V232.79H604.179V222.343Z" fill="black" stroke="white" stroke-width="1.35856" stroke-miterlimit="10"/>
<path vector-effect="non-scaling-stroke" d="M540.028 222.329C532.868 222.329 521.293 216.351 524.309 213.389C526.198 211.542 534.01 219.122 534.01 219.122L540.028 222.329Z" fill="#404040" stroke="white" stroke-width="1.35856" stroke-miterlimit="10"/>
<path vector-effect="non-scaling-stroke" d="M525.125 213.294C524.839 213.294 524.608 213.362 524.445 213.539C523.997 213.987 523.902 214.49 524.147 215.101C525.342 218.036 533.439 221.731 539.145 222.098L533.86 219.272C531.985 217.452 527.203 213.294 525.125 213.294Z" fill="#404040" stroke="white" stroke-width="1.35856" stroke-miterlimit="10"/>
<path vector-effect="non-scaling-stroke" d="M522.081 206.91C517.937 204.057 515.587 201.163 515.112 198.323C515.03 197.78 515.112 197.345 515.356 196.965C517 198.541 521.062 202.182 525.016 204.07L522.067 206.91H522.081Z" fill="#404040"/>
<path vector-effect="non-scaling-stroke" d="M515.805 198.323C517.652 199.994 520.736 202.576 523.861 204.247L522.013 206.026C518.359 203.431 516.28 200.837 515.805 198.323ZM515.343 196.272C515.343 196.272 515.316 196.272 515.288 196.272C515.125 196.272 514.976 196.367 514.867 196.489C514.46 197.033 514.324 197.671 514.446 198.432C514.718 200.035 515.723 203.486 522.149 207.765L526.211 203.839C522.095 202.182 517.557 198.119 515.764 196.421C515.642 196.313 515.492 196.245 515.329 196.245L515.343 196.272Z" fill="white"/>
<path vector-effect="non-scaling-stroke" d="M517.217 212.425C516.647 212.425 516.117 212.235 515.628 211.882C515.506 211.787 515.479 211.678 515.479 211.61C515.479 211.542 515.479 211.434 515.587 211.325L521.538 205.66C521.633 207.331 521.456 210.184 519.405 211.624C518.644 212.154 517.91 212.425 517.231 212.425H517.217Z" fill="#404040"/>
<path vector-effect="non-scaling-stroke" d="M520.845 207.262C520.722 208.635 520.288 210.183 519.011 211.08C518.359 211.528 517.761 211.759 517.217 211.759C516.918 211.759 516.633 211.691 516.348 211.542L520.845 207.262ZM522.054 204.233L515.125 210.836C514.65 211.284 514.718 212.045 515.234 212.425C515.709 212.778 516.389 213.104 517.231 213.104C517.965 213.104 518.82 212.86 519.799 212.18C523.181 209.83 522.095 204.396 522.067 204.233H522.054Z" fill="white"/>
<path vector-effect="non-scaling-stroke" d="M540.028 206.121C535.028 206.121 531.265 205.605 526.972 203.73C524.948 202.847 522.584 203.825 521.714 205.863L518.345 213.879C518.06 214.558 518.522 215.332 519.255 215.387C520.6 215.495 522.842 214.422 525.219 208.037L527.665 209.64C527.665 209.64 528.195 222.315 540.028 222.315V206.108V206.121Z" fill="#404040" stroke="white" stroke-width="1.35856" stroke-miterlimit="10"/>
<path vector-effect="non-scaling-stroke" d="M553.478 205.727H538.968V222.356H553.749V205.727H553.464H553.478Z" fill="#020202" stroke="white" stroke-width="1.35856" stroke-miterlimit="10"/>
<path vector-effect="non-scaling-stroke" d="M628.158 340.85C621.65 336.462 615.51 332.318 615.51 324.819V277.038H615.102V324.819C615.102 332.304 608.961 336.462 602.454 340.85C594.697 346.094 585.893 352.017 585.893 364.815V365.019H644.732V364.815C644.732 352.017 635.942 346.08 628.172 340.85H628.158ZM586.301 364.611C586.396 352.167 595.05 346.338 602.671 341.189C608.567 337.209 614.178 333.432 615.306 327.169C616.434 333.432 622.031 337.209 627.927 341.189C635.562 346.338 644.203 352.167 644.298 364.611H586.287H586.301Z" fill="#020202" stroke="white" stroke-width="1.35856" stroke-linejoin="round"/>
<path vector-effect="non-scaling-stroke" d="M505.262 338.825L526.618 261.129C531.224 244.391 546.44 232.789 563.788 232.789H578.706L547.296 295.378L537.691 338.838H505.248L505.262 338.825Z" fill="#020202" stroke="white" stroke-width="1.35856" stroke-miterlimit="10"/>
<path vector-effect="non-scaling-stroke" d="M651.362 232.776H563.015C544.715 232.776 530.885 249.35 534.159 267.365L547.147 338.825H580.69L567.457 268.832H630.834C642.165 268.832 651.349 259.635 651.349 248.304V232.776H651.362Z" fill="#020202" stroke="white" stroke-width="1.35856" stroke-miterlimit="10"/>
<path vector-effect="non-scaling-stroke" d="M651.362 222.343H612.167V232.79H651.362V222.343Z" fill="#020202" stroke="white" stroke-width="1.35856" stroke-linejoin="round"/>
<path vector-effect="non-scaling-stroke" d="M618.091 222.343H618.498V232.79H618.091M624.218 232.79H624.626V222.343H624.218M630.345 232.79H630.753V222.343H630.345M636.472 232.79H636.88V222.343H636.472M642.599 232.79H643.007V222.343H642.599" fill="#020202"/>
<path vector-effect="non-scaling-stroke" d="M618.091 222.343H618.498V232.79H618.091M624.218 232.79H624.626V222.343H624.218M630.345 232.79H630.753V222.343H630.345M636.472 232.79H636.88V222.343H636.472M642.599 232.79H643.007V222.343H642.599" stroke="white" stroke-width="1.35856" stroke-linejoin="round"/>
<path vector-effect="non-scaling-stroke" d="M636.676 177.482C630.807 165.364 617.289 152.675 614.341 146.63C609.355 136.4 611.488 127.46 605.904 125.001C600.402 122.583 595.851 126.034 592.536 128.303C589.235 130.571 583.461 136.535 586.137 143.953C586.219 144.171 586.3 144.401 586.368 144.619C586.028 145.964 585.621 147.825 585.417 149.605C585.295 150.705 586.531 151.425 587.428 150.76L587.767 150.501C588.637 155.406 589.085 159.522 592.536 160.826C597.468 162.701 603.635 154.047 603.635 154.047L607.344 162.498C607.344 162.498 604.872 164.563 598.69 174.439C592.509 184.33 582.428 200.809 582.428 200.809H561.058C557.281 200.809 554.211 203.879 554.211 207.656V222.369H585.037C592.427 222.369 599.329 218.715 603.486 212.588L612.588 199.165C612.588 199.165 603.432 216.12 612.181 222.369H648.93C648.93 205.958 642.558 189.614 636.689 177.496L636.676 177.482Z" fill="#404040" stroke="white" stroke-width="1.35856" stroke-miterlimit="10"/>
<path vector-effect="non-scaling-stroke" d="M636.676 176.627C633.062 169.182 626.405 160.405 621.256 154.197C616.202 155.447 611.189 157.566 606.366 159.4L607.344 161.642C607.344 161.642 604.872 163.707 598.69 173.583C592.509 183.474 582.428 199.953 582.428 199.953H561.058C557.281 199.953 554.211 203.024 554.211 206.8V221.514H585.037C592.427 221.514 599.329 217.859 603.486 211.732L612.588 198.309C612.588 198.309 603.432 215.264 612.181 221.514H648.93C648.93 205.102 642.558 188.759 636.689 176.64L636.676 176.627Z" fill="#202020" stroke="white" stroke-width="1.35856" stroke-miterlimit="10"/>
<path vector-effect="non-scaling-stroke" d="M592.591 149.591C592.591 149.591 592.754 153.096 588.868 154.196L592.591 149.591Z" fill="#404040"/>
<path vector-effect="non-scaling-stroke" d="M592.591 149.591C592.591 149.591 592.754 153.096 588.868 154.196" stroke="white" stroke-width="1.35856" stroke-miterlimit="10"/>
<path vector-effect="non-scaling-stroke" d="M613.58 142.785C612.507 139.769 611.937 136.943 611.434 134.443C610.51 129.865 609.79 126.237 606.434 124.797C600.959 122.447 596.381 125.531 593.025 127.786L592.55 128.099C591.449 128.832 587.741 131.563 586.029 135.91L585.947 136.128L586.178 136.182C586.178 136.182 590.349 137.011 595.321 134.946C596.123 136.114 601.652 143.722 609.437 143.722C610.714 143.722 612.059 143.518 613.445 143.043L613.648 142.975L613.58 142.785Z" fill="#E3E3DF" stroke="white" stroke-width="1.35856" stroke-miterlimit="10"/>
<path vector-effect="non-scaling-stroke" d="M607.345 162.484C610.85 159.06 616.542 155.297 620.047 154.523L616.447 149.958C616.447 149.958 608.921 153.191 605.089 157.376C603.731 158.87 603.405 160.174 603.568 161.234C603.826 163.041 606.04 163.761 607.358 162.484H607.345Z" fill="#020202" stroke="white" stroke-width="1.35856" stroke-linejoin="round"/>
<path vector-effect="non-scaling-stroke" d="M657.122 181.572V250.057C657.122 264.961 645.045 277.038 630.155 277.038H582.809C580.54 277.038 578.706 275.204 578.706 272.935C578.706 270.667 580.54 268.832 582.809 268.832H628.321C639.692 268.832 648.917 259.608 648.917 248.223V181.558C648.917 179.29 650.751 177.456 653.019 177.456C655.288 177.456 657.122 179.29 657.122 181.558V181.572Z" fill="#020202" stroke="white" stroke-width="1.35856" stroke-miterlimit="10"/>
<path vector-effect="non-scaling-stroke" d="M597.101 139.715C597.101 139.715 599.723 135.381 602.359 136.658C605.687 138.288 603.704 142.459 602.359 143.206" fill="#404040"/>
<path vector-effect="non-scaling-stroke" d="M597.101 139.715C597.101 139.715 599.723 135.381 602.359 136.658C605.687 138.288 603.704 142.459 602.359 143.206" stroke="white" stroke-width="1.35856" stroke-miterlimit="10"/>
</g>
<path vector-effect="non-scaling-stroke" d="M562.213 287.322C616.851 287.322 661.144 243.029 661.144 188.391C661.144 133.754 616.851 89.4609 562.213 89.4609C507.575 89.4609 463.283 133.754 463.283 188.391C463.283 243.029 507.575 287.322 562.213 287.322Z" stroke="white" stroke-width="1.35856" stroke-miterlimit="10"/>
<path vector-effect="non-scaling-stroke" d="M299.617 245.424C352.529 245.424 395.423 202.53 395.423 149.618C395.423 96.7062 352.529 53.8125 299.617 53.8125C246.705 53.8125 203.812 96.7062 203.812 149.618C203.812 202.53 246.705 245.424 299.617 245.424Z" stroke="white" stroke-width="1.35856" stroke-miterlimit="10"/>
<mask id="mask1_24_402" style="mask-type:luminance" maskUnits="userSpaceOnUse" x="203" y="52" width="193" height="192">
<path vector-effect="non-scaling-stroke" d="M299.617 243.875C352.529 243.875 395.423 200.982 395.423 148.069C395.423 95.1574 352.529 52.2637 299.617 52.2637C246.705 52.2637 203.812 95.1574 203.812 148.069C203.812 200.982 246.705 243.875 299.617 243.875Z" fill="white"/>
</mask>
<g mask="url(#mask1_24_402)">
<path vector-effect="non-scaling-stroke" d="M308.544 155.026L311.22 140.734C311.22 140.734 323.787 151.806 330.675 147.173C335.498 143.926 334.71 137.446 334.302 129.621L334.913 129.892C336.503 130.585 338.174 129.036 337.576 127.393C336.625 124.743 335.335 122.026 334.343 120.083C334.37 119.717 334.411 119.35 334.452 118.983C335.905 106.647 324.928 99.5284 319.045 97.2325C313.163 94.9365 304.93 91.282 297.363 96.9472C289.66 102.721 296.126 115.682 292.132 133.166C291.304 136.78 289.198 141.861 283.75 148.342L308.544 155.012V155.026Z" fill="#404040" stroke="white" stroke-width="1.35856" stroke-miterlimit="10"/>
<path vector-effect="non-scaling-stroke" d="M331.734 106.647C327.631 100.588 321.083 97.6807 319.167 96.9335L318.339 96.6074C312.51 94.3115 304.536 91.1732 297.172 96.6889C292.662 100.058 292.866 105.873 293.124 113.236C293.26 117.244 293.423 121.795 292.879 126.795L292.838 127.121L293.164 127.162C293.884 127.243 294.591 127.27 295.284 127.27C309.78 127.27 316.586 110.696 317.469 108.4C325.783 109.867 331.571 107.136 331.625 107.109L331.951 106.946L331.748 106.647H331.734Z" fill="#020202" stroke="white" stroke-width="1.35856" stroke-miterlimit="10"/>
<path vector-effect="non-scaling-stroke" d="M294.822 96.7567C301.914 96.7567 307.66 91.01 307.66 83.9047C307.66 76.7995 301.914 71.0527 294.822 71.0527C287.73 71.0527 281.983 76.7995 281.983 83.9047C281.983 91.01 287.73 96.7567 294.822 96.7567Z" fill="#020202" stroke="white" stroke-width="1.35856" stroke-miterlimit="10"/>
<path vector-effect="non-scaling-stroke" d="M314.698 115.397C314.698 115.397 310.554 110.682 306.967 113.59C302.43 117.285 306.967 122.977 309.304 123.643" fill="#404040"/>
<path vector-effect="non-scaling-stroke" d="M314.698 115.397C314.698 115.397 310.554 110.682 306.967 113.59C302.43 117.285 306.967 122.977 309.304 123.643" stroke="white" stroke-width="1.35856" stroke-miterlimit="10"/>
<path vector-effect="non-scaling-stroke" d="M314.698 115.397C314.698 115.397 310.554 110.682 306.967 113.59C302.43 117.285 306.967 122.977 309.304 123.643" stroke="white" stroke-width="1.35856" stroke-miterlimit="10"/>
<path vector-effect="non-scaling-stroke" d="M334.451 133.86C328.433 133.86 327.21 128.792 327.197 128.738" stroke="white" stroke-width="1.35856" stroke-miterlimit="10"/>
<path vector-effect="non-scaling-stroke" d="M236.091 249.35C236.091 249.35 233.048 162.824 283.749 148.341L308.543 155.012C308.543 155.012 349.069 174.032 350.265 245.737" fill="#202020"/>
<path vector-effect="non-scaling-stroke" d="M236.091 249.35C236.091 249.35 233.048 162.824 283.749 148.341L308.543 155.012C308.543 155.012 349.069 174.032 350.265 245.737" stroke="white" stroke-width="1.35856" stroke-miterlimit="10"/>
<path vector-effect="non-scaling-stroke" d="M266.536 185.254L287.363 249.351" stroke="white" stroke-width="1.35856" stroke-miterlimit="10"/>
</g>
<path vector-effect="non-scaling-stroke" d="M299.617 243.875C352.529 243.875 395.423 200.982 395.423 148.069C395.423 95.1574 352.529 52.2637 299.617 52.2637C246.705 52.2637 203.812 95.1574 203.812 148.069C203.812 200.982 246.705 243.875 299.617 243.875Z" stroke="white" stroke-width="1.35856" stroke-miterlimit="10"/>
<path vector-effect="non-scaling-stroke" d="M340.972 112.529H313.284V121.632H340.972V112.529Z" fill="#A100FF" stroke="white" stroke-width="1.35856" stroke-linecap="round" stroke-linejoin="round"/>
<path vector-effect="non-scaling-stroke" d="M215.237 403.914C215.237 398.497 210.845 394.105 205.428 394.105L175 409.5L166.5 403H129.847C126.69 403 123.924 405.113 123.093 408.158L121.5 414V419.5H117C112 421 111.5 421.5 108.5 426.5V488.5C108.5 493.917 150.274 492.5 155.691 492.5H207.5C212.917 492.5 215.237 491.09 215.237 485.673V403.914Z" fill="#020202"/>
<path vector-effect="non-scaling-stroke" d="M108.576 436.615V487.493C108.576 490.563 110.6 493.05 113.114 493.05H210.061C212.561 493.05 214.598 490.563 214.598 487.493V435.868L108.59 436.615H108.576Z" stroke="white" stroke-width="1.35856" stroke-miterlimit="10"/>
<path vector-effect="non-scaling-stroke" d="M108.589 430.759C108.589 430.759 107.91 419.116 118.752 419.633H145.271C145.271 419.633 148.939 419.728 151.9 417.771L157.117 413.696C157.117 413.696 161.573 409.375 167.972 409.063H209.286C209.286 409.063 213.661 409.063 214.584 413.56V430.352" stroke="white" stroke-width="1.35856" stroke-miterlimit="10"/>
<path vector-effect="non-scaling-stroke" d="M173.298 417.609H169.25V421.658H173.298V417.609Z" fill="#A2A2A0" stroke="white" stroke-width="1.35856" stroke-miterlimit="10"/>
<path vector-effect="non-scaling-stroke" d="M182.591 417.609H178.542V421.658H182.591V417.609Z" fill="#A2A2A0" stroke="white" stroke-width="1.35856" stroke-miterlimit="10"/>
<path vector-effect="non-scaling-stroke" d="M191.883 417.609H187.835V421.658H191.883V417.609Z" fill="#A2A2A0" stroke="white" stroke-width="1.35856" stroke-miterlimit="10"/>
<path vector-effect="non-scaling-stroke" d="M201.175 417.609H197.127V421.658H201.175V417.609Z" fill="#A2A2A0" stroke="white" stroke-width="1.35856" stroke-miterlimit="10"/>
<path vector-effect="non-scaling-stroke" d="M185.213 400.559H181.164V404.608H185.213V400.559Z" fill="#A2A2A0" stroke="white" stroke-width="1.35856" stroke-miterlimit="10"/>
<path vector-effect="non-scaling-stroke" d="M194.505 400.559H190.457V404.608H194.505V400.559Z" fill="#A2A2A0" stroke="white" stroke-width="1.35856" stroke-miterlimit="10"/>
<path vector-effect="non-scaling-stroke" d="M203.798 400.559H199.75V404.608H203.798V400.559Z" fill="#A2A2A0" stroke="white" stroke-width="1.35856" stroke-miterlimit="10"/>
<path vector-effect="non-scaling-stroke" d="M213.104 400.559H209.055V404.608H213.104V400.559Z" fill="#A2A2A0" stroke="white" stroke-width="1.35856" stroke-miterlimit="10"/>
<path vector-effect="non-scaling-stroke" d="M201.176 384.011H197.127V388.06H201.176V384.011Z" fill="#A2A2A0" stroke="white" stroke-width="1.35856" stroke-miterlimit="10"/>
<path vector-effect="non-scaling-stroke" d="M210.482 384.011H206.434V388.06H210.482V384.011Z" fill="#A2A2A0" stroke="white" stroke-width="1.35856" stroke-miterlimit="10"/>
<path vector-effect="non-scaling-stroke" d="M219.775 384.011H215.726V388.06H219.775V384.011Z" fill="#A2A2A0" stroke="white" stroke-width="1.35856" stroke-miterlimit="10"/>
<path vector-effect="non-scaling-stroke" d="M229.067 384.011H225.019V388.06H229.067V384.011Z" fill="#A2A2A0" stroke="white" stroke-width="1.35856" stroke-miterlimit="10"/>
<path vector-effect="non-scaling-stroke" d="M121.673 414.334C121.673 414.334 120.994 402.691 131.835 403.207H158.354C158.354 403.207 162.022 403.302 164.984 401.346L170.201 397.27C170.201 397.27 174.657 392.95 181.056 392.638H222.37C222.37 392.638 226.744 392.638 227.668 397.135V470.809C227.668 470.809 227.369 476.814 220.93 476.597H215.251" stroke="white" stroke-width="1.35856" stroke-miterlimit="10"/>
<path vector-effect="non-scaling-stroke" d="M136.861 398.725C136.861 398.725 136.182 387.082 147.024 387.598H173.543C173.543 387.598 177.211 387.693 180.172 385.737L185.389 381.661C185.389 381.661 189.845 377.341 196.244 377.028H237.558C237.558 377.028 241.933 377.028 242.856 381.525V455.2C242.856 455.2 242.558 461.205 236.118 460.987H227.736" stroke="white" stroke-width="1.35856" stroke-miterlimit="10"/>
<path vector-effect="non-scaling-stroke" d="M498.511 411.861H453.611C449.056 411.861 445.364 415.553 445.364 420.108V450.214C445.364 454.768 449.056 458.46 453.611 458.46H498.511C503.066 458.46 506.758 454.768 506.758 450.214V420.108C506.758 415.553 503.066 411.861 498.511 411.861Z" fill="#A100FF" stroke="white" stroke-width="1.35856" stroke-miterlimit="10"/>
<path vector-effect="non-scaling-stroke" d="M445.364 444.956C440.609 444.956 436.737 441.098 436.737 436.33C436.737 431.561 440.595 427.703 445.364 427.703" fill="#A100FF"/>
<path vector-effect="non-scaling-stroke" d="M445.364 444.956C440.609 444.956 436.737 441.098 436.737 436.33C436.737 431.561 440.595 427.703 445.364 427.703" stroke="white" stroke-width="1.35856" stroke-miterlimit="10"/>
<path vector-effect="non-scaling-stroke" d="M484.681 440.962C484.681 445.717 480.822 449.589 476.054 449.589C471.285 449.589 467.427 445.731 467.427 440.962H484.667H484.681Z" fill="#202020" stroke="white" stroke-width="1.35856" stroke-miterlimit="10"/>
<path vector-effect="non-scaling-stroke" d="M506.744 427.716C511.499 427.716 515.371 431.574 515.371 436.343C515.371 441.111 511.512 444.97 506.744 444.97" fill="#A100FF"/>
<path vector-effect="non-scaling-stroke" d="M506.744 427.716C511.499 427.716 515.371 431.574 515.371 436.343C515.371 441.111 511.512 444.97 506.744 444.97" stroke="white" stroke-width="1.35856" stroke-miterlimit="10"/>
<path vector-effect="non-scaling-stroke" d="M476.081 403.955C478.234 403.955 479.98 402.21 479.98 400.056C479.98 397.903 478.234 396.157 476.081 396.157C473.927 396.157 472.182 397.903 472.182 400.056C472.182 402.21 473.927 403.955 476.081 403.955Z" fill="#A100FF" stroke="white" stroke-width="1.35856" stroke-miterlimit="10"/>
<path vector-effect="non-scaling-stroke" d="M476.081 403.955V411.808" stroke="white" stroke-width="1.35856" stroke-miterlimit="10"/>
<path vector-effect="non-scaling-stroke" d="M464.818 433.965C466.491 433.965 467.848 432.609 467.848 430.936C467.848 429.263 466.491 427.906 464.818 427.906C463.145 427.906 461.789 429.263 461.789 430.936C461.789 432.609 463.145 433.965 464.818 433.965Z" fill="#202020" stroke="white" stroke-width="1.35856" stroke-miterlimit="10"/>
<path vector-effect="non-scaling-stroke" d="M487.289 433.965C488.962 433.965 490.318 432.609 490.318 430.936C490.318 429.263 488.962 427.906 487.289 427.906C485.616 427.906 484.259 429.263 484.259 430.936C484.259 432.609 485.616 433.965 487.289 433.965Z" fill="#202020" stroke="white" stroke-width="1.35856" stroke-miterlimit="10"/>
<path vector-effect="non-scaling-stroke" d="M528.358 394.078H504.937L499.245 400.762L497.152 394.078H493.756C491.419 394.078 489.531 392.19 489.531 389.853V379.84C489.531 377.504 491.419 375.615 493.756 375.615H528.345C530.682 375.615 532.57 377.504 532.57 379.84V389.853C532.57 392.19 530.682 394.078 528.345 394.078H528.358Z" stroke="white" stroke-width="1.35856" stroke-miterlimit="10"/>
<path vector-effect="non-scaling-stroke" d="M500.97 386.946C502.095 386.946 503.008 386.033 503.008 384.908C503.008 383.782 502.095 382.87 500.97 382.87C499.845 382.87 498.932 383.782 498.932 384.908C498.932 386.033 499.845 386.946 500.97 386.946Z" stroke="white" stroke-width="1.35856" stroke-miterlimit="10"/>
<path vector-effect="non-scaling-stroke" d="M511.159 386.946C512.285 386.946 513.197 386.033 513.197 384.908C513.197 383.782 512.285 382.87 511.159 382.87C510.034 382.87 509.122 383.782 509.122 384.908C509.122 386.033 510.034 386.946 511.159 386.946Z" stroke="white" stroke-width="1.35856" stroke-miterlimit="10"/>
<path vector-effect="non-scaling-stroke" d="M521.348 386.946C522.474 386.946 523.386 386.033 523.386 384.908C523.386 383.782 522.474 382.87 521.348 382.87C520.223 382.87 519.311 383.782 519.311 384.908C519.311 386.033 520.223 386.946 521.348 386.946Z" stroke="white" stroke-width="1.35856" stroke-miterlimit="10"/>
<path vector-effect="non-scaling-stroke" d="M52.9433 244.705H7.17334V269.566H52.9433V244.705Z" fill="#020202" stroke="white" stroke-width="1.35856" stroke-miterlimit="10"/>
<path vector-effect="non-scaling-stroke" d="M195.021 257.135H143.912C135.269 257.135 128.262 264.142 128.262 272.786V277.174C128.262 285.818 135.269 292.825 143.912 292.825H195.021C203.665 292.825 210.672 285.818 210.672 277.174V272.786C210.672 264.142 203.665 257.135 195.021 257.135Z" stroke="white" stroke-width="1.35856" stroke-miterlimit="10"/>
<path vector-effect="non-scaling-stroke" d="M167.524 220.182H30.0513V245.424" stroke="white" stroke-width="1.35856" stroke-miterlimit="10"/>
<path vector-effect="non-scaling-stroke" d="M34.168 143.423V115.057H108.685H167.524V257.135" stroke="white" stroke-width="1.35856" stroke-miterlimit="10"/>
<path vector-effect="non-scaling-stroke" d="M108.685 86.4048V115.057" stroke="white" stroke-width="1.35856" stroke-miterlimit="10"/>
<path vector-effect="non-scaling-stroke" d="M108.468 29.4668V58.1189" stroke="white" stroke-width="1.35856" stroke-miterlimit="10"/>
<path vector-effect="non-scaling-stroke" d="M142.173 58.3774H75.1963V86.4046H142.173V58.3774Z" stroke="white" stroke-width="1.35856" stroke-miterlimit="10"/>
<path vector-effect="non-scaling-stroke" d="M53.6495 143.423H14.686C6.95025 143.423 0.679199 149.694 0.679199 157.43V157.444C0.679199 165.179 6.95025 171.45 14.686 171.45H53.6495C61.3853 171.45 67.6563 165.179 67.6563 157.444V157.43C67.6563 149.694 61.3853 143.423 53.6495 143.423Z" stroke="white" stroke-width="1.35856" stroke-miterlimit="10"/>
<path vector-effect="non-scaling-stroke" d="M121.659 0.679199H95.2761C87.3978 0.679199 81.0112 7.06582 81.0112 14.9441C81.0112 22.8224 87.3978 29.209 95.2761 29.209H121.659C129.538 29.209 135.924 22.8224 135.924 14.9441C135.924 7.06582 129.538 0.679199 121.659 0.679199Z" stroke="white" stroke-width="1.35856" stroke-miterlimit="10"/>
<path vector-effect="non-scaling-stroke" d="M125.259 83.0353C125.124 82.3561 124.947 81.6768 124.716 81.0247L128.71 78.1445C127.99 76.4056 127.026 74.7345 125.844 73.1858L121.36 75.21C121.129 74.9519 120.899 74.6938 120.654 74.4492C120.409 74.2047 120.151 73.9601 119.893 73.7428L121.917 69.2595C120.369 68.064 118.711 67.113 116.959 66.3929L114.079 70.3871C113.413 70.1698 112.747 69.9796 112.054 69.8437L111.565 64.9529C109.663 64.6947 107.734 64.6947 105.832 64.9529L105.343 69.8437C104.664 69.9796 103.984 70.1562 103.332 70.3871L100.452 66.3929C98.7132 67.113 97.0422 68.064 95.4934 69.2595L97.5177 73.7428C97.2595 73.9737 97.0014 74.2047 96.7569 74.4492C96.5123 74.6938 96.2678 74.9519 96.0504 75.21L91.5672 73.1858C90.3716 74.7345 89.4206 76.392 88.7006 78.1445L92.6948 81.0247C92.4774 81.6904 92.2872 82.3561 92.1513 83.0353L87.2605 83.5244C87.1383 84.4754 87.0703 85.4264 87.0703 86.391H98.7675C98.7675 83.8369 99.7457 81.2964 101.688 79.3536C105.574 75.4681 111.878 75.4681 115.777 79.3536C117.719 81.2964 118.698 83.8505 118.698 86.391H130.395C130.395 85.44 130.327 84.4754 130.205 83.5244L125.314 83.0353H125.259Z" stroke="white" stroke-width="1.35856" stroke-miterlimit="10"/>
<path vector-effect="non-scaling-stroke" d="M75.9299 111.429C75.794 110.75 75.6174 110.07 75.3865 109.418L79.3806 106.538C78.6606 104.799 77.696 103.128 76.5141 101.579L72.0308 103.604C71.7999 103.345 71.5689 103.087 71.3244 102.843C71.0798 102.598 70.8217 102.354 70.5636 102.136L72.5878 97.6531C71.0391 96.4575 69.3816 95.5065 67.6291 94.7865L64.7489 98.7807C64.0832 98.5633 63.4175 98.3731 62.7247 98.2372L62.2356 93.3464C60.3336 93.0883 58.4044 93.0883 56.5025 93.3464L56.0134 98.2372C55.3341 98.3731 54.6548 98.5497 54.0027 98.7807L51.1226 94.7865C49.3836 95.5065 47.7126 96.4575 46.1638 97.6531L48.1881 102.136C47.9299 102.367 47.6718 102.598 47.4273 102.843C47.1827 103.087 46.9382 103.345 46.7208 103.604L42.2376 101.579C41.042 103.128 40.091 104.786 39.371 106.538L43.3652 109.418C43.1478 110.084 42.9576 110.75 42.8217 111.429L37.9309 111.918C37.8086 112.869 37.7407 113.82 37.7407 114.785H49.4379C49.4379 112.23 50.4161 109.69 52.3589 107.747C56.2443 103.862 62.5481 103.862 66.4471 107.747C68.3899 109.69 69.368 112.244 69.368 114.785H81.0653C81.0653 113.834 80.9973 112.869 80.8751 111.918L75.9842 111.429H75.9299Z" stroke="white" stroke-width="1.35856" stroke-miterlimit="10"/>
<path vector-effect="non-scaling-stroke" d="M186.041 289.468C185.905 288.789 185.729 288.11 185.498 287.458L189.492 284.578C188.772 282.839 187.807 281.168 186.625 279.619L182.142 281.643C181.911 281.385 181.68 281.127 181.436 280.882C181.191 280.638 180.933 280.393 180.675 280.176L182.699 275.693C181.15 274.497 179.493 273.546 177.74 272.826L174.86 276.82C174.195 276.603 173.529 276.413 172.836 276.277L172.347 271.386C170.445 271.128 168.516 271.128 166.614 271.386L166.125 276.277C165.445 276.413 164.766 276.589 164.114 276.82L161.234 272.826C159.495 273.546 157.824 274.497 156.275 275.693L158.299 280.176C158.041 280.407 157.783 280.638 157.539 280.882C157.294 281.127 157.05 281.385 156.832 281.643L152.349 279.619C151.153 281.168 150.202 282.825 149.482 284.578L153.476 287.458C153.259 288.123 153.069 288.789 152.933 289.468L148.042 289.958C147.92 290.909 147.852 291.86 147.852 292.824H159.549C159.549 290.27 160.527 287.729 162.47 285.787C166.356 281.901 172.659 281.901 176.558 285.787C178.501 287.729 179.479 290.284 179.479 292.824H191.177C191.177 291.873 191.109 290.909 190.986 289.958L186.096 289.468H186.041Z" stroke="white" stroke-width="1.35856" stroke-miterlimit="10"/>
<path vector-effect="non-scaling-stroke" d="M535.885 124.118L536.523 134.022L546.047 131.223" stroke="white" stroke-width="1.35856" stroke-linecap="round" stroke-linejoin="round"/>
<path vector-effect="non-scaling-stroke" d="M451.844 76.6907L461.368 73.8921L462.006 83.796" stroke="white" stroke-width="1.35856" stroke-linecap="round" stroke-linejoin="round"/>
<path vector-effect="non-scaling-stroke" d="M529.853 140.733C513.618 154.4 489.626 156.057 471.407 143.314C449.67 128.112 444.372 98.1691 459.574 76.4321" stroke="white" stroke-width="1.35856" stroke-linecap="round" stroke-linejoin="round"/>
<path vector-effect="non-scaling-stroke" d="M468.038 67.1807C484.272 53.5271 508.251 51.8697 526.469 64.5994C548.206 79.8017 553.505 109.744 538.302 131.481" stroke="white" stroke-width="1.35856" stroke-linecap="round" stroke-linejoin="round"/>
</g>
</g>
<defs>
<clipPath id="clip0_24_402">
<rect width="802" height="535" fill="white"/>
</clipPath>
<clipPath id="clip1_24_402">
<rect width="802" height="526.606" fill="white"/>
</clipPath>
</defs>
</svg>
