<svg width="802" height="535" viewBox="0 0 802 535" fill="none" xmlns="http://www.w3.org/2000/svg">
<g clip-path="url(#clip0_24_4483)">
<path vector-effect="non-scaling-stroke" d="M148.886 247.78L149.258 253.595L154.852 251.955" stroke="white" stroke-width="1.37794" stroke-linecap="round" stroke-linejoin="round"/>
<path vector-effect="non-scaling-stroke" d="M99.5142 219.905L105.109 218.266L105.481 224.081" stroke="white" stroke-width="1.37794" stroke-linecap="round" stroke-linejoin="round"/>
<path vector-effect="non-scaling-stroke" d="M118.323 262.732C115.788 261.891 113.321 260.665 111.02 259.053C98.2467 250.124 95.1325 232.527 104.062 219.754" stroke="white" stroke-width="1.37794" stroke-linecap="round" stroke-linejoin="round"/>
<path vector-effect="non-scaling-stroke" d="M145.344 257.536C142.533 259.906 139.323 261.656 135.933 262.759" stroke="white" stroke-width="1.37794" stroke-linecap="round" stroke-linejoin="round"/>
<path vector-effect="non-scaling-stroke" d="M109.022 214.324C118.557 206.305 132.654 205.326 143.346 212.809C156.12 221.738 159.234 239.334 150.305 252.107" stroke="white" stroke-width="1.37794" stroke-linecap="round" stroke-linejoin="round"/>
<path vector-effect="non-scaling-stroke" d="M280.314 77.7021H269.717C268.119 77.7021 266.824 78.9977 266.824 80.5958V91.1921C266.824 92.7903 268.119 94.0858 269.717 94.0858H280.314C281.912 94.0858 283.207 92.7903 283.207 91.1921V80.5958C283.207 78.9977 281.912 77.7021 280.314 77.7021Z" stroke="white" stroke-width="1.37794" stroke-linecap="round" stroke-linejoin="round"/>
<path vector-effect="non-scaling-stroke" d="M303.008 77.7021H292.412C290.814 77.7021 289.518 78.9977 289.518 80.5958V91.1921C289.518 92.7903 290.814 94.0858 292.412 94.0858H303.008C304.606 94.0858 305.902 92.7903 305.902 91.1921V80.5958C305.902 78.9977 304.606 77.7021 303.008 77.7021Z" stroke="white" stroke-width="1.37794" stroke-linecap="round" stroke-linejoin="round"/>
<path vector-effect="non-scaling-stroke" d="M267.554 98.3154H275.009" stroke="white" stroke-width="1.37794" stroke-linecap="round" stroke-linejoin="round"/>
<path vector-effect="non-scaling-stroke" d="M267.554 103.469H282.463" stroke="white" stroke-width="1.37794" stroke-linecap="round" stroke-linejoin="round"/>
<path vector-effect="non-scaling-stroke" d="M267.554 108.622H282.463" stroke="white" stroke-width="1.37794" stroke-linecap="round" stroke-linejoin="round"/>
<path vector-effect="non-scaling-stroke" d="M267.554 113.776H282.463" stroke="white" stroke-width="1.37794" stroke-linecap="round" stroke-linejoin="round"/>
<path vector-effect="non-scaling-stroke" d="M290.331 98.3154H297.717" stroke="white" stroke-width="1.37794" stroke-linecap="round" stroke-linejoin="round"/>
<path vector-effect="non-scaling-stroke" d="M290.331 103.469H305.103" stroke="white" stroke-width="1.37794" stroke-linecap="round" stroke-linejoin="round"/>
<path vector-effect="non-scaling-stroke" d="M290.331 108.622H305.103" stroke="white" stroke-width="1.37794" stroke-linecap="round" stroke-linejoin="round"/>
<path vector-effect="non-scaling-stroke" d="M290.331 113.776H305.103" stroke="white" stroke-width="1.37794" stroke-linecap="round" stroke-linejoin="round"/>
<path vector-effect="non-scaling-stroke" d="M352.738 69.0762H264.908C261.202 69.0762 258.198 72.0806 258.198 75.7867V115.678C258.198 119.384 261.202 122.389 264.908 122.389H352.738C356.444 122.389 359.448 119.384 359.448 115.678V75.7867C359.448 72.0806 356.444 69.0762 352.738 69.0762Z" stroke="white" stroke-width="1.37794" stroke-linecap="round" stroke-linejoin="round"/>
<path vector-effect="non-scaling-stroke" d="M259.19 29.1709H746.759C753.69 29.1709 759.298 34.7929 759.298 41.7101V55.5584H246.637V41.7101C246.637 34.7791 252.259 29.1709 259.176 29.1709H259.19Z" fill="#202020"/>
<path vector-effect="non-scaling-stroke" d="M636.951 326.792L639.762 341.012ZM617.191 328.804L617.302 343.299ZM597.349 327.15L594.828 341.425ZM578.168 321.9L573.056 335.473ZM560.269 313.233L552.759 325.634ZM544.285 301.41L534.625 312.227Z" fill="#020202"/>
<path vector-effect="non-scaling-stroke" d="M636.951 326.792L639.762 341.012M617.191 328.804L617.302 343.299M597.349 327.15L594.828 341.425M578.168 321.9L573.056 335.473M560.269 313.233L552.759 325.634M544.285 301.41L534.625 312.227" stroke="white" stroke-width="1.37794" stroke-miterlimit="10"/>
<path vector-effect="non-scaling-stroke" d="M618.9 235.448L576.501 323.443C575.784 324.931 577.851 326.158 578.816 324.807L635.518 245.273" fill="#202020"/>
<path vector-effect="non-scaling-stroke" d="M618.9 235.448L576.501 323.443C575.784 324.931 577.851 326.158 578.816 324.807L635.518 245.273" stroke="white" stroke-width="1.37794" stroke-miterlimit="10"/>
<path vector-effect="non-scaling-stroke" d="M391.058 208.881L418.961 251.914L358.305 261.187L340.86 228.158" fill="#202020"/>
<path vector-effect="non-scaling-stroke" d="M391.058 208.881L418.961 251.914L358.305 261.187L340.86 228.158" stroke="white" stroke-width="1.37794" stroke-miterlimit="10"/>
<path vector-effect="non-scaling-stroke" d="M739.566 110.18H714.653C712.522 110.18 710.794 111.907 710.794 114.038V138.951C710.794 141.082 712.522 142.809 714.653 142.809H739.566C741.696 142.809 743.424 141.082 743.424 138.951V114.038C743.424 111.907 741.696 110.18 739.566 110.18Z" fill="black" stroke="white" stroke-width="1.37794" stroke-miterlimit="10"/>
<path vector-effect="non-scaling-stroke" d="M718.69 118.075L735.515 134.9" stroke="white" stroke-width="1.37794" stroke-miterlimit="10"/>
<path vector-effect="non-scaling-stroke" d="M735.515 118.075L718.69 134.9" stroke="white" stroke-width="1.37794" stroke-miterlimit="10"/>
<path vector-effect="non-scaling-stroke" d="M739.566 68.0283H714.653C712.522 68.0283 710.794 69.7557 710.794 71.8865V96.7996C710.794 98.9305 712.522 100.658 714.653 100.658H739.566C741.696 100.658 743.424 98.9305 743.424 96.7996V71.8865C743.424 69.7557 741.696 68.0283 739.566 68.0283Z" fill="black" stroke="white" stroke-width="1.37794" stroke-miterlimit="10"/>
<path vector-effect="non-scaling-stroke" d="M717.284 83.7246L724.491 90.9312" stroke="white" stroke-width="1.37794" stroke-miterlimit="10"/>
<path vector-effect="non-scaling-stroke" d="M737.677 77.7578L724.491 90.9309" stroke="white" stroke-width="1.37794" stroke-miterlimit="10"/>
<path vector-effect="non-scaling-stroke" d="M696.671 68.0283H599.678C597.745 68.0283 596.178 69.5953 596.178 71.5283V139.295C596.178 141.228 597.745 142.795 599.678 142.795H696.671C698.604 142.795 700.171 141.228 700.171 139.295V71.5283C700.171 69.5953 698.604 68.0283 696.671 68.0283Z" fill="black" stroke="white" stroke-width="1.37794" stroke-miterlimit="10"/>
<path vector-effect="non-scaling-stroke" d="M628.242 89.7725H690.153" stroke="white" stroke-width="1.37794" stroke-miterlimit="10"/>
<path vector-effect="non-scaling-stroke" d="M628.242 80.6787H659.893" stroke="white" stroke-width="1.37794" stroke-miterlimit="10"/>
<path vector-effect="non-scaling-stroke" d="M620.443 80.6787H607.435C606.751 80.6787 606.195 81.2339 606.195 81.9189V88.7948C606.195 89.4797 606.751 90.0349 607.435 90.0349H620.443C621.128 90.0349 621.683 89.4797 621.683 88.7948V81.9189C621.683 81.2339 621.128 80.6787 620.443 80.6787Z" fill="black" stroke="white" stroke-width="1.37794" stroke-miterlimit="10"/>
<path vector-effect="non-scaling-stroke" d="M620.443 98.8809H607.435C606.751 98.8809 606.195 99.4361 606.195 100.121V106.997C606.195 107.682 606.751 108.237 607.435 108.237H620.443C621.128 108.237 621.683 107.682 621.683 106.997V100.121C621.683 99.4361 621.128 98.8809 620.443 98.8809Z" fill="black" stroke="white" stroke-width="1.37794" stroke-miterlimit="10"/>
<path vector-effect="non-scaling-stroke" d="M617.453 130.284V124.166L629.262 120.652V116.505L641.071 110.538L652.894 110.511L664.703 103.18L670.986 99.1289H676.443V130.256" fill="black"/>
<path vector-effect="non-scaling-stroke" d="M617.453 130.284V124.166L629.262 120.652V116.505L641.071 110.538L652.894 110.511L664.703 103.18L670.986 99.1289H676.443V130.256" stroke="white" stroke-width="1.37794" stroke-miterlimit="10"/>
<path vector-effect="non-scaling-stroke" d="M629.262 116.505V130.284" stroke="white" stroke-width="1.37794" stroke-miterlimit="10"/>
<path vector-effect="non-scaling-stroke" d="M641.071 110.538V130.284" stroke="white" stroke-width="1.37794" stroke-miterlimit="10"/>
<path vector-effect="non-scaling-stroke" d="M652.894 110.51V130.256" stroke="white" stroke-width="1.37794" stroke-miterlimit="10"/>
<path vector-effect="non-scaling-stroke" d="M664.703 103.18V130.284" stroke="white" stroke-width="1.37794" stroke-miterlimit="10"/>
<path vector-effect="non-scaling-stroke" d="M676.442 99.1289H687.494V130.256H606.195V124.166H617.453" stroke="white" stroke-width="1.37794" stroke-miterlimit="10"/>
<path vector-effect="non-scaling-stroke" d="M200.655 93.9063C200.655 58.1627 171.677 29.1709 135.92 29.1709C100.162 29.1709 71.1841 58.1489 71.1841 93.9063V128.685H81.3395C92.8315 146.681 112.977 158.628 135.92 158.628C158.862 158.628 179.008 146.681 190.5 128.685H200.655V93.9063Z" fill="#020202" stroke="white" stroke-width="1.37794" stroke-miterlimit="10"/>
<path vector-effect="non-scaling-stroke" d="M135.933 193.421C171.686 193.421 200.669 164.438 200.669 128.686C200.669 92.9332 171.686 63.9502 135.933 63.9502C100.181 63.9502 71.1978 92.9332 71.1978 128.686C71.1978 164.438 100.181 193.421 135.933 193.421Z" fill="#202020" stroke="white" stroke-width="1.37794" stroke-miterlimit="10"/>
<path vector-effect="non-scaling-stroke" d="M206.387 343.3H366.145C392.505 343.3 413.918 364.727 413.918 391.114H158.614C158.614 364.727 180.014 343.3 206.387 343.3Z" fill="#020202" stroke="white" stroke-width="1.37794" stroke-miterlimit="10"/>
<path vector-effect="non-scaling-stroke" d="M452.831 415.421C452.831 402 441.959 391.128 428.552 391.128H348.535V343.313H273.948C273.948 369.549 252.7 391.128 226.505 391.128H81.3949C67.9876 391.128 57.1157 402 57.1157 415.421V466.515H473.955V415.421H452.818H452.831Z" fill="#202020" stroke="white" stroke-width="1.37794" stroke-miterlimit="10"/>
<path vector-effect="non-scaling-stroke" d="M158.614 501.459C177.905 501.459 193.531 485.806 193.531 466.501C193.531 447.196 177.891 431.543 158.614 431.543C139.337 431.543 123.697 447.196 123.697 466.501C123.697 485.806 139.337 501.459 158.614 501.459Z" fill="#020202" stroke="white" stroke-width="1.37794" stroke-miterlimit="10"/>
<path vector-effect="non-scaling-stroke" d="M384.568 501.459C403.846 501.459 419.485 485.806 419.485 466.501C419.485 447.196 403.846 431.543 384.568 431.543C365.291 431.543 349.651 447.196 349.651 466.501C349.651 485.806 365.291 501.459 384.568 501.459Z" fill="#020202" stroke="white" stroke-width="1.37794" stroke-miterlimit="10"/>
<path vector-effect="non-scaling-stroke" d="M302.113 399.616L277.282 423.909H303.918L278.247 450.035" stroke="white" stroke-width="1.37794" stroke-linejoin="round"/>
<path vector-effect="non-scaling-stroke" d="M586.298 286.584H33.8423" stroke="white" stroke-width="1.37794" stroke-miterlimit="10"/>
<path vector-effect="non-scaling-stroke" d="M135.934 169.129C158.27 169.129 176.376 151.023 176.376 128.687C176.376 106.35 158.27 88.2441 135.934 88.2441V112.289C144.987 112.289 152.331 119.634 152.331 128.687C152.331 137.74 144.987 145.084 135.934 145.084V169.129Z" fill="#202020" stroke="white" stroke-width="1.37794" stroke-miterlimit="10"/>
<path vector-effect="non-scaling-stroke" d="M135.933 155.885C120.914 155.885 108.733 143.704 108.733 128.685C108.733 113.665 120.914 101.484 135.933 101.484" stroke="white" stroke-width="1.37794" stroke-miterlimit="10"/>
<path vector-effect="non-scaling-stroke" d="M135.933 119.936C131.097 119.936 127.184 123.849 127.184 128.685V286.583H144.683V128.685C144.683 123.849 140.77 119.936 135.933 119.936Z" fill="#404040"/>
<path vector-effect="non-scaling-stroke" d="M135.933 119.936C131.097 119.936 127.184 123.849 127.184 128.685V286.583H144.683V128.685C144.683 123.849 140.77 119.936 135.933 119.936Z" stroke="white" stroke-width="1.37794" stroke-miterlimit="10"/>
<path vector-effect="non-scaling-stroke" d="M135.934 29.1709V40.4562" stroke="white" stroke-width="1.37794" stroke-miterlimit="10"/>
<path vector-effect="non-scaling-stroke" d="M114.493 33.1396V44.4249" stroke="white" stroke-width="1.37794" stroke-miterlimit="10"/>
<path vector-effect="non-scaling-stroke" d="M97.7095 65.2041V76.4894" stroke="white" stroke-width="1.37794" stroke-miterlimit="10"/>
<path vector-effect="non-scaling-stroke" d="M78.5977 63.9502V75.2355" stroke="white" stroke-width="1.37794" stroke-miterlimit="10"/>
<path vector-effect="non-scaling-stroke" d="M114.493 59.7061V51.4385" stroke="white" stroke-width="1.37794" stroke-miterlimit="10"/>
<path vector-effect="non-scaling-stroke" d="M97.7095 58.3145V52.6787" stroke="white" stroke-width="1.37794" stroke-miterlimit="10"/>
<path vector-effect="non-scaling-stroke" d="M78.5977 98.5781V92.9424" stroke="white" stroke-width="1.37794" stroke-miterlimit="10"/>
<path vector-effect="non-scaling-stroke" d="M78.5977 87.5537V81.918" stroke="white" stroke-width="1.37794" stroke-miterlimit="10"/>
<path vector-effect="non-scaling-stroke" d="M157.36 33.1396V44.4249" stroke="white" stroke-width="1.37794" stroke-miterlimit="10"/>
<path vector-effect="non-scaling-stroke" d="M174.157 65.2041V76.4894" stroke="white" stroke-width="1.37794" stroke-miterlimit="10"/>
<path vector-effect="non-scaling-stroke" d="M193.27 63.9502V75.2355" stroke="white" stroke-width="1.37794" stroke-miterlimit="10"/>
<path vector-effect="non-scaling-stroke" d="M157.36 59.7061V51.4385" stroke="white" stroke-width="1.37794" stroke-miterlimit="10"/>
<path vector-effect="non-scaling-stroke" d="M174.157 58.3145V52.6787" stroke="white" stroke-width="1.37794" stroke-miterlimit="10"/>
<path vector-effect="non-scaling-stroke" d="M193.27 98.5781V92.9424" stroke="white" stroke-width="1.37794" stroke-miterlimit="10"/>
<path vector-effect="non-scaling-stroke" d="M193.27 87.5537V81.918" stroke="white" stroke-width="1.37794" stroke-miterlimit="10"/>
<path vector-effect="non-scaling-stroke" d="M135.934 52.6787V63.9502" stroke="white" stroke-width="1.37794" stroke-miterlimit="10"/>
<path vector-effect="non-scaling-stroke" d="M528.659 328.169V502.629H510.015V347.639H497.559C463.868 347.639 436.558 320.301 436.558 286.583H455.353C456.868 292.535 457.902 298.653 459.941 304.455C460.079 304.84 460.217 305.212 460.368 305.585C462.242 310.159 465.453 314.017 469.091 317.393C476.793 324.531 487.045 328.568 497.545 328.568H510.002V276.097H528.645V328.183L528.659 328.169Z" fill="#020202" stroke="white" stroke-width="1.37794" stroke-miterlimit="10"/>
<path vector-effect="non-scaling-stroke" d="M678.592 286.583C670.187 261.188 646.293 242.861 618.115 242.861C614.132 242.861 610.247 243.247 606.471 243.95C600.449 236.729 592.444 231.245 583.294 228.31C577.741 197.169 550.568 173.523 517.856 173.523C485.144 173.523 459.266 196.053 452.845 226.105C451.495 225.995 450.13 225.926 448.753 225.926C431.68 225.926 416.605 234.483 407.552 247.532C399.45 240.395 388.826 236.068 377.196 236.068C351.787 236.068 331.187 256.696 331.187 282.132C331.187 283.648 331.27 285.136 331.407 286.611H678.606L678.592 286.583Z" fill="#020202" stroke="white" stroke-width="1.37794" stroke-miterlimit="10"/>
<path vector-effect="non-scaling-stroke" d="M801.311 503.691V226.05C767.069 171.388 724.339 142.52 689.657 119.109C663.889 101.719 648.773 91.0953 637.64 75.0975C629.551 63.4815 623.295 48.2829 618.748 29.1709H426.071C434.807 91.4949 453.203 142.231 481.919 183.486C513.818 229.33 552.469 255.414 583.514 276.373C613.608 296.683 629.909 308.299 642.517 330.057C660.775 361.529 670.021 414.318 670.021 486.921V503.691H801.311Z" fill="#020202" stroke="white" stroke-width="1.37794" stroke-miterlimit="10"/>
<path vector-effect="non-scaling-stroke" d="M538.883 502.726L680.631 503.87L663.145 378.464C594.524 378.464 538.883 434.091 538.883 502.726Z" fill="#020202" stroke="white" stroke-width="1.37794" stroke-miterlimit="10"/>
<path vector-effect="non-scaling-stroke" d="M651.584 342.169L647.768 344.153C604.983 361.378 557.582 348.756 528.645 316.099" stroke="white" stroke-width="1.37794" stroke-miterlimit="10"/>
<path vector-effect="non-scaling-stroke" d="M580.772 408.435H528.659" stroke="white" stroke-width="1.37794" stroke-miterlimit="10"/>
<path vector-effect="non-scaling-stroke" d="M547.922 388.757C552.488 388.757 556.19 385.055 556.19 380.489C556.19 375.923 552.488 372.222 547.922 372.222C543.356 372.222 539.655 375.923 539.655 380.489C539.655 385.055 543.356 388.757 547.922 388.757Z" fill="#202020" stroke="white" stroke-width="1.37794" stroke-miterlimit="10"/>
<path vector-effect="non-scaling-stroke" d="M547.922 388.757C552.488 388.757 556.19 385.055 556.19 380.489C556.19 375.923 552.488 372.222 547.922 372.222C543.356 372.222 539.655 375.923 539.655 380.489C539.655 385.055 543.356 388.757 547.922 388.757Z" stroke="white" stroke-width="1.37794" stroke-miterlimit="10"/>
<path vector-effect="non-scaling-stroke" d="M568.688 386.345C571.922 386.345 574.544 383.723 574.544 380.489C574.544 377.255 571.922 374.633 568.688 374.633C565.453 374.633 562.832 377.255 562.832 380.489C562.832 383.723 565.453 386.345 568.688 386.345Z" fill="#020202" stroke="white" stroke-width="1.37794" stroke-miterlimit="10"/>
<path vector-effect="non-scaling-stroke" d="M605.933 439.657C604.666 438.596 602.971 440.291 604.032 441.559L654.34 503.621L680.631 503.869L605.933 439.657Z" fill="#9F00FF" stroke="white" stroke-width="1.37794" stroke-linejoin="round"/>
<path vector-effect="non-scaling-stroke" d="M633.023 195.337C697.731 239.086 764.878 280.562 764.878 486.922V502.355" stroke="white" stroke-width="1.37794" stroke-miterlimit="10"/>
<path vector-effect="non-scaling-stroke" d="M568.688 266.273L697.373 124.332" stroke="white" stroke-width="1.37794" stroke-miterlimit="10"/>
<path vector-effect="non-scaling-stroke" d="M637.419 131.574L627.857 142.119L648.61 160.936L658.171 150.392L637.419 131.574Z" fill="#020202" stroke="white" stroke-width="1.37794" stroke-miterlimit="10"/>
<path vector-effect="non-scaling-stroke" d="M614.601 184.644C618.512 184.644 621.683 181.473 621.683 177.561C621.683 173.649 618.512 170.479 614.601 170.479C610.689 170.479 607.518 173.649 607.518 177.561C607.518 181.473 610.689 184.644 614.601 184.644Z" fill="#020202" stroke="white" stroke-width="1.37794" stroke-miterlimit="10"/>
<path vector-effect="non-scaling-stroke" d="M638.218 151.518L614.601 177.561" stroke="white" stroke-width="1.37794" stroke-miterlimit="10"/>
<path vector-effect="non-scaling-stroke" d="M590.997 203.605L614.601 177.562" stroke="white" stroke-width="1.37794" stroke-miterlimit="10"/>
<path vector-effect="non-scaling-stroke" d="M614.601 177.562L634.484 195.585" stroke="white" stroke-width="1.37794" stroke-miterlimit="10"/>
<path vector-effect="non-scaling-stroke" d="M571.044 40.8828H556.81V68.8963H571.044V40.8828Z" fill="#020202" stroke="white" stroke-width="1.37794" stroke-miterlimit="10"/>
<path vector-effect="non-scaling-stroke" d="M521.659 61.9787C525.57 61.9787 528.741 58.8077 528.741 54.8961C528.741 50.9845 525.57 47.8135 521.659 47.8135C517.747 47.8135 514.576 50.9845 514.576 54.8961C514.576 58.8077 517.747 61.9787 521.659 61.9787Z" fill="#020202" stroke="white" stroke-width="1.37794" stroke-miterlimit="10"/>
<path vector-effect="non-scaling-stroke" d="M556.81 54.8965H521.659" stroke="white" stroke-width="1.37794" stroke-miterlimit="10"/>
<path vector-effect="non-scaling-stroke" d="M472.26 68.9102H486.494V40.8967H472.26V68.9102Z" fill="#020202" stroke="white" stroke-width="1.37794" stroke-miterlimit="10"/>
<path vector-effect="non-scaling-stroke" d="M486.494 54.8965H521.659" stroke="white" stroke-width="1.37794" stroke-miterlimit="10"/>
<path vector-effect="non-scaling-stroke" d="M521.659 54.897V29.1709" stroke="white" stroke-width="1.37794" stroke-miterlimit="10"/>
<path vector-effect="non-scaling-stroke" d="M509.643 434.752H473.955" stroke="white" stroke-width="1.37794" stroke-miterlimit="10"/>
<path vector-effect="non-scaling-stroke" d="M57.1156 434.752H33.8423" stroke="white" stroke-width="1.37794" stroke-miterlimit="10"/>
<path vector-effect="non-scaling-stroke" d="M162.514 333.09C158.6 321.267 147.467 312.724 134.335 312.724C132.489 312.724 130.67 312.903 128.92 313.233C126.122 309.871 122.388 307.308 118.13 305.944C115.54 291.435 102.89 280.425 87.6505 280.425C72.4105 280.425 60.3536 290.925 57.3635 304.911C56.7296 304.856 56.0958 304.828 55.4481 304.828C47.4974 304.828 40.47 308.81 36.2535 314.887C32.4779 311.566 27.5312 309.541 22.1159 309.541C10.2794 309.541 0.688965 319.145 0.688965 330.995C0.688965 331.698 0.730303 332.387 0.78542 333.076H162.514V333.09Z" fill="#020202" stroke="white" stroke-width="1.37794" stroke-miterlimit="10"/>
<path vector-effect="non-scaling-stroke" d="M563.934 491.372L550.127 489.677ZM568.04 472.742L554.784 468.512ZM575.509 455.187L563.272 448.559ZM586.091 439.272L575.261 430.536ZM599.388 425.589L590.349 415.007ZM614.959 414.566L608.014 402.509ZM632.293 406.615L627.677 393.483ZM650.799 401.999L648.691 388.247Z" fill="#020202"/>
<path vector-effect="non-scaling-stroke" d="M563.934 491.372L550.127 489.677M568.04 472.742L554.784 468.512M575.509 455.187L563.272 448.559M586.091 439.272L575.261 430.536M599.388 425.589L590.349 415.007M614.959 414.566L608.014 402.509M632.293 406.615L627.677 393.483M650.799 401.999L648.691 388.247" stroke="white" stroke-width="1.37794" stroke-miterlimit="10"/>
<path vector-effect="non-scaling-stroke" d="M520.35 141.403L490.711 98.3154L473.417 108.429L507.949 147.935L520.35 141.403Z" fill="#202020" stroke="white" stroke-width="1.37794" stroke-miterlimit="10"/>
<path vector-effect="non-scaling-stroke" d="M516.74 151.064C513.088 152.662 508.803 150.953 507.163 147.219C505.523 143.499 507.163 139.186 510.815 137.574C514.466 135.962 518.752 137.684 520.391 141.404C522.031 145.125 520.391 149.452 516.74 151.05V151.064Z" fill="#020202" stroke="white" stroke-width="1.37794" stroke-miterlimit="10"/>
<path vector-effect="non-scaling-stroke" d="M514.811 146.268C513.736 146.736 512.454 146.213 511.958 145.083C511.462 143.953 511.931 142.657 513.019 142.189C514.108 141.72 515.376 142.244 515.872 143.374C516.368 144.504 515.899 145.799 514.811 146.268Z" fill="#202020" stroke="white" stroke-width="1.37794" stroke-miterlimit="10"/>
<path vector-effect="non-scaling-stroke" d="M501.266 163.96L534.35 156.188L538.236 172.765L505.151 180.537L501.266 163.96Z" fill="#9F00FF" stroke="white" stroke-width="1.37794" stroke-linejoin="round"/>
<path vector-effect="non-scaling-stroke" d="M382.956 69.875L314.872 152.827L353.358 183.706L406.932 96.0007L382.956 69.875Z" fill="#202020" stroke="white" stroke-width="1.37794" stroke-miterlimit="10"/>
<path vector-effect="non-scaling-stroke" d="M485.612 91.7987L399.34 66.8994L387.42 99.1707L476.27 113.97L485.612 91.7849V91.7987Z" fill="#202020" stroke="white" stroke-width="1.37794" stroke-miterlimit="10"/>
<path vector-effect="non-scaling-stroke" d="M391.775 209.997L356.651 155.858L314.018 177.368L346.606 239.058" fill="#202020"/>
<path vector-effect="non-scaling-stroke" d="M391.775 209.997L356.651 155.858L314.018 177.368L346.606 239.058" stroke="white" stroke-width="1.37794" stroke-miterlimit="10"/>
<path vector-effect="non-scaling-stroke" d="M346.592 188.887C334.811 194.826 320.232 189.673 314.031 177.368C307.817 165.063 312.323 150.264 324.104 144.325C335.872 138.386 350.45 143.553 356.665 155.858C362.879 168.163 358.373 182.962 346.606 188.901L346.592 188.887Z" fill="#020202" stroke="white" stroke-width="1.37794" stroke-miterlimit="10"/>
<path vector-effect="non-scaling-stroke" d="M338.752 173.372C335.169 175.177 330.746 173.606 328.858 169.858C326.971 166.111 328.335 161.618 331.917 159.813C335.5 158.008 339.937 159.579 341.825 163.313C343.713 167.048 342.348 171.553 338.766 173.372H338.752Z" fill="#202020" stroke="white" stroke-width="1.37794" stroke-miterlimit="10"/>
<path vector-effect="non-scaling-stroke" d="M402.302 99.4732C393.814 103.759 383.314 100.038 378.836 91.1642C374.358 82.2903 377.609 71.6251 386.098 67.3535C394.586 63.0819 405.085 66.7886 409.564 75.6625C414.042 84.5226 410.79 95.2016 402.302 99.4732Z" fill="#020202" stroke="white" stroke-width="1.37794" stroke-miterlimit="10"/>
<path vector-effect="non-scaling-stroke" d="M396.653 88.2974C394.076 89.6065 390.879 88.4628 389.515 85.762C388.151 83.0613 389.143 79.8231 391.72 78.5141C394.296 77.205 397.493 78.3487 398.857 81.0495C400.221 83.7502 399.229 86.9884 396.653 88.2974Z" fill="#202020" stroke="white" stroke-width="1.37794" stroke-miterlimit="10"/>
<path vector-effect="non-scaling-stroke" d="M491.592 107.893C488.478 114.039 480.748 116.367 474.313 113.115C467.892 109.863 465.219 102.243 468.333 96.0978C471.447 89.9522 479.177 87.6235 485.598 90.8754C492.02 94.1411 494.707 101.761 491.592 107.893Z" fill="#020202" stroke="white" stroke-width="1.37794" stroke-miterlimit="10"/>
<path vector-effect="non-scaling-stroke" d="M483.146 103.456C482.236 105.261 479.963 105.95 478.075 104.985C476.187 104.021 475.402 101.788 476.325 99.9832C477.234 98.1781 479.522 97.4891 481.396 98.4399C483.284 99.4045 484.069 101.637 483.146 103.442V103.456Z" fill="#202020" stroke="white" stroke-width="1.37794" stroke-miterlimit="10"/>
<path vector-effect="non-scaling-stroke" d="M492.13 156.644L538.98 145.979Z" fill="white"/>
<path vector-effect="non-scaling-stroke" d="M492.13 156.644L538.98 145.979" stroke="white" stroke-width="1.37794" stroke-miterlimit="10"/>
<path vector-effect="non-scaling-stroke" d="M538.966 145.992C543.926 144.835 548.887 147.935 550.031 152.896C551.188 157.856 548.088 162.817 543.127 163.961" fill="#020202"/>
<path vector-effect="non-scaling-stroke" d="M538.966 145.992C543.926 144.835 548.887 147.935 550.031 152.896C551.188 157.856 548.088 162.817 543.127 163.961" stroke="white" stroke-width="1.37794" stroke-linejoin="round"/>
<path vector-effect="non-scaling-stroke" d="M496.332 174.612C491.372 175.769 486.411 172.669 485.267 167.708C484.124 162.748 487.21 157.787 492.171 156.644" fill="#020202"/>
<path vector-effect="non-scaling-stroke" d="M496.332 174.612C491.372 175.769 486.411 172.669 485.267 167.708C484.124 162.748 487.21 157.787 492.171 156.644" stroke="white" stroke-width="1.37794" stroke-linejoin="round"/>
<path vector-effect="non-scaling-stroke" d="M759.298 173.579V42.1511C759.298 34.9858 753.483 29.1709 746.318 29.1709H258.942C252.148 29.1709 246.637 34.6826 246.637 41.4759V178.98" stroke="white" stroke-width="1.37794" stroke-miterlimit="10"/>
<path vector-effect="non-scaling-stroke" d="M759.298 55.5732H627.677" stroke="white" stroke-width="1.37794" stroke-miterlimit="10"/>
<path vector-effect="non-scaling-stroke" d="M430.481 55.5732H246.637" stroke="white" stroke-width="1.37794" stroke-miterlimit="10"/>
<path vector-effect="non-scaling-stroke" d="M263.255 48.2146C266.048 48.2146 268.312 45.9505 268.312 43.1576C268.312 40.3647 266.048 38.1006 263.255 38.1006C260.462 38.1006 258.198 40.3647 258.198 43.1576C258.198 45.9505 260.462 48.2146 263.255 48.2146Z" stroke="white" stroke-width="1.37794" stroke-miterlimit="10"/>
<path vector-effect="non-scaling-stroke" d="M281.884 48.2146C284.677 48.2146 286.941 45.9505 286.941 43.1576C286.941 40.3647 284.677 38.1006 281.884 38.1006C279.091 38.1006 276.827 40.3647 276.827 43.1576C276.827 45.9505 279.091 48.2146 281.884 48.2146Z" stroke="white" stroke-width="1.37794" stroke-miterlimit="10"/>
<path vector-effect="non-scaling-stroke" d="M300.514 48.2146C303.307 48.2146 305.571 45.9505 305.571 43.1576C305.571 40.3647 303.307 38.1006 300.514 38.1006C297.721 38.1006 295.457 40.3647 295.457 43.1576C295.457 45.9505 297.721 48.2146 300.514 48.2146Z" stroke="white" stroke-width="1.37794" stroke-miterlimit="10"/>
<path vector-effect="non-scaling-stroke" d="M737.609 526.096H691.489C687.851 526.096 684.917 523.147 684.917 519.523V427.821C684.917 425.713 685.922 423.729 687.631 422.503L696.05 416.412C697.166 415.599 698.517 415.158 699.908 415.158H729.203C730.595 415.158 731.932 415.599 733.062 416.412L741.481 422.503C743.189 423.743 744.195 425.713 744.195 427.821V519.523C744.195 523.161 741.247 526.096 737.623 526.096H737.609Z" fill="#020202" stroke="white" stroke-width="1.37794" stroke-miterlimit="10"/>
<path vector-effect="non-scaling-stroke" d="M734.688 448.449H694.424V461.636H734.688V448.449Z" fill="#020202" stroke="white" stroke-width="1.37794" stroke-miterlimit="10"/>
<path vector-effect="non-scaling-stroke" d="M750.906 441.973H744.195V465.163H750.906V441.973Z" fill="#020202" stroke="white" stroke-width="1.37794" stroke-miterlimit="10"/>
<path vector-effect="non-scaling-stroke" d="M750.906 488.34H744.195V511.531H750.906V488.34Z" fill="#020202" stroke="white" stroke-width="1.37794" stroke-miterlimit="10"/>
<path vector-effect="non-scaling-stroke" d="M684.917 441.973H678.206V465.163H684.917V441.973Z" fill="#020202" stroke="white" stroke-width="1.37794" stroke-miterlimit="10"/>
<path vector-effect="non-scaling-stroke" d="M684.917 488.34H678.206V511.531H684.917V488.34Z" fill="#020202" stroke="white" stroke-width="1.37794" stroke-miterlimit="10"/>
<path vector-effect="non-scaling-stroke" d="M697.373 415.668V419.788C697.373 422.379 695.279 424.473 692.688 424.473H685.84" fill="#020202"/>
<path vector-effect="non-scaling-stroke" d="M697.373 415.668V419.788C697.373 422.379 695.279 424.473 692.688 424.473H685.84" stroke="white" stroke-width="1.37794" stroke-miterlimit="10"/>
<path vector-effect="non-scaling-stroke" d="M731.725 415.668V419.788C731.725 422.379 733.82 424.473 736.41 424.473H743.258" fill="#020202"/>
<path vector-effect="non-scaling-stroke" d="M731.725 415.668V419.788C731.725 422.379 733.82 424.473 736.41 424.473H743.258" stroke="white" stroke-width="1.37794" stroke-miterlimit="10"/>
<path vector-effect="non-scaling-stroke" d="M294.768 201.275V210.549H299.164V218.059C299.164 218.734 299.095 219.395 298.971 220.015C298.626 221.572 297.855 222.964 296.656 224.163C294.947 225.858 292.908 226.712 290.51 226.712V268.808C290.51 271.33 289.615 273.466 287.81 275.257C286.032 277.048 283.882 277.958 281.361 277.958H281.333C278.812 277.958 276.662 277.062 274.857 275.257C273.135 273.534 272.253 271.481 272.184 269.084V227.387C272.115 224.99 271.219 222.923 269.483 221.187C269.276 220.98 269.056 220.773 268.835 220.594C268.367 220.195 267.871 219.85 267.347 219.574C266.107 218.899 264.729 218.555 263.227 218.527V286.101L204.183 286.597L205.368 187.055C205.368 184.823 206.153 182.935 207.738 181.351C209.309 179.78 211.21 178.98 213.442 178.98H255.387C257.523 179.036 259.341 179.821 260.857 181.351C262.428 182.921 263.227 184.823 263.227 187.055V218.513V217.935M286.252 201.289V210.563M286.252 210.563H294.754M286.252 210.563H281.871V218.073C281.871 218.748 281.94 219.409 282.077 220.029C282.422 221.586 283.193 222.978 284.42 224.177C286.101 225.872 288.126 226.726 290.51 226.726M213.442 244.336V187.041H255.194V244.336C255.056 249.875 253.017 254.615 249.062 258.57C245.121 262.511 240.381 264.55 234.842 264.688H233.781C228.241 264.564 223.501 262.525 219.547 258.57C215.606 254.629 213.566 249.875 213.429 244.336H213.442ZM248.001 219.216C248.029 219.561 247.932 219.878 247.712 220.139L229.537 242.834C229.33 243.096 229.082 243.247 228.765 243.33C228.448 243.399 228.145 243.344 227.856 243.192C227.566 243.055 227.36 242.834 227.235 242.545C227.111 242.242 227.098 241.938 227.18 241.621L231.645 226.161H221.82C221.462 226.161 221.159 226.037 220.897 225.803C220.635 225.555 220.497 225.252 220.47 224.893C220.442 224.549 220.539 224.232 220.759 223.97L238.92 201.275C239.127 201.014 239.403 200.862 239.72 200.779C240.037 200.711 240.34 200.766 240.629 200.917C240.918 201.055 241.111 201.275 241.235 201.565C241.359 201.868 241.373 202.185 241.29 202.488L236.84 217.935H246.651C247.009 217.935 247.312 218.059 247.574 218.293C247.836 218.541 247.973 218.844 248.001 219.202V219.216Z" stroke="white" stroke-width="1.37794" stroke-miterlimit="10"/>
<path vector-effect="non-scaling-stroke" fill-rule="evenodd" clip-rule="evenodd" d="M248.152 219.367C248.18 219.712 248.084 220.029 247.863 220.291L229.688 242.985C229.481 243.247 229.233 243.399 228.916 243.481C228.6 243.55 228.296 243.495 228.007 243.344C227.718 243.206 227.511 242.985 227.387 242.696C227.263 242.393 227.249 242.09 227.332 241.773L231.796 226.312H221.972C221.613 226.312 221.31 226.188 221.048 225.954C220.787 225.706 220.649 225.403 220.621 225.045C220.594 224.7 220.69 224.383 220.911 224.121L239.072 201.427C239.279 201.165 239.554 201.013 239.871 200.931C240.188 200.862 240.491 200.917 240.78 201.068C241.07 201.206 241.263 201.427 241.387 201.716C241.511 202.019 241.525 202.336 241.442 202.639L236.991 218.086H246.802C247.16 218.086 247.463 218.21 247.725 218.444C247.987 218.692 248.125 218.995 248.152 219.354V219.367Z" fill="#9F00FF" stroke="white" stroke-width="1.37794" stroke-miterlimit="10"/>
<path vector-effect="non-scaling-stroke" d="M167.323 269.856V230.309C167.323 226.134 170.712 222.744 174.888 222.744C179.063 222.744 182.452 226.134 182.452 230.309V269.856" stroke="white" stroke-width="1.37794" stroke-miterlimit="10"/>
<path vector-effect="non-scaling-stroke" d="M197.541 230.31V269.856C197.541 274.031 194.151 277.421 189.976 277.421C185.801 277.421 182.411 274.031 182.411 269.856V230.31" stroke="white" stroke-width="1.37794" stroke-miterlimit="10"/>
<path vector-effect="non-scaling-stroke" d="M167.391 230.31V269.856C167.391 274.031 164.002 277.421 159.827 277.421C155.651 277.421 152.262 274.031 152.262 269.856V230.31" stroke="white" stroke-width="1.37794" stroke-miterlimit="10"/>
<path vector-effect="non-scaling-stroke" d="M197.472 269.856V230.309C197.472 226.134 200.861 222.744 205.037 222.744" stroke="white" stroke-width="1.37794" stroke-miterlimit="10"/>
<path vector-effect="non-scaling-stroke" d="M152.248 269.856V230.309C152.248 226.134 148.858 222.744 144.683 222.744" stroke="white" stroke-width="1.37794" stroke-miterlimit="10"/>
</g>
<defs>
<clipPath id="clip0_24_4483">
<rect width="802" height="526.785" fill="white"/>
</clipPath>
</defs>
</svg>
