<svg width="802" height="535" viewBox="0 0 802 535" fill="none" xmlns="http://www.w3.org/2000/svg">
<g clip-path="url(#clip0_21_14921)">
<g clip-path="url(#clip1_21_14921)">
<path vector-effect="non-scaling-stroke" d="M289.314 519.551H746.919C765.082 519.551 779.814 504.82 779.814 486.656V52.9258H53.6396" stroke="white" stroke-width="1.37291" stroke-miterlimit="10"/>
<path vector-effect="non-scaling-stroke" d="M398.557 362.983V308.383H343.956V362.983H398.557Z" stroke="white" stroke-width="1.37291" stroke-miterlimit="10"/>
<path vector-effect="non-scaling-stroke" d="M343.956 417.584V362.983H398.57V417.584L370.069 391.856L343.956 417.584Z" fill="#404040"/>
<path vector-effect="non-scaling-stroke" d="M343.956 362.983V308.383H289.355V362.983H343.956Z" fill="#202020"/>
<path vector-effect="non-scaling-stroke" d="M289.355 417.584V362.983H234.755V417.584H289.355Z" fill="#202020" stroke="white" stroke-width="1.37291" stroke-miterlimit="10"/>
<path vector-effect="non-scaling-stroke" d="M343.956 417.584V362.983H398.57V417.584L371.263 390.291L343.956 417.584Z" stroke="white" stroke-width="1.37291" stroke-miterlimit="10"/>
<path vector-effect="non-scaling-stroke" d="M343.956 362.983V308.383H289.355V362.983H343.956Z" stroke="white" stroke-width="1.37291" stroke-miterlimit="10"/>
<path vector-effect="non-scaling-stroke" d="M343.956 308.383V253.782H289.355V308.383H343.956Z" stroke="white" stroke-width="1.37291" stroke-miterlimit="10"/>
<path vector-effect="non-scaling-stroke" d="M289.355 417.584V362.983H343.956V417.584" stroke="white" stroke-width="1.37291" stroke-miterlimit="10"/>
<path vector-effect="non-scaling-stroke" d="M343.956 265.452C350.386 265.452 355.598 260.227 355.598 253.782C355.598 247.337 350.386 242.112 343.956 242.112C337.526 242.112 332.314 247.337 332.314 253.782C332.314 260.227 337.526 265.452 343.956 265.452Z" fill="#020202" stroke="white" stroke-width="1.37291" stroke-miterlimit="10"/>
<path vector-effect="non-scaling-stroke" d="M398.57 374.667C405 374.667 410.213 369.442 410.213 362.997C410.213 356.552 405 351.327 398.57 351.327C392.141 351.327 386.928 356.552 386.928 362.997C386.928 369.442 392.141 374.667 398.57 374.667Z" fill="#020202" stroke="white" stroke-width="1.37291" stroke-miterlimit="10"/>
<path vector-effect="non-scaling-stroke" d="M623.275 7.00195L562.647 79.3681H589.487V365.62H657.048V79.3681H683.889L623.275 7.00195Z" fill="#A100FF" stroke="white" stroke-width="1.37291" stroke-miterlimit="10"/>
<path vector-effect="non-scaling-stroke" d="M801.314 371.565C801.314 395.824 794.38 418.464 782.381 437.602C760.373 472.721 721.314 496.074 676.804 496.074C608.035 496.074 552.295 440.334 552.295 371.565C552.295 327.495 575.195 288.765 609.751 266.633C617.014 261.979 624.785 258.066 632.953 254.991C646.586 249.856 661.373 247.056 676.804 247.056C690.067 247.056 702.862 249.129 714.848 252.973C741.551 261.54 764.341 278.866 779.8 301.574C781.475 304.031 783.054 306.544 784.55 309.125C795.204 327.481 801.314 348.802 801.314 371.565Z" fill="#050505" stroke="white" stroke-width="1.37291" stroke-miterlimit="10"/>
<path vector-effect="non-scaling-stroke" d="M701.942 444.014C680.854 473.819 673.976 463.729 668.004 469.92C662.046 476.112 665.011 491.049 659.519 489.416C649.113 486.299 643.923 478.405 643.703 464.195C643.47 449.986 647.136 444.48 638.665 439.661C630.18 434.842 614.817 415.127 615.737 407.796C616.657 400.465 622.615 401.371 623.755 395.412C624.895 389.454 628.107 383.496 621.229 385.322C614.351 387.161 608.392 380.05 607.472 374.544C606.552 369.039 601.28 372.018 598.301 368.119C595.322 364.22 577.9 358.495 579.726 351.617C581.565 344.738 574.22 305.761 581.785 300.723C589.35 295.684 607.692 276.656 609.751 269.311C610.012 268.377 609.985 267.498 609.724 266.647C616.987 261.993 624.757 258.08 632.926 255.005C633.063 256.666 633.091 258.135 632.899 259.22C631.979 264.725 651.241 258.767 656.513 263.572C661.785 268.391 664.311 272.743 663.158 277.781C662.004 282.82 646.188 265.398 632.212 281.214C618.222 297.03 648.028 279.374 657.433 283.053C666.837 286.719 672.795 295.204 670.269 299.336C667.743 303.469 653.533 298.416 653.767 303.922C654 309.427 640.463 318.598 636.111 320.204C631.759 321.811 621.435 334.647 625.801 346.111C625.801 346.111 620.762 351.617 617.083 334.881C617.083 334.881 596.764 327.577 593.922 345.425C591.093 363.273 602.64 350.01 607.445 352.303C612.264 354.596 603.546 362.394 606.525 364C609.504 365.607 615.01 364 615.01 368.352C615.01 372.705 623.261 381.876 629.919 379.816C636.564 377.757 648.715 379.583 653.767 382.342C658.805 385.088 677.614 407.563 689.298 408.483C700.995 409.402 723.003 414.208 701.901 444.014H701.942Z" fill="#232323" stroke="white" stroke-width="1.37291" stroke-miterlimit="10"/>
<path vector-effect="non-scaling-stroke" d="M615.201 352.317C615.201 352.317 616.972 356.285 626.239 359.085C635.507 361.886 636.976 367.625 642.275 366.005C647.574 364.385 623.439 347.608 615.201 352.317Z" fill="#232323" stroke="white" stroke-width="1.37291" stroke-miterlimit="10"/>
<path vector-effect="non-scaling-stroke" d="M779.8 301.588C779.8 301.588 779.758 301.616 779.745 301.63C773.347 306.201 772.207 302.316 765.81 297.291C759.412 292.266 756.446 301.863 755.76 310.087C755.073 318.31 745.477 317.404 738.393 308.947C731.308 300.49 739.766 305.062 743.651 303.236C747.536 301.41 740.219 296.385 737.487 293.639C734.741 290.893 723.771 291.813 720.572 284.509C717.373 277.205 727.423 281.077 733.368 285.882C739.312 290.674 739.999 282.23 737.94 279.938C735.88 277.659 733.821 278.798 728.796 276.739C723.771 274.679 725.83 269.421 718.966 266.456C714.023 264.314 714.312 256.928 714.847 252.987C741.55 261.554 764.341 278.88 779.8 301.588Z" fill="#232323" stroke="white" stroke-width="1.37291" stroke-miterlimit="10"/>
<path vector-effect="non-scaling-stroke" d="M801.314 371.565C801.314 395.824 794.38 418.464 782.381 437.602C781.956 433.579 782.107 428.76 783.795 423.887C787.969 411.901 791.882 406.423 786.404 385.569C780.926 364.714 769.133 387.148 763.202 384.004C757.024 380.722 748.786 376.7 748.566 370.975C748.347 365.236 749.651 359.882 745.999 351.479C742.347 343.077 747.042 337.613 751.477 331.613C755.911 325.614 747.825 321.975 755.39 317.541C762.955 313.106 765.288 307.121 771.549 311.802C775.75 314.946 780.528 313.875 784.564 309.125C795.218 327.481 801.327 348.802 801.327 371.565H801.314Z" fill="#232323" stroke="white" stroke-width="1.37291" stroke-miterlimit="10"/>
<path vector-effect="non-scaling-stroke" d="M49.9191 48.1619L197.74 50.9077L198.592 50.537L46.9948 47.75C48.2578 48.0383 49.3973 48.2305 49.9191 48.1481V48.1619Z" fill="black" stroke="white" stroke-width="1.37291" stroke-miterlimit="10"/>
<path vector-effect="non-scaling-stroke" d="M49.9191 48.1619L197.74 50.9077L198.592 50.537L46.9948 47.75C48.2578 48.0383 49.3973 48.2305 49.9191 48.1481V48.1619Z" fill="black" stroke="white" stroke-width="1.37291" stroke-miterlimit="10"/>
<path vector-effect="non-scaling-stroke" d="M232.242 43.3015L125.086 0.741211L17.9302 43.3015H17.9165L24.8909 55.4929H225.267L232.242 43.3015ZM44.7844 43.3015L125.086 10.9969L205.388 43.3015H44.7844Z" fill="black"/>
<path vector-effect="non-scaling-stroke" d="M232.242 43.3015L125.086 0.741211L17.9302 43.3015H17.9165L24.8909 55.4929H225.267L232.242 43.3015ZM232.242 43.3015H232.228M44.7844 43.3015L125.086 10.9969L205.388 43.3015H44.7844Z" stroke="white" stroke-width="1.37291" stroke-miterlimit="10"/>
<path vector-effect="non-scaling-stroke" d="M55.5068 64.7461H30.9454V180.757H55.5068V64.7461Z" fill="black" stroke="white" stroke-width="1.37291" stroke-miterlimit="10"/>
<path vector-effect="non-scaling-stroke" d="M61.6163 172.162H24.8497V180.77H61.6163V172.162Z" fill="black" stroke="white" stroke-width="1.37291" stroke-miterlimit="10"/>
<path vector-effect="non-scaling-stroke" d="M60.3119 64.7461H26.1401C23.2845 64.7461 20.9642 67.0663 20.9642 69.922C20.9642 72.7776 23.2845 75.0978 26.1401 75.0978C28.5564 75.0978 30.5609 73.4366 31.1375 71.2125H55.3145C55.8911 73.4366 57.8956 75.0978 60.3119 75.0978C63.1675 75.0978 65.4878 72.7776 65.4878 69.922C65.4878 67.0663 63.1675 64.7461 60.3119 64.7461Z" fill="black" stroke="white" stroke-width="1.37291" stroke-miterlimit="10"/>
<path vector-effect="non-scaling-stroke" d="M218.76 64.7461H194.198V180.757H218.76V64.7461Z" fill="black" stroke="white" stroke-width="1.37291" stroke-miterlimit="10"/>
<path vector-effect="non-scaling-stroke" d="M224.87 172.163H188.103V180.771H224.87V172.163Z" fill="black" stroke="white" stroke-width="1.37291" stroke-miterlimit="10"/>
<path vector-effect="non-scaling-stroke" d="M223.565 64.7461H189.393C186.538 64.7461 184.217 67.0663 184.217 69.922C184.217 72.7776 186.538 75.0978 189.393 75.0978C191.809 75.0978 193.814 73.4366 194.391 71.2125H218.568C219.144 73.4366 221.149 75.0978 223.565 75.0978C226.421 75.0978 228.741 72.7776 228.741 69.922C228.741 67.0663 226.421 64.7461 223.565 64.7461Z" fill="black" stroke="white" stroke-width="1.37291" stroke-miterlimit="10"/>
<path vector-effect="non-scaling-stroke" d="M109.751 64.7461H85.1892V180.757H109.751V64.7461Z" fill="black" stroke="white" stroke-width="1.37291" stroke-miterlimit="10"/>
<path vector-effect="non-scaling-stroke" d="M115.846 172.163H79.0791V180.771H115.846V172.163Z" fill="black" stroke="white" stroke-width="1.37291" stroke-miterlimit="10"/>
<path vector-effect="non-scaling-stroke" d="M114.556 64.7461H80.384C77.5284 64.7461 75.2081 67.0663 75.2081 69.922C75.2081 72.7776 77.5284 75.0978 80.384 75.0978C82.8003 75.0978 84.8048 73.4366 85.3814 71.2125H109.558C110.135 73.4366 112.139 75.0978 114.556 75.0978C117.411 75.0978 119.732 72.7776 119.732 69.922C119.732 67.0663 117.411 64.7461 114.556 64.7461Z" fill="black" stroke="white" stroke-width="1.37291" stroke-miterlimit="10"/>
<path vector-effect="non-scaling-stroke" d="M164.063 64.7461H139.501V180.757H164.063V64.7461Z" fill="black" stroke="white" stroke-width="1.37291" stroke-miterlimit="10"/>
<path vector-effect="non-scaling-stroke" d="M170.172 172.162H133.406V180.77H170.172V172.162Z" fill="black" stroke="white" stroke-width="1.37291" stroke-miterlimit="10"/>
<path vector-effect="non-scaling-stroke" d="M168.868 64.7461H134.696C131.841 64.7461 129.521 67.0663 129.521 69.922C129.521 72.7776 131.841 75.0978 134.696 75.0978C137.113 75.0978 139.117 73.4366 139.694 71.2125H163.871C164.447 73.4366 166.452 75.0978 168.868 75.0978C171.724 75.0978 174.044 72.7776 174.044 69.922C174.044 67.0663 171.724 64.7461 168.868 64.7461Z" fill="black" stroke="white" stroke-width="1.37291" stroke-miterlimit="10"/>
<path vector-effect="non-scaling-stroke" d="M228.027 59.7217H22.2412V64.7465H228.027V59.7217Z" fill="black" stroke="white" stroke-width="1.37291" stroke-miterlimit="10"/>
<path vector-effect="non-scaling-stroke" d="M235.386 180.757H14.8V191.534H235.386V180.757Z" fill="black" stroke="white" stroke-width="1.37291" stroke-miterlimit="10"/>
<path vector-effect="non-scaling-stroke" d="M0.686523 191.549V207.022H249.486V200.061V191.549H0.686523Z" fill="black" stroke="white" stroke-width="1.37291" stroke-miterlimit="10"/>
<path vector-effect="non-scaling-stroke" d="M294.668 171.998C294.668 171.998 288.696 181.183 283.932 189.063Z" fill="black"/>
<path vector-effect="non-scaling-stroke" d="M294.668 171.998C294.668 171.998 288.696 181.183 283.932 189.063" stroke="white" stroke-width="1.37291" stroke-miterlimit="10"/>
<path vector-effect="non-scaling-stroke" d="M546.474 498.735C539.609 508.167 522.613 510.172 522.613 510.172C501.772 512.135 499.465 531.15 499.465 531.15L592.562 529.475L588.636 494.479L546.474 498.735Z" fill="black" stroke="white" stroke-width="1.37291" stroke-linecap="round" stroke-linejoin="round"/>
<path vector-effect="non-scaling-stroke" d="M439.195 495.153C432.33 504.584 415.333 506.589 415.333 506.589C394.493 508.552 392.186 527.567 392.186 527.567L485.283 525.892L481.357 490.896L439.195 495.153Z" fill="black" stroke="white" stroke-width="1.37291" stroke-linecap="round" stroke-linejoin="round"/>
<path vector-effect="non-scaling-stroke" d="M374.064 227.05L375.89 225.856C382.741 221.353 390.621 218.662 398.79 218.044L443.052 214.667L443.094 184.023L382.988 187.936C378.828 188.211 374.709 189.886 370.755 191.204L365.813 192.865L354.925 210.795L374.077 227.05H374.064Z" fill="black" stroke="white" stroke-width="1.37291" stroke-miterlimit="10"/>
<path vector-effect="non-scaling-stroke" d="M374.064 227.476C373.967 227.476 373.858 227.435 373.789 227.38L354.637 211.125C354.472 210.987 354.431 210.754 354.541 210.575L365.428 192.645C365.483 192.563 365.565 192.494 365.661 192.453L370.604 190.792C371.277 190.572 371.963 190.325 372.636 190.092C375.972 188.925 379.432 187.73 382.946 187.497L443.052 183.584C443.176 183.584 443.286 183.625 443.382 183.694C443.464 183.776 443.519 183.886 443.519 184.01L443.478 214.639C443.478 214.859 443.3 215.051 443.08 215.065L398.817 218.442C390.744 219.06 382.891 221.737 376.123 226.185L374.297 227.38C374.228 227.421 374.146 227.448 374.064 227.448V227.476Z" fill="black" stroke="white" stroke-width="1.37291" stroke-miterlimit="10"/>
<path vector-effect="non-scaling-stroke" d="M385.404 104.861C385.816 103.31 385.514 101.58 384.566 100.07C383.605 98.5597 382.178 97.5574 380.599 97.2691C379.995 95.2784 378.32 93.6858 376.054 92.9719C374.119 92.3541 372.389 92.7111 371.222 93.1779C372.279 91.5853 373.322 89.9652 374.352 88.3589C377.043 84.1166 377.867 82.6202 377.372 81.055C376.782 79.2016 374.695 78.0484 372.993 77.7738C370.947 77.4306 367.844 78.2818 360.28 87.0959C349.365 99.8227 345.493 110.037 344.821 111.987L342.857 124.535C345.438 128.338 349.461 131.276 359.909 133.953C362.421 134.599 364.783 134.859 366.993 134.859C371.963 134.859 376.068 133.514 378.965 132.155C379.089 132.1 379.185 131.976 379.212 131.825C379.967 126.965 380.53 122.023 380.901 117.163C383.647 116.984 386.173 115.131 387.148 112.563C388.136 109.941 387.422 106.838 385.418 104.903L385.404 104.861Z" fill="black" stroke="white" stroke-width="1.37291" stroke-miterlimit="10"/>
<path vector-effect="non-scaling-stroke" d="M353.648 104.353C355.914 101.36 359.305 99.1767 362.971 98.3804C366.636 97.5841 370.631 98.147 373.94 99.9455C375.752 100.934 376.741 102.225 376.7 103.584C376.658 104.915 375.615 106.151 373.913 106.879C373.487 107.057 373.034 107.222 372.608 107.373C371.757 107.661 370.947 107.95 370.274 108.444C369.011 109.377 368.366 110.97 367.899 112.412C367.831 112.631 367.762 112.851 367.693 113.071C367.254 114.457 366.815 115.899 365.895 117.079C365.071 118.15 363.684 119.015 362.284 119.015" fill="black"/>
<path vector-effect="non-scaling-stroke" d="M353.648 104.353C355.914 101.36 359.305 99.1767 362.971 98.3804C366.636 97.5841 370.631 98.147 373.94 99.9455C375.752 100.934 376.741 102.225 376.7 103.584C376.658 104.915 375.615 106.151 373.913 106.879C373.487 107.057 373.034 107.222 372.608 107.373C371.757 107.661 370.947 107.95 370.274 108.444C369.011 109.377 368.366 110.97 367.899 112.412C367.831 112.631 367.762 112.851 367.693 113.071C367.254 114.457 366.815 115.899 365.895 117.079C365.071 118.15 363.684 119.015 362.284 119.015" stroke="white" stroke-width="1.37291" stroke-miterlimit="10"/>
<path vector-effect="non-scaling-stroke" d="M380.585 97.2695C380.379 100.372 379.404 104.67 377.798 107.333C376.631 109.269 375.341 110.504 373.871 111.136C373.254 111.397 372.54 111.548 371.812 111.548C370.59 111.548 369.588 111.397 368.778 110.367" stroke="white" stroke-width="1.37291" stroke-miterlimit="10"/>
<path vector-effect="non-scaling-stroke" d="M385.404 104.861C384.759 106.632 383.715 109.461 382.383 111.259C380.928 113.25 378.924 114.513 376.919 114.733C376.727 114.76 376.535 114.76 376.343 114.76C374.132 114.76 372.045 113.401 371.428 111.479" stroke="white" stroke-width="1.37291" stroke-miterlimit="10"/>
<path vector-effect="non-scaling-stroke" d="M380.887 117.121C379.391 117.121 377.139 116.009 376.329 114.76Z" fill="black"/>
<path vector-effect="non-scaling-stroke" d="M380.887 117.121C379.391 117.121 377.139 116.009 376.329 114.76" stroke="white" stroke-width="1.37291" stroke-miterlimit="10"/>
<path vector-effect="non-scaling-stroke" d="M272.125 117.808C273.333 117.121 278.221 120.746 279.415 121.405C284.619 124.302 289.836 127.185 295.039 130.082C306.86 136.644 318.694 143.207 330.515 149.769C335.924 141.339 338.945 131.729 341.965 122.132C344.752 126.237 350.024 130.96 360.005 133.514C367.845 135.518 376.233 133.39 380.572 131.345C378.238 146.529 372.265 161.823 366.376 176.005C363.616 182.637 360.28 189.391 354.527 193.689C348.775 198 341.155 199.317 334.03 198.356C326.904 197.395 318.571 194.732 312.461 190.956C297.03 181.442 283.616 174.262 276.285 157.732C272.619 149.467 273.031 132.992 271.988 124C271.851 122.764 270.793 118.549 272.125 117.794V117.808Z" fill="#232323" stroke="white" stroke-width="1.37291" stroke-miterlimit="10"/>
<path vector-effect="non-scaling-stroke" d="M275.626 109.734C277.644 110.256 279.209 111.821 279.759 113.826C287.708 143.288 303.057 191.025 309.866 220.817C311.047 226.006 311.857 231.484 310.347 236.578C308.974 241.218 305.761 245.158 301.986 248.193C298.21 251.24 293.872 253.492 289.575 255.716C283.616 242.248 281.9 206.621 277.123 192.686C272.496 179.176 267.869 165.639 264.945 151.663C262.899 141.874 230.498 142.753 230.787 132.744C230.869 129.903 220.682 114.595 222.591 112.274C227.135 106.714 271.713 108.719 275.626 109.734Z" fill="#232323" stroke="white" stroke-width="1.37291" stroke-miterlimit="10"/>
<path vector-effect="non-scaling-stroke" d="M290.247 203.71L211.621 206.085C191.027 242.687 159.67 360.867 139.378 418.392L208.271 419.339L241.193 294.638C237.226 319.364 210.413 455.516 204.18 488.411L278.688 483.949C302.206 346.067 290.261 203.71 290.261 203.71H290.247Z" fill="black" stroke="white" stroke-width="1.37291" stroke-miterlimit="10"/>
<path vector-effect="non-scaling-stroke" d="M227.135 213.21H291.717C295.012 213.21 297.4 210.08 296.522 206.908C294.504 199.618 290.81 186.315 285.868 168.522C278.193 140.954 273.237 121.527 270.56 115.088C267.883 108.635 267.402 105.162 256.474 104.668C246.397 104.214 234.288 102.677 233.107 114.058C232.874 116.269 231.665 118.259 229.881 119.577L222.728 124.877L227.135 213.224V213.21Z" fill="#A2A2A0" stroke="white" stroke-width="1.37291" stroke-miterlimit="10"/>
<path vector-effect="non-scaling-stroke" d="M272.963 122.158L270.642 130.506C270.601 130.643 270.505 130.753 270.368 130.794C270.23 130.835 270.093 130.822 269.97 130.739L259.22 123.312L251.133 136.121C251.065 136.231 250.941 136.313 250.804 136.327C250.804 136.327 250.776 136.327 250.763 136.327C250.639 136.327 250.529 136.272 250.447 136.19L234.796 121.87" fill="#A2A2A0"/>
<path vector-effect="non-scaling-stroke" d="M272.963 122.158L270.642 130.506C270.601 130.643 270.505 130.753 270.368 130.794C270.23 130.835 270.093 130.822 269.97 130.739L259.22 123.312L251.133 136.121C251.065 136.231 250.941 136.313 250.804 136.327C250.804 136.327 250.776 136.327 250.763 136.327C250.639 136.327 250.529 136.272 250.447 136.19L234.796 121.87" stroke="white" stroke-width="1.37291" stroke-miterlimit="10"/>
<path vector-effect="non-scaling-stroke" d="M312.64 183.39H346.015C356.024 183.39 365.895 185.586 374.97 189.801L366.678 192.863L382.658 220.554C385.349 225.209 379.995 230.549 376.013 227.144C375.917 227.062 375.835 226.98 375.739 226.897C376.727 231.689 370.179 232.924 366.87 228.737C367.776 233.13 361.804 235.327 357.809 230.618C359.264 235.67 352.152 237.647 348.898 232.471C345.466 226.993 334.908 208.967 334.908 208.967H312.049L312.654 183.376L312.64 183.39Z" fill="black" stroke="white" stroke-width="1.37291" stroke-miterlimit="10"/>
<path vector-effect="non-scaling-stroke" d="M345.809 211.657L336.638 215.611C334.785 216.408 332.643 215.557 331.847 213.703C331.051 211.85 331.902 209.708 333.755 208.912L342.926 204.958C344.78 204.161 346.921 205.013 347.718 206.866C348.514 208.719 347.663 210.861 345.809 211.657Z" fill="black" stroke="white" stroke-width="1.37291" stroke-miterlimit="10"/>
<path vector-effect="non-scaling-stroke" d="M349.462 217.851L340.291 221.805C338.437 222.601 336.295 221.75 335.499 219.896C334.703 218.043 335.554 215.901 337.408 215.105L346.579 211.151C348.432 210.355 350.574 211.206 351.37 213.059C352.166 214.913 351.315 217.055 349.462 217.851Z" fill="black" stroke="white" stroke-width="1.37291" stroke-miterlimit="10"/>
<path vector-effect="non-scaling-stroke" d="M353.635 224.056L344.464 228.01C342.611 228.806 340.469 227.955 339.673 226.102C338.876 224.248 339.728 222.106 341.581 221.31L350.752 217.356C352.606 216.56 354.747 217.411 355.544 219.264C356.34 221.118 355.489 223.26 353.635 224.056Z" fill="black" stroke="white" stroke-width="1.37291" stroke-miterlimit="10"/>
<path vector-effect="non-scaling-stroke" d="M357.081 229.136L349.516 232.404C347.993 233.063 346.221 232.362 345.562 230.839C344.903 229.315 345.604 227.544 347.128 226.885L354.692 223.617C356.216 222.958 357.987 223.658 358.646 225.182C359.305 226.706 358.605 228.477 357.081 229.136Z" fill="black" stroke="white" stroke-width="1.37291" stroke-miterlimit="10"/>
<path vector-effect="non-scaling-stroke" d="M348.336 233.076C347.004 233.076 345.727 232.293 345.178 231.003C344.807 230.165 344.794 229.232 345.137 228.367C345.48 227.516 346.125 226.843 346.976 226.486L354.541 223.218C356.285 222.463 358.317 223.273 359.058 225.017C359.429 225.854 359.443 226.788 359.099 227.653C358.756 228.504 358.111 229.177 357.26 229.534L349.695 232.801C349.256 232.994 348.789 233.076 348.336 233.076Z" fill="black" stroke="white" stroke-width="1.37291" stroke-miterlimit="10"/>
<path vector-effect="non-scaling-stroke" d="M375.89 189.006L352.729 197.532C352.729 197.532 352.303 204.575 359.223 203.037C368.97 200.868 370.947 204.808 376.096 206.195C384.484 208.446 388.919 203.847 388.919 203.847" fill="black"/>
<path vector-effect="non-scaling-stroke" d="M375.89 189.006L352.729 197.532C352.729 197.532 352.303 204.575 359.223 203.037C368.97 200.868 370.947 204.808 376.096 206.195C384.484 208.446 388.919 203.847 388.919 203.847" stroke="white" stroke-width="1.37291" stroke-miterlimit="10"/>
<path vector-effect="non-scaling-stroke" d="M266.757 128.515L266.167 134.652L285.497 216.477L278.921 235.218L266.812 216.958L261.554 135.668L254.415 130.945L259.234 123.312L266.757 128.515Z" fill="black" stroke="white" stroke-width="1.37291" stroke-miterlimit="10"/>
<path vector-effect="non-scaling-stroke" d="M207.983 129.092C209.658 125.673 211.401 121.362 214.765 117.34C216.811 114.882 219.405 112.548 222.591 112.274C222.591 112.274 229.002 111.56 233.409 118.946C235.619 122.653 236.278 127.046 236.855 131.316C240.644 159.09 243.555 201.623 238.448 229.191C237.72 233.145 234.768 249.798 225.913 254.027C220.257 256.731 213.131 256.155 206.857 256.155C200.583 256.155 178.451 258.434 176.79 254.04C176.461 253.175 175.417 252.613 175.527 250.457C178.438 237.414 188.831 195.678 196.272 170.142C201.53 152.088 204.715 135.75 207.983 129.106V129.092Z" fill="#232323" stroke="white" stroke-width="1.37291" stroke-miterlimit="10"/>
<path vector-effect="non-scaling-stroke" d="M233.409 118.933L266.881 182.128H326.149V221.132L260.799 224.908C260.607 224.908 260.428 224.921 260.236 224.921C247.591 224.825 235.757 218.606 228.522 208.227L208.765 179.876" fill="#232323"/>
<path vector-effect="non-scaling-stroke" d="M233.409 118.933L266.881 182.128H326.149V221.132L260.799 224.908C260.607 224.908 260.428 224.921 260.236 224.921C247.591 224.825 235.757 218.606 228.522 208.227L208.765 179.876" stroke="white" stroke-width="1.37291" stroke-miterlimit="10"/>
<path vector-effect="non-scaling-stroke" d="M233.162 59.829C234.136 56.9322 236.937 53.4587 239.422 51.6739C241.921 49.9029 247.701 49.3537 249.952 51.4131C255.636 47.8572 263.091 46.9648 269.214 49.7107C275.338 52.4565 279.717 59.0465 279.25 65.7325C278.784 72.4186 273.072 78.5418 266.359 78.8713C265.054 84.6375 259.412 88.8112 253.522 89.4702C248.209 90.0605 238.049 87.8639 236.196 82.0564C233.862 74.7388 230.718 67.0643 233.162 59.829Z" fill="#414040" stroke="white" stroke-width="1.37291" stroke-miterlimit="10"/>
<path vector-effect="non-scaling-stroke" d="M263.091 97.4742L259.11 122.695C259.11 122.695 240.781 111.299 240.644 111.107C240.507 110.929 243.761 89.4701 243.761 89.4701C243.761 89.4701 248.003 82.3722 263.091 97.4742Z" fill="black" stroke="white" stroke-width="1.37291" stroke-miterlimit="10"/>
<path vector-effect="non-scaling-stroke" d="M269.805 74.8073C269.805 74.8073 276.642 92.8337 269.805 98.6411C265.741 102.087 252.904 103.886 244.708 91.5019C244.708 91.5019 239.024 91.7765 237.733 85.9691C236.443 80.1617 239.34 77.9788 244.035 82.0563C244.035 82.0563 249.719 84.9532 247.852 76.8942C247.042 73.3932 250.035 70.1944 256.597 68.2997C268.459 64.8812 267.361 67.8741 269.818 74.8073H269.805Z" fill="black" stroke="white" stroke-width="1.37291" stroke-miterlimit="10"/>
<path vector-effect="non-scaling-stroke" d="M260.62 104.298C259.686 104.256 258.739 104.16 257.751 103.968C253.426 103.172 247.303 100.591 242.58 92.8887C241.303 92.7926 236.059 92.065 234.988 86.134C234.384 82.7292 234.96 80.2854 236.567 79.4204C238.145 78.5692 240.369 79.3655 242.813 81.672C243.129 81.8368 244.873 82.6742 245.889 81.9466C246.808 81.2876 247.001 79.4616 246.479 76.6746C245.669 72.3911 249.444 68.9039 256.817 67.1054C268.116 64.3596 269.159 66.1719 270.779 72.3088C270.999 73.16 271.26 74.1347 271.576 75.1644C271.878 76.0705 278.234 95.6345 270.313 101.799C268.404 103.282 264.835 104.476 260.606 104.298H260.62Z" fill="black" stroke="white" stroke-width="1.37291" stroke-miterlimit="10"/>
<path vector-effect="non-scaling-stroke" d="M471.06 229.313L485.174 108.044C485.174 108.044 490.103 101.495 490.363 101.317C490.624 101.138 492.821 99.5459 492.821 99.5459L505.15 97.9671L526.718 96.7314L529.889 97.6101L527.569 224.014L471.06 229.3V229.313Z" fill="black" stroke="white" stroke-width="1.37291" stroke-miterlimit="10"/>
<path vector-effect="non-scaling-stroke" d="M550.977 221.255L463.248 219.965C463.248 219.965 450.123 332.544 421.305 495.865L497.351 504.199C500.893 469.066 512.22 322.082 512.22 322.082L521.926 500.725L603.079 502.277C588.444 392.869 572.888 260.177 550.977 221.255Z" fill="black" stroke="white" stroke-width="1.37291" stroke-miterlimit="10"/>
<path vector-effect="non-scaling-stroke" d="M492.82 99.5742C492.82 99.5742 492.807 99.5468 492.793 99.5605C474.849 108.155 467.023 109.075 462.094 115.61C454.928 125.124 448.75 145.1 445.702 152.514C441.789 162.014 439.428 170.375 437.972 176.608C422.129 179.876 406.286 183.143 390.442 186.425C393.298 197.833 396.607 212.455 399.462 223.864C409.471 224.317 423.378 220.981 440.334 218.084C455.573 215.475 463.193 214.171 468.177 210.739C477.073 204.616 484.624 194.168 490.171 124.863C491.612 106.768 492.724 100.096 492.807 99.5879L492.82 99.5742Z" fill="#232323" stroke="white" stroke-width="1.37291" stroke-miterlimit="10"/>
<path vector-effect="non-scaling-stroke" d="M463.22 142.368L445.537 277.215C445.537 277.215 470.195 279.316 474.368 268.154L487.068 156.262" fill="#232323"/>
<path vector-effect="non-scaling-stroke" d="M463.22 142.368L445.537 277.215C445.537 277.215 470.195 279.316 474.368 268.154L487.068 156.262" stroke="white" stroke-width="1.37291" stroke-miterlimit="10"/>
<path vector-effect="non-scaling-stroke" d="M598.081 264.763C599.523 242.274 601.816 241.876 598.191 219.69C595.981 206.181 587.867 136.519 579.533 114.69C578.765 112.685 577.227 111.079 575.264 110.228C560.972 104.036 539.884 98.1599 528.049 97.0479C526.978 102.787 527.294 111.477 526.965 114.594C526.635 117.71 521.94 175.606 521.047 206.208C520.924 210.244 522.983 259.546 523.876 263.486C526.168 273.59 534.68 274.854 541.517 275.32C548.341 275.787 561.466 275.32 561.466 275.32L560.697 258.667C560.697 258.667 572.532 265.408 582.458 266.039C588.924 266.465 591.958 266.795 598.109 264.749L598.081 264.763Z" fill="#232323" stroke="white" stroke-width="1.37291" stroke-miterlimit="10"/>
<path vector-effect="non-scaling-stroke" d="M625.732 221.256L598.191 219.69C598.466 226.322 598.233 236.577 598.233 242.549C598.233 251.899 596.571 273.042 596.571 273.042C596.571 273.042 595.308 287.032 594.951 291.164H595.404L618.277 292.523C619.787 292.578 621.092 291.466 621.256 289.956L628.478 224.454C628.656 222.793 627.393 221.324 625.732 221.256Z" fill="white" stroke="white" stroke-width="1.37291" stroke-linejoin="round"/>
<path vector-effect="non-scaling-stroke" d="M561.384 259.162C561.384 259.162 561.109 242.906 558.802 218.125L536.314 217.562C534.777 217.508 533.459 218.661 533.321 220.212L527.898 286.181C527.761 287.828 529.024 289.242 530.672 289.297L597.395 291.123C590.531 285.233 561.37 259.175 561.37 259.175L561.384 259.162Z" fill="white" stroke="white" stroke-width="1.37291" stroke-linejoin="round"/>
<path vector-effect="non-scaling-stroke" d="M599.386 291.177C600.292 281.773 603.656 268.799 598.068 264.763C591.917 266.808 588.883 266.602 582.417 266.053C574.715 265.408 566.971 262.127 561.37 259.161C561.576 265.12 561.137 270.611 561.493 276.556C561.947 283.983 562.811 292.056 567.974 297.41C572.216 301.79 579.053 303.451 584.819 301.474C587.84 303.712 592.535 303.273 595.075 300.513C597.574 302.531 601.871 301.515 603.216 298.591C604.548 295.667 602.516 291.754 599.358 291.177H599.386Z" fill="black" stroke="white" stroke-width="1.37291" stroke-miterlimit="10"/>
<path vector-effect="non-scaling-stroke" d="M498.312 77.6473L499.822 96.1404L494.248 99.353L506.193 101.673C506.193 101.673 523.272 99.4628 528.036 97.0602C523.615 94.9734 522.791 92.5708 522.819 92.5434C522.97 92.3512 519.414 68.9156 519.414 68.9156C519.414 68.9156 514.787 61.1724 498.312 77.6473Z" fill="black" stroke="white" stroke-width="1.37291" stroke-miterlimit="10"/>
<path vector-effect="non-scaling-stroke" d="M505.959 102.045L501.634 108.648L503.9 115.307L492.505 211.822L499.095 220.829L506.824 212.564L506.549 115.032L510.778 108.181L506.453 102.031C506.33 101.866 506.083 101.866 505.959 102.031V102.045Z" fill="black" stroke="white" stroke-width="1.37291" stroke-miterlimit="10"/>
<path vector-effect="non-scaling-stroke" d="M527.377 103.088L516.448 114.84C516.366 114.922 516.256 114.977 516.132 114.977C516.009 114.977 515.899 114.922 515.817 114.84L510.778 108.181" fill="black"/>
<path vector-effect="non-scaling-stroke" d="M527.377 103.088L516.448 114.84C516.366 114.922 516.256 114.977 516.132 114.977C516.009 114.977 515.899 114.922 515.817 114.84L510.778 108.181" stroke="white" stroke-width="1.37291" stroke-miterlimit="10"/>
<path vector-effect="non-scaling-stroke" d="M501.635 108.649L497.584 114.8C497.502 114.909 497.365 114.978 497.228 114.978C497.09 114.978 496.953 114.909 496.871 114.8L491.763 107.825" fill="black"/>
<path vector-effect="non-scaling-stroke" d="M501.635 108.649L497.584 114.8C497.502 114.909 497.365 114.978 497.228 114.978C497.09 114.978 496.953 114.909 496.871 114.8L491.763 107.825" stroke="white" stroke-width="1.37291" stroke-miterlimit="10"/>
<path vector-effect="non-scaling-stroke" d="M488.702 60.3894C488.702 60.3894 485.365 57.1768 483.183 49.008C481 40.8529 484.679 34.1806 489.388 34.9906C494.097 35.8006 496.747 38.2032 501.799 37.1735C506.852 36.1438 513.414 34.8807 517.094 37.1735C520.773 39.4663 522.146 42.8024 522.146 42.8024C522.146 42.8024 526.512 41.6492 528.818 46.0151C531.111 50.3809 530.768 71.4139 525.715 76.0132C520.663 80.6124 509.968 80.2692 504.339 75.5601C498.71 70.851 488.702 60.3894 488.702 60.3894Z" fill="white" stroke="white" stroke-width="1.37291" stroke-linejoin="round"/>
<path vector-effect="non-scaling-stroke" d="M488.317 52.9209C488.317 52.9209 487.343 64.3984 489.608 74.9561C491.873 85.5138 501.346 90.2915 508.746 87.6555C518.439 84.1958 521.199 74.7502 522.05 70.9472C522.05 70.9472 525.866 74.0775 528.805 70.2196C532.443 65.4418 530.548 59.9914 527.308 58.3027C524.082 56.6003 520.498 58.5773 519.345 63.1216C519.345 63.1216 516.503 60.4445 510.641 53.0994C500.852 56.0374 488.304 52.9209 488.304 52.9209H488.317Z" fill="black" stroke="white" stroke-width="1.37291" stroke-miterlimit="10"/>
<path vector-effect="non-scaling-stroke" d="M490.377 101.319L477.842 114.98L485.901 118.975L476.195 126.169L478.378 216.054" stroke="white" stroke-width="1.37291" stroke-miterlimit="10"/>
<path vector-effect="non-scaling-stroke" d="M522.791 217.564L542.108 120.774L531.619 116.875L541.518 110.285L532.443 99.5625" stroke="white" stroke-width="1.37291" stroke-miterlimit="10"/>
<path vector-effect="non-scaling-stroke" d="M558.803 218.127L552.57 151.568" stroke="white" stroke-width="1.37291" stroke-miterlimit="10"/>
<path vector-effect="non-scaling-stroke" d="M504.037 419.354C505.959 419.711 510.339 421.016 512.192 421.633C540.557 431.065 571.777 446.772 602.297 471.347" stroke="white" stroke-width="1.37291" stroke-miterlimit="10"/>
<path vector-effect="non-scaling-stroke" d="M200.239 424.395C274.184 451.99 355.392 415.169 435.694 411.022" stroke="white" stroke-width="1.37291" stroke-miterlimit="10"/>
<path vector-effect="non-scaling-stroke" d="M370.069 386.158C353.36 386.158 339.81 399.379 339.81 415.703C339.81 432.027 370.069 468.876 370.069 468.876C370.069 468.876 400.328 432.013 400.328 415.703C400.328 399.393 386.777 386.158 370.069 386.158ZM370.069 430.476C361.708 430.476 354.939 423.858 354.939 415.703C354.939 407.548 361.708 400.931 370.069 400.931C378.43 400.931 385.198 407.548 385.198 415.703C385.198 423.858 378.43 430.476 370.069 430.476Z" fill="#A100FF" stroke="white" stroke-width="1.37291" stroke-miterlimit="10"/>
<path vector-effect="non-scaling-stroke" d="M385.088 417.063L400.849 414.578" stroke="white" stroke-width="1.37291" stroke-miterlimit="10"/>
<path vector-effect="non-scaling-stroke" d="M786.541 133.859H674.072C673.784 133.859 673.537 133.585 673.537 133.255V41.4625C673.537 41.133 673.77 40.8584 674.072 40.8584H786.541C786.829 40.8584 787.077 41.133 787.077 41.4625V133.255C787.077 133.585 786.843 133.859 786.541 133.859Z" fill="#020202" stroke="white" stroke-width="1.37291" stroke-miterlimit="10"/>
<path vector-effect="non-scaling-stroke" d="M725.831 103.489H714.147V119.195H725.831V103.489Z" fill="#A2A2A0" stroke="white" stroke-width="1.37291" stroke-miterlimit="10"/>
<path vector-effect="non-scaling-stroke" d="M746.48 91.8604H734.796V119.195H746.48V91.8604Z" fill="#020202" stroke="white" stroke-width="1.37291" stroke-linejoin="round"/>
<path vector-effect="non-scaling-stroke" d="M767.128 78.8594H755.445V119.196H767.128V78.8594Z" fill="#A100FF" stroke="white" stroke-width="1.37291" stroke-miterlimit="10"/>
<path vector-effect="non-scaling-stroke" d="M768.515 59.2826C768.446 58.9668 768.144 58.7746 767.869 58.857C761.266 60.8065 757.545 65.3371 753.619 70.1423C752.424 71.5976 751.202 73.0941 749.857 74.5631C748.964 75.5378 747.523 76.7735 745.752 77.0618C744.242 77.3089 742.731 76.8696 741.125 76.4028C740.631 76.2518 740.15 76.1145 739.656 75.9909C736.704 75.2495 733.959 76.0046 731.693 78.1876C729.991 79.8213 728.961 82.0317 727.973 84.1735C727.231 85.766 726.462 87.4135 725.447 88.7452C723.209 91.6558 720.902 90.9419 717.978 90.0221C717.209 89.7887 716.426 89.5415 715.603 89.3493C712.994 88.7727 710.001 89.6788 707.379 91.848C705.58 93.3308 704.084 95.2117 702.656 97.0239C699.869 100.539 697.233 103.861 692.579 104.136C692.291 104.149 692.057 104.438 692.071 104.767C692.085 105.083 692.318 105.33 692.606 105.33C692.606 105.33 692.62 105.33 692.634 105.33C697.727 105.042 700.638 101.376 703.452 97.8202C704.853 96.0491 706.294 94.2369 708.011 92.8091C710.399 90.8458 713.09 90.0083 715.411 90.53C716.179 90.7085 716.962 90.9419 717.703 91.1753C720.6 92.0814 723.579 93.015 726.257 89.5141C727.355 88.0725 728.151 86.3701 728.92 84.7226C729.908 82.5946 730.856 80.5764 732.393 79.0937C734.384 77.1716 736.828 76.4989 739.423 77.1579C739.903 77.2814 740.37 77.4187 740.851 77.556C742.484 78.0365 744.173 78.5308 745.903 78.2425C747.523 77.9679 749.143 76.9931 750.585 75.4143C751.944 73.9178 753.179 72.4076 754.387 70.9386C758.383 66.0648 761.829 61.8636 768.13 59.9965C768.419 59.9141 768.583 59.5846 768.515 59.2688V59.2826Z" stroke="white" stroke-width="1.37291" stroke-miterlimit="10"/>
<path vector-effect="non-scaling-stroke" d="M787.804 226.133H673.454V262.282H787.804V226.133Z" fill="#020202" stroke="white" stroke-width="1.37291" stroke-miterlimit="10"/>
<path vector-effect="non-scaling-stroke" d="M787.804 189.983H673.454V226.132H787.804V189.983Z" fill="#232323" stroke="white" stroke-width="1.37291" stroke-miterlimit="10"/>
<path vector-effect="non-scaling-stroke" d="M787.804 158.613H673.454V194.762H787.804V158.613Z" fill="#050505" stroke="white" stroke-width="1.37291" stroke-miterlimit="10"/>
<path vector-effect="non-scaling-stroke" d="M768.803 180.731C770.615 180.731 772.098 178.919 772.098 176.681C772.098 174.443 770.628 172.631 768.803 172.631C766.977 172.631 765.508 174.443 765.508 176.681C765.508 178.919 766.977 180.731 768.803 180.731Z" fill="#020202" stroke="white" stroke-width="1.37291" stroke-miterlimit="10"/>
<path vector-effect="non-scaling-stroke" d="M768.803 214.49C770.615 214.49 772.098 212.678 772.098 210.44C772.098 208.202 770.628 206.39 768.803 206.39C766.977 206.39 765.508 208.202 765.508 210.44C765.508 212.678 766.977 214.49 768.803 214.49Z" fill="#020202" stroke="white" stroke-width="1.37291" stroke-miterlimit="10"/>
<path vector-effect="non-scaling-stroke" d="M768.803 248.251C770.615 248.251 772.098 246.438 772.098 244.2C772.098 241.963 770.628 240.15 768.803 240.15C766.977 240.15 765.508 241.963 765.508 244.2C765.508 246.438 766.977 248.251 768.803 248.251Z" fill="#020202" stroke="white" stroke-width="1.37291" stroke-miterlimit="10"/>
<path vector-effect="non-scaling-stroke" d="M688.955 176.681H749.871" stroke="white" stroke-width="1.37291" stroke-miterlimit="10"/>
<path vector-effect="non-scaling-stroke" d="M688.955 210.44H749.871" stroke="white" stroke-width="1.37291" stroke-miterlimit="10"/>
<path vector-effect="non-scaling-stroke" d="M688.955 244.228H749.871" stroke="white" stroke-width="1.37291" stroke-miterlimit="10"/>
<path vector-effect="non-scaling-stroke" d="M50.7977 261.334C41.4756 261.334 33.8697 258.368 27.9937 252.424C22.1176 246.479 19.1796 238.983 19.1796 229.908C19.1796 220.833 22.1176 213.076 27.9937 207.008C33.8697 200.939 41.4756 197.905 50.7977 197.905C60.1198 197.905 67.9454 200.939 73.8901 207.008C79.8348 213.076 82.8003 220.709 82.8003 229.908C82.8003 239.106 79.8348 246.479 73.8901 252.424C67.9454 258.368 60.2571 261.334 50.7977 261.334ZM50.7977 248.689C55.7814 248.689 59.8589 246.932 63.0578 243.417C66.2567 239.903 67.8493 235.399 67.8493 229.908C67.8493 224.416 66.2567 219.529 63.0578 216.014C59.8589 212.499 55.7814 210.742 50.7977 210.742C45.814 210.742 41.764 212.499 38.6337 216.014C35.5035 219.529 33.9384 224.155 33.9384 229.908C33.9384 235.66 35.5309 239.903 38.7298 243.417C41.9287 246.932 45.9513 248.689 50.7977 248.689ZM55.0537 329.938H36.6018L120.157 199.827H138.801L55.0537 329.938ZM148.288 321.028C142.343 326.973 134.71 329.938 125.388 329.938C116.066 329.938 108.46 326.973 102.584 321.028C96.7079 315.083 93.7699 307.587 93.7699 298.512C93.7699 289.437 96.7079 281.68 102.584 275.612C108.46 269.544 116.066 266.51 125.388 266.51C134.71 266.51 142.343 269.571 148.288 275.708C154.233 281.831 157.198 289.437 157.198 298.512C157.198 307.587 154.233 315.083 148.288 321.028ZM113.224 312.022C116.354 315.536 120.404 317.294 125.388 317.294C130.372 317.294 134.463 315.536 137.648 312.022C140.833 308.507 142.44 304.004 142.44 298.512C142.44 293.021 140.847 288.133 137.648 284.618C134.449 281.104 130.372 279.346 125.388 279.346C120.404 279.346 116.354 281.104 113.224 284.618C110.094 288.133 108.529 292.76 108.529 298.512C108.529 304.265 110.094 308.507 113.224 312.022Z" fill="#A100FF" stroke="white" stroke-width="1.37291" stroke-miterlimit="10"/>
<path vector-effect="non-scaling-stroke" d="M139.694 371.689H160.878C167.468 371.689 172.822 377.044 172.822 383.634V453.172C172.822 459.762 167.468 465.116 160.878 465.116H139.694V371.689Z" fill="black"/>
<path vector-effect="non-scaling-stroke" d="M333.714 475.673L332.932 473.613L310.43 488.001H346.235L343.16 486.368C338.821 484.061 335.458 480.258 333.714 475.673Z" fill="#414040"/>
<path vector-effect="non-scaling-stroke" d="M332.396 426.084H266.949V488.016H332.396V426.084Z" fill="#414040"/>
<path vector-effect="non-scaling-stroke" d="M299.638 460.228C317.699 460.228 332.341 445.586 332.341 427.525C332.341 409.464 317.699 394.822 299.638 394.822C281.577 394.822 266.935 409.464 266.935 427.525C266.935 445.586 281.577 460.228 299.638 460.228Z" fill="#414040"/>
<path vector-effect="non-scaling-stroke" d="M252.712 494.152H228.878V512.632H252.712V494.152Z" fill="#414040"/>
<path vector-effect="non-scaling-stroke" d="M237.129 444.055H192.002V512.632H237.129V444.055Z" fill="#414040"/>
<path vector-effect="non-scaling-stroke" d="M214.573 463.633C227.031 463.633 237.13 453.534 237.13 441.076C237.13 428.619 227.031 418.52 214.573 418.52C202.115 418.52 192.016 428.619 192.016 441.076C192.016 453.534 202.115 463.633 214.573 463.633Z" fill="#414040"/>
<path vector-effect="non-scaling-stroke" d="M139.694 371.689H47.1046V465.349H139.694V371.689Z" fill="#202020"/>
<path vector-effect="non-scaling-stroke" d="M139.694 532.609H73.3135C58.843 532.609 47.1046 520.87 47.1046 506.4V465.116H139.694V506.647C139.694 520.98 151.322 532.609 165.656 532.595H166.589H139.694V532.609Z" fill="#414040"/>
<path vector-effect="non-scaling-stroke" d="M60.0928 343.283C52.9262 343.283 47.1188 349.091 47.1188 356.257V371.689H139.708V343.283H60.1065H60.0928Z" fill="#414040"/>
<path vector-effect="non-scaling-stroke" d="M252.039 512.632C260.274 512.632 266.949 505.957 266.949 497.722C266.949 489.488 260.274 482.812 252.039 482.812C243.805 482.812 237.129 489.488 237.129 497.722C237.129 505.957 243.805 512.632 252.039 512.632Z" fill="black"/>
<path vector-effect="non-scaling-stroke" d="M299.556 394.672H211.95C197.974 394.672 183.462 404.694 180.469 418.286L214.682 418.355C227.093 418.382 237.129 428.446 237.129 440.843V497.709H266.949V426.496C266.949 408.923 281.2 394.658 298.773 394.658H299.556V394.672Z" fill="black"/>
<path vector-effect="non-scaling-stroke" d="M160.439 371.689H33.4167C26.676 371.689 21.2115 377.154 21.2115 383.895V452.911C21.2115 459.652 26.676 465.116 33.4167 465.116H160.439C167.179 465.116 172.644 459.652 172.644 452.911V383.895C172.644 377.154 167.179 371.689 160.439 371.689Z" fill="#020202" stroke="white" stroke-width="1.37291" stroke-miterlimit="10"/>
<path vector-effect="non-scaling-stroke" d="M60.1748 343.283H139.694" stroke="white" stroke-width="1.37291" stroke-miterlimit="10"/>
<path vector-effect="non-scaling-stroke" d="M73.2723 532.608H165.848" stroke="white" stroke-width="1.37291" stroke-miterlimit="10"/>
<path vector-effect="non-scaling-stroke" d="M211.951 394.686H299.68" stroke="white" stroke-width="1.37291" stroke-miterlimit="10"/>
<path vector-effect="non-scaling-stroke" d="M172.644 418.45H214.572" stroke="white" stroke-width="1.37291" stroke-miterlimit="10"/>
<path vector-effect="non-scaling-stroke" d="M266.949 497.722C266.949 505.959 260.277 512.632 252.039 512.632C243.802 512.632 237.129 505.959 237.129 497.722" stroke="white" stroke-width="1.37291" stroke-miterlimit="10"/>
<path vector-effect="non-scaling-stroke" d="M266.949 427.388C266.949 409.334 281.584 394.686 299.652 394.686C317.719 394.686 332.355 409.321 332.355 427.388" stroke="white" stroke-width="1.37291" stroke-miterlimit="10"/>
<path vector-effect="non-scaling-stroke" d="M211.95 394.686C197.027 394.686 184.423 404.68 180.497 418.341L180.469 418.451" stroke="white" stroke-width="1.37291" stroke-miterlimit="10"/>
<path vector-effect="non-scaling-stroke" d="M370.069 469.18C370.069 479.586 361.639 488.016 351.232 488.016C340.826 488.016 332.396 479.586 332.396 469.18" stroke="white" stroke-width="1.37291" stroke-miterlimit="10"/>
<path vector-effect="non-scaling-stroke" d="M192.002 441.021C192.002 428.555 202.106 418.464 214.559 418.464C227.011 418.464 237.116 428.569 237.116 441.021" stroke="white" stroke-width="1.37291" stroke-miterlimit="10"/>
<path vector-effect="non-scaling-stroke" d="M192.002 506.454C192.002 520.897 180.291 532.608 165.848 532.608C151.405 532.608 139.694 520.897 139.694 506.454" stroke="white" stroke-width="1.37291" stroke-miterlimit="10"/>
<path vector-effect="non-scaling-stroke" d="M73.2727 532.608C58.8297 532.608 47.1188 520.897 47.1188 506.454" stroke="white" stroke-width="1.37291" stroke-miterlimit="10"/>
<path vector-effect="non-scaling-stroke" d="M47.1046 356.34C47.1046 349.132 52.9532 343.283 60.161 343.283" stroke="white" stroke-width="1.37291" stroke-miterlimit="10"/>
<path vector-effect="non-scaling-stroke" d="M47.1046 356.34V506.454" stroke="white" stroke-width="1.37291" stroke-miterlimit="10"/>
<path vector-effect="non-scaling-stroke" d="M139.694 343.283V506.454" stroke="white" stroke-width="1.37291" stroke-miterlimit="10"/>
<path vector-effect="non-scaling-stroke" d="M266.949 497.723V427.389" stroke="white" stroke-width="1.37291" stroke-miterlimit="10"/>
<path vector-effect="non-scaling-stroke" d="M332.409 427.524V469.179" stroke="white" stroke-width="1.37291" stroke-miterlimit="10"/>
<path vector-effect="non-scaling-stroke" d="M192.002 506.453V441.021" stroke="white" stroke-width="1.37291" stroke-miterlimit="10"/>
<path vector-effect="non-scaling-stroke" d="M237.129 441.021V497.722" stroke="white" stroke-width="1.37291" stroke-miterlimit="10"/>
<path vector-effect="non-scaling-stroke" d="M351.232 488.002H266.949" stroke="white" stroke-width="1.37291" stroke-miterlimit="10"/>
<path vector-effect="non-scaling-stroke" d="M252.039 512.632H192.002" stroke="white" stroke-width="1.37291" stroke-miterlimit="10"/>
<path vector-effect="non-scaling-stroke" d="M21.2115 403.114H12.5485V433.703H21.2115V403.114Z" stroke="white" stroke-width="1.37291" stroke-miterlimit="10"/>
<path vector-effect="non-scaling-stroke" d="M38.0297 407.398H33.1833V429.406H38.0297V407.398Z" stroke="white" stroke-width="1.37291" stroke-miterlimit="10"/>
<path vector-effect="non-scaling-stroke" d="M153.986 423.942C157.042 423.942 159.519 421.465 159.519 418.409C159.519 415.353 157.042 412.876 153.986 412.876C150.931 412.876 148.453 415.353 148.453 418.409C148.453 421.465 150.931 423.942 153.986 423.942Z" stroke="white" stroke-width="1.37291" stroke-miterlimit="10"/>
<path vector-effect="non-scaling-stroke" d="M110.863 359.018H128.408" stroke="white" stroke-width="1.37291" stroke-miterlimit="10"/>
<path vector-effect="non-scaling-stroke" d="M62.7284 359.018H98.3555" stroke="white" stroke-width="1.37291" stroke-miterlimit="10"/>
<path vector-effect="non-scaling-stroke" d="M117.123 477.787H128.409" stroke="white" stroke-width="1.37291" stroke-miterlimit="10"/>
<path vector-effect="non-scaling-stroke" d="M62.7284 477.787H98.3555" stroke="white" stroke-width="1.37291" stroke-miterlimit="10"/>
<path vector-effect="non-scaling-stroke" d="M87.9354 490.46H128.409" stroke="white" stroke-width="1.37291" stroke-miterlimit="10"/>
<path vector-effect="non-scaling-stroke" d="M62.7284 490.46H70.6226" stroke="white" stroke-width="1.37291" stroke-miterlimit="10"/>
<path vector-effect="non-scaling-stroke" d="M121.284 503.131H128.409" stroke="white" stroke-width="1.37291" stroke-miterlimit="10"/>
<path vector-effect="non-scaling-stroke" d="M95.5688 503.131H104.397" stroke="white" stroke-width="1.37291" stroke-miterlimit="10"/>
<path vector-effect="non-scaling-stroke" d="M62.7284 503.131H81.8805" stroke="white" stroke-width="1.37291" stroke-miterlimit="10"/>
<path vector-effect="non-scaling-stroke" d="M115.036 515.79H128.408" stroke="white" stroke-width="1.37291" stroke-miterlimit="10"/>
<path vector-effect="non-scaling-stroke" d="M70.6227 515.79H95.5685" stroke="white" stroke-width="1.37291" stroke-miterlimit="10"/>
<path vector-effect="non-scaling-stroke" d="M93.6189 446.513C109.14 446.513 121.722 433.93 121.722 418.409C121.722 402.888 109.14 390.306 93.6189 390.306C78.0977 390.306 65.5154 402.888 65.5154 418.409C65.5154 433.93 78.0977 446.513 93.6189 446.513Z" fill="#A100FF" stroke="white" stroke-width="1.37291" stroke-miterlimit="10"/>
<path vector-effect="non-scaling-stroke" d="M93.4404 431.865V437.275" stroke="white" stroke-width="1.37291" stroke-miterlimit="10"/>
<path vector-effect="non-scaling-stroke" d="M93.4404 399.985V405.395" stroke="white" stroke-width="1.37291" stroke-miterlimit="10"/>
<path vector-effect="non-scaling-stroke" d="M102.035 411.765C101.87 408.127 98.2181 405.381 93.3717 405.381C89.5276 405.381 85.3676 407.825 85.3676 411.765C85.3676 415.376 89.102 418.547 93.3717 418.547C98.3142 418.547 102.035 421.499 102.035 425.412C102.035 428.267 99.4537 430.807 95.7468 431.59C95.0192 431.741 94.2641 431.851 93.509 431.851C92.7539 431.851 91.9576 431.754 91.2025 431.59C87.6741 430.793 85.2029 428.254 85.2029 425.412" stroke="white" stroke-width="1.37291" stroke-miterlimit="10"/>
</g>
</g>
<defs>
<clipPath id="clip0_21_14921">
<rect width="802" height="535" fill="white"/>
</clipPath>
<clipPath id="clip1_21_14921">
<rect width="802" height="533.294" fill="white"/>
</clipPath>
</defs>
</svg>
