<svg width="802" height="535" viewBox="0 0 802 535" fill="none" xmlns="http://www.w3.org/2000/svg">
<g clip-path="url(#clip0_20_14629)">
<path vector-effect="non-scaling-stroke" d="M667.146 451.01C714.483 451.01 752.857 412.635 752.857 365.298C752.857 317.961 714.483 279.587 667.146 279.587C619.808 279.587 581.434 317.961 581.434 365.298C581.434 412.635 619.808 451.01 667.146 451.01Z" fill="#202020"/>
<path vector-effect="non-scaling-stroke" d="M623.437 394.92L629.49 387.711C629.999 387.092 630.963 387.147 631.389 387.807C632.146 389.031 632.228 391.673 627.262 397.121" fill="#A0A09E"/>
<path vector-effect="non-scaling-stroke" d="M623.437 394.92L629.49 387.711C629.999 387.092 630.963 387.147 631.389 387.807C632.146 389.031 632.228 391.673 627.262 397.121" stroke="white" stroke-width="1.37578" stroke-linejoin="round"/>
<path vector-effect="non-scaling-stroke" d="M625.639 399.143L631.692 391.934C632.201 391.315 633.164 391.37 633.591 392.031C634.347 393.255 634.43 395.897 629.463 401.345" fill="#A0A09E"/>
<path vector-effect="non-scaling-stroke" d="M625.639 399.143L631.692 391.934C632.201 391.315 633.164 391.37 633.591 392.031C634.347 393.255 634.43 395.897 629.463 401.345" stroke="white" stroke-width="1.37578" stroke-linejoin="round"/>
<path vector-effect="non-scaling-stroke" d="M631.733 400.699C627.964 397.7 617.879 394.205 615.582 393.572C615.086 393.435 614.798 392.898 615.004 392.417C615.651 390.862 618.361 388.427 629.697 393.82L631.72 400.699H631.733Z" fill="#A0A09E" stroke="white" stroke-width="1.37578" stroke-linejoin="round"/>
<path vector-effect="non-scaling-stroke" d="M625.019 391.839C617.576 389.17 615.554 391.109 615.017 392.43C614.825 392.898 615.1 393.435 615.595 393.572C616.93 393.944 620.92 395.292 624.758 396.943C621.717 397.094 618.443 397.328 615.581 398.456C614.839 398.745 614.068 399.062 613.834 399.887C613.71 400.313 613.683 400.712 614.013 401.056C614.247 401.304 614.632 401.483 614.976 401.455C616.847 401.304 621.374 401.51 623.272 401.717C625.184 401.923 627.152 402.198 628.995 402.556C631.472 403.051 633.838 403.712 636.37 404.056C639.768 404.523 643.152 404.977 646.564 405.294C649.357 405.555 651.93 405.789 655.493 405.775C655.631 405.266 655.039 394.177 655.245 392.815C650.65 392.004 648.449 391.398 644.583 388.812C642.726 387.56 635.393 383.749 634.829 385.483C633.742 388.812 640.002 389.582 639.782 392.664C639.616 394.879 636.851 394.934 635.214 394.59L625.019 391.839Z" fill="#A0A09E" stroke="white" stroke-width="1.37578" stroke-linejoin="round"/>
<path vector-effect="non-scaling-stroke" d="M629.986 399.515C628.473 398.621 626.588 397.713 624.662 396.888Z" fill="#A0A09E"/>
<path vector-effect="non-scaling-stroke" d="M629.986 399.515C628.473 398.621 626.588 397.713 624.662 396.888" stroke="white" stroke-width="1.37578" stroke-linejoin="round"/>
<path vector-effect="non-scaling-stroke" d="M743.529 388.288L730.831 407.893L731.23 408.154L743.928 388.549L743.515 388.288H743.529Z" fill="white" stroke="white" stroke-width="1.37578" stroke-linejoin="round"/>
<path vector-effect="non-scaling-stroke" d="M673.681 400.12L663.17 394.328L653.979 411.003L664.49 416.795L673.681 400.12Z" fill="black"/>
<path vector-effect="non-scaling-stroke" d="M673.681 400.12L663.17 394.328L653.979 411.003L664.49 416.795L673.681 400.12Z" stroke="white" stroke-width="1.37578" stroke-miterlimit="10"/>
<path vector-effect="non-scaling-stroke" d="M663.307 391.027L658.231 388.234C657.515 387.835 656.621 388.096 656.222 388.812C655.823 389.527 656.084 390.421 656.8 390.82L661.877 393.613C662.592 394.012 663.486 393.751 663.885 393.035C664.284 392.32 664.023 391.426 663.307 391.027Z" fill="black"/>
<path vector-effect="non-scaling-stroke" d="M663.307 391.027L658.231 388.234C657.515 387.835 656.621 388.096 656.222 388.812C655.823 389.527 656.084 390.421 656.8 390.82L661.877 393.613C662.592 394.012 663.486 393.751 663.885 393.035C664.284 392.32 664.023 391.426 663.307 391.027Z" stroke="white" stroke-width="1.37578" stroke-miterlimit="10"/>
<path vector-effect="non-scaling-stroke" d="M663.17 394.327L655.507 390.104L646.316 406.778L653.98 411.002L663.17 394.327Z" fill="black"/>
<path vector-effect="non-scaling-stroke" d="M655.506 390.104L663.17 394.327L660.143 399.817C658.973 401.935 656.318 402.706 654.199 401.536C652.081 400.367 651.31 397.712 652.48 395.593L655.506 390.104Z" fill="black"/>
<path vector-effect="non-scaling-stroke" d="M663.17 394.327L655.507 390.104L646.316 406.778L653.98 411.002L663.17 394.327Z" stroke="white" stroke-width="1.37578" stroke-miterlimit="10"/>
<path vector-effect="non-scaling-stroke" d="M655.506 390.104L663.17 394.327L660.143 399.817C658.973 401.935 656.318 402.706 654.199 401.536C652.081 400.367 651.31 397.712 652.48 395.593L655.506 390.104Z" stroke="white" stroke-width="1.37578" stroke-miterlimit="10"/>
<path vector-effect="non-scaling-stroke" d="M655.974 398.317C655.726 398.18 655.424 398.276 655.3 398.51C655.176 398.744 655.259 399.06 655.493 399.184C655.726 399.308 656.043 399.225 656.167 398.991C656.291 398.758 656.208 398.441 655.974 398.317Z" fill="white" stroke="white" stroke-width="1.37578" stroke-linejoin="round"/>
<path vector-effect="non-scaling-stroke" d="M653.195 403.38C652.948 403.242 652.645 403.339 652.521 403.572C652.397 403.806 652.48 404.123 652.714 404.247C652.948 404.37 653.264 404.288 653.388 404.054C653.512 403.82 653.429 403.504 653.195 403.38Z" fill="white" stroke="white" stroke-width="1.37578" stroke-linejoin="round"/>
<path vector-effect="non-scaling-stroke" d="M752.857 371.957C745.318 361.405 735.701 351.664 733.101 346.326C727.24 334.315 729.758 323.804 723.182 320.915C716.716 318.081 711.364 322.126 707.484 324.795C703.494 327.533 696.478 334.838 700.234 343.863V343.96C699.848 345.542 699.367 347.743 699.119 349.82C698.968 351.114 700.44 351.953 701.486 351.182L701.885 350.88C702.916 356.631 703.425 361.473 707.484 363.014C713.276 365.215 720.526 355.048 720.526 355.048L724.874 364.968C724.874 364.968 721.971 367.389 714.707 379.001C707.456 390.613 695.597 409.97 695.597 409.97L680.161 396.542C676.281 394.396 671.383 395.827 669.237 399.706L660.9 414.84L690.108 433.647C693.533 435.848 697.73 436.646 701.664 435.614C708.956 433.702 716.674 429.19 720.334 423.796L731.037 408.03C731.037 408.03 725.232 418.761 726.222 427.374" fill="#020202"/>
<path vector-effect="non-scaling-stroke" d="M752.857 371.957C745.318 361.405 735.701 351.664 733.101 346.326C727.24 334.315 729.758 323.804 723.182 320.915C716.716 318.081 711.364 322.126 707.484 324.795C703.494 327.533 696.478 334.838 700.234 343.863V343.96C699.848 345.542 699.367 347.743 699.119 349.82C698.968 351.114 700.44 351.953 701.486 351.182L701.885 350.88C702.916 356.631 703.425 361.473 707.484 363.014C713.276 365.215 720.526 355.048 720.526 355.048L724.874 364.968C724.874 364.968 721.971 367.389 714.707 379.001C707.456 390.613 695.597 409.97 695.597 409.97L680.161 396.542C676.281 394.396 671.383 395.827 669.237 399.706L660.9 414.84L690.108 433.647C693.533 435.848 697.73 436.646 701.664 435.614C708.956 433.702 716.674 429.19 720.334 423.796L731.037 408.03C731.037 408.03 725.232 418.761 726.222 427.374" stroke="white" stroke-width="1.37578"/>
<path vector-effect="non-scaling-stroke" d="M701.471 351.155L701.87 350.852C702.888 356.603 703.411 361.446 707.47 362.987C713.262 365.188 720.512 355.021 720.512 355.021L723.952 362.877L738.659 354.196C736.114 351.059 734.077 348.362 733.087 346.312C727.226 334.302 729.744 323.791 723.167 320.902C716.701 318.067 711.349 322.112 707.47 324.781C703.59 327.45 696.807 334.467 699.958 343.176C700.054 343.437 700.137 343.698 700.233 343.946C699.834 345.528 699.353 347.716 699.119 349.793C698.967 351.086 700.439 351.926 701.485 351.155H701.471Z" fill="#A0A09E" stroke="white" stroke-width="1.37578" stroke-linejoin="round"/>
<path vector-effect="non-scaling-stroke" d="M707.126 349.037C707.126 349.037 707.098 353.164 702.476 354.21L702.366 353.742" stroke="white" stroke-width="1.37578" stroke-linecap="round" stroke-linejoin="round"/>
<path vector-effect="non-scaling-stroke" d="M731.477 341.813C730.239 338.278 729.579 334.948 729.001 332.004C727.941 326.625 727.102 322.36 723.264 320.668C716.976 317.902 711.721 321.534 707.869 324.19L707.318 324.561C706.053 325.428 701.788 328.633 699.834 333.738L699.738 333.999L700.013 334.054C700.013 334.054 704.801 335.031 710.51 332.596C711.432 333.958 717.788 342.9 726.717 342.9C728.189 342.9 729.73 342.653 731.326 342.102L731.56 342.02L731.477 341.786V341.813Z" fill="white" stroke="white" stroke-width="1.37578" stroke-linejoin="round"/>
<path vector-effect="non-scaling-stroke" d="M724.887 364.954C729 360.937 735.687 356.521 739.814 355.599L735.577 350.233C735.577 350.233 726.73 354.031 722.232 358.942C720.636 360.689 720.25 362.23 720.443 363.482C720.746 365.615 723.36 366.454 724.887 364.954Z" fill="black"/>
<path vector-effect="non-scaling-stroke" d="M724.887 364.954C729 360.937 735.687 356.521 739.814 355.599L735.577 350.233C735.577 350.233 726.73 354.031 722.232 358.942C720.636 360.689 720.25 362.23 720.443 363.482C720.746 365.615 723.36 366.454 724.887 364.954Z" stroke="white" stroke-width="1.37578" stroke-miterlimit="10"/>
<path vector-effect="non-scaling-stroke" d="M703.559 333.104L696.087 335.865C693.864 336.686 692.727 339.155 693.549 341.379L694.226 343.211C695.048 345.435 697.516 346.572 699.74 345.75L707.212 342.989C709.436 342.167 710.572 339.699 709.751 337.475L709.074 335.642C708.252 333.419 705.783 332.282 703.559 333.104Z" fill="#931CF5"/>
<path vector-effect="non-scaling-stroke" d="M701.623 333.876C703.342 333.243 705.268 334.124 705.901 335.843L707.236 339.475C707.869 341.195 706.988 343.121 705.268 343.754" fill="#931CF5"/>
<path vector-effect="non-scaling-stroke" d="M717.656 330.666L708.48 334.057L709.925 337.967L719.101 334.576L717.656 330.666Z" fill="#931CF5"/>
<path vector-effect="non-scaling-stroke" d="M703.559 333.104L696.087 335.865C693.864 336.686 692.727 339.155 693.549 341.379L694.226 343.211C695.048 345.435 697.516 346.572 699.74 345.75L707.212 342.989C709.436 342.167 710.572 339.699 709.751 337.475L709.074 335.642C708.252 333.419 705.783 332.282 703.559 333.104Z" stroke="white" stroke-width="1.37578" stroke-linejoin="round"/>
<path vector-effect="non-scaling-stroke" d="M701.623 333.876C703.342 333.243 705.268 334.124 705.901 335.843L707.236 339.475C707.869 341.195 706.988 343.121 705.268 343.754" stroke="white" stroke-width="1.37578" stroke-linejoin="round"/>
<path vector-effect="non-scaling-stroke" d="M717.656 330.666L708.48 334.057L709.925 337.967L719.101 334.576L717.656 330.666Z" stroke="white" stroke-width="1.37578" stroke-linejoin="round"/>
<path vector-effect="non-scaling-stroke" d="M713.716 337.233C713.716 337.233 715.931 333.105 719.027 334.619C722.948 336.531 720.609 341.443 719.027 342.309L713.097 338.306L713.716 337.246V337.233Z" fill="#A0A09E"/>
<path vector-effect="non-scaling-stroke" d="M713.716 337.232C713.716 337.232 715.931 333.118 719.026 334.618C722.947 336.53 720.608 341.442 719.026 342.309" stroke="white" stroke-width="1.37578" stroke-linecap="round" stroke-linejoin="round"/>
<path vector-effect="non-scaling-stroke" d="M235.438 179.747C235.438 179.747 232.219 183.475 233.402 194.193" stroke="white" stroke-width="1.37578" stroke-miterlimit="10"/>
<path vector-effect="non-scaling-stroke" d="M359.452 55.9949L353.866 69.6014C352.655 72.5318 349.312 73.9351 346.368 72.7382C343.437 71.5275 342.034 68.1843 343.231 65.2402L348.033 53.5322" stroke="white" stroke-width="1.37578" stroke-miterlimit="10"/>
<path vector-effect="non-scaling-stroke" d="M352.848 41.8381L368.284 4.25163C369.495 1.32121 372.838 -0.0820907 375.782 1.11484C378.712 2.32553 380.116 5.66869 378.919 8.61287L374.434 19.5228" stroke="white" stroke-width="1.37578" stroke-miterlimit="10"/>
<path vector-effect="non-scaling-stroke" d="M370.912 65.9149L367.995 64.9381C359.933 62.2416 356.081 50.5749 358.929 42.9943L364.638 27.8194C366.688 22.3851 372.136 19.0006 377.915 19.5922C385.591 20.3764 390.517 28.1358 391.824 35.1386C393.076 41.7974 390.792 48.3736 389.141 54.7435C386.045 66.6853 381.698 78.1044 373.457 87.4872L370.733 90.5965L365.808 95.1503L323.75 90.5965C323.75 86.5517 323.612 82.4656 323.695 78.4346C323.791 73.5505 325.772 68.2537 327.203 63.5761C328.496 59.3249 329.941 55.1287 331.399 50.9464C332.624 47.4244 333.628 43.9161 336.916 41.6736C340.067 39.5273 344.538 36.5969 348.473 38.014C351.527 39.1146 353.439 42.1276 353.137 45.3607L352.944 47.3556C352.669 50.231 350.674 52.6661 347.909 53.4916L341.043 55.5415" stroke="white" stroke-width="1.37578" stroke-miterlimit="10"/>
<path vector-effect="non-scaling-stroke" d="M231.324 211.748C275.845 188.194 305.135 146.136 318.549 84.7764L373.443 93.719C360.634 172.194 325.387 234.943 248.301 268.361" fill="#202020"/>
<path vector-effect="non-scaling-stroke" d="M231.324 211.748C275.845 188.194 305.135 146.136 318.549 84.7764L373.443 93.719C360.634 172.194 325.387 234.943 248.301 268.361" stroke="white" stroke-width="1.37578" stroke-miterlimit="10"/>
<path vector-effect="non-scaling-stroke" d="M334.068 113.489C334.068 109.637 341.057 96.9521 341.057 96.9521C341.057 96.9521 348.046 109.637 348.046 113.489C348.046 117.341 344.923 120.478 341.057 120.478C337.191 120.478 334.068 117.355 334.068 113.489Z" fill="#AF00FF" stroke="white" stroke-width="1.37578" stroke-miterlimit="10"/>
<path vector-effect="non-scaling-stroke" d="M172.922 187.63C172.922 187.63 195.059 194.179 206.794 193.945C217.209 193.725 233.154 192.349 233.223 191.303C239.648 237.034 276.216 278.872 292.643 338.774H95.7407C95.7407 338.774 101.354 288.434 118.881 257.932C142.82 216.274 167.791 204.263 172.922 187.63Z" fill="#202020"/>
<path vector-effect="non-scaling-stroke" d="M409.516 135.68C416.795 135.68 422.696 129.779 422.696 122.5C422.696 115.221 416.795 109.32 409.516 109.32C402.237 109.32 396.336 115.221 396.336 122.5C396.336 129.779 402.237 135.68 409.516 135.68Z" stroke="white" stroke-width="1.37578" stroke-miterlimit="10"/>
<path vector-effect="non-scaling-stroke" d="M423.082 486.479H397.96V503.222H423.082V486.479Z" fill="#AF00FF" stroke="white" stroke-width="1.37578" stroke-miterlimit="10"/>
<path vector-effect="non-scaling-stroke" d="M489.339 473.917H464.217V503.221H489.339V473.917Z" fill="#AF00FF" stroke="white" stroke-width="1.37578" stroke-miterlimit="10"/>
<path vector-effect="non-scaling-stroke" d="M555.597 473.917H530.475V503.221H555.597V473.917Z" fill="#AF00FF" stroke="white" stroke-width="1.37578" stroke-miterlimit="10"/>
<path vector-effect="non-scaling-stroke" d="M621.855 473.917H596.733V503.221H621.855V473.917Z" fill="#AF00FF" stroke="white" stroke-width="1.37578" stroke-miterlimit="10"/>
<path vector-effect="non-scaling-stroke" d="M405.912 456.995C405.912 453.899 411.511 443.746 411.511 443.746C411.511 443.746 417.11 453.913 417.11 456.995C417.11 460.077 414.607 462.594 411.511 462.594C408.416 462.594 405.912 460.09 405.912 456.995Z" fill="#AF00FF" stroke="white" stroke-width="1.37578" stroke-miterlimit="10"/>
<path vector-effect="non-scaling-stroke" d="M793.842 4.71875H484.262C480.137 4.71875 476.792 8.06341 476.792 12.1893V29.4554C476.792 33.5812 480.137 36.9259 484.262 36.9259H793.842C797.967 36.9259 801.312 33.5812 801.312 29.4554V12.1893C801.312 8.06341 797.967 4.71875 793.842 4.71875Z" stroke="white" stroke-width="1.37578" stroke-miterlimit="10"/>
<path vector-effect="non-scaling-stroke" d="M495.902 411.305V36.9268H785.546V467.878C785.546 487.4 769.71 503.235 750.188 503.235H0.687988" stroke="white" stroke-width="1.37578" stroke-miterlimit="10"/>
<path vector-effect="non-scaling-stroke" d="M667.146 451.011C714.483 451.011 752.857 412.636 752.857 365.299C752.857 317.962 714.483 279.588 667.146 279.588C619.808 279.588 581.434 317.962 581.434 365.299C581.434 412.636 619.808 451.011 667.146 451.011Z" stroke="white" stroke-width="1.37578" stroke-miterlimit="10"/>
<path vector-effect="non-scaling-stroke" d="M562.297 280.468C584.605 280.468 602.69 262.383 602.69 240.075C602.69 217.766 584.605 199.682 562.297 199.682C539.988 199.682 521.904 217.766 521.904 240.075C521.904 262.383 539.988 280.468 562.297 280.468Z" stroke="white" stroke-width="1.37578" stroke-miterlimit="10"/>
<path vector-effect="non-scaling-stroke" d="M722.755 274.029C736.682 274.029 747.973 262.739 747.973 248.811C747.973 234.883 736.682 223.593 722.755 223.593C708.827 223.593 697.537 234.883 697.537 248.811C697.537 262.739 708.827 274.029 722.755 274.029Z" stroke="white" stroke-width="1.37578" stroke-miterlimit="10"/>
<path vector-effect="non-scaling-stroke" d="M710.951 133.699C721.087 133.699 729.304 125.482 729.304 115.346C729.304 105.21 721.087 96.9932 710.951 96.9932C700.815 96.9932 692.598 105.21 692.598 115.346C692.598 125.482 700.815 133.699 710.951 133.699Z" stroke="white" stroke-width="1.37578" stroke-miterlimit="10"/>
<path vector-effect="non-scaling-stroke" d="M546.145 157.776C556.281 157.776 564.498 149.559 564.498 139.423C564.498 129.287 556.281 121.07 546.145 121.07C536.009 121.07 527.792 129.287 527.792 139.423C527.792 149.559 536.009 157.776 546.145 157.776Z" stroke="white" stroke-width="1.37578" stroke-miterlimit="10"/>
<path vector-effect="non-scaling-stroke" d="M584.378 185.222C589.446 185.222 593.555 181.114 593.555 176.046C593.555 170.978 589.446 166.869 584.378 166.869C579.31 166.869 575.202 170.978 575.202 176.046C575.202 181.114 579.31 185.222 584.378 185.222Z" stroke="white" stroke-width="1.37578" stroke-miterlimit="10"/>
<path vector-effect="non-scaling-stroke" d="M756.269 305.988C761.337 305.988 765.446 301.879 765.446 296.811C765.446 291.743 761.337 287.635 756.269 287.635C751.201 287.635 747.093 291.743 747.093 296.811C747.093 301.879 751.201 305.988 756.269 305.988Z" stroke="white" stroke-width="1.37578" stroke-miterlimit="10"/>
<path vector-effect="non-scaling-stroke" d="M363.895 339.682H0.687988" stroke="white" stroke-width="1.37578" stroke-miterlimit="10"/>
<path vector-effect="non-scaling-stroke" d="M495.901 339.682H462.993" stroke="white" stroke-width="1.37578" stroke-miterlimit="10"/>
<path vector-effect="non-scaling-stroke" d="M289.727 429.342H0.687988" stroke="white" stroke-width="1.37578" stroke-miterlimit="10"/>
<path vector-effect="non-scaling-stroke" d="M289.727 429.342H0.687988V482.544H307.309L495.902 309.484V240.075L289.727 429.342Z" fill="#404040" stroke="white" stroke-width="1.37578" stroke-miterlimit="10"/>
<path vector-effect="non-scaling-stroke" d="M289.727 429.342H0.687988V482.544H307.309L495.902 309.484V240.075L289.727 429.342Z" stroke="white" stroke-width="1.37578" stroke-miterlimit="10"/>
<path vector-effect="non-scaling-stroke" d="M621.855 469.734H596.733V503.235H621.855V469.734Z" stroke="white" stroke-width="1.37578" stroke-miterlimit="10"/>
<path vector-effect="non-scaling-stroke" d="M555.597 469.734H530.475V503.235H555.597V469.734Z" stroke="white" stroke-width="1.37578" stroke-miterlimit="10"/>
<path vector-effect="non-scaling-stroke" d="M489.339 469.734H464.217V503.235H489.339V469.734Z" stroke="white" stroke-width="1.37578" stroke-miterlimit="10"/>
<path vector-effect="non-scaling-stroke" d="M423.082 469.734H397.96V503.235H423.082V469.734Z" stroke="white" stroke-width="1.37578" stroke-miterlimit="10"/>
<path vector-effect="non-scaling-stroke" d="M356.838 469.734H331.716V503.235H356.838V469.734Z" stroke="white" stroke-width="1.37578" stroke-miterlimit="10"/>
<path vector-effect="non-scaling-stroke" d="M290.579 469.734H265.458V503.235H290.579V469.734Z" fill="#020202" stroke="white" stroke-width="1.37578"/>
<path vector-effect="non-scaling-stroke" d="M224.322 469.734H199.2V503.235H224.322V469.734Z" fill="#020202" stroke="white" stroke-width="1.37578"/>
<path vector-effect="non-scaling-stroke" d="M756.269 194.013C762.598 194.013 767.729 188.882 767.729 182.553C767.729 176.224 762.598 171.093 756.269 171.093C749.94 171.093 744.809 176.224 744.809 182.553C744.809 188.882 749.94 194.013 756.269 194.013Z" stroke="white" stroke-width="1.37578" stroke-miterlimit="10"/>
<path vector-effect="non-scaling-stroke" d="M552.102 332.926C558.432 332.926 563.563 327.795 563.563 321.466C563.563 315.137 558.432 310.006 552.102 310.006C545.773 310.006 540.642 315.137 540.642 321.466C540.642 327.795 545.773 332.926 552.102 332.926Z" stroke="white" stroke-width="1.37578" stroke-miterlimit="10"/>
<path vector-effect="non-scaling-stroke" d="M495.902 121.069C495.902 121.069 508.16 95.8096 546.145 95.8096C613.958 95.8096 653.374 164.131 702.38 164.131C751.385 164.131 785.546 106.733 785.546 106.733" stroke="white" stroke-width="1.37578" stroke-miterlimit="10"/>
<path vector-effect="non-scaling-stroke" d="M68.8306 384.519H87.8577C92.2189 384.519 95.7547 388.054 95.7547 392.416V429.328H60.9336V392.416C60.9336 388.054 64.4694 384.519 68.8306 384.519Z" fill="#404040" stroke="white" stroke-width="1.37578" stroke-miterlimit="10"/>
<path vector-effect="non-scaling-stroke" d="M87.8438 378.039H69.1606V384.519H87.8438V378.039Z" stroke="white" stroke-width="1.37578" stroke-miterlimit="10"/>
<path vector-effect="non-scaling-stroke" d="M95.7405 398.537H60.9194V417.22H95.7405V398.537Z" fill="#020202" stroke="white" stroke-width="1.37578"/>
<path vector-effect="non-scaling-stroke" d="M118.29 384.519H137.317C141.678 384.519 145.214 388.054 145.214 392.416V429.328H110.393V392.416C110.393 388.054 113.929 384.519 118.29 384.519Z" fill="#404040" stroke="white" stroke-width="1.37578" stroke-miterlimit="10"/>
<path vector-effect="non-scaling-stroke" d="M137.317 378.039H118.634V384.519H137.317V378.039Z" stroke="white" stroke-width="1.37578" stroke-miterlimit="10"/>
<path vector-effect="non-scaling-stroke" d="M145.214 398.537H110.393V417.22H145.214V398.537Z" fill="#020202" stroke="white" stroke-width="1.37578"/>
<path vector-effect="non-scaling-stroke" d="M167.75 384.519H186.777C191.138 384.519 194.674 388.054 194.674 392.416V429.328H159.853V392.416C159.853 388.054 163.388 384.519 167.75 384.519Z" fill="#404040" stroke="white" stroke-width="1.37578" stroke-miterlimit="10"/>
<path vector-effect="non-scaling-stroke" d="M186.776 378.039H168.093V384.519H186.776V378.039Z" stroke="white" stroke-width="1.37578" stroke-miterlimit="10"/>
<path vector-effect="non-scaling-stroke" d="M194.674 398.537H159.853V417.22H194.674V398.537Z" fill="#020202" stroke="white" stroke-width="1.37578"/>
<path vector-effect="non-scaling-stroke" d="M23.0311 465.36C28.2359 465.36 32.4552 461.141 32.4552 455.936C32.4552 450.731 28.2359 446.512 23.0311 446.512C17.8263 446.512 13.6069 450.731 13.6069 455.936C13.6069 461.141 17.8263 465.36 23.0311 465.36Z" fill="#020202" stroke="white" stroke-width="1.37578"/>
<path vector-effect="non-scaling-stroke" d="M68.3899 465.36C73.5947 465.36 77.8141 461.141 77.8141 455.936C77.8141 450.731 73.5947 446.512 68.3899 446.512C63.1851 446.512 58.9658 450.731 58.9658 455.936C58.9658 461.141 63.1851 465.36 68.3899 465.36Z" fill="#020202" stroke="white" stroke-width="1.37578"/>
<path vector-effect="non-scaling-stroke" d="M113.75 465.36C118.955 465.36 123.174 461.141 123.174 455.936C123.174 450.731 118.955 446.512 113.75 446.512C108.545 446.512 104.326 450.731 104.326 455.936C104.326 461.141 108.545 465.36 113.75 465.36Z" fill="#020202" stroke="white" stroke-width="1.37578"/>
<path vector-effect="non-scaling-stroke" d="M159.11 465.36C164.314 465.36 168.534 461.141 168.534 455.936C168.534 450.731 164.314 446.512 159.11 446.512C153.905 446.512 149.686 450.731 149.686 455.936C149.686 461.141 153.905 465.36 159.11 465.36Z" fill="#020202" stroke="white" stroke-width="1.37578"/>
<path vector-effect="non-scaling-stroke" d="M204.483 465.36C209.688 465.36 213.907 461.141 213.907 455.936C213.907 450.731 209.688 446.512 204.483 446.512C199.278 446.512 195.059 450.731 195.059 455.936C195.059 461.141 199.278 465.36 204.483 465.36Z" fill="#020202" stroke="white" stroke-width="1.37578"/>
<path vector-effect="non-scaling-stroke" d="M249.843 465.36C255.047 465.36 259.267 461.141 259.267 455.936C259.267 450.731 255.047 446.512 249.843 446.512C244.638 446.512 240.418 450.731 240.418 455.936C240.418 461.141 244.638 465.36 249.843 465.36Z" fill="#020202" stroke="white" stroke-width="1.37578"/>
<path vector-effect="non-scaling-stroke" d="M295.202 465.36C300.407 465.36 304.627 461.141 304.627 455.936C304.627 450.731 300.407 446.512 295.202 446.512C289.998 446.512 285.778 450.731 285.778 455.936C285.778 461.141 289.998 465.36 295.202 465.36Z" fill="#020202" stroke="white" stroke-width="1.37578"/>
<path vector-effect="non-scaling-stroke" d="M328.428 436.069C333.632 436.069 337.852 431.85 337.852 426.645C337.852 421.44 333.632 417.221 328.428 417.221C323.223 417.221 319.003 421.44 319.003 426.645C319.003 431.85 323.223 436.069 328.428 436.069Z" fill="#020202" stroke="white" stroke-width="1.37578"/>
<path vector-effect="non-scaling-stroke" d="M361.652 406.779C366.857 406.779 371.076 402.56 371.076 397.355C371.076 392.15 366.857 387.931 361.652 387.931C356.447 387.931 352.228 392.15 352.228 397.355C352.228 402.56 356.447 406.779 361.652 406.779Z" fill="#020202" stroke="white" stroke-width="1.37578"/>
<path vector-effect="non-scaling-stroke" d="M394.878 377.489C400.083 377.489 404.302 373.27 404.302 368.065C404.302 362.86 400.083 358.641 394.878 358.641C389.673 358.641 385.454 362.86 385.454 368.065C385.454 373.27 389.673 377.489 394.878 377.489Z" stroke="white" stroke-width="1.37578" stroke-miterlimit="10"/>
<path vector-effect="non-scaling-stroke" d="M428.103 348.198C433.308 348.198 437.527 343.979 437.527 338.774C437.527 333.569 433.308 329.35 428.103 329.35C422.898 329.35 418.679 333.569 418.679 338.774C418.679 343.979 422.898 348.198 428.103 348.198Z" stroke="white" stroke-width="1.37578" stroke-miterlimit="10"/>
<path vector-effect="non-scaling-stroke" d="M461.328 318.908C466.533 318.908 470.753 314.688 470.753 309.484C470.753 304.279 466.533 300.06 461.328 300.06C456.124 300.06 451.904 304.279 451.904 309.484C451.904 314.688 456.124 318.908 461.328 318.908Z" fill="#020202" stroke="white" stroke-width="1.37578"/>
<path vector-effect="non-scaling-stroke" d="M495.902 289.617C490.701 289.617 486.478 285.393 486.478 280.193C486.478 274.992 490.701 270.769 495.902 270.769" fill="#020202"/>
<path vector-effect="non-scaling-stroke" d="M495.902 289.617C490.701 289.617 486.478 285.393 486.478 280.193C486.478 274.992 490.701 270.769 495.902 270.769" stroke="white" stroke-width="1.37578"/>
<path vector-effect="non-scaling-stroke" d="M363.895 289.108V387.243C363.895 398.634 373.14 407.879 384.532 407.879H395.387C397.726 407.879 399.693 409.64 399.954 411.979L402.211 432.52C402.472 434.845 404.439 436.619 406.778 436.619H414.606C416.945 436.619 418.913 434.858 419.174 432.52L421.43 411.979C421.692 409.654 423.659 407.879 425.998 407.879H436.853C448.244 407.879 457.49 398.634 457.49 387.243V289.108C457.49 286.563 455.426 284.513 452.895 284.513H368.49C365.945 284.513 363.895 286.576 363.895 289.108Z" fill="#020202" stroke="white" stroke-width="1.37578"/>
<path vector-effect="non-scaling-stroke" d="M443.113 389.114L421.293 395.621C414.909 397.52 408.113 397.52 401.743 395.621L379.923 389.114C377.571 388.412 375.961 386.252 375.961 383.803V337.109C375.961 334.055 378.437 331.564 381.505 331.564H441.531C444.585 331.564 447.075 334.041 447.075 337.109V383.803C447.075 386.252 445.466 388.412 443.113 389.114Z" fill="#AF00FF" stroke="white" stroke-width="1.37578" stroke-miterlimit="10"/>
<path vector-effect="non-scaling-stroke" d="M457.476 131.154C469.535 131.154 479.31 121.378 479.31 109.32C479.31 97.2616 469.535 87.4863 457.476 87.4863C445.418 87.4863 435.643 97.2616 435.643 109.32C435.643 121.378 445.418 131.154 457.476 131.154Z" stroke="white" stroke-width="1.37578" stroke-miterlimit="10"/>
<path vector-effect="non-scaling-stroke" d="M428.103 193.271C449.773 193.271 467.34 175.704 467.34 154.033C467.34 132.363 449.773 114.796 428.103 114.796C406.433 114.796 388.866 132.363 388.866 154.033C388.866 175.704 406.433 193.271 428.103 193.271Z" fill="#020202" stroke="white" stroke-width="1.37578"/>
<path vector-effect="non-scaling-stroke" d="M450.707 195.747C457.987 195.747 463.887 189.846 463.887 182.567C463.887 175.288 457.987 169.387 450.707 169.387C443.428 169.387 437.527 175.288 437.527 182.567C437.527 189.846 443.428 195.747 450.707 195.747Z" fill="#AF00FF" stroke="white" stroke-width="1.37578" stroke-miterlimit="10"/>
<path vector-effect="non-scaling-stroke" d="M0.687988 286.342H23.0307L32.4549 169.387H46.1026L53.752 246.61H68.3904L78.5024 184.479H87.844L95.741 254.369H110.393L116.502 219.892H125.926L128.774 241.712" stroke="white" stroke-width="1.37578" stroke-miterlimit="10"/>
<path vector-effect="non-scaling-stroke" d="M110.393 19.1234L91.0491 7.96582L71.7056 19.1234V41.4662L91.0491 52.6238L110.393 41.4662V19.1234Z" stroke="white" stroke-width="1.37578" stroke-miterlimit="10"/>
<path vector-effect="non-scaling-stroke" d="M90.9946 52.7064L71.6648 41.5488L52.3213 52.7064V75.0492L71.6648 86.2068" stroke="white" stroke-width="1.37578" stroke-miterlimit="10"/>
<path vector-effect="non-scaling-stroke" d="M71.6093 86.2904L52.2658 75.1328L32.936 86.2904V108.633L52.2658 119.791L71.6093 108.633V86.2904Z" stroke="white" stroke-width="1.37578" stroke-miterlimit="10"/>
<path vector-effect="non-scaling-stroke" d="M13.4966 75.0219L32.8401 86.1795L52.1699 75.0219V52.6791L32.8401 41.5215" stroke="white" stroke-width="1.37578" stroke-miterlimit="10"/>
<path vector-effect="non-scaling-stroke" d="M13.4414 119.762L32.7849 108.605V86.2759L13.4414 75.1045" stroke="white" stroke-width="1.37578" stroke-miterlimit="10"/>
<path vector-effect="non-scaling-stroke" d="M80.7725 90.6094V104.271" stroke="white" stroke-width="1.37578" stroke-miterlimit="10"/>
<path vector-effect="non-scaling-stroke" d="M71.6646 9.98804L83.4963 3.15039" stroke="white" stroke-width="1.37578" stroke-miterlimit="10"/>
<path vector-effect="non-scaling-stroke" d="M385.866 229.385L356.631 183.902C355.627 182.334 356.466 180.229 358.282 179.802L358.653 179.72C361.281 179.1 362.918 176.459 362.285 173.831L361.226 169.36C360.607 166.732 357.965 165.095 355.338 165.728L321.383 173.762C318.756 174.382 317.118 177.023 317.751 179.651L318.811 184.122C319.43 186.75 322.071 188.387 324.699 187.754L325.07 187.672C326.886 187.245 328.592 188.731 328.386 190.602L322.649 244.368C322.511 253.076 330.615 259.598 339.09 257.589L377.103 248.591C385.577 246.583 389.897 237.131 385.866 229.413V229.385Z" fill="#020202" stroke="white" stroke-width="1.37578"/>
<path vector-effect="non-scaling-stroke" d="M632.063 358.64C639.479 358.64 645.491 352.629 645.491 345.213C645.491 337.797 639.479 331.785 632.063 331.785C624.647 331.785 618.635 337.797 618.635 345.213C618.635 352.629 624.647 358.64 632.063 358.64Z" stroke="white" stroke-width="1.37578" stroke-miterlimit="10"/>
<path vector-effect="non-scaling-stroke" d="M652.122 352.504L656.525 368.064" stroke="white" stroke-width="1.37578" stroke-miterlimit="10"/>
<path vector-effect="non-scaling-stroke" d="M637.333 322.513L652.521 312.524" stroke="white" stroke-width="1.37578" stroke-miterlimit="10"/>
<path vector-effect="non-scaling-stroke" d="M632.063 345.213L613.352 354.1" stroke="white" stroke-width="1.37578" stroke-miterlimit="10"/>
<path vector-effect="non-scaling-stroke" d="M614.687 329.35C616.86 329.35 618.622 327.588 618.622 325.415C618.622 323.242 616.86 321.48 614.687 321.48C612.514 321.48 610.752 323.242 610.752 325.415C610.752 327.588 612.514 329.35 614.687 329.35Z" stroke="white" stroke-width="1.37578" stroke-miterlimit="10"/>
<path vector-effect="non-scaling-stroke" d="M652.177 335.719C654.35 335.719 656.112 333.957 656.112 331.784C656.112 329.611 654.35 327.85 652.177 327.85C650.004 327.85 648.242 329.611 648.242 331.784C648.242 333.957 650.004 335.719 652.177 335.719Z" stroke="white" stroke-width="1.37578" stroke-miterlimit="10"/>
<path vector-effect="non-scaling-stroke" d="M679.542 71.8984V104.848" stroke="white" stroke-width="1.37578" stroke-miterlimit="10"/>
<path vector-effect="non-scaling-stroke" d="M672.277 87.582H687.163" stroke="white" stroke-width="1.37578" stroke-miterlimit="10"/>
<path vector-effect="non-scaling-stroke" d="M602.772 132.144V140.825" stroke="white" stroke-width="1.37578" stroke-miterlimit="10"/>
<path vector-effect="non-scaling-stroke" d="M595.508 144.06H599.608" stroke="white" stroke-width="1.37578" stroke-miterlimit="10"/>
<path vector-effect="non-scaling-stroke" d="M520.171 168.506V201.47" stroke="white" stroke-width="1.37578" stroke-miterlimit="10"/>
<path vector-effect="non-scaling-stroke" d="M512.92 184.205H527.792" stroke="white" stroke-width="1.37578" stroke-miterlimit="10"/>
<path vector-effect="non-scaling-stroke" d="M611.275 185.635L625.996 200.356" stroke="white" stroke-width="1.37578" stroke-miterlimit="10"/>
<path vector-effect="non-scaling-stroke" d="M625.996 185.635L611.275 200.356" stroke="white" stroke-width="1.37578" stroke-miterlimit="10"/>
<path vector-effect="non-scaling-stroke" d="M737.778 121.07L752.499 135.791" stroke="white" stroke-width="1.37578" stroke-miterlimit="10"/>
<path vector-effect="non-scaling-stroke" d="M752.499 121.07L737.778 135.791" stroke="white" stroke-width="1.37578" stroke-miterlimit="10"/>
<path vector-effect="non-scaling-stroke" d="M716.921 205.281L723.168 211.541" stroke="white" stroke-width="1.37578" stroke-miterlimit="10"/>
<path vector-effect="non-scaling-stroke" d="M703.026 191.4L709.272 197.646" stroke="white" stroke-width="1.37578" stroke-miterlimit="10"/>
<path vector-effect="non-scaling-stroke" d="M709.272 205.281L703.026 211.541" stroke="white" stroke-width="1.37578" stroke-miterlimit="10"/>
<path vector-effect="non-scaling-stroke" d="M723.168 191.4L716.921 197.646" stroke="white" stroke-width="1.37578" stroke-miterlimit="10"/>
<path vector-effect="non-scaling-stroke" d="M602.772 148.104V156.785" stroke="white" stroke-width="1.37578" stroke-miterlimit="10"/>
<path vector-effect="non-scaling-stroke" d="M605.758 144.06H609.858" stroke="white" stroke-width="1.37578" stroke-miterlimit="10"/>
<path vector-effect="non-scaling-stroke" d="M95.7407 338.774C110.379 216.191 175.124 215.737 175.124 175.619C175.124 164.998 165.41 145.242 157.596 130.893C150.084 117.08 144.1 99.9375 147.704 84.0885C151.377 67.923 166.332 58.4714 181.191 53.835C196.049 49.1986 215.351 45.8967 227.403 57.2469C230.114 59.7921 232.191 62.9427 233.677 66.3409C238.754 77.8699 241.684 105.743 248.288 127.082C254.892 148.42 262.266 163.169 253.048 172.854C243.83 182.54 217.539 179.871 217.539 179.871" stroke="white" stroke-width="1.37578" stroke-miterlimit="10"/>
<path vector-effect="non-scaling-stroke" d="M172.922 187.63C209.862 199.475 233.223 191.303 233.223 191.303C233.223 191.303 233.14 198.691 237.378 212.078C246.238 240.061 281.431 290.759 289.74 338.76" stroke="white" stroke-width="1.37578" stroke-linecap="round" stroke-linejoin="round"/>
<path vector-effect="non-scaling-stroke" d="M235.438 71.1826C235.438 71.1826 219.795 86.4676 179.045 92.2872C175.206 100.652 198.182 151.116 172.922 164.323" stroke="white" stroke-width="1.37578" stroke-miterlimit="10"/>
<path vector-effect="non-scaling-stroke" d="M184.19 119.309C184.19 119.309 169.029 115.085 170.294 128.857C171.56 142.642 188.826 146.082 188.826 146.082" fill="#020202"/>
<path vector-effect="non-scaling-stroke" d="M184.19 119.309C184.19 119.309 169.029 115.085 170.294 128.857C171.56 142.642 188.826 146.082 188.826 146.082" stroke="white" stroke-width="1.37578"/>
<path vector-effect="non-scaling-stroke" d="M192.183 100.544C188.716 102.841 186.391 105.909 188.084 110.325C191.592 119.474 198.264 137.236 211.238 132.93C217.635 130.797 221.694 124.895 223.62 118.731C224.679 115.319 225.257 108.606 229.206 107.12C234.97 104.96 240.983 116.97 251.92 114.453C262.858 111.935 256.969 87.1709 255.511 83.4012C252.635 75.9995 242.565 80.4983 219.988 88.4916C214.251 90.5278 208.707 93.0455 203.135 95.4806C200.204 96.7601 195.623 98.2735 192.17 100.544H192.183Z" fill="#A0A09E" stroke="white" stroke-width="1.37578" stroke-linejoin="round"/>
<path vector-effect="non-scaling-stroke" d="M192.183 100.544C188.716 102.841 186.391 105.909 188.084 110.325C191.592 119.474 198.264 137.236 211.238 132.93C217.635 130.797 221.694 124.895 223.62 118.731C224.679 115.319 225.257 108.606 229.206 107.12C234.97 104.96 240.983 116.97 251.92 114.453C262.858 111.935 256.969 87.1709 255.511 83.4012C252.635 75.9995 242.565 80.4983 219.988 88.4916C214.251 90.5278 208.707 93.0455 203.135 95.4806C200.204 96.7601 195.623 98.2735 192.17 100.544H192.183Z" stroke="white" stroke-width="1.37578" stroke-miterlimit="10"/>
<path vector-effect="non-scaling-stroke" d="M234.558 114.714L239.964 124.771C241.437 127.522 240.405 130.948 237.639 132.42L235.438 133.59" stroke="white" stroke-width="1.37578" stroke-miterlimit="10"/>
<path vector-effect="non-scaling-stroke" d="M231.324 144.458C231.324 144.458 241.01 144.32 245.935 139.684" stroke="white" stroke-width="1.37578" stroke-miterlimit="10"/>
<path vector-effect="non-scaling-stroke" d="M326.295 210.138H373.443" stroke="white" stroke-width="1.37578" stroke-miterlimit="10"/>
<path vector-effect="non-scaling-stroke" d="M283.976 265.996L302.989 248.798C304.42 247.505 305.589 245.964 306.456 244.245L312.124 233.059C313.816 229.703 316.664 227.075 320.145 225.644L324.864 223.704" stroke="white" stroke-width="1.37578" stroke-miterlimit="10"/>
<path vector-effect="non-scaling-stroke" d="M310.652 304.751L322.223 292.933C323.942 291.172 326.02 289.796 328.304 288.874L357.553 277.18C363.51 274.8 367.871 269.586 369.164 263.298L373.429 242.538L375.988 239.552C378.19 236.993 378.465 233.293 376.662 230.445C374.764 227.432 371.049 226.111 367.679 227.267L322.635 244.368" fill="#020202"/>
<path vector-effect="non-scaling-stroke" d="M310.652 304.751L322.223 292.933C323.942 291.172 326.02 289.796 328.304 288.874L357.553 277.18C363.51 274.8 367.871 269.586 369.164 263.298L373.429 242.538L375.988 239.552C378.19 236.993 378.465 233.293 376.662 230.445C374.764 227.432 371.049 226.111 367.679 227.267L322.635 244.368" stroke="white" stroke-width="1.37578"/>
<path vector-effect="non-scaling-stroke" d="M216.631 194.192C216.631 194.192 240.501 283.247 234.571 321.48" stroke="white" stroke-width="1.37578" stroke-miterlimit="10"/>
<path vector-effect="non-scaling-stroke" d="M172.923 200.178C193.05 200.178 204.401 212.766 230.169 307.943L281.142 263.202C281.142 263.202 293.882 274.69 305.521 295.478C317.16 316.266 318.536 320.132 318.536 320.132L299.137 338.774H179.251C179.251 338.774 159.867 302.33 145.201 270.769" fill="#202020"/>
<path vector-effect="non-scaling-stroke" d="M172.923 200.178C193.05 200.178 204.401 212.766 230.169 307.943L281.142 263.202C281.142 263.202 293.882 274.69 305.521 295.478C317.16 316.266 318.536 320.132 318.536 320.132L299.137 338.774H179.251C179.251 338.774 159.867 302.33 145.201 270.769" stroke="white" stroke-width="1.37578" stroke-miterlimit="10"/>
</g>
<defs>
<clipPath id="clip0_20_14629">
<rect width="802" height="503.909" fill="white"/>
</clipPath>
</defs>
</svg>
