<svg width="80" height="79" viewBox="0 0 80 79" fill="none" xmlns="http://www.w3.org/2000/svg">
<g clip-path="url(#clip0_447_433)">
<path vector-effect="non-scaling-stroke" d="M7.6165 14.41C11.4565 14.41 14.5665 11.3 14.5665 7.46C14.5665 3.62 11.4665 0.5 7.6165 0.5C3.7665 0.5 0.666504 3.61 0.666504 7.45C0.666504 11.29 3.7765 14.4 7.6165 14.4V14.41Z" fill="#202020" stroke="white" stroke-linecap="round" stroke-linejoin="round"/>
<path vector-effect="non-scaling-stroke" d="M22.1766 22.0101L12.5366 12.3701" stroke="white" stroke-miterlimit="10" stroke-linecap="round"/>
<path vector-effect="non-scaling-stroke" d="M7.6165 78.5001C11.4565 78.5001 14.5665 75.3901 14.5665 71.5501C14.5665 67.7101 11.4565 64.6001 7.6165 64.6001C3.7765 64.6001 0.666504 67.7101 0.666504 71.5501C0.666504 75.3901 3.7765 78.5001 7.6165 78.5001Z" fill="#202020" stroke="white" stroke-linecap="round" stroke-linejoin="round"/>
<path vector-effect="non-scaling-stroke" d="M21.8064 57.3701L12.5464 66.6301" stroke="white" stroke-miterlimit="10" stroke-linecap="round"/>
<path vector-effect="non-scaling-stroke" d="M7.6165 46.4501C11.4565 46.4501 14.5665 43.34 14.5665 39.5C14.5665 35.66 11.4565 32.55 7.6165 32.55C3.7765 32.55 0.666504 35.66 0.666504 39.5C0.666504 43.34 3.7765 46.4501 7.6165 46.4501Z" stroke="white" stroke-miterlimit="10" stroke-linecap="round"/>
<path vector-effect="non-scaling-stroke" d="M71.7166 14.41C75.5566 14.41 78.6666 11.3 78.6666 7.46001C78.6666 3.62001 75.5566 0.51001 71.7166 0.51001C67.8766 0.51001 64.7666 3.62001 64.7666 7.46001C64.7666 11.3 67.8766 14.41 71.7166 14.41Z" fill="#202020" stroke="white" stroke-linecap="round" stroke-linejoin="round"/>
<path vector-effect="non-scaling-stroke" d="M57.1567 22.0101L66.7967 12.3701" stroke="white" stroke-miterlimit="10" stroke-linecap="round"/>
<path vector-effect="non-scaling-stroke" d="M71.7166 78.5001C75.5566 78.5001 78.6666 75.3901 78.6666 71.5501C78.6666 67.7101 75.5566 64.6001 71.7166 64.6001C67.8766 64.6001 64.7666 67.7101 64.7666 71.5501C64.7666 75.3901 67.8766 78.5001 71.7166 78.5001Z" fill="#202020" stroke="white" stroke-linecap="round" stroke-linejoin="round"/>
<path vector-effect="non-scaling-stroke" d="M57.5264 57.3701L66.7864 66.6301" stroke="white" stroke-miterlimit="10" stroke-linecap="round"/>
<path vector-effect="non-scaling-stroke" d="M71.7166 46.4501C75.5566 46.4501 78.6666 43.34 78.6666 39.5C78.6666 35.66 75.5566 32.55 71.7166 32.55C67.8766 32.55 64.7666 35.66 64.7666 39.5C64.7666 43.34 67.8766 46.4501 71.7166 46.4501Z" stroke="white" stroke-miterlimit="10" stroke-linecap="round"/>
<path vector-effect="non-scaling-stroke" d="M40.3367 60.9201C52.1667 60.9201 61.7667 51.3301 61.7667 39.5001C61.7667 27.6701 52.1767 18.0801 40.3367 18.0801C28.4967 18.0801 18.9067 27.6701 18.9067 39.5001C18.9067 51.3301 28.4967 60.9201 40.3367 60.9201Z" fill="#A100FF" stroke="white" stroke-linecap="round" stroke-linejoin="round"/>
<path vector-effect="non-scaling-stroke" d="M39.6764 38.8899H14.8164" stroke="white" stroke-miterlimit="10" stroke-linecap="round"/>
<path vector-effect="non-scaling-stroke" d="M39.6567 38.8899H64.5167" stroke="white" stroke-miterlimit="10" stroke-linecap="round"/>
<path vector-effect="non-scaling-stroke" d="M40.3366 60.9201C45.0666 60.9201 48.9066 51.3301 48.9066 39.5001C48.9066 27.6701 45.0666 18.0801 40.3366 18.0801C35.6066 18.0801 31.7666 27.6701 31.7666 39.5001C31.7666 51.3301 35.6066 60.9201 40.3366 60.9201Z" stroke="white" stroke-miterlimit="10" stroke-linecap="round"/>
<path vector-effect="non-scaling-stroke" d="M59.0267 29.01H21.6567" stroke="white" stroke-miterlimit="10" stroke-linecap="round"/>
<path vector-effect="non-scaling-stroke" d="M21.4165 49.3601H59.3665" stroke="white" stroke-miterlimit="10" stroke-linecap="round"/>
</g>
<defs>
<clipPath id="clip0_447_433">
<rect width="79" height="79" fill="white" transform="translate(0.166504)"/>
</clipPath>
</defs>
</svg>
