<svg width="48" height="48" viewBox="0 0 48 48" fill="none" xmlns="http://www.w3.org/2000/svg">
<path vector-effect="non-scaling-stroke" d="M29.6565 23.4933H25.0004V10.1332H23.0858V23.4933H18.2004C11.363 23.4933 5.80029 29.056 5.80029 35.8934V36.8534H7.70431V35.8934C7.70431 30.1707 12.483 25.3974 18.2004 25.3974H23.0858V36.8534H25.0004V25.3974H29.6565C35.5338 25.3974 40.1525 30.1761 40.1525 35.8934V36.8534H42.0566V35.8934C42.0566 29.056 36.4938 23.4933 29.6565 23.4933Z" fill="white"/>
<rect x="18.7168" y="36.9164" width="10.4334" height="10.4334" stroke="white" stroke-width="1.3"/>
<rect x="18.7168" y="0.65" width="10.4334" height="10.4334" fill="#A100FF" stroke="white" stroke-width="1.3"/>
<rect x="1.65" y="36.9164" width="10.4334" height="10.4334" stroke="white" stroke-width="1.3"/>
<rect x="35.7837" y="36.9164" width="10.4334" height="10.4334" stroke="white" stroke-width="1.3"/>
</svg>
