<svg width="802" height="535" viewBox="0 0 802 535" fill="none" xmlns="http://www.w3.org/2000/svg">
<g clip-path="url(#clip0_20_14630)">
<g clip-path="url(#clip1_20_14630)">
<path vector-effect="non-scaling-stroke" d="M183.072 370.385C85.482 370.385 6.38135 292.176 6.38135 195.672C6.38135 99.1828 85.4959 20.96 183.072 20.96C280.663 20.96 359.763 99.1828 359.763 195.672C359.763 292.176 280.663 370.385 183.072 370.385Z" fill="#020202" stroke="white" stroke-width="1.39335" stroke-miterlimit="10"/>
<path vector-effect="non-scaling-stroke" d="M8.34595 290.727L357.144 288.748L381.054 393.389H65.8357L8.34595 290.727Z" fill="#020202"/>
<path vector-effect="non-scaling-stroke" d="M263.943 71.929L349.09 82.2258L383.492 164.434L265.211 157.328L263.943 71.915V71.929Z" fill="#020202"/>
<path vector-effect="non-scaling-stroke" d="M398.568 430.312V387.021H355.277V430.312H398.568Z" fill="#020202" stroke="white" stroke-width="1.39335" stroke-miterlimit="10"/>
<path vector-effect="non-scaling-stroke" d="M398.554 473.604V430.312H355.263V473.604H398.554Z" fill="#404040"/>
<path vector-effect="non-scaling-stroke" d="M355.277 430.312V387.021H311.985V430.312H355.277Z" fill="#202020"/>
<path vector-effect="non-scaling-stroke" d="M311.985 473.604V430.312H268.694V473.604H311.985Z" fill="#202020" stroke="white" stroke-width="1.39335" stroke-miterlimit="10"/>
<path vector-effect="non-scaling-stroke" d="M398.554 473.604V430.312H355.263V473.604H398.554Z" stroke="white" stroke-width="1.39335" stroke-miterlimit="10"/>
<path vector-effect="non-scaling-stroke" d="M355.277 430.312V387.021H311.985V430.312H355.277Z" stroke="white" stroke-width="1.39335" stroke-miterlimit="10"/>
<path vector-effect="non-scaling-stroke" d="M355.277 387.021V343.729H311.985V387.021H355.277Z" fill="#020202" stroke="white" stroke-width="1.39335" stroke-miterlimit="10"/>
<path vector-effect="non-scaling-stroke" d="M355.277 473.604V430.312H311.985V473.604H355.277Z" stroke="white" stroke-width="1.39335" stroke-miterlimit="10"/>
<path vector-effect="non-scaling-stroke" d="M355.277 473.311V516.603H398.568V473.311H355.277Z" fill="#202020" stroke="white" stroke-width="1.39335" stroke-miterlimit="10"/>
<path vector-effect="non-scaling-stroke" d="M355.277 352.995C360.379 352.995 364.515 348.853 364.515 343.743C364.515 338.633 360.379 334.491 355.277 334.491C350.175 334.491 346.039 338.633 346.039 343.743C346.039 348.853 350.175 352.995 355.277 352.995Z" fill="#020202" stroke="white" stroke-width="1.39335" stroke-miterlimit="10"/>
<path vector-effect="non-scaling-stroke" d="M398.568 439.563C403.67 439.563 407.806 435.421 407.806 430.311C407.806 425.202 403.67 421.06 398.568 421.06C393.466 421.06 389.331 425.202 389.331 430.311C389.331 435.421 393.466 439.563 398.568 439.563Z" fill="#020202" stroke="white" stroke-width="1.39335" stroke-miterlimit="10"/>
<path vector-effect="non-scaling-stroke" d="M445.566 78.2399C525.656 -1.84998 654.764 -2.58846 733.963 76.6097C813.147 155.794 812.422 284.916 732.332 365.006C652.242 445.096 523.12 445.806 443.936 366.622C364.738 287.424 365.476 158.316 445.552 78.226L445.566 78.2399Z" fill="#020202" stroke="white" stroke-width="1.39335" stroke-miterlimit="10"/>
<path vector-effect="non-scaling-stroke" d="M512.252 17.0996L287.17 227.398L534.936 498.294L765.09 384.972L537.054 227.802L550.764 153.314L512.252 17.0996Z" fill="#020202"/>
<path vector-effect="non-scaling-stroke" d="M642.14 371.958L599.964 477.574L511.89 410.039L596.062 325.866L642.154 371.958H642.14Z" fill="#020202"/>
<path vector-effect="non-scaling-stroke" d="M242.876 65.6855H249.466L245.676 96.8827H239.894" fill="black"/>
<path vector-effect="non-scaling-stroke" d="M242.876 65.6855H249.466L245.676 96.8827H239.894" stroke="white" stroke-width="1.39335" stroke-miterlimit="10"/>
<path vector-effect="non-scaling-stroke" d="M100.768 206.038L57.5039 420.057L223.187 292.119L203.165 200.492L100.768 206.038Z" fill="#202020"/>
<path vector-effect="non-scaling-stroke" d="M100.768 206.038L57.5039 420.057L223.187 292.119L203.165 200.492L100.768 206.038Z" stroke="white" stroke-width="1.39335" stroke-miterlimit="10"/>
<path vector-effect="non-scaling-stroke" d="M69.4868 231.439L93.9541 29.9048C94.8458 22.6175 101.06 17.1556 108.389 17.2253L234.195 17.6433C242.806 17.7129 249.592 25.7944 248.547 34.3356L224.609 231.453H69.4868V231.439Z" fill="black"/>
<path vector-effect="non-scaling-stroke" d="M247 47.126H91.8638L72.2036 203.822H226.866L247 47.126Z" fill="#414040"/>
<path vector-effect="non-scaling-stroke" d="M157.101 136.496C172.053 136.496 184.174 124.375 184.174 109.423C184.174 94.4715 172.053 82.3506 157.101 82.3506C142.149 82.3506 130.028 94.4715 130.028 109.423C130.028 124.375 142.149 136.496 157.101 136.496Z" fill="#931CF5"/>
<path vector-effect="non-scaling-stroke" d="M157.101 136.496C172.053 136.496 184.174 124.375 184.174 109.423C184.174 94.4715 172.053 82.3506 157.101 82.3506C142.149 82.3506 130.028 94.4715 130.028 109.423C130.028 124.375 142.149 136.496 157.101 136.496Z" stroke="white" stroke-width="1.39335" stroke-miterlimit="10"/>
<path vector-effect="non-scaling-stroke" d="M93.1877 145.261C93.1877 145.261 98.3432 106.219 136.214 105.592C174.086 104.965 217.126 143.993 241.705 90.8223" stroke="white" stroke-width="1.39335" stroke-miterlimit="10"/>
<path vector-effect="non-scaling-stroke" d="M69.4868 231.439L93.9541 29.9045C94.8458 22.6173 101.06 17.1553 108.389 17.225L234.279 17.0996C242.89 17.1693 249.592 25.7802 248.547 34.3354L224.609 231.453H69.4868V231.439Z" stroke="white" stroke-width="1.39335" stroke-miterlimit="10"/>
<path vector-effect="non-scaling-stroke" d="M71.73 203.823H226.866" stroke="white" stroke-width="1.39335" stroke-miterlimit="10"/>
<path vector-effect="non-scaling-stroke" d="M91.864 47.126H247" stroke="white" stroke-width="1.39335" stroke-miterlimit="10"/>
<path vector-effect="non-scaling-stroke" d="M69.6677 224.737C69.6677 224.737 62.0879 230.547 62.6731 240.078C63.2583 249.594 72.5798 259.069 79.5745 265.98C83.0718 269.422 88.8681 274.271 93.7727 278.242C99.3043 282.728 107.553 280.875 110.59 274.382C114.757 265.52 116.303 252.088 101.325 237.361C74.8789 211.333 69.6677 224.737 69.6677 224.737Z" fill="#202020"/>
<path vector-effect="non-scaling-stroke" d="M64.2894 118.09C64.8189 103.487 73.9593 93.6365 86.3602 96.1724C98.761 98.6804 108.333 105.689 106.201 120.946C103.972 136.83 88.3805 139.45 78.1812 139.506C67.7728 139.547 63.8018 131.703 64.2894 118.09Z" fill="#202020"/>
<path vector-effect="non-scaling-stroke" d="M69.6677 224.737C69.6677 224.737 62.0879 230.547 62.6731 240.078C63.2583 249.594 72.5798 259.069 79.5745 265.98C83.0718 269.422 88.8681 274.271 93.7727 278.242C99.3043 282.728 107.553 280.875 110.59 274.382C114.757 265.52 116.303 252.088 101.325 237.361C74.8789 211.333 69.6677 224.737 69.6677 224.737Z" stroke="white" stroke-width="1.39335" stroke-miterlimit="10"/>
<path vector-effect="non-scaling-stroke" d="M64.2894 118.09C64.8189 103.487 73.9593 93.6365 86.3602 96.1724C98.761 98.6804 108.333 105.689 106.201 120.946C103.972 136.83 88.3805 139.45 78.1812 139.506C67.7728 139.547 63.8018 131.703 64.2894 118.09Z" stroke="white" stroke-width="1.39335" stroke-miterlimit="10"/>
<path vector-effect="non-scaling-stroke" d="M79.895 102.748C78.5435 107.319 76.2445 117.42 76.969 131.507C77.0387 132.775 75.5617 133.486 74.656 132.608C72.1759 130.267 68.8736 125.335 69.6539 116.069C70.4481 106.692 74.8929 102.734 77.9304 101.118C79.0172 100.533 80.2573 101.564 79.909 102.748H79.895Z" stroke="white" stroke-width="1.39335" stroke-miterlimit="10"/>
<path vector-effect="non-scaling-stroke" d="M93.4524 262.636C88.0323 259.292 80.8704 256.77 76.5371 262.956C77.5682 264.015 78.5993 265.032 79.5746 265.994C83.0719 269.449 88.8683 274.284 93.7729 278.255C93.7729 278.255 94.386 276.625 95.9605 274.173C98.4824 270.299 97.3677 265.074 93.4524 262.636Z" stroke="white" stroke-width="1.39335" stroke-miterlimit="10"/>
<path vector-effect="non-scaling-stroke" d="M167.161 262.607C167.161 262.607 166.032 225.433 181.791 200.269C181.791 200.269 156.195 155.194 154.425 140.689C152.363 123.829 164.903 116.737 177.012 128.191C189.12 139.658 233.819 182.281 244.84 199.126C259.637 221.74 264.528 246.974 265.141 268.919L265.211 325.754L229.792 420.293L70.8381 420.056" fill="#202020"/>
<path vector-effect="non-scaling-stroke" d="M167.161 262.607C167.161 262.607 166.032 225.433 181.791 200.269C181.791 200.269 156.195 155.194 154.425 140.689C152.363 123.829 164.903 116.737 177.012 128.191C189.12 139.658 233.819 182.281 244.84 199.126C259.637 221.74 264.528 246.974 265.141 268.919L265.211 325.754L229.792 420.293L70.8381 420.056" stroke="white" stroke-width="1.39335" stroke-miterlimit="10"/>
<path vector-effect="non-scaling-stroke" d="M176.998 128.191C174.657 125.962 172.288 124.443 170.017 123.565C169.989 123.579 168.443 124.541 166.603 125.711C164.834 126.84 164.054 129.055 164.722 131.062C166.771 137.192 171.773 149.329 179.339 149.997C186.222 150.596 190.834 146.862 193.105 144.396C186.208 137.29 180.398 131.41 176.984 128.177L176.998 128.191Z" stroke="white" stroke-width="1.39335" stroke-miterlimit="10"/>
<path vector-effect="non-scaling-stroke" d="M189.064 140.718C187.281 141.414 181.275 144.118 179.144 149.635" stroke="white" stroke-width="1.39335" stroke-miterlimit="10"/>
<path vector-effect="non-scaling-stroke" d="M259.832 500.634L265.197 325.754H76.5369L8.34619 531.162H234.682C251.542 531.162 259.846 517.493 259.846 500.634H259.832Z" fill="black"/>
<path vector-effect="non-scaling-stroke" d="M260.32 498.362L265.197 325.754H76.5369L8.34619 531.162H232.411C250.525 531.162 260.334 516.476 260.334 498.362H260.32Z" stroke="white" stroke-width="1.39335" stroke-miterlimit="10"/>
<path vector-effect="non-scaling-stroke" d="M69.3054 185.598C69.3054 185.598 58.5487 190.517 58.3676 206.053C58.2004 221.589 67.0482 226.451 75.7566 231.328C84.4651 236.191 98.8445 244.899 106.675 236.79C114.52 228.667 111.594 208.895 100.795 199.462C89.9827 190.029 81.2743 181.613 81.2743 181.613L69.3054 185.598Z" fill="#202020"/>
<path vector-effect="non-scaling-stroke" d="M69.3054 185.598C69.3054 185.598 58.5487 190.517 58.3676 206.053C58.2004 221.589 67.0482 226.451 75.7566 231.328C84.4651 236.191 98.8445 244.899 106.675 236.79C114.52 228.667 111.594 208.895 100.795 199.462C89.9827 190.029 81.2743 181.613 81.2743 181.613L69.3054 185.598Z" stroke="white" stroke-width="1.39335" stroke-miterlimit="10"/>
<path vector-effect="non-scaling-stroke" d="M88.06 231.174C88.492 226.659 89.955 220.208 94.1629 212.893C95.3891 210.761 94.9292 207.905 93.09 206.511C88.1993 202.777 79.0172 198.402 74.3216 212.949C70.7267 224.054 76.955 230.979 82.1801 234.643C84.6324 236.371 87.7535 234.504 88.0739 231.188L88.06 231.174Z" stroke="white" stroke-width="1.39335" stroke-miterlimit="10"/>
<path vector-effect="non-scaling-stroke" d="M58.5488 163.791C59.6913 147.447 69.2219 136.802 81.5113 140.09C93.8006 143.393 103.08 151.6 100.308 168.598C97.4233 186.294 81.7203 188.635 71.5348 188.3C61.1265 187.952 57.4898 179.007 58.5488 163.791Z" fill="#202020"/>
<path vector-effect="non-scaling-stroke" d="M58.5488 163.791C59.6913 147.447 69.2219 136.802 81.5113 140.09C93.8006 143.393 103.08 151.6 100.308 168.598C97.4233 186.294 81.7203 188.635 71.5348 188.3C61.1265 187.952 57.4898 179.007 58.5488 163.791Z" stroke="white" stroke-width="1.39335" stroke-miterlimit="10"/>
<path vector-effect="non-scaling-stroke" d="M74.7814 147.225C73.2348 152.283 70.5177 163.5 70.6571 179.3C70.6571 180.721 69.1662 181.446 68.2884 180.457C65.9197 177.74 62.8125 172.097 63.9829 161.73C65.1673 151.266 69.7653 147.016 72.8725 145.316C73.9872 144.703 75.1855 145.902 74.7814 147.225Z" stroke="white" stroke-width="1.39335" stroke-miterlimit="10"/>
<path vector-effect="non-scaling-stroke" d="M743.925 182.463H457.633V342.852H743.925V182.463Z" fill="#020202" stroke="white" stroke-width="1.39335" stroke-miterlimit="10"/>
<path vector-effect="non-scaling-stroke" d="M644.691 262.665L594.99 233.976V291.354L644.691 262.665Z" fill="#404040" stroke="white" stroke-width="1.39335" stroke-miterlimit="10"/>
<path vector-effect="non-scaling-stroke" d="M585.32 394.197H441.512V471.459H539.172L565.994 498.295V471.459H585.32V394.197Z" fill="#020202" stroke="white" stroke-width="1.39335" stroke-miterlimit="10"/>
<path vector-effect="non-scaling-stroke" d="M476.402 316.143H633.168V416.993H526.702L497.455 446.24V416.993H476.402V316.143Z" fill="#020202" stroke="white" stroke-width="1.39335" stroke-miterlimit="10"/>
<path vector-effect="non-scaling-stroke" d="M562.636 257.552H400.756V344.525H510.692L540.886 374.719V344.525H562.636V257.552Z" fill="#A100FF" stroke="white" stroke-width="1.39335" stroke-miterlimit="10"/>
<path vector-effect="non-scaling-stroke" d="M611.222 156.909C611.222 172.236 583.467 214.204 583.467 214.204C583.467 214.204 555.711 172.236 555.711 156.909C555.711 141.582 568.14 129.153 583.467 129.153C598.793 129.153 611.222 141.582 611.222 156.909Z" fill="#404040" stroke="white" stroke-width="1.39335" stroke-miterlimit="10"/>
<path vector-effect="non-scaling-stroke" d="M598.236 156.908C598.236 165.059 591.632 171.678 583.467 171.678C575.302 171.678 568.697 165.073 568.697 156.908C568.697 148.743 575.302 142.139 583.467 142.139C591.632 142.139 598.236 148.743 598.236 156.908Z" fill="#020202" stroke="white" stroke-width="1.39335" stroke-miterlimit="10"/>
<path vector-effect="non-scaling-stroke" d="M698.613 328.64L714.706 353.093C714.706 353.093 710.791 362.066 691.103 365.606C688.553 366.065 667.625 378.076 667.625 378.076L660.059 366.483L698.613 328.626V328.64Z" fill="#020202" stroke="white" stroke-width="1.39335" stroke-miterlimit="10"/>
<path vector-effect="non-scaling-stroke" d="M784.107 301.315L761.063 317.059L778.001 341.852L801.045 326.108L784.107 301.315Z" fill="#020202" stroke="white" stroke-width="1.39335" stroke-miterlimit="10"/>
<path vector-effect="non-scaling-stroke" d="M745.332 244.543L722.287 260.286L739.225 285.079L762.27 269.336L745.332 244.543Z" fill="#020202" stroke="white" stroke-width="1.39335" stroke-miterlimit="10"/>
<path vector-effect="non-scaling-stroke" d="M692.204 280.794C675.149 292.442 670.746 315.809 682.409 332.863L695.854 352.552C707.503 369.606 730.869 374.009 747.924 362.347L777.993 341.809L761.049 317.021L730.981 337.559C727.595 339.872 722.955 338.994 720.642 335.608L707.196 315.92C704.883 312.534 705.761 307.895 709.147 305.582L739.216 285.044L722.272 260.256L692.204 280.794Z" fill="#202020" stroke="white" stroke-width="1.39335" stroke-miterlimit="10"/>
<path vector-effect="non-scaling-stroke" d="M687.09 315.571C688.107 313.997 689.417 312.715 691.214 312.52C693.918 312.227 696.231 314.791 696.788 317.466C697.345 320.128 696.663 322.873 696.258 325.562C695.506 330.494 695.659 335.538 694.698 340.429C692.009 354.125 682.199 360.089 671.401 366.902C669.952 364.506 663.584 354.78 662.163 351.729C666.051 348.524 669.478 344.999 673.031 341.446C679.301 335.176 682.032 326.258 685.683 318.247C686.087 317.355 686.547 316.421 687.104 315.571H687.09Z" fill="#020202" stroke="white" stroke-width="1.39335" stroke-miterlimit="10"/>
<path vector-effect="non-scaling-stroke" d="M710.749 324.223C709.76 324.641 709.189 327.289 709.105 328.194C708.952 329.88 709.481 331.664 710.638 332.918C712.449 334.896 716.058 335.51 718.427 334.228C716.908 335.398 717.2 338.394 718.343 339.926C719.486 341.459 722.063 342.184 723.958 341.989C725.519 341.835 726.759 341.306 727.762 340.094C729.991 337.363 729.504 334.478 727.846 332.486C726.787 331.218 724.613 330.257 722.969 330.424C725.867 326.132 723.471 319.43 716.03 320.336C717.312 317.284 716.685 313.063 713.884 310.917C711.752 309.287 708.492 309.022 706.04 310.095C704.145 310.917 701.4 313.996 701.748 317.535C702.403 324.223 708.659 325.101 710.763 324.223H710.749Z" fill="#020202" stroke="white" stroke-width="1.39335" stroke-miterlimit="10"/>
<path vector-effect="non-scaling-stroke" d="M664.17 340.456L633.167 359.378V406.348C639.159 401.318 673.31 378.578 684.22 373.158C686.268 372.141 666.483 342.713 664.17 340.456Z" fill="#202020" stroke="white" stroke-width="1.39335" stroke-miterlimit="10"/>
<path vector-effect="non-scaling-stroke" d="M701.372 381.782L712.797 404.926L738.351 408.646L719.862 426.662L724.223 452.105L701.372 440.094L678.521 452.105L682.882 426.662L664.406 408.646L689.946 404.926L701.372 381.782Z" fill="#020202" stroke="white" stroke-width="1.39335" stroke-miterlimit="10"/>
<path vector-effect="non-scaling-stroke" d="M221.348 480.069V531.163H296.729C296.729 531.163 298.679 519.306 283.325 508.243C270.367 498.893 263.776 491.049 261.547 480.083C259.317 469.103 221.348 480.083 221.348 480.083V480.069Z" fill="#404040" stroke="white" stroke-width="1.39335" stroke-miterlimit="10"/>
<path vector-effect="non-scaling-stroke" d="M221.348 531.163H296.729C296.729 531.163 298.289 521.59 287.491 511.628H221.348V531.163Z" fill="#020202" stroke="white" stroke-width="1.39335" stroke-miterlimit="10"/>
<path vector-effect="non-scaling-stroke" d="M394.597 480.069V531.163H469.978C469.978 531.163 471.928 519.306 456.574 508.243C443.616 498.893 437.025 491.049 434.796 480.083C432.566 469.103 394.597 480.083 394.597 480.083V480.069Z" fill="#404040" stroke="white" stroke-width="1.39335" stroke-miterlimit="10"/>
<path vector-effect="non-scaling-stroke" d="M394.597 531.163H469.978C469.978 531.163 471.538 521.59 460.74 511.628H394.597V531.163Z" fill="#020202" stroke="white" stroke-width="1.39335" stroke-miterlimit="10"/>
<path vector-effect="non-scaling-stroke" d="M353.229 134.393H333.625V166.565H353.229V134.393Z" fill="#020202" stroke="white" stroke-width="1.39335" stroke-miterlimit="10"/>
<path vector-effect="non-scaling-stroke" d="M443.421 392.024C442.083 381.615 440.578 371.026 436.05 361.565C432.427 353.971 426.993 347.422 421.629 340.943C407.194 323.554 392.772 306.165 378.337 288.776C365.003 272.697 357.59 259.99 338.223 250.905C326.323 245.331 311.888 239.479 299.905 247.143C290.375 253.246 283.506 263.919 281.597 275.024C280.733 280.068 280.9 285.07 281.889 289.988C260.892 343.841 224.553 444.344 208.71 488.416H275.494C289.274 455.811 313.031 396.663 331.103 349.457C332.9 350.683 334.656 351.853 336.355 352.926C346.917 359.67 358.064 365.731 367.232 374.286C368.026 375.025 368.779 375.791 369.503 376.571C388.174 396.803 382.503 429.56 383.66 455.783C383.743 457.79 384.44 473.493 384.956 488.416H449.677C447.963 454.432 444.466 400.189 443.421 392.037V392.024Z" fill="#020202" stroke="white" stroke-width="1.39335" stroke-miterlimit="10"/>
<path vector-effect="non-scaling-stroke" d="M472.946 109.591C446.138 135.313 375.077 202.221 370.785 198.306C365.156 193.178 342.472 159.083 346.861 157.634C374.115 148.675 408.754 120.209 434.657 95.5184C445.859 84.8453 478.157 104.575 472.946 109.591Z" fill="#202020" stroke="white" stroke-width="1.39335" stroke-miterlimit="10"/>
<path vector-effect="non-scaling-stroke" d="M412.071 165.131C412.558 166.399 421.197 163.877 422.075 163.709C419.929 150.166 417.114 136.734 413.631 123.483C410.886 123.358 389.415 129.53 385.848 130.771C391.407 134.045 397.036 137.389 401.579 141.973C406.121 146.543 411.276 162.664 412.084 165.131H412.071Z" fill="#020202" stroke="white" stroke-width="1.39335" stroke-miterlimit="10"/>
<path vector-effect="non-scaling-stroke" d="M351.515 100.354L350.136 100.117C335.937 98.1524 322.784 114.678 327.898 128.082C332.997 141.486 353.814 145.067 363.108 134.157C372.401 123.233 365.56 103.266 351.515 100.368V100.354Z" fill="#020202" stroke="white" stroke-width="1.39335" stroke-miterlimit="10"/>
<path vector-effect="non-scaling-stroke" d="M356.935 94.3347C350.763 89.3883 342.876 89.1933 335.812 91.8546C332.677 89.7088 328.971 87.2426 328.274 86.936C317.726 82.2126 307.75 81.2929 298.401 83.0486C278.281 86.8106 262.159 99.7131 251.096 116.391C245.286 125.156 240.172 135.369 233.08 143.158C226.922 149.929 217.057 153.65 213.629 162.707C210.396 171.234 215.482 181.545 223.717 185.488C231.938 189.431 242.179 187.634 249.619 182.353C257.06 177.072 261.95 168.795 264.737 160.115C271.3 139.674 267.677 117.45 288.438 104.005C297.913 97.8738 311.902 97.5812 322.311 101.998C317.462 108.547 315.901 116.893 321.043 124.57C324.08 129.113 328.72 132.304 333.234 135.369C329.667 128.388 332.301 120.711 337.707 115.987C339.909 114.065 342.57 112.629 345.468 111.933C348.297 111.25 351.237 111.236 354.065 110.581C356.894 109.926 359.764 108.463 361.032 105.844C362.955 101.873 360.363 97.0796 356.935 94.3208V94.3347Z" fill="#202020" stroke="white" stroke-width="1.39335" stroke-miterlimit="10"/>
<path vector-effect="non-scaling-stroke" d="M447.364 157.299C447.071 155.404 446.486 153.384 444.953 152.214C443.435 151.043 440.759 151.294 440.063 153.091C440.021 150.333 439.965 147.49 438.906 144.94C437.847 142.391 435.534 140.161 432.775 140.05C430.532 139.952 428.331 141.75 427.982 143.84C427.662 141.206 426.087 138.433 424.387 136.636C420.765 132.818 416.125 133.501 416.097 133.431C417.964 141.847 418.173 149.706 416.431 156.784C416.292 157.355 416.139 157.926 415.763 158.386C415.4 158.846 414.773 159.139 414.216 158.93C413.101 158.526 412.934 155.335 412.753 154.345C412.349 152.186 411.415 150.347 410.036 148.605C409.437 147.852 408.74 147.156 407.96 146.585C407.138 145.985 406.232 145.526 405.243 145.275C403.808 144.912 401.787 145.066 401.314 146.752C401.118 147.462 401.216 148.229 401.314 148.953C402.01 154.192 402.233 160.1 404.602 164.907C405.647 167.025 407.416 168.669 408.434 170.717C409.562 172.975 410.008 175.594 410.078 178.102C410.161 181.209 406.72 195.031 404.839 200.382C409.102 201.524 431.424 207.99 431.577 207.599C434.782 199.309 441.665 180.485 444.382 174.87C447.002 169.449 448.27 163.235 447.336 157.258L447.364 157.299Z" fill="#020202" stroke="white" stroke-width="1.39335" stroke-miterlimit="10"/>
<path vector-effect="non-scaling-stroke" d="M406.762 183.842C406.762 183.842 396.813 208.128 390.905 217.547C384.579 206.595 378.797 196.731 375.481 184.107C373.433 176.318 370.604 167.387 365.114 161.339C362.899 158.901 360.293 156.909 357.186 155.599C346.081 150.22 332.148 154.902 321.321 163.081C315.065 167.805 310.383 174.771 306.468 181.459C296.032 199.266 286.947 217.854 279.312 237.026C277.333 241.987 275.424 247.435 276.943 252.548C278.88 259.097 285.637 262.817 291.935 265.479C318.897 276.89 348.617 281.725 377.794 279.412C378.1 277.67 378.365 275.957 378.602 274.271C382.322 276.904 386.377 278.618 390.459 278.479C393.608 278.367 396.437 277.28 398.861 275.552C400.31 274.703 401.704 273.616 403.027 272.334C407.862 267.666 411.833 260.449 414.272 255.906C416.933 250.932 441.526 201.496 441.526 201.496L406.776 183.856L406.762 183.842Z" fill="#202020" stroke="white" stroke-width="1.39335" stroke-miterlimit="10"/>
<path vector-effect="non-scaling-stroke" d="M526.27 134.393C526.27 134.393 489.903 122.09 462.9 120.752C449.677 120.098 438.307 123.344 425.739 127.176C419.943 128.945 403.376 133.766 403.376 133.766L391.964 98.1244C391.964 98.1244 415.331 89.5692 425.934 85.835C458.553 74.3677 476.513 48.5071 495.254 21.2949L526.27 134.393Z" fill="#404040" stroke="white" stroke-width="1.39335" stroke-miterlimit="10"/>
<path vector-effect="non-scaling-stroke" d="M375.202 108.449C371.426 117.896 374.213 130.004 383.758 134.853C393.386 139.743 408.03 133.599 408.03 133.599L396.883 94.9609C396.883 94.9609 378.937 99.0992 375.202 108.449Z" fill="#020202" stroke="white" stroke-width="1.39335" stroke-miterlimit="10"/>
<path vector-effect="non-scaling-stroke" d="M530.31 133.278L499.294 20.1798C498.681 17.9505 496.396 16.6407 494.139 17.2398C491.909 17.8529 490.6 20.1659 491.213 22.3952L522.229 135.494C522.73 137.347 524.43 138.573 526.269 138.573C526.632 138.573 527.008 138.517 527.384 138.42C529.614 137.807 530.923 135.508 530.31 133.264V133.278Z" fill="#202020" stroke="white" stroke-width="1.39335" stroke-miterlimit="10"/>
<path vector-effect="non-scaling-stroke" d="M378.588 274.285C378.588 274.285 341.525 248.09 335.687 199.74Z" fill="#202020"/>
<path vector-effect="non-scaling-stroke" d="M378.588 274.285C378.588 274.285 341.525 248.09 335.687 199.74" stroke="white" stroke-width="1.39335" stroke-miterlimit="10"/>
<path vector-effect="non-scaling-stroke" d="M643.06 461.942C649.233 459.546 655.015 461.775 658.931 466.345C663.793 472.016 663.821 479.875 661.341 486.925C656.506 500.635 642.015 510.11 629.573 517.62C621.589 514.304 614.775 509.79 608.143 504.23C601.524 498.671 595.617 491.467 595.045 482.842C594.474 474.218 598.097 465.189 605.37 462.806C617.339 458.905 625.657 470.678 628.932 477.798C631.189 471.361 637.724 463.99 643.046 461.928L643.06 461.942Z" fill="#A100FF" stroke="white" stroke-width="1.39335" stroke-miterlimit="10"/>
<path vector-effect="non-scaling-stroke" d="M734.046 215.624C749.121 215.624 761.342 203.403 761.342 188.328C761.342 173.253 749.121 161.032 734.046 161.032C718.971 161.032 706.75 173.253 706.75 188.328C706.75 203.403 718.971 215.624 734.046 215.624Z" fill="#020202" stroke="white" stroke-width="1.39335" stroke-miterlimit="10"/>
<path vector-effect="non-scaling-stroke" d="M718.817 193.609C720.726 200.019 725.63 205.049 734.046 205.049C742.462 205.049 747.966 199.935 749.275 193.609" fill="#020202"/>
<path vector-effect="non-scaling-stroke" d="M718.817 193.609C720.726 200.019 725.63 205.049 734.046 205.049C742.462 205.049 747.966 199.935 749.275 193.609" stroke="white" stroke-width="1.39335" stroke-miterlimit="10" stroke-linecap="round"/>
<path vector-effect="non-scaling-stroke" d="M723.707 184.734C725.693 184.734 727.302 183.124 727.302 181.139C727.302 179.153 725.693 177.544 723.707 177.544C721.722 177.544 720.113 179.153 720.113 181.139C720.113 183.124 721.722 184.734 723.707 184.734Z" fill="#020202" stroke="white" stroke-width="1.39335" stroke-miterlimit="10" stroke-linecap="round"/>
<path vector-effect="non-scaling-stroke" d="M744.371 184.734C746.356 184.734 747.966 183.124 747.966 181.139C747.966 179.153 746.356 177.544 744.371 177.544C742.385 177.544 740.776 179.153 740.776 181.139C740.776 183.124 742.385 184.734 744.371 184.734Z" fill="#020202" stroke="white" stroke-width="1.39335" stroke-miterlimit="10" stroke-linecap="round"/>
<path vector-effect="non-scaling-stroke" d="M15.4523 414.416C6.66024 425.507 1.37943 439.232 0.766357 453.722L68.5948 456.662L15.4523 414.43V414.416Z" fill="#A2A2A0" stroke="white" stroke-width="1.39335" stroke-miterlimit="10"/>
<path vector-effect="non-scaling-stroke" d="M2.84223 473.577C4.77899 481.101 7.92797 487.998 11.9826 494.143C19.9665 506.195 31.5453 515.266 44.8239 520.24C57.4059 524.95 71.4927 525.995 85.4959 522.4C85.9139 522.289 86.318 522.163 86.7221 522.052C101.06 518.081 113.07 509.762 121.695 498.894L68.5527 456.662L0.724332 453.722C0.445661 460.257 1.10054 466.931 2.81436 473.591L2.84223 473.577Z" fill="#020202" stroke="white" stroke-width="1.39335" stroke-linejoin="round"/>
<path vector-effect="non-scaling-stroke" d="M51.6515 390.909C51.2334 391.021 50.8294 391.146 50.4253 391.258C36.0877 395.229 24.077 403.547 15.4521 414.401L68.5946 456.634L92.3374 393.055C79.7554 388.346 65.6686 387.301 51.6654 390.895L51.6515 390.909Z" fill="#202020" stroke="white" stroke-width="1.39335" stroke-linejoin="round"/>
<path vector-effect="non-scaling-stroke" d="M68.5808 456.648L121.723 498.88C130.515 487.789 135.796 474.064 136.409 459.574C136.688 453.039 136.033 446.365 134.319 439.704C132.382 432.18 129.233 425.283 125.165 419.139C117.181 407.086 105.602 398.015 92.3235 393.041L68.5808 456.62V456.648Z" fill="#020202" stroke="white" stroke-width="1.39335" stroke-linejoin="round"/>
<path vector-effect="non-scaling-stroke" d="M136.758 298.264H19.1589C10.6037 298.264 3.67871 305.189 3.67871 313.745V355.434C3.67871 363.989 10.6037 370.914 19.1589 370.914H151.736C160.292 370.914 167.217 363.989 167.217 355.434V274.146L136.758 298.278V298.264Z" fill="black" stroke="white" stroke-width="1.39335" stroke-linecap="round" stroke-linejoin="round"/>
<path vector-effect="non-scaling-stroke" d="M23.0464 315.932H67.2017" stroke="white" stroke-width="1.39335"/>
<path vector-effect="non-scaling-stroke" d="M23.0464 329.044H109.002" stroke="white" stroke-width="1.39335"/>
<path vector-effect="non-scaling-stroke" d="M23.0464 342.154H53.2682" stroke="white" stroke-width="1.39335"/>
<path vector-effect="non-scaling-stroke" d="M23.0464 355.267H67.2017" stroke="white" stroke-width="1.39335"/>
<path vector-effect="non-scaling-stroke" d="M81.7344 315.932H142.68" stroke="white" stroke-width="1.39335"/>
<path vector-effect="non-scaling-stroke" d="M123.535 329.044H142.68" stroke="white" stroke-width="1.39335"/>
<path vector-effect="non-scaling-stroke" d="M67.801 342.154H142.68" stroke="white" stroke-width="1.39335"/>
<path vector-effect="non-scaling-stroke" d="M81.7344 355.267H142.68" stroke="white" stroke-width="1.39335"/>
<path vector-effect="non-scaling-stroke" d="M528.61 72.3597L598.585 50.707" stroke="white" stroke-width="1.39335" stroke-miterlimit="10" stroke-linecap="round"/>
<path vector-effect="non-scaling-stroke" d="M524.277 50.3445C556.073 38.3199 575.441 4.64258 575.441 4.64258" stroke="white" stroke-width="1.39335" stroke-miterlimit="10" stroke-linecap="round"/>
<path vector-effect="non-scaling-stroke" d="M536.998 96.8824C568.432 83.6038 600.981 96.4923 600.981 96.4923" stroke="white" stroke-width="1.39335" stroke-miterlimit="10" stroke-linecap="round"/>
</g>
</g>
<defs>
<clipPath id="clip0_20_14630">
<rect width="802" height="535" fill="white"/>
</clipPath>
<clipPath id="clip1_20_14630">
<rect width="802" height="527.913" fill="white" transform="translate(0 3.94629)"/>
</clipPath>
</defs>
</svg>
