<svg width="80" height="80" viewBox="0 0 80 80" fill="none" xmlns="http://www.w3.org/2000/svg">
<path vector-effect="non-scaling-stroke" d="M0.5 45.6195C0.5 40.4985 4.65135 36.3472 9.7723 36.3472C14.8933 36.3472 19.0446 40.4985 19.0446 45.6195V66.3894H0.5V45.6195Z" fill="#A100FF" stroke="white" stroke-linecap="round" stroke-linejoin="round"/>
<path vector-effect="non-scaling-stroke" d="M60.5845 45.6195C60.5845 40.4985 64.7359 36.3472 69.8568 36.3472C74.9778 36.3472 79.1291 40.4985 79.1291 45.6195V66.3894H60.5845V45.6195Z" fill="#A100FF" stroke="white" stroke-linecap="round" stroke-linejoin="round"/>
<rect x="0.87088" y="13.8354" width="18.5446" height="18.5446" rx="9.2723" fill="#202020" stroke="white" stroke-linecap="round" stroke-linejoin="round"/>
<rect x="60.9554" y="13.8354" width="18.5446" height="18.5446" rx="9.2723" fill="#202020" stroke="white" stroke-linecap="round" stroke-linejoin="round"/>
<path vector-effect="non-scaling-stroke" d="M42.73 15.8267L50.014 23.1106L42.7361 30.3884" stroke="white" stroke-linecap="round" stroke-linejoin="round"/>
<path vector-effect="non-scaling-stroke" d="M49.3514 23.1076L30.357 23.108" stroke="white" stroke-linecap="round" stroke-linejoin="round"/>
<path vector-effect="non-scaling-stroke" d="M37.27 58.6489L29.986 51.365L37.2639 44.0872" stroke="white" stroke-linecap="round" stroke-linejoin="round"/>
<path vector-effect="non-scaling-stroke" d="M30.6486 51.3685L49.643 51.3681" stroke="white" stroke-linecap="round" stroke-linejoin="round"/>
</svg>
