<svg width="80" height="80" viewBox="0 0 80 80" fill="none" xmlns="http://www.w3.org/2000/svg">
<path vector-effect="non-scaling-stroke" d="M25.9676 23.7484H53.4822C53.6476 23.7405 53.8134 23.7673 53.9677 23.8272C54.1221 23.8871 54.2614 23.9787 54.3782 24.096C54.4949 24.2133 54.5871 24.3538 54.6462 24.5085C54.7053 24.6631 54.73 24.8283 54.7213 24.9936C54.7213 33.0672 51.7656 38.8616 45.9285 43.9353L45.9285 59.7358C45.9378 59.9013 45.9125 60.0669 45.8535 60.2218C45.7945 60.3767 45.7025 60.5173 45.5855 60.6347C45.4684 60.752 45.3282 60.8434 45.1735 60.9028C45.0188 60.9622 44.8535 60.9884 44.688 60.9796H34.6501C34.3353 60.9379 34.0441 60.7933 33.82 60.5683C33.5959 60.3434 33.4515 60.0507 33.4111 59.7358V43.8888C27.7729 40.382 24.7271 33.4798 24.7271 24.9936C24.7295 24.6649 24.8611 24.3503 25.0931 24.1174C25.3251 23.8846 25.639 23.7521 25.9676 23.7484Z" stroke="white" stroke-linejoin="round"/>
<ellipse cx="39.725" cy="10.6106" rx="9.66918" ry="9.66918" fill="#A100FF" stroke="white"/>
<path vector-effect="non-scaling-stroke" d="M20.7719 42.9428C8.67813 45.4123 0.5 50.1391 0.5 55.5645C0.5 62.5651 14.1166 68.4026 32.1922 69.728M58.2465 42.749C70.8773 45.1592 79.5 49.9936 79.5 55.5645C79.5 63.3495 62.661 69.6962 41.5766 69.9989" stroke="white" stroke-linecap="round" stroke-linejoin="round"/>
<path vector-effect="non-scaling-stroke" d="M20.3589 76.6027L33.1449 70.018L24.5035 58.5217" stroke="white" stroke-linecap="round" stroke-linejoin="round"/>
</svg>
