<svg width="802" height="535" viewBox="0 0 802 535" fill="none" xmlns="http://www.w3.org/2000/svg">
<g clip-path="url(#clip0_20_10711)">
<g clip-path="url(#clip1_20_10711)">
<path vector-effect="non-scaling-stroke" d="M166.234 18.8068C166.234 22.4504 164.22 25.4091 161.727 25.4091C159.234 25.4091 157.221 22.4504 157.221 18.8068C157.221 15.1633 159.234 12.2046 161.727 12.2046C164.22 12.2046 166.234 15.1633 166.234 18.8068Z" fill="#020202" stroke="white" stroke-width="1.36976" stroke-miterlimit="10"/>
<path vector-effect="non-scaling-stroke" d="M171.864 12.2046V25.4091Z" fill="#020202"/>
<path vector-effect="non-scaling-stroke" d="M171.864 12.2046V25.4091" stroke="white" stroke-width="1.36976" stroke-miterlimit="10"/>
<path vector-effect="non-scaling-stroke" d="M166.234 36.4084C166.234 40.0519 164.22 43.0106 161.727 43.0106C159.234 43.0106 157.221 40.0519 157.221 36.4084C157.221 32.7648 159.234 29.8062 161.727 29.8062C164.22 29.8062 166.234 32.7648 166.234 36.4084Z" fill="#020202" stroke="white" stroke-width="1.36976" stroke-miterlimit="10"/>
<path vector-effect="non-scaling-stroke" d="M171.864 29.8062V43.0106Z" fill="#020202"/>
<path vector-effect="non-scaling-stroke" d="M171.864 29.8062V43.0106" stroke="white" stroke-width="1.36976" stroke-miterlimit="10"/>
<path vector-effect="non-scaling-stroke" d="M166.234 56.2287C166.234 59.8723 164.22 62.8309 161.727 62.8309C159.234 62.8309 157.221 59.8723 157.221 56.2287C157.221 52.5851 159.234 49.6265 161.727 49.6265C164.22 49.6265 166.234 52.5851 166.234 56.2287Z" fill="#020202" stroke="white" stroke-width="1.36976" stroke-miterlimit="10"/>
<path vector-effect="non-scaling-stroke" d="M171.864 49.6265V62.8309Z" fill="#020202"/>
<path vector-effect="non-scaling-stroke" d="M171.864 49.6265V62.8309" stroke="white" stroke-width="1.36976" stroke-miterlimit="10"/>
<path vector-effect="non-scaling-stroke" d="M166.234 73.8439C166.234 77.4875 164.22 80.4462 161.727 80.4462C159.234 80.4462 157.221 77.4875 157.221 73.8439C157.221 70.2004 159.234 67.2417 161.727 67.2417C164.22 67.2417 166.234 70.2004 166.234 73.8439Z" fill="#020202" stroke="white" stroke-width="1.36976" stroke-miterlimit="10"/>
<path vector-effect="non-scaling-stroke" d="M171.864 67.2417V80.4462Z" fill="#020202"/>
<path vector-effect="non-scaling-stroke" d="M171.864 67.2417V80.4462" stroke="white" stroke-width="1.36976" stroke-miterlimit="10"/>
<path vector-effect="non-scaling-stroke" d="M178.63 12.2046V25.4091Z" fill="#020202"/>
<path vector-effect="non-scaling-stroke" d="M178.63 12.2046V25.4091" stroke="white" stroke-width="1.36976" stroke-miterlimit="10"/>
<path vector-effect="non-scaling-stroke" d="M193.286 18.8068C193.286 22.4504 191.273 25.4091 188.78 25.4091C186.287 25.4091 184.273 22.4504 184.273 18.8068C184.273 15.1633 186.287 12.2046 188.78 12.2046C191.273 12.2046 193.286 15.1633 193.286 18.8068Z" fill="#020202" stroke="white" stroke-width="1.36976" stroke-miterlimit="10"/>
<path vector-effect="non-scaling-stroke" d="M198.93 12.2046V25.4091Z" fill="#020202"/>
<path vector-effect="non-scaling-stroke" d="M198.93 12.2046V25.4091" stroke="white" stroke-width="1.36976" stroke-miterlimit="10"/>
<path vector-effect="non-scaling-stroke" d="M213.586 18.8068C213.586 22.4504 211.573 25.4091 209.08 25.4091C206.587 25.4091 204.573 22.4504 204.573 18.8068C204.573 15.1633 206.587 12.2046 209.08 12.2046C211.573 12.2046 213.586 15.1633 213.586 18.8068Z" fill="#020202" stroke="white" stroke-width="1.36976" stroke-miterlimit="10"/>
<path vector-effect="non-scaling-stroke" d="M219.216 12.2046V25.4091Z" fill="#020202"/>
<path vector-effect="non-scaling-stroke" d="M219.216 12.2046V25.4091" stroke="white" stroke-width="1.36976" stroke-miterlimit="10"/>
<path vector-effect="non-scaling-stroke" d="M225.983 12.2046V25.4091Z" fill="#020202"/>
<path vector-effect="non-scaling-stroke" d="M225.983 12.2046V25.4091" stroke="white" stroke-width="1.36976" stroke-miterlimit="10"/>
<path vector-effect="non-scaling-stroke" d="M186.52 36.4084C186.52 40.0519 184.506 43.0106 182.013 43.0106C179.52 43.0106 177.507 40.0519 177.507 36.4084C177.507 32.7648 179.52 29.8062 182.013 29.8062C184.506 29.8062 186.52 32.7648 186.52 36.4084Z" fill="#020202" stroke="white" stroke-width="1.36976" stroke-miterlimit="10"/>
<path vector-effect="non-scaling-stroke" d="M192.163 29.8062V43.0106Z" fill="#020202"/>
<path vector-effect="non-scaling-stroke" d="M192.163 29.8062V43.0106" stroke="white" stroke-width="1.36976" stroke-miterlimit="10"/>
<path vector-effect="non-scaling-stroke" d="M206.82 36.4084C206.82 40.0519 204.806 43.0106 202.313 43.0106C199.82 43.0106 197.807 40.0519 197.807 36.4084C197.807 32.7648 199.82 29.8062 202.313 29.8062C204.806 29.8062 206.82 32.7648 206.82 36.4084Z" fill="#020202" stroke="white" stroke-width="1.36976" stroke-miterlimit="10"/>
<path vector-effect="non-scaling-stroke" d="M212.449 29.8062V43.0106Z" fill="#020202"/>
<path vector-effect="non-scaling-stroke" d="M212.449 29.8062V43.0106" stroke="white" stroke-width="1.36976" stroke-miterlimit="10"/>
<path vector-effect="non-scaling-stroke" d="M227.106 36.4084C227.106 40.0519 225.092 43.0106 222.599 43.0106C220.106 43.0106 218.093 40.0519 218.093 36.4084C218.093 32.7648 220.106 29.8062 222.599 29.8062C225.092 29.8062 227.106 32.7648 227.106 36.4084Z" fill="#020202" stroke="white" stroke-width="1.36976" stroke-miterlimit="10"/>
<path vector-effect="non-scaling-stroke" d="M178.63 49.6265V62.8309Z" fill="#020202"/>
<path vector-effect="non-scaling-stroke" d="M178.63 49.6265V62.8309" stroke="white" stroke-width="1.36976" stroke-miterlimit="10"/>
<path vector-effect="non-scaling-stroke" d="M193.286 56.2287C193.286 59.8723 191.273 62.8309 188.78 62.8309C186.287 62.8309 184.273 59.8723 184.273 56.2287C184.273 52.5851 186.287 49.6265 188.78 49.6265C191.273 49.6265 193.286 52.5851 193.286 56.2287Z" fill="#020202" stroke="white" stroke-width="1.36976" stroke-miterlimit="10"/>
<path vector-effect="non-scaling-stroke" d="M198.93 49.6265V62.8309Z" fill="#020202"/>
<path vector-effect="non-scaling-stroke" d="M198.93 49.6265V62.8309" stroke="white" stroke-width="1.36976" stroke-miterlimit="10"/>
<path vector-effect="non-scaling-stroke" d="M213.586 56.2287C213.586 59.8723 211.573 62.8309 209.08 62.8309C206.587 62.8309 204.573 59.8723 204.573 56.2287C204.573 52.5851 206.587 49.6265 209.08 49.6265C211.573 49.6265 213.586 52.5851 213.586 56.2287Z" fill="#020202" stroke="white" stroke-width="1.36976" stroke-miterlimit="10"/>
<path vector-effect="non-scaling-stroke" d="M219.216 49.6265V62.8309Z" fill="#020202"/>
<path vector-effect="non-scaling-stroke" d="M219.216 49.6265V62.8309" stroke="white" stroke-width="1.36976" stroke-miterlimit="10"/>
<path vector-effect="non-scaling-stroke" d="M225.983 49.6265V62.8309Z" fill="#020202"/>
<path vector-effect="non-scaling-stroke" d="M225.983 49.6265V62.8309" stroke="white" stroke-width="1.36976" stroke-miterlimit="10"/>
<path vector-effect="non-scaling-stroke" d="M186.52 73.8439C186.52 77.4875 184.506 80.4462 182.013 80.4462C179.52 80.4462 177.507 77.4875 177.507 73.8439C177.507 70.2004 179.52 67.2417 182.013 67.2417C184.506 67.2417 186.52 70.2004 186.52 73.8439Z" fill="#020202" stroke="white" stroke-width="1.36976" stroke-miterlimit="10"/>
<path vector-effect="non-scaling-stroke" d="M192.163 67.2417V80.4462Z" fill="#020202"/>
<path vector-effect="non-scaling-stroke" d="M192.163 67.2417V80.4462" stroke="white" stroke-width="1.36976" stroke-miterlimit="10"/>
<path vector-effect="non-scaling-stroke" d="M212.449 67.2417V80.4462Z" fill="#020202"/>
<path vector-effect="non-scaling-stroke" d="M212.449 67.2417V80.4462" stroke="white" stroke-width="1.36976" stroke-miterlimit="10"/>
<path vector-effect="non-scaling-stroke" d="M227.106 73.8439C227.106 77.4875 225.092 80.4462 222.599 80.4462C220.106 80.4462 218.093 77.4875 218.093 73.8439C218.093 70.2004 220.106 67.2417 222.599 67.2417C225.092 67.2417 227.106 70.2004 227.106 73.8439Z" fill="#020202" stroke="white" stroke-width="1.36976" stroke-miterlimit="10"/>
<path vector-effect="non-scaling-stroke" d="M205.683 67.2417V80.4462Z" fill="#020202"/>
<path vector-effect="non-scaling-stroke" d="M205.683 67.2417V80.4462" stroke="white" stroke-width="1.36976" stroke-miterlimit="10"/>
<path vector-effect="non-scaling-stroke" d="M198.93 67.2417V80.4462Z" fill="#020202"/>
<path vector-effect="non-scaling-stroke" d="M198.93 67.2417V80.4462" stroke="white" stroke-width="1.36976" stroke-miterlimit="10"/>
<path vector-effect="non-scaling-stroke" d="M241.036 18.8068C241.036 22.4504 239.023 25.4091 236.53 25.4091C234.037 25.4091 232.023 22.4504 232.023 18.8068C232.023 15.1633 234.037 12.2046 236.53 12.2046C239.023 12.2046 241.036 15.1633 241.036 18.8068Z" fill="#020202" stroke="white" stroke-width="1.36976" stroke-miterlimit="10"/>
<path vector-effect="non-scaling-stroke" d="M246.68 12.2046V25.4091Z" fill="#020202"/>
<path vector-effect="non-scaling-stroke" d="M246.68 12.2046V25.4091" stroke="white" stroke-width="1.36976" stroke-miterlimit="10"/>
<path vector-effect="non-scaling-stroke" d="M241.036 36.4084C241.036 40.0519 239.023 43.0106 236.53 43.0106C234.037 43.0106 232.023 40.0519 232.023 36.4084C232.023 32.7648 234.037 29.8062 236.53 29.8062C239.023 29.8062 241.036 32.7648 241.036 36.4084Z" fill="#020202" stroke="white" stroke-width="1.36976" stroke-miterlimit="10"/>
<path vector-effect="non-scaling-stroke" d="M246.68 29.8062V43.0106Z" fill="#020202"/>
<path vector-effect="non-scaling-stroke" d="M246.68 29.8062V43.0106" stroke="white" stroke-width="1.36976" stroke-miterlimit="10"/>
<path vector-effect="non-scaling-stroke" d="M241.036 56.2287C241.036 59.8723 239.023 62.8309 236.53 62.8309C234.037 62.8309 232.023 59.8723 232.023 56.2287C232.023 52.5851 234.037 49.6265 236.53 49.6265C239.023 49.6265 241.036 52.5851 241.036 56.2287Z" fill="#020202" stroke="white" stroke-width="1.36976" stroke-miterlimit="10"/>
<path vector-effect="non-scaling-stroke" d="M246.68 49.6265V62.8309Z" fill="#020202"/>
<path vector-effect="non-scaling-stroke" d="M246.68 49.6265V62.8309" stroke="white" stroke-width="1.36976" stroke-miterlimit="10"/>
<path vector-effect="non-scaling-stroke" d="M241.036 73.8439C241.036 77.4875 239.023 80.4462 236.53 80.4462C234.037 80.4462 232.023 77.4875 232.023 73.8439C232.023 70.2004 234.037 67.2417 236.53 67.2417C239.023 67.2417 241.036 70.2004 241.036 73.8439Z" fill="#020202" stroke="white" stroke-width="1.36976" stroke-miterlimit="10"/>
<path vector-effect="non-scaling-stroke" d="M246.68 67.2417V80.4462Z" fill="#020202"/>
<path vector-effect="non-scaling-stroke" d="M246.68 67.2417V80.4462" stroke="white" stroke-width="1.36976" stroke-miterlimit="10"/>
<path vector-effect="non-scaling-stroke" d="M253.433 12.2046V25.4091Z" fill="#020202"/>
<path vector-effect="non-scaling-stroke" d="M253.433 12.2046V25.4091" stroke="white" stroke-width="1.36976" stroke-miterlimit="10"/>
<path vector-effect="non-scaling-stroke" d="M268.103 18.8068C268.103 22.4504 266.089 25.4091 263.596 25.4091C261.103 25.4091 259.09 22.4504 259.09 18.8068C259.09 15.1633 261.103 12.2046 263.596 12.2046C266.089 12.2046 268.103 15.1633 268.103 18.8068Z" fill="#020202" stroke="white" stroke-width="1.36976" stroke-miterlimit="10"/>
<path vector-effect="non-scaling-stroke" d="M273.732 12.2046V25.4091Z" fill="#020202"/>
<path vector-effect="non-scaling-stroke" d="M273.732 12.2046V25.4091" stroke="white" stroke-width="1.36976" stroke-miterlimit="10"/>
<path vector-effect="non-scaling-stroke" d="M288.389 18.8068C288.389 22.4504 286.375 25.4091 283.882 25.4091C281.389 25.4091 279.376 22.4504 279.376 18.8068C279.376 15.1633 281.389 12.2046 283.882 12.2046C286.375 12.2046 288.389 15.1633 288.389 18.8068Z" fill="#020202" stroke="white" stroke-width="1.36976" stroke-miterlimit="10"/>
<path vector-effect="non-scaling-stroke" d="M294.032 12.2046V25.4091Z" fill="#020202"/>
<path vector-effect="non-scaling-stroke" d="M294.032 12.2046V25.4091" stroke="white" stroke-width="1.36976" stroke-miterlimit="10"/>
<path vector-effect="non-scaling-stroke" d="M300.799 12.2046V25.4091Z" fill="#020202"/>
<path vector-effect="non-scaling-stroke" d="M300.799 12.2046V25.4091" stroke="white" stroke-width="1.36976" stroke-miterlimit="10"/>
<path vector-effect="non-scaling-stroke" d="M261.336 36.4084C261.336 40.0519 259.322 43.0106 256.829 43.0106C254.337 43.0106 252.323 40.0519 252.323 36.4084C252.323 32.7648 254.337 29.8062 256.829 29.8062C259.322 29.8062 261.336 32.7648 261.336 36.4084Z" fill="#020202" stroke="white" stroke-width="1.36976" stroke-miterlimit="10"/>
<path vector-effect="non-scaling-stroke" d="M266.966 29.8062V43.0106Z" fill="#020202"/>
<path vector-effect="non-scaling-stroke" d="M266.966 29.8062V43.0106" stroke="white" stroke-width="1.36976" stroke-miterlimit="10"/>
<path vector-effect="non-scaling-stroke" d="M281.622 36.4084C281.622 40.0519 279.609 43.0106 277.116 43.0106C274.623 43.0106 272.609 40.0519 272.609 36.4084C272.609 32.7648 274.623 29.8062 277.116 29.8062C279.609 29.8062 281.622 32.7648 281.622 36.4084Z" fill="#020202" stroke="white" stroke-width="1.36976" stroke-miterlimit="10"/>
<path vector-effect="non-scaling-stroke" d="M287.266 29.8062V43.0106Z" fill="#020202"/>
<path vector-effect="non-scaling-stroke" d="M287.266 29.8062V43.0106" stroke="white" stroke-width="1.36976" stroke-miterlimit="10"/>
<path vector-effect="non-scaling-stroke" d="M301.922 36.4084C301.922 40.0519 299.908 43.0106 297.415 43.0106C294.922 43.0106 292.909 40.0519 292.909 36.4084C292.909 32.7648 294.922 29.8062 297.415 29.8062C299.908 29.8062 301.922 32.7648 301.922 36.4084Z" fill="#020202" stroke="white" stroke-width="1.36976" stroke-miterlimit="10"/>
<path vector-effect="non-scaling-stroke" d="M253.433 49.6265V62.8309Z" fill="#020202"/>
<path vector-effect="non-scaling-stroke" d="M253.433 49.6265V62.8309" stroke="white" stroke-width="1.36976" stroke-miterlimit="10"/>
<path vector-effect="non-scaling-stroke" d="M268.103 56.2287C268.103 59.8723 266.089 62.8309 263.596 62.8309C261.103 62.8309 259.09 59.8723 259.09 56.2287C259.09 52.5851 261.103 49.6265 263.596 49.6265C266.089 49.6265 268.103 52.5851 268.103 56.2287Z" fill="#020202" stroke="white" stroke-width="1.36976" stroke-miterlimit="10"/>
<path vector-effect="non-scaling-stroke" d="M273.732 49.6265V62.8309Z" fill="#020202"/>
<path vector-effect="non-scaling-stroke" d="M273.732 49.6265V62.8309" stroke="white" stroke-width="1.36976" stroke-miterlimit="10"/>
<path vector-effect="non-scaling-stroke" d="M288.389 56.2287C288.389 59.8723 286.375 62.8309 283.882 62.8309C281.389 62.8309 279.376 59.8723 279.376 56.2287C279.376 52.5851 281.389 49.6265 283.882 49.6265C286.375 49.6265 288.389 52.5851 288.389 56.2287Z" fill="#020202" stroke="white" stroke-width="1.36976" stroke-miterlimit="10"/>
<path vector-effect="non-scaling-stroke" d="M294.032 49.6265V62.8309Z" fill="#020202"/>
<path vector-effect="non-scaling-stroke" d="M294.032 49.6265V62.8309" stroke="white" stroke-width="1.36976" stroke-miterlimit="10"/>
<path vector-effect="non-scaling-stroke" d="M300.799 49.6265V62.8309Z" fill="#020202"/>
<path vector-effect="non-scaling-stroke" d="M300.799 49.6265V62.8309" stroke="white" stroke-width="1.36976" stroke-miterlimit="10"/>
<path vector-effect="non-scaling-stroke" d="M261.336 73.8439C261.336 77.4875 259.322 80.4462 256.829 80.4462C254.337 80.4462 252.323 77.4875 252.323 73.8439C252.323 70.2004 254.337 67.2417 256.829 67.2417C259.322 67.2417 261.336 70.2004 261.336 73.8439Z" fill="#020202" stroke="white" stroke-width="1.36976" stroke-miterlimit="10"/>
<path vector-effect="non-scaling-stroke" d="M266.966 67.2417V80.4462Z" fill="#020202"/>
<path vector-effect="non-scaling-stroke" d="M266.966 67.2417V80.4462" stroke="white" stroke-width="1.36976" stroke-miterlimit="10"/>
<path vector-effect="non-scaling-stroke" d="M287.266 67.2417V80.4462Z" fill="#020202"/>
<path vector-effect="non-scaling-stroke" d="M287.266 67.2417V80.4462" stroke="white" stroke-width="1.36976" stroke-miterlimit="10"/>
<path vector-effect="non-scaling-stroke" d="M301.922 73.8439C301.922 77.4875 299.908 80.4462 297.415 80.4462C294.922 80.4462 292.909 77.4875 292.909 73.8439C292.909 70.2004 294.922 67.2417 297.415 67.2417C299.908 67.2417 301.922 70.2004 301.922 73.8439Z" fill="#020202" stroke="white" stroke-width="1.36976" stroke-miterlimit="10"/>
<path vector-effect="non-scaling-stroke" d="M280.499 67.2417V80.4462Z" fill="#020202"/>
<path vector-effect="non-scaling-stroke" d="M280.499 67.2417V80.4462" stroke="white" stroke-width="1.36976" stroke-miterlimit="10"/>
<path vector-effect="non-scaling-stroke" d="M273.732 67.2417V80.4462Z" fill="#020202"/>
<path vector-effect="non-scaling-stroke" d="M273.732 67.2417V80.4462" stroke="white" stroke-width="1.36976" stroke-miterlimit="10"/>
<path vector-effect="non-scaling-stroke" d="M213.778 451.102C213.778 454.746 211.764 457.704 209.271 457.704C206.778 457.704 204.765 454.746 204.765 451.102C204.765 447.459 206.778 444.5 209.271 444.5C211.764 444.5 213.778 447.459 213.778 451.102Z" fill="#020202" stroke="white" stroke-width="1.36976" stroke-miterlimit="10"/>
<path vector-effect="non-scaling-stroke" d="M219.421 444.5V457.704Z" fill="#020202"/>
<path vector-effect="non-scaling-stroke" d="M219.421 444.5V457.704" stroke="white" stroke-width="1.36976" stroke-miterlimit="10"/>
<path vector-effect="non-scaling-stroke" d="M213.778 468.717C213.778 472.361 211.764 475.32 209.271 475.32C206.778 475.32 204.765 472.361 204.765 468.717C204.765 465.074 206.778 462.115 209.271 462.115C211.764 462.115 213.778 465.074 213.778 468.717Z" fill="#020202" stroke="white" stroke-width="1.36976" stroke-miterlimit="10"/>
<path vector-effect="non-scaling-stroke" d="M219.421 462.115V475.32Z" fill="#020202"/>
<path vector-effect="non-scaling-stroke" d="M219.421 462.115V475.32" stroke="white" stroke-width="1.36976" stroke-miterlimit="10"/>
<path vector-effect="non-scaling-stroke" d="M213.778 488.524C213.778 492.168 211.764 495.126 209.271 495.126C206.778 495.126 204.765 492.168 204.765 488.524C204.765 484.881 206.778 481.922 209.271 481.922C211.764 481.922 213.778 484.881 213.778 488.524Z" fill="#020202" stroke="white" stroke-width="1.36976" stroke-miterlimit="10"/>
<path vector-effect="non-scaling-stroke" d="M219.421 481.922V495.126Z" fill="#020202"/>
<path vector-effect="non-scaling-stroke" d="M219.421 481.922V495.126" stroke="white" stroke-width="1.36976" stroke-miterlimit="10"/>
<path vector-effect="non-scaling-stroke" d="M213.778 506.139C213.778 509.783 211.764 512.742 209.271 512.742C206.778 512.742 204.765 509.783 204.765 506.139C204.765 502.496 206.778 499.537 209.271 499.537C211.764 499.537 213.778 502.496 213.778 506.139Z" fill="#020202" stroke="white" stroke-width="1.36976" stroke-miterlimit="10"/>
<path vector-effect="non-scaling-stroke" d="M219.421 499.537V512.742Z" fill="#020202"/>
<path vector-effect="non-scaling-stroke" d="M219.421 499.537V512.742" stroke="white" stroke-width="1.36976" stroke-miterlimit="10"/>
<path vector-effect="non-scaling-stroke" d="M226.188 444.5V457.704Z" fill="#020202"/>
<path vector-effect="non-scaling-stroke" d="M226.188 444.5V457.704" stroke="white" stroke-width="1.36976" stroke-miterlimit="10"/>
<path vector-effect="non-scaling-stroke" d="M240.844 451.102C240.844 454.746 238.831 457.704 236.338 457.704C233.845 457.704 231.831 454.746 231.831 451.102C231.831 447.459 233.845 444.5 236.338 444.5C238.831 444.5 240.844 447.459 240.844 451.102Z" fill="#020202" stroke="white" stroke-width="1.36976" stroke-miterlimit="10"/>
<path vector-effect="non-scaling-stroke" d="M246.474 444.5V457.704Z" fill="#020202"/>
<path vector-effect="non-scaling-stroke" d="M246.474 444.5V457.704" stroke="white" stroke-width="1.36976" stroke-miterlimit="10"/>
<path vector-effect="non-scaling-stroke" d="M261.13 451.102C261.13 454.746 259.117 457.704 256.624 457.704C254.131 457.704 252.117 454.746 252.117 451.102C252.117 447.459 254.131 444.5 256.624 444.5C259.117 444.5 261.13 447.459 261.13 451.102Z" fill="#020202" stroke="white" stroke-width="1.36976" stroke-miterlimit="10"/>
<path vector-effect="non-scaling-stroke" d="M266.774 444.5V457.704Z" fill="#020202"/>
<path vector-effect="non-scaling-stroke" d="M266.774 444.5V457.704" stroke="white" stroke-width="1.36976" stroke-miterlimit="10"/>
<path vector-effect="non-scaling-stroke" d="M273.541 444.5V457.704Z" fill="#020202"/>
<path vector-effect="non-scaling-stroke" d="M273.541 444.5V457.704" stroke="white" stroke-width="1.36976" stroke-miterlimit="10"/>
<path vector-effect="non-scaling-stroke" d="M234.078 468.717C234.078 472.361 232.064 475.32 229.571 475.32C227.078 475.32 225.065 472.361 225.065 468.717C225.065 465.074 227.078 462.115 229.571 462.115C232.064 462.115 234.078 465.074 234.078 468.717Z" fill="#020202" stroke="white" stroke-width="1.36976" stroke-miterlimit="10"/>
<path vector-effect="non-scaling-stroke" d="M239.708 462.115V475.32Z" fill="#020202"/>
<path vector-effect="non-scaling-stroke" d="M239.708 462.115V475.32" stroke="white" stroke-width="1.36976" stroke-miterlimit="10"/>
<path vector-effect="non-scaling-stroke" d="M254.364 468.717C254.364 472.361 252.35 475.32 249.857 475.32C247.364 475.32 245.351 472.361 245.351 468.717C245.351 465.074 247.364 462.115 249.857 462.115C252.35 462.115 254.364 465.074 254.364 468.717Z" fill="#020202" stroke="white" stroke-width="1.36976" stroke-miterlimit="10"/>
<path vector-effect="non-scaling-stroke" d="M260.007 462.115V475.32Z" fill="#020202"/>
<path vector-effect="non-scaling-stroke" d="M260.007 462.115V475.32" stroke="white" stroke-width="1.36976" stroke-miterlimit="10"/>
<path vector-effect="non-scaling-stroke" d="M274.664 468.717C274.664 472.361 272.65 475.32 270.157 475.32C267.664 475.32 265.651 472.361 265.651 468.717C265.651 465.074 267.664 462.115 270.157 462.115C272.65 462.115 274.664 465.074 274.664 468.717Z" fill="#020202" stroke="white" stroke-width="1.36976" stroke-miterlimit="10"/>
<path vector-effect="non-scaling-stroke" d="M226.188 481.922V495.126Z" fill="#020202"/>
<path vector-effect="non-scaling-stroke" d="M226.188 481.922V495.126" stroke="white" stroke-width="1.36976" stroke-miterlimit="10"/>
<path vector-effect="non-scaling-stroke" d="M240.844 488.524C240.844 492.168 238.831 495.126 236.338 495.126C233.845 495.126 231.831 492.168 231.831 488.524C231.831 484.881 233.845 481.922 236.338 481.922C238.831 481.922 240.844 484.881 240.844 488.524Z" fill="#020202" stroke="white" stroke-width="1.36976" stroke-miterlimit="10"/>
<path vector-effect="non-scaling-stroke" d="M246.474 481.922V495.126Z" fill="#020202"/>
<path vector-effect="non-scaling-stroke" d="M246.474 481.922V495.126" stroke="white" stroke-width="1.36976" stroke-miterlimit="10"/>
<path vector-effect="non-scaling-stroke" d="M261.13 488.524C261.13 492.168 259.117 495.126 256.624 495.126C254.131 495.126 252.117 492.168 252.117 488.524C252.117 484.881 254.131 481.922 256.624 481.922C259.117 481.922 261.13 484.881 261.13 488.524Z" fill="#020202" stroke="white" stroke-width="1.36976" stroke-miterlimit="10"/>
<path vector-effect="non-scaling-stroke" d="M266.774 481.922V495.126Z" fill="#020202"/>
<path vector-effect="non-scaling-stroke" d="M266.774 481.922V495.126" stroke="white" stroke-width="1.36976" stroke-miterlimit="10"/>
<path vector-effect="non-scaling-stroke" d="M273.541 481.922V495.126Z" fill="#020202"/>
<path vector-effect="non-scaling-stroke" d="M273.541 481.922V495.126" stroke="white" stroke-width="1.36976" stroke-miterlimit="10"/>
<path vector-effect="non-scaling-stroke" d="M234.078 506.139C234.078 509.783 232.064 512.742 229.571 512.742C227.078 512.742 225.065 509.783 225.065 506.139C225.065 502.496 227.078 499.537 229.571 499.537C232.064 499.537 234.078 502.496 234.078 506.139Z" fill="#020202" stroke="white" stroke-width="1.36976" stroke-miterlimit="10"/>
<path vector-effect="non-scaling-stroke" d="M239.708 499.537V512.742Z" fill="#020202"/>
<path vector-effect="non-scaling-stroke" d="M239.708 499.537V512.742" stroke="white" stroke-width="1.36976" stroke-miterlimit="10"/>
<path vector-effect="non-scaling-stroke" d="M260.007 499.537V512.742Z" fill="#020202"/>
<path vector-effect="non-scaling-stroke" d="M260.007 499.537V512.742" stroke="white" stroke-width="1.36976" stroke-miterlimit="10"/>
<path vector-effect="non-scaling-stroke" d="M274.664 506.139C274.664 509.783 272.65 512.742 270.157 512.742C267.664 512.742 265.651 509.783 265.651 506.139C265.651 502.496 267.664 499.537 270.157 499.537C272.65 499.537 274.664 502.496 274.664 506.139Z" fill="#020202" stroke="white" stroke-width="1.36976" stroke-miterlimit="10"/>
<path vector-effect="non-scaling-stroke" d="M253.241 499.537V512.742Z" fill="#020202"/>
<path vector-effect="non-scaling-stroke" d="M253.241 499.537V512.742" stroke="white" stroke-width="1.36976" stroke-miterlimit="10"/>
<path vector-effect="non-scaling-stroke" d="M246.474 499.537V512.742Z" fill="#020202"/>
<path vector-effect="non-scaling-stroke" d="M246.474 499.537V512.742" stroke="white" stroke-width="1.36976" stroke-miterlimit="10"/>
<path vector-effect="non-scaling-stroke" d="M288.594 451.102C288.594 454.746 286.581 457.704 284.088 457.704C281.595 457.704 279.581 454.746 279.581 451.102C279.581 447.459 281.595 444.5 284.088 444.5C286.581 444.5 288.594 447.459 288.594 451.102Z" fill="#020202" stroke="white" stroke-width="1.36976" stroke-miterlimit="10"/>
<path vector-effect="non-scaling-stroke" d="M294.224 444.5V457.704Z" fill="#020202"/>
<path vector-effect="non-scaling-stroke" d="M294.224 444.5V457.704" stroke="white" stroke-width="1.36976" stroke-miterlimit="10"/>
<path vector-effect="non-scaling-stroke" d="M288.594 468.717C288.594 472.361 286.581 475.32 284.088 475.32C281.595 475.32 279.581 472.361 279.581 468.717C279.581 465.074 281.595 462.115 284.088 462.115C286.581 462.115 288.594 465.074 288.594 468.717Z" fill="#020202" stroke="white" stroke-width="1.36976" stroke-miterlimit="10"/>
<path vector-effect="non-scaling-stroke" d="M294.224 462.115V475.32Z" fill="#020202"/>
<path vector-effect="non-scaling-stroke" d="M294.224 462.115V475.32" stroke="white" stroke-width="1.36976" stroke-miterlimit="10"/>
<path vector-effect="non-scaling-stroke" d="M288.594 488.524C288.594 492.168 286.581 495.126 284.088 495.126C281.595 495.126 279.581 492.168 279.581 488.524C279.581 484.881 281.595 481.922 284.088 481.922C286.581 481.922 288.594 484.881 288.594 488.524Z" fill="#020202" stroke="white" stroke-width="1.36976" stroke-miterlimit="10"/>
<path vector-effect="non-scaling-stroke" d="M294.224 481.922V495.126Z" fill="#020202"/>
<path vector-effect="non-scaling-stroke" d="M294.224 481.922V495.126" stroke="white" stroke-width="1.36976" stroke-miterlimit="10"/>
<path vector-effect="non-scaling-stroke" d="M288.594 506.139C288.594 509.783 286.581 512.742 284.088 512.742C281.595 512.742 279.581 509.783 279.581 506.139C279.581 502.496 281.595 499.537 284.088 499.537C286.581 499.537 288.594 502.496 288.594 506.139Z" fill="#020202" stroke="white" stroke-width="1.36976" stroke-miterlimit="10"/>
<path vector-effect="non-scaling-stroke" d="M294.224 499.537V512.742Z" fill="#020202"/>
<path vector-effect="non-scaling-stroke" d="M294.224 499.537V512.742" stroke="white" stroke-width="1.36976" stroke-miterlimit="10"/>
<path vector-effect="non-scaling-stroke" d="M300.99 444.5V457.704Z" fill="#020202"/>
<path vector-effect="non-scaling-stroke" d="M300.99 444.5V457.704" stroke="white" stroke-width="1.36976" stroke-miterlimit="10"/>
<path vector-effect="non-scaling-stroke" d="M315.647 451.102C315.647 454.746 313.633 457.704 311.14 457.704C308.647 457.704 306.634 454.746 306.634 451.102C306.634 447.459 308.647 444.5 311.14 444.5C313.633 444.5 315.647 447.459 315.647 451.102Z" fill="#020202" stroke="white" stroke-width="1.36976" stroke-miterlimit="10"/>
<path vector-effect="non-scaling-stroke" d="M321.29 444.5V457.704Z" fill="#020202"/>
<path vector-effect="non-scaling-stroke" d="M321.29 444.5V457.704" stroke="white" stroke-width="1.36976" stroke-miterlimit="10"/>
<path vector-effect="non-scaling-stroke" d="M335.947 451.102C335.947 454.746 333.933 457.704 331.44 457.704C328.947 457.704 326.934 454.746 326.934 451.102C326.934 447.459 328.947 444.5 331.44 444.5C333.933 444.5 335.947 447.459 335.947 451.102Z" fill="#020202" stroke="white" stroke-width="1.36976" stroke-miterlimit="10"/>
<path vector-effect="non-scaling-stroke" d="M341.576 444.5V457.704Z" fill="#020202"/>
<path vector-effect="non-scaling-stroke" d="M341.576 444.5V457.704" stroke="white" stroke-width="1.36976" stroke-miterlimit="10"/>
<path vector-effect="non-scaling-stroke" d="M348.343 444.5V457.704Z" fill="#020202"/>
<path vector-effect="non-scaling-stroke" d="M348.343 444.5V457.704" stroke="white" stroke-width="1.36976" stroke-miterlimit="10"/>
<path vector-effect="non-scaling-stroke" d="M308.88 468.717C308.88 472.361 306.867 475.32 304.374 475.32C301.881 475.32 299.867 472.361 299.867 468.717C299.867 465.074 301.881 462.115 304.374 462.115C306.867 462.115 308.88 465.074 308.88 468.717Z" fill="#020202" stroke="white" stroke-width="1.36976" stroke-miterlimit="10"/>
<path vector-effect="non-scaling-stroke" d="M314.523 462.115V475.32Z" fill="#020202"/>
<path vector-effect="non-scaling-stroke" d="M314.523 462.115V475.32" stroke="white" stroke-width="1.36976" stroke-miterlimit="10"/>
<path vector-effect="non-scaling-stroke" d="M329.18 468.717C329.18 472.361 327.166 475.32 324.673 475.32C322.18 475.32 320.167 472.361 320.167 468.717C320.167 465.074 322.18 462.115 324.673 462.115C327.166 462.115 329.18 465.074 329.18 468.717Z" fill="#020202" stroke="white" stroke-width="1.36976" stroke-miterlimit="10"/>
<path vector-effect="non-scaling-stroke" d="M334.81 462.115V475.32Z" fill="#020202"/>
<path vector-effect="non-scaling-stroke" d="M334.81 462.115V475.32" stroke="white" stroke-width="1.36976" stroke-miterlimit="10"/>
<path vector-effect="non-scaling-stroke" d="M349.466 468.717C349.466 472.361 347.453 475.32 344.96 475.32C342.467 475.32 340.453 472.361 340.453 468.717C340.453 465.074 342.467 462.115 344.96 462.115C347.453 462.115 349.466 465.074 349.466 468.717Z" fill="#020202" stroke="white" stroke-width="1.36976" stroke-miterlimit="10"/>
<path vector-effect="non-scaling-stroke" d="M300.99 481.922V495.126Z" fill="#020202"/>
<path vector-effect="non-scaling-stroke" d="M300.99 481.922V495.126" stroke="white" stroke-width="1.36976" stroke-miterlimit="10"/>
<path vector-effect="non-scaling-stroke" d="M315.647 488.524C315.647 492.168 313.633 495.126 311.14 495.126C308.647 495.126 306.634 492.168 306.634 488.524C306.634 484.881 308.647 481.922 311.14 481.922C313.633 481.922 315.647 484.881 315.647 488.524Z" fill="#020202" stroke="white" stroke-width="1.36976" stroke-miterlimit="10"/>
<path vector-effect="non-scaling-stroke" d="M321.29 481.922V495.126Z" fill="#020202"/>
<path vector-effect="non-scaling-stroke" d="M321.29 481.922V495.126" stroke="white" stroke-width="1.36976" stroke-miterlimit="10"/>
<path vector-effect="non-scaling-stroke" d="M335.947 488.524C335.947 492.168 333.933 495.126 331.44 495.126C328.947 495.126 326.934 492.168 326.934 488.524C326.934 484.881 328.947 481.922 331.44 481.922C333.933 481.922 335.947 484.881 335.947 488.524Z" fill="#020202" stroke="white" stroke-width="1.36976" stroke-miterlimit="10"/>
<path vector-effect="non-scaling-stroke" d="M341.576 481.922V495.126Z" fill="#020202"/>
<path vector-effect="non-scaling-stroke" d="M341.576 481.922V495.126" stroke="white" stroke-width="1.36976" stroke-miterlimit="10"/>
<path vector-effect="non-scaling-stroke" d="M348.343 481.922V495.126Z" fill="#020202"/>
<path vector-effect="non-scaling-stroke" d="M348.343 481.922V495.126" stroke="white" stroke-width="1.36976" stroke-miterlimit="10"/>
<path vector-effect="non-scaling-stroke" d="M308.88 506.139C308.88 509.783 306.867 512.742 304.374 512.742C301.881 512.742 299.867 509.783 299.867 506.139C299.867 502.496 301.881 499.537 304.374 499.537C306.867 499.537 308.88 502.496 308.88 506.139Z" fill="#020202" stroke="white" stroke-width="1.36976" stroke-miterlimit="10"/>
<path vector-effect="non-scaling-stroke" d="M314.523 499.537V512.742Z" fill="#020202"/>
<path vector-effect="non-scaling-stroke" d="M314.523 499.537V512.742" stroke="white" stroke-width="1.36976" stroke-miterlimit="10"/>
<path vector-effect="non-scaling-stroke" d="M334.81 499.537V512.742Z" fill="#020202"/>
<path vector-effect="non-scaling-stroke" d="M334.81 499.537V512.742" stroke="white" stroke-width="1.36976" stroke-miterlimit="10"/>
<path vector-effect="non-scaling-stroke" d="M349.466 506.139C349.466 509.783 347.453 512.742 344.96 512.742C342.467 512.742 340.453 509.783 340.453 506.139C340.453 502.496 342.467 499.537 344.96 499.537C347.453 499.537 349.466 502.496 349.466 506.139Z" fill="#020202" stroke="white" stroke-width="1.36976" stroke-miterlimit="10"/>
<path vector-effect="non-scaling-stroke" d="M328.056 499.537V512.742Z" fill="#020202"/>
<path vector-effect="non-scaling-stroke" d="M328.056 499.537V512.742" stroke="white" stroke-width="1.36976" stroke-miterlimit="10"/>
<path vector-effect="non-scaling-stroke" d="M321.29 499.537V512.742Z" fill="#020202"/>
<path vector-effect="non-scaling-stroke" d="M321.29 499.537V512.742" stroke="white" stroke-width="1.36976" stroke-miterlimit="10"/>
<path vector-effect="non-scaling-stroke" d="M64.0223 451.102C64.0223 454.746 62.0087 457.704 59.5158 457.704C57.0228 457.704 55.0093 454.746 55.0093 451.102C55.0093 447.459 57.0228 444.5 59.5158 444.5C62.0087 444.5 64.0223 447.459 64.0223 451.102Z" fill="#020202" stroke="white" stroke-width="1.36976" stroke-miterlimit="10"/>
<path vector-effect="non-scaling-stroke" d="M69.6658 444.5V457.704Z" fill="#020202"/>
<path vector-effect="non-scaling-stroke" d="M69.6658 444.5V457.704" stroke="white" stroke-width="1.36976" stroke-miterlimit="10"/>
<path vector-effect="non-scaling-stroke" d="M64.0223 468.717C64.0223 472.361 62.0087 475.32 59.5158 475.32C57.0228 475.32 55.0093 472.361 55.0093 468.717C55.0093 465.074 57.0228 462.115 59.5158 462.115C62.0087 462.115 64.0223 465.074 64.0223 468.717Z" fill="#020202" stroke="white" stroke-width="1.36976" stroke-miterlimit="10"/>
<path vector-effect="non-scaling-stroke" d="M69.6658 462.115V475.32Z" fill="#020202"/>
<path vector-effect="non-scaling-stroke" d="M69.6658 462.115V475.32" stroke="white" stroke-width="1.36976" stroke-miterlimit="10"/>
<path vector-effect="non-scaling-stroke" d="M64.0223 488.524C64.0223 492.168 62.0087 495.126 59.5158 495.126C57.0228 495.126 55.0093 492.168 55.0093 488.524C55.0093 484.881 57.0228 481.922 59.5158 481.922C62.0087 481.922 64.0223 484.881 64.0223 488.524Z" fill="#020202" stroke="white" stroke-width="1.36976" stroke-miterlimit="10"/>
<path vector-effect="non-scaling-stroke" d="M69.6658 481.922V495.126Z" fill="#020202"/>
<path vector-effect="non-scaling-stroke" d="M69.6658 481.922V495.126" stroke="white" stroke-width="1.36976" stroke-miterlimit="10"/>
<path vector-effect="non-scaling-stroke" d="M64.0223 506.139C64.0223 509.783 62.0087 512.742 59.5158 512.742C57.0228 512.742 55.0093 509.783 55.0093 506.139C55.0093 502.496 57.0228 499.537 59.5158 499.537C62.0087 499.537 64.0223 502.496 64.0223 506.139Z" fill="#020202" stroke="white" stroke-width="1.36976" stroke-miterlimit="10"/>
<path vector-effect="non-scaling-stroke" d="M69.6658 499.537V512.742Z" fill="#020202"/>
<path vector-effect="non-scaling-stroke" d="M69.6658 499.537V512.742" stroke="white" stroke-width="1.36976" stroke-miterlimit="10"/>
<path vector-effect="non-scaling-stroke" d="M76.4324 444.5V457.704Z" fill="#020202"/>
<path vector-effect="non-scaling-stroke" d="M76.4324 444.5V457.704" stroke="white" stroke-width="1.36976" stroke-miterlimit="10"/>
<path vector-effect="non-scaling-stroke" d="M91.0887 451.102C91.0887 454.746 89.0751 457.704 86.5822 457.704C84.0892 457.704 82.0757 454.746 82.0757 451.102C82.0757 447.459 84.0892 444.5 86.5822 444.5C89.0751 444.5 91.0887 447.459 91.0887 451.102Z" fill="#020202" stroke="white" stroke-width="1.36976" stroke-miterlimit="10"/>
<path vector-effect="non-scaling-stroke" d="M96.7322 444.5V457.704Z" fill="#020202"/>
<path vector-effect="non-scaling-stroke" d="M96.7322 444.5V457.704" stroke="white" stroke-width="1.36976" stroke-miterlimit="10"/>
<path vector-effect="non-scaling-stroke" d="M111.388 451.102C111.388 454.746 109.375 457.704 106.882 457.704C104.389 457.704 102.375 454.746 102.375 451.102C102.375 447.459 104.389 444.5 106.882 444.5C109.375 444.5 111.388 447.459 111.388 451.102Z" fill="#020202" stroke="white" stroke-width="1.36976" stroke-miterlimit="10"/>
<path vector-effect="non-scaling-stroke" d="M117.018 444.5V457.704Z" fill="#020202"/>
<path vector-effect="non-scaling-stroke" d="M117.018 444.5V457.704" stroke="white" stroke-width="1.36976" stroke-miterlimit="10"/>
<path vector-effect="non-scaling-stroke" d="M123.785 444.5V457.704Z" fill="#020202"/>
<path vector-effect="non-scaling-stroke" d="M123.785 444.5V457.704" stroke="white" stroke-width="1.36976" stroke-miterlimit="10"/>
<path vector-effect="non-scaling-stroke" d="M84.3221 468.717C84.3221 472.361 82.3085 475.32 79.8156 475.32C77.3226 475.32 75.3091 472.361 75.3091 468.717C75.3091 465.074 77.3226 462.115 79.8156 462.115C82.3085 462.115 84.3221 465.074 84.3221 468.717Z" fill="#020202" stroke="white" stroke-width="1.36976" stroke-miterlimit="10"/>
<path vector-effect="non-scaling-stroke" d="M89.9656 462.115V475.32Z" fill="#020202"/>
<path vector-effect="non-scaling-stroke" d="M89.9656 462.115V475.32" stroke="white" stroke-width="1.36976" stroke-miterlimit="10"/>
<path vector-effect="non-scaling-stroke" d="M104.622 468.717C104.622 472.361 102.608 475.32 100.115 475.32C97.6224 475.32 95.6089 472.361 95.6089 468.717C95.6089 465.074 97.6224 462.115 100.115 462.115C102.608 462.115 104.622 465.074 104.622 468.717Z" fill="#020202" stroke="white" stroke-width="1.36976" stroke-miterlimit="10"/>
<path vector-effect="non-scaling-stroke" d="M110.251 462.115V475.32Z" fill="#020202"/>
<path vector-effect="non-scaling-stroke" d="M110.251 462.115V475.32" stroke="white" stroke-width="1.36976" stroke-miterlimit="10"/>
<path vector-effect="non-scaling-stroke" d="M124.908 468.717C124.908 472.361 122.894 475.32 120.402 475.32C117.909 475.32 115.895 472.361 115.895 468.717C115.895 465.074 117.909 462.115 120.402 462.115C122.894 462.115 124.908 465.074 124.908 468.717Z" fill="#020202" stroke="white" stroke-width="1.36976" stroke-miterlimit="10"/>
<path vector-effect="non-scaling-stroke" d="M76.4324 481.922V495.126Z" fill="#020202"/>
<path vector-effect="non-scaling-stroke" d="M76.4324 481.922V495.126" stroke="white" stroke-width="1.36976" stroke-miterlimit="10"/>
<path vector-effect="non-scaling-stroke" d="M91.0887 488.524C91.0887 492.168 89.0751 495.126 86.5822 495.126C84.0892 495.126 82.0757 492.168 82.0757 488.524C82.0757 484.881 84.0892 481.922 86.5822 481.922C89.0751 481.922 91.0887 484.881 91.0887 488.524Z" fill="#020202" stroke="white" stroke-width="1.36976" stroke-miterlimit="10"/>
<path vector-effect="non-scaling-stroke" d="M96.7322 481.922V495.126Z" fill="#020202"/>
<path vector-effect="non-scaling-stroke" d="M96.7322 481.922V495.126" stroke="white" stroke-width="1.36976" stroke-miterlimit="10"/>
<path vector-effect="non-scaling-stroke" d="M111.388 488.524C111.388 492.168 109.375 495.126 106.882 495.126C104.389 495.126 102.375 492.168 102.375 488.524C102.375 484.881 104.389 481.922 106.882 481.922C109.375 481.922 111.388 484.881 111.388 488.524Z" fill="#020202" stroke="white" stroke-width="1.36976" stroke-miterlimit="10"/>
<path vector-effect="non-scaling-stroke" d="M117.018 481.922V495.126Z" fill="#020202"/>
<path vector-effect="non-scaling-stroke" d="M117.018 481.922V495.126" stroke="white" stroke-width="1.36976" stroke-miterlimit="10"/>
<path vector-effect="non-scaling-stroke" d="M123.785 481.922V495.126Z" fill="#020202"/>
<path vector-effect="non-scaling-stroke" d="M123.785 481.922V495.126" stroke="white" stroke-width="1.36976" stroke-miterlimit="10"/>
<path vector-effect="non-scaling-stroke" d="M84.3221 506.139C84.3221 509.783 82.3085 512.742 79.8156 512.742C77.3226 512.742 75.3091 509.783 75.3091 506.139C75.3091 502.496 77.3226 499.537 79.8156 499.537C82.3085 499.537 84.3221 502.496 84.3221 506.139Z" fill="#020202" stroke="white" stroke-width="1.36976" stroke-miterlimit="10"/>
<path vector-effect="non-scaling-stroke" d="M89.9656 499.537V512.742Z" fill="#020202"/>
<path vector-effect="non-scaling-stroke" d="M89.9656 499.537V512.742" stroke="white" stroke-width="1.36976" stroke-miterlimit="10"/>
<path vector-effect="non-scaling-stroke" d="M110.251 499.537V512.742Z" fill="#020202"/>
<path vector-effect="non-scaling-stroke" d="M110.251 499.537V512.742" stroke="white" stroke-width="1.36976" stroke-miterlimit="10"/>
<path vector-effect="non-scaling-stroke" d="M124.908 506.139C124.908 509.783 122.894 512.742 120.402 512.742C117.909 512.742 115.895 509.783 115.895 506.139C115.895 502.496 117.909 499.537 120.402 499.537C122.894 499.537 124.908 502.496 124.908 506.139Z" fill="#020202" stroke="white" stroke-width="1.36976" stroke-miterlimit="10"/>
<path vector-effect="non-scaling-stroke" d="M103.485 499.537V512.742Z" fill="#020202"/>
<path vector-effect="non-scaling-stroke" d="M103.485 499.537V512.742" stroke="white" stroke-width="1.36976" stroke-miterlimit="10"/>
<path vector-effect="non-scaling-stroke" d="M96.7322 499.537V512.742Z" fill="#020202"/>
<path vector-effect="non-scaling-stroke" d="M96.7322 499.537V512.742" stroke="white" stroke-width="1.36976" stroke-miterlimit="10"/>
<path vector-effect="non-scaling-stroke" d="M138.838 451.102C138.838 454.746 136.825 457.704 134.332 457.704C131.839 457.704 129.825 454.746 129.825 451.102C129.825 447.459 131.839 444.5 134.332 444.5C136.825 444.5 138.838 447.459 138.838 451.102Z" fill="#020202" stroke="white" stroke-width="1.36976" stroke-miterlimit="10"/>
<path vector-effect="non-scaling-stroke" d="M144.468 444.5V457.704Z" fill="#020202"/>
<path vector-effect="non-scaling-stroke" d="M144.468 444.5V457.704" stroke="white" stroke-width="1.36976" stroke-miterlimit="10"/>
<path vector-effect="non-scaling-stroke" d="M138.838 468.717C138.838 472.361 136.825 475.32 134.332 475.32C131.839 475.32 129.825 472.361 129.825 468.717C129.825 465.074 131.839 462.115 134.332 462.115C136.825 462.115 138.838 465.074 138.838 468.717Z" fill="#020202" stroke="white" stroke-width="1.36976" stroke-miterlimit="10"/>
<path vector-effect="non-scaling-stroke" d="M144.468 462.115V475.32Z" fill="#020202"/>
<path vector-effect="non-scaling-stroke" d="M144.468 462.115V475.32" stroke="white" stroke-width="1.36976" stroke-miterlimit="10"/>
<path vector-effect="non-scaling-stroke" d="M138.838 488.524C138.838 492.168 136.825 495.126 134.332 495.126C131.839 495.126 129.825 492.168 129.825 488.524C129.825 484.881 131.839 481.922 134.332 481.922C136.825 481.922 138.838 484.881 138.838 488.524Z" fill="#020202" stroke="white" stroke-width="1.36976" stroke-miterlimit="10"/>
<path vector-effect="non-scaling-stroke" d="M144.468 481.922V495.126Z" fill="#020202"/>
<path vector-effect="non-scaling-stroke" d="M144.468 481.922V495.126" stroke="white" stroke-width="1.36976" stroke-miterlimit="10"/>
<path vector-effect="non-scaling-stroke" d="M138.838 506.139C138.838 509.783 136.825 512.742 134.332 512.742C131.839 512.742 129.825 509.783 129.825 506.139C129.825 502.496 131.839 499.537 134.332 499.537C136.825 499.537 138.838 502.496 138.838 506.139Z" fill="#020202" stroke="white" stroke-width="1.36976" stroke-miterlimit="10"/>
<path vector-effect="non-scaling-stroke" d="M144.468 499.537V512.742Z" fill="#020202"/>
<path vector-effect="non-scaling-stroke" d="M144.468 499.537V512.742" stroke="white" stroke-width="1.36976" stroke-miterlimit="10"/>
<path vector-effect="non-scaling-stroke" d="M151.235 444.5V457.704Z" fill="#020202"/>
<path vector-effect="non-scaling-stroke" d="M151.235 444.5V457.704" stroke="white" stroke-width="1.36976" stroke-miterlimit="10"/>
<path vector-effect="non-scaling-stroke" d="M165.891 451.102C165.891 454.746 163.878 457.704 161.385 457.704C158.892 457.704 156.878 454.746 156.878 451.102C156.878 447.459 158.892 444.5 161.385 444.5C163.878 444.5 165.891 447.459 165.891 451.102Z" fill="#020202" stroke="white" stroke-width="1.36976" stroke-miterlimit="10"/>
<path vector-effect="non-scaling-stroke" d="M171.535 444.5V457.704Z" fill="#020202"/>
<path vector-effect="non-scaling-stroke" d="M171.535 444.5V457.704" stroke="white" stroke-width="1.36976" stroke-miterlimit="10"/>
<path vector-effect="non-scaling-stroke" d="M186.191 451.102C186.191 454.746 184.177 457.704 181.684 457.704C179.192 457.704 177.178 454.746 177.178 451.102C177.178 447.459 179.192 444.5 181.684 444.5C184.177 444.5 186.191 447.459 186.191 451.102Z" fill="#020202" stroke="white" stroke-width="1.36976" stroke-miterlimit="10"/>
<path vector-effect="non-scaling-stroke" d="M191.834 444.5V457.704Z" fill="#020202"/>
<path vector-effect="non-scaling-stroke" d="M191.834 444.5V457.704" stroke="white" stroke-width="1.36976" stroke-miterlimit="10"/>
<path vector-effect="non-scaling-stroke" d="M198.601 444.5V457.704Z" fill="#020202"/>
<path vector-effect="non-scaling-stroke" d="M198.601 444.5V457.704" stroke="white" stroke-width="1.36976" stroke-miterlimit="10"/>
<path vector-effect="non-scaling-stroke" d="M159.138 468.717C159.138 472.361 157.125 475.32 154.632 475.32C152.139 475.32 150.125 472.361 150.125 468.717C150.125 465.074 152.139 462.115 154.632 462.115C157.125 462.115 159.138 465.074 159.138 468.717Z" fill="#020202" stroke="white" stroke-width="1.36976" stroke-miterlimit="10"/>
<path vector-effect="non-scaling-stroke" d="M164.768 462.115V475.32Z" fill="#020202"/>
<path vector-effect="non-scaling-stroke" d="M164.768 462.115V475.32" stroke="white" stroke-width="1.36976" stroke-miterlimit="10"/>
<path vector-effect="non-scaling-stroke" d="M179.424 468.717C179.424 472.361 177.411 475.32 174.918 475.32C172.425 475.32 170.411 472.361 170.411 468.717C170.411 465.074 172.425 462.115 174.918 462.115C177.411 462.115 179.424 465.074 179.424 468.717Z" fill="#020202" stroke="white" stroke-width="1.36976" stroke-miterlimit="10"/>
<path vector-effect="non-scaling-stroke" d="M185.068 462.115V475.32Z" fill="#020202"/>
<path vector-effect="non-scaling-stroke" d="M185.068 462.115V475.32" stroke="white" stroke-width="1.36976" stroke-miterlimit="10"/>
<path vector-effect="non-scaling-stroke" d="M199.724 468.717C199.724 472.361 197.711 475.32 195.218 475.32C192.725 475.32 190.711 472.361 190.711 468.717C190.711 465.074 192.725 462.115 195.218 462.115C197.711 462.115 199.724 465.074 199.724 468.717Z" fill="#020202" stroke="white" stroke-width="1.36976" stroke-miterlimit="10"/>
<path vector-effect="non-scaling-stroke" d="M151.235 481.922V495.126Z" fill="#020202"/>
<path vector-effect="non-scaling-stroke" d="M151.235 481.922V495.126" stroke="white" stroke-width="1.36976" stroke-miterlimit="10"/>
<path vector-effect="non-scaling-stroke" d="M165.891 488.524C165.891 492.168 163.878 495.126 161.385 495.126C158.892 495.126 156.878 492.168 156.878 488.524C156.878 484.881 158.892 481.922 161.385 481.922C163.878 481.922 165.891 484.881 165.891 488.524Z" fill="#020202" stroke="white" stroke-width="1.36976" stroke-miterlimit="10"/>
<path vector-effect="non-scaling-stroke" d="M171.535 481.922V495.126Z" fill="#020202"/>
<path vector-effect="non-scaling-stroke" d="M171.535 481.922V495.126" stroke="white" stroke-width="1.36976" stroke-miterlimit="10"/>
<path vector-effect="non-scaling-stroke" d="M186.191 488.524C186.191 492.168 184.177 495.126 181.684 495.126C179.192 495.126 177.178 492.168 177.178 488.524C177.178 484.881 179.192 481.922 181.684 481.922C184.177 481.922 186.191 484.881 186.191 488.524Z" fill="#020202" stroke="white" stroke-width="1.36976" stroke-miterlimit="10"/>
<path vector-effect="non-scaling-stroke" d="M191.834 481.922V495.126Z" fill="#020202"/>
<path vector-effect="non-scaling-stroke" d="M191.834 481.922V495.126" stroke="white" stroke-width="1.36976" stroke-miterlimit="10"/>
<path vector-effect="non-scaling-stroke" d="M198.601 481.922V495.126Z" fill="#020202"/>
<path vector-effect="non-scaling-stroke" d="M198.601 481.922V495.126" stroke="white" stroke-width="1.36976" stroke-miterlimit="10"/>
<path vector-effect="non-scaling-stroke" d="M159.138 506.139C159.138 509.783 157.125 512.742 154.632 512.742C152.139 512.742 150.125 509.783 150.125 506.139C150.125 502.496 152.139 499.537 154.632 499.537C157.125 499.537 159.138 502.496 159.138 506.139Z" fill="#020202" stroke="white" stroke-width="1.36976" stroke-miterlimit="10"/>
<path vector-effect="non-scaling-stroke" d="M164.768 499.537V512.742Z" fill="#020202"/>
<path vector-effect="non-scaling-stroke" d="M164.768 499.537V512.742" stroke="white" stroke-width="1.36976" stroke-miterlimit="10"/>
<path vector-effect="non-scaling-stroke" d="M185.068 499.537V512.742Z" fill="#020202"/>
<path vector-effect="non-scaling-stroke" d="M185.068 499.537V512.742" stroke="white" stroke-width="1.36976" stroke-miterlimit="10"/>
<path vector-effect="non-scaling-stroke" d="M199.724 506.139C199.724 509.783 197.711 512.742 195.218 512.742C192.725 512.742 190.711 509.783 190.711 506.139C190.711 502.496 192.725 499.537 195.218 499.537C197.711 499.537 199.724 502.496 199.724 506.139Z" fill="#020202" stroke="white" stroke-width="1.36976" stroke-miterlimit="10"/>
<path vector-effect="non-scaling-stroke" d="M178.301 499.537V512.742Z" fill="#020202"/>
<path vector-effect="non-scaling-stroke" d="M178.301 499.537V512.742" stroke="white" stroke-width="1.36976" stroke-miterlimit="10"/>
<path vector-effect="non-scaling-stroke" d="M171.535 499.537V512.742Z" fill="#020202"/>
<path vector-effect="non-scaling-stroke" d="M171.535 499.537V512.742" stroke="white" stroke-width="1.36976" stroke-miterlimit="10"/>
<path vector-effect="non-scaling-stroke" d="M1.80786 444.5V457.704Z" fill="#020202"/>
<path vector-effect="non-scaling-stroke" d="M1.80786 444.5V457.704" stroke="white" stroke-width="1.36976" stroke-miterlimit="10"/>
<path vector-effect="non-scaling-stroke" d="M16.4644 451.102C16.4644 454.746 14.4509 457.704 11.9579 457.704C9.46496 457.704 7.45142 454.746 7.45142 451.102C7.45142 447.459 9.46496 444.5 11.9579 444.5C14.4509 444.5 16.4644 447.459 16.4644 451.102Z" fill="#020202" stroke="white" stroke-width="1.36976" stroke-miterlimit="10"/>
<path vector-effect="non-scaling-stroke" d="M22.1079 444.5V457.704Z" fill="#020202"/>
<path vector-effect="non-scaling-stroke" d="M22.1079 444.5V457.704" stroke="white" stroke-width="1.36976" stroke-miterlimit="10"/>
<path vector-effect="non-scaling-stroke" d="M36.7642 451.102C36.7642 454.746 34.7507 457.704 32.2577 457.704C29.7648 457.704 27.7512 454.746 27.7512 451.102C27.7512 447.459 29.7648 444.5 32.2577 444.5C34.7507 444.5 36.7642 447.459 36.7642 451.102Z" fill="#020202" stroke="white" stroke-width="1.36976" stroke-miterlimit="10"/>
<path vector-effect="non-scaling-stroke" d="M42.4077 444.5V457.704Z" fill="#020202"/>
<path vector-effect="non-scaling-stroke" d="M42.4077 444.5V457.704" stroke="white" stroke-width="1.36976" stroke-miterlimit="10"/>
<path vector-effect="non-scaling-stroke" d="M49.1604 444.5V457.704Z" fill="#020202"/>
<path vector-effect="non-scaling-stroke" d="M49.1604 444.5V457.704" stroke="white" stroke-width="1.36976" stroke-miterlimit="10"/>
<path vector-effect="non-scaling-stroke" d="M9.71149 468.717C9.71149 472.361 7.69795 475.32 5.20499 475.32C2.71203 475.32 0.698486 472.361 0.698486 468.717C0.698486 465.074 2.71203 462.115 5.20499 462.115C7.69795 462.115 9.71149 465.074 9.71149 468.717Z" fill="#020202" stroke="white" stroke-width="1.36976" stroke-miterlimit="10"/>
<path vector-effect="non-scaling-stroke" d="M15.3411 462.115V475.32Z" fill="#020202"/>
<path vector-effect="non-scaling-stroke" d="M15.3411 462.115V475.32" stroke="white" stroke-width="1.36976" stroke-miterlimit="10"/>
<path vector-effect="non-scaling-stroke" d="M29.9976 468.717C29.9976 472.361 27.9841 475.32 25.4911 475.32C22.9982 475.32 20.9846 472.361 20.9846 468.717C20.9846 465.074 22.9982 462.115 25.4911 462.115C27.9841 462.115 29.9976 465.074 29.9976 468.717Z" fill="#020202" stroke="white" stroke-width="1.36976" stroke-miterlimit="10"/>
<path vector-effect="non-scaling-stroke" d="M35.6411 462.115V475.32Z" fill="#020202"/>
<path vector-effect="non-scaling-stroke" d="M35.6411 462.115V475.32" stroke="white" stroke-width="1.36976" stroke-miterlimit="10"/>
<path vector-effect="non-scaling-stroke" d="M50.2974 468.717C50.2974 472.361 48.2839 475.32 45.7909 475.32C43.298 475.32 41.2844 472.361 41.2844 468.717C41.2844 465.074 43.298 462.115 45.7909 462.115C48.2839 462.115 50.2974 465.074 50.2974 468.717Z" fill="#020202" stroke="white" stroke-width="1.36976" stroke-miterlimit="10"/>
<path vector-effect="non-scaling-stroke" d="M1.80786 481.922V495.126Z" fill="#020202"/>
<path vector-effect="non-scaling-stroke" d="M1.80786 481.922V495.126" stroke="white" stroke-width="1.36976" stroke-miterlimit="10"/>
<path vector-effect="non-scaling-stroke" d="M16.4644 488.524C16.4644 492.168 14.4509 495.126 11.9579 495.126C9.46496 495.126 7.45142 492.168 7.45142 488.524C7.45142 484.881 9.46496 481.922 11.9579 481.922C14.4509 481.922 16.4644 484.881 16.4644 488.524Z" fill="#020202" stroke="white" stroke-width="1.36976" stroke-miterlimit="10"/>
<path vector-effect="non-scaling-stroke" d="M22.1079 481.922V495.126Z" fill="#020202"/>
<path vector-effect="non-scaling-stroke" d="M22.1079 481.922V495.126" stroke="white" stroke-width="1.36976" stroke-miterlimit="10"/>
<path vector-effect="non-scaling-stroke" d="M36.7642 488.524C36.7642 492.168 34.7507 495.126 32.2577 495.126C29.7648 495.126 27.7512 492.168 27.7512 488.524C27.7512 484.881 29.7648 481.922 32.2577 481.922C34.7507 481.922 36.7642 484.881 36.7642 488.524Z" fill="#020202" stroke="white" stroke-width="1.36976" stroke-miterlimit="10"/>
<path vector-effect="non-scaling-stroke" d="M42.4077 481.922V495.126Z" fill="#020202"/>
<path vector-effect="non-scaling-stroke" d="M42.4077 481.922V495.126" stroke="white" stroke-width="1.36976" stroke-miterlimit="10"/>
<path vector-effect="non-scaling-stroke" d="M49.1604 481.922V495.126Z" fill="#020202"/>
<path vector-effect="non-scaling-stroke" d="M49.1604 481.922V495.126" stroke="white" stroke-width="1.36976" stroke-miterlimit="10"/>
<path vector-effect="non-scaling-stroke" d="M9.71149 506.139C9.71149 509.783 7.69795 512.742 5.20499 512.742C2.71203 512.742 0.698486 509.783 0.698486 506.139C0.698486 502.496 2.71203 499.537 5.20499 499.537C7.69795 499.537 9.71149 502.496 9.71149 506.139Z" fill="#020202" stroke="white" stroke-width="1.36976" stroke-miterlimit="10"/>
<path vector-effect="non-scaling-stroke" d="M15.3411 499.537V512.742Z" fill="#020202"/>
<path vector-effect="non-scaling-stroke" d="M15.3411 499.537V512.742" stroke="white" stroke-width="1.36976" stroke-miterlimit="10"/>
<path vector-effect="non-scaling-stroke" d="M35.6411 499.537V512.742Z" fill="#020202"/>
<path vector-effect="non-scaling-stroke" d="M35.6411 499.537V512.742" stroke="white" stroke-width="1.36976" stroke-miterlimit="10"/>
<path vector-effect="non-scaling-stroke" d="M50.2974 506.139C50.2974 509.783 48.2839 512.742 45.7909 512.742C43.298 512.742 41.2844 509.783 41.2844 506.139C41.2844 502.496 43.298 499.537 45.7909 499.537C48.2839 499.537 50.2974 502.496 50.2974 506.139Z" fill="#020202" stroke="white" stroke-width="1.36976" stroke-miterlimit="10"/>
<path vector-effect="non-scaling-stroke" d="M28.8745 499.537V512.742Z" fill="#020202"/>
<path vector-effect="non-scaling-stroke" d="M28.8745 499.537V512.742" stroke="white" stroke-width="1.36976" stroke-miterlimit="10"/>
<path vector-effect="non-scaling-stroke" d="M22.1079 499.537V512.742Z" fill="#020202"/>
<path vector-effect="non-scaling-stroke" d="M22.1079 499.537V512.742" stroke="white" stroke-width="1.36976" stroke-miterlimit="10"/>
<path vector-effect="non-scaling-stroke" d="M562.148 0.68457H778.461C787.337 0.68457 794.487 7.65664 794.487 16.3272V164.946C794.487 173.617 787.337 180.589 778.461 180.589H562.148C553.272 180.589 546.122 173.617 546.122 164.946V16.3272C546.122 7.65664 553.272 0.68457 562.148 0.68457Z" fill="#020202" stroke="white" stroke-width="1.36976" stroke-miterlimit="10"/>
<path vector-effect="non-scaling-stroke" d="M778.461 16.3276H774.461Z" fill="#020202"/>
<path vector-effect="non-scaling-stroke" d="M778.461 16.3276H774.461" stroke="white" stroke-width="1.36976" stroke-miterlimit="10"/>
<path vector-effect="non-scaling-stroke" d="M758.435 16.3276H754.435Z" fill="#020202"/>
<path vector-effect="non-scaling-stroke" d="M758.435 16.3276H754.435" stroke="white" stroke-width="1.36976" stroke-miterlimit="10"/>
<path vector-effect="non-scaling-stroke" d="M738.395 16.3276H734.396Z" fill="#020202"/>
<path vector-effect="non-scaling-stroke" d="M738.395 16.3276H734.396" stroke="white" stroke-width="1.36976" stroke-miterlimit="10"/>
<path vector-effect="non-scaling-stroke" d="M794.487 31.9702H546.122Z" fill="#020202"/>
<path vector-effect="non-scaling-stroke" d="M794.487 31.9702H546.122" stroke="white" stroke-width="1.36976" stroke-miterlimit="10"/>
<path vector-effect="non-scaling-stroke" d="M682.317 47.6128V59.3516L708.178 62.9541C709.973 70.8987 713.164 78.4734 717.602 85.3359L701.973 105.691L718.972 122.278L739.875 106.992C746.901 111.348 754.641 114.484 762.749 116.265L766.448 141.482H778.461" fill="#020202"/>
<path vector-effect="non-scaling-stroke" d="M682.317 47.6128V59.3516L708.178 62.9541C709.973 70.8987 713.164 78.4734 717.602 85.3359L701.973 105.691L718.972 122.278L739.875 106.992C746.901 111.348 754.641 114.484 762.749 116.265L766.448 141.482H778.461" stroke="white" stroke-width="1.36976" stroke-miterlimit="10"/>
<path vector-effect="non-scaling-stroke" d="M778.461 90.6369C754.12 90.6369 734.396 71.3781 734.396 47.6128Z" fill="#020202"/>
<path vector-effect="non-scaling-stroke" d="M778.461 90.6369C754.12 90.6369 734.396 71.3781 734.396 47.6128" stroke="white" stroke-width="1.36976" stroke-miterlimit="10"/>
<path vector-effect="non-scaling-stroke" d="M762.078 205.135H659.1V408.9H762.078V205.135Z" fill="#020202" stroke="white" stroke-width="1.36976" stroke-miterlimit="10"/>
<path vector-effect="non-scaling-stroke" d="M139.51 14.8755H36.5315V218.641H139.51V14.8755Z" fill="#020202" stroke="white" stroke-width="1.36976" stroke-miterlimit="10"/>
<path vector-effect="non-scaling-stroke" d="M372.93 451.65C491.839 451.65 588.242 357.561 588.242 241.502C588.242 125.442 491.852 31.3672 372.93 31.3672C254.008 31.3672 157.618 125.456 157.618 241.515C157.618 357.575 254.021 451.664 372.93 451.664V451.65Z" fill="#020202" stroke="white" stroke-width="1.36976"/>
<path vector-effect="non-scaling-stroke" d="M367.369 416.584C470.635 416.584 554.354 334.823 554.354 233.982C554.354 133.14 470.635 51.3794 367.369 51.3794" stroke="white" stroke-width="1.36976"/>
<path vector-effect="non-scaling-stroke" d="M534.178 232.831C534.178 142.098 458.814 68.5562 365.862 68.5562C272.91 68.5562 197.546 142.098 197.546 232.831" stroke="white" stroke-width="1.36976"/>
<path vector-effect="non-scaling-stroke" d="M96.02 109.197C96.02 109.197 150.975 286.471 298.552 324.413" stroke="white" stroke-width="1.36976" stroke-miterlimit="10"/>
<path vector-effect="non-scaling-stroke" d="M367.698 196.108L361.725 194.314C360.767 194.026 360.232 193.04 360.534 192.108L369.588 163.439C369.889 162.508 370.889 161.987 371.848 162.275L377.82 164.069C378.779 164.357 379.313 165.343 379.012 166.275L369.958 194.944C369.656 195.875 368.656 196.396 367.698 196.108Z" fill="#A100FF" stroke="white" stroke-width="1.36976" stroke-miterlimit="10"/>
<path vector-effect="non-scaling-stroke" d="M358.835 197.574C358.835 197.574 353.877 186.287 358.835 179.479C358.835 179.479 363.424 176.507 365.081 190.588C365.081 190.588 377.56 180.74 378.108 173.028C378.108 173.028 387.066 177.863 383.957 186.643C383.957 186.643 382.436 191.739 371.725 205.176" fill="#404040"/>
<path vector-effect="non-scaling-stroke" d="M358.835 197.574C358.835 197.574 353.877 186.287 358.835 179.479C358.835 179.479 363.424 176.507 365.081 190.588C365.081 190.588 377.56 180.74 378.108 173.028C378.108 173.028 387.066 177.863 383.957 186.643C383.957 186.643 382.436 191.739 371.725 205.176" stroke="white" stroke-width="1.36976" stroke-miterlimit="10"/>
<path vector-effect="non-scaling-stroke" d="M376.998 187.054C376.998 187.054 383.053 180.274 382.135 176.479Z" fill="white"/>
<path vector-effect="non-scaling-stroke" d="M376.998 187.054C376.998 187.054 383.053 180.274 382.135 176.479" stroke="white" stroke-width="1.36976" stroke-miterlimit="10"/>
<path vector-effect="non-scaling-stroke" d="M218.394 493.935L201.176 519.905C201.176 519.905 212.477 534.301 229.996 534.301H256.528C256.528 534.301 257.021 526.316 249.488 521.028C241.954 515.741 242.611 510.783 243.105 506.139C243.598 501.496 218.394 493.935 218.394 493.935Z" fill="#404040" stroke="white" stroke-width="1.36976" stroke-miterlimit="10"/>
<path vector-effect="non-scaling-stroke" d="M264.774 501.277V534.315H314.688C314.688 534.315 315.976 526.644 305.812 519.494C297.224 513.454 292.868 508.372 291.389 501.277C289.909 494.181 264.76 501.277 264.76 501.277H264.774Z" fill="#404040" stroke="white" stroke-width="1.36976" stroke-miterlimit="10"/>
<path vector-effect="non-scaling-stroke" d="M304.196 378.259H250.912V501.277H304.196V378.259Z" fill="#202020" stroke="white" stroke-width="1.36976" stroke-miterlimit="10"/>
<path vector-effect="non-scaling-stroke" d="M303.223 299.703L318.441 401.298C320.742 414.42 317.441 427.898 309.291 438.555L250.926 514.96L206.272 486.058L270.267 394.12L246.899 318.729L303.237 299.689L303.223 299.703Z" fill="#202020" stroke="white" stroke-width="1.36976" stroke-miterlimit="10"/>
<path vector-effect="non-scaling-stroke" d="M264.774 534.315H314.688C314.688 534.315 315.729 528.124 308.565 521.686H264.76V534.315H264.774Z" fill="#020202" stroke="white" stroke-width="1.36976" stroke-miterlimit="10"/>
<path vector-effect="non-scaling-stroke" d="M250.748 522.001C224.065 526.877 207.6 510.235 207.6 510.221L201.176 519.905C201.176 519.905 212.477 534.302 229.996 534.302H256.528C256.528 534.302 256.967 527.234 250.734 521.987L250.748 522.001Z" fill="#020202" stroke="white" stroke-width="1.36976" stroke-miterlimit="10"/>
<path vector-effect="non-scaling-stroke" d="M304.524 377.615H329.605L301.552 238.571L287.211 269.349L304.511 377.615H304.524Z" fill="#202020" stroke="white" stroke-width="1.36976" stroke-miterlimit="10"/>
<path vector-effect="non-scaling-stroke" d="M301.1 195.437L303.689 181.931C303.689 181.931 313.921 185.438 319.154 183.89C323.824 180.822 326.413 178.822 326.03 171.425L326.619 171.685C328.167 172.343 329.769 170.877 329.194 169.329C328.276 166.836 327.016 164.261 326.057 162.426C326.085 162.083 326.126 161.741 326.167 161.385C327.578 149.728 316.962 143.016 311.264 140.838C305.566 138.674 297.607 135.222 290.293 140.578C282.841 146.03 289.101 158.289 285.238 174.795C284.444 178.205 282.403 183 277.129 189.122L301.114 195.423L301.1 195.437Z" fill="#404040" stroke="white" stroke-width="1.36976" stroke-miterlimit="10"/>
<path vector-effect="non-scaling-stroke" d="M323.537 149.728C319.564 144.003 313.236 141.263 311.387 140.551L310.579 140.25C304.949 138.086 297.237 135.127 290.101 140.332C285.745 143.523 285.937 149.016 286.183 155.975C286.32 159.769 286.471 164.056 285.95 168.782L285.923 169.083L286.238 169.111C286.937 169.179 287.622 169.22 288.279 169.22C302.305 169.22 307.702 153.509 309.729 151.386C317.784 152.783 323.372 150.194 323.427 150.167L323.742 150.016L323.537 149.728Z" fill="#A2A2A0" stroke="white" stroke-width="1.36976" stroke-miterlimit="10"/>
<path vector-effect="non-scaling-stroke" d="M284.471 187.013H307.058L305.607 200.34L284.471 187.013Z" fill="#202020" stroke="white" stroke-width="1.36976" stroke-miterlimit="10"/>
<path vector-effect="non-scaling-stroke" d="M307.072 158.001C307.072 158.001 303.059 153.55 299.593 156.303C295.196 159.796 299.593 165.179 301.853 165.795" fill="white"/>
<path vector-effect="non-scaling-stroke" d="M307.072 158.001C307.072 158.001 303.059 153.55 299.593 156.303C295.196 159.796 299.593 165.179 301.853 165.795" stroke="white" stroke-width="1.36976" stroke-miterlimit="10"/>
<path vector-effect="non-scaling-stroke" d="M307.072 158.001C307.072 158.001 303.059 153.55 299.593 156.303C295.196 159.796 299.593 165.179 301.853 165.795" stroke="white" stroke-width="1.36976" stroke-miterlimit="10"/>
<path vector-effect="non-scaling-stroke" d="M326.167 175.438C320.345 175.438 319.154 170.644 319.154 170.603" stroke="white" stroke-width="1.36976" stroke-miterlimit="10"/>
<path vector-effect="non-scaling-stroke" d="M307.278 254.994L304.524 377.615H216.449L260.637 204.807C264.733 188.821 284.937 181.616 298.484 191.671C303.004 195.026 305.456 199.971 309.045 204.053C311.743 207.135 314.606 210.107 317.373 213.121L330.577 227.49C330.577 227.49 330.618 227.531 330.618 227.544L352.685 193.999L380.546 211.217L352.603 259.994C344.754 274.308 324.482 276.089 314.126 263.391L307.278 254.981V254.994Z" fill="#020202" stroke="white" stroke-width="1.36976" stroke-miterlimit="10"/>
<path vector-effect="non-scaling-stroke" d="M307.278 254.994L295.772 242.694" stroke="white" stroke-width="1.36976" stroke-miterlimit="10"/>
<path vector-effect="non-scaling-stroke" d="M309.456 154.166L329.591 155.399C329.591 155.399 323.646 126.62 289.156 135.592C289.156 135.592 266.747 144.797 265.692 173.028L307.072 179.192L309.469 154.166H309.456Z" fill="#020202" stroke="white" stroke-width="1.36976"/>
<path vector-effect="non-scaling-stroke" d="M797.076 476.032C797.076 448.321 773.173 425.857 743.696 425.857H470.128C440.637 425.857 416.749 448.321 416.749 476.032C416.749 503.742 440.651 526.206 470.128 526.206H743.696C773.187 526.206 797.076 503.742 797.076 476.032Z" fill="#020202" stroke="white" stroke-width="1.36976"/>
<path vector-effect="non-scaling-stroke" d="M172.644 268.336L154.563 277.239C147.358 270.5 138.88 265.199 129.593 261.638L130.278 241.9L106.033 237.694L99.7046 256.446C89.7191 256.652 79.8705 258.761 70.7069 262.638L56.9271 248.241L36.7369 261.994L45.8595 279.65C38.9696 286.691 33.5316 294.964 29.8744 304.032L9.65678 303.361L5.34204 327.03L24.5597 333.208C24.7652 342.96 26.9294 352.576 30.9017 361.52L16.1494 374.971L30.2442 394.682L48.325 385.779C55.5299 392.518 64.0087 397.819 73.2957 401.38L72.6108 421.119L96.8555 425.324L103.184 406.572C113.169 406.366 123.018 404.257 132.182 400.38L145.961 414.777L166.152 401.024L157.029 383.368C163.919 376.328 169.357 368.054 173.014 358.986L193.232 359.658L197.546 335.988L178.329 329.811C178.123 320.058 175.959 310.442 171.987 301.498L186.739 288.047L172.644 268.336Z" fill="#020202" stroke="white" stroke-width="1.36976" stroke-miterlimit="10"/>
<path vector-effect="non-scaling-stroke" d="M101.444 372.876C124.853 372.876 143.838 354.343 143.838 331.495C143.838 308.648 124.853 290.115 101.444 290.115C78.0351 290.115 59.0503 308.648 59.0503 331.495C59.0503 354.343 78.0351 372.876 101.444 372.876Z" fill="#404040" stroke="white" stroke-width="1.36976" stroke-miterlimit="10"/>
<path vector-effect="non-scaling-stroke" d="M101.444 306.785C96.883 310.661 89.911 313.181 82.0623 313.346V333.481C82.0623 338.234 84.021 342.768 87.5139 346.083L101.431 356.219L115.375 346.083C118.868 342.768 120.84 338.221 120.84 333.468V313.346C112.991 313.181 106.019 310.647 101.458 306.785H101.444ZM103.499 330.262V339.193H99.376V330.262C98.6911 329.687 98.2528 328.838 98.2528 327.893C98.2528 326.18 99.6773 324.783 101.444 324.783C103.211 324.783 104.636 326.18 104.636 327.893C104.636 328.838 104.198 329.687 103.513 330.262H103.499Z" fill="#020202" stroke="white" stroke-width="1.36976" stroke-miterlimit="10"/>
<path vector-effect="non-scaling-stroke" d="M528.781 88.2262C528.836 90.7602 528.658 93.2669 528.22 95.6913C528.192 95.842 528.151 95.9927 528.124 96.1434L435.734 96.8008L414.927 96.9378L329.714 97.5405C329.358 96.9515 329.029 96.3625 328.714 95.7598C325.605 89.952 323.797 83.4457 323.633 76.5284C323.03 51.4619 344.275 30.6415 371.095 30.0251C375.451 29.9293 379.669 30.3676 383.71 31.2716C390.586 15.2591 406.613 3.83537 425.543 3.39705C451.239 2.80805 472.566 22.6695 473.169 47.7498C473.169 47.9416 473.169 48.1333 473.169 48.3114C475.676 47.8868 478.251 47.6265 480.881 47.5717C506.769 46.969 528.206 65.1731 528.767 88.2262H528.781Z" fill="#020202" stroke="white" stroke-width="1.36976" stroke-miterlimit="10"/>
<path vector-effect="non-scaling-stroke" d="M277.129 132.25V117.909H291.101" stroke="white" stroke-width="1.36976" stroke-miterlimit="10"/>
<path vector-effect="non-scaling-stroke" d="M291.813 221.613H277.116V207.97" stroke="white" stroke-width="1.36976" stroke-miterlimit="10"/>
<path vector-effect="non-scaling-stroke" d="M411.133 207.271V221.613H397.161" stroke="white" stroke-width="1.36976" stroke-miterlimit="10"/>
<path vector-effect="non-scaling-stroke" d="M396.435 117.909H411.133V131.551" stroke="white" stroke-width="1.36976" stroke-miterlimit="10"/>
<path vector-effect="non-scaling-stroke" d="M494.496 496.62C494.304 496.62 494.113 496.565 493.934 496.455C490.414 494.264 487.25 491.771 484.524 489.058C484.113 488.661 484.127 488.004 484.524 487.607C484.935 487.209 485.606 487.209 486.004 487.607C488.62 490.209 491.674 492.606 495.058 494.716C495.551 495.017 495.688 495.661 495.373 496.126C495.167 496.428 494.839 496.606 494.482 496.606L494.496 496.62Z" fill="white"/>
<path vector-effect="non-scaling-stroke" d="M481.333 484.922C481.018 484.922 480.689 484.771 480.484 484.511C476.909 479.799 475.032 475.101 475.032 470.923C475.032 470.361 475.498 469.896 476.087 469.896C476.676 469.896 477.141 470.361 477.141 470.923C477.141 474.594 478.936 478.991 482.182 483.292C482.525 483.744 482.429 484.388 481.963 484.73C481.771 484.867 481.552 484.935 481.333 484.935V484.922Z" fill="white"/>
<path vector-effect="non-scaling-stroke" d="M461.088 457.581C460.828 457.581 460.554 457.485 460.348 457.294C459.937 456.896 459.923 456.253 460.334 455.842C464.526 451.678 470.114 449.376 476.073 449.376C479.141 449.376 482.114 449.979 484.894 451.171C485.428 451.404 485.661 452.006 485.428 452.527C485.196 453.047 484.579 453.28 484.045 453.061C481.525 451.979 478.84 451.431 476.059 451.431C470.662 451.431 465.608 453.513 461.814 457.28C461.608 457.485 461.334 457.581 461.06 457.581H461.088Z" fill="white"/>
<path vector-effect="non-scaling-stroke" d="M455.842 479.114C455.348 479.114 454.924 478.785 454.814 478.292C454.294 475.813 454.02 473.333 454.02 470.909C454.02 467.923 454.636 465.019 455.855 462.293C456.088 461.773 456.705 461.54 457.239 461.759C457.773 461.992 458.006 462.595 457.773 463.115C456.663 465.581 456.102 468.197 456.102 470.909C456.102 473.196 456.348 475.539 456.855 477.881C456.978 478.429 456.609 478.977 456.047 479.1C455.979 479.114 455.896 479.128 455.828 479.128L455.842 479.114Z" fill="white"/>
<path vector-effect="non-scaling-stroke" d="M467.676 501.071C467.389 501.071 467.101 500.948 466.882 500.729C462.033 495.332 458.472 489.565 456.307 483.58C456.116 483.045 456.403 482.456 456.951 482.265C457.499 482.073 458.102 482.361 458.294 482.895C460.362 488.634 463.786 494.182 468.457 499.373C468.841 499.798 468.8 500.441 468.361 500.825C468.156 500.989 467.909 501.085 467.663 501.085L467.676 501.071Z" fill="white"/>
<path vector-effect="non-scaling-stroke" d="M504.345 478.279C504.139 478.279 503.92 478.21 503.742 478.087C502.592 477.292 501.496 476.416 500.372 475.429C497.962 473.265 496.291 470.348 495.674 467.211C494.907 463.335 492.948 459.801 490.045 457.006C489.634 456.609 489.62 455.965 490.045 455.554C490.455 455.143 491.113 455.143 491.524 455.554C494.743 458.636 496.893 462.54 497.743 466.827C498.277 469.526 499.715 472.046 501.797 473.923C502.852 474.854 503.879 475.676 504.961 476.429C505.427 476.758 505.55 477.402 505.208 477.854C505.002 478.142 504.674 478.279 504.345 478.279Z" fill="white"/>
<path vector-effect="non-scaling-stroke" d="M489.401 463.732C489.058 463.732 488.716 463.567 488.51 463.252C485.785 459.061 481.141 456.554 476.073 456.554C474.744 456.554 473.429 456.732 472.155 457.075C471.594 457.225 471.019 456.91 470.868 456.362C470.717 455.814 471.046 455.253 471.594 455.102C473.046 454.705 474.553 454.513 476.073 454.513C481.867 454.513 487.182 457.376 490.291 462.17C490.606 462.65 490.455 463.28 489.962 463.581C489.784 463.691 489.592 463.745 489.401 463.745V463.732Z" fill="white"/>
<path vector-effect="non-scaling-stroke" d="M461.198 479.114C460.718 479.114 460.293 478.799 460.17 478.32C459.568 475.827 459.252 473.334 459.252 470.909C459.252 465.704 461.704 460.924 465.978 457.787C466.444 457.444 467.101 457.54 467.444 457.992C467.786 458.444 467.704 459.088 467.238 459.431C463.499 462.17 461.348 466.362 461.348 470.909C461.348 473.183 461.636 475.525 462.197 477.854C462.334 478.402 461.978 478.963 461.417 479.087C461.334 479.1 461.252 479.114 461.17 479.114H461.198Z" fill="white"/>
<path vector-effect="non-scaling-stroke" d="M476.621 502.701C476.374 502.701 476.114 502.619 475.922 502.441C469.964 497.222 465.334 491.195 462.512 485.004C462.28 484.483 462.512 483.881 463.047 483.648C463.581 483.415 464.197 483.648 464.43 484.168C467.129 490.086 471.58 495.88 477.32 500.907C477.758 501.29 477.785 501.934 477.402 502.359C477.196 502.578 476.909 502.701 476.621 502.701Z" fill="white"/>
<path vector-effect="non-scaling-stroke" d="M503.263 483.771C503.071 483.771 502.879 483.716 502.701 483.607C499.29 481.497 496.153 478.867 493.852 476.21C492.113 474.21 491.003 471.758 490.661 469.115C490.592 468.553 490.989 468.046 491.565 467.964C492.14 467.896 492.661 468.293 492.743 468.855C493.03 471.101 493.976 473.183 495.455 474.881C497.619 477.388 500.592 479.867 503.824 481.867C504.317 482.169 504.454 482.799 504.153 483.278C503.947 483.579 503.619 483.758 503.263 483.758V483.771Z" fill="white"/>
<path vector-effect="non-scaling-stroke" d="M466.443 467.841C466.306 467.841 466.156 467.814 466.019 467.759C465.485 467.526 465.252 466.923 465.485 466.403C467.334 462.294 471.484 459.636 476.073 459.636H476.141C479.21 459.636 482.1 460.801 484.278 462.924C484.99 463.622 485.606 464.417 486.113 465.28C486.401 465.773 486.223 466.403 485.73 466.677C485.223 466.964 484.579 466.786 484.291 466.293C483.88 465.595 483.374 464.951 482.785 464.376C481.018 462.636 478.648 461.691 476.141 461.691H476.073C472.32 461.691 468.923 463.869 467.402 467.225C467.224 467.608 466.841 467.841 466.443 467.841Z" fill="white"/>
<path vector-effect="non-scaling-stroke" d="M483.908 501.879C483.689 501.879 483.456 501.81 483.264 501.66C480.607 499.66 478.141 497.482 475.95 495.208C475.553 494.797 475.58 494.14 476.005 493.756C476.429 493.373 477.087 493.386 477.484 493.797C479.593 496.003 481.977 498.098 484.538 500.03C485.004 500.372 485.086 501.016 484.73 501.468C484.524 501.728 484.209 501.865 483.894 501.865L483.908 501.879Z" fill="white"/>
<path vector-effect="non-scaling-stroke" d="M472.402 490.401C472.073 490.401 471.744 490.25 471.553 489.976C467.772 484.812 465.416 479.333 464.745 474.128C464.676 473.566 465.074 473.046 465.649 472.977C466.224 472.909 466.745 473.306 466.827 473.868C467.457 478.744 469.69 483.894 473.265 488.784C473.607 489.25 473.498 489.88 473.018 490.209C472.827 490.332 472.621 490.401 472.402 490.401Z" fill="white"/>
<path vector-effect="non-scaling-stroke" d="M501.222 488.579C501.03 488.579 500.852 488.524 500.674 488.428C496.386 485.881 492.483 482.648 489.688 479.347C487.004 476.169 485.524 473.169 485.524 470.909C485.524 470.348 485.99 469.882 486.579 469.882C487.168 469.882 487.634 470.348 487.634 470.909C487.634 474.457 493.044 481.497 501.77 486.675C502.263 486.963 502.427 487.606 502.126 488.086C501.934 488.401 501.578 488.579 501.222 488.579Z" fill="white"/>
<path vector-effect="non-scaling-stroke" d="M489.771 499.674C489.565 499.674 489.36 499.619 489.182 499.496C483.429 495.619 478.58 490.976 475.183 486.072C471.649 480.977 469.786 475.744 469.786 470.923C469.786 467.526 472.608 464.772 476.087 464.772C479.566 464.772 482.388 467.539 482.388 470.923C482.388 476.854 489.319 485.278 498.866 490.962C499.359 491.264 499.523 491.894 499.222 492.373C498.921 492.852 498.277 493.003 497.784 492.716C487.483 486.579 480.292 477.621 480.292 470.923C480.292 468.663 478.402 466.827 476.087 466.827C473.772 466.827 471.882 468.663 471.882 470.923C471.882 479.826 478.963 490.127 490.373 497.811C490.853 498.126 490.976 498.77 490.647 499.236C490.442 499.523 490.113 499.674 489.784 499.674H489.771Z" fill="white"/>
<path vector-effect="non-scaling-stroke" d="M665.168 466.608C660.333 466.608 656.401 470.444 656.401 475.156C656.401 470.43 652.484 466.608 647.635 466.608C642.8 466.608 638.869 470.444 638.869 475.156C638.869 470.43 634.951 466.608 630.102 466.608C625.253 466.608 621.336 470.444 621.336 475.156C621.336 460.979 633.102 449.5 647.621 449.5C662.141 449.5 673.907 460.992 673.907 475.156C673.907 470.43 669.989 466.608 665.141 466.608H665.168Z" fill="#404040" stroke="white" stroke-width="1.36976" stroke-miterlimit="10"/>
<path vector-effect="non-scaling-stroke" d="M647.649 472.306V497.962C647.649 500.318 645.69 502.235 643.266 502.235C640.841 502.235 638.882 500.318 638.882 497.962" stroke="white" stroke-width="1.36976" stroke-miterlimit="10"/>
<path vector-effect="non-scaling-stroke" d="M36.5315 14.8753L5.17773 0.68457V235.119L36.5315 218.64" stroke="white" stroke-width="1.36976" stroke-linecap="round" stroke-linejoin="round"/>
<path vector-effect="non-scaling-stroke" d="M762.078 409.955L793.432 424.159V189.711L762.078 206.203" stroke="white" stroke-width="1.36976" stroke-linecap="round" stroke-linejoin="round"/>
<path vector-effect="non-scaling-stroke" d="M84.7607 64.3647H121.744C123.854 64.3647 125.566 66.0358 125.566 68.1042V105.444C125.566 107.498 123.854 109.183 121.744 109.183H63.0912C60.9817 109.183 59.2695 107.512 59.2695 105.444V68.1042C59.2695 66.0495 60.9817 64.3647 63.0912 64.3647H73.2958" stroke="white" stroke-width="1.36976" stroke-miterlimit="10"/>
<path vector-effect="non-scaling-stroke" d="M118.799 72.748L95.0476 94.7738C94.3079 95.4586 93.3628 95.8011 92.4177 95.8011C91.4725 95.8011 90.5274 95.4586 89.7877 94.7738L66.0361 72.748" stroke="white" stroke-width="1.36976" stroke-miterlimit="10"/>
<path vector-effect="non-scaling-stroke" d="M117.183 102.732L104.43 94.02" stroke="white" stroke-width="1.36976" stroke-miterlimit="10"/>
<path vector-effect="non-scaling-stroke" d="M80.3911 94.02L67.6387 102.732" stroke="white" stroke-width="1.36976" stroke-miterlimit="10"/>
<path vector-effect="non-scaling-stroke" d="M83.8566 55.2973L79.6651 51.188L75.46 55.2973" stroke="white" stroke-width="1.36976" stroke-miterlimit="10"/>
<path vector-effect="non-scaling-stroke" d="M731.218 490.551H752.12V459.526H745.436L742.929 463.608H703.631V490.551H724.533" stroke="white" stroke-width="1.36976" stroke-miterlimit="10"/>
<path vector-effect="non-scaling-stroke" d="M713.657 501.975C713.657 503.331 712.534 504.427 711.15 504.427C709.767 504.427 708.644 503.331 708.644 501.975C708.644 500.619 709.767 499.523 711.15 499.523C712.534 499.523 713.657 500.619 713.657 501.975Z" stroke="white" stroke-width="1.36976" stroke-miterlimit="10"/>
<path vector-effect="non-scaling-stroke" d="M730.382 501.975C730.382 503.331 729.259 504.427 727.875 504.427C726.492 504.427 725.369 503.331 725.369 501.975C725.369 500.619 726.492 499.523 727.875 499.523C729.259 499.523 730.382 500.619 730.382 501.975Z" stroke="white" stroke-width="1.36976" stroke-miterlimit="10"/>
<path vector-effect="non-scaling-stroke" d="M747.107 501.975C747.107 503.331 745.984 504.427 744.6 504.427C743.217 504.427 742.094 503.331 742.094 501.975C742.094 500.619 743.217 499.523 744.6 499.523C745.984 499.523 747.107 500.619 747.107 501.975Z" stroke="white" stroke-width="1.36976" stroke-miterlimit="10"/>
<path vector-effect="non-scaling-stroke" d="M727.875 499.523V486.456" stroke="white" stroke-width="1.36976" stroke-miterlimit="10"/>
<path vector-effect="non-scaling-stroke" d="M711.151 499.523V495.441H744.6V499.523" stroke="white" stroke-width="1.36976" stroke-miterlimit="10"/>
<path vector-effect="non-scaling-stroke" d="M709.479 460.348V453.814H746.271V456.266" stroke="white" stroke-width="1.36976" stroke-miterlimit="10"/>
<path vector-effect="non-scaling-stroke" d="M724.52 486.47H731.204" stroke="white" stroke-width="1.36976" stroke-miterlimit="10"/>
<path vector-effect="non-scaling-stroke" d="M525.083 477.21C525.083 477.21 560.203 432.392 597.803 477.21C597.803 477.21 564.477 522.851 525.083 477.21Z" stroke="white" stroke-width="1.36976" stroke-miterlimit="10"/>
<path vector-effect="non-scaling-stroke" d="M561.436 490.237C568.88 490.237 574.915 484.49 574.915 477.402C574.915 470.314 568.88 464.567 561.436 464.567C553.992 464.567 547.958 470.314 547.958 477.402C547.958 484.49 553.992 490.237 561.436 490.237Z" stroke="white" stroke-width="1.36976" stroke-miterlimit="10"/>
<path vector-effect="non-scaling-stroke" d="M476.73 321.674C476.73 337.947 446.541 374.725 446.541 374.725C446.541 374.725 416.352 337.947 416.352 321.674C416.352 305.401 429.871 292.197 446.541 292.197C463.211 292.197 476.73 305.388 476.73 321.674Z" stroke="white" stroke-width="1.36976" stroke-linecap="round" stroke-linejoin="round"/>
<path vector-effect="non-scaling-stroke" d="M461.636 321.674C461.636 329.81 454.883 336.413 446.541 336.413C438.199 336.413 431.446 329.81 431.446 321.674C431.446 313.538 438.199 306.936 446.541 306.936C454.883 306.936 461.636 313.538 461.636 321.674Z" stroke="white" stroke-width="1.36976" stroke-linecap="round" stroke-linejoin="round"/>
<path vector-effect="non-scaling-stroke" d="M432.816 326.632C498.633 312.633 614.473 288.224 658.155 306.25C700.439 323.701 678.797 303.401 700.741 333.454" stroke="white" stroke-width="1.36976" stroke-miterlimit="10"/>
<path vector-effect="non-scaling-stroke" d="M319.66 328.372C352.493 336.81 379.711 336.056 418.091 329.947" stroke="white" stroke-width="1.36976" stroke-miterlimit="10"/>
<path vector-effect="non-scaling-stroke" d="M683.413 267.76C681.687 267.856 680.126 268.787 679.263 270.239L639.444 337.563C638.033 339.946 638.869 343.001 641.32 344.371C642.101 344.809 642.978 345.042 643.868 345.042H723.506C726.328 345.042 728.615 342.809 728.615 340.056C728.615 339.179 728.382 338.33 727.93 337.563L688.111 270.239C687.152 268.623 685.344 267.664 683.427 267.76H683.413Z" fill="#A100FF" stroke="white" stroke-width="1.36976" stroke-miterlimit="10"/>
<path vector-effect="non-scaling-stroke" d="M688.029 331.851C688.029 334.193 686.084 336.097 683.687 336.097C681.29 336.097 679.345 334.193 679.345 331.851C679.345 329.508 681.29 327.604 683.687 327.604C686.084 327.604 688.029 329.508 688.029 331.851Z" fill="#404040" stroke="white" stroke-width="1.36976" stroke-miterlimit="10"/>
<path vector-effect="non-scaling-stroke" d="M677.879 296.497C677.879 293.374 680.468 290.84 683.673 290.84C686.879 290.84 689.467 293.374 689.467 296.497L686.563 319.126C686.563 320.687 685.262 321.961 683.66 321.961C682.057 321.961 680.756 320.701 680.756 319.126L677.852 296.497H677.879Z" fill="#404040" stroke="white" stroke-width="1.36976" stroke-miterlimit="10"/>
<path vector-effect="non-scaling-stroke" d="M79.665 51.188V68.9401C79.665 71.9261 82.0895 74.3369 85.0619 74.3369" stroke="white" stroke-width="1.36976" stroke-miterlimit="10"/>
<path vector-effect="non-scaling-stroke" d="M463.608 202.697V195.012C463.608 190.068 459.485 186.041 454.417 186.041C449.349 186.041 445.226 190.068 445.226 195.012V202.697" stroke="white" stroke-width="1.36976" stroke-miterlimit="10"/>
<path vector-effect="non-scaling-stroke" d="M465.457 199.779H443.39C440.016 199.779 437.281 202.514 437.281 205.888V226.051C437.281 229.425 440.016 232.16 443.39 232.16H465.457C468.831 232.16 471.566 229.425 471.566 226.051V205.888C471.566 202.514 468.831 199.779 465.457 199.779Z" fill="#020202" stroke="white" stroke-width="1.36976" stroke-miterlimit="10"/>
<path vector-effect="non-scaling-stroke" d="M454.417 219.107C457.178 219.107 459.417 216.868 459.417 214.107C459.417 211.346 457.178 209.107 454.417 209.107C451.656 209.107 449.417 211.346 449.417 214.107C449.417 216.868 451.656 219.107 454.417 219.107Z" stroke="white" stroke-width="1.36976" stroke-miterlimit="10"/>
<path vector-effect="non-scaling-stroke" d="M454.417 214.107V224.955" stroke="white" stroke-width="1.36976" stroke-miterlimit="10" stroke-linecap="round"/>
<path vector-effect="non-scaling-stroke" d="M476.059 186.369H481.881C485.647 186.369 488.743 183.287 488.743 179.507V169.836C488.743 166.069 485.661 162.974 481.881 162.974H426.967C423.2 162.974 420.104 166.056 420.104 169.836V179.507C420.104 183.273 423.186 186.369 426.967 186.369H432.788" stroke="white" stroke-width="1.36976" stroke-miterlimit="10"/>
<path vector-effect="non-scaling-stroke" d="M429.446 170.439L441.363 178.904" stroke="white" stroke-width="1.36976" stroke-miterlimit="10"/>
<path vector-effect="non-scaling-stroke" d="M435.405 168.686V180.657" stroke="white" stroke-width="1.36976" stroke-miterlimit="10"/>
<path vector-effect="non-scaling-stroke" d="M441.363 170.439L429.446 178.904" stroke="white" stroke-width="1.36976" stroke-miterlimit="10"/>
<path vector-effect="non-scaling-stroke" d="M448.458 170.439L460.375 178.904" stroke="white" stroke-width="1.36976" stroke-miterlimit="10"/>
<path vector-effect="non-scaling-stroke" d="M454.417 168.686V180.657" stroke="white" stroke-width="1.36976" stroke-miterlimit="10"/>
<path vector-effect="non-scaling-stroke" d="M460.375 170.439L448.458 178.904" stroke="white" stroke-width="1.36976" stroke-miterlimit="10"/>
<path vector-effect="non-scaling-stroke" d="M467.471 170.439L479.388 178.904" stroke="white" stroke-width="1.36976" stroke-miterlimit="10"/>
<path vector-effect="non-scaling-stroke" d="M473.429 168.686V180.657" stroke="white" stroke-width="1.36976" stroke-miterlimit="10"/>
<path vector-effect="non-scaling-stroke" d="M479.388 170.439L467.471 178.904" stroke="white" stroke-width="1.36976" stroke-miterlimit="10"/>
</g>
</g>
<defs>
<clipPath id="clip0_20_10711">
<rect width="802" height="535" fill="white"/>
</clipPath>
<clipPath id="clip1_20_10711">
<rect width="797.76" height="535" fill="white"/>
</clipPath>
</defs>
</svg>
