<svg width="802" height="535" viewBox="0 0 802 535" fill="none" xmlns="http://www.w3.org/2000/svg">
<g clip-path="url(#clip0_20_11251)">
<path vector-effect="non-scaling-stroke" d="M231.968 112.544C229.633 103.708 226.166 95.348 221.762 87.6027L238.847 58.4669L212.633 31.8755L183.903 49.1977C176.269 44.7238 168.02 41.2147 159.31 38.8379L151.076 6.01123H113.999L105.764 38.8379C97.0543 41.2147 88.8057 44.7238 81.1583 49.1977L52.4279 31.8755L26.214 58.4669L43.2985 87.6027C38.8945 95.348 35.4273 103.708 33.0925 112.544L0.699219 120.905V158.499L33.0786 166.859C35.4133 175.695 38.8806 184.056 43.2845 191.801L26.2 220.937L52.4139 247.528L81.1443 230.206C88.8197 234.708 97.0264 238.189 105.75 240.566L113.985 273.392H151.062L159.296 240.566C168.006 238.189 176.255 234.68 183.889 230.206" fill="black"/>
<path vector-effect="non-scaling-stroke" d="M231.968 112.544C229.633 103.708 226.166 95.348 221.762 87.6027L238.847 58.4669L212.633 31.8755L183.903 49.1977C176.269 44.7238 168.02 41.2147 159.31 38.8379L151.076 6.01123H113.999L105.764 38.8379C97.0543 41.2147 88.8057 44.7238 81.1583 49.1977L52.4279 31.8755L26.214 58.4669L43.2985 87.6027C38.8945 95.348 35.4273 103.708 33.0925 112.544L0.699219 120.905V158.499L33.0786 166.859C35.4133 175.695 38.8806 184.056 43.2845 191.801L26.2 220.937L52.4139 247.528L81.1443 230.206C88.8197 234.708 97.0264 238.189 105.75 240.566L113.985 273.392H151.062L159.296 240.566C168.006 238.189 176.255 234.68 183.889 230.206" stroke="white" stroke-width="1.39807" stroke-linecap="round" stroke-linejoin="round"/>
<path vector-effect="non-scaling-stroke" d="M408.531 179.778H491.674V64.5068" stroke="white" stroke-width="1.39807" stroke-linecap="round" stroke-linejoin="round"/>
<path vector-effect="non-scaling-stroke" d="M498.399 64.5068V80.8363H506.088V100.046H514.728V149.999H526.263V96.2011L538.747 84.681V186.503H521.453L521.761 243.558" stroke="white" stroke-width="1.39807" stroke-linecap="round" stroke-linejoin="round"/>
<path vector-effect="non-scaling-stroke" d="M498.399 53.9375V59.6976" stroke="white" stroke-width="1.39807" stroke-linecap="round" stroke-linejoin="round"/>
<path vector-effect="non-scaling-stroke" d="M669.383 61.6269V71.2316L657.863 76.9917V86.5964L665.538 89.4764L661.694 152.879H646.329V71.2316L626.155 50.0928V116.375L616.55 125.98V159.604L639.604 182.658V348.022" stroke="white" stroke-width="1.39807" stroke-linecap="round" stroke-linejoin="round"/>
<path vector-effect="non-scaling-stroke" d="M669.383 51.0576V56.8177" stroke="white" stroke-width="1.39807" stroke-linecap="round" stroke-linejoin="round"/>
<path vector-effect="non-scaling-stroke" d="M675.143 74.1118L681.868 76.9918V86.5966L674.192 89.4766L679.058 169.209" stroke="white" stroke-width="1.39807" stroke-linecap="round" stroke-linejoin="round"/>
<path vector-effect="non-scaling-stroke" d="M701.077 72.1816V105.805H692.437V187.453H674.192L673.074 286.786" stroke="white" stroke-width="1.39807" stroke-linecap="round" stroke-linejoin="round"/>
<path vector-effect="non-scaling-stroke" d="M712.611 82.751V132.704H720.301V179.777H760.453V319.976" stroke="white" stroke-width="1.39807" stroke-linecap="round" stroke-linejoin="round"/>
<path vector-effect="non-scaling-stroke" d="M712.611 72.1816V77.9557" stroke="white" stroke-width="1.39807" stroke-linecap="round" stroke-linejoin="round"/>
<path vector-effect="non-scaling-stroke" d="M551.232 221.077C554.946 221.077 557.957 218.066 557.957 214.352C557.957 210.638 554.946 207.627 551.232 207.627C547.518 207.627 544.507 210.638 544.507 214.352C544.507 218.066 547.518 221.077 551.232 221.077Z" stroke="white" stroke-width="1.39807" stroke-linecap="round" stroke-linejoin="round"/>
<path vector-effect="non-scaling-stroke" d="M619.43 221.077C623.144 221.077 626.155 218.066 626.155 214.352C626.155 210.638 623.144 207.627 619.43 207.627C615.716 207.627 612.705 210.638 612.705 214.352C612.705 218.066 615.716 221.077 619.43 221.077Z" stroke="white" stroke-width="1.39807" stroke-linecap="round" stroke-linejoin="round"/>
<path vector-effect="non-scaling-stroke" d="M551.232 126.945V123.17C551.232 110.657 554.811 98.3402 561.871 88.0085C566.457 81.2977 571.965 75.7614 578.131 72.1963V175.933H589.651V99.0812H604.065V165.364L619.43 180.729V207.627" stroke="white" stroke-width="1.39807" stroke-linecap="round" stroke-linejoin="round"/>
<path vector-effect="non-scaling-stroke" d="M551.232 207.627V131.74" stroke="white" stroke-width="1.39807" stroke-linecap="round" stroke-linejoin="round"/>
<path vector-effect="non-scaling-stroke" d="M84.9887 236.26H60.9419V252.939H84.9887V236.26Z" fill="black" stroke="white" stroke-width="1.39807" stroke-linecap="round" stroke-linejoin="round"/>
<path vector-effect="non-scaling-stroke" d="M74.2796 276.106L50.792 392.285L140.73 322.829L129.867 273.086L74.2796 276.092V276.106Z" fill="black" stroke="white" stroke-width="1.39807" stroke-linecap="round" stroke-linejoin="round"/>
<path vector-effect="non-scaling-stroke" d="M142.198 164.847H86.0654C80.9904 164.847 76.7403 168.719 76.195 173.85L64.605 282.229C63.9619 288.198 68.5616 293.413 74.4754 293.413H130.608C135.683 293.413 139.933 289.541 140.478 284.41L152.068 176.031C152.712 170.061 148.112 164.847 142.198 164.847Z" fill="#202020" stroke="white" stroke-width="1.39807" stroke-linecap="round" stroke-linejoin="round"/>
<path vector-effect="non-scaling-stroke" d="M123.212 207.936C128.357 207.936 132.523 203.77 132.523 198.625C132.523 193.48 128.357 189.313 123.212 189.313C118.067 189.313 113.901 193.48 113.901 198.625C113.901 203.77 118.067 207.936 123.212 207.936Z" fill="black" stroke="white" stroke-width="1.39807" stroke-linecap="round" stroke-linejoin="round"/>
<path vector-effect="non-scaling-stroke" d="M93.5172 217.247C98.6621 217.247 102.828 213.081 102.828 207.936C102.828 202.791 98.6621 198.625 93.5172 198.625C88.3723 198.625 84.2061 202.791 84.2061 207.936C84.2061 213.081 88.3723 217.247 93.5172 217.247Z" fill="black" stroke="white" stroke-width="1.39807" stroke-linecap="round" stroke-linejoin="round"/>
<path vector-effect="non-scaling-stroke" d="M76.6846 225.957C79.3269 225.733 81.5638 221.93 82.8081 219.973C84.6815 217.023 85.5763 213.15 87.8831 210.55C89.5748 208.634 91.7838 207.488 94.3842 207.488C100.927 207.488 100.144 213.262 107.456 213.262C114.768 213.262 115.397 198.61 123.8 198.61C130.692 198.61 131.125 210.27 140.674 216.743C140.674 216.743 158.751 226.614 168.873 194.696C168.873 194.696 175.808 171.32 190.837 187.593" stroke="white" stroke-width="1.39807" stroke-linecap="round" stroke-linejoin="round"/>
<path vector-effect="non-scaling-stroke" d="M76.1948 174.619L75.9292 177.052H152.04L152.068 176.8C152.711 170.831 148.112 165.616 142.198 165.616H86.0652C80.9902 165.616 76.7401 169.488 76.1948 174.619Z" fill="black" stroke="white" stroke-width="1.39807" stroke-linecap="round" stroke-linejoin="round"/>
<path vector-effect="non-scaling-stroke" d="M140.464 285.179L140.73 282.746H64.6188L64.5909 282.998C63.9478 288.968 68.5474 294.182 74.4613 294.182H130.594C135.669 294.182 139.919 290.31 140.464 285.179Z" fill="black" stroke="white" stroke-width="1.39807" stroke-linecap="round" stroke-linejoin="round"/>
<path vector-effect="non-scaling-stroke" d="M57.391 286.242C57.391 286.242 53.2806 289.402 53.5882 294.574C53.9098 299.747 58.9708 304.878 62.7596 308.639C64.6609 310.512 67.8066 313.141 70.4629 315.308C73.4688 317.74 77.9426 316.734 79.5924 313.211C81.8572 308.387 82.6961 301.103 74.5593 293.106C60.2011 278.986 57.377 286.256 57.377 286.256L57.391 286.242Z" fill="black" stroke="white" stroke-width="1.39807" stroke-linecap="round" stroke-linejoin="round"/>
<path vector-effect="non-scaling-stroke" d="M54.4831 228.347C54.7767 220.42 59.7259 215.08 66.4646 216.45C73.1893 217.82 78.3902 221.623 77.2298 229.899C76.0134 238.525 67.5551 239.951 62.0187 239.979C56.3705 240.007 54.2175 235.743 54.4831 228.347Z" fill="black" stroke="white" stroke-width="1.39807" stroke-linecap="round" stroke-linejoin="round"/>
<path vector-effect="non-scaling-stroke" d="M62.9552 220.029C62.2282 222.503 60.9699 227.984 61.3614 235.631C61.4033 236.316 60.5924 236.708 60.1031 236.232C58.7609 234.96 56.9714 232.29 57.3908 227.243C57.8242 222.154 60.2289 220.015 61.8786 219.12C62.4658 218.798 63.1369 219.358 62.9552 220.015V220.029Z" fill="black" stroke="white" stroke-width="1.39807" stroke-linecap="round" stroke-linejoin="round"/>
<path vector-effect="non-scaling-stroke" d="M57.1954 264.99C57.1954 264.99 51.3515 267.661 51.2676 276.091C51.1697 284.521 55.9791 287.164 60.7046 289.806C65.4301 292.448 73.2313 297.174 77.4954 292.77C81.7456 288.366 80.1657 277.643 74.2938 272.512C68.4219 267.381 63.6964 262.823 63.6964 262.823L57.1954 264.99Z" fill="black" stroke="white" stroke-width="1.39807" stroke-linecap="round" stroke-linejoin="round"/>
<path vector-effect="non-scaling-stroke" d="M51.3655 253.164C51.9806 244.3 57.1675 238.512 63.8363 240.301C70.5051 242.091 75.5521 246.551 74.0422 255.778C72.4764 265.383 63.9481 266.655 58.4258 266.473C52.7775 266.292 50.8063 261.426 51.3795 253.164H51.3655Z" fill="black" stroke="white" stroke-width="1.39807" stroke-linecap="round" stroke-linejoin="round"/>
<path vector-effect="non-scaling-stroke" d="M60.1733 244.174C59.3345 246.914 57.8525 253.009 57.9364 261.594C57.9364 262.363 57.1255 262.768 56.6502 262.223C55.3639 260.755 53.6723 257.679 54.3154 252.059C54.9585 246.383 57.461 244.062 59.1387 243.139C59.7399 242.804 60.397 243.461 60.1733 244.174Z" fill="black" stroke="white" stroke-width="1.39807" stroke-linecap="round" stroke-linejoin="round"/>
<path vector-effect="non-scaling-stroke" d="M70.3094 306.821C67.3734 305.003 63.4728 303.633 61.124 306.989C61.6833 307.562 62.2425 308.107 62.7737 308.638C64.6751 310.512 67.8208 313.14 70.4771 315.307C70.4771 315.307 70.8127 314.412 71.6655 313.098C73.0356 310.987 72.4204 308.149 70.3094 306.835V306.821Z" fill="black" stroke="white" stroke-width="1.39807" stroke-linecap="round" stroke-linejoin="round"/>
<path vector-effect="non-scaling-stroke" d="M67.3871 289.737C67.6248 287.29 68.4217 283.781 70.7005 279.811C71.3576 278.664 71.12 277.099 70.1134 276.344C67.457 274.33 62.4799 271.954 59.9214 279.839C57.9781 285.864 61.3474 289.639 64.1855 291.611C65.5137 292.547 67.2054 291.527 67.3871 289.737Z" fill="black" stroke="white" stroke-width="1.39807" stroke-linecap="round" stroke-linejoin="round"/>
<path vector-effect="non-scaling-stroke" d="M110.322 306.807C110.322 306.807 109.707 286.633 118.263 272.974C118.263 272.974 104.366 248.508 103.402 240.623C102.283 231.465 109.092 227.621 115.663 233.842C122.234 240.063 146.504 263.202 152.488 272.345C172.187 302.459 159.576 341.074 159.576 341.074L144.323 392.397L58.0342 392.271" fill="black"/>
<path vector-effect="non-scaling-stroke" d="M110.322 306.807C110.322 306.807 109.707 286.633 118.263 272.974C118.263 272.974 104.366 248.508 103.402 240.623C102.283 231.465 109.092 227.621 115.663 233.842C122.234 240.063 146.504 263.202 152.488 272.345C172.187 302.459 159.576 341.074 159.576 341.074L144.323 392.397L58.0342 392.271" stroke="white" stroke-width="1.39807" stroke-linecap="round" stroke-linejoin="round"/>
<path vector-effect="non-scaling-stroke" d="M110.322 306.807C110.322 306.807 109.707 286.633 118.263 272.974C118.263 272.974 104.366 248.508 103.402 240.623C102.283 231.465 109.092 227.621 115.663 233.842C122.234 240.063 146.504 263.202 152.488 272.345C172.187 302.459 159.576 341.074 159.576 341.074L144.323 392.397L58.0342 392.271" stroke="white" stroke-width="1.39807" stroke-linecap="round" stroke-linejoin="round"/>
<path vector-effect="non-scaling-stroke" d="M115.662 233.842C114.39 232.639 113.104 231.815 111.874 231.325C111.874 231.325 111.021 231.856 110.028 232.5C109.064 233.115 108.644 234.317 109.008 235.408C110.126 238.735 112.838 245.32 116.949 245.683C120.682 246.005 123.198 243.978 124.414 242.636C120.668 238.777 117.522 235.589 115.662 233.842Z" fill="black" stroke="white" stroke-width="1.39807" stroke-linecap="round" stroke-linejoin="round"/>
<path vector-effect="non-scaling-stroke" d="M122.22 533.337L159.576 341.088H61.1379L19.7969 533.253L122.22 533.337Z" fill="#202020" stroke="white" stroke-width="1.39807" stroke-linecap="round" stroke-linejoin="round"/>
<path vector-effect="non-scaling-stroke" d="M664.168 534.273L64.395 533.308V477.176H121.576V422.609H178.422V368.644H548.939" fill="black"/>
<path vector-effect="non-scaling-stroke" d="M664.168 534.273L64.395 533.308V477.176H121.576V422.609H178.422V368.644H548.939" stroke="white" stroke-width="1.39807" stroke-linecap="round" stroke-linejoin="round"/>
<path vector-effect="non-scaling-stroke" d="M401.051 294.714C405.623 283.418 409.02 271.059 411.034 257.973" stroke="white" stroke-width="1.39807" stroke-linecap="round" stroke-linejoin="round"/>
<path vector-effect="non-scaling-stroke" d="M338.529 102.954C332.923 101.444 327.149 100.661 321.235 100.661C270.499 100.661 229.368 158.751 229.368 230.416C229.368 302.081 270.499 360.171 321.235 360.171C339.032 360.171 355.642 353.027 369.72 340.654" stroke="white" stroke-width="1.39807" stroke-linecap="round" stroke-linejoin="round"/>
<path vector-effect="non-scaling-stroke" d="M412.585 216.631C410.446 187.928 401.667 162.008 388.469 141.988" stroke="white" stroke-width="1.39807" stroke-linecap="round" stroke-linejoin="round"/>
<path vector-effect="non-scaling-stroke" d="M312.05 350.734C328.03 341.604 341.759 326.31 351.783 306.946" stroke="white" stroke-width="1.39807" stroke-linecap="round" stroke-linejoin="round"/>
<path vector-effect="non-scaling-stroke" d="M285.641 100.661H277.602C277.476 100.661 277.35 100.661 277.224 100.661" stroke="white" stroke-width="1.39807" stroke-linecap="round" stroke-linejoin="round"/>
<path vector-effect="non-scaling-stroke" d="M278.748 360.171H285.641" stroke="white" stroke-width="1.39807" stroke-linecap="round" stroke-linejoin="round"/>
<path vector-effect="non-scaling-stroke" d="M268.486 101.291C222.042 107.75 185.748 163.099 185.748 230.416C185.748 298.572 222.951 354.467 270.248 359.752" stroke="white" stroke-width="1.39807" stroke-linecap="round" stroke-linejoin="round"/>
<path vector-effect="non-scaling-stroke" d="M331.231 125.058C324.996 118.711 318.173 113.44 310.903 109.441" stroke="white" stroke-width="1.39807" stroke-linecap="round" stroke-linejoin="round"/>
<path vector-effect="non-scaling-stroke" d="M242.832 162.792C223.888 159.031 220.197 148.881 220.197 148.881" stroke="white" stroke-width="1.39807" stroke-linecap="round" stroke-linejoin="round"/>
<path vector-effect="non-scaling-stroke" d="M220.197 311.938C220.197 311.938 223.888 301.802 242.832 298.027" stroke="white" stroke-width="1.39807" stroke-linecap="round" stroke-linejoin="round"/>
<path vector-effect="non-scaling-stroke" d="M198.373 230.417H229.382" stroke="white" stroke-width="1.39807" stroke-linecap="round" stroke-linejoin="round"/>
<path vector-effect="non-scaling-stroke" d="M430.425 308.358H421.239" stroke="white" stroke-width="1.39807" stroke-linecap="round" stroke-linejoin="round"/>
<path vector-effect="non-scaling-stroke" d="M448.809 308.358H439.61" stroke="white" stroke-width="1.39807" stroke-linecap="round" stroke-linejoin="round"/>
<path vector-effect="non-scaling-stroke" d="M435.024 303.772V294.587" stroke="white" stroke-width="1.39807" stroke-linecap="round" stroke-linejoin="round"/>
<path vector-effect="non-scaling-stroke" d="M435.024 322.142V312.957" stroke="white" stroke-width="1.39807" stroke-linecap="round" stroke-linejoin="round"/>
<path vector-effect="non-scaling-stroke" d="M250.171 270.372H245.585" stroke="white" stroke-width="1.39807" stroke-linecap="round" stroke-linejoin="round"/>
<path vector-effect="non-scaling-stroke" d="M259.357 270.372H254.771" stroke="white" stroke-width="1.39807" stroke-linecap="round" stroke-linejoin="round"/>
<path vector-effect="non-scaling-stroke" d="M252.478 268.065V263.479" stroke="white" stroke-width="1.39807" stroke-linecap="round" stroke-linejoin="round"/>
<path vector-effect="non-scaling-stroke" d="M252.478 277.265V272.665" stroke="white" stroke-width="1.39807" stroke-linecap="round" stroke-linejoin="round"/>
<path vector-effect="non-scaling-stroke" d="M267.186 288.659H261.062" stroke="white" stroke-width="1.39807" stroke-linecap="round" stroke-linejoin="round"/>
<path vector-effect="non-scaling-stroke" d="M279.433 288.659H273.309" stroke="white" stroke-width="1.39807" stroke-linecap="round" stroke-linejoin="round"/>
<path vector-effect="non-scaling-stroke" d="M270.248 285.597V279.474" stroke="white" stroke-width="1.39807" stroke-linecap="round" stroke-linejoin="round"/>
<path vector-effect="non-scaling-stroke" d="M270.248 297.844V291.721" stroke="white" stroke-width="1.39807" stroke-linecap="round" stroke-linejoin="round"/>
<path vector-effect="non-scaling-stroke" d="M425.727 139.694H416.542" stroke="white" stroke-width="1.39807" stroke-linecap="round" stroke-linejoin="round"/>
<path vector-effect="non-scaling-stroke" d="M444.112 139.694H434.926" stroke="white" stroke-width="1.39807" stroke-linecap="round" stroke-linejoin="round"/>
<path vector-effect="non-scaling-stroke" d="M430.327 135.109V125.923" stroke="white" stroke-width="1.39807" stroke-linecap="round" stroke-linejoin="round"/>
<path vector-effect="non-scaling-stroke" d="M430.327 153.479V144.294" stroke="white" stroke-width="1.39807" stroke-linecap="round" stroke-linejoin="round"/>
<path vector-effect="non-scaling-stroke" d="M782.334 373.746C789.478 396.605 790.051 421.84 782.529 446.544C776.364 466.816 765.459 484.362 751.422 498.3" fill="black"/>
<path vector-effect="non-scaling-stroke" d="M782.334 373.746C789.478 396.605 790.051 421.84 782.529 446.544C776.364 466.816 765.459 484.362 751.422 498.3" stroke="white" stroke-width="1.39807" stroke-linecap="round" stroke-linejoin="round"/>
<path vector-effect="non-scaling-stroke" d="M627.399 292.393C650.258 285.249 675.493 284.676 700.169 292.184C720.413 298.335 737.931 309.24 751.884 323.291" stroke="white" stroke-width="1.39807" stroke-linecap="round" stroke-linejoin="round"/>
<path vector-effect="non-scaling-stroke" d="M576.37 497.798C590.308 511.834 607.854 522.739 628.154 528.919C652.83 536.427 678.023 535.839 700.924 528.709" fill="black"/>
<path vector-effect="non-scaling-stroke" d="M576.37 497.798C590.308 511.834 607.854 522.739 628.154 528.919C652.83 536.427 678.023 535.839 700.924 528.709" stroke="white" stroke-width="1.39807" stroke-linecap="round" stroke-linejoin="round"/>
<path vector-effect="non-scaling-stroke" d="M546.017 447.271C538.873 424.413 538.286 399.22 545.794 374.544C551.959 354.272 562.864 336.726 576.901 322.787" fill="black"/>
<path vector-effect="non-scaling-stroke" d="M546.017 447.271C538.873 424.413 538.286 399.22 545.794 374.544C551.959 354.272 562.864 336.726 576.901 322.787" stroke="white" stroke-width="1.39807" stroke-linecap="round" stroke-linejoin="round"/>
<path vector-effect="non-scaling-stroke" d="M772.784 336.613C770.715 343.422 763.515 347.267 756.707 345.197C749.898 343.128 746.053 335.928 748.122 329.12C750.192 322.311 757.392 318.466 764.2 320.535C771.009 322.605 774.854 329.805 772.784 336.613Z" fill="#A100FF" stroke="white" stroke-width="1.39807" stroke-linecap="round" stroke-linejoin="round"/>
<path vector-effect="non-scaling-stroke" d="M598.822 317.963C596.753 324.772 589.553 328.616 582.745 326.547C575.936 324.478 572.091 317.278 574.16 310.469C576.23 303.661 583.43 299.816 590.238 301.885C597.047 303.954 600.892 311.154 598.822 317.963Z" fill="#A100FF" stroke="white" stroke-width="1.39807" stroke-linecap="round" stroke-linejoin="round"/>
<path vector-effect="non-scaling-stroke" d="M580.13 491.953C578.061 498.762 570.861 502.606 564.052 500.537C557.244 498.468 553.399 491.268 555.468 484.459C557.537 477.651 564.737 473.806 571.546 475.875C578.355 477.944 582.199 485.145 580.13 491.953Z" fill="#A100FF" stroke="white" stroke-width="1.39807" stroke-linecap="round" stroke-linejoin="round"/>
<path vector-effect="non-scaling-stroke" d="M754.162 510.617C752.093 517.426 744.893 521.27 738.085 519.201C731.276 517.132 727.431 509.932 729.5 503.124C731.569 496.315 738.77 492.47 745.578 494.539C752.387 496.609 756.231 503.809 754.162 510.617Z" fill="#A100FF" stroke="white" stroke-width="1.39807" stroke-linecap="round" stroke-linejoin="round"/>
<path vector-effect="non-scaling-stroke" d="M374.32 71.0642H326.576C323.85 68.338 322.312 66.8001 319.585 64.0739V16.3297C322.312 13.6035 323.85 12.0656 326.576 9.33936H374.32C377.046 12.0656 378.584 13.6035 381.31 16.3297V64.0739C378.584 66.8001 377.046 68.338 374.32 71.0642Z" stroke="white" stroke-width="1.39807" stroke-linecap="round" stroke-linejoin="round"/>
<path vector-effect="non-scaling-stroke" d="M326.995 46.2768V18.581L328.827 16.7495H372.069L373.9 18.581V61.8233L372.069 63.6548H328.827L326.995 61.8233V51.226" stroke="white" stroke-width="1.39807" stroke-linecap="round" stroke-linejoin="round"/>
<path vector-effect="non-scaling-stroke" d="M381.311 20.2725H389.951" stroke="white" stroke-width="1.39807" stroke-linecap="round" stroke-linejoin="round"/>
<path vector-effect="non-scaling-stroke" d="M381.311 30.2402H387.476" stroke="white" stroke-width="1.39807" stroke-linecap="round" stroke-linejoin="round"/>
<path vector-effect="non-scaling-stroke" d="M381.311 40.209H389.951" stroke="white" stroke-width="1.39807" stroke-linecap="round" stroke-linejoin="round"/>
<path vector-effect="non-scaling-stroke" d="M345.394 95.8521H350.972" stroke="white" stroke-width="1.39807" stroke-linecap="round" stroke-linejoin="round"/>
<path vector-effect="non-scaling-stroke" d="M420.974 10.7231H550.267" stroke="white" stroke-width="1.39807" stroke-linecap="round" stroke-linejoin="round"/>
<path vector-effect="non-scaling-stroke" d="M319.585 20.2725H310.945" stroke="white" stroke-width="1.39807" stroke-linecap="round" stroke-linejoin="round"/>
<path vector-effect="non-scaling-stroke" d="M319.585 30.2402H313.406" stroke="white" stroke-width="1.39807" stroke-linecap="round" stroke-linejoin="round"/>
<path vector-effect="non-scaling-stroke" d="M319.585 40.209H310.945" stroke="white" stroke-width="1.39807" stroke-linecap="round" stroke-linejoin="round"/>
<path vector-effect="non-scaling-stroke" d="M319.585 50.1631H231.199" stroke="white" stroke-width="1.39807" stroke-linecap="round" stroke-linejoin="round"/>
<path vector-effect="non-scaling-stroke" d="M319.585 60.1313H310.945" stroke="white" stroke-width="1.39807" stroke-linecap="round" stroke-linejoin="round"/>
<path vector-effect="non-scaling-stroke" d="M370.377 71.0645V79.7045" stroke="white" stroke-width="1.39807" stroke-linecap="round" stroke-linejoin="round"/>
<path vector-effect="non-scaling-stroke" d="M360.409 71.0645V77.2439" stroke="white" stroke-width="1.39807" stroke-linecap="round" stroke-linejoin="round"/>
<path vector-effect="non-scaling-stroke" d="M350.441 71.0645V79.7045" stroke="white" stroke-width="1.39807" stroke-linecap="round" stroke-linejoin="round"/>
<path vector-effect="non-scaling-stroke" d="M340.473 71.0645V77.2439" stroke="white" stroke-width="1.39807" stroke-linecap="round" stroke-linejoin="round"/>
<path vector-effect="non-scaling-stroke" d="M330.518 71.0645V79.7045" stroke="white" stroke-width="1.39807" stroke-linecap="round" stroke-linejoin="round"/>
<path vector-effect="non-scaling-stroke" d="M370.377 9.3393V0.699219" stroke="white" stroke-width="1.39807" stroke-linecap="round" stroke-linejoin="round"/>
<path vector-effect="non-scaling-stroke" d="M360.409 9.33932V3.17383" stroke="white" stroke-width="1.39807" stroke-linecap="round" stroke-linejoin="round"/>
<path vector-effect="non-scaling-stroke" d="M350.441 9.3393V0.699219" stroke="white" stroke-width="1.39807" stroke-linecap="round" stroke-linejoin="round"/>
<path vector-effect="non-scaling-stroke" d="M340.473 9.33932V3.17383" stroke="white" stroke-width="1.39807" stroke-linecap="round" stroke-linejoin="round"/>
<path vector-effect="non-scaling-stroke" d="M330.518 9.3393V0.699219" stroke="white" stroke-width="1.39807" stroke-linecap="round" stroke-linejoin="round"/>
<path vector-effect="non-scaling-stroke" d="M354.789 54.8605C353.558 56.5661 352.063 57.5448 350.483 57.5448C348.525 57.5448 346.75 56.0628 345.352 53.6022C345.002 53.001 344.667 52.316 344.387 51.589C344.191 51.1136 344.01 50.6243 343.856 50.093C343.786 49.8973 343.73 49.7016 343.674 49.5198C343.534 49.0445 343.394 48.5552 343.283 48.0379C343.045 47.0872 342.863 46.0806 342.737 45.046C342.612 44.1093 342.514 43.1306 342.458 42.124C342.43 41.4809 342.402 40.8518 342.402 40.1947C342.402 39.5236 342.43 38.8805 342.458 38.2234C342.5 37.2308 342.598 36.2521 342.737 35.3154" stroke="white" stroke-width="1.39807" stroke-linecap="round" stroke-linejoin="round"/>
<path vector-effect="non-scaling-stroke" d="M358.242 45.0604C358.354 44.1097 358.465 43.145 358.507 42.1384C358.535 41.4953 358.549 40.8522 358.549 40.1951V40.1532C358.549 39.51 358.535 38.8809 358.507 38.2378C358.465 37.2452 358.368 36.2805 358.242 35.3298C358.102 34.2952 357.892 33.2886 357.683 32.3379C357.571 31.8207 357.417 31.3313 357.291 30.842C357.235 30.6603 357.179 30.4645 357.109 30.2828C356.956 29.7515 356.76 29.2622 356.578 28.7729C356.271 28.0319 355.963 27.3748 355.613 26.7736C354.229 24.299 352.44 22.8311 350.496 22.8311C348.903 22.8311 347.435 23.8097 346.19 25.5014" stroke="white" stroke-width="1.39807" stroke-linecap="round" stroke-linejoin="round"/>
<path vector-effect="non-scaling-stroke" d="M361.192 42.7114C361.01 42.8792 360.814 43.047 360.618 43.2008C359.863 43.8439 359.066 44.445 358.242 45.0322C357.459 45.5915 356.634 46.1367 355.767 46.668C355.431 46.8917 355.096 47.0874 354.76 47.2831H354.746C354.746 47.2831 354.663 47.3251 354.621 47.353C354.103 47.6606 353.6 47.9402 353.083 48.2058H353.069C352.202 48.6672 351.335 49.0866 350.482 49.4641C349.546 49.8835 348.623 50.261 347.714 50.5826C347.295 50.7224 346.875 50.8762 346.47 51.002C346.232 51.0719 346.008 51.1418 345.785 51.1977C345.309 51.3375 344.834 51.4773 344.373 51.5752C343.618 51.7569 342.877 51.8968 342.192 52.0086C338.095 52.6098 334.922 51.9387 333.719 49.8556C332.727 48.108 333.244 45.6893 334.922 43.0749" stroke="white" stroke-width="1.39807" stroke-linecap="round" stroke-linejoin="round"/>
<path vector-effect="non-scaling-stroke" d="M366.029 37.2732C367.721 34.6588 368.224 32.2542 367.231 30.5205C366.015 28.4234 362.841 27.7384 358.759 28.3535C358.046 28.4514 357.333 28.6192 356.578 28.7869C356.117 28.8988 355.641 29.0246 355.166 29.1644C354.942 29.2203 354.719 29.2763 354.481 29.3462C354.076 29.486 353.656 29.6398 353.223 29.7796C352.314 30.1011 351.405 30.4786 350.482 30.884C349.616 31.2615 348.749 31.6949 347.882 32.1563C347.365 32.4219 346.848 32.6876 346.316 32.9951C346.274 33.0231 346.232 33.0511 346.19 33.079C345.841 33.2747 345.505 33.4845 345.184 33.6802C344.331 34.1975 343.506 34.7707 342.723 35.3159C341.884 35.9171 341.073 36.5323 340.332 37.1474C340.137 37.3012 339.941 37.4829 339.759 37.6507" stroke="white" stroke-width="1.39807" stroke-linecap="round" stroke-linejoin="round"/>
<path vector-effect="non-scaling-stroke" d="M354.621 32.9946C363.876 38.3352 369.524 45.8848 367.231 49.8553C364.939 53.8259 355.586 52.7074 346.316 47.3668C337.061 42.0261 331.413 34.4766 333.706 30.506C335.999 26.5355 345.366 27.654 354.621 32.9946Z" stroke="white" stroke-width="1.39807" stroke-linecap="round" stroke-linejoin="round"/>
<path vector-effect="non-scaling-stroke" d="M350.427 43.8856C352.426 43.8856 354.048 42.2644 354.048 40.2646C354.048 38.2647 352.426 36.6436 350.427 36.6436C348.427 36.6436 346.806 38.2647 346.806 40.2646C346.806 42.2644 348.427 43.8856 350.427 43.8856Z" stroke="white" stroke-width="1.39807" stroke-linecap="round" stroke-linejoin="round"/>
<path vector-effect="non-scaling-stroke" d="M142.604 103.681L138.899 107.274C138.032 108.113 136.634 108.113 135.767 107.274L127.253 99.0251C126.386 98.1863 124.988 98.1863 124.121 99.0251L110.252 112.475C108.854 113.831 109.847 116.152 111.818 116.152H153.229C155.2 116.152 156.193 113.831 154.795 112.475L145.735 103.681C144.868 102.842 143.47 102.842 142.604 103.681Z" fill="#A100FF" stroke="white" stroke-width="1.39807" stroke-linecap="round" stroke-linejoin="round"/>
<path vector-effect="non-scaling-stroke" d="M147.315 97.6554C148.952 97.6554 150.279 96.3284 150.279 94.6915C150.279 93.0545 148.952 91.7275 147.315 91.7275C145.678 91.7275 144.351 93.0545 144.351 94.6915C144.351 96.3284 145.678 97.6554 147.315 97.6554Z" stroke="white" stroke-width="1.39807" stroke-linecap="round" stroke-linejoin="round"/>
<path vector-effect="non-scaling-stroke" d="M102.563 128.889C92.6083 131.447 86.2891 135.18 86.2891 139.444" stroke="white" stroke-width="1.39807" stroke-linecap="round" stroke-linejoin="round"/>
<path vector-effect="non-scaling-stroke" d="M159.157 128.092C151.635 126.456 142.45 125.379 132.523 125.379C122.597 125.379 113.719 126.414 106.268 128.008" stroke="white" stroke-width="1.39807" stroke-linecap="round" stroke-linejoin="round"/>
<path vector-effect="non-scaling-stroke" d="M178.757 139.444C178.757 135.18 172.438 131.447 162.484 128.889" stroke="white" stroke-width="1.39807" stroke-linecap="round" stroke-linejoin="round"/>
<path vector-effect="non-scaling-stroke" d="M178.757 139.443V98.396C178.757 102.66 172.438 105.82 162.484 108.378V150.167C172.438 147.608 178.757 143.707 178.757 139.443Z" stroke="white" stroke-width="1.39807" stroke-linecap="round" stroke-linejoin="round"/>
<path vector-effect="non-scaling-stroke" d="M86.3032 98.3963C86.3032 90.679 106.995 84.3457 132.537 84.3457C158.08 84.3457 178.772 90.679 178.772 98.3963" stroke="white" stroke-width="1.39807" stroke-linecap="round" stroke-linejoin="round"/>
<path vector-effect="non-scaling-stroke" d="M86.3032 139.444C86.3032 143.708 92.6225 147.608 102.577 150.167V108.574C92.6225 106.016 86.3032 102.646 86.3032 98.3823V139.43V139.444Z" stroke="white" stroke-width="1.39807" stroke-linecap="round" stroke-linejoin="round"/>
<path vector-effect="non-scaling-stroke" d="M666.014 360.842C666.014 351.783 673.368 344.443 682.441 344.485C690.69 344.513 697.876 351.042 698.659 359.262C698.882 361.555 698.617 363.764 697.974 365.805C701.748 365.12 705.831 365.344 710.081 367.063C717.589 370.097 723.055 377.102 723.894 385.154C724.425 390.243 723.237 395.025 720.832 398.981C725.054 400.687 728.032 404.825 728.032 409.649C728.032 414.192 725.39 418.107 721.573 419.98C725.488 422.916 728.032 427.572 728.032 432.829C728.032 441.692 720.846 448.893 711.968 448.893C711.884 448.893 711.787 448.893 711.703 448.893C710.277 457.365 702.923 463.824 694.045 463.824C691.752 463.824 689.557 463.377 687.544 462.594C685.643 466.215 681.84 468.689 677.464 468.689C671.173 468.689 666.07 463.586 666.07 457.295" stroke="white" stroke-width="1.39807" stroke-linecap="round" stroke-linejoin="round"/>
<path vector-effect="non-scaling-stroke" d="M700.644 404.545C703.454 403.008 706.991 404.042 708.543 406.852C710.081 409.662 709.046 413.2 706.236 414.751C703.426 416.289 699.889 415.255 698.337 412.445C696.799 409.634 697.834 406.097 700.644 404.545Z" stroke="white" stroke-width="1.39807" stroke-linecap="round" stroke-linejoin="round"/>
<path vector-effect="non-scaling-stroke" d="M689.403 435.429C692.213 433.891 695.75 434.926 697.302 437.736C698.84 440.546 697.805 444.083 694.995 445.635C692.185 447.173 688.648 446.138 687.096 443.328C685.558 440.518 686.593 436.981 689.403 435.429Z" stroke="white" stroke-width="1.39807" stroke-linecap="round" stroke-linejoin="round"/>
<path vector-effect="non-scaling-stroke" d="M666 377.409V360.842C666 351.783 658.66 344.443 649.586 344.485C641.338 344.513 634.152 351.042 633.369 359.262C633.145 361.555 633.411 363.764 634.054 365.805C630.279 365.12 626.196 365.344 621.946 367.063C614.439 370.097 608.972 377.102 608.133 385.154C607.602 390.243 608.791 395.025 611.195 398.981C606.973 400.687 603.995 404.825 603.995 409.649C603.995 414.192 606.638 418.107 610.454 419.98C606.54 422.916 603.995 427.572 603.995 432.829C603.995 441.692 611.181 448.893 620.059 448.893C620.143 448.893 620.241 448.893 620.325 448.893C621.751 457.365 629.104 463.824 637.982 463.824C640.275 463.824 642.47 463.377 644.483 462.594C646.385 466.215 650.187 468.689 654.563 468.689C660.855 468.689 665.958 463.586 665.958 457.295V440.644" stroke="white" stroke-width="1.39807" stroke-linecap="round" stroke-linejoin="round"/>
<path vector-effect="non-scaling-stroke" d="M682.902 392.13H649.125V425.907H682.902V392.13Z" stroke="white" stroke-width="1.39807" stroke-linecap="round" stroke-linejoin="round"/>
<path vector-effect="non-scaling-stroke" d="M673.633 416.638V401.413H658.408V416.638H673.633Z" stroke="white" stroke-width="1.39807" stroke-linecap="round" stroke-linejoin="round"/>
<path vector-effect="non-scaling-stroke" d="M682.902 397.429H689.865" stroke="white" stroke-width="1.39807" stroke-linecap="round" stroke-linejoin="round"/>
<path vector-effect="non-scaling-stroke" d="M682.902 409.019H689.865" stroke="white" stroke-width="1.39807" stroke-linecap="round" stroke-linejoin="round"/>
<path vector-effect="non-scaling-stroke" d="M682.902 420.608H689.865" stroke="white" stroke-width="1.39807" stroke-linecap="round" stroke-linejoin="round"/>
<path vector-effect="non-scaling-stroke" d="M642.163 397.429H649.125" stroke="white" stroke-width="1.39807" stroke-linecap="round" stroke-linejoin="round"/>
<path vector-effect="non-scaling-stroke" d="M642.163 409.019H649.125" stroke="white" stroke-width="1.39807" stroke-linecap="round" stroke-linejoin="round"/>
<path vector-effect="non-scaling-stroke" d="M642.163 420.608H649.125" stroke="white" stroke-width="1.39807" stroke-linecap="round" stroke-linejoin="round"/>
<path vector-effect="non-scaling-stroke" d="M677.618 425.907V432.87" stroke="white" stroke-width="1.39807" stroke-linecap="round" stroke-linejoin="round"/>
<path vector-effect="non-scaling-stroke" d="M666.014 425.907V432.87" stroke="white" stroke-width="1.39807" stroke-linecap="round" stroke-linejoin="round"/>
<path vector-effect="non-scaling-stroke" d="M654.424 425.907V432.87" stroke="white" stroke-width="1.39807" stroke-linecap="round" stroke-linejoin="round"/>
<path vector-effect="non-scaling-stroke" d="M677.618 385.168V392.13" stroke="white" stroke-width="1.39807" stroke-linecap="round" stroke-linejoin="round"/>
<path vector-effect="non-scaling-stroke" d="M666.014 385.168V392.13" stroke="white" stroke-width="1.39807" stroke-linecap="round" stroke-linejoin="round"/>
<path vector-effect="non-scaling-stroke" d="M654.424 385.168V392.13" stroke="white" stroke-width="1.39807" stroke-linecap="round" stroke-linejoin="round"/>
<path vector-effect="non-scaling-stroke" d="M728.046 409.648H709.256" stroke="white" stroke-width="1.39807" stroke-linecap="round" stroke-linejoin="round"/>
<path vector-effect="non-scaling-stroke" d="M677.464 468.676V457.365C677.464 455.673 678.149 454.066 679.351 452.877L687.935 444.461" stroke="white" stroke-width="1.39807" stroke-linecap="round" stroke-linejoin="round"/>
<path vector-effect="non-scaling-stroke" d="M635.48 378.975C632.67 377.437 629.132 378.472 627.581 381.282C626.043 384.092 627.077 387.629 629.887 389.181C632.698 390.719 636.235 389.684 637.787 386.874C639.324 384.064 638.29 380.527 635.48 378.975Z" stroke="white" stroke-width="1.39807" stroke-linecap="round" stroke-linejoin="round"/>
<path vector-effect="non-scaling-stroke" d="M631.384 404.545C628.573 403.008 625.036 404.042 623.484 406.852C621.947 409.662 622.981 413.2 625.791 414.751C628.601 416.289 632.139 415.255 633.69 412.445C635.228 409.634 634.194 406.097 631.384 404.545Z" stroke="white" stroke-width="1.39807" stroke-linecap="round" stroke-linejoin="round"/>
<path vector-effect="non-scaling-stroke" d="M642.624 435.429C639.814 433.891 636.277 434.926 634.725 437.736C633.187 440.546 634.221 444.083 637.031 445.635C639.842 447.187 643.379 446.138 644.931 443.328C646.468 440.518 645.434 436.981 642.624 435.429Z" stroke="white" stroke-width="1.39807" stroke-linecap="round" stroke-linejoin="round"/>
<path vector-effect="non-scaling-stroke" d="M603.995 409.648H622.771" stroke="white" stroke-width="1.39807" stroke-linecap="round" stroke-linejoin="round"/>
<path vector-effect="non-scaling-stroke" d="M654.563 468.676V457.365C654.563 455.673 653.878 454.066 652.676 452.877L644.092 444.461" stroke="white" stroke-width="1.39807" stroke-linecap="round" stroke-linejoin="round"/>
<path vector-effect="non-scaling-stroke" d="M605.659 439.958L613.921 431.696C614.9 430.717 616.494 430.717 617.472 431.696L619.22 433.443C620.199 434.422 621.792 434.422 622.771 433.443L629.007 427.208" stroke="white" stroke-width="1.39807" stroke-linecap="round" stroke-linejoin="round"/>
<path vector-effect="non-scaling-stroke" d="M629.021 428.173C629.554 428.173 629.985 427.742 629.985 427.209C629.985 426.676 629.554 426.244 629.021 426.244C628.488 426.244 628.056 426.676 628.056 427.209C628.056 427.742 628.488 428.173 629.021 428.173Z" stroke="white" stroke-width="1.39807" stroke-linecap="round" stroke-linejoin="round"/>
<path vector-effect="non-scaling-stroke" d="M646.692 370.252L647.377 369.553L652.928 364.002C653.92 363.038 653.92 361.444 652.928 360.451L651.18 358.704C650.188 357.711 650.188 356.117 651.18 355.152L658.967 347.365" stroke="white" stroke-width="1.39807" stroke-linecap="round" stroke-linejoin="round"/>
<path vector-effect="non-scaling-stroke" d="M646.692 371.203C647.225 371.203 647.657 370.771 647.657 370.238C647.657 369.705 647.225 369.273 646.692 369.273C646.159 369.273 645.728 369.705 645.728 370.238C645.728 370.771 646.159 371.203 646.692 371.203Z" stroke="white" stroke-width="1.39807" stroke-linecap="round" stroke-linejoin="round"/>
<path vector-effect="non-scaling-stroke" d="M685.335 370.252L684.65 369.567L679.099 364.002C678.107 363.038 678.107 361.444 679.099 360.451L680.847 358.704C681.811 357.711 681.811 356.117 680.847 355.152L673.06 347.365" stroke="white" stroke-width="1.39807" stroke-linecap="round" stroke-linejoin="round"/>
<path vector-effect="non-scaling-stroke" d="M685.335 371.203C685.868 371.203 686.299 370.771 686.299 370.238C686.299 369.705 685.868 369.273 685.335 369.273C684.802 369.273 684.37 369.705 684.37 370.238C684.37 370.771 684.802 371.203 685.335 371.203Z" stroke="white" stroke-width="1.39807" stroke-linecap="round" stroke-linejoin="round"/>
<path vector-effect="non-scaling-stroke" d="M726.41 439.958L718.148 431.696C717.169 430.717 715.575 430.717 714.597 431.696L712.849 433.443C711.87 434.422 710.277 434.422 709.298 433.443L703.062 427.208" stroke="white" stroke-width="1.39807" stroke-linecap="round" stroke-linejoin="round"/>
<path vector-effect="non-scaling-stroke" d="M703.049 428.173C703.581 428.173 704.013 427.742 704.013 427.209C704.013 426.676 703.581 426.244 703.049 426.244C702.516 426.244 702.084 426.676 702.084 427.209C702.084 427.742 702.516 428.173 703.049 428.173Z" stroke="white" stroke-width="1.39807" stroke-linecap="round" stroke-linejoin="round"/>
<path vector-effect="non-scaling-stroke" d="M628.573 379.953L617.934 369.328" stroke="white" stroke-width="1.39807" stroke-linecap="round" stroke-linejoin="round"/>
<path vector-effect="non-scaling-stroke" d="M696.771 378.975C699.581 377.437 703.118 378.472 704.67 381.282C706.208 384.092 705.174 387.629 702.364 389.181C699.553 390.719 696.016 389.684 694.464 386.874C692.927 384.064 693.961 380.527 696.771 378.975Z" stroke="white" stroke-width="1.39807" stroke-linecap="round" stroke-linejoin="round"/>
<path vector-effect="non-scaling-stroke" d="M703.664 379.953L714.303 369.328" stroke="white" stroke-width="1.39807" stroke-linecap="round" stroke-linejoin="round"/>
<path vector-effect="non-scaling-stroke" d="M506.787 47.9118C502.159 42.6271 494.652 42.6271 490.024 47.9118" stroke="white" stroke-width="1.39807" stroke-linecap="round" stroke-linejoin="round"/>
<path vector-effect="non-scaling-stroke" d="M481.733 38.4188C490.919 27.9053 505.878 27.9053 515.063 38.4188" stroke="white" stroke-width="1.39807" stroke-linecap="round" stroke-linejoin="round"/>
<path vector-effect="non-scaling-stroke" d="M485.872 43.1724C492.778 35.2733 504.019 35.2733 510.911 43.1724" stroke="white" stroke-width="1.39807" stroke-linecap="round" stroke-linejoin="round"/>
<path vector-effect="non-scaling-stroke" d="M490.024 47.9118C494.652 42.6271 502.159 42.6271 506.787 47.9118" stroke="white" stroke-width="1.39807" stroke-linecap="round" stroke-linejoin="round"/>
<path vector-effect="non-scaling-stroke" d="M677.771 45.4796C673.144 40.1949 665.636 40.1949 661.008 45.4796" stroke="white" stroke-width="1.39807" stroke-linecap="round" stroke-linejoin="round"/>
<path vector-effect="non-scaling-stroke" d="M652.718 36.0004C661.903 25.4869 676.862 25.4869 686.048 36.0004" stroke="white" stroke-width="1.39807" stroke-linecap="round" stroke-linejoin="round"/>
<path vector-effect="non-scaling-stroke" d="M656.856 40.7398C663.762 32.8407 675.003 32.8407 681.895 40.7398" stroke="white" stroke-width="1.39807" stroke-linecap="round" stroke-linejoin="round"/>
<path vector-effect="non-scaling-stroke" d="M661.008 45.4796C665.636 40.1949 673.144 40.1949 677.771 45.4796" stroke="white" stroke-width="1.39807" stroke-linecap="round" stroke-linejoin="round"/>
<path vector-effect="non-scaling-stroke" d="M584.506 65.4997C579.878 60.215 572.371 60.215 567.743 65.4997" stroke="white" stroke-width="1.39807" stroke-linecap="round" stroke-linejoin="round"/>
<path vector-effect="non-scaling-stroke" d="M559.453 56.0204C568.638 45.5069 583.597 45.5069 592.783 56.0204" stroke="white" stroke-width="1.39807" stroke-linecap="round" stroke-linejoin="round"/>
<path vector-effect="non-scaling-stroke" d="M563.605 60.7598C570.511 52.8607 581.752 52.8607 588.644 60.7598" stroke="white" stroke-width="1.39807" stroke-linecap="round" stroke-linejoin="round"/>
<path vector-effect="non-scaling-stroke" d="M567.743 65.4997C572.371 60.215 579.878 60.215 584.506 65.4997" stroke="white" stroke-width="1.39807" stroke-linecap="round" stroke-linejoin="round"/>
<path vector-effect="non-scaling-stroke" d="M244.998 424.72H334.713C338.389 424.72 341.353 427.726 341.353 431.458V495.476C341.353 499.209 338.389 502.215 334.713 502.215H244.998C241.321 502.215 238.357 499.209 238.357 495.476V431.458C238.357 427.726 241.321 424.72 244.998 424.72Z" stroke="white" stroke-width="1.39807" stroke-linecap="round" stroke-linejoin="round"/>
<path vector-effect="non-scaling-stroke" d="M334.713 431.459H333.049" stroke="white" stroke-width="1.39807" stroke-linecap="round" stroke-linejoin="round"/>
<path vector-effect="non-scaling-stroke" d="M326.408 431.459H324.744" stroke="white" stroke-width="1.39807" stroke-linecap="round" stroke-linejoin="round"/>
<path vector-effect="non-scaling-stroke" d="M318.104 431.459H316.44" stroke="white" stroke-width="1.39807" stroke-linecap="round" stroke-linejoin="round"/>
<path vector-effect="non-scaling-stroke" d="M341.353 438.197H238.357" stroke="white" stroke-width="1.39807" stroke-linecap="round" stroke-linejoin="round"/>
<path vector-effect="non-scaling-stroke" d="M264.962 471.92C268.052 477.89 271.575 482.895 275.448 486.851C279.642 491.143 285.123 493.296 290.589 493.227C295.063 493.171 299.523 491.619 303.228 488.529C308.303 484.279 312.567 478.337 315.894 470.857" stroke="white" stroke-width="1.39807" stroke-linecap="round" stroke-linejoin="round"/>
<path vector-effect="non-scaling-stroke" d="M264.962 470.647C267.996 464.649 271.463 459.616 275.308 455.604C279.46 451.27 284.927 449.075 290.379 449.089C294.853 449.103 299.327 450.613 303.06 453.675C308.177 457.869 312.483 463.769 315.88 471.22" stroke="white" stroke-width="1.39807" stroke-linecap="round" stroke-linejoin="round"/>
<path vector-effect="non-scaling-stroke" d="M341.367 492.974C336.893 492.96 332.419 491.45 328.687 488.389C323.57 484.194 319.264 478.294 315.866 470.843" stroke="white" stroke-width="1.39807" stroke-linecap="round" stroke-linejoin="round"/>
<path vector-effect="non-scaling-stroke" d="M341.088 448.6C336.614 448.656 332.154 450.207 328.449 453.297C323.374 457.547 319.11 463.489 315.783 470.969" stroke="white" stroke-width="1.39807" stroke-linecap="round" stroke-linejoin="round"/>
<path vector-effect="non-scaling-stroke" d="M239.574 493.464C244.048 493.408 248.507 491.856 252.212 488.766C257.287 484.516 261.551 478.574 264.879 471.095" stroke="white" stroke-width="1.39807" stroke-linecap="round" stroke-linejoin="round"/>
<path vector-effect="non-scaling-stroke" d="M239.448 449.089C243.922 449.103 248.395 450.613 252.128 453.675C257.245 457.869 261.551 463.769 264.949 471.22" stroke="white" stroke-width="1.39807" stroke-linecap="round" stroke-linejoin="round"/>
<path vector-effect="non-scaling-stroke" d="M291.554 486.851L291.582 492.778" stroke="white" stroke-width="1.39807" stroke-linecap="round" stroke-linejoin="round"/>
<path vector-effect="non-scaling-stroke" d="M291.386 449.41L291.54 483.174" stroke="white" stroke-width="1.39807" stroke-linecap="round" stroke-linejoin="round"/>
<path vector-effect="non-scaling-stroke" d="M299.509 477.26L299.523 481.79" stroke="white" stroke-width="1.39807" stroke-linecap="round" stroke-linejoin="round"/>
<path vector-effect="non-scaling-stroke" d="M299.383 451.452L299.495 473.57" stroke="white" stroke-width="1.39807" stroke-linecap="round" stroke-linejoin="round"/>
<path vector-effect="non-scaling-stroke" d="M307.031 471.653L307.045 474.366" stroke="white" stroke-width="1.39807" stroke-linecap="round" stroke-linejoin="round"/>
<path vector-effect="non-scaling-stroke" d="M306.975 457.812L307.017 467.893" stroke="white" stroke-width="1.39807" stroke-linecap="round" stroke-linejoin="round"/>
<path vector-effect="non-scaling-stroke" d="M323.5 469.976L323.514 472.925" stroke="white" stroke-width="1.39807" stroke-linecap="round" stroke-linejoin="round"/>
<path vector-effect="non-scaling-stroke" d="M323.444 459.015L323.486 466.732" stroke="white" stroke-width="1.39807" stroke-linecap="round" stroke-linejoin="round"/>
<path vector-effect="non-scaling-stroke" d="M331.511 474.072L331.525 477.945" stroke="white" stroke-width="1.39807" stroke-linecap="round" stroke-linejoin="round"/>
<path vector-effect="non-scaling-stroke" d="M331.413 452.375L331.497 470.508" stroke="white" stroke-width="1.39807" stroke-linecap="round" stroke-linejoin="round"/>
<path vector-effect="non-scaling-stroke" d="M240.636 465.712L240.762 493.002" stroke="white" stroke-width="1.39807" stroke-linecap="round" stroke-linejoin="round"/>
<path vector-effect="non-scaling-stroke" d="M248.633 467.404L248.745 490.291" stroke="white" stroke-width="1.39807" stroke-linecap="round" stroke-linejoin="round"/>
<path vector-effect="non-scaling-stroke" d="M256.225 474.617L256.267 484.32" stroke="white" stroke-width="1.39807" stroke-linecap="round" stroke-linejoin="round"/>
<path vector-effect="non-scaling-stroke" d="M256.183 467.487L256.211 471.262" stroke="white" stroke-width="1.39807" stroke-linecap="round" stroke-linejoin="round"/>
<path vector-effect="non-scaling-stroke" d="M276.035 465.349L276.133 486.725" stroke="white" stroke-width="1.39807" stroke-linecap="round" stroke-linejoin="round"/>
<path vector-effect="non-scaling-stroke" d="M368.42 471.724C371.51 477.693 375.033 482.699 378.905 486.655C383.1 490.947 388.58 493.1 394.047 493.03C398.52 492.974 402.98 491.423 406.685 488.333C411.76 484.083 416.024 478.141 419.352 470.661" stroke="white" stroke-width="1.39807" stroke-linecap="round" stroke-linejoin="round"/>
<path vector-effect="non-scaling-stroke" d="M368.406 470.466C371.44 464.468 374.907 459.435 378.752 455.422C382.904 451.088 388.371 448.893 393.823 448.907C398.297 448.921 402.771 450.431 406.504 453.493C411.621 457.687 415.927 463.587 419.324 471.039" stroke="white" stroke-width="1.39807" stroke-linecap="round" stroke-linejoin="round"/>
<path vector-effect="non-scaling-stroke" d="M444.825 492.793C440.351 492.779 435.877 491.269 432.144 488.207C427.027 484.013 422.721 478.113 419.324 470.661" stroke="white" stroke-width="1.39807" stroke-linecap="round" stroke-linejoin="round"/>
<path vector-effect="non-scaling-stroke" d="M444.531 448.418C440.057 448.474 435.598 450.026 431.893 453.116C426.818 457.366 422.553 463.307 419.226 470.787" stroke="white" stroke-width="1.39807" stroke-linecap="round" stroke-linejoin="round"/>
<path vector-effect="non-scaling-stroke" d="M343.031 493.282C347.505 493.226 351.965 491.674 355.67 488.585C360.745 484.335 365.009 478.393 368.336 470.913" stroke="white" stroke-width="1.39807" stroke-linecap="round" stroke-linejoin="round"/>
<path vector-effect="non-scaling-stroke" d="M342.905 448.907C347.379 448.921 351.853 450.431 355.586 453.493C360.703 457.687 365.009 463.587 368.406 471.039" stroke="white" stroke-width="1.39807" stroke-linecap="round" stroke-linejoin="round"/>
<path vector-effect="non-scaling-stroke" d="M470.843 471.388C473.933 477.358 477.456 482.363 481.328 486.319C485.523 490.611 491.003 492.764 496.469 492.694C500.943 492.638 505.403 491.087 509.108 487.997C514.183 483.747 518.447 477.805 521.775 470.325" stroke="white" stroke-width="1.39807" stroke-linecap="round" stroke-linejoin="round"/>
<path vector-effect="non-scaling-stroke" d="M470.843 470.115C473.877 464.117 477.344 459.084 481.188 455.072C485.341 450.738 490.807 448.543 496.26 448.557C500.734 448.571 505.207 450.081 508.94 453.142C514.057 457.337 518.363 463.236 521.761 470.688" stroke="white" stroke-width="1.39807" stroke-linecap="round" stroke-linejoin="round"/>
<path vector-effect="non-scaling-stroke" d="M555.454 491.897C550.785 492.694 541.711 493.212 534.567 487.871C529.268 483.9 525.144 477.777 521.747 470.325" stroke="white" stroke-width="1.39807" stroke-linecap="round" stroke-linejoin="round"/>
<path vector-effect="non-scaling-stroke" d="M546.017 447.271C541.544 447.326 538.021 449.689 534.33 452.779C529.255 457.029 524.99 462.971 521.663 470.451" stroke="white" stroke-width="1.39807" stroke-linecap="round" stroke-linejoin="round"/>
<path vector-effect="non-scaling-stroke" d="M445.468 492.932C449.942 492.876 454.401 491.324 458.106 488.234C463.181 483.984 467.445 478.042 470.773 470.562" stroke="white" stroke-width="1.39807" stroke-linecap="round" stroke-linejoin="round"/>
<path vector-effect="non-scaling-stroke" d="M445.328 448.571C449.802 448.585 454.276 450.095 458.009 453.157C463.126 457.351 467.432 463.251 470.829 470.703" stroke="white" stroke-width="1.39807" stroke-linecap="round" stroke-linejoin="round"/>
<path vector-effect="non-scaling-stroke" d="M450.878 238.204C450.207 237.169 449.774 236.694 446.349 233.772C441.637 229.773 434.675 234.275 432.731 234.82C430.788 235.366 428.761 234.513 427.377 234.191L424.021 247.571C424.021 247.571 426.049 247.78 427.167 248.535C428.286 249.29 435.024 255.763 439.414 254.309C439.973 254.17 440.547 254.869 441.651 254.841C442.462 254.827 443.804 254.24 444.084 252.17C444.182 251.457 446.265 252.478 447.034 250.73C447.579 249.472 447.132 249.095 447.355 248.997C447.942 248.717 449.788 248.899 450.417 247.249C450.809 246.201 450.082 245.026 450.207 244.872C450.501 244.453 452.556 244.663 453.143 243.125C453.493 242.202 452.934 239.56 450.892 238.218L450.878 238.204Z" fill="#202020" stroke="white" stroke-width="1.39807" stroke-linecap="round" stroke-linejoin="round"/>
<path vector-effect="non-scaling-stroke" d="M344.499 163.604C346.289 159.116 347.687 155.313 348.064 152.727C350.007 139.487 344.499 130.162 349.84 125.464C355.082 120.851 361.346 123.143 365.82 124.555C370.293 125.967 378.766 130.693 378.402 139.976C378.402 140.256 378.388 140.521 378.374 140.801C379.213 142.199 380.332 144.156 381.17 146.086C381.702 147.274 380.569 148.518 379.353 148.085L378.892 147.917C379.633 153.733 380.597 158.529 377.228 161.185C372.419 164.988 362.534 157.382 362.534 157.382L361.346 168.93L344.499 163.604Z" fill="#202020" stroke="white" stroke-width="1.39807" stroke-linecap="round" stroke-linejoin="round"/>
<path vector-effect="non-scaling-stroke" d="M373.383 147.707C373.383 147.707 374.642 151.65 379.325 151.3" stroke="white" stroke-width="1.39807" stroke-linecap="round" stroke-linejoin="round"/>
<path vector-effect="non-scaling-stroke" d="M348.875 147.371C348.987 143.792 348.624 140.577 348.302 137.724C347.715 132.51 347.268 128.385 350.245 125.771C355.111 121.493 360.885 123.324 365.093 124.666L365.694 124.862C367.078 125.296 371.832 127.043 375.033 131.14L375.201 131.349L374.977 131.489C374.977 131.489 370.951 133.726 365.121 133.097C364.688 134.607 361.514 144.547 353.475 147.05C352.147 147.455 350.693 147.679 349.099 147.609H348.875V147.371Z" fill="#404040" stroke="white" stroke-width="1.39807" stroke-linecap="round" stroke-linejoin="round"/>
<path vector-effect="non-scaling-stroke" d="M363.862 139.027C363.862 139.027 360.534 135.728 358.074 138.076C354.942 141.054 358.619 145.081 360.366 145.444" fill="#202020"/>
<path vector-effect="non-scaling-stroke" d="M363.862 139.027C363.862 139.027 360.534 135.728 358.074 138.076C354.942 141.054 358.619 145.081 360.366 145.444" stroke="white" stroke-width="1.39807" stroke-linecap="round" stroke-linejoin="round"/>
<path vector-effect="non-scaling-stroke" d="M345.855 127.91C350.673 127.91 354.579 124.004 354.579 119.186C354.579 114.368 350.673 110.462 345.855 110.462C341.037 110.462 337.131 114.368 337.131 119.186C337.131 124.004 341.037 127.91 345.855 127.91Z" fill="#404040" stroke="white" stroke-width="1.39807" stroke-linecap="round" stroke-linejoin="round"/>
<path vector-effect="non-scaling-stroke" d="M381.926 135.362H363.541V141.639H381.926V135.362Z" fill="#A100FF" stroke="white" stroke-width="1.39807" stroke-linecap="round" stroke-linejoin="round"/>
<path vector-effect="non-scaling-stroke" d="M286.102 230.948C280.845 229.955 275.616 228.823 270.793 226.614C271.254 230.053 271.59 232.29 271.59 232.29C266.403 233.534 257.092 242.929 256.952 245.04C256.742 247.878 259.371 246.355 259.371 246.355C257.931 249.207 256.896 251.849 259.049 252.66C258.658 253.736 259.888 254.603 260.671 254.771C262.041 255.037 264.376 252.576 264.641 252.282C264.404 252.716 263.131 254.981 264.753 255.931C266.375 256.882 267.941 252.911 269.367 251.164C270.793 249.43 275.169 246.69 275.169 246.69C272.456 250.926 272.764 251.961 273.603 252.702C274.623 253.597 277.252 250.283 279.139 248.927C281.013 247.571 286.214 241.937 285.976 237.057C285.934 236.051 285.99 233.842 286.116 230.948H286.102Z" fill="#202020" stroke="white" stroke-width="1.39807" stroke-linecap="round" stroke-linejoin="round"/>
<path vector-effect="non-scaling-stroke" d="M265.27 240.679C265.27 240.679 261.426 242.79 259.371 246.369Z" fill="#202020"/>
<path vector-effect="non-scaling-stroke" d="M265.27 240.679C265.27 240.679 261.426 242.79 259.371 246.369" stroke="white" stroke-width="1.39807" stroke-linecap="round" stroke-linejoin="round"/>
<path vector-effect="non-scaling-stroke" d="M266.962 243.517C266.962 243.517 260.405 248.703 259.035 252.66Z" fill="#202020"/>
<path vector-effect="non-scaling-stroke" d="M266.962 243.517C266.962 243.517 260.405 248.703 259.035 252.66" stroke="white" stroke-width="1.39807" stroke-linecap="round" stroke-linejoin="round"/>
<path vector-effect="non-scaling-stroke" d="M269.591 245.753C269.591 245.753 266.459 248.493 264.208 252.785Z" fill="#202020"/>
<path vector-effect="non-scaling-stroke" d="M269.591 245.753C269.591 245.753 266.459 248.493 264.208 252.785" stroke="white" stroke-width="1.39807" stroke-linecap="round" stroke-linejoin="round"/>
<path vector-effect="non-scaling-stroke" d="M431.697 230.557L425.35 253.303L397.514 243.405C393.627 241.741 390.412 238.805 388.385 235.1L371.594 204.301L367.987 247.557L303.228 237.309L315.084 193.2L301.62 203.826C298.489 206.3 296.28 209.753 295.371 213.626L290.673 233.521L265.522 229.326L275.952 193.34C276.944 189.901 279.237 186.965 282.327 185.161L324.157 160.765C328.883 158.011 334.559 157.396 339.76 159.087L370.14 168.916C375.327 170.593 379.605 174.284 382.051 179.15L399.08 213.193C401.96 218.953 406.867 223.441 412.851 225.817L431.683 230.571L431.697 230.557Z" fill="black" stroke="white" stroke-width="1.39807" stroke-linecap="round" stroke-linejoin="round"/>
<path vector-effect="non-scaling-stroke" d="M307.282 237.938V245.446C307.282 254.813 311.546 263.663 318.872 269.506L358.633 301.187C363.051 304.696 366.421 309.351 368.406 314.622L391.53 376.235L421.84 358.661L397.388 301.145C394.62 294.644 390.356 288.898 384.945 284.368L344.96 250.996" fill="black"/>
<path vector-effect="non-scaling-stroke" d="M307.282 237.938V245.446C307.282 254.813 311.546 263.663 318.872 269.506L358.633 301.187C363.051 304.696 366.421 309.351 368.406 314.622L391.53 376.235L421.84 358.661L397.388 301.145C394.62 294.644 390.356 288.898 384.945 284.368L344.96 250.996" stroke="white" stroke-width="1.39807" stroke-linecap="round" stroke-linejoin="round"/>
<path vector-effect="non-scaling-stroke" d="M322.857 272.68L316.608 294.937C314.664 301.857 309.17 307.212 302.193 308.988L255.708 320.745C259.538 327.904 268.178 336.39 276.86 344.051L328.575 325.485C333.846 323.765 338.124 319.837 340.263 314.72L349.099 293.595" stroke="white" stroke-width="1.39807" stroke-linecap="round" stroke-linejoin="round"/>
<path vector-effect="non-scaling-stroke" d="M364.561 246.998L360.395 263.901" stroke="white" stroke-width="1.39807" stroke-linecap="round" stroke-linejoin="round"/>
<path vector-effect="non-scaling-stroke" d="M372.419 190.53L371.594 204.287" stroke="white" stroke-width="1.39807" stroke-linecap="round" stroke-linejoin="round"/>
<path vector-effect="non-scaling-stroke" d="M396.13 373.565L406.364 391.684L451.508 360.27C451.508 360.27 443.832 351.965 433.165 358.229C433.165 358.229 424.329 363.15 417.786 361.011" fill="black"/>
<path vector-effect="non-scaling-stroke" d="M396.13 373.565L406.364 391.684L451.508 360.27C451.508 360.27 443.832 351.965 433.165 358.229C433.165 358.229 424.329 363.15 417.786 361.011" stroke="white" stroke-width="1.39807" stroke-linecap="round" stroke-linejoin="round"/>
<path vector-effect="non-scaling-stroke" d="M410.726 378.305C412.587 378.305 414.095 376.797 414.095 374.936C414.095 373.075 412.587 371.566 410.726 371.566C408.865 371.566 407.356 373.075 407.356 374.936C407.356 376.797 408.865 378.305 410.726 378.305Z" stroke="white" stroke-width="1.39807" stroke-linecap="round" stroke-linejoin="round"/>
<path vector-effect="non-scaling-stroke" d="M517.832 279.168L521.761 281.433L525.689 279.168" stroke="white" stroke-width="1.39807" stroke-linecap="round" stroke-linejoin="round"/>
<path vector-effect="non-scaling-stroke" d="M505.375 265.83V253.038L521.761 243.559L538.174 253.038V265.872" stroke="white" stroke-width="1.39807" stroke-linecap="round" stroke-linejoin="round"/>
<path vector-effect="non-scaling-stroke" d="M505.361 253.037L521.761 262.502L538.16 253.037" stroke="white" stroke-width="1.39807" stroke-linecap="round" stroke-linejoin="round"/>
<path vector-effect="non-scaling-stroke" d="M521.761 262.502V281.432" stroke="white" stroke-width="1.39807" stroke-linecap="round" stroke-linejoin="round"/>
<path vector-effect="non-scaling-stroke" d="M505.361 299.09V318.034L521.761 327.499L538.16 318.034V299.09L521.761 289.625L505.361 299.09Z" stroke="white" stroke-width="1.39807" stroke-linecap="round" stroke-linejoin="round"/>
<path vector-effect="non-scaling-stroke" d="M505.361 299.09L521.761 308.555L538.16 299.09" stroke="white" stroke-width="1.39807" stroke-linecap="round" stroke-linejoin="round"/>
<path vector-effect="non-scaling-stroke" d="M521.761 308.555V327.499" stroke="white" stroke-width="1.39807" stroke-linecap="round" stroke-linejoin="round"/>
<path vector-effect="non-scaling-stroke" d="M543.417 302.263L547.318 304.514L563.731 295.049V276.12L547.318 266.641L530.932 276.12V288.856" stroke="white" stroke-width="1.39807" stroke-linecap="round" stroke-linejoin="round"/>
<path vector-effect="non-scaling-stroke" d="M530.932 276.119L547.318 285.584L563.717 276.119" stroke="white" stroke-width="1.39807" stroke-linecap="round" stroke-linejoin="round"/>
<path vector-effect="non-scaling-stroke" d="M547.317 285.585V304.515" stroke="white" stroke-width="1.39807" stroke-linecap="round" stroke-linejoin="round"/>
<path vector-effect="non-scaling-stroke" d="M512.589 288.87V276.064L496.19 266.599L479.805 276.064V294.993L496.19 304.472L500.119 302.194" stroke="white" stroke-width="1.39807" stroke-linecap="round" stroke-linejoin="round"/>
<path vector-effect="non-scaling-stroke" d="M479.791 276.063L496.19 285.528L512.589 276.063" stroke="white" stroke-width="1.39807" stroke-linecap="round" stroke-linejoin="round"/>
<path vector-effect="non-scaling-stroke" d="M496.19 304.472V285.528" stroke="white" stroke-width="1.39807" stroke-linecap="round" stroke-linejoin="round"/>
<path vector-effect="non-scaling-stroke" d="M513.26 268.347L506.242 272.387" stroke="white" stroke-width="1.39807" stroke-linecap="round" stroke-linejoin="round"/>
<path vector-effect="non-scaling-stroke" d="M537.293 272.387L530.261 268.347" stroke="white" stroke-width="1.39807" stroke-linecap="round" stroke-linejoin="round"/>
<path vector-effect="non-scaling-stroke" d="M538.817 291.582L531.98 295.525" stroke="white" stroke-width="1.39807" stroke-linecap="round" stroke-linejoin="round"/>
<path vector-effect="non-scaling-stroke" d="M511.541 295.525L504.704 291.582" stroke="white" stroke-width="1.39807" stroke-linecap="round" stroke-linejoin="round"/>
<path vector-effect="non-scaling-stroke" d="M304.962 40.2646H263.131" stroke="white" stroke-width="1.39807" stroke-linecap="round" stroke-linejoin="round"/>
<path vector-effect="non-scaling-stroke" d="M410.795 50.1631H391.684" stroke="white" stroke-width="1.39807" stroke-linecap="round" stroke-linejoin="round"/>
<path vector-effect="non-scaling-stroke" d="M305.227 20.2725H286.102" stroke="white" stroke-width="1.39807" stroke-linecap="round" stroke-linejoin="round"/>
<path vector-effect="non-scaling-stroke" d="M259.356 40.2646H240.245" stroke="white" stroke-width="1.39807" stroke-linecap="round" stroke-linejoin="round"/>
<path vector-effect="non-scaling-stroke" d="M452.807 30.2402H391.684" stroke="white" stroke-width="1.39807" stroke-linecap="round" stroke-linejoin="round"/>
</g>
<defs>
<clipPath id="clip0_20_11251">
<rect width="788.624" height="535" fill="white"/>
</clipPath>
</defs>
</svg>
