<svg width="802" height="535" viewBox="0 0 802 535" fill="none" xmlns="http://www.w3.org/2000/svg">
<g clip-path="url(#clip0_24_1730)">
<g clip-path="url(#clip1_24_1730)">
<path vector-effect="non-scaling-stroke" d="M519.722 196.988H552.915V163.796H519.722V196.988Z" stroke="white" stroke-width="1.40766" stroke-miterlimit="10"/>
<path vector-effect="non-scaling-stroke" d="M586.093 263.374H619.286V230.181H586.093V263.374Z" stroke="white" stroke-width="1.40766" stroke-miterlimit="10"/>
<path vector-effect="non-scaling-stroke" d="M552.901 263.374H586.093V230.181H552.901V263.374Z" fill="#202020"/>
<path vector-effect="non-scaling-stroke" d="M586.093 230.181H619.286V196.988H586.093V230.181Z" fill="#202020"/>
<path vector-effect="non-scaling-stroke" d="M552.901 263.374H586.093V230.181H552.901V263.374Z" stroke="white" stroke-width="1.40766" stroke-miterlimit="10"/>
<path vector-effect="non-scaling-stroke" d="M586.093 230.181H619.286V196.988H586.093V230.181Z" stroke="white" stroke-width="1.40766" stroke-miterlimit="10"/>
<path vector-effect="non-scaling-stroke" d="M619.286 230.181H652.479V196.988H619.286V230.181Z" stroke="white" stroke-width="1.40766" stroke-miterlimit="10"/>
<path vector-effect="non-scaling-stroke" d="M552.901 230.181H586.093V196.988H552.901V230.181Z" stroke="white" stroke-width="1.40766" stroke-miterlimit="10"/>
<path vector-effect="non-scaling-stroke" d="M218.004 410.812C103.575 410.812 10.8247 319.103 10.8247 205.955C10.8247 92.8217 103.589 1.09863 218.004 1.09863C332.433 1.09863 425.183 92.8217 425.183 205.955C425.183 319.117 332.433 410.812 218.004 410.812Z" fill="#020202" stroke="white" stroke-width="1.40766" stroke-miterlimit="10"/>
<path vector-effect="non-scaling-stroke" d="M104.209 207.406C47.0438 207.406 0.703613 161.206 0.703613 104.21C0.703613 47.214 47.0438 1.01465 104.209 1.01465C161.374 1.01465 207.714 47.214 207.714 104.21C207.714 161.206 161.374 207.406 104.209 207.406Z" fill="#020202" stroke="white" stroke-width="1.40766" stroke-miterlimit="10"/>
<path vector-effect="non-scaling-stroke" d="M109.67 1.14062C100.549 15.7803 96.7621 32.9396 106.405 51.2674C110.839 59.6992 116.441 67.5962 123.494 74.0574C139.555 88.7533 160.599 92.5258 181.658 93.3564C190.146 93.6942 198.705 93.9335 207.249 94.3558" stroke="white" stroke-width="1.40766" stroke-miterlimit="10"/>
<path vector-effect="non-scaling-stroke" d="M80.4756 3.2666C83.3332 14.1478 83.854 29.7728 78.2234 51.9434C63.1755 111.037 95.988 130.378 103.688 137.994C111.388 145.609 148.494 160.094 203.167 132.87" stroke="white" stroke-width="1.40766" stroke-miterlimit="10"/>
<path vector-effect="non-scaling-stroke" d="M188.584 163.965C169.482 174.72 132.461 188.332 88.7527 167.498C43.1727 145.764 43.8061 104.998 5.0814 92.1746C3.88489 91.7804 2.70245 91.4144 1.52002 91.0625" stroke="white" stroke-width="1.40766" stroke-miterlimit="10"/>
<path vector-effect="non-scaling-stroke" d="M677.675 67.6377L662.036 104.11H620.341L635.98 67.6377H677.675Z" stroke="white" stroke-width="1.40766" stroke-miterlimit="10"/>
<path vector-effect="non-scaling-stroke" d="M656.828 67.6377L641.189 104.11" stroke="white" stroke-width="1.40766" stroke-miterlimit="10"/>
<path vector-effect="non-scaling-stroke" d="M630.772 85.8818H669.863" stroke="white" stroke-width="1.40766" stroke-miterlimit="10"/>
<path vector-effect="non-scaling-stroke" d="M729.787 67.6377L714.148 104.11H672.453L688.092 67.6377H729.787Z" stroke="white" stroke-width="1.40766" stroke-miterlimit="10"/>
<path vector-effect="non-scaling-stroke" d="M708.94 67.6377L693.301 104.11" stroke="white" stroke-width="1.40766" stroke-miterlimit="10"/>
<path vector-effect="non-scaling-stroke" d="M682.884 85.8818H721.975" stroke="white" stroke-width="1.40766" stroke-miterlimit="10"/>
<path vector-effect="non-scaling-stroke" d="M781.898 67.6377L766.259 104.11H724.564L740.204 67.6377H781.898Z" stroke="white" stroke-width="1.40766" stroke-miterlimit="10"/>
<path vector-effect="non-scaling-stroke" d="M761.051 67.6377L745.412 104.11" stroke="white" stroke-width="1.40766" stroke-miterlimit="10"/>
<path vector-effect="non-scaling-stroke" d="M734.995 85.8818H774.086" stroke="white" stroke-width="1.40766" stroke-miterlimit="10"/>
<path vector-effect="non-scaling-stroke" d="M646.397 104.11V146.016" stroke="white" stroke-width="1.40766" stroke-miterlimit="10"/>
<path vector-effect="non-scaling-stroke" d="M698.508 104.11V144.778" stroke="white" stroke-width="1.40766" stroke-miterlimit="10"/>
<path vector-effect="non-scaling-stroke" d="M750.634 104.11V143.06" stroke="white" stroke-width="1.40766" stroke-miterlimit="10"/>
<path vector-effect="non-scaling-stroke" d="M573.171 68.5818C587.538 68.5818 599.184 56.9351 599.184 42.5682C599.184 28.2013 587.538 16.5547 573.171 16.5547C558.804 16.5547 547.157 28.2013 547.157 42.5682C547.157 56.9351 558.804 68.5818 573.171 68.5818Z" fill="#A100FF" stroke="white" stroke-width="1.40766" stroke-miterlimit="10"/>
<path vector-effect="non-scaling-stroke" d="M573.17 7.0946V0" stroke="white" stroke-width="1.40766" stroke-miterlimit="10"/>
<path vector-effect="non-scaling-stroke" d="M573.17 85.1493V78.0547" stroke="white" stroke-width="1.40766" stroke-miterlimit="10"/>
<path vector-effect="non-scaling-stroke" d="M590.907 11.8526L594.455 5.70117" stroke="white" stroke-width="1.40766" stroke-miterlimit="10"/>
<path vector-effect="non-scaling-stroke" d="M551.887 79.4337L555.434 73.2822" stroke="white" stroke-width="1.40766" stroke-miterlimit="10"/>
<path vector-effect="non-scaling-stroke" d="M603.899 24.8315L610.051 21.2842" stroke="white" stroke-width="1.40766" stroke-miterlimit="10"/>
<path vector-effect="non-scaling-stroke" d="M536.304 63.851L542.455 60.3037" stroke="white" stroke-width="1.40766" stroke-miterlimit="10"/>
<path vector-effect="non-scaling-stroke" d="M608.644 42.5674H615.738" stroke="white" stroke-width="1.40766" stroke-miterlimit="10"/>
<path vector-effect="non-scaling-stroke" d="M530.603 42.5674H537.698" stroke="white" stroke-width="1.40766" stroke-miterlimit="10"/>
<path vector-effect="non-scaling-stroke" d="M603.899 60.3037L610.051 63.851" stroke="white" stroke-width="1.40766" stroke-miterlimit="10"/>
<path vector-effect="non-scaling-stroke" d="M536.304 21.2842L542.455 24.8315" stroke="white" stroke-width="1.40766" stroke-miterlimit="10"/>
<path vector-effect="non-scaling-stroke" d="M590.907 73.2969L594.455 79.4483" stroke="white" stroke-width="1.40766" stroke-miterlimit="10"/>
<path vector-effect="non-scaling-stroke" d="M551.887 5.70117L555.434 11.8526" stroke="white" stroke-width="1.40766" stroke-miterlimit="10"/>
<path vector-effect="non-scaling-stroke" d="M783.714 246.313V150.254V127.802L733.461 150.986V128.66L686.656 150.254V127.464L637.233 150.254V127.971L585.769 151.718V128.984L499.17 168.948" stroke="white" stroke-width="1.40766" stroke-miterlimit="10"/>
<path vector-effect="non-scaling-stroke" d="M412.233 53.7726C424.071 65.611 424.071 84.8115 412.233 96.6499C400.395 108.488 381.194 108.488 369.356 96.6499C347.917 75.2113 347.917 32.334 347.917 32.334C347.917 32.334 390.794 32.334 412.233 53.7726Z" fill="#A100FF" stroke="white" stroke-width="1.40766" stroke-miterlimit="10"/>
<path vector-effect="non-scaling-stroke" d="M441.934 53.7726C430.096 65.611 430.096 84.8115 441.934 96.6499C453.773 108.488 472.973 108.488 484.812 96.6499C506.25 75.2113 506.25 32.334 506.25 32.334C506.25 32.334 463.373 32.334 441.934 53.7726Z" fill="#A100FF" stroke="white" stroke-width="1.40766" stroke-miterlimit="10"/>
<path vector-effect="non-scaling-stroke" d="M382.447 66.8643C402.9 85.8817 425.929 101.211 425.394 150.226" stroke="white" stroke-width="1.40766" stroke-miterlimit="10"/>
<path vector-effect="non-scaling-stroke" d="M468.343 66.8643C447.889 85.8817 424.86 101.211 425.395 150.226" stroke="white" stroke-width="1.40766" stroke-miterlimit="10"/>
<path vector-effect="non-scaling-stroke" d="M506.236 190.653V200.76C506.236 223.156 488.204 241.188 465.808 241.188C443.412 241.188 425.38 223.156 425.38 200.76V150.239" stroke="white" stroke-width="1.40766" stroke-miterlimit="10"/>
<path vector-effect="non-scaling-stroke" d="M533.193 163.696C533.193 178.575 521.13 190.639 506.251 190.639C491.372 190.639 479.308 178.575 479.308 163.696V133.375H533.207V163.696H533.193Z" fill="#A100FF" stroke="white" stroke-width="1.40766" stroke-miterlimit="10"/>
<path vector-effect="non-scaling-stroke" d="M492.765 133.39V113.176" stroke="white" stroke-width="1.40766" stroke-miterlimit="10"/>
<path vector-effect="non-scaling-stroke" d="M519.708 133.39V113.176" stroke="white" stroke-width="1.40766" stroke-miterlimit="10"/>
<path vector-effect="non-scaling-stroke" d="M526.141 364.134H684.405C710.517 364.134 731.73 385.361 731.73 411.501H478.816C478.816 385.361 500.015 364.134 526.141 364.134Z" fill="#020202" stroke="white" stroke-width="1.40766" stroke-miterlimit="10"/>
<path vector-effect="non-scaling-stroke" d="M770.271 435.572C770.271 422.284 759.503 411.502 746.214 411.502H666.935V364.134H593.047C593.047 390.119 572.002 411.502 546.045 411.502H402.309C389.021 411.502 378.266 422.27 378.266 435.572V486.178H791.203V435.572H770.271Z" fill="#202020" stroke="white" stroke-width="1.40766" stroke-miterlimit="10"/>
<path vector-effect="non-scaling-stroke" d="M478.815 520.807C497.917 520.807 513.401 505.308 513.401 486.178C513.401 467.048 497.917 451.55 478.815 451.55C459.713 451.55 444.229 467.048 444.229 486.178C444.229 505.308 459.713 520.807 478.815 520.807Z" fill="#020202" stroke="white" stroke-width="1.40766" stroke-miterlimit="10"/>
<path vector-effect="non-scaling-stroke" d="M702.662 520.807C721.764 520.807 737.248 505.308 737.248 486.178C737.248 467.048 721.764 451.55 702.662 451.55C683.56 451.55 668.062 467.048 668.062 486.178C668.062 505.308 683.546 520.807 702.662 520.807Z" fill="#020202" stroke="white" stroke-width="1.40766" stroke-miterlimit="10"/>
<path vector-effect="non-scaling-stroke" d="M620.976 419.934L596.384 443.99H622.763L597.327 469.863" stroke="white" stroke-width="1.40766" stroke-linejoin="round"/>
<path vector-effect="non-scaling-stroke" d="M303.449 138.584C303.449 155.941 298.48 172.143 289.894 185.839C274.142 210.98 246.186 227.689 214.33 227.689C165.119 227.689 125.226 187.796 125.226 138.584C125.226 107.039 141.611 79.3219 166.343 63.4998C171.538 60.1777 177.098 57.3765 182.954 55.1664C192.709 51.4924 203.294 49.4795 214.33 49.4795C223.832 49.4795 232.982 50.9716 241.555 53.7165C260.671 59.8399 276.971 72.2413 288.036 88.4998C289.232 90.2594 290.372 92.0612 291.442 93.9052C299.072 107.039 303.435 122.298 303.435 138.584H303.449Z" fill="#050505" stroke="white" stroke-width="1.40766" stroke-miterlimit="10"/>
<path vector-effect="non-scaling-stroke" d="M232.334 190.429C217.244 211.755 212.317 204.533 208.052 208.967C203.787 213.402 205.913 224.086 201.985 222.917C194.539 220.693 190.822 215.048 190.668 204.871C190.499 194.694 193.131 190.766 187.064 187.318C180.997 183.869 170.003 169.764 170.651 164.514C171.312 159.263 175.577 159.925 176.394 155.659C177.21 151.394 179.505 147.129 174.592 148.438C169.665 149.747 165.4 144.666 164.753 140.724C164.091 136.783 160.318 138.922 158.193 136.135C156.053 133.348 143.595 129.238 144.905 124.325C146.214 119.398 140.963 91.5123 146.383 87.8947C151.802 84.291 164.921 70.6649 166.399 65.4143C166.582 64.7527 166.568 64.1193 166.385 63.514C171.58 60.1919 177.14 57.3907 182.996 55.1807C183.094 56.3631 183.108 57.4188 182.982 58.1931C182.32 62.1345 196.115 57.8693 199.888 61.304C203.66 64.7527 205.462 67.8637 204.646 71.4814C203.829 75.085 192.498 62.6272 182.489 73.9448C172.481 85.2623 193.807 72.6356 200.535 75.2539C207.264 77.8721 211.529 83.9532 209.727 86.9093C207.925 89.8654 197.748 86.2477 197.917 90.1891C198.086 94.1306 188.401 100.69 185.276 101.845C182.165 102.999 174.775 112.177 177.886 120.383C177.886 120.383 174.282 124.325 171.65 112.346C171.65 112.346 157.109 107.123 155.082 119.891C153.055 132.658 161.318 123.171 164.767 124.818C168.215 126.465 161.979 132.039 164.105 133.179C166.245 134.333 170.172 133.179 170.172 136.29C170.172 139.401 176.084 145.975 180.842 144.497C185.6 143.019 194.299 144.328 197.903 146.298C201.507 148.269 214.964 164.345 223.339 165.006C231.701 165.668 247.453 169.102 232.362 190.443L232.334 190.429Z" fill="#232323" stroke="white" stroke-width="1.40766" stroke-miterlimit="10"/>
<path vector-effect="non-scaling-stroke" d="M170.257 124.804C170.257 124.804 171.524 127.647 178.154 129.646C184.784 131.645 185.84 135.755 189.626 134.601C193.413 133.447 176.155 121.439 170.257 124.804Z" fill="#232323" stroke="white" stroke-width="1.40766" stroke-miterlimit="10"/>
<path vector-effect="non-scaling-stroke" d="M218.652 76.211C218.652 76.211 210.234 72.1569 210.445 67.568C210.671 62.979 208.475 61.4446 206.293 60.8957C204.111 60.3467 211.318 52.8016 219.088 55.0961C226.859 57.3906 230.575 62.9649 225.536 68.0043C220.51 73.0297 219.792 76.8163 218.638 76.211H218.652Z" fill="#232323" stroke="white" stroke-width="1.40766" stroke-miterlimit="10"/>
<path vector-effect="non-scaling-stroke" d="M288.05 88.4995C288.05 88.4995 288.022 88.5276 288.008 88.5276C283.433 91.7934 282.616 89.0203 278.027 85.4167C273.452 81.8131 271.327 88.6825 270.834 94.5665C270.341 100.451 263.472 99.803 258.404 93.75C253.337 87.6971 259.39 90.977 262.163 89.6678C264.936 88.3587 259.714 84.7692 257.743 82.7985C255.786 80.8418 247.931 81.4893 245.637 76.2669C243.342 71.0304 250.536 73.8176 254.787 77.2523C259.038 80.687 259.531 74.634 258.053 73.0012C256.575 71.3683 255.111 72.1847 251.507 70.7067C247.903 69.2286 249.381 65.4702 244.483 63.3446C240.935 61.8103 241.147 56.5315 241.541 53.7021C260.657 59.8255 276.957 72.2269 288.022 88.4854L288.05 88.4995Z" fill="#232323" stroke="white" stroke-width="1.40766" stroke-miterlimit="10"/>
<path vector-effect="non-scaling-stroke" d="M303.449 138.584C303.449 155.941 298.48 172.143 289.893 185.839C289.584 182.968 289.696 179.505 290.907 176.028C293.891 167.441 296.692 163.528 292.779 148.607C288.866 133.686 280.42 149.733 276.183 147.495C271.763 145.158 265.865 142.272 265.71 138.162C265.555 134.052 266.484 130.223 263.866 124.212C261.248 118.201 264.612 114.288 267.779 109.995C270.946 105.701 265.161 103.097 270.58 99.916C275.986 96.7488 277.675 92.4554 282.151 95.8197C285.15 98.0719 288.57 97.2977 291.456 93.9053C299.085 107.039 303.449 122.298 303.449 138.584Z" fill="#232323" stroke="white" stroke-width="1.40766" stroke-miterlimit="10"/>
<path vector-effect="non-scaling-stroke" d="M353.647 424.986L318.385 435.839L339.964 482.081C339.964 482.081 346.566 481.419 349.128 463.204C351.465 446.58 387.191 446.467 387.191 446.467L353.633 424.986H353.647Z" fill="#020202" stroke="white" stroke-width="1.40766"/>
<path vector-effect="non-scaling-stroke" d="M339.964 482.08L318.385 435.839L328.83 432.615L347.214 472.016C344.215 481.63 339.95 482.066 339.95 482.066L339.964 482.08Z" fill="#020202" stroke="white" stroke-width="1.40766"/>
<path vector-effect="non-scaling-stroke" d="M355.66 453.9L351.775 445.608" stroke="white" stroke-width="1.40766"/>
<path vector-effect="non-scaling-stroke" d="M346.89 450.113L350.761 458.418" stroke="white" stroke-width="1.40766"/>
<path vector-effect="non-scaling-stroke" d="M493.737 472.017L505.66 506.927L551.226 483.968C551.226 483.968 550.367 477.38 532.081 475.381C515.387 473.551 514.204 437.839 514.204 437.839L493.737 472.031V472.017Z" fill="#020202" stroke="white" stroke-width="1.40766"/>
<path vector-effect="non-scaling-stroke" d="M551.211 483.968L505.646 506.926L502.112 496.58L540.95 477.014C550.648 479.716 551.211 483.968 551.211 483.968Z" fill="#020202" stroke="white" stroke-width="1.40766"/>
<path vector-effect="non-scaling-stroke" d="M522.58 469.146L514.401 473.27" stroke="white" stroke-width="1.40766"/>
<path vector-effect="non-scaling-stroke" d="M519.061 478.014L527.24 473.903" stroke="white" stroke-width="1.40766"/>
<path vector-effect="non-scaling-stroke" d="M445.06 163.472C441.78 166.512 431.349 172.213 431.349 172.213C431.349 172.213 412.641 213.303 402.943 219.919C396.707 224.17 377.647 233.01 364.809 238.781C361.811 240.133 359.15 241.315 357.067 242.23C356.18 242.005 355.603 241.822 355.603 241.822L362.81 206.349L394.947 195.721L418.047 164.64C418.047 164.64 420.412 151.225 424.564 148.1C428.717 144.961 431.842 143.398 431.842 143.398C431.842 143.398 442.47 127.379 444.792 128.182C447.115 128.984 448.171 130.884 446.045 134.164C443.948 137.388 438.247 146.368 438.064 146.65C438.416 146.326 451.465 134.249 453.126 134.206C454.815 134.178 456.969 136.796 454.73 139.668C452.492 142.54 443.033 151.703 443.033 151.703C443.033 151.703 446.791 152.731 445.862 157.545C445.862 157.545 448.326 160.431 445.032 163.472H445.06Z" fill="#020202" stroke="white" stroke-width="1.40766"/>
<g opacity="0.76">
<path vector-effect="non-scaling-stroke" d="M364.809 238.781C361.811 240.133 359.15 241.315 357.067 242.23C356.18 242.005 355.603 241.822 355.603 241.822L362.81 206.349V206.307C362.81 206.307 362.81 206.307 362.81 206.349C362.768 207.419 361.825 232.011 364.795 238.781H364.809Z" fill="#020202"/>
<path vector-effect="non-scaling-stroke" d="M362.81 206.349L355.603 241.822C355.603 241.822 356.18 242.005 357.067 242.23C359.15 241.315 361.811 240.133 364.809 238.781H364.795C361.825 232.011 362.768 207.419 362.81 206.349ZM362.81 206.349V206.307C362.81 206.307 362.81 206.307 362.81 206.349Z" stroke="white" stroke-width="1.40766"/>
</g>
<path vector-effect="non-scaling-stroke" d="M423.494 166.174C423.494 166.174 423.438 166.132 423.424 166.104C423.368 166.005 423.396 165.879 423.48 165.808C425.718 163.908 427.52 161.332 428.688 158.376L428.745 158.235H428.872C432.109 158.305 435.431 157.475 438.472 155.828C439.232 155.42 440.147 154.73 440.161 153.773C440.175 152.787 439.26 152.224 438.472 151.929C436.177 151.042 433.77 150.549 431.307 150.465C431.208 150.465 431.138 150.366 431.152 150.239C431.152 150.127 431.25 150.028 431.349 150.028C433.841 150.113 436.276 150.62 438.598 151.52C439.865 152.013 440.527 152.787 440.513 153.759C440.499 154.702 439.823 155.56 438.598 156.222C435.544 157.869 432.208 158.714 428.956 158.671C427.759 161.642 425.929 164.232 423.663 166.16C423.607 166.202 423.536 166.216 423.494 166.188V166.174Z" fill="#020202" stroke="white" stroke-width="1.40766"/>
<path vector-effect="non-scaling-stroke" d="M291.273 222.156L275.986 250.422L273.551 254.082L268.286 254.701L247.664 257.165C247.664 257.165 232.729 292.919 231.166 298.367C229.618 303.8 221.861 308.023 219.328 308.826C216.766 309.614 212.669 312.26 211.881 310.909C211.234 309.797 211.29 308.544 215.808 304.927C215.808 304.927 210.023 306.306 207.813 307.672C205.617 309.065 202.436 312.809 201.028 311.191C199.606 309.558 201.844 307.559 202.253 307.165C201.844 307.39 198.368 309.783 196.96 308.981C196.158 308.502 195.172 306.545 196.003 305.518C193.962 303.843 196.059 301.337 198.677 298.761C198.677 298.761 195.257 299.451 196.524 296.438C197.467 294.186 211.093 287.359 217.216 287.908C217.216 287.908 224.086 248.874 229.801 241.568C233.306 237.077 255.617 230.799 272.368 226.619C274.226 226.154 276.028 225.718 277.717 225.309C285.108 223.522 290.541 222.325 291.203 222.198C291.245 222.17 291.259 222.184 291.259 222.184L291.273 222.156Z" fill="#020202" stroke="white" stroke-width="1.40766"/>
<path vector-effect="non-scaling-stroke" d="M210.783 302.139C210.783 302.139 210.84 302.21 210.854 302.252C210.868 302.351 210.798 302.449 210.699 302.463C207.081 302.984 205.364 304.195 202.844 306.714C202.774 306.785 202.661 306.785 202.591 306.714C202.52 306.644 202.52 306.531 202.591 306.461C205.153 303.885 206.926 302.646 210.643 302.111C210.699 302.111 210.741 302.111 210.783 302.154V302.139Z" fill="#020202" stroke="white" stroke-width="1.40766"/>
<path vector-effect="non-scaling-stroke" d="M208.601 298.677C208.601 298.677 208.658 298.733 208.672 298.776C208.686 298.874 208.63 298.973 208.531 298.987C203.956 299.944 201.521 301.943 198.171 304.73C197.762 305.068 197.326 305.434 196.876 305.786C196.791 305.856 196.679 305.842 196.622 305.758C196.552 305.673 196.566 305.56 196.65 305.504C197.101 305.138 197.523 304.786 197.945 304.448C201.352 301.633 203.801 299.606 208.475 298.635C208.531 298.635 208.587 298.635 208.63 298.677H208.601Z" fill="#020202" stroke="white" stroke-width="1.40766"/>
<path vector-effect="non-scaling-stroke" d="M207.757 295.129C207.757 295.129 207.813 295.2 207.827 295.242C207.841 295.34 207.785 295.439 207.686 295.453C205.983 295.777 201.704 296.748 198.818 298.916C198.733 298.972 198.621 298.958 198.565 298.874C198.508 298.789 198.522 298.676 198.607 298.62C201.549 296.396 205.898 295.411 207.63 295.087C207.686 295.087 207.742 295.087 207.785 295.129H207.757Z" fill="#020202" stroke="white" stroke-width="1.40766"/>
<path vector-effect="non-scaling-stroke" d="M248.016 252.984C248.016 252.984 248.086 253.083 248.086 253.153L247.861 257.193C247.861 257.292 247.763 257.362 247.664 257.362C247.565 257.362 247.495 257.263 247.495 257.165L247.72 253.125C247.72 253.026 247.819 252.956 247.917 252.956C247.96 252.956 247.988 252.97 248.016 252.998V252.984Z" fill="#020202" stroke="white" stroke-width="1.40766"/>
<path vector-effect="non-scaling-stroke" d="M472.664 356.981C468.962 352.927 383.897 306.77 383.897 306.77L298.255 326.646C298.255 326.646 298.227 329.855 299.254 334.683C301.169 343.819 306.757 358.754 323.072 368.988C334.164 375.942 356.983 384.444 373.691 390.202C380.744 392.637 386.712 394.579 390.26 395.705L393.736 396.803L343.033 422.972L362.191 463.428C362.191 463.428 426.338 434.036 433.052 431.01C445.257 425.492 450.986 418.763 450.986 418.763L489.077 477.293L536.121 470.537C536.121 470.537 476.38 361.035 472.664 356.995V356.981Z" fill="#020202" stroke="white" stroke-width="1.40766"/>
<path vector-effect="non-scaling-stroke" d="M451.014 418.819C451.014 418.819 462.022 409.472 461.98 390.328L451.014 418.819Z" fill="#020202"/>
<path vector-effect="non-scaling-stroke" d="M451.014 418.819C451.014 418.819 462.022 409.472 461.98 390.328" stroke="white" stroke-width="1.40766"/>
<path vector-effect="non-scaling-stroke" d="M384.08 328.589C384.657 328.955 441.949 365.188 446.651 369.355C447.073 369.735 447.537 370.143 448.044 370.579C453.084 374.971 461.515 382.319 461.98 390.315" fill="#020202"/>
<path vector-effect="non-scaling-stroke" d="M384.08 328.589C384.657 328.955 441.949 365.188 446.651 369.355C447.073 369.735 447.537 370.143 448.044 370.579C453.084 374.971 461.515 382.319 461.98 390.315" stroke="white" stroke-width="1.40766"/>
<path vector-effect="non-scaling-stroke" d="M313.007 338.4C314.359 341.145 320.088 351.562 328.773 349.506C337.092 347.536 337.965 337.302 338.064 334.642L313.007 338.386V338.4Z" fill="#020202" stroke="white" stroke-width="1.40766"/>
<path vector-effect="non-scaling-stroke" d="M293.089 326.253L292.878 322.509L292.85 322.129L290.049 274.071L268.469 266.005C268.469 266.005 266.724 258.038 274.409 219.074L309.925 222.551L310.305 222.635L316.569 223.93L334.305 218.82L334.742 218.708L344.525 215.893L371.791 199.353C371.791 199.353 380.139 221.819 387.642 230.603L371.918 250.957C371.918 250.957 382.63 291.174 385.178 300.38C385.22 300.521 385.249 300.648 385.291 300.774C385.502 301.549 385.643 302.041 385.699 302.196C386.304 304.026 366.963 329.279 293.075 326.253H293.089Z" fill="#404040" stroke="white" stroke-width="1.40766" stroke-miterlimit="10"/>
<path vector-effect="non-scaling-stroke" d="M366.9 233.423L366.536 233.532L371.755 250.984L372.119 250.875L366.9 233.423Z" fill="#020202" stroke="white" stroke-width="1.40766"/>
<path vector-effect="non-scaling-stroke" d="M303.675 202.986C304.055 202.564 304.52 202.128 305.012 201.663C305.026 201.086 305.139 200.509 305.35 199.932C306.265 197.44 308.743 195.99 311.22 196.356C314.993 193.048 318.624 189.29 319.131 185.348C320.539 174.383 331.279 170.131 334.432 169.625C339.753 168.78 352.718 171.37 358.025 179.521C363.318 187.685 357.138 200.002 356.589 199.918L353.38 204.056C353.38 204.056 355.238 207.786 357.532 211.798C359.827 215.81 354.295 218.949 354.295 218.949C354.295 218.949 359.475 219.991 357.377 226.522C355.519 232.336 349.354 228.831 349.354 228.831C341.611 234.138 339.261 225.818 339.261 225.818L315.612 217.978C315.612 217.978 312.205 222.933 307.518 219.709C302.83 216.486 305.505 212.755 305.505 212.755C302.141 211.39 299.804 207.209 303.703 202.972L303.675 202.986Z" fill="#020202" stroke="white" stroke-width="1.40766"/>
<path vector-effect="non-scaling-stroke" d="M359.593 216.925C359.706 216.967 359.826 216.866 359.911 216.767C360.854 215.528 361.839 214.064 361.516 212.502C361.248 211.221 360.235 210.348 359.123 209.504L355.716 206.885C355.589 206.787 355.42 206.815 355.322 206.942C355.223 207.068 355.252 207.237 355.378 207.336L358.785 209.954C359.812 210.742 360.741 211.531 360.967 212.629C361.248 213.966 360.333 215.303 359.46 216.443C359.362 216.57 359.39 216.739 359.517 216.838C359.545 216.852 359.559 216.866 359.587 216.88L359.593 216.925Z" fill="#020202" stroke="white" stroke-width="0.663062"/>
<path vector-effect="non-scaling-stroke" d="M308.447 193.385C308.869 193.54 309.32 193.625 309.756 193.639C311.586 193.681 313.261 192.724 314.528 191.879C315.725 191.077 316.879 190.176 317.949 189.205C318.061 189.106 318.075 188.923 317.963 188.811C317.864 188.698 317.681 188.684 317.569 188.796C316.527 189.754 315.387 190.641 314.218 191.429C313.022 192.231 311.445 193.132 309.77 193.09C308.278 193.048 306.645 191.978 306.575 190.429C306.575 190.275 306.434 190.148 306.279 190.162C306.124 190.162 305.998 190.303 306.012 190.458C306.068 191.851 307.166 192.921 308.447 193.4V193.385Z" fill="#020202" stroke="white" stroke-width="1.40766"/>
<path vector-effect="non-scaling-stroke" d="M330.42 164.754C329.097 168.344 333.109 171.258 336.713 172.581C340.302 173.904 346.623 173.059 347.946 169.47C349.269 165.88 344.849 159.011 341.259 157.702C337.67 156.393 331.744 161.165 330.435 164.768L330.42 164.754Z" fill="#020202" stroke="white" stroke-width="1.40766"/>
<path vector-effect="non-scaling-stroke" d="M316.513 190.95C315.148 198.185 321.735 198.973 321.735 198.973L312.487 221.44C312.487 221.44 310.404 227.127 321.116 233.081C331.828 239.035 336.361 233.7 337.628 232.743C338.05 232.419 338.613 230.871 339.204 228.928L339.683 227.211L341.696 219.948L341.766 219.694C346.806 219.201 352.915 207.138 352.915 207.138C360.024 208.827 360.446 202.169 360.01 200.339C359.573 198.523 354.815 198.438 354.815 198.438C354.815 198.438 362.318 185.53 347.214 179.998C332.11 174.466 325.297 188.543 325.297 188.543C324.903 187.107 317.893 183.7 316.541 190.936L316.513 190.95Z" fill="#020202" stroke="white" stroke-width="1.40766"/>
<g opacity="0.76">
<path vector-effect="non-scaling-stroke" d="M339.81 226.69L341.738 219.708C332.433 221.411 326.704 213.74 326.563 213.557" fill="#020202"/>
<path vector-effect="non-scaling-stroke" d="M339.81 226.69L341.738 219.708C332.433 221.411 326.704 213.74 326.563 213.557" stroke="white" stroke-width="1.40766"/>
</g>
<path vector-effect="non-scaling-stroke" d="M314.458 197.537C315.063 195.89 316.893 195.046 318.54 195.651C320.187 196.256 321.031 198.086 320.426 199.733C319.821 201.38 317.991 202.225 316.344 201.619C314.697 201.014 313.852 199.184 314.458 197.537Z" fill="#020202" stroke="white" stroke-width="1.40766"/>
<path vector-effect="non-scaling-stroke" d="M352.619 208.151C353.224 206.504 355.054 205.66 356.701 206.265C358.348 206.87 359.192 208.7 358.587 210.347C357.982 211.994 356.152 212.839 354.505 212.234C352.858 211.628 352.013 209.798 352.619 208.151Z" fill="#020202" stroke="white" stroke-width="1.40766"/>
<path vector-effect="non-scaling-stroke" d="M387.458 253.054C434.559 229.026 473.128 220.678 482.687 234.825C495.595 253.927 450.69 306.841 382.377 353.012C314.063 399.184 248.227 421.129 235.304 402.027C226.211 388.57 245.82 358.319 282.095 325.464" stroke="white" stroke-width="1.40766" stroke-linejoin="round"/>
<path vector-effect="non-scaling-stroke" d="M389.162 282.404C420.834 264.851 449.677 253.716 469.989 250.887" stroke="white" stroke-width="1.40766" stroke-linejoin="round"/>
<path vector-effect="non-scaling-stroke" d="M254.28 397.41C261.191 384.91 273.635 369.932 290.245 354.11" stroke="white" stroke-width="1.40766" stroke-linejoin="round"/>
<path vector-effect="non-scaling-stroke" d="M566.147 346.622V335.867C566.147 328.942 560.53 323.325 553.605 323.325H543.695C536.769 323.325 531.152 328.942 531.152 335.867V346.622" fill="#020202"/>
<path vector-effect="non-scaling-stroke" d="M566.147 346.622V335.867C566.147 328.942 560.53 323.325 553.605 323.325H543.695C536.769 323.325 531.152 328.942 531.152 335.867V346.622" stroke="white" stroke-width="1.40766" stroke-miterlimit="10"/>
<path vector-effect="non-scaling-stroke" d="M539.697 346.622V338.331C539.697 332.996 535.361 328.66 530.026 328.66H522.383C517.047 328.66 512.712 332.996 512.712 338.331V346.622" fill="#020202"/>
<path vector-effect="non-scaling-stroke" d="M539.697 346.622V338.331C539.697 332.996 535.361 328.66 530.026 328.66H522.383C517.047 328.66 512.712 332.996 512.712 338.331V346.622" stroke="white" stroke-width="1.40766" stroke-miterlimit="10"/>
<path vector-effect="non-scaling-stroke" d="M563.852 293.75H515.569C508.899 293.75 503.492 299.157 503.492 305.828V334.6C503.492 341.271 508.899 346.678 515.569 346.678H563.852C570.522 346.678 575.93 341.271 575.93 334.6V305.828C575.93 299.157 570.522 293.75 563.852 293.75Z" stroke="white" stroke-width="1.40766" stroke-miterlimit="10"/>
<path vector-effect="non-scaling-stroke" d="M654.914 293.75H606.631C599.961 293.75 594.553 299.157 594.553 305.828V334.6C594.553 341.271 599.961 346.678 606.631 346.678H654.914C661.584 346.678 666.991 341.271 666.991 334.6V305.828C666.991 299.157 661.584 293.75 654.914 293.75Z" stroke="white" stroke-width="1.40766" stroke-miterlimit="10"/>
<path vector-effect="non-scaling-stroke" d="M745.975 293.75H697.692C691.022 293.75 685.615 299.157 685.615 305.828V334.6C685.615 341.271 691.022 346.678 697.692 346.678H745.975C752.646 346.678 758.053 341.271 758.053 334.6V305.828C758.053 299.157 752.646 293.75 745.975 293.75Z" stroke="white" stroke-width="1.40766" stroke-miterlimit="10"/>
<path vector-effect="non-scaling-stroke" d="M548.65 318.441C552.133 318.441 554.956 315.617 554.956 312.134C554.956 308.652 552.133 305.828 548.65 305.828C545.167 305.828 542.344 308.652 542.344 312.134C542.344 315.617 545.167 318.441 548.65 318.441Z" fill="#020202" stroke="white" stroke-width="1.40766" stroke-miterlimit="10"/>
<path vector-effect="non-scaling-stroke" d="M526.198 324.874C528.88 324.874 531.054 322.7 531.054 320.018C531.054 317.335 528.88 315.161 526.198 315.161C523.516 315.161 521.341 317.335 521.341 320.018C521.341 322.7 523.516 324.874 526.198 324.874Z" fill="#020202" stroke="white" stroke-width="1.40766" stroke-miterlimit="10"/>
<path vector-effect="non-scaling-stroke" d="M726.353 308.404L704.802 319.666V333.658H726.353V308.404Z" fill="#020202" stroke="white" stroke-width="1.40766" stroke-miterlimit="10"/>
<path vector-effect="non-scaling-stroke" d="M726.353 314.991L742.273 323.31V333.657H726.353V314.991Z" fill="#020202" stroke="white" stroke-width="1.40766" stroke-miterlimit="10"/>
<path vector-effect="non-scaling-stroke" d="M719.92 327.056H715.57V333.658H719.92V327.056Z" stroke="white" stroke-width="1.40766" stroke-miterlimit="10"/>
<path vector-effect="non-scaling-stroke" d="M666.992 330.589V320.707H636.446" stroke="white" stroke-width="1.40766" stroke-miterlimit="10"/>
<path vector-effect="non-scaling-stroke" d="M636.446 333.572H666.429" stroke="white" stroke-width="1.40766" stroke-miterlimit="10"/>
<path vector-effect="non-scaling-stroke" d="M594.553 310.839V320.721H615.358C616.302 320.721 617.062 321.481 617.062 322.424V327.238C617.062 330.729 619.891 333.573 623.396 333.573H633.475" stroke="white" stroke-width="1.40766" stroke-miterlimit="10"/>
<path vector-effect="non-scaling-stroke" d="M633.461 320.706H631.617C630.674 320.706 629.914 319.946 629.914 319.003V314.189C629.914 310.698 627.085 307.854 623.579 307.854H595.103" stroke="white" stroke-width="1.40766" stroke-miterlimit="10"/>
<path vector-effect="non-scaling-stroke" d="M636.446 318.567H633.461V335.839H636.446V318.567Z" stroke="white" stroke-width="1.40766" stroke-miterlimit="10"/>
<path vector-effect="non-scaling-stroke" d="M645.341 307.699C643.751 307.699 642.47 308.952 642.47 310.5C642.47 315.568 640.738 316.201 640.738 316.201C644.243 316.201 648.199 314.822 648.199 310.5C648.199 308.952 646.918 307.699 645.327 307.699H645.341Z" stroke="white" stroke-width="1.40766" stroke-linecap="round" stroke-linejoin="round"/>
<path vector-effect="non-scaling-stroke" d="M688.318 242.822L709.517 256.729C709.644 256.814 709.798 256.842 709.953 256.814L755.801 246.58C756.279 246.481 756.406 245.862 756.012 245.581L736.952 231.687C736.826 231.588 736.657 231.56 736.502 231.588L688.515 241.808C688.022 241.907 687.909 242.554 688.318 242.822Z" fill="#202020" stroke="white" stroke-width="1.40766" stroke-miterlimit="10"/>
<path vector-effect="non-scaling-stroke" d="M736.5 231.5L752.5 199.5L756.5 246L736.5 231.5Z" fill="black"/>
<path vector-effect="non-scaling-stroke" d="M752.507 199.874L732.236 185.094L684.939 197.763L687.177 241.724C687.177 241.921 687.36 242.048 687.557 242.005L736.741 231.532" fill="#020202"/>
<path vector-effect="non-scaling-stroke" d="M752.507 199.874L732.236 185.094L684.939 197.763L687.177 241.724C687.177 241.921 687.36 242.048 687.557 242.005L736.741 231.532" stroke="white" stroke-width="1.40766" stroke-miterlimit="10"/>
<path vector-effect="non-scaling-stroke" d="M757.011 246.313L752.506 199.874L732.236 185.094L684.953 197.763L687.205 242.09L709.713 256.856L757.011 246.313Z" stroke="white" stroke-width="1.40766" stroke-miterlimit="10"/>
<path vector-effect="non-scaling-stroke" d="M757.011 246.313L736.741 231.532L732.236 185.094" stroke="white" stroke-width="1.40766" stroke-miterlimit="10"/>
<path vector-effect="non-scaling-stroke" d="M783.376 281.617L786.769 259.165L770.074 254.533C769.638 254.407 769.187 254.688 769.103 255.139L765.5 275.5" stroke="white" stroke-width="1.40766" stroke-miterlimit="10"/>
<path vector-effect="non-scaling-stroke" d="M765 275L784.193 281.813L797.298 279.772L801.183 258.389L784.193 253.744L770.074 254.49" stroke="white" stroke-width="1.40766" stroke-miterlimit="10"/>
<path vector-effect="non-scaling-stroke" d="M801.183 258.389L787.585 259.361L770.074 254.49" stroke="white" stroke-width="1.40766" stroke-miterlimit="10"/>
<path vector-effect="non-scaling-stroke" d="M787.585 259.36L784.193 281.813" stroke="white" stroke-width="1.40766" stroke-miterlimit="10"/>
<path vector-effect="non-scaling-stroke" d="M783.714 289.541V426.914" stroke="white" stroke-width="1.40766" stroke-miterlimit="10"/>
<path vector-effect="non-scaling-stroke" d="M17 311V483.5H100L89 431.5C123 428 119.5 437.5 122.5 446C127.5 420 151 431.5 152.5 443.5C159 421.5 182 431.5 182 440.5L187.5 462L198 461L171.5 334V311H17Z" fill="black"/>
<path vector-effect="non-scaling-stroke" d="M100 482.659L68.0464 333.531V310.91H17.1313V482.659" stroke="white" stroke-width="1.40766" stroke-linecap="round" stroke-linejoin="round"/>
<path vector-effect="non-scaling-stroke" d="M67.7646 310.91H171.27V333.531L198.142 461.375L187.12 461.867L158.263 333.531V322.509H137.134V331.828H126.9V322.509H103.716V331.828H93.4826V322.509H68.3277L67.7646 310.91Z" stroke="white" stroke-width="1.40766" stroke-linecap="round" stroke-linejoin="round"/>
<path vector-effect="non-scaling-stroke" d="M54.4346 311.191V333.7L86.5 482.5" stroke="white" stroke-width="1.40766" stroke-linecap="round" stroke-linejoin="round"/>
<path vector-effect="non-scaling-stroke" d="M68.9189 332.856C68.9189 332.856 99.0569 329.886 107.123 359.432L123.522 438.881" stroke="white" stroke-width="1.40766" stroke-linecap="round" stroke-linejoin="round"/>
<path vector-effect="non-scaling-stroke" d="M183.024 444.258C181.166 435.46 176.183 430.477 167.835 430.477C159.812 430.477 153.238 436.755 152.773 444.652C152.14 436.91 145.651 430.814 137.74 430.814C129.406 430.814 122.65 437.571 122.65 445.904H122.199C122.199 437.571 115.442 430.814 107.109 430.814H89" stroke="white" stroke-width="1.40766" stroke-linecap="round" stroke-linejoin="round"/>
<path vector-effect="non-scaling-stroke" d="M154.336 437.698L137.838 359.39C130.927 330.646 99.6343 332.814 99.6343 332.814H68.0464" stroke="white" stroke-width="1.40766" stroke-linecap="round" stroke-linejoin="round"/>
<path vector-effect="non-scaling-stroke" d="M198.142 461.375C213.697 461.375 219.75 471.82 219.75 482.673H220.327C220.327 471.82 229.125 463.022 239.978 463.022C250.282 463.022 258.728 470.947 259.544 481.04C260.15 470.736 268.694 462.571 279.153 462.571C290.006 462.571 298.804 471.369 298.804 482.222H319.539" stroke="white" stroke-width="1.40766" stroke-linecap="round" stroke-linejoin="round"/>
<path vector-effect="non-scaling-stroke" d="M164.232 359.39C157.32 330.646 126.028 332.814 126.028 332.814H105.744" stroke="white" stroke-width="1.40766" stroke-linecap="round" stroke-linejoin="round"/>
<path vector-effect="non-scaling-stroke" d="M164.767 414.922C166.477 414.922 167.864 413.536 167.864 411.825C167.864 410.115 166.477 408.729 164.767 408.729C163.056 408.729 161.67 410.115 161.67 411.825C161.67 413.536 163.056 414.922 164.767 414.922Z" stroke="white" stroke-width="1.40766" stroke-linecap="round" stroke-linejoin="round"/>
<path vector-effect="non-scaling-stroke" d="M152.126 406.11C154.419 406.11 156.278 404.251 156.278 401.957C156.278 399.664 154.419 397.805 152.126 397.805C149.832 397.805 147.973 399.664 147.973 401.957C147.973 404.251 149.832 406.11 152.126 406.11Z" stroke="white" stroke-width="1.40766" stroke-linecap="round" stroke-linejoin="round"/>
<path vector-effect="non-scaling-stroke" d="M129.223 423.804C129.223 425.465 130.574 426.817 132.236 426.817C133.897 426.817 135.248 425.465 135.248 423.804C135.248 422.143 133.897 420.792 132.236 420.792C130.574 420.792 129.223 422.143 129.223 423.804Z" stroke="white" stroke-width="1.40766" stroke-linecap="round" stroke-linejoin="round"/>
<path vector-effect="non-scaling-stroke" d="M130.04 389.978C130.04 391.329 131.138 392.427 132.489 392.427C133.84 392.427 134.938 391.329 134.938 389.978C134.938 388.626 133.84 387.528 132.489 387.528C131.138 387.528 130.04 388.626 130.04 389.978Z" stroke="white" stroke-width="1.40766" stroke-linecap="round" stroke-linejoin="round"/>
<path vector-effect="non-scaling-stroke" d="M106.25 420.215C106.25 421.975 107.672 423.397 109.431 423.397C111.191 423.397 112.613 421.975 112.613 420.215C112.613 418.456 111.191 417.034 109.431 417.034C107.672 417.034 106.25 418.456 106.25 420.215Z" stroke="white" stroke-width="1.40766" stroke-linecap="round" stroke-linejoin="round"/>
<path vector-effect="non-scaling-stroke" d="M101.092 405.456C103.084 404.899 104.247 402.834 103.691 400.842C103.134 398.85 101.069 397.687 99.077 398.243C97.0853 398.8 95.9218 400.866 96.4783 402.857C97.0347 404.849 99.1004 406.012 101.092 405.456Z" stroke="white" stroke-width="1.40766" stroke-linecap="round" stroke-linejoin="round"/>
</g>
</g>
<defs>
<clipPath id="clip0_24_1730">
<rect width="802" height="535" fill="white"/>
</clipPath>
<clipPath id="clip1_24_1730">
<rect width="802" height="521.509" fill="white"/>
</clipPath>
</defs>
</svg>
