<svg width="802" height="535" viewBox="0 0 802 535" fill="none" xmlns="http://www.w3.org/2000/svg">
<g clip-path="url(#clip0_21_15596)">
<g clip-path="url(#clip1_21_15596)">
<path vector-effect="non-scaling-stroke" d="M448.072 216.507H427.263V319.196H448.072V216.507Z" stroke="white" stroke-width="1.40193" stroke-miterlimit="10"/>
<path vector-effect="non-scaling-stroke" d="M492.004 216.507H471.196V319.196H492.004V216.507Z" stroke="white" stroke-width="1.40193" stroke-miterlimit="10"/>
<path vector-effect="non-scaling-stroke" d="M535.924 216.507H515.115V319.196H535.924V216.507Z" stroke="white" stroke-width="1.40193" stroke-miterlimit="10"/>
<path vector-effect="non-scaling-stroke" d="M579.856 216.507H559.048V319.196H579.856V216.507Z" stroke="white" stroke-width="1.40193" stroke-miterlimit="10"/>
<path vector-effect="non-scaling-stroke" d="M623.789 216.507H602.981V319.196H623.789V216.507Z" stroke="white" stroke-width="1.40193" stroke-miterlimit="10"/>
<path vector-effect="non-scaling-stroke" d="M19.8567 155.089V498.679C19.8567 507.752 27.2754 515.171 36.3488 515.171H771.667C780.74 515.171 788.159 507.752 788.159 498.679V29.6195C788.159 20.5185 780.712 13.0723 771.611 13.0723H36.3488C27.2754 13.0723 19.8567 20.4909 19.8567 29.5644V37.2312" stroke="white" stroke-width="1.40193" stroke-linecap="round" stroke-linejoin="round"/>
<path vector-effect="non-scaling-stroke" d="M695.673 131.633C729.83 131.633 757.519 103.944 757.519 69.7877C757.519 35.6315 729.83 7.94238 695.673 7.94238C661.517 7.94238 633.828 35.6315 633.828 69.7877C633.828 103.944 661.517 131.633 695.673 131.633Z" fill="black" stroke="white" stroke-width="1.40193" stroke-linecap="round" stroke-linejoin="round"/>
<path vector-effect="non-scaling-stroke" d="M243.699 305.049H788.159V498.624C788.159 507.753 780.74 515.171 771.612 515.171H243.699V305.049Z" fill="black" stroke="white" stroke-width="1.40193" stroke-miterlimit="10"/>
<path vector-effect="non-scaling-stroke" d="M132.392 240.391H16.0094C7.54277 240.391 0.689453 247.244 0.689453 255.711V296.969C0.689453 305.435 7.54277 312.289 16.0094 312.289H147.215C155.682 312.289 162.535 305.435 162.535 296.969V216.521L132.392 240.405V240.391Z" fill="black" stroke="white" stroke-width="1.40193" stroke-linecap="round" stroke-linejoin="round"/>
<path vector-effect="non-scaling-stroke" d="M644.598 190.899H406.455V216.506H644.598V190.899Z" stroke="white" stroke-width="1.40193" stroke-miterlimit="10"/>
<path vector-effect="non-scaling-stroke" d="M427.263 189.742C427.263 135.467 471.251 91.4785 525.526 91.4785C579.801 91.4785 623.789 135.467 623.789 189.742" stroke="white" stroke-width="1.40193" stroke-miterlimit="10"/>
<path vector-effect="non-scaling-stroke" d="M525.526 91.4787V22.1182" stroke="white" stroke-width="1.40193" stroke-miterlimit="10"/>
<path vector-effect="non-scaling-stroke" d="M616.578 152.744H674.562C686.228 152.744 695.673 143.285 695.673 131.633" stroke="white" stroke-width="1.40193" stroke-miterlimit="10"/>
<path vector-effect="non-scaling-stroke" d="M384.489 78.2402V141.506C384.489 147.725 389.522 152.758 395.741 152.758H434.475" stroke="white" stroke-width="1.40193" stroke-miterlimit="10"/>
<path vector-effect="non-scaling-stroke" d="M330.159 78.2402V193.892C330.159 199.214 325.843 203.53 320.52 203.53H219.568C214.245 203.53 209.929 207.846 209.929 213.169V328.269C209.929 333.592 205.613 337.908 200.29 337.908H95.8636C90.5409 337.908 86.2249 342.224 86.2249 347.547V376.863" stroke="white" stroke-width="1.40193" stroke-miterlimit="10"/>
<path vector-effect="non-scaling-stroke" d="M268.617 292.569C287.77 292.569 303.297 277.042 303.297 257.888C303.297 238.735 287.77 223.208 268.617 223.208C249.463 223.208 233.937 238.735 233.937 257.888C233.937 277.042 249.463 292.569 268.617 292.569Z" stroke="white" stroke-width="1.40193" stroke-miterlimit="10"/>
<path vector-effect="non-scaling-stroke" d="M243.699 111.128H353.284V329.62" stroke="white" stroke-width="1.40193" stroke-miterlimit="10"/>
<path vector-effect="non-scaling-stroke" d="M787.676 464.55H345.465V477.36H787.676V464.55Z" fill="#E3E4DE"/>
<path vector-effect="non-scaling-stroke" d="M787.676 464.66H345.465V477.374H787.676V464.66Z" stroke="white" stroke-width="1.40193" stroke-miterlimit="10"/>
<path vector-effect="non-scaling-stroke" d="M37.6863 480.918V376.836H138.266V479.898C138.266 487.565 132.047 493.77 124.394 493.77H37.6863" stroke="white" stroke-width="1.40193" stroke-miterlimit="10"/>
<path vector-effect="non-scaling-stroke" d="M11.9692 456.648V480.918C11.9692 488.019 17.7194 493.769 24.8209 493.769C31.9225 493.769 37.6726 488.019 37.6726 480.918V456.648H11.9692Z" fill="black" stroke="white" stroke-width="1.40193" stroke-linecap="round" stroke-linejoin="round"/>
<path vector-effect="non-scaling-stroke" d="M24.8345 493.783H39.0099" stroke="white" stroke-width="1.40193" stroke-miterlimit="10"/>
<path vector-effect="non-scaling-stroke" d="M138.252 438.116H123.139V473.514L138.252 458.704L153.379 473.514V438.116H138.252Z" fill="#020202" stroke="white" stroke-width="1.40193" stroke-miterlimit="10"/>
<path vector-effect="non-scaling-stroke" d="M60.039 439.397H48.7317" stroke="white" stroke-width="1.40193" stroke-miterlimit="10"/>
<path vector-effect="non-scaling-stroke" d="M114.493 439.397H70.5466" stroke="white" stroke-width="1.40193" stroke-miterlimit="10"/>
<path vector-effect="non-scaling-stroke" d="M99.904 422.161H48.7317" stroke="white" stroke-width="1.40193" stroke-miterlimit="10"/>
<path vector-effect="non-scaling-stroke" d="M114.493 422.161H106.592" stroke="white" stroke-width="1.40193" stroke-miterlimit="10"/>
<path vector-effect="non-scaling-stroke" d="M55.8608 404.925H48.7317" stroke="white" stroke-width="1.40193" stroke-miterlimit="10"/>
<path vector-effect="non-scaling-stroke" d="M88.8037 404.925H63.707" stroke="white" stroke-width="1.40193" stroke-miterlimit="10"/>
<path vector-effect="non-scaling-stroke" d="M90.8997 473.044H114.493" stroke="white" stroke-width="1.40193" stroke-miterlimit="10"/>
<path vector-effect="non-scaling-stroke" d="M48.7317 473.044H84.2117" stroke="white" stroke-width="1.40193" stroke-miterlimit="10"/>
<path vector-effect="non-scaling-stroke" d="M79.7854 455.807H114.493" stroke="white" stroke-width="1.40193" stroke-miterlimit="10"/>
<path vector-effect="non-scaling-stroke" d="M48.7317 455.807H71.9254" stroke="white" stroke-width="1.40193" stroke-miterlimit="10"/>
<path vector-effect="non-scaling-stroke" d="M114.493 404.925H95.3123" stroke="white" stroke-width="1.40193" stroke-miterlimit="10"/>
<path vector-effect="non-scaling-stroke" d="M62.1212 387.688H48.7317" stroke="white" stroke-width="1.40193" stroke-miterlimit="10"/>
<path vector-effect="non-scaling-stroke" d="M106.592 387.688H73.8975" stroke="white" stroke-width="1.40193" stroke-miterlimit="10"/>
<path vector-effect="non-scaling-stroke" d="M369.969 78.2405H410.082C425.319 78.2405 437.661 65.8991 437.661 50.6618C437.661 35.4246 425.319 23.0831 410.082 23.0831C404.787 23.0831 399.602 24.6137 395.148 27.4819C389.66 12.7824 375.622 3.03332 359.944 3.01953C344.251 3.03332 330.214 12.7962 324.74 27.5095C320.286 24.6275 315.101 23.0831 309.792 23.0831C294.555 23.0831 282.213 35.4246 282.213 50.6618C282.213 65.8991 294.555 78.2405 309.792 78.2405H369.969Z" fill="#AF00FF" stroke="white" stroke-width="1.40193" stroke-miterlimit="10"/>
<path vector-effect="non-scaling-stroke" d="M653.086 373.415L620.692 387.581C617.203 389.107 615.612 393.172 617.137 396.661L640.116 449.206C641.642 452.695 645.707 454.286 649.195 452.761L681.589 438.595C685.078 437.069 686.67 433.004 685.144 429.515L662.166 376.97C660.64 373.481 656.575 371.89 653.086 373.415Z" fill="#AF00FF" stroke="white" stroke-width="1.40193" stroke-miterlimit="10"/>
<path vector-effect="non-scaling-stroke" d="M620.825 422.684L617.888 415.293C615.888 410.288 616.192 405.365 618.536 404.482L622.314 403.076L623.996 402.441L628.699 400.69C629.664 400.332 630.85 401.173 631.374 402.552L631.636 403.255C632.146 404.648 631.787 406.054 630.836 406.413L626.63 407.985C626.217 408.136 626.051 408.729 626.244 409.322C626.451 409.984 627.016 410.398 627.458 410.232L631.663 408.66C632.629 408.302 633.814 409.143 634.338 410.522L634.6 411.225C635.111 412.618 634.752 414.024 633.801 414.383C634.766 414.024 635.952 414.866 636.476 416.245L636.738 416.948C637.248 418.341 636.89 419.747 635.938 420.106C636.903 419.747 638.089 420.588 638.613 421.967L638.875 422.67C639.385 424.063 639.027 425.47 638.075 425.828L632.311 427.966L631.691 428.2L628.078 429.538C625.886 430.351 622.714 427.331 620.852 422.657L620.825 422.684Z" fill="#404040" stroke="white" stroke-width="1.40193" stroke-miterlimit="10"/>
<path vector-effect="non-scaling-stroke" d="M665.227 439.329C664.868 440.556 663.6 441.259 662.373 440.914C661.145 440.57 660.442 439.287 660.787 438.06C661.131 436.833 662.414 436.13 663.641 436.474C664.868 436.819 665.572 438.101 665.227 439.329Z" fill="#AF00FF" stroke="white" stroke-width="1.40193" stroke-miterlimit="10"/>
<path vector-effect="non-scaling-stroke" d="M721.005 473.457C716.537 469.679 700.514 466.783 691.123 466.59C656.857 465.901 622.438 466.673 588.42 470.727C580.077 471.72 570.894 471.927 561.379 476.657C553.064 480.793 544.846 496.044 547.493 515.17H587.662C611.159 515.17 621.763 515.281 630.064 517.708C652.43 524.244 663.379 535.579 686.462 534.2C704.678 533.11 724.88 516.067 726.741 495.865C727.486 487.729 727.334 478.835 720.991 473.457H721.005Z" fill="#020202" stroke="white" stroke-width="1.40193" stroke-miterlimit="10"/>
<path vector-effect="non-scaling-stroke" d="M693.482 383.192C687.138 389.687 681.885 397.23 677.872 405.379C671.818 417.693 668.606 431.427 668.785 445.148C668.854 449.905 668.344 457.31 670.44 461.668C672.866 466.714 680.947 473.03 695.922 474.905C700.459 475.471 718.702 479.401 724.673 473.623C727.762 470.631 729.099 466.287 730.037 462.081C734.036 444.141 732.754 425.14 726.81 407.765C723.984 399.519 720.826 390.487 714.662 384.075C707.285 376.408 701.038 375.553 693.771 382.916C693.675 383.013 693.578 383.11 693.495 383.206L693.482 383.192Z" fill="#020202" stroke="white" stroke-width="1.40193" stroke-miterlimit="10"/>
<path vector-effect="non-scaling-stroke" d="M640.737 453.132C629.623 453.201 618.757 451.256 608.497 446.996C606.732 446.265 604.94 445.493 603.078 444.748C600.651 443.769 597.935 442.79 595.508 443.755C593.384 444.61 592.088 446.747 590.999 448.774C589.027 452.387 577.361 470.631 580.339 473.719C583.828 477.332 586.214 474.009 587.744 471.03C587.496 472.175 587.73 473.444 588.544 474.298C589.813 475.608 592.129 475.705 593.494 474.492C594.446 473.65 594.832 472.409 595.039 471.113C595.094 472.244 595.577 473.375 596.445 474.105C599.879 476.987 606.98 475.098 604.829 463.157C605.022 464.218 607.477 470.355 619.281 470.424C626.548 470.465 633.952 470.272 641.206 470.175C641.164 468.548 640.847 453.118 640.737 453.118V453.132Z" fill="#404040" stroke="white" stroke-width="1.40193" stroke-miterlimit="10"/>
<path vector-effect="non-scaling-stroke" d="M721.198 388.253C722.342 390.212 723.335 392.252 724.149 394.293C732.533 415.17 733.415 447.093 709.573 467.846C697.701 478.174 685.828 477.098 670.66 477.305C654.388 477.526 642.957 477.305 625.375 476.202C624.576 465.764 626.175 454.098 625.375 443.659C641.137 443.604 653.368 444.583 669.129 444.542C672.866 444.542 677.982 443.783 681.222 441.908C694.846 433.993 691.454 416.687 688.903 406.538C687.166 399.657 683.511 393.011 686.545 386.599C689.579 380.187 696.142 375.195 703.23 375.333C711.021 375.485 717.144 381.304 721.225 388.267L721.198 388.253Z" fill="#020202" stroke="white" stroke-width="1.40193" stroke-miterlimit="10"/>
<path vector-effect="non-scaling-stroke" d="M688.158 366.176C702.816 368.672 714.854 348.622 703.423 338.005C694.377 329.607 678.051 331.524 674.493 344.362C671.914 353.683 678.63 364.549 688.158 366.176Z" fill="#404040" stroke="white" stroke-width="1.40193" stroke-miterlimit="10"/>
<path vector-effect="non-scaling-stroke" d="M691.482 346.168C689.62 351.091 690.737 357.145 693.054 362.095C695.936 368.273 700.403 373.664 702.734 380.076C705.45 387.564 705.009 395.769 705.836 403.684C707.394 418.48 713.655 432.738 723.473 443.893C725.624 446.334 728.051 448.706 731.098 449.85C734.146 450.995 737.979 450.609 740.144 448.182C744.791 442.942 738.517 434.434 740.834 427.815C742.419 423.292 747.715 420.727 748.9 416.08C750.528 409.654 743.619 404.497 741.247 398.306C738.627 391.439 741.785 383.386 739.138 376.532C736.697 370.217 729.981 366.563 726.575 360.716C723.5 355.435 723.432 349.009 722.259 343.024C719.626 329.566 701.796 319.293 688.462 322.216C678.285 324.45 663.861 340.004 679.278 346.472C684.132 348.512 690.254 346.899 693.481 342.735C692.612 343.783 691.964 344.941 691.509 346.182L691.482 346.168Z" fill="#A0A09E" stroke="white" stroke-width="1.40193" stroke-miterlimit="10"/>
<path vector-effect="non-scaling-stroke" d="M462.813 464.563V456.951H513.82V464.563H462.813Z" fill="#AF00FF" stroke="white" stroke-width="1.40193" stroke-miterlimit="10"/>
<path vector-effect="non-scaling-stroke" d="M514.15 464.563L531.263 413.087L524.258 410.798L507.201 464.549H514.164L514.15 464.563Z" fill="#AF00FF" stroke="white" stroke-width="1.40193" stroke-linejoin="round"/>
<path vector-effect="non-scaling-stroke" d="M321.568 404.083L337.826 429.193L337.316 429.524L321.058 404.414L321.582 404.083H321.568Z" fill="#020202" stroke="white" stroke-width="1.40193" stroke-linejoin="round"/>
<path vector-effect="non-scaling-stroke" d="M446.734 464.246C457.504 464.246 474.92 455.242 470.383 450.802C467.542 448.016 455.78 459.42 455.78 459.42L446.72 464.246H446.734Z" fill="#404040" stroke="white" stroke-width="1.40193" stroke-miterlimit="10"/>
<path vector-effect="non-scaling-stroke" d="M455.615 459.171C456.98 457.847 467.667 447.684 470.618 450.58C471.472 451.407 471.666 452.455 471.197 453.614C469.239 458.426 455.518 464.562 446.748 464.562H445.507L455.615 459.171ZM469.156 450.649C466.012 450.649 458.841 456.896 456.015 459.64L448.058 463.887C456.649 463.349 468.825 457.778 470.631 453.366C471.004 452.442 470.866 451.669 470.19 451.008C469.942 450.759 469.583 450.649 469.156 450.649Z" fill="#404040" stroke="white" stroke-width="1.40193" stroke-miterlimit="10"/>
<path vector-effect="non-scaling-stroke" d="M483.883 425.043C483.648 425.043 483.414 425.139 483.235 425.305C480.546 427.87 473.693 433.978 467.515 436.461L472.631 441.397C482.297 434.944 484.834 430.724 485.234 428.311C485.427 427.18 485.207 426.201 484.6 425.388C484.448 425.195 484.228 425.071 483.966 425.057H483.897L483.883 425.043Z" fill="#404040" stroke="white" stroke-width="1.40193" stroke-miterlimit="10"/>
<path vector-effect="non-scaling-stroke" d="M472.644 437.798L483.317 447.381C484.021 448.057 483.938 449.202 483.152 449.781C481.8 450.774 479.456 451.615 476.299 449.422C471.128 445.823 472.065 438.722 472.065 438.722L472.658 437.812L472.644 437.798Z" fill="#404040" stroke="white" stroke-width="1.40193" stroke-miterlimit="10"/>
<path vector-effect="non-scaling-stroke" d="M446.734 439.852C454.263 439.852 459.917 439.08 466.37 436.267C469.418 434.943 472.976 436.405 474.272 439.48L479.346 451.546C479.774 452.58 479.084 453.738 477.981 453.821C475.954 453.987 472.589 452.373 469.004 442.762L465.322 445.175C465.322 445.175 464.536 464.246 446.734 464.246V439.852Z" fill="#404040" stroke="white" stroke-width="1.40193" stroke-miterlimit="10"/>
<path vector-effect="non-scaling-stroke" d="M420.162 439.866H435.537V464.26H420.162V439.866Z" fill="#020202" stroke="white" stroke-width="1.40193" stroke-miterlimit="10"/>
<path vector-effect="non-scaling-stroke" d="M420.162 439.562H419.845V464.576H435.827V439.562H420.148H420.162ZM435.22 440.183V445.671H420.466V440.183H435.22ZM420.466 451.766V446.278H435.22V451.766H420.466ZM435.22 452.387V457.875H420.466V452.387H435.22ZM420.466 463.956V458.482H435.22V463.956H420.466Z" fill="#020202" stroke="white" stroke-width="1.40193" stroke-linejoin="round"/>
<path vector-effect="non-scaling-stroke" d="M435.22 439.549H447.051V464.563H435.22V439.549ZM446.431 440.169H435.841V463.942H446.431V440.169Z" fill="#020202" stroke="white" stroke-width="1.40193" stroke-linejoin="round"/>
<path vector-effect="non-scaling-stroke" d="M446.734 439.853H435.523V447.892C435.523 450.981 438.033 453.504 441.122 453.504C444.211 453.504 446.734 450.994 446.734 447.892V439.853Z" fill="white" stroke="white" stroke-width="1.40193" stroke-linejoin="round"/>
<path vector-effect="non-scaling-stroke" d="M441.122 453.807C437.868 453.807 435.22 451.159 435.22 447.891V439.549H447.051V447.891C447.051 451.146 444.404 453.807 441.136 453.807H441.122Z" fill="#020202" stroke="white" stroke-width="1.40193" stroke-linejoin="round"/>
<path vector-effect="non-scaling-stroke" d="M439.881 449.423C439.881 448.733 440.446 448.168 441.136 448.168C441.825 448.168 442.391 448.733 442.391 449.423C442.391 450.112 441.825 450.678 441.136 450.678C440.446 450.678 439.881 450.112 439.881 449.423Z" stroke="white" stroke-width="1.40193" stroke-miterlimit="10"/>
<path vector-effect="non-scaling-stroke" d="M415.515 479.952H282.599V503.311C282.599 520.369 296.416 534.2 313.46 534.2H458.924C463.847 507.103 443.039 479.952 415.515 479.952Z" fill="#020202" stroke="white" stroke-width="1.40193" stroke-miterlimit="10"/>
<path vector-effect="non-scaling-stroke" d="M282.586 464.245H341.549V479.965H282.586V464.245Z" fill="#020202" stroke="white" stroke-width="1.40193" stroke-miterlimit="10"/>
<path vector-effect="non-scaling-stroke" d="M282.282 463.942H341.866V480.269H282.282V463.942Z" fill="#020202" stroke="white" stroke-width="1.40193" stroke-linejoin="round"/>
<path vector-effect="non-scaling-stroke" d="M301.325 396.775C310.151 378.545 330.504 359.447 334.93 350.346C342.431 334.957 339.218 321.499 347.63 317.803C355.904 314.177 362.771 319.348 367.735 322.767C372.713 326.173 381.386 335.164 377.36 346.32C377.236 346.651 377.125 346.981 377.015 347.312C377.525 349.339 378.132 352.152 378.449 354.814C378.642 356.469 376.767 357.544 375.429 356.551L374.919 356.179C373.609 363.542 372.933 369.748 367.749 371.72C360.33 374.533 351.036 361.515 351.036 361.515L345.465 374.229C345.465 374.229 349.188 377.332 358.482 392.197C367.776 407.076 382.958 431.869 382.958 431.869H415.101C420.783 431.869 425.388 436.488 425.388 442.17V464.301H379.015C367.9 464.301 357.503 458.799 351.257 449.588L337.55 429.387C337.55 429.387 351.326 454.883 338.17 464.288H282.889C282.889 439.605 292.486 415.004 301.312 396.775H301.325Z" fill="#404040" stroke="white" stroke-width="1.40193" stroke-miterlimit="10"/>
<path vector-effect="non-scaling-stroke" d="M374.009 360.881C368.659 359.378 368.852 354.772 368.866 354.579L368.259 354.552C368.259 354.552 368.024 359.833 373.857 361.474" stroke="white" stroke-width="1.40193" stroke-miterlimit="10"/>
<path vector-effect="non-scaling-stroke" d="M336.075 344.554C337.688 340.017 338.557 335.756 339.315 331.992C340.694 325.097 341.797 319.65 346.83 317.485C355.063 313.942 361.957 318.602 366.99 321.995L367.707 322.477C369.362 323.58 374.947 327.703 377.512 334.226L377.636 334.557L377.277 334.626C377.277 334.626 371.017 335.88 363.515 332.75C362.316 334.502 353.987 345.947 342.28 345.947C340.349 345.947 338.336 345.63 336.24 344.913L335.937 344.816L336.047 344.526V344.554H336.075Z" fill="#404040" stroke="white" stroke-width="1.40193" stroke-miterlimit="10"/>
<path vector-effect="non-scaling-stroke" d="M345.438 374.202C340.17 369.058 331.593 363.391 326.325 362.219L331.745 355.352C331.745 355.352 343.08 360.219 348.83 366.507C350.871 368.741 351.367 370.713 351.133 372.312C350.746 375.043 347.409 376.105 345.438 374.188V374.202Z" fill="#020202" stroke="white" stroke-width="1.40193"/>
<path vector-effect="non-scaling-stroke" d="M360.854 339.934C360.854 339.934 356.91 333.412 352.953 335.343C347.934 337.797 350.926 344.071 352.953 345.188" fill="#404040"/>
<path vector-effect="non-scaling-stroke" d="M360.854 339.934C360.854 339.934 356.91 333.412 352.953 335.343C347.934 337.797 350.926 344.071 352.953 345.188" stroke="white" stroke-width="1.40193" stroke-miterlimit="10"/>
<path vector-effect="non-scaling-stroke" d="M290.666 464.659V479.965" stroke="white" stroke-width="1.40193" stroke-miterlimit="10"/>
<path vector-effect="non-scaling-stroke" d="M304.373 464.659V480.269" stroke="white" stroke-width="1.40193" stroke-miterlimit="10"/>
<path vector-effect="non-scaling-stroke" d="M318.08 464.659V480.269" stroke="white" stroke-width="1.40193" stroke-miterlimit="10"/>
<path vector-effect="non-scaling-stroke" d="M331.786 464.659V480.269" stroke="white" stroke-width="1.40193" stroke-miterlimit="10"/>
<path vector-effect="non-scaling-stroke" d="M575.72 320.616H424.161V400.622H575.72V320.616Z" stroke="white" stroke-width="1.40193" stroke-miterlimit="10"/>
<path vector-effect="non-scaling-stroke" d="M563.461 330.834H436.392V390.418H563.461V330.834Z" fill="#404040" stroke="white" stroke-width="1.40193" stroke-miterlimit="10"/>
<path vector-effect="non-scaling-stroke" d="M69.4985 22.1871C86.4594 8.72865 107.929 0.689453 131.261 0.689453C186.198 0.689453 230.724 45.2153 230.724 100.152C230.724 155.089 186.198 199.615 131.261 199.615C103.158 199.615 77.7721 187.963 59.6804 169.209" fill="black"/>
<path vector-effect="non-scaling-stroke" d="M69.4985 22.1871C86.4594 8.72865 107.929 0.689453 131.261 0.689453C186.198 0.689453 230.724 45.2153 230.724 100.152C230.724 155.089 186.198 199.615 131.261 199.615C103.158 199.615 77.7721 187.963 59.6804 169.209" stroke="white" stroke-width="1.40193" stroke-linecap="round" stroke-linejoin="round"/>
<path vector-effect="non-scaling-stroke" d="M78.666 96.5743L78.6767 96.5655C79.8471 95.6027 80.0154 93.8735 79.0527 92.703L70.3891 82.1708C69.4263 81.0004 67.697 80.832 66.5266 81.7948L66.5159 81.8035C65.3455 82.7663 65.1772 84.4956 66.14 85.666L74.8036 96.1983C75.7663 97.3687 77.4956 97.537 78.666 96.5743Z" fill="#AF00FF" stroke="white" stroke-width="1.40193" stroke-miterlimit="10"/>
<path vector-effect="non-scaling-stroke" d="M82.2121 96.5674C82.2121 96.5674 82.3224 89.5624 78.2959 87.0114C78.2959 87.0114 75.2899 86.4184 77.4824 94.1956C77.4824 94.1956 68.9192 91.6446 66.9749 87.687C66.9749 87.687 63.4034 92.1272 66.9059 96.1123C66.9059 96.1123 68.7951 98.4841 77.2204 103.31" fill="#020202"/>
<path vector-effect="non-scaling-stroke" d="M82.2121 96.5674C82.2121 96.5674 82.3224 89.5624 78.2959 87.0114C78.2959 87.0114 75.2899 86.4184 77.4824 94.1956C77.4824 94.1956 68.9192 91.6446 66.9749 87.687C66.9749 87.687 63.4034 92.1272 66.9059 96.1123C66.9059 96.1123 68.7951 98.4841 77.2204 103.31" stroke="white" stroke-width="1.40193" stroke-miterlimit="10"/>
<path vector-effect="non-scaling-stroke" d="M70.574 94.8567C70.574 94.8567 65.996 92.5538 65.6375 90.3613Z" fill="white"/>
<path vector-effect="non-scaling-stroke" d="M70.574 94.8567C70.574 94.8567 65.996 92.5538 65.6375 90.3613" stroke="white" stroke-width="1.40193" stroke-miterlimit="10"/>
<path vector-effect="non-scaling-stroke" d="M96.1669 56.6193C96.1669 56.6193 83.2601 45.6154 82.0604 46.8151C79.9368 48.9386 86.473 53.4477 86.473 53.4477C86.473 53.4477 81.9639 58.9359 83.398 60.2183C84.8321 61.5007 90.6374 64.1759 90.6374 64.1759L96.1669 56.6193Z" fill="#020202" stroke="white" stroke-width="1.40193" stroke-miterlimit="10"/>
<path vector-effect="non-scaling-stroke" d="M122.353 70.8224L96.7045 54.6475L89.4099 65.9961L113.376 83.2742L122.353 70.8224Z" fill="#404040" stroke="white" stroke-width="1.40193" stroke-miterlimit="10"/>
<path vector-effect="non-scaling-stroke" d="M157.364 196.155L155.116 140.542H126.559L132.805 199.629" fill="#020202"/>
<path vector-effect="non-scaling-stroke" d="M157.364 196.155L155.116 140.542H126.559L132.805 199.629" stroke="white" stroke-width="1.40193" stroke-miterlimit="10"/>
<path vector-effect="non-scaling-stroke" d="M129.096 199.616L138.762 140.542H111.239L104.523 195.975" fill="#020202"/>
<path vector-effect="non-scaling-stroke" d="M129.096 199.616L138.762 140.542H111.239L104.523 195.975" stroke="white" stroke-width="1.40193" stroke-miterlimit="10"/>
<path vector-effect="non-scaling-stroke" d="M136.128 67.32L135.274 61.0597L126.903 61.9146V62.4524V37.7832H124.09V85.8116H126.903V67.2235L136.128 67.32Z" fill="#020202" stroke="white" stroke-width="1.40193" stroke-miterlimit="10"/>
<path vector-effect="non-scaling-stroke" d="M109.846 92.5273C109.901 97.3673 109.97 102.607 110.067 107.861C110.287 120.933 110.591 133.964 110.742 140.39C110.742 140.831 110.77 141.231 110.77 141.604C110.77 141.99 110.784 142.348 110.797 142.665C110.825 143.851 110.839 144.513 110.839 144.513C110.839 144.513 125.042 150.098 142.472 147.257C153.724 145.423 155.13 141.99 155.13 141.99C155.13 141.99 155.13 141.755 155.158 141.3C155.158 141.08 155.172 140.79 155.185 140.459C155.351 134.93 155.861 115.376 155.241 99.1324C154.91 90.4589 154.248 82.723 153.034 78.5862C151.255 72.4637 147.146 69.9541 143.023 68.713C140.238 67.8719 137.452 67.5961 135.398 67.1824C135.342 67.1824 135.287 67.1548 135.246 67.1548C129.992 66.1344 124.794 67.1824 120.505 69.7472C118.988 70.6573 117.596 71.7467 116.355 73.0015C113.721 75.6491 111.776 79.0413 110.853 82.9161C110.204 85.6602 109.832 88.8455 109.86 92.541L109.846 92.5273Z" fill="#404040" stroke="white" stroke-width="1.40193" stroke-miterlimit="10"/>
<path vector-effect="non-scaling-stroke" d="M118.202 43.6568C118.202 43.6568 114.686 70.877 132.198 63.0998C137.342 61.1693 139.438 53.792 139.438 53.792L138.169 49.6552C138.169 49.6552 140.155 35.5762 130.778 35.7417C118.492 35.9485 118.216 43.6706 118.216 43.6706L118.202 43.6568Z" fill="#020202" stroke="white" stroke-width="1.40193" stroke-miterlimit="10"/>
<path vector-effect="non-scaling-stroke" d="M120.491 45.2706L123.525 50.5795C123.525 50.5795 125.511 48.4422 126.503 49.3799C127.496 50.3175 126.6 55.2541 124.173 54.4544C124.173 54.4544 123.994 59.322 125.552 60.4527C127.11 61.5835 133.839 62.1212 137.163 60.37C141.975 57.819 144.292 49.7384 141.244 42.6231C137.025 32.7913 120.753 29.7438 116.989 35.0251C112.3 41.6027 120.491 45.2844 120.491 45.2844V45.2706Z" fill="#020202" stroke="white" stroke-width="1.40193" stroke-miterlimit="10"/>
<path vector-effect="non-scaling-stroke" d="M139.01 67.8022L138.666 65.0029C138.666 65.0029 126.972 65.9544 123.525 65.651L124.09 68.0228C125.745 68.533 129.592 68.5882 132.46 68.6295C135.149 68.6571 137.397 68.2296 139.01 67.8022Z" fill="#020202" stroke="white" stroke-width="1.40193" stroke-miterlimit="10"/>
<path vector-effect="non-scaling-stroke" d="M113.611 76.0074C109.846 83.1227 108.715 84.5154 97.3391 102.524L83.7841 93.7543L75.1658 105.158C75.1658 105.158 88.0726 119.623 98.3871 119.623C102.414 119.623 106.33 116.452 109.736 112.26C113.762 107.309 125.483 96.4295 131.247 90.8999C137.894 84.5292 125.249 66.7547 113.597 76.0074H113.611Z" fill="#404040" stroke="white" stroke-width="1.40193" stroke-miterlimit="10"/>
<path vector-effect="non-scaling-stroke" d="M110.715 141.603V142.651C110.715 142.651 110.701 144.705 110.715 144.719C111.197 144.884 120.409 148.539 137.852 148.056C146.015 147.835 151.655 146.443 155.103 144.278C155.13 146.112 155.116 140.789 155.13 140.458L155.061 140.527C154.027 140.748 140.789 147.973 110.728 141.589L110.715 141.603Z" fill="#020202" stroke="white" stroke-width="1.40193" stroke-miterlimit="10"/>
<path vector-effect="non-scaling-stroke" d="M57.5292 45.6568C56.495 48.4699 53.3786 49.904 50.5655 48.8698C47.7525 47.8355 46.3184 44.7192 47.3526 41.9061C48.3868 39.0931 51.5032 37.659 54.3163 38.6932C57.1293 39.7274 58.5634 42.8438 57.5292 45.6568Z" stroke="white" stroke-width="1.40193" stroke-linecap="round" stroke-linejoin="round"/>
<path vector-effect="non-scaling-stroke" d="M74.6006 38.0999C74.6006 41.0922 72.1737 43.5191 69.1814 43.5191C66.1891 43.5191 63.7622 41.0922 63.7622 38.0999C63.7622 35.1076 66.1891 32.6807 69.1814 32.6807C72.1737 32.6807 74.6006 35.1076 74.6006 38.0999Z" stroke="white" stroke-width="1.40193" stroke-linecap="round" stroke-linejoin="round"/>
<path vector-effect="non-scaling-stroke" d="M92.8714 35.2034C92.8714 38.1957 90.4445 40.6226 87.4522 40.6226C84.4599 40.6226 82.033 38.1957 82.033 35.2034C82.033 32.2111 84.4599 29.7842 87.4522 29.7842C90.4445 29.7842 92.8714 32.2111 92.8714 35.2034Z" stroke="white" stroke-width="1.40193" stroke-linecap="round" stroke-linejoin="round"/>
<path vector-effect="non-scaling-stroke" d="M44.4158 96.8286C48.2492 95.2014 52.3584 93.6984 56.7159 92.3057" stroke="white" stroke-width="1.40193" stroke-linejoin="round"/>
<path vector-effect="non-scaling-stroke" d="M17.9402 114.341C21.9805 109.639 27.7582 105.268 34.9701 101.352" stroke="white" stroke-width="1.40193" stroke-linejoin="round"/>
<path vector-effect="non-scaling-stroke" d="M72.7944 21.7726C81.9092 19.7318 91.741 18.1736 102.111 17.167V53.24" stroke="white" stroke-width="1.40193" stroke-linejoin="round"/>
<path vector-effect="non-scaling-stroke" d="M11.3213 64.0929V130.296C11.3213 156.937 64.2449 178.531 129.538 178.531C156.151 178.531 180.71 174.932 191.838 171.967V105.764C180.71 108.729 156.137 112.328 129.538 112.328C95.6571 112.328 65.0998 106.509 43.547 97.2012C23.5662 88.569 11.3213 76.917 11.3213 64.1067C11.3213 52.3444 22.0494 31.3569 72.7943 21.7871" stroke="white" stroke-width="1.40193" stroke-linejoin="round"/>
<path vector-effect="non-scaling-stroke" d="M254.262 247.671L268.7 257.889L282.972 233.771" stroke="white" stroke-width="1.40193"/>
<path vector-effect="non-scaling-stroke" d="M19.8567 257.889H63.569" stroke="white" stroke-width="1.40193"/>
<path vector-effect="non-scaling-stroke" d="M19.8567 270.851H104.937" stroke="white" stroke-width="1.40193"/>
<path vector-effect="non-scaling-stroke" d="M19.8567 283.826H49.7796" stroke="white" stroke-width="1.40193"/>
<path vector-effect="non-scaling-stroke" d="M19.8567 296.802H63.569" stroke="white" stroke-width="1.40193"/>
<path vector-effect="non-scaling-stroke" d="M77.9375 257.889H138.252" stroke="white" stroke-width="1.40193"/>
<path vector-effect="non-scaling-stroke" d="M119.305 270.851H138.252" stroke="white" stroke-width="1.40193"/>
<path vector-effect="non-scaling-stroke" d="M64.1482 283.826H138.252" stroke="white" stroke-width="1.40193"/>
<path vector-effect="non-scaling-stroke" d="M77.9375 296.802H138.252" stroke="white" stroke-width="1.40193"/>
<path vector-effect="non-scaling-stroke" d="M704.113 310.482H587.73C579.264 310.482 572.41 303.628 572.41 295.162V253.904C572.41 245.437 579.264 238.584 587.73 238.584H718.936C727.403 238.584 734.256 245.437 734.256 253.904V334.351L704.113 310.468V310.482Z" fill="#020202" stroke="white" stroke-width="1.40193"/>
<path vector-effect="non-scaling-stroke" d="M710.139 256.8H666.44" stroke="white" stroke-width="1.40193"/>
<path vector-effect="non-scaling-stroke" d="M710.139 269.762H625.072" stroke="white" stroke-width="1.40193"/>
<path vector-effect="non-scaling-stroke" d="M710.139 282.737H680.229" stroke="white" stroke-width="1.40193"/>
<path vector-effect="non-scaling-stroke" d="M710.139 295.713H666.44" stroke="white" stroke-width="1.40193"/>
<path vector-effect="non-scaling-stroke" d="M652.058 256.8H591.743" stroke="white" stroke-width="1.40193"/>
<path vector-effect="non-scaling-stroke" d="M610.69 269.762H591.743" stroke="white" stroke-width="1.40193"/>
<path vector-effect="non-scaling-stroke" d="M665.847 282.737H591.743" stroke="white" stroke-width="1.40193"/>
<path vector-effect="non-scaling-stroke" d="M652.058 295.713H591.743" stroke="white" stroke-width="1.40193"/>
<path vector-effect="non-scaling-stroke" d="M138.252 445.673C151.663 445.673 162.535 434.801 162.535 421.39C162.535 407.978 151.663 397.106 138.252 397.106C124.841 397.106 113.969 407.978 113.969 421.39C113.969 434.801 124.841 445.673 138.252 445.673Z" fill="#020202" stroke="white" stroke-width="1.40193" stroke-miterlimit="10"/>
<path vector-effect="non-scaling-stroke" d="M138.252 436.517C146.607 436.517 153.379 429.744 153.379 421.39C153.379 413.035 146.607 406.263 138.252 406.263C129.898 406.263 123.125 413.035 123.125 421.39C123.125 429.744 129.898 436.517 138.252 436.517Z" fill="#020202" stroke="white" stroke-width="1.40193" stroke-miterlimit="10"/>
<path vector-effect="non-scaling-stroke" d="M696.501 107.585C706.526 104.206 713.903 98.1527 719.115 89.9066C721.115 86.7351 722.149 83.0533 722.149 79.3026V39.9064C722.149 38.5137 721.018 37.3691 719.612 37.3691H695.673H671.735C670.342 37.3691 669.198 38.4999 669.198 39.9064V79.3026C669.198 83.0533 670.218 86.7351 672.231 89.9066C677.444 98.1527 684.821 104.206 694.846 107.585C695.384 107.764 695.963 107.764 696.501 107.585Z" fill="#AF00FF" stroke="white" stroke-width="1.40193" stroke-miterlimit="10"/>
<path vector-effect="non-scaling-stroke" d="M702.885 61.0175C702.885 57.0324 699.659 53.8057 695.674 53.8057C691.688 53.8057 688.462 57.0324 688.462 61.0175C688.462 63.8719 690.13 66.3402 692.543 67.4985L689.358 88.6928H701.989L698.804 67.4985C701.217 66.3264 702.885 63.8719 702.885 61.0175Z" fill="#020202" stroke="white" stroke-width="1.40193"/>
<path vector-effect="non-scaling-stroke" d="M420.465 204.207H631.663" stroke="white" stroke-width="1.40193"/>
<path vector-effect="non-scaling-stroke" d="M735.566 196.084H762.731C765.048 196.084 766.937 197.973 766.937 200.29V227.455C766.937 229.771 765.048 231.661 762.731 231.661H735.566C733.249 231.661 731.36 229.771 731.36 227.455V200.29C731.36 197.973 733.249 196.084 735.566 196.084Z" fill="black" stroke="white" stroke-width="1.40193" stroke-miterlimit="10"/>
<path vector-effect="non-scaling-stroke" d="M739.965 204.702L758.318 223.042" stroke="white" stroke-width="1.40193" stroke-miterlimit="10"/>
<path vector-effect="non-scaling-stroke" d="M758.318 204.702L739.965 223.042" stroke="white" stroke-width="1.40193" stroke-miterlimit="10"/>
<path vector-effect="non-scaling-stroke" d="M735.566 150.139H762.731C765.048 150.139 766.937 152.028 766.937 154.344V181.509C766.937 183.826 765.048 185.715 762.731 185.715H735.566C733.249 185.715 731.36 183.826 731.36 181.509V154.344C731.36 152.028 733.249 150.139 735.566 150.139Z" fill="black" stroke="white" stroke-width="1.40193" stroke-miterlimit="10"/>
<path vector-effect="non-scaling-stroke" d="M738.434 167.251L746.294 175.111" stroke="white" stroke-width="1.40193" stroke-miterlimit="10"/>
<path vector-effect="non-scaling-stroke" d="M760.662 160.742L746.294 175.111" stroke="white" stroke-width="1.40193" stroke-miterlimit="10"/>
</g>
</g>
<defs>
<clipPath id="clip0_21_15596">
<rect width="802" height="535" fill="white"/>
</clipPath>
<clipPath id="clip1_21_15596">
<rect width="788.848" height="535" fill="white"/>
</clipPath>
</defs>
</svg>
