<svg width="595" height="397" viewBox="0 0 595 397" fill="none" xmlns="http://www.w3.org/2000/svg">
<g clip-path="url(#clip0_394_4410)">
<path vector-effect="non-scaling-stroke" d="M595 0H0V396.67H595V0Z" fill="black"/>
<path vector-effect="non-scaling-stroke" d="M393.91 366.33H505.3C532.53 366.33 554.59 344.26 554.59 317.03V296.89C554.59 289.81 538.95 289.81 538.95 282.72C538.95 275.64 554.58 275.64 554.58 268.55C554.58 261.47 538.95 261.47 538.95 254.39C538.95 247.31 554.58 247.31 554.58 240.23C554.58 233.15 538.95 233.15 538.95 226.07L538.43 57.2198C538.38 41.2298 524.79 28.2998 508.04 28.2998H56.6804C47.6904 28.2998 40.4004 35.2598 40.4004 43.8398V341.4C40.4004 355.17 52.0904 366.32 66.5104 366.32H204.48" stroke="white" stroke-miterlimit="10"/>
<path vector-effect="non-scaling-stroke" d="M299.131 385.41C308.621 385.41 308.621 366.32 318.101 366.32C327.591 366.32 327.591 385.41 337.081 385.41C346.571 385.41 346.571 366.32 356.051 366.32C365.541 366.32 365.541 385.41 375.041 385.41C384.531 385.41 384.531 366.32 394.031 366.32" stroke="white" stroke-linecap="round" stroke-linejoin="round"/>
<path vector-effect="non-scaling-stroke" d="M299.421 385.41C289.931 385.41 289.931 366.32 280.451 366.32C270.961 366.32 270.961 385.41 261.471 385.41C251.981 385.41 251.981 366.32 242.501 366.32C233.011 366.32 233.01 385.41 223.51 385.41C214.02 385.41 214.021 366.32 204.521 366.32" stroke="white" stroke-linecap="round" stroke-linejoin="round"/>
<path vector-effect="non-scaling-stroke" d="M393.91 366.33H505.26C532.51 366.33 554.6 344.24 554.59 316.99V296.9C554.59 289.82 538.95 289.82 538.95 282.73C538.95 275.65 554.58 275.65 554.58 268.56C554.58 261.48 538.95 261.48 538.95 254.4C538.95 247.32 554.58 247.32 554.58 240.24C554.58 233.16 538.95 233.16 538.95 226.08L538.43 57.2696C538.38 41.2596 524.77 28.3096 507.99 28.3096H56.7304C47.7104 28.3096 40.4004 35.2896 40.4004 43.8996V341.37C40.4004 355.16 52.1104 366.34 66.5604 366.34H204.48" stroke="white" stroke-linecap="round" stroke-linejoin="round"/>
<path vector-effect="non-scaling-stroke" d="M325.001 32.2402H344.161C350.121 32.2402 354.961 37.0802 354.961 43.0402V105.93C354.961 111.89 350.121 116.73 344.161 116.73H325.001V32.2402Z" fill="black"/>
<path vector-effect="non-scaling-stroke" d="M511.79 110.66H479.41V137.43H511.79V110.66Z" fill="#414040"/>
<path vector-effect="non-scaling-stroke" d="M499.281 81.4297H440.091V137.43H499.281V81.4297Z" fill="#414040"/>
<path vector-effect="non-scaling-stroke" d="M469.65 112.3C485.981 112.3 499.22 99.0612 499.22 82.7302C499.22 66.3991 485.981 53.1602 469.65 53.1602C453.319 53.1602 440.08 66.3991 440.08 82.7302C440.08 99.0612 453.319 112.3 469.65 112.3Z" fill="#414040"/>
<path vector-effect="non-scaling-stroke" d="M427.21 142.99H405.65V159.7H427.21V142.99Z" fill="#414040"/>
<path vector-effect="non-scaling-stroke" d="M413.121 97.6797H372.311V159.7H413.121V97.6797Z" fill="#414040"/>
<path vector-effect="non-scaling-stroke" d="M392.711 115.39C403.977 115.39 413.111 106.256 413.111 94.9898C413.111 83.7232 403.977 74.5898 392.711 74.5898C381.444 74.5898 372.311 83.7232 372.311 94.9898C372.311 106.256 381.444 115.39 392.711 115.39Z" fill="#414040"/>
<path vector-effect="non-scaling-stroke" d="M325.001 32.2402H241.271V116.94H325.001V32.2402Z" fill="#202020"/>
<path vector-effect="non-scaling-stroke" d="M325.001 177.76H264.971C251.881 177.76 241.271 167.15 241.271 154.06V116.73H325.001V154.28C325.001 167.25 335.511 177.76 348.481 177.75H349.33L325.001 177.76Z" fill="#414040"/>
<path vector-effect="non-scaling-stroke" d="M325.001 32.24H241.271V18.28C241.271 11.8 246.53 6.54004 253.01 6.54004H336.811C330.711 6.54004 325.001 12 325.001 17.59V32.23V32.24Z" fill="#414040"/>
<path vector-effect="non-scaling-stroke" d="M426.6 159.69C434.045 159.69 440.08 153.655 440.08 146.21C440.08 138.766 434.045 132.73 426.6 132.73C419.155 132.73 413.12 138.766 413.12 146.21C413.12 153.655 419.155 159.69 426.6 159.69Z" fill="black"/>
<path vector-effect="non-scaling-stroke" d="M469.57 53.0205H390.34C377.7 53.0205 364.57 62.0905 361.87 74.3805L392.81 74.4405C404.03 74.4605 413.11 83.5605 413.11 94.7805V146.211H440.07V81.8105C440.07 65.9105 452.96 53.0205 468.85 53.0205H469.56H469.57Z" fill="black"/>
<path vector-effect="non-scaling-stroke" d="M516.411 137.43H516.211C506.861 137.43 499.281 129.85 499.281 120.5V82.7402C499.281 66.3302 485.981 53.0302 469.571 53.0302H448.971V32.2402H533.351V120.5C533.351 129.85 525.771 137.43 516.421 137.43H516.411Z" fill="black"/>
<path vector-effect="non-scaling-stroke" d="M343.761 32.2402H228.881C222.789 32.2402 217.851 37.1785 217.851 43.2702V105.7C217.851 111.792 222.789 116.73 228.881 116.73H343.761C349.852 116.73 354.791 111.792 354.791 105.7V43.2702C354.791 37.1785 349.852 32.2402 343.761 32.2402Z" stroke="white" stroke-miterlimit="10"/>
<path vector-effect="non-scaling-stroke" d="M253.08 6.54004H336.81" stroke="white" stroke-miterlimit="10"/>
<path vector-effect="non-scaling-stroke" d="M264.931 177.76H348.651" stroke="white" stroke-miterlimit="10"/>
<path vector-effect="non-scaling-stroke" d="M390.341 53.0303H469.681" stroke="white" stroke-miterlimit="10"/>
<path vector-effect="non-scaling-stroke" d="M354.79 74.5303H392.71" stroke="white" stroke-miterlimit="10"/>
<path vector-effect="non-scaling-stroke" d="M440.08 146.21C440.08 153.66 434.04 159.69 426.6 159.69C419.16 159.69 413.12 153.65 413.12 146.21" stroke="white" stroke-miterlimit="10"/>
<path vector-effect="non-scaling-stroke" d="M440.08 82.6003C440.08 66.2703 453.32 53.0303 469.65 53.0303C485.98 53.0303 499.22 66.2703 499.22 82.6003" stroke="white" stroke-miterlimit="10"/>
<path vector-effect="non-scaling-stroke" d="M390.34 53.0303C376.84 53.0303 365.45 62.0703 361.89 74.4303L361.87 74.5303" stroke="white" stroke-miterlimit="10"/>
<path vector-effect="non-scaling-stroke" d="M533.34 120.4C533.34 129.81 525.71 137.43 516.31 137.43C506.91 137.43 499.28 129.8 499.28 120.4" stroke="white" stroke-miterlimit="10"/>
<path vector-effect="non-scaling-stroke" d="M372.311 94.9303C372.311 83.6603 381.441 74.5303 392.711 74.5303C403.981 74.5303 413.111 83.6603 413.111 94.9303" stroke="white" stroke-miterlimit="10"/>
<path vector-effect="non-scaling-stroke" d="M372.31 154.11C372.31 167.17 361.72 177.77 348.65 177.77C335.58 177.77 324.99 167.18 324.99 154.11" stroke="white" stroke-miterlimit="10"/>
<path vector-effect="non-scaling-stroke" d="M264.93 177.76C251.87 177.76 241.271 167.17 241.271 154.1" stroke="white" stroke-miterlimit="10"/>
<path vector-effect="non-scaling-stroke" d="M241.271 18.35C241.271 11.83 246.561 6.54004 253.081 6.54004" stroke="white" stroke-miterlimit="10"/>
<path vector-effect="non-scaling-stroke" d="M241.271 18.3496V154.11" stroke="white" stroke-miterlimit="10"/>
<path vector-effect="non-scaling-stroke" d="M325.001 18.3496V154.11" stroke="white" stroke-miterlimit="10"/>
<path vector-effect="non-scaling-stroke" d="M440.08 146.21V82.5996" stroke="white" stroke-miterlimit="10"/>
<path vector-effect="non-scaling-stroke" d="M499.28 82.7305V120.4" stroke="white" stroke-miterlimit="10"/>
<path vector-effect="non-scaling-stroke" d="M372.311 154.11V94.9297" stroke="white" stroke-miterlimit="10"/>
<path vector-effect="non-scaling-stroke" d="M413.12 94.9297V146.21" stroke="white" stroke-miterlimit="10"/>
<path vector-effect="non-scaling-stroke" d="M516.31 137.43H440.08" stroke="white" stroke-miterlimit="10"/>
<path vector-effect="non-scaling-stroke" d="M426.601 159.69H372.311" stroke="white" stroke-miterlimit="10"/>
<path vector-effect="non-scaling-stroke" d="M217.851 60.6504H210.021V88.3204H217.851V60.6504Z" stroke="white" stroke-miterlimit="10"/>
<path vector-effect="non-scaling-stroke" d="M233.061 64.5303H228.671V84.4303H233.061V64.5303Z" stroke="white" stroke-miterlimit="10"/>
<path vector-effect="non-scaling-stroke" d="M337.931 79.4897C340.698 79.4897 342.941 77.2467 342.941 74.4797C342.941 71.7128 340.698 69.4697 337.931 69.4697C335.164 69.4697 332.921 71.7128 332.921 74.4797C332.921 77.2467 335.164 79.4897 337.931 79.4897Z" stroke="white" stroke-miterlimit="10"/>
<path vector-effect="non-scaling-stroke" d="M298.931 20.7803H314.791" stroke="white" stroke-miterlimit="10"/>
<path vector-effect="non-scaling-stroke" d="M255.4 20.7803H287.61" stroke="white" stroke-miterlimit="10"/>
<path vector-effect="non-scaling-stroke" d="M304.58 128.19H314.79" stroke="white" stroke-miterlimit="10"/>
<path vector-effect="non-scaling-stroke" d="M255.4 128.19H287.61" stroke="white" stroke-miterlimit="10"/>
<path vector-effect="non-scaling-stroke" d="M278.181 139.65H314.791" stroke="white" stroke-miterlimit="10"/>
<path vector-effect="non-scaling-stroke" d="M255.4 139.65H262.53" stroke="white" stroke-miterlimit="10"/>
<path vector-effect="non-scaling-stroke" d="M308.351 151.1H314.791" stroke="white" stroke-miterlimit="10"/>
<path vector-effect="non-scaling-stroke" d="M292.051 151.1H300.041" stroke="white" stroke-miterlimit="10"/>
<path vector-effect="non-scaling-stroke" d="M255.4 151.1H266.67" stroke="white" stroke-miterlimit="10"/>
<path vector-effect="non-scaling-stroke" d="M325.001 24.46H348.621V18.35C348.621 11.83 343.331 6.54004 336.811 6.54004C330.291 6.54004 325.001 11.83 325.001 18.35" stroke="white" stroke-miterlimit="10"/>
<path vector-effect="non-scaling-stroke" d="M283.171 86.6504V91.5404" stroke="white" stroke-miterlimit="10"/>
<path vector-effect="non-scaling-stroke" d="M283.171 57.8301V62.7201" stroke="white" stroke-miterlimit="10"/>
<path vector-effect="non-scaling-stroke" d="M290.941 68.48C290.791 65.19 287.491 62.71 283.101 62.71C279.621 62.71 275.871 64.92 275.871 68.48C275.871 71.75 279.251 74.61 283.101 74.61C287.571 74.61 290.941 77.28 290.941 80.82C290.941 83.4 288.601 85.7 285.261 86.41C284.601 86.55 283.921 86.65 283.231 86.65C282.541 86.65 281.821 86.56 281.141 86.41C277.951 85.69 275.721 83.39 275.721 80.82" stroke="white" stroke-miterlimit="10"/>
<path vector-effect="non-scaling-stroke" d="M283.33 99.8996C297.369 99.8996 308.75 88.5187 308.75 74.4796C308.75 60.4405 297.369 49.0596 283.33 49.0596C269.291 49.0596 257.91 60.4405 257.91 74.4796C257.91 88.5187 269.291 99.8996 283.33 99.8996Z" stroke="white" stroke-miterlimit="10"/>
<path vector-effect="non-scaling-stroke" d="M399.42 287.21H326.86V390.59H399.42V287.21Z" fill="#020202" stroke="white" stroke-miterlimit="10"/>
<path vector-effect="non-scaling-stroke" d="M480.38 183.59H407.82V390.59H480.38V183.59Z" fill="#020202" stroke="white" stroke-miterlimit="10"/>
<path vector-effect="non-scaling-stroke" d="M525.05 5.5L459.95 83.21H488.77V390.59H561.33V83.21H590.15L525.05 5.5Z" fill="#020202" stroke="white" stroke-miterlimit="10"/>
<path vector-effect="non-scaling-stroke" d="M36.6104 357.609L279.16 357.609C287.417 357.609 294.11 350.916 294.11 342.659V193.459C294.11 185.203 287.417 178.509 279.16 178.509L36.6104 178.509C28.3537 178.509 21.6604 185.203 21.6604 193.459V342.659C21.6604 350.916 28.3537 357.609 36.6104 357.609Z" fill="#020202" stroke="white" stroke-miterlimit="10"/>
<path vector-effect="non-scaling-stroke" d="M294.11 199.939L21.6604 199.939V192.329C21.6604 184.699 27.8503 178.509 35.4803 178.509L280.28 178.509C287.91 178.509 294.1 184.699 294.1 192.329V199.939H294.11Z" fill="#202020" stroke="white" stroke-miterlimit="10"/>
<path vector-effect="non-scaling-stroke" d="M283.33 193.549C285.119 193.549 286.57 192.099 286.57 190.309C286.57 188.52 285.119 187.069 283.33 187.069C281.54 187.069 280.09 188.52 280.09 190.309C280.09 192.099 281.54 193.549 283.33 193.549Z" stroke="white" stroke-miterlimit="10"/>
<path vector-effect="non-scaling-stroke" d="M272.42 193.549C274.209 193.549 275.66 192.099 275.66 190.309C275.66 188.52 274.209 187.069 272.42 187.069C270.63 187.069 269.18 188.52 269.18 190.309C269.18 192.099 270.63 193.549 272.42 193.549Z" stroke="white" stroke-miterlimit="10"/>
<path vector-effect="non-scaling-stroke" d="M261.5 193.549C263.289 193.549 264.74 192.099 264.74 190.309C264.74 188.52 263.289 187.069 261.5 187.069C259.71 187.069 258.26 188.52 258.26 190.309C258.26 192.099 259.71 193.549 261.5 193.549Z" stroke="white" stroke-miterlimit="10"/>
<path vector-effect="non-scaling-stroke" d="M103.84 193.55H94.29V207.2H103.84V193.55Z" fill="#020202" stroke="white" stroke-miterlimit="10"/>
<path vector-effect="non-scaling-stroke" d="M109.581 244.3H88.5508V287.33H109.581V244.3Z" fill="#020202" stroke="white" stroke-miterlimit="10"/>
<path vector-effect="non-scaling-stroke" d="M72.9103 279.529H44.0703V350.749H72.9103V279.529Z" fill="#202020" stroke="white" stroke-miterlimit="10"/>
<path vector-effect="non-scaling-stroke" d="M202.44 286.04L224.5 268.93V264.43C224.5 262.14 225.66 260 227.58 258.75L234.95 253.94C237.11 252.53 239.1 250.89 240.9 249.05L245.35 244.5C246.38 243.44 248.02 243.27 249.25 244.07L249.31 244.11C250.83 245.1 251.23 247.14 250.19 248.62C247.04 253.13 241.04 261.73 241.04 261.73L243.99 257.5C246.51 259.85 249.78 261.25 253.22 261.44L258.17 261.72C255.01 265.77 250.81 268.88 246.02 270.72C250.81 268.88 255.01 265.76 258.17 261.72L263.38 254.06C264.35 252.63 266.26 252.21 267.74 253.08L267.81 253.12C269.45 254.09 269.97 256.19 268.98 257.8C265.68 263.14 259.04 273.92 259.04 273.92L269.51 256.89C270.34 255.55 271.4 254.36 272.65 253.4L274.37 252.07C275.03 251.56 275.86 251.32 276.68 251.4C278.01 251.52 279.21 252.23 279.96 253.34L280.33 253.89C280.93 254.77 281.06 255.89 280.69 256.89C280.54 257.29 280.32 257.65 280.03 257.97L268.24 270.85L277.44 260.81L282.71 260.92C283.57 260.94 284.4 261.24 285.07 261.79C285.74 262.34 286.21 263.1 286.4 263.95L286.47 264.25C286.65 265.07 286.55 265.93 286.2 266.7L286.04 267.04C285.65 267.88 284.97 268.55 284.12 268.93L282.45 269.68C280.88 270.38 279.28 270.99 277.65 271.51L272.45 273.17L252.63 279.63C247.31 281.37 242.35 284.06 237.99 287.57L222.1 300.38L202.42 286.03L202.44 286.04Z" fill="#020202"/>
<path vector-effect="non-scaling-stroke" d="M258.17 261.72L253.22 261.44C249.78 261.25 246.51 259.85 243.99 257.5L241.04 261.73C241.04 261.73 247.04 253.13 250.19 248.62C251.23 247.14 250.83 245.1 249.31 244.11L249.25 244.07C248.02 243.27 246.38 243.44 245.35 244.5L240.9 249.05C239.1 250.89 237.11 252.53 234.95 253.94L227.58 258.75C225.66 260 224.5 262.14 224.5 264.43V268.93L202.44 286.04L202.42 286.03L222.1 300.38L237.99 287.57C242.35 284.06 247.31 281.37 252.63 279.63L272.45 273.17L277.65 271.51C279.28 270.99 280.88 270.38 282.45 269.68L284.12 268.93C284.97 268.55 285.65 267.88 286.04 267.04L286.2 266.7C286.55 265.93 286.65 265.07 286.47 264.25L286.4 263.95C286.21 263.1 285.74 262.34 285.07 261.79C284.4 261.24 283.57 260.94 282.71 260.92L277.44 260.81L268.24 270.85L280.03 257.97C280.32 257.65 280.54 257.29 280.69 256.89C281.06 255.89 280.93 254.77 280.33 253.89L279.96 253.34C279.21 252.23 278.01 251.52 276.68 251.4C275.86 251.32 275.03 251.56 274.37 252.07L272.65 253.4C271.4 254.36 270.34 255.55 269.51 256.89L259.04 273.92C259.04 273.92 265.68 263.14 268.98 257.8C269.97 256.19 269.45 254.09 267.81 253.12L267.74 253.08C266.26 252.21 264.35 252.63 263.38 254.06L258.17 261.72ZM258.17 261.72C255.01 265.77 250.81 268.88 246.02 270.72M258.17 261.72C255.01 265.76 250.81 268.88 246.02 270.72M246.02 270.72L243.56 271.66" stroke="white" stroke-linecap="round" stroke-linejoin="round"/>
<path vector-effect="non-scaling-stroke" d="M51.3608 357.599H67.9908V351.469V365.379L67.3108 366.449C66.0208 368.479 66.4708 371.149 68.3608 372.639C69.4708 373.519 71.0108 373.569 72.1808 372.779L72.0008 373.079L73.8408 370.049C74.7408 368.569 75.2208 366.869 75.2208 365.129V355.659V365.109C75.2208 366.859 74.7408 368.579 73.8308 370.069L72.1908 372.769V374.269C72.1908 375.289 72.6808 376.239 73.5108 376.829C74.0408 377.209 74.6708 377.409 75.3208 377.409H75.5308C76.3008 377.409 77.0408 377.129 77.6208 376.619L78.3308 375.989L80.2508 371.829C81.1008 369.989 81.5408 367.989 81.5408 365.959C81.5408 367.979 81.1008 369.979 80.2508 371.819L78.3308 375.989L79.1408 377.269C79.6908 378.139 80.6408 378.659 81.6708 378.659C82.7508 378.659 83.7408 378.079 84.2708 377.149L85.7408 374.559C87.0708 372.219 87.7708 369.579 87.7708 366.889V358.959V367.039C87.7708 369.629 87.0908 372.179 85.8108 374.429L84.6708 376.439L85.7408 378.659C85.9608 379.129 86.3208 379.519 86.7708 379.769C87.4108 380.139 88.1808 380.219 88.8808 379.979L89.9508 379.619C90.6108 379.399 91.1608 378.919 91.4608 378.289L93.9408 373.119C94.1108 372.769 94.1908 372.389 94.1908 371.999V352.599V366.699L105.511 370.279C106.211 370.499 106.951 370.519 107.661 370.349L108.251 370.199C109.231 369.949 110.091 369.339 110.631 368.479L110.681 368.409C111.301 367.429 111.461 366.229 111.131 365.129C110.841 364.189 110.211 363.389 109.361 362.879L99.3108 358.709C97.5408 357.979 96.0508 356.709 95.0408 355.089L94.6108 339.229H51.8408L51.3408 357.579L51.3608 357.599Z" fill="#020202"/>
<path vector-effect="non-scaling-stroke" d="M78.3308 375.989L77.6208 376.619C77.0408 377.129 76.3008 377.409 75.5308 377.409H75.3208C74.6708 377.409 74.0408 377.209 73.5108 376.829C72.6808 376.239 72.1908 375.289 72.1908 374.269V372.769L73.8308 370.069C74.7408 368.579 75.2208 366.859 75.2208 365.109V355.659V365.129C75.2208 366.869 74.7408 368.569 73.8408 370.049L72.0008 373.079L72.1808 372.779C71.0108 373.569 69.4708 373.519 68.3608 372.639C66.4708 371.149 66.0208 368.479 67.3108 366.449L67.9908 365.379V351.469V357.599H51.3608L51.3408 357.579L51.8408 339.229H94.6108L95.0408 355.089C96.0508 356.709 97.5408 357.979 99.3108 358.709L109.361 362.879C110.211 363.389 110.841 364.189 111.131 365.129C111.461 366.229 111.301 367.429 110.681 368.409L110.631 368.479C110.091 369.339 109.231 369.949 108.251 370.199L107.661 370.349C106.951 370.519 106.211 370.499 105.511 370.279L94.1908 366.699V352.599V371.999C94.1908 372.389 94.1108 372.769 93.9408 373.119L91.4608 378.289C91.1608 378.919 90.6108 379.399 89.9508 379.619L88.8808 379.979C88.1808 380.219 87.4108 380.139 86.7708 379.769C86.3208 379.519 85.9608 379.129 85.7408 378.659L84.6708 376.439L85.8108 374.429C87.0908 372.179 87.7708 369.629 87.7708 367.039V358.959V366.889C87.7708 369.579 87.0708 372.219 85.7408 374.559L84.2708 377.149C83.7408 378.079 82.7508 378.659 81.6708 378.659C80.6408 378.659 79.6908 378.139 79.1408 377.269L78.3308 375.989ZM78.3308 375.989L80.2508 371.829C81.1008 369.989 81.5408 367.989 81.5408 365.959M78.3308 375.989L80.2508 371.819C81.1008 369.979 81.5408 367.979 81.5408 365.959M81.5408 365.959V356.999" stroke="white" stroke-linecap="round" stroke-linejoin="round"/>
<path vector-effect="non-scaling-stroke" d="M71.5104 342.56H74.1304C85.6904 342.56 88.4404 342.92 90.6204 345.06C92.0904 346.5 93.8604 350.6 94.2104 352.62L95.6804 355.65C96.2604 356.84 97.4804 357.57 98.8004 357.5L146.04 357.61V278.54V340.54L153.49 348.28C155.37 350.23 157.64 351.77 160.15 352.79C162.57 353.77 165.15 354.25 167.76 354.2L169.21 354.17C172.94 354.1 176.57 352.96 179.66 350.87L183.26 348.45C183.9 348.02 184.51 347.55 185.09 347.05L225.38 312.26C227.29 310.61 228.39 308.21 228.39 305.69C228.39 299.64 226.18 293.8 222.18 289.26L214.61 280.67C212.62 278.41 209.76 277.12 206.75 277.12C199.67 277.12 192.84 279.8 187.65 284.61L153.92 315.89L173.1 298.1L147.43 263.57C146.56 262.4 145.19 261.72 143.74 261.72H109.59L104.98 277.16C104.98 278.22 103.65 278.68 102.99 277.86L88.5604 261.72H59.7704C53.4204 261.72 47.4904 264.92 44.0104 270.23L6.6304 327.23C-1.9196 340.27 7.4304 357.59 23.0304 357.59H51.3804L52.2104 355.23C53.7204 350.95 56.7104 347.36 60.6404 345.09C63.5304 343.42 66.8104 342.54 70.1504 342.54H71.5204V341.28C71.5204 335.82 68.5604 330.8 63.7804 328.15L56.2404 323.98C52.8304 322.09 50.7104 318.5 50.7104 314.6V284.36" fill="#202020"/>
<path vector-effect="non-scaling-stroke" d="M71.5104 342.56H74.1304C85.6904 342.56 88.4404 342.92 90.6204 345.06C92.0904 346.5 93.8604 350.6 94.2104 352.62L95.6804 355.65C96.2604 356.84 97.4804 357.57 98.8004 357.5L146.04 357.61V278.54V340.54L153.49 348.28C155.37 350.23 157.64 351.77 160.15 352.79C162.57 353.77 165.15 354.25 167.76 354.2L169.21 354.17C172.94 354.1 176.57 352.96 179.66 350.87L183.26 348.45C183.9 348.02 184.51 347.55 185.09 347.05L225.38 312.26C227.29 310.61 228.39 308.21 228.39 305.69C228.39 299.64 226.18 293.8 222.18 289.26L214.61 280.67C212.62 278.41 209.76 277.12 206.75 277.12C199.67 277.12 192.84 279.8 187.65 284.61L153.92 315.89L173.1 298.1L147.43 263.57C146.56 262.4 145.19 261.72 143.74 261.72H109.59L104.98 277.16C104.98 278.22 103.65 278.68 102.99 277.86L88.5604 261.72H59.7704C53.4204 261.72 47.4904 264.92 44.0104 270.23L6.6304 327.23C-1.9196 340.27 7.4304 357.59 23.0304 357.59H51.3804L52.2104 355.23C53.7204 350.95 56.7104 347.36 60.6404 345.09C63.5304 343.42 66.8104 342.54 70.1504 342.54H71.5204V341.28C71.5204 335.82 68.5604 330.8 63.7804 328.15L56.2404 323.98C52.8304 322.09 50.7104 318.5 50.7104 314.6V284.36" stroke="white" stroke-miterlimit="10"/>
<path vector-effect="non-scaling-stroke" d="M99.0601 257.1C110.901 257.1 120.5 245.437 120.5 231.05C120.5 216.663 110.901 205 99.0601 205C87.2191 205 77.6201 216.663 77.6201 231.05C77.6201 245.437 87.2191 257.1 99.0601 257.1Z" fill="#020202" stroke="white" stroke-miterlimit="10"/>
<path vector-effect="non-scaling-stroke" d="M99.4804 213.72L99.5104 213.59C100.93 219.44 105 224.3 110.52 226.71L120.49 231.06C120.49 216.67 110.89 205.01 99.0504 205.01C87.2104 205.01 77.6104 216.67 77.6104 231.06L88.2204 226.65C93.7904 224.34 97.9504 219.55 99.4704 213.72H99.4804Z" fill="#404040" stroke="white" stroke-miterlimit="10"/>
<path vector-effect="non-scaling-stroke" d="M93.2905 187.6H104.84C108.32 187.6 111.14 190.42 111.14 193.9V198.96C111.14 200.56 109.85 201.85 108.25 201.85H89.8705C88.2705 201.85 86.9805 200.56 86.9805 198.96V193.9C86.9805 190.42 89.8005 187.6 93.2805 187.6H93.2905Z" fill="#404040" stroke="white" stroke-miterlimit="10"/>
<path vector-effect="non-scaling-stroke" d="M329.1 196.36C329.1 199.83 326.3 202.64 322.84 202.64C319.38 202.64 316.58 199.83 316.58 196.36C316.58 192.89 319.38 190.08 322.84 190.08C326.3 190.08 329.1 192.89 329.1 196.36Z" fill="#A100FF" stroke="white" stroke-miterlimit="10"/>
<path vector-effect="non-scaling-stroke" d="M241.42 196.36C241.42 199.83 238.62 202.64 235.16 202.64C231.7 202.64 228.9 199.83 228.9 196.36C228.9 192.89 231.7 190.08 235.16 190.08C238.62 190.08 241.42 192.89 241.42 196.36Z" fill="#A100FF" stroke="white" stroke-miterlimit="10"/>
<path vector-effect="non-scaling-stroke" d="M316.581 196.53H309.511" stroke="white" stroke-miterlimit="10"/>
<path vector-effect="non-scaling-stroke" d="M248.48 196.53H241.42" stroke="white" stroke-miterlimit="10"/>
<path vector-effect="non-scaling-stroke" d="M279 246.63C275.54 246.63 272.74 243.82 272.74 240.35C272.74 236.88 275.54 234.07 279 234.07C282.46 234.07 285.26 236.88 285.26 240.35C285.26 243.82 282.46 246.63 279 246.63Z" fill="#A100FF" stroke="white" stroke-miterlimit="10"/>
<path vector-effect="non-scaling-stroke" d="M279 158.65C282.458 158.65 285.26 155.838 285.26 152.37C285.26 148.901 282.458 146.09 279 146.09C275.543 146.09 272.74 148.901 272.74 152.37C272.74 155.838 275.543 158.65 279 158.65Z" fill="#A100FF" stroke="white" stroke-miterlimit="10"/>
<path vector-effect="non-scaling-stroke" d="M278.82 234.08V226.87" stroke="white" stroke-miterlimit="10"/>
<path vector-effect="non-scaling-stroke" d="M278.82 165.599V158.649" stroke="white" stroke-miterlimit="10"/>
<path vector-effect="non-scaling-stroke" d="M314.42 231.91C311.97 234.36 308.01 234.36 305.56 231.91C303.11 229.46 303.11 225.48 305.56 223.02C308.01 220.57 311.97 220.57 314.42 223.02C316.87 225.47 316.87 229.45 314.42 231.91Z" fill="#A100FF" stroke="white" stroke-miterlimit="10"/>
<path vector-effect="non-scaling-stroke" d="M252.43 169.7C249.98 172.15 246.02 172.15 243.57 169.7C241.12 167.25 241.12 163.27 243.57 160.81C246.02 158.36 249.98 158.36 252.43 160.81C254.88 163.26 254.88 167.24 252.43 169.7Z" fill="#A100FF" stroke="white" stroke-miterlimit="10"/>
<path vector-effect="non-scaling-stroke" d="M305.45 223.16L300.4 218.09" stroke="white" stroke-miterlimit="10"/>
<path vector-effect="non-scaling-stroke" d="M257.211 174.76L252.301 169.82" stroke="white" stroke-miterlimit="10"/>
<path vector-effect="non-scaling-stroke" d="M243.57 231.91C241.12 229.46 241.12 225.48 243.57 223.02C246.02 220.57 249.98 220.57 252.43 223.02C254.88 225.47 254.88 229.45 252.43 231.91C249.98 234.36 246.02 234.36 243.57 231.91Z" fill="#A100FF" stroke="white" stroke-miterlimit="10"/>
<path vector-effect="non-scaling-stroke" d="M305.57 169.7C303.12 167.25 303.12 163.27 305.57 160.81C308.02 158.36 311.98 158.36 314.43 160.81C316.88 163.26 316.88 167.24 314.43 169.7C311.98 172.15 308.02 172.15 305.57 169.7Z" fill="#A100FF" stroke="white" stroke-miterlimit="10"/>
<path vector-effect="non-scaling-stroke" d="M257.34 217.82L252.28 222.9" stroke="white" stroke-miterlimit="10"/>
<path vector-effect="non-scaling-stroke" d="M305.441 169.56L300.511 174.51" stroke="white" stroke-miterlimit="10"/>
<path vector-effect="non-scaling-stroke" d="M279 221.92C292.923 221.92 304.21 210.593 304.21 196.62C304.21 182.647 292.923 171.32 279 171.32C265.077 171.32 253.79 182.647 253.79 196.62C253.79 210.593 265.077 221.92 279 221.92Z" fill="#A100FF" stroke="white" stroke-miterlimit="10"/>
<path vector-effect="non-scaling-stroke" d="M270.82 202.28C270.82 205.45 273.38 208.02 276.54 208.02H281.11C284.27 208.02 286.83 205.45 286.83 202.28V201.64C286.83 198.83 284.56 196.55 281.75 196.55H275.89C273.09 196.55 270.82 194.27 270.82 191.46V190.82C270.82 187.65 273.38 185.08 276.54 185.08H281.11C284.27 185.08 286.83 187.65 286.83 190.82" fill="#A100FF"/>
<path vector-effect="non-scaling-stroke" d="M270.82 202.28C270.82 205.45 273.38 208.02 276.54 208.02H281.11C284.27 208.02 286.83 205.45 286.83 202.28V201.64C286.83 198.83 284.56 196.55 281.75 196.55H275.89C273.09 196.55 270.82 194.27 270.82 191.46V190.82C270.82 187.65 273.38 185.08 276.54 185.08H281.11C284.27 185.08 286.83 187.65 286.83 190.82" stroke="white" stroke-miterlimit="10"/>
<path vector-effect="non-scaling-stroke" d="M278.82 180.72V185.06" stroke="white" stroke-miterlimit="10"/>
<path vector-effect="non-scaling-stroke" d="M278.82 208.01V212.34" stroke="white" stroke-miterlimit="10"/>
<path vector-effect="non-scaling-stroke" d="M107.111 49.1298C101.781 45.2598 95.2908 43.0898 88.5508 43.0898V74.6798L107.111 49.1298Z" fill="#A2A2A0" stroke="white" stroke-miterlimit="10"/>
<path vector-effect="non-scaling-stroke" d="M79.3608 44.4696C75.9008 45.5196 72.7608 47.1196 69.9908 49.1396C64.5508 53.0896 60.5708 58.6596 58.5208 64.9296C56.5808 70.8696 56.3808 77.4496 58.3408 83.8796C58.4008 84.0696 58.4708 84.2596 58.5308 84.4496C60.6708 91.0396 64.7708 96.4496 70.0008 100.24L88.5608 74.6896V43.0996C85.5208 43.0996 82.4308 43.5396 79.3708 44.4696H79.3608Z" fill="#404040" stroke="white" stroke-miterlimit="10"/>
<path vector-effect="non-scaling-stroke" d="M118.771 65.4899C118.711 65.2999 118.641 65.1099 118.581 64.9199C116.441 58.3399 112.341 52.9199 107.111 49.1299L88.5508 74.6799L118.581 84.4399C120.521 78.4999 120.721 71.9199 118.761 65.4899H118.771Z" fill="#020202" stroke="white" stroke-linejoin="round"/>
<path vector-effect="non-scaling-stroke" d="M88.5512 74.6797L69.9912 100.23C75.3212 104.1 81.8112 106.27 88.5512 106.27C91.5912 106.27 94.6812 105.83 97.7412 104.9C101.201 103.85 104.341 102.25 107.111 100.23C112.551 96.2797 116.531 90.7097 118.581 84.4397L88.5512 74.6797Z" fill="#404040" stroke="white" stroke-miterlimit="10"/>
<path vector-effect="non-scaling-stroke" d="M191.62 91.0195H97.06C95.5302 91.0195 94.29 92.2597 94.29 93.7895V160.21C94.29 161.739 95.5302 162.98 97.06 162.98H191.62C193.15 162.98 194.39 161.739 194.39 160.21V93.7895C194.39 92.2597 193.15 91.0195 191.62 91.0195Z" fill="black" stroke="white" stroke-miterlimit="10"/>
<path vector-effect="non-scaling-stroke" d="M125.16 111.939H184.74" stroke="white" stroke-miterlimit="10"/>
<path vector-effect="non-scaling-stroke" d="M125.16 103.18H155.62" stroke="white" stroke-miterlimit="10"/>
<path vector-effect="non-scaling-stroke" d="M117.86 103.18H104.91C104.368 103.18 103.93 103.618 103.93 104.16V111.2C103.93 111.741 104.368 112.18 104.91 112.18H117.86C118.401 112.18 118.84 111.741 118.84 111.2V104.16C118.84 103.618 118.401 103.18 117.86 103.18Z" fill="#A2A2A0" stroke="white" stroke-miterlimit="10"/>
<path vector-effect="non-scaling-stroke" d="M117.86 120.699H104.91C104.368 120.699 103.93 121.138 103.93 121.679V128.719C103.93 129.26 104.368 129.699 104.91 129.699H117.86C118.401 129.699 118.84 129.26 118.84 128.719V121.679C118.84 121.138 118.401 120.699 117.86 120.699Z" fill="black" stroke="white" stroke-miterlimit="10"/>
<path vector-effect="non-scaling-stroke" d="M114.771 150.929V145.049L126.131 141.659V137.669L137.501 131.929L148.871 131.899L160.241 124.849L166.291 120.939H171.551V150.899" fill="black"/>
<path vector-effect="non-scaling-stroke" d="M114.771 150.929V145.049L126.131 141.659V137.669L137.501 131.929L148.871 131.899L160.241 124.849L166.291 120.939H171.551V150.899" stroke="white" stroke-miterlimit="10"/>
<path vector-effect="non-scaling-stroke" d="M126.131 137.67V150.93" stroke="white" stroke-miterlimit="10"/>
<path vector-effect="non-scaling-stroke" d="M137.501 131.93V150.93" stroke="white" stroke-miterlimit="10"/>
<path vector-effect="non-scaling-stroke" d="M148.87 131.899V150.909" stroke="white" stroke-miterlimit="10"/>
<path vector-effect="non-scaling-stroke" d="M160.24 124.85V150.93" stroke="white" stroke-miterlimit="10"/>
<path vector-effect="non-scaling-stroke" d="M171.55 120.939H182.18V150.909H103.93V145.049H114.77" stroke="white" stroke-miterlimit="10"/>
</g>
<defs>
<clipPath id="clip0_394_4410">
<rect width="595" height="396.67" fill="white"/>
</clipPath>
</defs>
</svg>
