<svg width="802" height="535" viewBox="0 0 802 535" fill="none" xmlns="http://www.w3.org/2000/svg">
<g clip-path="url(#clip0_21_15587)">
<path vector-effect="non-scaling-stroke" d="M520.276 45.3233C460.768 -14.1846 364.27 -14.1846 304.762 45.3233C245.254 104.831 245.254 201.329 304.762 260.837L520.276 476.351L735.79 260.837C795.298 201.329 795.298 104.831 735.79 45.3233C676.282 -14.1846 579.784 -14.1846 520.276 45.3233Z" stroke="white" stroke-width="1.37052" stroke-miterlimit="10"/>
<path vector-effect="non-scaling-stroke" d="M523.771 152.608C523.771 95.5257 563.297 51.6006 620.379 51.6006C673.733 51.6006 716.987 94.8541 716.987 148.208C716.987 196.519 699.417 209.69 699.417 244.816C699.417 253.601 716.85 231.467 730.02 266.594L618.063 378.551L589.638 279.943H544.562C540.19 279.943 536.49 276.722 535.873 272.405L528.171 218.461H506.215V214.076L523.785 152.594L523.771 152.608Z" fill="#202020" stroke="white" stroke-width="1.37052" stroke-linecap="round" stroke-linejoin="round"/>
<path vector-effect="non-scaling-stroke" d="M303.584 133.599C216.227 73.954 97.6083 95.5945 38.6212 181.978C-20.3659 268.348 2.63142 386.734 89.9883 446.392C177.345 506.037 295.963 484.369 354.951 398.013C413.938 311.629 390.94 193.271 303.584 133.613V133.599Z" fill="#020202" stroke="white" stroke-width="1.37052" stroke-miterlimit="10"/>
<path vector-effect="non-scaling-stroke" d="M104.515 271.829L309.901 466.059L445.212 21.8467H115.274L104.515 271.843V271.829Z" fill="#020202"/>
<path vector-effect="non-scaling-stroke" d="M195.271 488.496L294.045 473.215L293.113 442.734L191.283 457.07L195.271 488.51V488.496Z" fill="#020202"/>
<path vector-effect="non-scaling-stroke" d="M396.354 397.751H428.397" stroke="white" stroke-width="1.37052" stroke-miterlimit="10"/>
<path vector-effect="non-scaling-stroke" d="M164.722 92.2764H343.685C354.676 92.2764 364.284 100.87 367.066 113.177L438.017 427.368C442.019 445.089 430.452 462.399 414.636 462.399H235.674C224.683 462.399 215.062 453.805 212.293 441.498L141.341 127.307C137.339 109.586 148.907 92.2764 164.722 92.2764Z" fill="#202020" stroke="white" stroke-width="1.37052" stroke-miterlimit="10"/>
<path vector-effect="non-scaling-stroke" d="M367.066 113.177L369.779 125.196H140.971C138.299 108.243 149.523 92.2764 164.723 92.2764H343.671C354.663 92.2764 364.27 100.87 367.052 113.177H367.066Z" fill="#020202" stroke="white" stroke-width="1.37052" stroke-miterlimit="10"/>
<path vector-effect="non-scaling-stroke" d="M438.634 431.371C440.21 447.612 429.26 462.4 414.622 462.4H235.66C224.669 462.4 215.061 453.807 212.279 441.499L209.977 431.357H438.62L438.634 431.371Z" fill="#020202" stroke="white" stroke-width="1.37052" stroke-miterlimit="10"/>
<mask id="mask0_21_15587" style="mask-type:luminance" maskUnits="userSpaceOnUse" x="158" y="70" width="358" height="359">
<path vector-effect="non-scaling-stroke" d="M158.377 428.695L515.918 428.695V70.7844L158.377 70.7844L158.377 428.695Z" fill="white"/>
</mask>
<g mask="url(#mask0_21_15587)">
<path vector-effect="non-scaling-stroke" d="M357.089 156.086C358.364 151.467 348.51 142.079 343.288 139.598C339.053 137.584 330.556 133.924 319.633 134.596C315.206 134.87 307.106 138.324 301.172 142.476C299.13 143.902 291.455 151.453 290.784 159.06C290.345 164.117 291.249 164.172 287.864 168.914C284.712 173.34 279.819 173.875 274.94 174.971C267.841 176.575 267.074 182.646 267.074 189.142C267.074 191.363 266.813 194.186 263.962 194.378C262.592 194.474 261.276 193.898 259.961 193.487C256.658 192.432 252.998 192.281 249.778 193.542C246.954 194.652 244.707 196.913 243.542 199.709C242.199 202.957 243.98 206.274 242.898 209.481C241.856 212.551 238.718 214.826 235.702 215.689C231.605 216.868 227.233 216.196 223.025 215.566C218.804 214.949 214.391 214.401 210.375 215.813C199.808 219.513 189.598 235.151 192.312 246.115C193.943 252.707 198.178 256.832 199.685 257.6C201.878 258.724 208.881 258.916 209.018 262.493C209.073 263.973 207.538 264.918 206.538 266.028C203.454 269.441 206.209 273.32 208.648 276.02C213.185 281.036 221.942 285.695 226.972 278.377C227.52 277.582 227.959 276.677 228.672 276.02C229.384 275.362 230.536 275.033 231.33 275.581C231.742 275.855 231.988 276.321 232.194 276.76C233.126 278.678 233.427 281.2 234.729 282.9C237.772 286.888 242.473 288.053 244.981 288.669C244.981 288.669 254.177 290.931 264.511 285.312C278.408 277.746 285.205 259.806 293.826 227.681C302.638 194.816 311.245 183.756 328.445 174.985C345.426 166.323 355.582 161.499 357.062 156.113L357.089 156.086Z" fill="#404040" stroke="white" stroke-width="1.37052" stroke-miterlimit="10"/>
<path vector-effect="non-scaling-stroke" d="M310.259 184.851C309.272 189.168 306.75 195.24 300.227 202.983L329.898 210.959L333.092 193.883C333.092 193.883 348.126 207.122 356.377 201.585C362.16 197.707 361.201 189.963 360.721 180.589L361.461 180.904C363.366 181.74 365.354 179.89 364.655 177.916C363.517 174.764 361.968 171.502 360.776 169.172C360.817 168.734 360.858 168.295 360.913 167.857C362.654 153.11 346.879 140.775 339.835 138.034" fill="#404040"/>
<path vector-effect="non-scaling-stroke" d="M310.259 184.851C309.272 189.168 306.75 195.24 300.227 202.983L329.898 210.959L333.092 193.883C333.092 193.883 348.126 207.122 356.377 201.585C362.16 197.707 361.201 189.963 360.721 180.589L361.461 180.904C363.366 181.74 365.354 179.89 364.655 177.916C363.517 174.764 361.968 171.502 360.776 169.172C360.817 168.734 360.858 168.295 360.913 167.857C362.654 153.11 346.879 140.775 339.835 138.034" stroke="white" stroke-width="1.37052" stroke-miterlimit="10"/>
<path vector-effect="non-scaling-stroke" d="M360.159 184.592C352.635 184.592 351.114 178.274 351.1 178.206L351.854 178.027C351.909 178.26 353.266 183.811 360.159 183.811C360.187 183.811 360.228 183.811 360.255 183.811V184.578C360.255 184.578 360.2 184.578 360.159 184.578V184.592Z" fill="white" stroke="white" stroke-width="1.37052" stroke-miterlimit="10"/>
<path vector-effect="non-scaling-stroke" d="M309.861 185.304C310.725 185.4 314.466 180.562 315.289 180.562C332.639 180.562 338.779 156.523 339.821 153.782C349.785 155.55 356.733 152.754 356.802 152.713" fill="#404040"/>
<path vector-effect="non-scaling-stroke" d="M309.861 185.304C310.725 185.4 314.466 180.562 315.289 180.562C332.639 180.562 338.779 156.523 339.821 153.782C349.785 155.55 356.733 152.754 356.802 152.713" stroke="white" stroke-width="1.37052" stroke-miterlimit="10"/>
<path vector-effect="non-scaling-stroke" d="M356.802 152.713C356.281 152.042 352.43 146.889 348.414 143.49C346.989 142.284 346.605 141.79 343.699 140.338L340.78 138.885" fill="#404040"/>
<path vector-effect="non-scaling-stroke" d="M356.802 152.713C356.281 152.042 352.43 146.889 348.414 143.49C346.989 142.284 346.605 141.79 343.699 140.338L340.78 138.885" stroke="white" stroke-width="1.37052" stroke-miterlimit="10"/>
<path vector-effect="non-scaling-stroke" d="M333.366 458.051H365.518L329.555 267.426L311.163 309.624L333.366 458.065V458.051Z" fill="#020202" stroke="white" stroke-width="1.37052" stroke-miterlimit="10"/>
<path vector-effect="non-scaling-stroke" d="M366.011 458.464H333.023L332.968 458.107L310.752 309.53L329.706 266.029L366.011 458.45V458.464ZM333.708 457.641H365.038L329.405 268.77L311.588 309.667L333.708 457.641Z" fill="white"/>
<path vector-effect="non-scaling-stroke" d="M329.706 266.042L310.752 309.542L332.968 458.12L333.023 458.476H366.011L329.706 266.056V266.042ZM333.708 457.64L311.588 309.666L329.405 268.769L365.038 457.64H333.708Z" fill="white"/>
<path vector-effect="non-scaling-stroke" d="M362.64 275.663L334.763 214.963C322.264 187.772 284.081 191.829 277.092 221.103L220.435 458.052H333.365L330.816 297.674L343.206 307.994C348.578 315.052 354.129 319.671 361.79 320.383L362.64 275.65V275.663Z" fill="#020202" stroke="white" stroke-width="1.37052" stroke-miterlimit="10"/>
<path vector-effect="non-scaling-stroke" d="M333.365 362.76H306.572V403.327C306.572 414.291 315.083 423.186 325.553 423.186H333.352V362.773L333.365 362.76Z" fill="#404040" stroke="white" stroke-width="1.37052" stroke-miterlimit="10"/>
<path vector-effect="non-scaling-stroke" d="M333.763 423.611H325.553C314.863 423.611 306.174 414.511 306.174 403.341V362.362H333.763V423.611ZM306.969 363.198V403.327C306.969 414.045 315.302 422.775 325.553 422.775H332.954V363.198H306.969Z" fill="white"/>
<path vector-effect="non-scaling-stroke" d="M333.763 362.376H306.174V403.354C306.174 414.524 314.863 423.624 325.553 423.624H333.763V362.376ZM325.553 422.775C315.316 422.775 306.969 414.045 306.969 403.327V363.198H332.954V422.775H325.553Z" fill="white"/>
<path vector-effect="non-scaling-stroke" d="M482.053 255.394L455.835 259.765V264.124L482.053 259.765V255.394Z" fill="#404040" stroke="white" stroke-width="1.37052" stroke-miterlimit="10"/>
<path vector-effect="non-scaling-stroke" d="M455.739 173.602C458.548 172.546 467.128 168.517 469.704 170.71C470.732 171.573 470.746 173.095 470.527 174.424C470.225 176.165 468.855 176.548 468.361 177.467C468.841 176.37 471.568 176.178 472.637 177.508C473.706 178.837 473.487 180.865 472.583 182.304C471.678 183.744 470.212 184.744 468.8 185.703C470.17 185.525 471.322 186.992 471.335 188.376C471.335 189.76 470.54 191.021 469.704 192.117C463.797 199.861 455.383 202.177 446.68 205.329C445.556 205.74 429.535 211.579 429.535 211.551C428.438 208.728 421.764 195.009 421.764 195.009C421.764 195.009 428.918 190.062 431.782 187.8C435.126 185.169 438.388 182.565 442.02 180.331C443.486 179.426 452.6 174.794 455.78 173.615L455.739 173.602Z" fill="#404040" stroke="white" stroke-width="1.37052" stroke-miterlimit="10"/>
<path vector-effect="non-scaling-stroke" d="M470.047 145.726L476.708 142.066L477.324 149.632L464.538 173.369L451.764 197.106L448.132 195.147L444.487 193.2L457.274 169.463L470.047 145.726Z" fill="#A100FF" stroke="white" stroke-width="1.37052" stroke-miterlimit="10"/>
<path vector-effect="non-scaling-stroke" d="M453.984 194.695C453.806 194.695 453.628 194.654 453.45 194.558L445.707 190.337C445.172 190.049 444.966 189.364 445.268 188.829C445.556 188.295 446.241 188.089 446.776 188.391L454.519 192.612C455.053 192.9 455.259 193.585 454.958 194.119C454.752 194.489 454.368 194.695 453.984 194.695Z" fill="#A2A2A0" stroke="white" stroke-width="1.37052" stroke-miterlimit="10"/>
<path vector-effect="non-scaling-stroke" d="M440.128 181.523C440.581 180.906 441.842 179.166 442.294 178.549C444.199 176.014 446.405 173.561 449.297 172.217C451.559 171.176 454.121 170.477 456.465 169.641C457.849 169.147 459.466 168.764 460.618 169.668C463.811 172.163 460.261 176.836 457.822 178.275C456.109 179.276 454.19 179.865 452.436 180.769C450.202 181.934 449.818 184.045 448.338 186.06" fill="#404040"/>
<path vector-effect="non-scaling-stroke" d="M440.128 181.523C440.581 180.906 441.842 179.166 442.294 178.549C444.199 176.014 446.405 173.561 449.297 172.217C451.559 171.176 454.121 170.477 456.465 169.641C457.849 169.147 459.466 168.764 460.618 169.668C463.811 172.163 460.261 176.836 457.822 178.275C456.109 179.276 454.19 179.865 452.436 180.769C450.202 181.934 449.818 184.045 448.338 186.06" stroke="white" stroke-width="1.37052" stroke-miterlimit="10"/>
<path vector-effect="non-scaling-stroke" d="M421.736 188.239L437.881 217.993C437.881 217.993 413.239 268.14 348.441 263.769L322.223 222.996C322.223 222.996 353.772 237.235 421.736 188.253V188.239Z" fill="#020202" stroke="white" stroke-width="1.37052" stroke-miterlimit="10"/>
<path vector-effect="non-scaling-stroke" d="M490.797 329.662L442.006 337.214L443.459 266.317L481.998 259.519L492.976 257.573L490.797 329.662Z" fill="#A2A2A0" stroke="white" stroke-width="1.37052" stroke-miterlimit="10"/>
<path vector-effect="non-scaling-stroke" d="M476.612 303.595C475.296 302.21 473.048 302.567 471.198 303.019C468.306 303.732 465.415 304.458 462.536 305.171C463.811 304.691 470.39 301.676 471.5 300.908C475.926 297.852 474.008 293.932 467.854 295.084C466.223 295.385 463.564 296.632 462.029 297.263C461.495 297.482 457.438 299.538 454.026 300.908C449.215 302.827 442.732 303.211 442.732 303.211L442.595 294.933C442.595 294.933 421.394 303.978 416.569 305.363C415.267 305.87 415.171 322.658 415.898 324.193C422.682 324.454 429.904 324.372 436.689 324.084C443.664 323.782 450.572 323.056 457.479 322.097C460.07 321.74 462.674 321.247 465.168 320.438C467.32 319.739 470.006 319.013 471.911 317.752C473.364 316.793 474.501 315.148 474.378 313.407C474.296 312.201 473.418 310.968 472.212 310.899C473.775 310.269 475.269 309.721 476.365 308.364C477.461 307.021 477.777 304.855 476.584 303.595H476.612Z" fill="#404040" stroke="white" stroke-width="1.37052" stroke-miterlimit="10"/>
<path vector-effect="non-scaling-stroke" d="M472.227 310.885L459.179 314.489" stroke="white" stroke-width="1.37052" stroke-miterlimit="10"/>
<path vector-effect="non-scaling-stroke" d="M462.523 305.171L455.108 307.939" stroke="white" stroke-width="1.37052" stroke-miterlimit="10"/>
<path vector-effect="non-scaling-stroke" d="M333.146 212.058C333.146 212.058 363.928 277.39 374.015 283.311C384.115 289.245 430.713 290.698 430.713 290.698L427.794 334.39C427.794 334.39 369.972 332.005 354.827 324.454C339.683 316.916 297.444 265.933 297.444 265.933L333.132 212.044L333.146 212.058Z" fill="#020202" stroke="white" stroke-width="1.37052" stroke-miterlimit="10"/>
<path vector-effect="non-scaling-stroke" d="M324.279 212.085L331.694 211.345L333.146 212.496V217.197C333.146 217.197 325.142 252.652 325.142 253.803C325.142 254.955 308.395 275.608 307.668 277.897C306.942 280.186 298.184 310.748 298.184 310.748L288.906 301.826C288.906 301.826 288.015 251.501 288.015 250.363C288.015 249.226 324.293 212.098 324.293 212.098L324.279 212.085Z" fill="#020202"/>
<path vector-effect="non-scaling-stroke" d="M468.362 177.466C468.362 177.466 461.07 184.634 463.373 186.333C463.373 186.333 464.949 189.485 471.5 183.661" stroke="white" stroke-width="1.37052" stroke-miterlimit="10"/>
<path vector-effect="non-scaling-stroke" d="M465.675 187.305C465.675 187.305 458.891 193.376 461.194 195.076C461.194 195.076 462.77 198.228 469.321 192.403" stroke="white" stroke-width="1.37052" stroke-miterlimit="10"/>
<path vector-effect="non-scaling-stroke" d="M465.292 171.983C465.292 171.983 458.165 178.809 460.467 180.508C460.467 180.508 462.784 182.454 469.335 176.629" fill="#404040"/>
<path vector-effect="non-scaling-stroke" d="M465.292 171.983C465.292 171.983 458.165 178.809 460.467 180.508C460.467 180.508 462.784 182.454 469.335 176.629" stroke="white" stroke-width="1.37052" stroke-miterlimit="10"/>
</g>
<path vector-effect="non-scaling-stroke" d="M379.291 349.467H191.229Z" fill="#020202"/>
<path vector-effect="non-scaling-stroke" d="M379.291 349.467H191.229" stroke="white" stroke-width="1.37052" stroke-miterlimit="10"/>
<path vector-effect="non-scaling-stroke" d="M382.004 343.833C385.116 343.833 387.651 346.355 387.651 349.466C387.651 352.577 385.129 355.099 382.004 355.099C378.88 355.099 376.358 352.577 376.358 349.466C376.358 346.355 378.88 343.833 382.004 343.833Z" fill="#020202" stroke="white" stroke-width="1.37052" stroke-miterlimit="10"/>
<path vector-effect="non-scaling-stroke" d="M295.607 343.833C298.718 343.833 301.254 346.355 301.254 349.466C301.254 352.577 298.732 355.099 295.607 355.099C292.482 355.099 289.96 352.577 289.96 349.466C289.96 346.355 292.482 343.833 295.607 343.833Z" fill="#020202" stroke="white" stroke-width="1.37052" stroke-miterlimit="10"/>
<path vector-effect="non-scaling-stroke" d="M256.246 231.985H165.298Z" fill="#020202"/>
<path vector-effect="non-scaling-stroke" d="M256.246 231.985H165.298" stroke="white" stroke-width="1.37052" stroke-miterlimit="10"/>
<path vector-effect="non-scaling-stroke" d="M238.114 164.638H151.456Z" fill="#020202"/>
<path vector-effect="non-scaling-stroke" d="M238.114 164.638H151.456" stroke="white" stroke-width="1.37052" stroke-miterlimit="10"/>
<path vector-effect="non-scaling-stroke" d="M522.305 397.667L353.896 397.749Z" fill="#020202"/>
<path vector-effect="non-scaling-stroke" d="M522.305 397.667L353.896 397.749" stroke="white" stroke-width="1.37052" stroke-miterlimit="10"/>
<path vector-effect="non-scaling-stroke" d="M258.74 226.325C261.851 226.325 264.386 228.847 264.386 231.958C264.386 235.069 261.865 237.591 258.74 237.591C255.615 237.591 253.093 235.069 253.093 231.958C253.093 228.847 255.615 226.325 258.74 226.325Z" fill="#020202" stroke="white" stroke-width="1.37052" stroke-miterlimit="10"/>
<path vector-effect="non-scaling-stroke" d="M243.774 159.293C246.886 159.293 249.421 161.815 249.421 164.926C249.421 168.037 246.899 170.559 243.774 170.559C240.663 170.559 238.128 168.037 238.128 164.926C238.128 161.815 240.65 159.293 243.774 159.293Z" fill="#020202" stroke="white" stroke-width="1.37052" stroke-miterlimit="10"/>
<path vector-effect="non-scaling-stroke" d="M181.58 510.572C221.091 510.572 253.121 478.542 253.121 439.031C253.121 399.52 221.091 367.49 181.58 367.49C142.069 367.49 110.039 399.52 110.039 439.031C110.039 478.542 142.069 510.572 181.58 510.572Z" fill="#020202" stroke="white" stroke-width="1.37052" stroke-miterlimit="10"/>
<path vector-effect="non-scaling-stroke" d="M143.206 429.136C141.726 429.136 140.533 430.342 140.533 431.822V446.254C140.533 447.734 141.739 448.927 143.206 448.927H171.685V477.406C171.685 478.886 172.877 480.078 174.358 480.078H188.803C190.283 480.078 191.475 478.886 191.475 477.406V448.927H219.955C221.435 448.927 222.627 447.734 222.627 446.254V431.822C222.627 430.342 221.421 429.136 219.955 429.136H191.475V400.657C191.475 399.177 190.283 397.984 188.803 397.984H174.358C172.877 397.984 171.685 399.177 171.685 400.657V429.136H143.206Z" fill="#A100FF" stroke="white" stroke-width="1.37052" stroke-miterlimit="10"/>
<path vector-effect="non-scaling-stroke" d="M646.557 189.976L647.709 189.62C649.843 188.962 651.039 186.699 650.381 184.565L643.228 161.371C642.57 159.238 640.307 158.041 638.173 158.699L637.021 159.055C634.887 159.713 633.691 161.976 634.349 164.11L641.502 187.304C642.16 189.437 644.423 190.634 646.557 189.976Z" fill="#A100FF" stroke="white" stroke-width="1.37052" stroke-miterlimit="10"/>
<path vector-effect="non-scaling-stroke" d="M652.668 192.107C652.668 192.107 657.342 181.212 652.668 174.647C652.668 174.647 648.351 171.783 646.789 185.364C646.789 185.364 635.03 175.867 634.523 168.425C634.523 168.425 626.08 173.098 629.013 181.568C629.013 181.568 630.438 186.475 640.539 199.44" fill="#404040"/>
<path vector-effect="non-scaling-stroke" d="M652.668 192.107C652.668 192.107 657.342 181.212 652.668 174.647C652.668 174.647 648.351 171.783 646.789 185.364C646.789 185.364 635.03 175.867 634.523 168.425C634.523 168.425 626.08 173.098 629.013 181.568C629.013 181.568 630.438 186.475 640.539 199.44" stroke="white" stroke-width="1.37052" stroke-miterlimit="10"/>
<path vector-effect="non-scaling-stroke" d="M635.564 181.952C635.564 181.952 629.863 175.414 630.726 171.741Z" fill="white"/>
<path vector-effect="non-scaling-stroke" d="M635.564 181.952C635.564 181.952 629.863 175.414 630.726 171.741" stroke="white" stroke-width="1.37052" stroke-miterlimit="10"/>
<path vector-effect="non-scaling-stroke" d="M784.937 478.025L801.15 503.092C801.15 503.092 790.501 516.976 774 516.976C757.499 516.976 749.016 516.976 749.016 516.976C749.016 516.976 748.55 509.273 755.649 504.175C762.748 499.077 762.131 494.293 761.665 489.812C761.199 485.33 784.937 478.039 784.937 478.039V478.025Z" fill="#404040" stroke="white" stroke-width="1.37052" stroke-miterlimit="10"/>
<path vector-effect="non-scaling-stroke" d="M741.259 485.096V516.961H694.236C694.236 516.961 693.017 509.56 702.596 502.666C710.683 496.842 714.78 491.935 716.178 485.096C717.576 478.244 741.259 485.096 741.259 485.096Z" fill="#404040" stroke="white" stroke-width="1.37052" stroke-miterlimit="10"/>
<path vector-effect="non-scaling-stroke" d="M704.131 366.423H754.32V485.096H704.131V366.423Z" fill="#202020" stroke="white" stroke-width="1.37052" stroke-miterlimit="10"/>
<path vector-effect="non-scaling-stroke" d="M705.049 290.634L690.727 388.653C688.562 401.317 691.673 414.309 699.348 424.602L754.32 498.322L796.381 470.432L736.105 381.732L758.116 308.999L705.049 290.634Z" fill="#202020" stroke="white" stroke-width="1.37052" stroke-miterlimit="10"/>
<path vector-effect="non-scaling-stroke" d="M741.259 516.975H694.236C694.236 516.975 693.263 510.999 700.006 504.791H741.259V516.975Z" fill="#020202" stroke="white" stroke-width="1.37052" stroke-miterlimit="10"/>
<path vector-effect="non-scaling-stroke" d="M754.484 505.092C779.606 509.793 795.12 493.73 795.12 493.73L801.164 503.077C801.164 503.077 790.515 516.961 774.014 516.961C757.513 516.961 749.03 516.961 749.03 516.961C749.03 516.961 748.618 510.136 754.484 505.092Z" fill="#020202" stroke="white" stroke-width="1.37052" stroke-miterlimit="10"/>
<path vector-effect="non-scaling-stroke" d="M703.83 365.807H680.202L706.626 231.675L720.125 261.36L703.83 365.807Z" fill="#404040" stroke="white" stroke-width="1.37052" stroke-miterlimit="10"/>
<path vector-effect="non-scaling-stroke" d="M707.05 190.037L704.611 177.017C704.611 177.017 694.976 180.388 690.056 178.908C685.657 175.948 683.217 174.016 683.587 166.889L683.025 167.136C681.572 167.766 680.065 166.354 680.599 164.86C681.463 162.448 682.641 159.968 683.546 158.2C683.519 157.871 683.478 157.528 683.436 157.199C682.107 145.947 692.112 139.478 697.471 137.382C702.829 135.285 710.326 131.954 717.233 137.121C724.25 142.384 718.357 154.198 722.003 170.137C722.757 173.426 724.675 178.059 729.65 183.966L707.064 190.051L707.05 190.037Z" fill="#404040" stroke="white" stroke-width="1.37052" stroke-miterlimit="10"/>
<path vector-effect="non-scaling-stroke" d="M685.903 145.948C689.645 140.425 695.607 137.779 697.347 137.094L698.101 136.793C703.405 134.709 710.669 131.845 717.384 136.875C721.496 139.945 721.304 145.249 721.084 151.964C720.961 155.624 720.81 159.763 721.304 164.326L721.331 164.614L721.043 164.642C720.385 164.71 719.741 164.751 719.125 164.751C705.913 164.751 700.828 149.593 698.923 147.551C691.344 148.894 686.081 146.4 686.027 146.373L685.725 146.222L685.917 145.948H685.903Z" fill="#A2A2A0" stroke="white" stroke-width="1.37052" stroke-miterlimit="10"/>
<path vector-effect="non-scaling-stroke" d="M722.702 181.91H701.432L702.802 194.766L722.716 181.91H722.702Z" fill="white" stroke="white" stroke-width="1.37052" stroke-miterlimit="10"/>
<path vector-effect="non-scaling-stroke" d="M701.432 153.925C701.432 153.925 705.214 149.635 708.476 152.28C712.615 155.638 708.476 160.846 706.352 161.436" fill="white"/>
<path vector-effect="non-scaling-stroke" d="M701.432 153.925C701.432 153.925 705.214 149.635 708.476 152.28C712.615 155.638 708.476 160.846 706.352 161.436" stroke="white" stroke-width="1.37052" stroke-miterlimit="10"/>
<path vector-effect="non-scaling-stroke" d="M701.432 153.925C701.432 153.925 705.214 149.635 708.476 152.28C712.615 155.638 708.476 160.846 706.352 161.436" stroke="white" stroke-width="1.37052" stroke-miterlimit="10"/>
<path vector-effect="non-scaling-stroke" d="M683.437 170.754C688.919 170.754 690.042 166.136 690.042 166.095" stroke="white" stroke-width="1.37052" stroke-miterlimit="10"/>
<path vector-effect="non-scaling-stroke" d="M701.226 247.504L703.816 365.807H786.774L745.151 199.097C741.3 183.665 722.263 176.73 709.504 186.433C705.241 189.681 702.925 194.437 699.554 198.384C697.005 201.358 694.318 204.223 691.701 207.128L679.256 220.998L679.215 221.039L658.438 188.681L632.207 205.292L658.52 252.341C665.921 266.143 684.999 267.869 694.757 255.617L701.212 247.504H701.226Z" fill="#020202" stroke="white" stroke-width="1.37052" stroke-miterlimit="10"/>
<path vector-effect="non-scaling-stroke" d="M701.226 247.503L712.066 235.635" stroke="white" stroke-width="1.37052" stroke-miterlimit="10"/>
<path vector-effect="non-scaling-stroke" d="M699.17 150.224L680.202 151.416C680.202 151.416 685.808 123.649 718.289 132.311C718.289 132.311 739.395 141.192 740.395 168.424L701.431 174.372L699.17 150.237V150.224Z" fill="#A2A2A0" stroke="white" stroke-width="1.37052" stroke-miterlimit="10"/>
<path vector-effect="non-scaling-stroke" d="M613.554 83.6698C621.27 75.9538 633.797 75.9538 641.527 83.6698C649.243 91.3858 649.243 103.912 641.527 111.642L613.554 139.614L585.582 111.642C577.866 103.926 577.866 91.3996 585.582 83.6698C593.298 75.9538 605.824 75.9538 613.554 83.6698Z" fill="#A100FF" stroke="white" stroke-width="1.37052" stroke-miterlimit="10"/>
<path vector-effect="non-scaling-stroke" d="M95.2782 96.9502H60.0833C27.2786 96.9502 0.685059 123.544 0.685059 156.348V235.085C0.685059 267.889 27.2786 294.483 60.0833 294.483H95.2782C128.083 294.483 154.677 267.889 154.677 235.085V156.348C154.677 123.544 128.083 96.9502 95.2782 96.9502Z" fill="#202020" stroke="white" stroke-width="1.37052" stroke-linecap="round" stroke-linejoin="round"/>
<path vector-effect="non-scaling-stroke" d="M58.151 155.896C55.2866 155.855 52.3674 156.389 49.5441 157.54C38.2511 162.145 32.8375 175.028 37.4425 186.321C44.7336 204.207 77.6809 226.519 77.6809 226.519C77.6809 226.519 110.614 204.193 117.919 186.321C122.524 175.028 117.097 162.145 105.818 157.54C95.0042 153.127 82.7381 157.938 77.6809 168.285C73.9394 160.638 66.2782 156.005 58.151 155.909V155.896Z" fill="#A100FF" stroke="white" stroke-width="1.37052" stroke-miterlimit="10"/>
<path vector-effect="non-scaling-stroke" d="M15.542 195.958H55.6982L62.4 184.404L70.3079 205.743L81.4639 177.524L88.2069 195.958H139.821" stroke="white" stroke-width="1.37052" stroke-linecap="round" stroke-linejoin="round"/>
<path vector-effect="non-scaling-stroke" d="M16.1992 123.498H85.2322" stroke="white" stroke-width="1.37052" stroke-linecap="round" stroke-linejoin="round"/>
<path vector-effect="non-scaling-stroke" d="M16.1992 129.762H63.9892" stroke="white" stroke-width="1.37052" stroke-linecap="round" stroke-linejoin="round"/>
<path vector-effect="non-scaling-stroke" d="M16.1997 136.023H27.8765" stroke="white" stroke-width="1.37052" stroke-linecap="round" stroke-linejoin="round"/>
<path vector-effect="non-scaling-stroke" d="M37.4429 136.023H49.1197" stroke="white" stroke-width="1.37052" stroke-linecap="round" stroke-linejoin="round"/>
<path vector-effect="non-scaling-stroke" d="M60.8105 136.023H73.5427" stroke="white" stroke-width="1.37052" stroke-linecap="round" stroke-linejoin="round"/>
<path vector-effect="non-scaling-stroke" d="M84.1636 136.023H96.9094" stroke="white" stroke-width="1.37052" stroke-linecap="round" stroke-linejoin="round"/>
<path vector-effect="non-scaling-stroke" d="M108.6 136.023H119.208" stroke="white" stroke-width="1.37052" stroke-linecap="round" stroke-linejoin="round"/>
<path vector-effect="non-scaling-stroke" d="M15.144 249.763H62.934" stroke="white" stroke-width="1.37052" stroke-linecap="round" stroke-linejoin="round"/>
<path vector-effect="non-scaling-stroke" d="M70.3623 249.874H118.152" stroke="white" stroke-width="1.37052" stroke-linecap="round" stroke-linejoin="round"/>
<path vector-effect="non-scaling-stroke" d="M15.144 263.674H62.934" stroke="white" stroke-width="1.37052" stroke-linecap="round" stroke-linejoin="round"/>
<path vector-effect="non-scaling-stroke" d="M15.144 256.04H26.8209" stroke="white" stroke-width="1.37052" stroke-linecap="round" stroke-linejoin="round"/>
<path vector-effect="non-scaling-stroke" d="M36.373 256.04H48.0636" stroke="white" stroke-width="1.37052" stroke-linecap="round" stroke-linejoin="round"/>
<path vector-effect="non-scaling-stroke" d="M59.7407 256.04H72.4865" stroke="white" stroke-width="1.37052" stroke-linecap="round" stroke-linejoin="round"/>
<path vector-effect="non-scaling-stroke" d="M83.1079 256.04H95.8537" stroke="white" stroke-width="1.37052" stroke-linecap="round" stroke-linejoin="round"/>
<path vector-effect="non-scaling-stroke" d="M107.531 256.04H118.152" stroke="white" stroke-width="1.37052" stroke-linecap="round" stroke-linejoin="round"/>
<path vector-effect="non-scaling-stroke" d="M240.965 109.436C248.475 109.436 254.533 104.05 254.533 97.3617V30.9463C254.533 24.2582 248.489 18.8721 240.965 18.8721H139.245C131.734 18.8721 125.677 24.2582 125.677 30.9463V97.3617C125.677 104.05 131.721 109.436 139.245 109.436V133.584L166.367 109.436H240.965Z" fill="black" stroke="white" stroke-width="1.37052" stroke-miterlimit="10"/>
<path vector-effect="non-scaling-stroke" d="M527.951 392.037C531.062 392.037 533.598 394.559 533.598 397.67C533.598 400.781 531.076 403.303 527.951 403.303C524.826 403.303 522.305 400.781 522.305 397.67C522.305 394.559 524.826 392.037 527.951 392.037Z" fill="#020202" stroke="white" stroke-width="1.37052" stroke-miterlimit="10"/>
<path vector-effect="non-scaling-stroke" d="M82.4914 358.912C89.9196 345.851 85.3421 329.241 72.2673 321.813C59.2063 314.384 42.5956 318.962 35.1674 332.037C30.6173 340.054 30.5899 349.415 34.2628 357.158H34.2354C36.3734 361.558 36.3734 366.93 33.7695 371.521C31.7137 375.139 28.2326 377.73 24.5185 378.84C24.3266 378.895 24.1347 378.936 23.9565 378.991C23.888 379.004 23.8332 379.032 23.7647 379.045C19.1871 380.416 15.1167 383.486 12.5675 387.967C7.31845 397.205 10.5529 408.95 19.7902 414.199C29.0275 419.448 40.7728 416.214 46.0219 406.977C48.5711 402.495 49.1056 397.424 47.9543 392.792C47.9543 392.792 47.9132 392.668 47.8995 392.6C47.8447 392.408 47.8036 392.23 47.7487 392.038C46.8031 388.283 47.2417 383.966 49.2974 380.347C51.9014 375.756 56.5064 373.015 61.3991 372.577H61.3717C69.91 371.754 77.9276 366.93 82.4777 358.912H82.4914Z" fill="#A100FF" stroke="white" stroke-width="1.37052" stroke-miterlimit="10"/>
<path vector-effect="non-scaling-stroke" d="M81.0529 412.335C88.9779 412.335 95.4023 405.911 95.4023 397.986C95.4023 390.061 88.9779 383.637 81.0529 383.637C73.128 383.637 66.7036 390.061 66.7036 397.986C66.7036 405.911 73.128 412.335 81.0529 412.335Z" fill="#A100FF" stroke="white" stroke-width="1.37052" stroke-miterlimit="10"/>
<path vector-effect="non-scaling-stroke" d="M278.599 29.96H238.237V82.3138H278.599V29.96Z" fill="black" stroke="black" stroke-width="1.37052" stroke-linecap="round" stroke-linejoin="round"/>
<path vector-effect="non-scaling-stroke" d="M150.688 55.8473C153.717 61.6994 157.171 66.6058 160.967 70.4844C165.078 74.6919 170.451 76.8025 175.81 76.734C180.195 76.6791 184.567 75.1579 188.199 72.129C193.174 67.9626 197.354 62.1379 200.616 54.8057" stroke="white" stroke-width="1.37052" stroke-linecap="round" stroke-linejoin="round"/>
<path vector-effect="non-scaling-stroke" d="M150.688 54.6003C153.662 48.7207 157.061 43.7869 160.83 39.8535C164.9 35.6049 170.259 33.4532 175.604 33.4669C179.99 33.4806 184.375 34.9607 188.035 37.9622C193.051 42.0737 197.272 47.8573 200.602 55.1622" stroke="white" stroke-width="1.37052" stroke-linecap="round" stroke-linejoin="round"/>
<path vector-effect="non-scaling-stroke" d="M227.232 76.7888C222.846 76.7751 216.816 74.9934 213.17 72.0057C208.154 67.8941 203.933 62.1105 200.603 54.8057" stroke="white" stroke-width="1.37052" stroke-linecap="round" stroke-linejoin="round"/>
<path vector-effect="non-scaling-stroke" d="M227.095 33.2891C222.709 33.3439 216.542 34.5773 212.924 37.6062C207.949 41.7726 203.769 47.5973 200.507 54.9295" stroke="white" stroke-width="1.37052" stroke-linecap="round" stroke-linejoin="round"/>
<path vector-effect="non-scaling-stroke" d="M125.813 76.9674C130.199 76.9125 134.571 75.3913 138.203 72.3624C143.178 68.196 147.358 62.3713 150.62 55.0391" stroke="white" stroke-width="1.37052" stroke-linecap="round" stroke-linejoin="round"/>
<path vector-effect="non-scaling-stroke" d="M125.677 33.4668C130.062 33.4805 134.448 34.9607 138.107 37.9621C143.123 42.0737 147.345 47.8572 150.675 55.1621" stroke="white" stroke-width="1.37052" stroke-linecap="round" stroke-linejoin="round"/>
<path vector-effect="non-scaling-stroke" d="M176.756 70.4854L176.783 76.2963" stroke="white" stroke-width="1.37052" stroke-linecap="round" stroke-linejoin="round"/>
<path vector-effect="non-scaling-stroke" d="M176.591 33.7822L176.742 66.8802" stroke="white" stroke-width="1.37052" stroke-linecap="round" stroke-linejoin="round"/>
<path vector-effect="non-scaling-stroke" d="M184.554 61.083L184.567 65.5235" stroke="white" stroke-width="1.37052" stroke-linecap="round" stroke-linejoin="round"/>
<path vector-effect="non-scaling-stroke" d="M184.431 35.7832L184.54 57.4648" stroke="white" stroke-width="1.37052" stroke-linecap="round" stroke-linejoin="round"/>
<path vector-effect="non-scaling-stroke" d="M191.928 55.5869L191.941 58.2457" stroke="white" stroke-width="1.37052" stroke-linecap="round" stroke-linejoin="round"/>
<path vector-effect="non-scaling-stroke" d="M191.873 42.0332L191.914 51.9009" stroke="white" stroke-width="1.37052" stroke-linecap="round" stroke-linejoin="round"/>
<path vector-effect="non-scaling-stroke" d="M208.072 53.9424L208.086 56.8342" stroke="white" stroke-width="1.37052" stroke-linecap="round" stroke-linejoin="round"/>
<path vector-effect="non-scaling-stroke" d="M208.031 43.1973L208.059 50.7625" stroke="white" stroke-width="1.37052" stroke-linecap="round" stroke-linejoin="round"/>
<path vector-effect="non-scaling-stroke" d="M215.925 57.959L215.953 61.7553" stroke="white" stroke-width="1.37052" stroke-linecap="round" stroke-linejoin="round"/>
<path vector-effect="non-scaling-stroke" d="M215.83 36.7021L215.912 54.4641" stroke="white" stroke-width="1.37052" stroke-linecap="round" stroke-linejoin="round"/>
<path vector-effect="non-scaling-stroke" d="M134.681 51.4209L134.79 73.8563" stroke="white" stroke-width="1.37052" stroke-linecap="round" stroke-linejoin="round"/>
<path vector-effect="non-scaling-stroke" d="M142.123 58.4932L142.164 68.0183" stroke="white" stroke-width="1.37052" stroke-linecap="round" stroke-linejoin="round"/>
<path vector-effect="non-scaling-stroke" d="M142.095 51.5039L142.109 55.2043" stroke="white" stroke-width="1.37052" stroke-linecap="round" stroke-linejoin="round"/>
<path vector-effect="non-scaling-stroke" d="M161.543 49.4209L161.639 70.3624" stroke="white" stroke-width="1.37052" stroke-linecap="round" stroke-linejoin="round"/>
<path vector-effect="non-scaling-stroke" d="M252.107 55.6559C255.136 61.508 258.59 66.4144 262.386 70.293C266.498 74.5005 271.87 76.6111 277.229 76.5426C281.615 76.4877 285.987 74.9665 289.619 71.9376C294.594 67.7712 298.774 61.9465 302.035 54.6143" stroke="white" stroke-width="1.37052" stroke-linecap="round" stroke-linejoin="round"/>
<path vector-effect="non-scaling-stroke" d="M252.107 54.4215C255.081 48.542 258.48 43.6082 262.249 39.6748C266.32 35.4262 271.678 33.2744 277.023 33.2882C281.409 33.3019 285.795 34.782 289.454 37.7834C294.47 41.895 298.691 47.6786 302.022 54.9835" stroke="white" stroke-width="1.37052" stroke-linecap="round" stroke-linejoin="round"/>
<path vector-effect="non-scaling-stroke" d="M327.006 76.3096C322.62 76.2959 318.235 74.8157 314.575 71.8143C309.559 67.7027 305.338 61.9191 302.008 54.6143" stroke="white" stroke-width="1.37052" stroke-linecap="round" stroke-linejoin="round"/>
<path vector-effect="non-scaling-stroke" d="M326.732 32.8096C322.346 32.8644 317.974 34.3857 314.342 37.4145C309.367 41.5809 305.187 47.4056 301.925 54.7379" stroke="white" stroke-width="1.37052" stroke-linecap="round" stroke-linejoin="round"/>
<path vector-effect="non-scaling-stroke" d="M227.232 76.7886C231.618 76.7338 235.99 75.2126 239.622 72.1837C244.597 68.0173 248.777 62.1926 252.039 54.8604" stroke="white" stroke-width="1.37052" stroke-linecap="round" stroke-linejoin="round"/>
<path vector-effect="non-scaling-stroke" d="M227.095 33.2891C231.481 33.3028 235.867 34.7829 239.526 37.7844C244.542 41.8959 248.763 47.6795 252.093 54.9844" stroke="white" stroke-width="1.37052" stroke-linecap="round" stroke-linejoin="round"/>
<path vector-effect="non-scaling-stroke" d="M352.511 55.3267C355.54 61.1789 358.994 66.0853 362.79 69.9639C366.902 74.1714 372.274 76.282 377.633 76.2135C382.019 76.1586 386.39 74.6374 390.022 71.6085C394.997 67.4421 399.177 61.6174 402.439 54.2852" stroke="white" stroke-width="1.37052" stroke-linecap="round" stroke-linejoin="round"/>
<path vector-effect="non-scaling-stroke" d="M352.511 54.0934C355.485 48.2139 358.884 43.28 362.653 39.3466C366.723 35.098 372.082 32.9463 377.427 32.96C381.813 32.9737 386.199 34.4539 389.858 37.4553C394.874 41.5669 399.095 47.3505 402.426 54.6553" stroke="white" stroke-width="1.37052" stroke-linecap="round" stroke-linejoin="round"/>
<path vector-effect="non-scaling-stroke" d="M426.204 75.4323C426.204 75.4323 419.68 74.3084 414.979 71.4852C409.429 68.1411 405.742 61.59 402.412 54.2852" stroke="white" stroke-width="1.37052" stroke-linecap="round" stroke-linejoin="round"/>
<path vector-effect="non-scaling-stroke" d="M426.204 31.6855C421.818 31.7404 418.364 34.0565 414.746 37.0854C409.771 41.2518 405.591 47.0765 402.329 54.4087" stroke="white" stroke-width="1.37052" stroke-linecap="round" stroke-linejoin="round"/>
<path vector-effect="non-scaling-stroke" d="M327.636 76.4605C332.022 76.4057 336.394 74.8844 340.026 71.8556C345.001 67.6892 349.181 61.8645 352.443 54.5322" stroke="white" stroke-width="1.37052" stroke-linecap="round" stroke-linejoin="round"/>
<path vector-effect="non-scaling-stroke" d="M327.499 32.96C331.885 32.9737 336.27 34.4538 339.93 37.4553C344.946 41.5668 349.167 47.3504 352.497 54.6553" stroke="white" stroke-width="1.37052" stroke-linecap="round" stroke-linejoin="round"/>
<path vector-effect="non-scaling-stroke" d="M136.147 86.1377H174.878" stroke="white" stroke-width="1.37052" stroke-linecap="round" stroke-linejoin="round"/>
<path vector-effect="non-scaling-stroke" d="M136.147 93.0459H162.968" stroke="white" stroke-width="1.37052" stroke-linecap="round" stroke-linejoin="round"/>
<path vector-effect="non-scaling-stroke" d="M136.147 99.9521H142.698" stroke="white" stroke-width="1.37052" stroke-linecap="round" stroke-linejoin="round"/>
</g>
<defs>
<clipPath id="clip0_21_15587">
<rect width="802" height="517.659" fill="white"/>
</clipPath>
</defs>
</svg>
