<svg width="802" height="535" viewBox="0 0 802 535" fill="none" xmlns="http://www.w3.org/2000/svg">
<g clip-path="url(#clip0_21_15588)">
<path vector-effect="non-scaling-stroke" d="M460.175 72.4793C538.648 -5.99361 665.15 -6.71718 742.749 70.882C820.335 148.468 819.625 274.983 741.152 353.456C662.679 431.929 536.164 432.625 458.578 355.039C380.979 277.44 381.702 150.939 460.162 72.4657L460.175 72.4793Z" fill="#020202" stroke="white" stroke-width="1.36522" stroke-miterlimit="10"/>
<path vector-effect="non-scaling-stroke" d="M501.46 4.96875L304.978 218.64L511.822 425.484L646.747 121.804L501.46 4.96875Z" fill="#020202"/>
<path vector-effect="non-scaling-stroke" d="M652.781 360.268L611.456 463.752L525.16 397.58L607.633 315.106L652.795 360.268H652.781Z" fill="#020202"/>
<path vector-effect="non-scaling-stroke" d="M767.787 97.7495V55.332H725.37V97.7495H767.787Z" fill="#020202" stroke="white" stroke-width="1.36522" stroke-miterlimit="10"/>
<path vector-effect="non-scaling-stroke" d="M767.787 140.154V97.7363H725.37V140.154H767.787Z" fill="#404040"/>
<path vector-effect="non-scaling-stroke" d="M725.384 97.7495V55.332H682.966V97.7495H725.384Z" fill="#202020"/>
<path vector-effect="non-scaling-stroke" d="M682.966 140.167V97.75H640.548V140.167H682.966Z" fill="#202020" stroke="white" stroke-width="1.36522" stroke-miterlimit="10"/>
<path vector-effect="non-scaling-stroke" d="M767.787 140.154V97.7363H725.37V140.154H767.787Z" stroke="white" stroke-width="1.36522" stroke-miterlimit="10"/>
<path vector-effect="non-scaling-stroke" d="M725.384 97.7495V55.332H682.966V97.7495H725.384Z" stroke="white" stroke-width="1.36522" stroke-miterlimit="10"/>
<path vector-effect="non-scaling-stroke" d="M725.37 55.3452V12.9277L682.952 12.9277V55.3452H725.37Z" fill="#020202" stroke="white" stroke-width="1.36522" stroke-miterlimit="10"/>
<path vector-effect="non-scaling-stroke" d="M725.37 140.167V97.75H682.952V140.167H725.37Z" stroke="white" stroke-width="1.36522" stroke-miterlimit="10"/>
<path vector-effect="non-scaling-stroke" d="M725.384 139.892V182.31H767.801V139.892H725.384Z" fill="#202020" stroke="white" stroke-width="1.36522" stroke-miterlimit="10"/>
<path vector-effect="non-scaling-stroke" d="M725.37 21.9925C730.369 21.9925 734.422 17.9339 734.422 12.9274C734.422 7.92088 730.369 3.8623 725.37 3.8623C720.371 3.8623 716.319 7.92088 716.319 12.9274C716.319 17.9339 720.371 21.9925 725.37 21.9925Z" fill="#020202" stroke="white" stroke-width="1.36522" stroke-miterlimit="10"/>
<path vector-effect="non-scaling-stroke" d="M767.788 106.813C772.786 106.813 776.839 102.754 776.839 97.7477C776.839 92.7412 772.786 88.6826 767.788 88.6826C762.789 88.6826 758.736 92.7412 758.736 97.7477C758.736 102.754 762.789 106.813 767.788 106.813Z" fill="#020202" stroke="white" stroke-width="1.36522" stroke-miterlimit="10"/>
<path vector-effect="non-scaling-stroke" d="M346.262 373.061C389.649 384.419 415.601 428.803 404.243 472.19C392.884 515.576 348.501 541.557 305.128 530.198C261.741 518.839 235.788 474.456 247.147 431.069C258.505 387.682 302.889 361.702 346.262 373.061Z" fill="#020202" stroke="white" stroke-width="1.36522" stroke-miterlimit="10"/>
<path vector-effect="non-scaling-stroke" d="M210.135 486.851L409.089 473.881L424.243 361.046L209.425 362.288L210.135 486.851Z" fill="#020202"/>
<path vector-effect="non-scaling-stroke" d="M359.873 393.32C317.947 483.397 211.774 522.825 122.693 481.363C33.6396 439.915 -4.58666 333.277 37.3257 243.214C79.2517 153.136 185.439 113.722 274.506 155.17C363.587 196.632 401.799 303.242 359.873 393.32Z" fill="#020202" stroke="white" stroke-width="1.36522" stroke-miterlimit="10"/>
<path vector-effect="non-scaling-stroke" d="M33.667 219.485L207.815 112.916L476.45 246.08L393.103 509.69H333.129L267.53 504.352L33.667 219.485Z" fill="#020202"/>
<path vector-effect="non-scaling-stroke" d="M54.8003 186.338L153.629 115.688L205.466 139.811L132.249 275.282L54.8003 186.338Z" fill="#020202"/>
<path vector-effect="non-scaling-stroke" d="M467.03 328.172H362.372L377.239 283.174H481.897L467.03 328.172Z" fill="#202020" stroke="white" stroke-width="1.36522" stroke-miterlimit="10"/>
<path vector-effect="non-scaling-stroke" d="M402.605 283.174L387.737 328.172" stroke="white" stroke-width="1.36522" stroke-miterlimit="10"/>
<path vector-effect="non-scaling-stroke" d="M429.567 283.174L414.7 328.172" stroke="white" stroke-width="1.36522" stroke-miterlimit="10"/>
<path vector-effect="non-scaling-stroke" d="M456.531 283.174L441.664 328.172" stroke="white" stroke-width="1.36522" stroke-miterlimit="10"/>
<path vector-effect="non-scaling-stroke" d="M447.616 386.904H342.972L357.839 341.906H462.484L447.616 386.904Z" fill="#202020" stroke="white" stroke-width="1.36522" stroke-miterlimit="10"/>
<path vector-effect="non-scaling-stroke" d="M383.191 341.906L368.324 386.904" stroke="white" stroke-width="1.36522" stroke-miterlimit="10"/>
<path vector-effect="non-scaling-stroke" d="M410.155 341.906L395.301 386.904" stroke="white" stroke-width="1.36522" stroke-miterlimit="10"/>
<path vector-effect="non-scaling-stroke" d="M437.131 341.906L422.264 386.904" stroke="white" stroke-width="1.36522" stroke-miterlimit="10"/>
<path vector-effect="non-scaling-stroke" d="M428.216 445.635H323.558L338.425 400.638H443.083L428.216 445.635Z" fill="#202020" stroke="white" stroke-width="1.36522" stroke-miterlimit="10"/>
<path vector-effect="non-scaling-stroke" d="M363.791 400.638L348.924 445.635" stroke="white" stroke-width="1.36522" stroke-miterlimit="10"/>
<path vector-effect="non-scaling-stroke" d="M390.755 400.638L375.887 445.635" stroke="white" stroke-width="1.36522" stroke-miterlimit="10"/>
<path vector-effect="non-scaling-stroke" d="M417.717 400.638L402.85 445.635" stroke="white" stroke-width="1.36522" stroke-miterlimit="10"/>
<path vector-effect="non-scaling-stroke" d="M408.816 504.368H304.158L319.025 459.37H423.683L408.816 504.368Z" fill="#202020" stroke="white" stroke-width="1.36522" stroke-miterlimit="10"/>
<path vector-effect="non-scaling-stroke" d="M344.378 459.37L329.524 504.368" stroke="white" stroke-width="1.36522" stroke-miterlimit="10"/>
<path vector-effect="non-scaling-stroke" d="M371.355 459.37L356.487 504.368" stroke="white" stroke-width="1.36522" stroke-miterlimit="10"/>
<path vector-effect="non-scaling-stroke" d="M398.318 459.37L383.451 504.368" stroke="white" stroke-width="1.36522" stroke-miterlimit="10"/>
<path vector-effect="non-scaling-stroke" d="M369.375 305.674H474.456" stroke="white" stroke-width="1.36522" stroke-miterlimit="10"/>
<path vector-effect="non-scaling-stroke" d="M330.999 423.137H436.08" stroke="white" stroke-width="1.36522" stroke-miterlimit="10"/>
<path vector-effect="non-scaling-stroke" d="M311.804 481.868H416.899" stroke="white" stroke-width="1.36522" stroke-miterlimit="10"/>
<path vector-effect="non-scaling-stroke" d="M377.239 283.174L369.375 305.673H395.164L402.605 283.174H377.239Z" fill="#9F00FF" stroke="white" stroke-width="1.36522" stroke-miterlimit="10"/>
<path vector-effect="non-scaling-stroke" d="M363.914 481.868L356.487 504.367H383.45L390.877 481.868H363.914Z" fill="#9F00FF" stroke="white" stroke-width="1.36522" stroke-miterlimit="10"/>
<path vector-effect="non-scaling-stroke" d="M350.18 364.405H455.275" stroke="white" stroke-width="1.36522" stroke-miterlimit="10"/>
<path vector-effect="non-scaling-stroke" d="M653.191 48.2881H659.649L655.935 78.8554H650.27" fill="black"/>
<path vector-effect="non-scaling-stroke" d="M653.191 48.2881H659.649L655.935 78.8554H650.27" stroke="white" stroke-width="1.36522" stroke-miterlimit="10"/>
<path vector-effect="non-scaling-stroke" d="M513.952 185.807L471.562 395.505L633.9 270.15L614.282 180.373L513.952 185.807Z" fill="#202020"/>
<path vector-effect="non-scaling-stroke" d="M513.952 185.807L471.562 395.505L633.9 270.15L614.282 180.373L513.952 185.807Z" stroke="white" stroke-width="1.36522" stroke-miterlimit="10"/>
<path vector-effect="non-scaling-stroke" d="M483.303 210.694L507.29 13.2279C508.164 6.08776 514.253 0.736096 521.434 0.804357L644.7 1.21392C653.137 1.28218 659.786 9.20047 658.762 17.5693L635.307 210.707H483.303V210.694Z" fill="black"/>
<path vector-effect="non-scaling-stroke" d="M657.245 30.1025H505.228L485.964 183.635H637.504L657.245 30.1025Z" fill="#414040"/>
<path vector-effect="non-scaling-stroke" d="M569.147 117.654C583.797 117.654 595.674 105.778 595.674 91.1278C595.674 76.4778 583.797 64.6016 569.147 64.6016C554.497 64.6016 542.621 76.4778 542.621 91.1278C542.621 105.778 554.497 117.654 569.147 117.654Z" fill="#931CF5"/>
<path vector-effect="non-scaling-stroke" d="M569.147 117.654C583.797 117.654 595.674 105.778 595.674 91.1278C595.674 76.4778 583.797 64.6016 569.147 64.6016C554.497 64.6016 542.621 76.4778 542.621 91.1278C542.621 105.778 554.497 117.654 569.147 117.654Z" stroke="white" stroke-width="1.36522" stroke-miterlimit="10"/>
<path vector-effect="non-scaling-stroke" d="M506.524 126.241C506.524 126.241 511.576 87.9871 548.682 87.3727C585.789 86.7584 627.961 124.998 652.043 72.9014" stroke="white" stroke-width="1.36522" stroke-miterlimit="10"/>
<path vector-effect="non-scaling-stroke" d="M483.303 210.694L507.29 13.228C508.164 6.08792 514.253 0.736249 521.434 0.804511L644.782 0.681641C653.219 0.749902 659.785 9.18697 658.762 17.5694L635.307 210.707H483.303V210.694Z" stroke="white" stroke-width="1.36522" stroke-miterlimit="10"/>
<path vector-effect="non-scaling-stroke" d="M485.5 183.635H637.504" stroke="white" stroke-width="1.36522" stroke-miterlimit="10"/>
<path vector-effect="non-scaling-stroke" d="M505.228 30.1016H657.245" stroke="white" stroke-width="1.36522" stroke-miterlimit="10"/>
<path vector-effect="non-scaling-stroke" d="M483.48 204.126C483.48 204.126 476.053 209.819 476.627 219.157C477.2 228.482 486.334 237.765 493.187 244.537C496.614 247.909 502.293 252.66 507.099 256.551C512.518 260.947 520.601 259.131 523.577 252.769C527.659 244.086 529.174 230.925 514.498 216.495C488.586 190.993 483.48 204.126 483.48 204.126Z" fill="#202020"/>
<path vector-effect="non-scaling-stroke" d="M478.21 99.6198C478.729 85.3122 487.684 75.6601 499.835 78.1448C511.985 80.6022 521.364 87.4693 519.276 102.418C517.091 117.982 501.814 120.549 491.821 120.603C481.623 120.644 477.732 112.958 478.21 99.6198Z" fill="#202020"/>
<path vector-effect="non-scaling-stroke" d="M483.48 204.126C483.48 204.126 476.053 209.819 476.627 219.157C477.2 228.482 486.334 237.765 493.187 244.537C496.614 247.909 502.293 252.66 507.099 256.551C512.518 260.947 520.601 259.131 523.577 252.769C527.659 244.086 529.174 230.925 514.498 216.495C488.586 190.993 483.48 204.126 483.48 204.126Z" stroke="white" stroke-width="1.36522" stroke-miterlimit="10"/>
<path vector-effect="non-scaling-stroke" d="M478.21 99.6198C478.729 85.3122 487.684 75.6601 499.835 78.1448C511.985 80.6022 521.364 87.4693 519.276 102.418C517.091 117.982 501.814 120.549 491.821 120.603C481.623 120.644 477.732 112.958 478.21 99.6198Z" stroke="white" stroke-width="1.36522" stroke-miterlimit="10"/>
<path vector-effect="non-scaling-stroke" d="M493.514 84.6026C492.19 89.0806 489.937 98.9784 490.647 112.781C490.716 114.023 489.268 114.719 488.381 113.859C485.951 111.566 482.715 106.733 483.48 97.6541C484.258 88.4662 488.613 84.589 491.589 83.0053C492.654 82.4319 493.869 83.4422 493.528 84.6026H493.514Z" stroke="white" stroke-width="1.36522" stroke-miterlimit="10"/>
<path vector-effect="non-scaling-stroke" d="M506.784 241.261C501.474 237.985 494.456 235.514 490.21 241.575C491.221 242.613 492.231 243.609 493.187 244.551C496.613 247.937 502.293 252.674 507.098 256.565C507.098 256.565 507.699 254.968 509.242 252.565C511.713 248.77 510.621 243.65 506.784 241.261Z" stroke="white" stroke-width="1.36522" stroke-miterlimit="10"/>
<path vector-effect="non-scaling-stroke" d="M579.005 241.234C579.005 241.234 577.899 204.81 593.34 180.154C593.34 180.154 568.26 135.989 566.527 121.777C564.506 105.258 576.793 98.3086 588.657 109.531C600.521 120.766 644.317 162.529 655.116 179.034C669.615 201.192 674.407 225.916 675.007 247.418L675.075 303.106L640.372 395.736L484.627 395.504" fill="#202020"/>
<path vector-effect="non-scaling-stroke" d="M579.005 241.234C579.005 241.234 577.899 204.81 593.34 180.154C593.34 180.154 568.26 135.989 566.527 121.777C564.506 105.258 576.793 98.3086 588.657 109.531C600.521 120.766 644.317 162.529 655.116 179.034C669.615 201.192 674.407 225.916 675.007 247.418L675.075 303.106L640.372 395.736L484.627 395.504" stroke="white" stroke-width="1.36522" stroke-miterlimit="10"/>
<path vector-effect="non-scaling-stroke" d="M588.643 109.531C586.35 107.346 584.029 105.858 581.803 104.998C581.776 105.012 580.261 105.954 578.459 107.1C576.725 108.206 575.96 110.377 576.616 112.343C578.622 118.35 583.524 130.241 590.937 130.896C597.681 131.483 602.2 127.825 604.425 125.408C597.667 118.445 591.974 112.684 588.629 109.517L588.643 109.531Z" stroke="white" stroke-width="1.36522" stroke-miterlimit="10"/>
<path vector-effect="non-scaling-stroke" d="M600.466 121.805C598.718 122.487 592.834 125.136 590.746 130.542" stroke="white" stroke-width="1.36522" stroke-miterlimit="10"/>
<path vector-effect="non-scaling-stroke" d="M675.062 423.313V303.105H490.21L423.383 504.367H594.008C638.774 504.367 675.062 468.079 675.062 423.313Z" fill="black"/>
<path vector-effect="non-scaling-stroke" d="M675.062 439.245V303.105H490.21L423.383 504.367H609.94C645.9 504.367 675.062 475.219 675.062 439.245Z" stroke="white" stroke-width="1.36522" stroke-miterlimit="10"/>
<path vector-effect="non-scaling-stroke" d="M483.125 165.779C483.125 165.779 472.585 170.598 472.408 185.82C472.244 201.042 480.913 205.807 489.446 210.585C497.978 215.35 512.067 223.882 519.74 215.937C527.426 207.978 524.559 188.605 513.979 179.363C503.384 170.12 494.852 161.874 494.852 161.874L483.125 165.779Z" fill="#202020"/>
<path vector-effect="non-scaling-stroke" d="M483.125 165.779C483.125 165.779 472.585 170.598 472.408 185.82C472.244 201.042 480.913 205.807 489.446 210.585C497.978 215.35 512.067 223.882 519.74 215.937C527.426 207.978 524.559 188.605 513.979 179.363C503.384 170.12 494.852 161.874 494.852 161.874L483.125 165.779Z" stroke="white" stroke-width="1.36522" stroke-miterlimit="10"/>
<path vector-effect="non-scaling-stroke" d="M501.501 210.435C501.924 206.012 503.358 199.691 507.481 192.523C508.682 190.435 508.231 187.636 506.429 186.271C501.637 182.612 492.641 178.325 488.04 192.578C484.518 203.459 490.62 210.244 495.74 213.834C498.142 215.527 501.201 213.698 501.515 210.449L501.501 210.435Z" stroke="white" stroke-width="1.36522" stroke-miterlimit="10"/>
<path vector-effect="non-scaling-stroke" d="M472.585 144.412C473.705 128.398 483.043 117.968 495.084 121.19C507.125 124.425 516.218 132.466 513.501 149.122C510.675 166.461 495.289 168.754 485.309 168.426C475.111 168.085 471.548 159.32 472.585 144.412Z" fill="#202020"/>
<path vector-effect="non-scaling-stroke" d="M472.585 144.412C473.705 128.398 483.043 117.968 495.084 121.19C507.125 124.425 516.218 132.466 513.501 149.122C510.675 166.461 495.289 168.754 485.309 168.426C475.111 168.085 471.548 159.32 472.585 144.412Z" stroke="white" stroke-width="1.36522" stroke-miterlimit="10"/>
<path vector-effect="non-scaling-stroke" d="M488.505 128.179C486.989 133.135 484.327 144.125 484.463 159.607C484.463 160.999 483.003 161.709 482.143 160.74C479.822 158.078 476.777 152.549 477.924 142.391C479.084 132.139 483.59 127.975 486.634 126.309C487.726 125.708 488.9 126.882 488.505 128.179Z" stroke="white" stroke-width="1.36522" stroke-miterlimit="10"/>
<path vector-effect="non-scaling-stroke" d="M390.29 453.951L413.676 437.937C415.656 436.572 418.414 437.5 419.124 439.767C420.339 443.93 418.414 451.671 399.587 463.453" fill="#A0A09E"/>
<path vector-effect="non-scaling-stroke" d="M390.29 453.951L413.676 437.937C415.656 436.572 418.414 437.5 419.124 439.767C420.339 443.93 418.414 451.671 399.587 463.453" stroke="white" stroke-width="1.36522" stroke-linejoin="round"/>
<path vector-effect="non-scaling-stroke" d="M393.253 467.972L416.639 451.958C418.619 450.592 421.377 451.521 422.086 453.787C423.302 457.951 421.377 465.692 402.55 477.474" fill="#A0A09E"/>
<path vector-effect="non-scaling-stroke" d="M393.253 467.972L416.639 451.958C418.619 450.592 421.377 451.521 422.086 453.787C423.302 457.951 421.377 465.692 402.55 477.474" stroke="white" stroke-width="1.36522" stroke-linejoin="round"/>
<path vector-effect="non-scaling-stroke" d="M409.691 477.446C401.199 465.691 374.727 447.37 368.611 443.684C367.301 442.879 366.891 441.104 367.874 439.875C371.028 435.889 380.871 431.001 409.377 455.835L409.691 477.446Z" fill="#A0A09E" stroke="white" stroke-width="1.36522" stroke-linejoin="round"/>
<path vector-effect="non-scaling-stroke" d="M397.39 446.292C377.963 432.517 370.536 436.531 367.874 439.889C366.918 441.104 367.3 442.879 368.638 443.684C372.201 445.841 382.686 452.968 392.489 460.872C383.56 458.866 373.84 456.872 364.638 457.828C362.263 458.074 359.737 458.374 358.399 460.558C357.689 461.705 357.28 462.811 357.976 464.094C358.467 464.995 359.437 465.842 360.461 466.033C366.003 467.112 378.973 471.385 384.338 473.514C389.704 475.671 395.219 478.047 400.27 480.6C407.042 484.054 413.377 487.877 420.435 490.921C429.909 495.017 439.37 499.071 449.009 502.771C456.9 505.802 464.19 508.546 474.525 511.386C475.33 510.007 482.58 477.364 484.3 473.583C471.631 467.507 465.746 463.972 456.613 453.323C452.231 448.203 434.06 431.193 431.002 435.78C425.145 444.544 442.674 451.862 439.548 460.64C437.295 466.934 429.199 464.859 424.749 462.538L397.403 446.306L397.39 446.292Z" fill="#A0A09E" stroke="white" stroke-width="1.36522" stroke-linejoin="round"/>
<path vector-effect="non-scaling-stroke" d="M405.581 472.573C401.922 468.75 397.157 464.6 392.256 460.654Z" fill="#A0A09E"/>
<path vector-effect="non-scaling-stroke" d="M405.581 472.573C401.922 468.75 397.157 464.6 392.256 460.654" stroke="white" stroke-width="1.36522" stroke-linejoin="round"/>
<path vector-effect="non-scaling-stroke" d="M725.671 389.02L692.073 440.898L693.138 441.594L726.749 389.716L725.671 389.02Z" fill="white" stroke="white" stroke-width="1.36522" stroke-linejoin="round"/>
<path vector-effect="non-scaling-stroke" d="M521.925 462.975H490.156V513.379H521.925V462.975Z" fill="black"/>
<path vector-effect="non-scaling-stroke" d="M521.925 462.975H490.156V513.379H521.925V462.975Z" stroke="white" stroke-width="1.36522" stroke-miterlimit="10"/>
<path vector-effect="non-scaling-stroke" d="M486.252 455.124H470.906C468.749 455.124 466.988 456.872 466.988 459.029C466.988 461.186 468.749 462.933 470.906 462.933H486.252C488.409 462.933 490.17 461.186 490.17 459.029C490.17 456.872 488.422 455.124 486.252 455.124Z" fill="black"/>
<path vector-effect="non-scaling-stroke" d="M486.252 455.124H470.906C468.749 455.124 466.988 456.872 466.988 459.029C466.988 461.186 468.749 462.933 470.906 462.933H486.252C488.409 462.933 490.17 461.186 490.17 459.029C490.17 456.872 488.422 455.124 486.252 455.124Z" stroke="white" stroke-width="1.36522" stroke-miterlimit="10"/>
<path vector-effect="non-scaling-stroke" d="M490.17 462.961H467.002V513.365H490.17V462.961Z" fill="black"/>
<path vector-effect="non-scaling-stroke" d="M466.988 462.946H490.156V479.547C490.156 485.937 484.968 491.138 478.579 491.138C472.19 491.138 466.988 485.95 466.988 479.547V462.946Z" fill="black"/>
<path vector-effect="non-scaling-stroke" d="M490.17 462.961H467.002V513.365H490.17V462.961Z" stroke="white" stroke-width="1.36522" stroke-miterlimit="10"/>
<path vector-effect="non-scaling-stroke" d="M466.988 462.946H490.156V479.547C490.156 485.937 484.968 491.138 478.579 491.138C472.19 491.138 466.988 485.95 466.988 479.547V462.946Z" stroke="white" stroke-width="1.36522" stroke-miterlimit="10"/>
<path vector-effect="non-scaling-stroke" d="M478.579 481.392C477.842 481.392 477.255 481.979 477.255 482.716C477.255 483.453 477.842 484.04 478.579 484.04C479.316 484.04 479.903 483.453 479.903 482.716C479.903 481.979 479.316 481.392 478.579 481.392Z" fill="white" stroke="white" stroke-width="1.36522" stroke-linejoin="round"/>
<path vector-effect="non-scaling-stroke" d="M478.579 496.696C477.842 496.696 477.255 497.283 477.255 498.021C477.255 498.758 477.842 499.345 478.579 499.345C479.316 499.345 479.903 498.758 479.903 498.021C479.903 497.283 479.316 496.696 478.579 496.696Z" fill="white" stroke="white" stroke-width="1.36522" stroke-linejoin="round"/>
<path vector-effect="non-scaling-stroke" d="M767.501 373.894C749.248 336.228 707.213 296.759 698.039 277.946C682.543 246.15 689.178 218.341 671.785 210.696C654.679 203.2 640.508 213.904 630.228 220.948C619.948 227.993 602.009 246.574 610.35 269.632C610.596 270.315 610.842 271.011 611.06 271.68C609.449 278.151 607.279 288.527 607.756 295.612C607.756 295.626 607.784 295.64 607.797 295.626L614.978 290.315C615.183 290.165 615.47 290.288 615.511 290.534C618.159 305.524 619.634 318.084 630.242 322.111C645.573 327.927 664.768 301.019 664.768 301.019L676.291 327.285C676.291 327.285 668.604 333.688 649.396 364.42C630.187 395.151 598.828 446.387 598.828 446.387H528.492C518.894 446.387 511.126 454.169 511.126 463.753V513.406H606.951C629.914 513.406 651.403 502.02 664.304 483.003L692.619 441.268C692.619 441.268 664.14 493.965 691.349 513.406H762.805C787.16 513.406 805.536 491.126 800.69 467.262C793.672 432.681 780.211 400.093 767.515 373.894H767.501Z" fill="black"/>
<path vector-effect="non-scaling-stroke" d="M767.501 373.894C749.248 336.228 707.213 296.759 698.039 277.946C682.543 246.15 689.178 218.341 671.785 210.696C654.679 203.2 640.508 213.904 630.228 220.948C619.948 227.993 602.009 246.574 610.35 269.632C610.596 270.315 610.842 271.011 611.06 271.68C610.023 275.858 608.739 281.673 608.098 287.175C607.702 290.588 611.579 292.814 614.35 290.766L615.415 289.988C618.132 305.21 619.511 318.029 630.242 322.098C645.573 327.914 664.768 301.005 664.768 301.005L676.291 327.272C676.291 327.272 668.604 333.675 649.396 364.406C630.187 395.137 598.828 446.374 598.828 446.374H532.396C520.642 446.374 511.126 455.903 511.126 467.644V513.393H606.951C629.914 513.393 651.403 502.007 664.304 482.989L692.619 441.254C692.619 441.254 664.14 493.952 691.349 513.393H761.89C786.723 513.393 805.536 490.662 800.512 466.347C793.44 432.107 780.102 399.861 767.528 373.881H767.515L767.501 373.894Z" stroke="white" stroke-width="1.36522" stroke-miterlimit="10"/>
<path vector-effect="non-scaling-stroke" d="M614.336 290.752L615.401 289.974C618.118 305.196 619.483 318.016 630.228 322.084C645.546 327.9 664.754 300.991 664.754 300.991L673.874 321.77L712.81 298.793C706.079 290.493 700.7 283.353 698.066 277.933C682.57 246.137 689.205 218.327 671.812 210.682C654.706 203.187 640.535 213.89 630.255 220.935C619.975 227.979 602.036 246.546 610.377 269.618C610.623 270.301 610.869 270.997 611.087 271.666C610.036 275.844 608.766 281.66 608.125 287.162C607.729 290.575 611.606 292.814 614.364 290.766H614.35L614.336 290.752Z" fill="#A0A09E" stroke="white" stroke-width="1.36522" stroke-linejoin="round"/>
<path vector-effect="non-scaling-stroke" d="M629.313 285.128C629.313 285.237 629.232 296.063 616.999 298.807L616.726 297.579" stroke="white" stroke-width="1.36522" stroke-linecap="round" stroke-linejoin="round"/>
<path vector-effect="non-scaling-stroke" d="M693.779 266.015C690.516 256.649 688.769 247.843 687.24 240.062C684.441 225.809 682.229 214.546 672.058 210.081C655.43 202.777 641.491 212.375 631.32 219.392L629.873 220.389C626.528 222.669 615.251 231.174 610.064 244.662L609.804 245.345L610.514 245.495C610.637 245.536 623.17 248.089 638.31 241.632C640.74 245.25 657.573 268.909 681.205 268.909C685.11 268.909 689.178 268.267 693.397 266.779L694.011 266.574L693.806 265.96V266.015H693.779Z" fill="white" stroke="white" stroke-width="1.36522" stroke-linejoin="round"/>
<path vector-effect="non-scaling-stroke" d="M676.331 327.257C687.226 316.622 704.933 304.922 715.827 302.492L704.619 288.308C704.619 288.308 681.205 298.369 669.3 311.366C665.068 315.994 664.072 320.049 664.55 323.38C665.341 329.019 672.249 331.23 676.318 327.257H676.331Z" fill="black"/>
<path vector-effect="non-scaling-stroke" d="M676.331 327.257C687.226 316.622 704.933 304.922 715.827 302.492L704.619 288.308C704.619 288.308 681.205 298.369 669.3 311.366C665.068 315.994 664.072 320.049 664.55 323.38C665.341 329.019 672.249 331.23 676.318 327.257H676.331Z" stroke="white" stroke-width="1.36522" stroke-miterlimit="10"/>
<path vector-effect="non-scaling-stroke" d="M620.018 243.017L599.875 250.46C594.089 252.598 591.132 259.021 593.27 264.806L595.191 270.005C597.329 275.791 603.752 278.748 609.537 276.61L629.681 269.167C635.466 267.029 638.423 260.606 636.286 254.821L634.364 249.621C632.227 243.836 625.804 240.879 620.018 243.017Z" fill="#202020" stroke="white" stroke-width="1.36522" stroke-miterlimit="10"/>
<path vector-effect="non-scaling-stroke" d="M614.76 245.003C619.306 243.324 624.412 245.672 626.091 250.218L629.641 259.816C631.32 264.362 628.972 269.468 624.426 271.147" fill="#202020"/>
<path vector-effect="non-scaling-stroke" d="M657.162 236.623L632.882 245.595L636.705 255.942L660.985 246.97L657.162 236.623Z" fill="#202020" stroke="white" stroke-width="1.36522" stroke-miterlimit="10"/>
<path vector-effect="non-scaling-stroke" d="M620.018 243.017L599.875 250.46C594.089 252.598 591.132 259.021 593.27 264.806L595.191 270.005C597.329 275.791 603.752 278.748 609.537 276.61L629.681 269.167C635.466 267.029 638.423 260.606 636.286 254.821L634.364 249.621C632.227 243.836 625.804 240.879 620.018 243.017Z" stroke="white" stroke-width="1.36522" stroke-linejoin="round"/>
<path vector-effect="non-scaling-stroke" d="M614.76 245.003C619.306 243.324 624.412 245.672 626.091 250.218L629.641 259.816C631.32 264.362 628.972 269.468 624.426 271.147" stroke="white" stroke-width="1.36522" stroke-linejoin="round"/>
<path vector-effect="non-scaling-stroke" d="M657.162 236.623L632.882 245.595L636.705 255.942L660.985 246.97L657.162 236.623Z" stroke="white" stroke-width="1.36522" stroke-linejoin="round"/>
<path vector-effect="non-scaling-stroke" d="M646.747 253.891C646.747 253.891 652.631 242.983 660.795 246.969C671.171 252.034 664.987 265.017 660.795 267.311L645.109 256.703L646.734 253.891H646.747Z" fill="#A0A09E"/>
<path vector-effect="non-scaling-stroke" d="M646.748 253.863C646.748 253.863 652.632 242.969 660.796 246.955C671.171 252.02 664.987 265.003 660.796 267.297" stroke="white" stroke-width="1.36522" stroke-linecap="round" stroke-linejoin="round"/>
<path vector-effect="non-scaling-stroke" d="M5.2978 370.111L31.551 387.34C31.7149 387.449 31.906 387.476 32.0835 387.435L88.904 374.752C89.4911 374.616 89.6412 373.865 89.1634 373.51L65.5451 356.294C65.3812 356.172 65.1765 356.131 64.9853 356.172L5.52989 368.841C4.92919 368.964 4.77902 369.769 5.2978 370.111Z" fill="#202020" stroke="white" stroke-width="1.36522" stroke-miterlimit="10"/>
<path vector-effect="non-scaling-stroke" d="M84.8361 316.894L59.716 298.586L1.12061 314.272L3.89201 368.745C3.89201 368.977 4.1241 369.154 4.35618 369.1L65.2997 356.116" fill="#020202"/>
<path vector-effect="non-scaling-stroke" d="M84.8361 316.894L59.716 298.586L1.12061 314.272L3.89201 368.745C3.89201 368.977 4.1241 369.154 4.35618 369.1L65.2997 356.116" stroke="white" stroke-width="1.36522" stroke-miterlimit="10"/>
<path vector-effect="non-scaling-stroke" d="M90.4198 374.424L84.8361 316.894L59.716 298.586L1.12061 314.272L3.91931 369.195L31.8108 387.503L90.4198 374.424Z" stroke="white" stroke-width="1.36522" stroke-miterlimit="10"/>
<path vector-effect="non-scaling-stroke" d="M90.4197 374.424L65.2996 356.116L59.7158 298.586" stroke="white" stroke-width="1.36522" stroke-miterlimit="10"/>
<path vector-effect="non-scaling-stroke" d="M90.4194 410.836L112.727 418.18L116.932 390.357L96.2489 384.61C95.7028 384.46 95.1568 384.801 95.0475 385.361L90.4194 410.836Z" fill="#202020" stroke="white" stroke-width="1.36522" stroke-miterlimit="10"/>
<path vector-effect="non-scaling-stroke" d="M91.4307 411.068L113.725 418.426L129.971 415.887L134.79 389.388L113.725 383.641L96.2362 384.569" stroke="white" stroke-width="1.36522" stroke-miterlimit="10"/>
<path vector-effect="non-scaling-stroke" d="M134.79 389.389L117.93 390.604L96.2363 384.569" stroke="white" stroke-width="1.36522" stroke-miterlimit="10"/>
<path vector-effect="non-scaling-stroke" d="M117.93 390.603L113.725 418.426" stroke="white" stroke-width="1.36522" stroke-miterlimit="10"/>
<path vector-effect="non-scaling-stroke" d="M304.446 467.863C304.446 448.49 288.773 432.79 269.428 432.79H50.9101C31.5648 432.79 15.8921 448.49 15.8921 467.863C15.8921 487.235 31.5648 502.935 50.9101 502.935H269.414C288.759 502.935 304.432 487.235 304.432 467.863H304.446Z" fill="#020202" stroke="white" stroke-width="1.36522" stroke-miterlimit="10"/>
<path vector-effect="non-scaling-stroke" d="M159.978 432.79H90.8291V502.921H159.978V432.79Z" fill="#202020" stroke="white" stroke-width="1.36522" stroke-miterlimit="10"/>
<path vector-effect="non-scaling-stroke" d="M229.017 432.79H159.868V502.921H229.017V432.79Z" fill="#020202" stroke="white" stroke-width="1.36522" stroke-miterlimit="10"/>
<path vector-effect="non-scaling-stroke" d="M121.041 444.611L107.989 480.22C107.33 482.018 108.253 484.01 110.051 484.669L127.574 491.092C129.372 491.751 131.364 490.827 132.023 489.029L145.075 453.42C145.734 451.622 144.811 449.63 143.013 448.971L125.49 442.548C123.692 441.889 121.7 442.812 121.041 444.611Z" stroke="white" stroke-width="1.36522" stroke-linecap="round" stroke-linejoin="round"/>
<path vector-effect="non-scaling-stroke" d="M144.195 455.849L120.153 447.043" stroke="white" stroke-width="1.36522" stroke-linecap="round" stroke-linejoin="round"/>
<path vector-effect="non-scaling-stroke" d="M132.932 486.581L108.89 477.775" stroke="white" stroke-width="1.36522" stroke-linecap="round" stroke-linejoin="round"/>
<path vector-effect="non-scaling-stroke" d="M117.819 484.286L121.901 485.788" stroke="white" stroke-width="1.36522" stroke-linecap="round" stroke-linejoin="round"/>
<path vector-effect="non-scaling-stroke" d="M125.272 461.365L126.747 457.352" stroke="white" stroke-width="1.36522" stroke-linecap="round" stroke-linejoin="round"/>
<path vector-effect="non-scaling-stroke" d="M132.986 464.191L134.46 460.177" stroke="white" stroke-width="1.36522" stroke-linecap="round" stroke-linejoin="round"/>
<path vector-effect="non-scaling-stroke" d="M136.099 465.338L137.573 461.324" stroke="white" stroke-width="1.36522" stroke-linecap="round" stroke-linejoin="round"/>
<path vector-effect="non-scaling-stroke" d="M123.375 458.389C122.965 459.494 122.092 460.191 121.423 459.945C120.754 459.699 120.535 458.593 120.931 457.488C121.327 456.382 122.214 455.685 122.883 455.931C123.552 456.177 123.771 457.283 123.375 458.389Z" stroke="white" stroke-width="1.36522" stroke-linecap="round" stroke-linejoin="round"/>
<path vector-effect="non-scaling-stroke" d="M131.081 461.186C131.488 460.074 131.273 458.974 130.601 458.727C129.928 458.481 129.053 459.182 128.645 460.293C128.238 461.405 128.453 462.506 129.125 462.752C129.798 462.999 130.673 462.297 131.081 461.186Z" stroke="white" stroke-width="1.36522" stroke-linecap="round" stroke-linejoin="round"/>
<path vector-effect="non-scaling-stroke" d="M128.672 469.911L130.146 465.884" stroke="white" stroke-width="1.36522" stroke-linecap="round" stroke-linejoin="round"/>
<path vector-effect="non-scaling-stroke" d="M125.545 468.764L127.02 464.75" stroke="white" stroke-width="1.36522" stroke-linecap="round" stroke-linejoin="round"/>
<path vector-effect="non-scaling-stroke" d="M117.846 465.939L119.32 461.925" stroke="white" stroke-width="1.36522" stroke-linecap="round" stroke-linejoin="round"/>
<path vector-effect="non-scaling-stroke" d="M123.654 465.76C124.061 464.649 123.846 463.548 123.174 463.301C122.501 463.055 121.626 463.756 121.218 464.867C120.811 465.979 121.026 467.08 121.698 467.326C122.371 467.573 123.246 466.872 123.654 465.76Z" stroke="white" stroke-width="1.36522" stroke-linecap="round" stroke-linejoin="round"/>
<path vector-effect="non-scaling-stroke" d="M134.482 469.74C134.889 468.628 134.674 467.527 134.002 467.281C133.329 467.034 132.454 467.735 132.046 468.847C131.639 469.958 131.854 471.059 132.526 471.306C133.199 471.552 134.074 470.851 134.482 469.74Z" stroke="white" stroke-width="1.36522" stroke-linecap="round" stroke-linejoin="round"/>
<path vector-effect="non-scaling-stroke" d="M120.562 474.226L122.037 470.212" stroke="white" stroke-width="1.36522" stroke-linecap="round" stroke-linejoin="round"/>
<path vector-effect="non-scaling-stroke" d="M123.675 475.372L125.15 471.358" stroke="white" stroke-width="1.36522" stroke-linecap="round" stroke-linejoin="round"/>
<path vector-effect="non-scaling-stroke" d="M131.389 478.198L132.863 474.185" stroke="white" stroke-width="1.36522" stroke-linecap="round" stroke-linejoin="round"/>
<path vector-effect="non-scaling-stroke" d="M118.665 471.25C118.255 472.356 117.382 473.052 116.713 472.806C116.044 472.561 115.825 471.455 116.221 470.349C116.617 469.243 117.504 468.547 118.173 468.792C118.842 469.038 119.061 470.144 118.665 471.25Z" stroke="white" stroke-width="1.36522" stroke-linecap="round" stroke-linejoin="round"/>
<path vector-effect="non-scaling-stroke" d="M129.485 475.192C129.892 474.08 129.677 472.979 129.005 472.733C128.332 472.486 127.457 473.188 127.049 474.299C126.642 475.411 126.857 476.511 127.529 476.758C128.202 477.004 129.077 476.303 129.485 475.192Z" stroke="white" stroke-width="1.36522" stroke-linecap="round" stroke-linejoin="round"/>
<path vector-effect="non-scaling-stroke" d="M246.273 488.121V478.633H242.819L249.713 468.284L256.608 478.633H253.154V488.121" stroke="white" stroke-width="1.36522" stroke-linecap="round" stroke-linejoin="round"/>
<path vector-effect="non-scaling-stroke" d="M238.519 491.576H282.561" stroke="white" stroke-width="1.36522" stroke-linecap="round" stroke-linejoin="round"/>
<path vector-effect="non-scaling-stroke" d="M238.519 491.575V444.147" stroke="white" stroke-width="1.36522" stroke-linecap="round" stroke-linejoin="round"/>
<path vector-effect="non-scaling-stroke" d="M260.935 488.121V466.564H257.481L264.375 456.216L271.27 466.564H267.816V488.121" stroke="white" stroke-width="1.36522" stroke-linecap="round" stroke-linejoin="round"/>
<path vector-effect="non-scaling-stroke" d="M275.598 488.121V454.496H272.144L279.038 444.147L285.933 454.496H282.479V488.121" stroke="white" stroke-width="1.36522" stroke-linecap="round" stroke-linejoin="round"/>
<path vector-effect="non-scaling-stroke" d="M52.4519 453.677H26.813C24.0233 453.677 21.7617 455.938 21.7617 458.728V500.872C21.7617 503.662 24.0233 505.924 26.813 505.924H52.4519C55.2417 505.924 57.5032 503.662 57.5032 500.872V458.728C57.5032 455.938 55.2417 453.677 52.4519 453.677Z" fill="#020202"/>
<path vector-effect="non-scaling-stroke" d="M47.2094 448.258H0V492.177H47.2094V448.258Z" fill="#020202"/>
<path vector-effect="non-scaling-stroke" d="M2.52637 475.589V501.815C2.52637 503.399 3.57759 504.682 4.8609 504.682H54.828C56.1114 504.682 57.1626 503.399 57.1626 501.815V475.207L2.52637 475.589Z" stroke="white" stroke-width="1.36522" stroke-miterlimit="10"/>
<path vector-effect="non-scaling-stroke" d="M2.54014 472.572C2.54014 472.572 2.18518 466.578 7.7826 466.838H21.4485C21.4485 466.838 23.3325 466.879 24.8615 465.882L27.551 463.78C27.551 463.78 29.8446 461.554 33.1484 461.391H54.4459C54.4459 461.391 56.6985 461.391 57.1764 463.712V472.367" stroke="white" stroke-width="1.36522" stroke-miterlimit="10"/>
<path vector-effect="non-scaling-stroke" d="M9.28428 464.108C9.28428 464.108 8.92932 458.115 14.5267 458.374H28.1926C28.1926 458.374 30.0766 458.415 31.6057 457.418L34.2952 455.316C34.2952 455.316 36.5887 453.091 39.8926 452.927H61.19C61.19 452.927 63.4427 452.927 63.9205 455.248V493.214C63.9205 493.214 63.7703 496.313 60.4528 496.204H57.5312" stroke="white" stroke-width="1.36522" stroke-miterlimit="10"/>
<path vector-effect="non-scaling-stroke" d="M17.1065 456.067C17.1065 456.067 16.7516 450.074 22.349 450.333H36.0149C36.0149 450.333 37.8989 450.374 39.4279 449.377L42.1174 447.275C42.1174 447.275 44.411 445.05 47.7148 444.886H69.0123C69.0123 444.886 71.2649 444.886 71.7428 447.207V485.173C71.7428 485.173 71.5926 488.273 68.2751 488.163H63.961" stroke="white" stroke-width="1.36522" stroke-miterlimit="10"/>
<path vector-effect="non-scaling-stroke" d="M203.486 462.824H180.346C178.001 462.824 176.1 464.725 176.1 467.07V482.593C176.1 484.938 178.001 486.838 180.346 486.838H203.486C205.831 486.838 207.732 484.938 207.732 482.593V467.07C207.732 464.725 205.831 462.824 203.486 462.824Z" fill="#A100FF" stroke="white" stroke-width="1.36522" stroke-miterlimit="10"/>
<path vector-effect="non-scaling-stroke" d="M176.1 479.891C173.643 479.891 171.663 477.897 171.663 475.454C171.663 473.01 173.656 471.017 176.1 471.017" fill="#A100FF"/>
<path vector-effect="non-scaling-stroke" d="M176.1 479.891C173.643 479.891 171.663 477.897 171.663 475.454C171.663 473.01 173.656 471.017 176.1 471.017" stroke="white" stroke-width="1.36522" stroke-miterlimit="10"/>
<path vector-effect="non-scaling-stroke" d="M196.36 477.829C196.36 480.287 194.367 482.266 191.923 482.266C189.48 482.266 187.486 480.273 187.486 477.829H196.374H196.36Z" fill="#202020" stroke="white" stroke-width="1.36522" stroke-miterlimit="10"/>
<path vector-effect="non-scaling-stroke" d="M207.732 471.003C210.189 471.003 212.169 472.996 212.169 475.44C212.169 477.884 210.176 479.877 207.732 479.877" fill="#A100FF"/>
<path vector-effect="non-scaling-stroke" d="M207.732 471.003C210.189 471.003 212.169 472.996 212.169 475.44C212.169 477.884 210.176 479.877 207.732 479.877" stroke="white" stroke-width="1.36522" stroke-miterlimit="10"/>
<path vector-effect="non-scaling-stroke" d="M191.923 458.756C193.031 458.756 193.93 457.857 193.93 456.749C193.93 455.641 193.031 454.742 191.923 454.742C190.815 454.742 189.916 455.641 189.916 456.749C189.916 457.857 190.815 458.756 191.923 458.756Z" fill="#A100FF" stroke="white" stroke-width="1.36522" stroke-miterlimit="10"/>
<path vector-effect="non-scaling-stroke" d="M191.923 458.756V462.797" stroke="white" stroke-width="1.36522" stroke-miterlimit="10"/>
<path vector-effect="non-scaling-stroke" d="M186.121 474.239C186.988 474.239 187.691 473.536 187.691 472.669C187.691 471.802 186.988 471.099 186.121 471.099C185.254 471.099 184.551 471.802 184.551 472.669C184.551 473.536 185.254 474.239 186.121 474.239Z" fill="#202020" stroke="white" stroke-width="1.36522" stroke-miterlimit="10"/>
<path vector-effect="non-scaling-stroke" d="M197.712 474.239C198.579 474.239 199.282 473.536 199.282 472.669C199.282 471.802 198.579 471.099 197.712 471.099C196.845 471.099 196.142 471.802 196.142 472.669C196.142 473.536 196.845 474.239 197.712 474.239Z" fill="#202020" stroke="white" stroke-width="1.36522" stroke-miterlimit="10"/>
<path vector-effect="non-scaling-stroke" d="M218.872 453.665H206.803L203.868 457.105L202.79 453.665H201.042C199.841 453.665 198.858 452.696 198.858 451.481V446.32C198.858 445.119 199.827 444.136 201.042 444.136H218.872C220.073 444.136 221.056 445.105 221.056 446.32V451.481C221.056 452.682 220.087 453.665 218.872 453.665Z" stroke="white" stroke-width="1.36522" stroke-miterlimit="10"/>
<path vector-effect="non-scaling-stroke" d="M204.755 449.992C205.336 449.992 205.807 449.521 205.807 448.941C205.807 448.36 205.336 447.89 204.755 447.89C204.175 447.89 203.704 448.36 203.704 448.941C203.704 449.521 204.175 449.992 204.755 449.992Z" stroke="white" stroke-width="1.36522" stroke-miterlimit="10"/>
<path vector-effect="non-scaling-stroke" d="M210.011 449.992C210.591 449.992 211.062 449.521 211.062 448.941C211.062 448.36 210.591 447.89 210.011 447.89C209.43 447.89 208.959 448.36 208.959 448.941C208.959 449.521 209.43 449.992 210.011 449.992Z" stroke="white" stroke-width="1.36522" stroke-miterlimit="10"/>
<path vector-effect="non-scaling-stroke" d="M215.268 449.992C215.848 449.992 216.319 449.521 216.319 448.941C216.319 448.36 215.848 447.89 215.268 447.89C214.687 447.89 214.216 448.36 214.216 448.941C214.216 449.521 214.687 449.992 215.268 449.992Z" stroke="white" stroke-width="1.36522" stroke-miterlimit="10"/>
<path vector-effect="non-scaling-stroke" d="M405.854 62.3086C407.055 65.5579 410.66 67.2371 413.922 66.0357C417.172 64.8343 418.851 61.2301 417.649 57.9672C416.448 54.718 412.844 53.0388 409.581 54.2402C406.332 55.4416 404.653 59.0458 405.854 62.3086Z" fill="#921CF4" stroke="white" stroke-width="1.36522" stroke-linecap="round" stroke-linejoin="round"/>
<path vector-effect="non-scaling-stroke" d="M372.105 53.6805C373.935 58.6499 379.45 61.1892 384.42 59.3598C389.389 57.5304 391.928 52.0149 390.099 47.0455C388.27 42.0761 382.754 39.5368 377.785 41.3662C372.815 43.1956 370.276 48.7111 372.105 53.6805Z" stroke="white" stroke-width="1.36522" stroke-linecap="round" stroke-linejoin="round"/>
<path vector-effect="non-scaling-stroke" d="M341.934 40.3143C341.934 45.6114 346.235 49.9118 351.532 49.9118C356.829 49.9118 361.129 45.6114 361.129 40.3143C361.129 35.0172 356.829 30.7168 351.532 30.7168C346.235 30.7168 341.934 35.0172 341.934 40.3143Z" stroke="white" stroke-width="1.36522" stroke-linecap="round" stroke-linejoin="round"/>
<path vector-effect="non-scaling-stroke" d="M309.605 35.1961C309.605 40.4932 313.906 44.7937 319.203 44.7937C324.5 44.7937 328.8 40.4932 328.8 35.1961C328.8 29.8991 324.5 25.5986 319.203 25.5986C313.906 25.5986 309.605 29.8991 309.605 35.1961Z" stroke="white" stroke-width="1.36522" stroke-linecap="round" stroke-linejoin="round"/>
<path vector-effect="non-scaling-stroke" d="M418.987 64.4647C418.987 64.4647 419.028 64.4647 419.055 64.4647L427.916 64.2463C428.038 64.2463 428.134 64.1234 428.134 63.9596C428.134 63.8094 428.025 63.6865 427.902 63.6865L419.042 63.905C418.919 63.905 418.823 64.0278 418.823 64.1917C418.823 64.3145 418.905 64.4237 418.987 64.451V64.4647Z" fill="white" stroke="white" stroke-width="1.36522" stroke-miterlimit="10"/>
<path vector-effect="non-scaling-stroke" d="M416.339 52.969C416.407 52.969 416.475 52.9417 416.516 52.8734L419.929 46.8665C419.998 46.7436 419.957 46.5798 419.847 46.4842C419.738 46.3886 419.588 46.4159 419.533 46.5252L416.12 52.5321C416.052 52.655 416.093 52.8188 416.202 52.9144C416.243 52.9554 416.298 52.969 416.339 52.969Z" fill="white" stroke="white" stroke-width="1.36522" stroke-miterlimit="10"/>
<path vector-effect="non-scaling-stroke" d="M404.106 52.3546C404.106 52.3546 404.161 52.3546 404.188 52.3546C404.311 52.3136 404.366 52.1635 404.311 52.0133L402.004 45.5558C401.949 45.4056 401.813 45.3237 401.704 45.3783C401.581 45.4193 401.526 45.5694 401.581 45.7196L403.888 52.1771C403.929 52.2863 404.025 52.3682 404.12 52.3682L404.106 52.3546Z" fill="white" stroke="white" stroke-width="1.36522" stroke-miterlimit="10"/>
<path vector-effect="non-scaling-stroke" d="M62.3776 142.269C63.5517 143.157 66.5825 144.508 67.9204 144.904C75.3336 147.089 78.1596 148.495 83.9891 148.522C83.5522 150.147 79.8798 152.399 78.1732 154.188C76.9991 155.417 76.6578 157.164 78.064 158.133C79.3883 159.062 80.8491 158.393 81.9959 157.273C84.7946 154.529 93.8323 150.242 99.3615 144.822C100.358 143.867 102.461 141.887 103.17 140.836C102.843 141.205 96.5355 137.6 93.7368 135.32C92.9176 134.652 92.3033 134.187 92.0439 134.092C90.8561 135.826 87.5387 137.368 85.2587 138.133C79.3746 140.099 73.627 138.365 67.975 134.952C67.6747 134.774 67.2924 134.911 67.1968 135.266C66.9921 136.058 67.2514 137.095 67.9068 137.505C66.0227 137.123 63.1421 134.378 62.2684 136.331C61.8998 137.15 62.3776 137.71 63.8384 138.542C62.6916 138.406 61.5858 137.027 60.398 138.133C59.811 139.621 61.2172 141.341 62.4049 142.229L62.3776 142.269Z" fill="#202020" stroke="white" stroke-width="1.36522" stroke-miterlimit="10"/>
<path vector-effect="non-scaling-stroke" d="M373.471 80.0422L382.577 94.4043C382.577 94.4043 382.796 94.1995 383.178 93.8309C383.478 93.5442 383.874 93.1756 384.352 92.7387C384.884 92.2472 385.499 91.6875 386.154 91.1005C388.216 89.2574 390.687 87.114 392.27 86.0491C395.547 83.8648 396.038 84.4791 399.028 82.7316C399.247 82.6088 399.465 82.4859 399.67 82.3494L399.997 82.1446C402.96 80.3562 405.404 78.2947 405.882 77.9397C406.619 77.3936 413.076 76.9158 413.445 75.3458C413.745 74.0079 412.162 73.4208 411.67 73.2707C411.588 73.2433 411.534 73.2297 411.534 73.2297C411.534 73.2024 411.534 73.1751 411.547 73.1478C412.121 70.3081 410.592 69.1204 410.196 68.8746L410.114 68.82C410.127 68.7518 410.141 68.6835 410.155 68.6152C410.755 65.2978 407.738 63.5912 407.397 63.4138L407.37 63.4001C407.37 63.4001 407.37 63.3591 407.342 63.2909C407.342 63.2772 407.342 63.2499 407.342 63.2226C409.295 62.895 411.247 62.5537 413.199 62.226C413.54 62.1714 413.718 61.7618 413.554 61.4478C412.694 59.8642 410.66 59.2362 408.885 59.0314C406.237 58.731 403.37 58.8403 400.585 59.4C400.434 59.4 400.284 59.4 400.134 59.4C397.895 59.4273 395.41 60.697 393.076 62.3898H393.117C392.939 62.5127 392.775 62.6219 392.612 62.7448C390.455 64.3011 388.489 66.2534 386.673 68.233C386.14 68.8064 385.007 69.7484 384.475 70.5948C384.243 70.7586 383.997 70.9225 383.751 71.0863C383.724 71.1136 383.683 71.1273 383.656 71.1546L374.823 78.8681L374.099 79.4961L373.676 79.8647L373.485 80.0285L373.471 80.0422Z" fill="#202020" stroke="white" stroke-width="1.36522" stroke-miterlimit="10"/>
<path vector-effect="non-scaling-stroke" d="M399.356 64.3965C399.356 64.3965 399.247 64.3419 399.233 64.2872C399.233 64.219 399.274 64.1644 399.342 64.1644C400.257 64.1098 401.226 63.905 402.25 63.6866C403.97 63.3316 405.745 62.963 407.288 63.277C407.356 63.2906 407.397 63.3589 407.383 63.4135C407.37 63.4818 407.301 63.5227 407.247 63.5091C405.759 63.1951 404.011 63.5637 402.318 63.9186C401.281 64.1371 400.298 64.3419 399.369 64.3965H399.356Z" fill="#202020" stroke="white" stroke-width="1.36522" stroke-miterlimit="10"/>
<path vector-effect="non-scaling-stroke" d="M402.045 69.2021C402.045 69.2021 401.936 69.1612 401.936 69.1066C401.923 69.0383 401.964 68.9837 402.032 68.97C404.626 68.424 407.561 67.796 410.237 68.656C410.305 68.6697 410.332 68.738 410.319 68.8062C410.305 68.8745 410.237 68.9018 410.168 68.8881C407.547 68.0417 404.639 68.6697 402.086 69.2021C402.086 69.2021 402.073 69.2021 402.059 69.2021H402.045Z" fill="#202020" stroke="white" stroke-width="1.36522" stroke-miterlimit="10"/>
<path vector-effect="non-scaling-stroke" d="M402.251 74.0076C402.251 74.0076 402.142 73.953 402.128 73.8984C402.128 73.8301 402.183 73.7755 402.237 73.7755C403.343 73.7346 404.503 73.5707 405.623 73.4069C407.602 73.1202 409.65 72.8199 411.562 73.1885C411.63 73.1885 411.671 73.2704 411.657 73.325C411.657 73.3933 411.575 73.4342 411.521 73.4206C409.65 73.0656 407.63 73.366 405.664 73.639C404.531 73.8028 403.37 73.9803 402.251 74.0213V74.0076Z" fill="#202020" stroke="white" stroke-width="1.36522" stroke-miterlimit="10"/>
<path vector-effect="non-scaling-stroke" d="M82.8422 232.989L53.053 212.319L9.50244 282.178C13.052 286.738 23.1001 281.413 25.2571 278.847C33.1754 269.386 60.8075 261.003 68.9442 267.406L82.8422 233.002V232.989Z" fill="black" stroke="white" stroke-width="1.36522" stroke-miterlimit="10"/>
<path vector-effect="non-scaling-stroke" d="M60.384 242.614C63.3019 242.614 65.6674 240.248 65.6674 237.33C65.6674 234.412 63.3019 232.047 60.384 232.047C57.466 232.047 55.1006 234.412 55.1006 237.33C55.1006 240.248 57.466 242.614 60.384 242.614Z" fill="black" stroke="white" stroke-width="1.36522" stroke-miterlimit="10"/>
<path vector-effect="non-scaling-stroke" d="M218.573 363.696L202.845 393.499L266.56 445.637C271.543 442.702 267.543 432.053 265.263 429.596C256.881 420.531 249.399 389.458 256.785 382.209L218.559 363.71L218.573 363.696Z" fill="black" stroke="white" stroke-width="1.36522" stroke-miterlimit="10"/>
<path vector-effect="non-scaling-stroke" d="M226.491 395.136C229.409 395.136 231.774 392.771 231.774 389.853C231.774 386.935 229.409 384.569 226.491 384.569C223.573 384.569 221.208 386.935 221.208 389.853C221.208 392.771 223.573 395.136 226.491 395.136Z" fill="black" stroke="white" stroke-width="1.36522" stroke-miterlimit="10"/>
<path vector-effect="non-scaling-stroke" d="M223.624 193.644L281.141 245.263C281.141 245.263 293.728 255.284 288.281 273.291L265.373 390.127L211.87 366.181L230.341 277.073C230.341 277.073 234.027 265.387 224.252 253.086L202.859 235.543L204.238 334.126C204.347 335.818 199.023 361.88 174.462 355.901C171.841 355.259 169.343 354.14 167.077 352.665L58.1045 281.933L77.7773 228.881L149.861 278.056L145.629 203.597C144.673 189.371 155.513 177.371 157.383 174.067C159.254 170.749 223.638 193.644 223.638 193.644H223.624Z" fill="black" stroke="white" stroke-width="1.36522" stroke-miterlimit="10"/>
<path vector-effect="non-scaling-stroke" d="M246.109 84.3302L247.952 69.5722C247.952 69.5722 261.454 80.0981 268.198 74.9512C272.922 71.3333 271.707 64.7666 270.82 56.7937L271.461 57.0258C273.14 57.6402 274.724 55.9473 274.028 54.3227C272.895 51.6741 271.407 48.971 270.273 47.046C270.273 46.6774 270.301 46.2952 270.328 45.9265C271.052 33.23 259.406 26.6633 253.263 24.67C247.119 22.6905 238.491 19.4685 231.119 25.7213C223.61 32.0969 231.023 44.9436 228.02 63.0464C227.405 66.7735 225.562 72.0979 220.402 79.0468L246.109 84.3302Z" fill="#202020" stroke="white" stroke-width="1.36522" stroke-miterlimit="10"/>
<path vector-effect="non-scaling-stroke" d="M271.352 61.0244C265.208 61.393 263.652 56.3007 263.638 56.2461" stroke="white" stroke-width="1.36522" stroke-miterlimit="10"/>
<path vector-effect="non-scaling-stroke" d="M264.144 127.457C264.144 127.457 302.684 148.919 328.787 136.168C351.109 126.283 371.846 114.884 390.7 101.655L377.28 76.0295C377.28 76.0295 321.743 107.88 300.664 99.0062L258.397 81.0262C258.397 81.0262 228.225 64.4934 178.217 75.0193C178.217 75.0193 119.321 95.0198 87.4297 132.195L111.935 150.066L181.357 105.273C181.357 105.273 175.241 126.079 166.872 137.096L146.107 170.762L233.986 197.684L264.144 127.471V127.457Z" fill="#202020" stroke="white" stroke-width="1.36522" stroke-miterlimit="10"/>
<path vector-effect="non-scaling-stroke" d="M175.608 82.7189C177.37 76.4662 183.145 70.4592 189.302 67.7015C191.063 66.9096 193.07 66.1861 193.998 64.4795C194.844 62.9095 194.476 61.1621 193.984 59.3736C193.029 55.9606 193.67 52.2062 195.978 49.5167C200.66 44.0558 207.391 47.8102 212.155 44.4791C216.347 41.5438 216.388 35.9055 217.807 31.4412C219.05 27.5639 221.576 24.3284 224.797 21.9119C228.907 18.8265 234.163 17.0654 239.364 17.0381C239.719 17.0381 240.074 17.0381 240.429 17.0517C245.836 17.2565 263.078 20.5877 270.437 25.7346C272.526 27.1953 273.386 29.8575 272.58 32.2876C272.048 33.9122 270.642 35.1 268.949 35.3457C267.665 35.5368 266.587 35.6597 266.218 36.2195C264.034 39.5506 259.269 42.4995 256.962 44.52C255.324 45.9535 253.89 47.346 252.716 48.8478C250.573 51.5919 249.303 54.6636 249.303 58.8821C249.303 63.2918 250.6 67.5786 252.061 71.7562C252.307 72.4661 252.552 73.176 252.812 73.8859C254.559 78.7598 256.539 83.62 258.054 88.5621C259.187 92.2345 256.088 96.9036 253.658 99.5248C251.638 101.696 248.935 103.252 246.054 104.03C241.617 105.245 236.743 104.644 233.235 101.736C233.235 101.736 233.235 101.736 233.221 101.736C233.125 101.655 233.03 101.586 232.934 101.491C235.009 103.334 229.562 110.802 228.183 111.962C225.221 114.447 221.275 115.334 217.507 115.512C209.521 115.894 198.312 113.013 193.261 106.324C191.759 104.33 191.158 101.45 192.414 99.3337C192.483 99.2245 192.401 99.0879 192.264 99.1152C188.578 99.7705 184.646 99.006 181.479 96.9991C175.458 93.1765 174.175 87.8658 175.608 82.7189Z" fill="#666666" stroke="white" stroke-width="1.36522" stroke-miterlimit="10"/>
<path vector-effect="non-scaling-stroke" d="M252.498 49.3793C252.498 49.3793 248.471 46.1164 246.177 49.1063C243.27 52.9016 249.263 57.4614 251.188 57.6389" fill="#202020"/>
<path vector-effect="non-scaling-stroke" d="M252.498 49.3793C252.498 49.3793 248.471 46.1164 246.177 49.1063C243.27 52.9016 249.263 57.4614 251.188 57.6389" stroke="white" stroke-width="1.36522" stroke-miterlimit="10"/>
<path vector-effect="non-scaling-stroke" d="M208.525 240.333L187.691 222.927" stroke="white" stroke-width="1.36522"/>
<path vector-effect="non-scaling-stroke" d="M264.144 127.457L250.901 119.525" stroke="white" stroke-width="1.36522"/>
<path vector-effect="non-scaling-stroke" d="M250.136 51.0586H277.113V42.1983H250.136V51.0586Z" fill="#921CF4" stroke="white" stroke-width="1.36522" stroke-linecap="round" stroke-linejoin="round"/>
<path vector-effect="non-scaling-stroke" d="M363.887 131.607C360.61 130.733 357.252 129.9 353.853 129.108" stroke="white" stroke-width="1.36522" stroke-linejoin="round"/>
<path vector-effect="non-scaling-stroke" d="M400.68 143.989C393.895 141.122 386.632 138.447 378.932 135.976" stroke="white" stroke-width="1.36522" stroke-linejoin="round"/>
<path vector-effect="non-scaling-stroke" d="M447.521 174.98C440.367 166.652 430.155 158.925 417.417 152.003" stroke="white" stroke-width="1.36522" stroke-linejoin="round"/>
<path vector-effect="non-scaling-stroke" d="M350.494 11.2617C334.385 7.65754 316.978 4.89979 298.643 3.125V94.2263" stroke="white" stroke-width="1.36522" stroke-linejoin="round"/>
<path vector-effect="non-scaling-stroke" d="M459.221 86.1042V203.199C459.221 250.327 365.621 288.512 250.123 288.512C203.05 288.512 159.609 282.15 124.673 271.447V154.352C159.623 165.055 203.064 171.417 250.123 171.417C310.056 171.417 364.092 161.123 402.209 144.659C437.555 129.382 459.221 108.781 459.221 86.1178C459.221 65.3255 440.244 28.1778 350.494 11.2764" stroke="white" stroke-width="1.36522" stroke-linejoin="round"/>
<path vector-effect="non-scaling-stroke" d="M74.5007 227.186V156.877V132.426C53.3397 119.074 41.0527 103.169 41.0527 86.1037C41.0527 38.9763 134.652 0.791016 250.15 0.791016V15.1941" stroke="white" stroke-width="1.36522" stroke-linejoin="round"/>
<path vector-effect="non-scaling-stroke" d="M41.0396 86.1035V203.199C41.0396 211.294 42.9782 217.097 47.6472 220.974" stroke="white" stroke-width="1.36522" stroke-linejoin="round"/>
</g>
<defs>
<clipPath id="clip0_21_15588">
<rect width="802" height="533.556" fill="white"/>
</clipPath>
</defs>
</svg>
