<svg width="802" height="535" viewBox="0 0 802 535" fill="none" xmlns="http://www.w3.org/2000/svg">
<g clip-path="url(#clip0_21_15589)">
<path vector-effect="non-scaling-stroke" d="M192.195 290.534H296.613V302.581H186.997L192.195 290.534Z" fill="#404040"/>
<path vector-effect="non-scaling-stroke" d="M698.261 143.309H458.306V512.421H698.261V143.309Z" stroke="white" stroke-width="1.35088" stroke-miterlimit="10"/>
<path vector-effect="non-scaling-stroke" d="M458.306 456.959H19.1152V513.163H458.306V456.959Z" stroke="white" stroke-width="1.35088" stroke-miterlimit="10"/>
<path vector-effect="non-scaling-stroke" d="M306.377 44.6807H30.0618V120.577H381.736C381.736 78.6889 347.962 44.6807 306.363 44.6807H306.377Z" fill="black" stroke="white" stroke-width="1.35088" stroke-linejoin="round"/>
<path vector-effect="non-scaling-stroke" d="M173.946 233.424L228.664 207.048L196.073 155.506L136.087 158.545L121.689 210.609L173.946 233.424Z" fill="#404040" stroke="white" stroke-width="1.35088" stroke-linejoin="round"/>
<path vector-effect="non-scaling-stroke" d="M121.566 210.912L121.304 210.788L135.84 158.215L196.252 155.148L228.954 206.855L229.16 207.171L174.098 233.712L173.96 233.781L121.566 210.898V210.912ZM228.197 206.896L195.908 155.836L136.363 158.861L122.116 210.403L173.96 233.052L228.211 206.91L228.197 206.896Z" fill="black" stroke="white" stroke-width="1.35088" stroke-linejoin="round"/>
<path vector-effect="non-scaling-stroke" d="M30.0615 255.551C30.0615 220.347 54.3059 206.141 79.5542 194.259C104.803 182.378 122.322 174.388 136.102 158.532C136.102 158.532 144.807 209.579 185.746 214.433C215.051 217.912 216.33 193.476 211.351 181.718L255.605 198.88L237.59 255.551H30.0753H30.0615Z" fill="black" stroke="white" stroke-width="1.35088" stroke-linejoin="round"/>
<path vector-effect="non-scaling-stroke" d="M202.234 186.558H202.894V195.881H202.234V186.558Z" fill="black" stroke="white" stroke-width="1.35088" stroke-linejoin="round"/>
<path vector-effect="non-scaling-stroke" d="M136.569 159.576C149.908 140.475 147.653 120.603 146.319 104.032C144.985 87.4615 143.211 64.1797 159.218 55.2273C175.225 46.2611 246.391 82.9922 246.391 82.9922C246.391 82.9922 238.387 150.156 236.599 163.151C234.825 176.133 225.928 188.675 207.239 187.327C196.485 186.557 186.914 178.815 180.726 172.379" fill="#404040"/>
<path vector-effect="non-scaling-stroke" d="M136.569 159.576C149.908 140.475 147.653 120.603 146.319 104.032C144.985 87.4615 143.211 64.1797 159.218 55.2273C175.225 46.2611 246.391 82.9922 246.391 82.9922C246.391 82.9922 238.387 150.156 236.599 163.151C234.825 176.133 225.928 188.675 207.239 187.327C196.485 186.557 186.914 178.815 180.726 172.379" stroke="white" stroke-width="1.35088" stroke-linejoin="round"/>
<path vector-effect="non-scaling-stroke" d="M231.25 109.08L235.912 126.462C237.205 131.303 233.464 136.006 228.5 135.786L221.184 135.47L231.25 109.08Z" fill="#404040"/>
<path vector-effect="non-scaling-stroke" d="M228.816 136.13C231.154 136.13 233.341 135.085 234.798 133.229C236.352 131.276 236.861 128.787 236.215 126.367L231.553 108.984L230.907 109.163L235.568 126.545C236.16 128.746 235.692 131.029 234.276 132.802C232.859 134.59 230.741 135.539 228.5 135.443L221.184 135.127L221.156 135.8L228.472 136.117H228.816V136.13Z" fill="black" stroke="white" stroke-width="1.35088" stroke-linejoin="round"/>
<path vector-effect="non-scaling-stroke" d="M226.918 146.059C230.494 146.059 232.46 145.66 232.502 145.646L232.364 144.986C232.295 145 224.526 146.609 211.668 143.309L211.503 143.955C218.062 145.633 223.315 146.045 226.932 146.045L226.918 146.059Z" fill="black" stroke="white" stroke-width="1.35088" stroke-linejoin="round"/>
<path vector-effect="non-scaling-stroke" d="M140.928 141.19C144.71 128.497 143.706 115.97 142.812 104.899L142.743 104.088C141.808 92.4952 140.529 76.6256 146.071 65.4042L146.223 65.0879L180.891 84.2716L180.85 84.5054C180.753 84.9592 171.457 130.436 141.368 141.589L140.694 141.933L140.914 141.19H140.928Z" fill="#E1E1DD" stroke="white" stroke-width="1.35088" stroke-linejoin="round"/>
<path vector-effect="non-scaling-stroke" d="M180.286 101.145C174.84 94.7783 168.446 91.5054 161.762 97.6387C155.148 103.703 153.91 122.227 167.208 126.614L180.286 101.159V101.145Z" fill="#404040"/>
<path vector-effect="non-scaling-stroke" d="M167.098 126.902L167.304 126.256C162.299 124.606 158.874 120.632 157.705 115.076C156.358 108.723 158.201 101.324 161.982 97.8448C164.444 95.5895 166.988 94.5306 169.587 94.6819C172.929 94.8882 176.435 97.116 180.038 101.31L180.547 100.87C176.82 96.5247 173.149 94.2144 169.628 93.9943C166.85 93.8293 164.128 94.957 161.542 97.336C157.595 100.953 155.67 108.64 157.059 115.213C158.297 121.003 161.858 125.142 167.112 126.889H167.098V126.902Z" fill="#202020" stroke="white" stroke-width="1.35088" stroke-linejoin="round"/>
<path vector-effect="non-scaling-stroke" d="M137.917 80.5309C137.917 80.5309 183.765 103.414 257.929 95.2729C257.929 95.2729 252.112 86.9943 251.108 74.0676C250.104 61.1409 248.096 38.1204 218.819 28.0128C189.527 17.919 151.352 22.2508 145.054 56.5615C142.166 72.2936 137.903 80.5172 137.903 80.5172L137.917 80.5309Z" fill="#202020" stroke="white" stroke-width="1.35088" stroke-linejoin="round"/>
<path vector-effect="non-scaling-stroke" d="M240.588 96.8822C240.615 96.6484 242.967 74.123 243.558 63.9604C244.163 53.7015 243.599 42.0125 229.352 33.2251L229.696 32.6475C244.259 41.6137 244.823 53.5228 244.218 63.9879C243.627 74.178 241.275 96.7172 241.248 96.9509L240.588 96.8822ZM213.331 96.5934C213.359 96.3596 215.752 72.129 215.752 57.0982C215.752 45.313 210.746 34.5728 202.371 28.3982C197.063 24.479 188.014 20.6835 175.074 24.809L175.28 25.4554C187.946 21.4123 196.788 25.1116 201.972 28.9346C210.182 34.9854 215.078 45.5192 215.078 57.0982C215.078 72.0877 212.699 96.2771 212.671 96.5246L213.331 96.5934Z" fill="black" stroke="white" stroke-width="1.35088" stroke-linejoin="round"/>
<path vector-effect="non-scaling-stroke" d="M302.43 134.549H342.489C346.779 134.549 349.832 138.757 348.512 142.869L339.945 169.753C339.106 172.394 336.672 174.168 333.921 174.168H292.35C288.059 174.168 285.006 169.96 286.326 165.848L294.44 140.421C295.554 136.914 298.785 134.549 302.443 134.549H302.43Z" fill="black" stroke="white" stroke-width="1.35088" stroke-linejoin="round"/>
<path vector-effect="non-scaling-stroke" d="M274.114 147.2H362.923C372.055 147.2 378.518 156.153 375.74 164.885L344.028 255.523H222.022L254.862 161.323C257.543 152.894 265.327 147.187 274.128 147.187L274.114 147.2Z" fill="#202020" stroke="white" stroke-width="1.35088" stroke-linejoin="round"/>
<path vector-effect="non-scaling-stroke" d="M326.096 155.465C326.096 156.95 327.307 158.16 328.778 158.16C330.249 158.16 331.46 156.95 331.46 155.465C331.46 153.98 330.249 152.77 328.778 152.77C327.307 152.77 326.096 153.98 326.096 155.465Z" fill="black" stroke="white" stroke-width="1.35088" stroke-linejoin="round"/>
<path vector-effect="non-scaling-stroke" d="M306.019 155.465C306.019 156.95 307.229 158.16 308.7 158.16C310.172 158.16 311.382 156.95 311.382 155.465C311.382 153.98 310.172 152.77 308.7 152.77C307.229 152.77 306.019 153.98 306.019 155.465Z" fill="black" stroke="white" stroke-width="1.35088" stroke-linejoin="round"/>
<path vector-effect="non-scaling-stroke" d="M405.554 273.318C393.521 261.202 379.453 251.741 363.735 245.195C348.016 238.635 331.418 235.321 314.407 235.321H22.759C11.6613 235.321 2.6814 244.37 2.6814 255.536C2.6814 266.703 11.6751 275.752 22.759 275.752H314.393C338.101 275.752 360.393 285.048 377.143 301.921L609.191 534.313H665.119L405.527 273.331L405.554 273.318Z" fill="#202020" stroke="white" stroke-width="1.35088" stroke-linejoin="round"/>
<path vector-effect="non-scaling-stroke" d="M524.507 441.818C513.451 441.818 504.499 432.797 504.499 421.672C504.499 410.547 513.451 401.525 524.507 401.525C535.564 401.525 544.516 410.547 544.516 421.672C544.516 432.797 535.564 441.818 524.507 441.818Z" fill="black" stroke="white" stroke-width="1.35088" stroke-linejoin="round"/>
<path vector-effect="non-scaling-stroke" d="M293.354 255.524C293.354 244.357 302.347 235.309 313.431 235.309C324.515 235.309 333.509 244.357 333.509 255.524C333.509 266.69 324.515 275.739 313.431 275.739C302.333 275.739 293.354 266.69 293.354 255.524Z" fill="black" stroke="white" stroke-width="1.35088" stroke-linejoin="round"/>
<path vector-effect="non-scaling-stroke" d="M2.6814 255.523C2.6814 244.356 11.6751 235.308 22.759 235.308C33.8567 235.308 42.8366 244.356 42.8366 255.523C42.8366 266.689 33.843 275.738 22.759 275.738C11.6751 275.738 2.6814 266.689 2.6814 255.523Z" fill="black" stroke="white" stroke-width="1.35088" stroke-linejoin="round"/>
<path vector-effect="non-scaling-stroke" d="M73.2971 201.836H140.117V235.308H73.2971V201.836Z" fill="black" stroke="white" stroke-width="1.35088" stroke-linejoin="round"/>
<path vector-effect="non-scaling-stroke" d="M73.2971 218.6H140.117" stroke="white" stroke-width="1.35088" stroke-linejoin="round"/>
<path vector-effect="non-scaling-stroke" d="M259.95 201.836H326.77V235.308H259.95V201.836Z" fill="black" stroke="white" stroke-width="1.35088" stroke-linejoin="round"/>
<path vector-effect="non-scaling-stroke" d="M259.95 218.6H326.77" stroke="white" stroke-width="1.35088" stroke-linejoin="round"/>
<path vector-effect="non-scaling-stroke" d="M487.364 307.974L534.615 355.225L510.948 378.892L463.697 331.64L487.364 307.974Z" fill="black" stroke="white" stroke-width="1.35088" stroke-linejoin="round"/>
<path vector-effect="non-scaling-stroke" d="M475.51 319.828L522.761 367.079" stroke="white" stroke-width="1.35088" stroke-linejoin="round"/>
<path vector-effect="non-scaling-stroke" d="M590.654 411.248L637.905 458.499L614.238 482.166L566.987 434.915L590.654 411.248Z" fill="black" stroke="white" stroke-width="1.35088" stroke-linejoin="round"/>
<path vector-effect="non-scaling-stroke" d="M578.8 423.103L626.051 470.354" stroke="white" stroke-width="1.35088" stroke-linejoin="round"/>
<path vector-effect="non-scaling-stroke" d="M708.547 324.46C710.624 324.047 712.687 323.483 714.722 322.81L723.523 335.021C728.859 332.821 733.961 329.892 738.691 326.234L732.517 312.523C733.314 311.822 734.085 311.107 734.855 310.337C735.611 309.58 736.34 308.797 737.041 307.999L750.752 314.174C754.396 309.443 757.339 304.341 759.539 299.005L747.328 290.204C748.001 288.183 748.565 286.12 748.978 284.03L763.94 282.517C764.71 276.7 764.71 270.8 763.94 264.997L748.978 263.484C748.552 261.408 748.001 259.345 747.328 257.31L759.539 248.509C757.339 243.173 754.41 238.071 750.752 233.354L737.041 239.529C736.34 238.731 735.625 237.961 734.855 237.191C734.098 236.435 733.314 235.706 732.517 235.004L738.691 221.294C733.961 217.65 728.859 214.707 723.523 212.506L714.722 224.718C712.701 224.044 710.638 223.48 708.547 223.068L707.035 208.106C704.133 207.721 701.204 207.528 698.275 207.528V243.283C706.072 243.283 713.869 246.253 719.81 252.208C731.706 264.103 731.706 283.397 719.81 295.292C713.856 301.247 706.072 304.217 698.275 304.217V339.972C701.204 339.972 704.133 339.779 707.035 339.394L708.547 324.432V324.46Z" stroke="white" stroke-width="1.35088" stroke-miterlimit="10"/>
<path vector-effect="non-scaling-stroke" d="M56.9875 284.044C57.3175 285.68 57.7438 287.289 58.2801 288.871L48.7089 295.76C50.4279 299.941 52.7244 303.929 55.5848 307.642L66.3249 302.801C66.875 303.42 67.4388 304.039 68.0302 304.63C68.6215 305.222 69.2403 305.785 69.8592 306.335L65.0185 317.076C68.7178 319.936 72.7195 322.233 76.9001 323.952L83.7897 314.38C85.3849 314.917 86.9939 315.343 88.6304 315.673L89.813 327.39C94.3649 327.995 98.9855 327.995 103.537 327.39L104.72 315.673C106.356 315.343 107.965 314.917 109.547 314.38L116.436 323.952C120.617 322.233 124.605 319.936 128.318 317.076L123.477 306.335C124.096 305.785 124.715 305.222 125.306 304.63C125.898 304.039 126.462 303.42 127.012 302.801L137.752 307.642C140.612 303.943 142.909 299.941 144.628 295.76L135.056 288.871C135.593 287.289 136.019 285.667 136.349 284.044L148.066 282.861C148.368 280.578 148.519 278.296 148.519 275.999H120.507C120.507 282.105 118.183 288.211 113.521 292.872C104.197 302.196 89.0979 302.196 79.7742 292.872C75.1123 288.211 72.7883 282.105 72.7883 275.999H44.7759C44.7759 278.296 44.9271 280.592 45.2297 282.861L56.9462 284.044H56.9875Z" stroke="white" stroke-width="1.35088" stroke-miterlimit="10"/>
<path vector-effect="non-scaling-stroke" d="M779.191 392.518C777.554 392.848 775.945 393.275 774.364 393.811L767.474 384.24C763.294 385.959 759.306 388.255 755.593 391.116L760.433 401.856C759.814 402.406 759.196 402.97 758.604 403.561C758.013 404.152 757.449 404.771 756.899 405.39L746.159 400.549C743.299 404.249 741.002 408.25 739.283 412.431L748.854 419.321C748.318 420.916 747.892 422.525 747.562 424.161L735.845 425.344C735.24 429.896 735.24 434.516 735.845 439.068L747.562 440.251C747.892 441.887 748.318 443.496 748.854 445.078L739.283 451.967C741.002 456.148 743.299 460.136 746.159 463.849L756.899 459.008C757.449 459.627 758.013 460.246 758.604 460.837C759.196 461.428 759.814 461.992 760.433 462.542L755.593 473.283C759.292 476.143 763.294 478.439 767.474 480.158L774.364 470.587C775.945 471.124 777.568 471.55 779.191 471.88L780.373 483.596C782.656 483.899 784.939 484.05 787.236 484.05V456.038C781.13 456.038 775.024 453.714 770.362 449.052C761.038 439.728 761.038 424.629 770.362 415.305C775.024 410.643 781.13 408.319 787.236 408.319V380.307C784.939 380.307 782.642 380.458 780.373 380.76L779.191 392.477V392.518Z" stroke="white" stroke-width="1.35088" stroke-miterlimit="10"/>
<path vector-effect="non-scaling-stroke" d="M425.494 421.163C425.783 418.99 425.783 416.79 425.494 414.617L419.897 414.053C419.746 413.269 419.54 412.499 419.279 411.743L423.844 408.456C423.019 406.462 421.933 404.551 420.558 402.79L415.428 405.101C415.167 404.798 414.892 404.509 414.617 404.234C414.328 403.946 414.039 403.684 413.75 403.423L416.061 398.294C414.3 396.932 412.389 395.832 410.395 395.007L407.108 399.573C406.352 399.325 405.582 399.119 404.798 398.954L404.234 393.357C403.148 393.219 402.048 393.137 400.961 393.137C399.875 393.137 398.775 393.205 397.688 393.357L397.124 398.954C396.341 399.105 395.571 399.311 394.814 399.573L391.527 395.007C389.533 395.832 387.622 396.918 385.862 398.294L388.172 403.423C387.869 403.684 387.581 403.959 387.306 404.234C387.017 404.523 386.756 404.812 386.494 405.101L381.365 402.79C380.003 404.551 378.903 406.462 378.078 408.456L382.644 411.743C382.396 412.499 382.19 413.269 382.025 414.053L376.428 414.617C376.139 416.79 376.139 418.99 376.428 421.163L382.025 421.727C382.176 422.511 382.383 423.281 382.644 424.037L378.078 427.324C378.903 429.318 379.99 431.229 381.365 432.989L386.494 430.679C386.756 430.982 387.031 431.27 387.306 431.545C387.594 431.834 387.883 432.096 388.172 432.357L385.862 437.486C387.622 438.848 389.533 439.948 391.527 440.773L394.814 436.207C395.571 436.455 396.341 436.661 397.124 436.826L397.688 442.423C398.775 442.561 399.875 442.643 400.961 442.643C402.048 442.643 403.148 442.574 404.234 442.423L404.798 436.826C405.582 436.675 406.352 436.469 407.108 436.207L410.395 440.773C412.389 439.948 414.3 438.861 416.061 437.486L413.75 432.357C414.053 432.096 414.342 431.821 414.617 431.545C414.906 431.257 415.167 430.968 415.428 430.679L420.558 432.989C421.919 431.229 423.019 429.318 423.844 427.324L419.279 424.037C419.526 423.281 419.732 422.511 419.897 421.727L425.494 421.163ZM409.006 425.935C406.778 428.163 403.863 429.276 400.961 429.276C398.06 429.276 395.13 428.163 392.916 425.935C388.475 421.493 388.475 414.273 392.916 409.831C395.144 407.604 398.06 406.49 400.961 406.49C403.863 406.49 406.792 407.604 409.006 409.831C413.448 414.273 413.448 421.493 409.006 425.935Z" stroke="white" stroke-width="1.35088" stroke-miterlimit="10"/>
<path vector-effect="non-scaling-stroke" d="M698.275 44.6802V20.2983V1.36203L655.892 20.9171V2.09088L616.424 20.2983V1.07324L574.742 20.2983V1.49955L531.342 21.5359V2.36591L458.306 36.0578V148.52" stroke="white" stroke-width="1.35088" stroke-miterlimit="10"/>
<path vector-effect="non-scaling-stroke" d="M640.077 170.922H525.937L512.186 143.309H653.829L640.077 170.922Z" stroke="white" stroke-width="1.35088" stroke-miterlimit="10"/>
<path vector-effect="non-scaling-stroke" d="M601.064 306.184L638.4 263.306L623.053 247.835L590.819 294.894L601.05 306.184H601.064Z" fill="#202020" stroke="white" stroke-width="1.35088" stroke-miterlimit="10"/>
<path vector-effect="non-scaling-stroke" d="M589.925 305.001C587.243 301.59 587.89 296.612 591.382 293.875C594.862 291.153 599.854 291.703 602.521 295.099C605.189 298.496 604.557 303.488 601.077 306.211C597.598 308.947 592.606 308.397 589.925 304.987V305.001Z" fill="#020202" stroke="white" stroke-width="1.35088" stroke-miterlimit="10"/>
<path vector-effect="non-scaling-stroke" d="M594.449 301.659C593.652 300.655 593.872 299.17 594.917 298.331C595.962 297.493 597.461 297.658 598.259 298.661C599.056 299.665 598.836 301.164 597.791 301.989C596.746 302.814 595.247 302.663 594.449 301.659Z" fill="#202020" stroke="white" stroke-width="1.35088" stroke-miterlimit="10"/>
<path vector-effect="non-scaling-stroke" d="M572.157 292.212L589.306 324.941L572.914 333.536L555.765 300.807L572.157 292.212Z" fill="#9F00FF" stroke="white" stroke-width="1.35088" stroke-linejoin="round"/>
<path vector-effect="non-scaling-stroke" d="M577.384 280.605L601.298 327.045Z" fill="white"/>
<path vector-effect="non-scaling-stroke" d="M577.384 280.605L601.298 327.045" stroke="white" stroke-width="1.35088" stroke-miterlimit="10"/>
<path vector-effect="non-scaling-stroke" d="M580.835 189.829L582.21 151.311Z" fill="#202020"/>
<path vector-effect="non-scaling-stroke" d="M580.835 189.829L582.21 151.311" stroke="white" stroke-width="1.35088" stroke-miterlimit="10"/>
<path vector-effect="non-scaling-stroke" d="M644.959 246.638L597.158 161.515L563.301 177.398L620.797 256.677L644.959 246.638Z" fill="#202020" stroke="white" stroke-width="1.35088" stroke-miterlimit="10"/>
<path vector-effect="non-scaling-stroke" d="M574.591 188.99C564.759 185.827 559.451 174.922 562.765 164.65C566.065 154.363 576.723 148.588 586.555 151.75C596.388 154.913 601.696 165.805 598.382 176.091C595.081 186.377 584.424 192.153 574.591 188.99Z" fill="#020202" stroke="white" stroke-width="1.35088" stroke-miterlimit="10"/>
<path vector-effect="non-scaling-stroke" d="M578.745 176.022C575.747 175.06 574.138 171.746 575.142 168.61C576.145 165.488 579.391 163.714 582.375 164.677C585.373 165.64 586.982 168.954 585.978 172.089C584.974 175.225 581.729 176.985 578.745 176.022Z" fill="#202020" stroke="white" stroke-width="1.35088" stroke-miterlimit="10"/>
<path vector-effect="non-scaling-stroke" d="M637.313 263.649C630.218 266.028 622.448 261.944 619.959 254.504C617.47 247.064 621.21 239.143 628.32 236.764C635.416 234.385 643.185 238.483 645.675 245.896C648.164 253.321 644.423 261.27 637.327 263.649H637.313Z" fill="#020202" stroke="white" stroke-width="1.35088" stroke-miterlimit="10"/>
<path vector-effect="non-scaling-stroke" d="M634.15 253.775C632.06 254.477 629.777 253.28 629.048 251.094C628.32 248.907 629.42 246.583 631.51 245.882C633.6 245.181 635.883 246.391 636.612 248.564C637.341 250.75 636.241 253.074 634.15 253.775Z" fill="#202020" stroke="white" stroke-width="1.35088" stroke-miterlimit="10"/>
<path vector-effect="non-scaling-stroke" d="M601.284 327.019C603.842 331.928 601.93 337.992 597.021 340.55C592.112 343.108 586.047 341.197 583.489 336.287" fill="#020202"/>
<path vector-effect="non-scaling-stroke" d="M601.284 327.019C603.842 331.928 601.93 337.992 597.021 340.55C592.112 343.108 586.047 341.197 583.489 336.287" stroke="white" stroke-width="1.35088" stroke-linejoin="round"/>
<path vector-effect="non-scaling-stroke" d="M559.602 289.888C557.044 284.978 558.956 278.914 563.865 276.356C568.774 273.798 574.839 275.709 577.397 280.619" fill="#020202"/>
<path vector-effect="non-scaling-stroke" d="M559.602 289.888C557.044 284.978 558.956 278.914 563.865 276.356C568.774 273.798 574.839 275.709 577.397 280.619" stroke="white" stroke-width="1.35088" stroke-linejoin="round"/>
<path vector-effect="non-scaling-stroke" d="M174.359 441.048C179.235 441.048 183.188 437.095 183.188 432.219C183.188 427.343 179.235 423.391 174.359 423.391C169.483 423.391 165.531 427.343 165.531 432.219C165.531 437.095 169.483 441.048 174.359 441.048Z" stroke="white" stroke-width="1.35088" stroke-miterlimit="10"/>
<path vector-effect="non-scaling-stroke" d="M174.359 456.973C188.03 456.973 199.113 445.891 199.113 432.22C199.113 418.549 188.03 407.467 174.359 407.467C160.689 407.467 149.606 418.549 149.606 432.22C149.606 445.891 160.689 456.973 174.359 456.973Z" stroke="white" stroke-width="1.35088" stroke-miterlimit="10"/>
<path vector-effect="non-scaling-stroke" d="M317.914 426.28H348.099L353.215 353.464H293.354" stroke="white" stroke-width="1.35088" stroke-miterlimit="10"/>
<path vector-effect="non-scaling-stroke" d="M151.655 381.792L192.195 290.535H296.613V318.231" stroke="white" stroke-width="1.35088" stroke-miterlimit="10"/>
<path vector-effect="non-scaling-stroke" d="M296.613 302.582H186.997" stroke="white" stroke-width="1.35088" stroke-miterlimit="10"/>
<path vector-effect="non-scaling-stroke" d="M282.6 265.342H265.066L256.815 290.535H274.349L282.6 265.342Z" fill="#404040"/>
<path vector-effect="non-scaling-stroke" d="M282.6 265.342H265.066L256.815 290.535H274.349L282.6 265.342Z" stroke="white" stroke-width="1.35088" stroke-miterlimit="10"/>
<path vector-effect="non-scaling-stroke" d="M124.935 381.792L126.008 375.645L80.4621 364.657L71.9635 413.394L20.4905 432.22V443.524H66.7103H68.0854H114.181L121.415 401.98" fill="#404040"/>
<path vector-effect="non-scaling-stroke" d="M124.935 381.792L126.008 375.645L80.4621 364.657L71.9635 413.394L20.4905 432.22V443.524H66.7103H68.0854H114.181L121.415 401.98" stroke="white" stroke-width="1.35088" stroke-miterlimit="10"/>
<path vector-effect="non-scaling-stroke" d="M116.148 432.221H149.606" stroke="white" stroke-width="1.35088" stroke-miterlimit="10"/>
<path vector-effect="non-scaling-stroke" d="M199.113 432.221L220.112 427.972" stroke="white" stroke-width="1.35088" stroke-miterlimit="10"/>
<path vector-effect="non-scaling-stroke" d="M293.354 353.464H329.59L323.58 318.231H234.702V353.464H241.812" fill="#404040"/>
<path vector-effect="non-scaling-stroke" d="M113.37 381.792H189.005V401.966H113.37C107.801 401.966 103.276 397.442 103.276 391.872C103.276 386.303 107.801 381.778 113.37 381.778V381.792Z" fill="#404040"/>
<path vector-effect="non-scaling-stroke" d="M189.005 401.966L234.702 353.464V318.231L189.005 381.792V401.966Z" fill="#404040"/>
<path vector-effect="non-scaling-stroke" d="M293.354 353.464H329.59L323.58 318.231H234.702V353.464H241.812" stroke="white" stroke-width="1.35088" stroke-linejoin="round"/>
<path vector-effect="non-scaling-stroke" d="M113.37 381.792H189.005V401.966H113.37C107.801 401.966 103.276 397.442 103.276 391.872C103.276 386.303 107.801 381.778 113.37 381.778V381.792Z" stroke="white" stroke-width="1.35088" stroke-linejoin="round"/>
<path vector-effect="non-scaling-stroke" d="M189.005 401.966L234.702 353.464V318.231L189.005 381.792V401.966Z" stroke="white" stroke-width="1.35088" stroke-linejoin="round"/>
<path vector-effect="non-scaling-stroke" d="M268.573 456.96C298.945 456.96 323.566 432.338 323.566 401.966C323.566 371.594 298.945 346.973 268.573 346.973C238.201 346.973 213.58 371.594 213.58 401.966C213.58 432.338 238.201 456.96 268.573 456.96Z" stroke="white" stroke-width="1.35088" stroke-miterlimit="10"/>
<path vector-effect="non-scaling-stroke" d="M268.573 456.96C298.945 456.96 323.566 432.338 323.566 401.966C323.566 371.594 298.945 346.973 268.573 346.973C238.201 346.973 213.58 371.594 213.58 401.966C213.58 432.338 238.201 456.96 268.573 456.96Z" fill="#020202" stroke="white" stroke-width="1.35088" stroke-miterlimit="10"/>
<path vector-effect="non-scaling-stroke" d="M268.573 410.795C273.449 410.795 277.402 406.842 277.402 401.966C277.402 397.09 273.449 393.138 268.573 393.138C263.697 393.138 259.744 397.09 259.744 401.966C259.744 406.842 263.697 410.795 268.573 410.795Z" stroke="white" stroke-width="1.35088" stroke-miterlimit="10"/>
<path vector-effect="non-scaling-stroke" d="M268.573 422.14C279.715 422.14 288.747 413.108 288.747 401.966C288.747 390.824 279.715 381.792 268.573 381.792C257.431 381.792 248.399 390.824 248.399 401.966C248.399 413.108 257.431 422.14 268.573 422.14Z" stroke="white" stroke-width="1.35088" stroke-miterlimit="10"/>
<path vector-effect="non-scaling-stroke" d="M73.2971 218.571H140.117" stroke="white" stroke-width="1.35088" stroke-linejoin="round"/>
<path vector-effect="non-scaling-stroke" d="M659.811 69.5C659.811 72.0991 658.367 74.2031 656.593 74.2031C654.819 74.2031 653.375 72.0991 653.375 69.5C653.375 66.9009 654.819 64.7969 656.593 64.7969C658.367 64.7969 659.811 66.9009 659.811 69.5Z" fill="#020202" stroke="white" stroke-width="1.35088" stroke-miterlimit="10"/>
<path vector-effect="non-scaling-stroke" d="M663.826 64.7969V74.2031Z" fill="#020202"/>
<path vector-effect="non-scaling-stroke" d="M663.826 64.7969V74.2031" stroke="white" stroke-width="1.35088" stroke-miterlimit="10"/>
<path vector-effect="non-scaling-stroke" d="M659.811 82.041C659.811 84.6401 658.367 86.7441 656.593 86.7441C654.819 86.7441 653.375 84.6401 653.375 82.041C653.375 79.4419 654.819 77.3379 656.593 77.3379C658.367 77.3379 659.811 79.4419 659.811 82.041Z" fill="#020202" stroke="white" stroke-width="1.35088" stroke-miterlimit="10"/>
<path vector-effect="non-scaling-stroke" d="M663.826 77.3379V86.7441Z" fill="#020202"/>
<path vector-effect="non-scaling-stroke" d="M663.826 77.3379V86.7441" stroke="white" stroke-width="1.35088" stroke-miterlimit="10"/>
<path vector-effect="non-scaling-stroke" d="M659.811 96.1514C659.811 98.7504 658.367 100.854 656.593 100.854C654.819 100.854 653.375 98.7504 653.375 96.1514C653.375 93.5523 654.819 91.4482 656.593 91.4482C658.367 91.4482 659.811 93.5523 659.811 96.1514Z" fill="#020202" stroke="white" stroke-width="1.35088" stroke-miterlimit="10"/>
<path vector-effect="non-scaling-stroke" d="M663.826 91.4482V100.854Z" fill="#020202"/>
<path vector-effect="non-scaling-stroke" d="M663.826 91.4482V100.854" stroke="white" stroke-width="1.35088" stroke-miterlimit="10"/>
<path vector-effect="non-scaling-stroke" d="M659.811 108.692C659.811 111.291 658.367 113.395 656.593 113.395C654.819 113.395 653.375 111.291 653.375 108.692C653.375 106.093 654.819 103.989 656.593 103.989C658.367 103.989 659.811 106.093 659.811 108.692Z" fill="#020202" stroke="white" stroke-width="1.35088" stroke-miterlimit="10"/>
<path vector-effect="non-scaling-stroke" d="M663.826 103.989V113.395Z" fill="#020202"/>
<path vector-effect="non-scaling-stroke" d="M663.826 103.989V113.395" stroke="white" stroke-width="1.35088" stroke-miterlimit="10"/>
<path vector-effect="non-scaling-stroke" d="M668.64 64.7969V74.2031Z" fill="#020202"/>
<path vector-effect="non-scaling-stroke" d="M668.64 64.7969V74.2031" stroke="white" stroke-width="1.35088" stroke-miterlimit="10"/>
<path vector-effect="non-scaling-stroke" d="M679.077 69.5C679.077 72.0991 677.633 74.2031 675.86 74.2031C674.086 74.2031 672.642 72.0991 672.642 69.5C672.642 66.9009 674.086 64.7969 675.86 64.7969C677.633 64.7969 679.077 66.9009 679.077 69.5Z" fill="#020202" stroke="white" stroke-width="1.35088" stroke-miterlimit="10"/>
<path vector-effect="non-scaling-stroke" d="M683.093 64.7969V74.2031Z" fill="#020202"/>
<path vector-effect="non-scaling-stroke" d="M683.093 64.7969V74.2031" stroke="white" stroke-width="1.35088" stroke-miterlimit="10"/>
<path vector-effect="non-scaling-stroke" d="M693.531 69.5C693.531 72.0991 692.087 74.2031 690.313 74.2031C688.539 74.2031 687.095 72.0991 687.095 69.5C687.095 66.9009 688.539 64.7969 690.313 64.7969C692.087 64.7969 693.531 66.9009 693.531 69.5Z" fill="#020202" stroke="white" stroke-width="1.35088" stroke-miterlimit="10"/>
<path vector-effect="non-scaling-stroke" d="M697.546 64.7969V74.2031Z" fill="#020202"/>
<path vector-effect="non-scaling-stroke" d="M697.546 64.7969V74.2031" stroke="white" stroke-width="1.35088" stroke-miterlimit="10"/>
<path vector-effect="non-scaling-stroke" d="M702.373 64.7969V74.2031Z" fill="#020202"/>
<path vector-effect="non-scaling-stroke" d="M702.373 64.7969V74.2031" stroke="white" stroke-width="1.35088" stroke-miterlimit="10"/>
<path vector-effect="non-scaling-stroke" d="M674.264 82.041C674.264 84.6401 672.82 86.7441 671.046 86.7441C669.272 86.7441 667.828 84.6401 667.828 82.041C667.828 79.4419 669.272 77.3379 671.046 77.3379C672.82 77.3379 674.264 79.4419 674.264 82.041Z" fill="#020202" stroke="white" stroke-width="1.35088" stroke-miterlimit="10"/>
<path vector-effect="non-scaling-stroke" d="M678.28 77.3379V86.7441Z" fill="#020202"/>
<path vector-effect="non-scaling-stroke" d="M678.28 77.3379V86.7441" stroke="white" stroke-width="1.35088" stroke-miterlimit="10"/>
<path vector-effect="non-scaling-stroke" d="M688.717 82.041C688.717 84.6401 687.273 86.7441 685.499 86.7441C683.725 86.7441 682.281 84.6401 682.281 82.041C682.281 79.4419 683.725 77.3379 685.499 77.3379C687.273 77.3379 688.717 79.4419 688.717 82.041Z" fill="#020202" stroke="white" stroke-width="1.35088" stroke-miterlimit="10"/>
<path vector-effect="non-scaling-stroke" d="M692.733 77.3389V86.7451Z" fill="#020202"/>
<path vector-effect="non-scaling-stroke" d="M692.733 77.3389V86.7451" stroke="white" stroke-width="1.35088" stroke-miterlimit="10"/>
<path vector-effect="non-scaling-stroke" d="M703.17 82.041C703.17 84.6401 701.726 86.7441 699.952 86.7441C698.178 86.7441 696.734 84.6401 696.734 82.041C696.734 79.4419 698.178 77.3379 699.952 77.3379C701.726 77.3379 703.17 79.4419 703.17 82.041Z" fill="#020202" stroke="white" stroke-width="1.35088" stroke-miterlimit="10"/>
<path vector-effect="non-scaling-stroke" d="M668.64 91.4482V100.854Z" fill="#020202"/>
<path vector-effect="non-scaling-stroke" d="M668.64 91.4482V100.854" stroke="white" stroke-width="1.35088" stroke-miterlimit="10"/>
<path vector-effect="non-scaling-stroke" d="M679.077 96.1514C679.077 98.7504 677.633 100.854 675.86 100.854C674.086 100.854 672.642 98.7504 672.642 96.1514C672.642 93.5523 674.086 91.4482 675.86 91.4482C677.633 91.4482 679.077 93.5523 679.077 96.1514Z" fill="#020202" stroke="white" stroke-width="1.35088" stroke-miterlimit="10"/>
<path vector-effect="non-scaling-stroke" d="M683.093 91.4482V100.854Z" fill="#020202"/>
<path vector-effect="non-scaling-stroke" d="M683.093 91.4482V100.854" stroke="white" stroke-width="1.35088" stroke-miterlimit="10"/>
<path vector-effect="non-scaling-stroke" d="M693.531 96.1514C693.531 98.7504 692.087 100.854 690.313 100.854C688.539 100.854 687.095 98.7504 687.095 96.1514C687.095 93.5523 688.539 91.4482 690.313 91.4482C692.087 91.4482 693.531 93.5523 693.531 96.1514Z" fill="#020202" stroke="white" stroke-width="1.35088" stroke-miterlimit="10"/>
<path vector-effect="non-scaling-stroke" d="M697.546 91.4482V100.854Z" fill="#020202"/>
<path vector-effect="non-scaling-stroke" d="M697.546 91.4482V100.854" stroke="white" stroke-width="1.35088" stroke-miterlimit="10"/>
<path vector-effect="non-scaling-stroke" d="M702.373 91.4482V100.854Z" fill="#020202"/>
<path vector-effect="non-scaling-stroke" d="M702.373 91.4482V100.854" stroke="white" stroke-width="1.35088" stroke-miterlimit="10"/>
<path vector-effect="non-scaling-stroke" d="M674.264 108.692C674.264 111.291 672.82 113.395 671.046 113.395C669.272 113.395 667.828 111.291 667.828 108.692C667.828 106.093 669.272 103.989 671.046 103.989C672.82 103.989 674.264 106.093 674.264 108.692Z" fill="#020202" stroke="white" stroke-width="1.35088" stroke-miterlimit="10"/>
<path vector-effect="non-scaling-stroke" d="M678.28 103.989V113.395Z" fill="#020202"/>
<path vector-effect="non-scaling-stroke" d="M678.28 103.989V113.395" stroke="white" stroke-width="1.35088" stroke-miterlimit="10"/>
<path vector-effect="non-scaling-stroke" d="M692.733 103.989V113.395Z" fill="#020202"/>
<path vector-effect="non-scaling-stroke" d="M692.733 103.989V113.395" stroke="white" stroke-width="1.35088" stroke-miterlimit="10"/>
<path vector-effect="non-scaling-stroke" d="M703.17 108.692C703.17 111.291 701.726 113.395 699.952 113.395C698.178 113.395 696.734 111.291 696.734 108.692C696.734 106.093 698.178 103.989 699.952 103.989C701.726 103.989 703.17 106.093 703.17 108.692Z" fill="#020202" stroke="white" stroke-width="1.35088" stroke-miterlimit="10"/>
<path vector-effect="non-scaling-stroke" d="M687.92 103.989V113.395Z" fill="#020202"/>
<path vector-effect="non-scaling-stroke" d="M687.92 103.989V113.395" stroke="white" stroke-width="1.35088" stroke-miterlimit="10"/>
<path vector-effect="non-scaling-stroke" d="M683.093 103.989V113.395Z" fill="#020202"/>
<path vector-effect="non-scaling-stroke" d="M683.093 103.989V113.395" stroke="white" stroke-width="1.35088" stroke-miterlimit="10"/>
<path vector-effect="non-scaling-stroke" d="M713.086 69.5C713.086 72.0991 711.642 74.2031 709.868 74.2031C708.094 74.2031 706.65 72.0991 706.65 69.5C706.65 66.9009 708.094 64.7969 709.868 64.7969C711.642 64.7969 713.086 66.9009 713.086 69.5Z" fill="#020202" stroke="white" stroke-width="1.35088" stroke-miterlimit="10"/>
<path vector-effect="non-scaling-stroke" d="M717.102 64.7969V74.2031Z" fill="#020202"/>
<path vector-effect="non-scaling-stroke" d="M717.102 64.7969V74.2031" stroke="white" stroke-width="1.35088" stroke-miterlimit="10"/>
<path vector-effect="non-scaling-stroke" d="M713.086 82.041C713.086 84.6401 711.642 86.7441 709.868 86.7441C708.094 86.7441 706.65 84.6401 706.65 82.041C706.65 79.4419 708.094 77.3379 709.868 77.3379C711.642 77.3379 713.086 79.4419 713.086 82.041Z" fill="#020202" stroke="white" stroke-width="1.35088" stroke-miterlimit="10"/>
<path vector-effect="non-scaling-stroke" d="M717.102 77.3379V86.7441Z" fill="#020202"/>
<path vector-effect="non-scaling-stroke" d="M717.102 77.3379V86.7441" stroke="white" stroke-width="1.35088" stroke-miterlimit="10"/>
<path vector-effect="non-scaling-stroke" d="M713.086 96.1514C713.086 98.7504 711.642 100.854 709.868 100.854C708.094 100.854 706.65 98.7504 706.65 96.1514C706.65 93.5523 708.094 91.4482 709.868 91.4482C711.642 91.4482 713.086 93.5523 713.086 96.1514Z" fill="#020202" stroke="white" stroke-width="1.35088" stroke-miterlimit="10"/>
<path vector-effect="non-scaling-stroke" d="M717.102 91.4482V100.854Z" fill="#020202"/>
<path vector-effect="non-scaling-stroke" d="M717.102 91.4482V100.854" stroke="white" stroke-width="1.35088" stroke-miterlimit="10"/>
<path vector-effect="non-scaling-stroke" d="M713.086 108.692C713.086 111.291 711.642 113.395 709.868 113.395C708.094 113.395 706.65 111.291 706.65 108.692C706.65 106.093 708.094 103.989 709.868 103.989C711.642 103.989 713.086 106.093 713.086 108.692Z" fill="#020202" stroke="white" stroke-width="1.35088" stroke-miterlimit="10"/>
<path vector-effect="non-scaling-stroke" d="M717.102 103.989V113.395Z" fill="#020202"/>
<path vector-effect="non-scaling-stroke" d="M717.102 103.989V113.395" stroke="white" stroke-width="1.35088" stroke-miterlimit="10"/>
<path vector-effect="non-scaling-stroke" d="M721.915 64.7969V74.2031Z" fill="#020202"/>
<path vector-effect="non-scaling-stroke" d="M721.915 64.7969V74.2031" stroke="white" stroke-width="1.35088" stroke-miterlimit="10"/>
<path vector-effect="non-scaling-stroke" d="M732.352 69.5C732.352 72.0991 730.908 74.2031 729.134 74.2031C727.36 74.2031 725.916 72.0991 725.916 69.5C725.916 66.9009 727.36 64.7969 729.134 64.7969C730.908 64.7969 732.352 66.9009 732.352 69.5Z" fill="#020202" stroke="white" stroke-width="1.35088" stroke-miterlimit="10"/>
<path vector-effect="non-scaling-stroke" d="M736.368 64.7969V74.2031Z" fill="#020202"/>
<path vector-effect="non-scaling-stroke" d="M736.368 64.7969V74.2031" stroke="white" stroke-width="1.35088" stroke-miterlimit="10"/>
<path vector-effect="non-scaling-stroke" d="M746.805 69.5C746.805 72.0991 745.361 74.2031 743.588 74.2031C741.814 74.2031 740.37 72.0991 740.37 69.5C740.37 66.9009 741.814 64.7969 743.588 64.7969C745.361 64.7969 746.805 66.9009 746.805 69.5Z" fill="#020202" stroke="white" stroke-width="1.35088" stroke-miterlimit="10"/>
<path vector-effect="non-scaling-stroke" d="M750.821 64.7969V74.2031Z" fill="#020202"/>
<path vector-effect="non-scaling-stroke" d="M750.821 64.7969V74.2031" stroke="white" stroke-width="1.35088" stroke-miterlimit="10"/>
<path vector-effect="non-scaling-stroke" d="M755.634 64.7969V74.2031Z" fill="#020202"/>
<path vector-effect="non-scaling-stroke" d="M755.634 64.7969V74.2031" stroke="white" stroke-width="1.35088" stroke-miterlimit="10"/>
<path vector-effect="non-scaling-stroke" d="M727.539 82.042C727.539 84.6411 726.095 86.7451 724.321 86.7451C722.547 86.7451 721.103 84.6411 721.103 82.042C721.103 79.4429 722.547 77.3389 724.321 77.3389C726.095 77.3389 727.539 79.4429 727.539 82.042Z" fill="#020202" stroke="white" stroke-width="1.35088" stroke-miterlimit="10"/>
<path vector-effect="non-scaling-stroke" d="M731.555 77.3379V86.7441Z" fill="#020202"/>
<path vector-effect="non-scaling-stroke" d="M731.555 77.3379V86.7441" stroke="white" stroke-width="1.35088" stroke-miterlimit="10"/>
<path vector-effect="non-scaling-stroke" d="M741.992 82.041C741.992 84.6401 740.548 86.7441 738.775 86.7441C737.001 86.7441 735.557 84.6401 735.557 82.041C735.557 79.4419 737.001 77.3379 738.775 77.3379C740.548 77.3379 741.992 79.4419 741.992 82.041Z" fill="#020202" stroke="white" stroke-width="1.35088" stroke-miterlimit="10"/>
<path vector-effect="non-scaling-stroke" d="M746.008 77.3379V86.7441Z" fill="#020202"/>
<path vector-effect="non-scaling-stroke" d="M746.008 77.3379V86.7441" stroke="white" stroke-width="1.35088" stroke-miterlimit="10"/>
<path vector-effect="non-scaling-stroke" d="M756.446 82.042C756.446 84.6411 755.002 86.7451 753.228 86.7451C751.454 86.7451 750.01 84.6411 750.01 82.042C750.01 79.4429 751.454 77.3389 753.228 77.3389C755.002 77.3389 756.446 79.4429 756.446 82.042Z" fill="#020202" stroke="white" stroke-width="1.35088" stroke-miterlimit="10"/>
<path vector-effect="non-scaling-stroke" d="M721.915 91.4482V100.854Z" fill="#020202"/>
<path vector-effect="non-scaling-stroke" d="M721.915 91.4482V100.854" stroke="white" stroke-width="1.35088" stroke-miterlimit="10"/>
<path vector-effect="non-scaling-stroke" d="M732.352 96.1504C732.352 98.7495 730.908 100.853 729.134 100.853C727.36 100.853 725.916 98.7495 725.916 96.1504C725.916 93.5513 727.36 91.4473 729.134 91.4473C730.908 91.4473 732.352 93.5513 732.352 96.1504Z" fill="#020202" stroke="white" stroke-width="1.35088" stroke-miterlimit="10"/>
<path vector-effect="non-scaling-stroke" d="M736.368 91.4482V100.854Z" fill="#020202"/>
<path vector-effect="non-scaling-stroke" d="M736.368 91.4482V100.854" stroke="white" stroke-width="1.35088" stroke-miterlimit="10"/>
<path vector-effect="non-scaling-stroke" d="M746.805 96.1514C746.805 98.7504 745.361 100.854 743.588 100.854C741.814 100.854 740.37 98.7504 740.37 96.1514C740.37 93.5523 741.814 91.4482 743.588 91.4482C745.361 91.4482 746.805 93.5523 746.805 96.1514Z" fill="#020202" stroke="white" stroke-width="1.35088" stroke-miterlimit="10"/>
<path vector-effect="non-scaling-stroke" d="M750.821 91.4482V100.854Z" fill="#020202"/>
<path vector-effect="non-scaling-stroke" d="M750.821 91.4482V100.854" stroke="white" stroke-width="1.35088" stroke-miterlimit="10"/>
<path vector-effect="non-scaling-stroke" d="M755.634 91.4482V100.854Z" fill="#020202"/>
<path vector-effect="non-scaling-stroke" d="M755.634 91.4482V100.854" stroke="white" stroke-width="1.35088" stroke-miterlimit="10"/>
<path vector-effect="non-scaling-stroke" d="M727.539 108.692C727.539 111.291 726.095 113.395 724.321 113.395C722.547 113.395 721.103 111.291 721.103 108.692C721.103 106.093 722.547 103.989 724.321 103.989C726.095 103.989 727.539 106.093 727.539 108.692Z" fill="#020202" stroke="white" stroke-width="1.35088" stroke-miterlimit="10"/>
<path vector-effect="non-scaling-stroke" d="M731.555 103.989V113.395Z" fill="#020202"/>
<path vector-effect="non-scaling-stroke" d="M731.555 103.989V113.395" stroke="white" stroke-width="1.35088" stroke-miterlimit="10"/>
<path vector-effect="non-scaling-stroke" d="M746.008 103.989V113.395Z" fill="#020202"/>
<path vector-effect="non-scaling-stroke" d="M746.008 103.989V113.395" stroke="white" stroke-width="1.35088" stroke-miterlimit="10"/>
<path vector-effect="non-scaling-stroke" d="M756.446 108.692C756.446 111.291 755.002 113.395 753.228 113.395C751.454 113.395 750.01 111.291 750.01 108.692C750.01 106.093 751.454 103.989 753.228 103.989C755.002 103.989 756.446 106.093 756.446 108.692Z" fill="#020202" stroke="white" stroke-width="1.35088" stroke-miterlimit="10"/>
<path vector-effect="non-scaling-stroke" d="M741.181 103.989V113.395Z" fill="#020202"/>
<path vector-effect="non-scaling-stroke" d="M741.181 103.989V113.395" stroke="white" stroke-width="1.35088" stroke-miterlimit="10"/>
<path vector-effect="non-scaling-stroke" d="M736.368 103.989V113.395Z" fill="#020202"/>
<path vector-effect="non-scaling-stroke" d="M736.368 103.989V113.395" stroke="white" stroke-width="1.35088" stroke-miterlimit="10"/>
<path vector-effect="non-scaling-stroke" d="M553.18 69.5C553.18 72.0991 551.736 74.2031 549.962 74.2031C548.188 74.2031 546.744 72.0991 546.744 69.5C546.744 66.9009 548.188 64.7969 549.962 64.7969C551.736 64.7969 553.18 66.9009 553.18 69.5Z" fill="#020202" stroke="white" stroke-width="1.35088" stroke-miterlimit="10"/>
<path vector-effect="non-scaling-stroke" d="M557.195 64.7969V74.2031Z" fill="#020202"/>
<path vector-effect="non-scaling-stroke" d="M557.195 64.7969V74.2031" stroke="white" stroke-width="1.35088" stroke-miterlimit="10"/>
<path vector-effect="non-scaling-stroke" d="M553.18 82.041C553.18 84.6401 551.736 86.7441 549.962 86.7441C548.188 86.7441 546.744 84.6401 546.744 82.041C546.744 79.4419 548.188 77.3379 549.962 77.3379C551.736 77.3379 553.18 79.4419 553.18 82.041Z" fill="#020202" stroke="white" stroke-width="1.35088" stroke-miterlimit="10"/>
<path vector-effect="non-scaling-stroke" d="M557.195 77.3379V86.7441Z" fill="#020202"/>
<path vector-effect="non-scaling-stroke" d="M557.195 77.3379V86.7441" stroke="white" stroke-width="1.35088" stroke-miterlimit="10"/>
<path vector-effect="non-scaling-stroke" d="M553.18 96.1514C553.18 98.7504 551.736 100.854 549.962 100.854C548.188 100.854 546.744 98.7504 546.744 96.1514C546.744 93.5523 548.188 91.4482 549.962 91.4482C551.736 91.4482 553.18 93.5523 553.18 96.1514Z" fill="#020202" stroke="white" stroke-width="1.35088" stroke-miterlimit="10"/>
<path vector-effect="non-scaling-stroke" d="M557.195 91.4482V100.854Z" fill="#020202"/>
<path vector-effect="non-scaling-stroke" d="M557.195 91.4482V100.854" stroke="white" stroke-width="1.35088" stroke-miterlimit="10"/>
<path vector-effect="non-scaling-stroke" d="M553.18 108.692C553.18 111.291 551.736 113.395 549.962 113.395C548.188 113.395 546.744 111.291 546.744 108.692C546.744 106.093 548.188 103.989 549.962 103.989C551.736 103.989 553.18 106.093 553.18 108.692Z" fill="#020202" stroke="white" stroke-width="1.35088" stroke-miterlimit="10"/>
<path vector-effect="non-scaling-stroke" d="M557.195 103.989V113.395Z" fill="#020202"/>
<path vector-effect="non-scaling-stroke" d="M557.195 103.989V113.395" stroke="white" stroke-width="1.35088" stroke-miterlimit="10"/>
<path vector-effect="non-scaling-stroke" d="M562.008 64.7969V74.2031Z" fill="#020202"/>
<path vector-effect="non-scaling-stroke" d="M562.008 64.7969V74.2031" stroke="white" stroke-width="1.35088" stroke-miterlimit="10"/>
<path vector-effect="non-scaling-stroke" d="M572.446 69.5C572.446 72.0991 571.002 74.2031 569.228 74.2031C567.454 74.2031 566.01 72.0991 566.01 69.5C566.01 66.9009 567.454 64.7969 569.228 64.7969C571.002 64.7969 572.446 66.9009 572.446 69.5Z" fill="#020202" stroke="white" stroke-width="1.35088" stroke-miterlimit="10"/>
<path vector-effect="non-scaling-stroke" d="M576.461 64.7969V74.2031Z" fill="#020202"/>
<path vector-effect="non-scaling-stroke" d="M576.461 64.7969V74.2031" stroke="white" stroke-width="1.35088" stroke-miterlimit="10"/>
<path vector-effect="non-scaling-stroke" d="M586.899 69.5C586.899 72.0991 585.455 74.2031 583.681 74.2031C581.907 74.2031 580.463 72.0991 580.463 69.5C580.463 66.9009 581.907 64.7969 583.681 64.7969C585.455 64.7969 586.899 66.9009 586.899 69.5Z" fill="#020202" stroke="white" stroke-width="1.35088" stroke-miterlimit="10"/>
<path vector-effect="non-scaling-stroke" d="M590.915 64.7969V74.2031Z" fill="#020202"/>
<path vector-effect="non-scaling-stroke" d="M590.915 64.7969V74.2031" stroke="white" stroke-width="1.35088" stroke-miterlimit="10"/>
<path vector-effect="non-scaling-stroke" d="M595.728 64.7969V74.2031Z" fill="#020202"/>
<path vector-effect="non-scaling-stroke" d="M595.728 64.7969V74.2031" stroke="white" stroke-width="1.35088" stroke-miterlimit="10"/>
<path vector-effect="non-scaling-stroke" d="M567.633 82.041C567.633 84.6401 566.189 86.7441 564.415 86.7441C562.641 86.7441 561.197 84.6401 561.197 82.041C561.197 79.4419 562.641 77.3379 564.415 77.3379C566.189 77.3379 567.633 79.4419 567.633 82.041Z" fill="#020202" stroke="white" stroke-width="1.35088" stroke-miterlimit="10"/>
<path vector-effect="non-scaling-stroke" d="M571.648 77.3379V86.7441Z" fill="#020202"/>
<path vector-effect="non-scaling-stroke" d="M571.648 77.3379V86.7441" stroke="white" stroke-width="1.35088" stroke-miterlimit="10"/>
<path vector-effect="non-scaling-stroke" d="M582.086 82.041C582.086 84.6401 580.642 86.7441 578.868 86.7441C577.094 86.7441 575.65 84.6401 575.65 82.041C575.65 79.4419 577.094 77.3379 578.868 77.3379C580.642 77.3379 582.086 79.4419 582.086 82.041Z" fill="#020202" stroke="white" stroke-width="1.35088" stroke-miterlimit="10"/>
<path vector-effect="non-scaling-stroke" d="M586.101 77.3379V86.7441Z" fill="#020202"/>
<path vector-effect="non-scaling-stroke" d="M586.101 77.3379V86.7441" stroke="white" stroke-width="1.35088" stroke-miterlimit="10"/>
<path vector-effect="non-scaling-stroke" d="M596.539 82.041C596.539 84.6401 595.095 86.7441 593.321 86.7441C591.547 86.7441 590.103 84.6401 590.103 82.041C590.103 79.4419 591.547 77.3379 593.321 77.3379C595.095 77.3379 596.539 79.4419 596.539 82.041Z" fill="#020202" stroke="white" stroke-width="1.35088" stroke-miterlimit="10"/>
<path vector-effect="non-scaling-stroke" d="M562.008 91.4482V100.854Z" fill="#020202"/>
<path vector-effect="non-scaling-stroke" d="M562.008 91.4482V100.854" stroke="white" stroke-width="1.35088" stroke-miterlimit="10"/>
<path vector-effect="non-scaling-stroke" d="M572.446 96.1514C572.446 98.7504 571.002 100.854 569.228 100.854C567.454 100.854 566.01 98.7504 566.01 96.1514C566.01 93.5523 567.454 91.4482 569.228 91.4482C571.002 91.4482 572.446 93.5523 572.446 96.1514Z" fill="#020202" stroke="white" stroke-width="1.35088" stroke-miterlimit="10"/>
<path vector-effect="non-scaling-stroke" d="M576.461 91.4482V100.854Z" fill="#020202"/>
<path vector-effect="non-scaling-stroke" d="M576.461 91.4482V100.854" stroke="white" stroke-width="1.35088" stroke-miterlimit="10"/>
<path vector-effect="non-scaling-stroke" d="M586.899 96.1514C586.899 98.7504 585.455 100.854 583.681 100.854C581.907 100.854 580.463 98.7504 580.463 96.1514C580.463 93.5523 581.907 91.4482 583.681 91.4482C585.455 91.4482 586.899 93.5523 586.899 96.1514Z" fill="#020202" stroke="white" stroke-width="1.35088" stroke-miterlimit="10"/>
<path vector-effect="non-scaling-stroke" d="M590.915 91.4482V100.854Z" fill="#020202"/>
<path vector-effect="non-scaling-stroke" d="M590.915 91.4482V100.854" stroke="white" stroke-width="1.35088" stroke-miterlimit="10"/>
<path vector-effect="non-scaling-stroke" d="M595.728 91.4482V100.854Z" fill="#020202"/>
<path vector-effect="non-scaling-stroke" d="M595.728 91.4482V100.854" stroke="white" stroke-width="1.35088" stroke-miterlimit="10"/>
<path vector-effect="non-scaling-stroke" d="M567.633 108.692C567.633 111.291 566.189 113.395 564.415 113.395C562.641 113.395 561.197 111.291 561.197 108.692C561.197 106.093 562.641 103.989 564.415 103.989C566.189 103.989 567.633 106.093 567.633 108.692Z" fill="#020202" stroke="white" stroke-width="1.35088" stroke-miterlimit="10"/>
<path vector-effect="non-scaling-stroke" d="M571.648 103.989V113.395Z" fill="#020202"/>
<path vector-effect="non-scaling-stroke" d="M571.648 103.989V113.395" stroke="white" stroke-width="1.35088" stroke-miterlimit="10"/>
<path vector-effect="non-scaling-stroke" d="M586.101 103.989V113.395Z" fill="#020202"/>
<path vector-effect="non-scaling-stroke" d="M586.101 103.989V113.395" stroke="white" stroke-width="1.35088" stroke-miterlimit="10"/>
<path vector-effect="non-scaling-stroke" d="M596.539 108.692C596.539 111.291 595.095 113.395 593.321 113.395C591.547 113.395 590.103 111.291 590.103 108.692C590.103 106.093 591.547 103.989 593.321 103.989C595.095 103.989 596.539 106.093 596.539 108.692Z" fill="#020202" stroke="white" stroke-width="1.35088" stroke-miterlimit="10"/>
<path vector-effect="non-scaling-stroke" d="M581.274 103.989V113.395Z" fill="#020202"/>
<path vector-effect="non-scaling-stroke" d="M581.274 103.989V113.395" stroke="white" stroke-width="1.35088" stroke-miterlimit="10"/>
<path vector-effect="non-scaling-stroke" d="M576.461 103.989V113.395Z" fill="#020202"/>
<path vector-effect="non-scaling-stroke" d="M576.461 103.989V113.395" stroke="white" stroke-width="1.35088" stroke-miterlimit="10"/>
<path vector-effect="non-scaling-stroke" d="M606.454 69.5C606.454 72.0991 605.01 74.2031 603.236 74.2031C601.462 74.2031 600.019 72.0991 600.019 69.5C600.019 66.9009 601.462 64.7969 603.236 64.7969C605.01 64.7969 606.454 66.9009 606.454 69.5Z" fill="#020202" stroke="white" stroke-width="1.35088" stroke-miterlimit="10"/>
<path vector-effect="non-scaling-stroke" d="M610.47 64.7969V74.2031Z" fill="#020202"/>
<path vector-effect="non-scaling-stroke" d="M610.47 64.7969V74.2031" stroke="white" stroke-width="1.35088" stroke-miterlimit="10"/>
<path vector-effect="non-scaling-stroke" d="M606.454 82.041C606.454 84.6401 605.01 86.7441 603.236 86.7441C601.462 86.7441 600.019 84.6401 600.019 82.041C600.019 79.4419 601.462 77.3379 603.236 77.3379C605.01 77.3379 606.454 79.4419 606.454 82.041Z" fill="#020202" stroke="white" stroke-width="1.35088" stroke-miterlimit="10"/>
<path vector-effect="non-scaling-stroke" d="M610.47 77.3379V86.7441Z" fill="#020202"/>
<path vector-effect="non-scaling-stroke" d="M610.47 77.3379V86.7441" stroke="white" stroke-width="1.35088" stroke-miterlimit="10"/>
<path vector-effect="non-scaling-stroke" d="M606.454 96.1514C606.454 98.7504 605.01 100.854 603.236 100.854C601.462 100.854 600.019 98.7504 600.019 96.1514C600.019 93.5523 601.462 91.4482 603.236 91.4482C605.01 91.4482 606.454 93.5523 606.454 96.1514Z" fill="#020202" stroke="white" stroke-width="1.35088" stroke-miterlimit="10"/>
<path vector-effect="non-scaling-stroke" d="M610.47 91.4482V100.854Z" fill="#020202"/>
<path vector-effect="non-scaling-stroke" d="M610.47 91.4482V100.854" stroke="white" stroke-width="1.35088" stroke-miterlimit="10"/>
<path vector-effect="non-scaling-stroke" d="M606.454 108.692C606.454 111.291 605.01 113.395 603.236 113.395C601.462 113.395 600.019 111.291 600.019 108.692C600.019 106.093 601.462 103.989 603.236 103.989C605.01 103.989 606.454 106.093 606.454 108.692Z" fill="#020202" stroke="white" stroke-width="1.35088" stroke-miterlimit="10"/>
<path vector-effect="non-scaling-stroke" d="M610.47 103.989V113.395Z" fill="#020202"/>
<path vector-effect="non-scaling-stroke" d="M610.47 103.989V113.395" stroke="white" stroke-width="1.35088" stroke-miterlimit="10"/>
<path vector-effect="non-scaling-stroke" d="M615.283 64.7969V74.2031Z" fill="#020202"/>
<path vector-effect="non-scaling-stroke" d="M615.283 64.7969V74.2031" stroke="white" stroke-width="1.35088" stroke-miterlimit="10"/>
<path vector-effect="non-scaling-stroke" d="M625.721 69.5C625.721 72.0991 624.277 74.2031 622.503 74.2031C620.729 74.2031 619.285 72.0991 619.285 69.5C619.285 66.9009 620.729 64.7969 622.503 64.7969C624.277 64.7969 625.721 66.9009 625.721 69.5Z" fill="#020202" stroke="white" stroke-width="1.35088" stroke-miterlimit="10"/>
<path vector-effect="non-scaling-stroke" d="M629.736 64.7969V74.2031Z" fill="#020202"/>
<path vector-effect="non-scaling-stroke" d="M629.736 64.7969V74.2031" stroke="white" stroke-width="1.35088" stroke-miterlimit="10"/>
<path vector-effect="non-scaling-stroke" d="M640.174 69.5C640.174 72.0991 638.73 74.2031 636.956 74.2031C635.182 74.2031 633.738 72.0991 633.738 69.5C633.738 66.9009 635.182 64.7969 636.956 64.7969C638.73 64.7969 640.174 66.9009 640.174 69.5Z" fill="#020202" stroke="white" stroke-width="1.35088" stroke-miterlimit="10"/>
<path vector-effect="non-scaling-stroke" d="M644.189 64.7969V74.2031Z" fill="#020202"/>
<path vector-effect="non-scaling-stroke" d="M644.189 64.7969V74.2031" stroke="white" stroke-width="1.35088" stroke-miterlimit="10"/>
<path vector-effect="non-scaling-stroke" d="M649.002 64.7969V74.2031Z" fill="#020202"/>
<path vector-effect="non-scaling-stroke" d="M649.002 64.7969V74.2031" stroke="white" stroke-width="1.35088" stroke-miterlimit="10"/>
<path vector-effect="non-scaling-stroke" d="M620.908 82.041C620.908 84.6401 619.464 86.7441 617.69 86.7441C615.916 86.7441 614.472 84.6401 614.472 82.041C614.472 79.4419 615.916 77.3379 617.69 77.3379C619.464 77.3379 620.908 79.4419 620.908 82.041Z" fill="#020202" stroke="white" stroke-width="1.35088" stroke-miterlimit="10"/>
<path vector-effect="non-scaling-stroke" d="M624.909 77.3379V86.7441Z" fill="#020202"/>
<path vector-effect="non-scaling-stroke" d="M624.909 77.3379V86.7441" stroke="white" stroke-width="1.35088" stroke-miterlimit="10"/>
<path vector-effect="non-scaling-stroke" d="M635.347 82.041C635.347 84.6401 633.903 86.7441 632.129 86.7441C630.355 86.7441 628.911 84.6401 628.911 82.041C628.911 79.4419 630.355 77.3379 632.129 77.3379C633.903 77.3379 635.347 79.4419 635.347 82.041Z" fill="#020202" stroke="white" stroke-width="1.35088" stroke-miterlimit="10"/>
<path vector-effect="non-scaling-stroke" d="M639.362 77.3379V86.7441Z" fill="#020202"/>
<path vector-effect="non-scaling-stroke" d="M639.362 77.3379V86.7441" stroke="white" stroke-width="1.35088" stroke-miterlimit="10"/>
<path vector-effect="non-scaling-stroke" d="M649.8 82.041C649.8 84.6401 648.356 86.7441 646.582 86.7441C644.808 86.7441 643.364 84.6401 643.364 82.041C643.364 79.4419 644.808 77.3379 646.582 77.3379C648.356 77.3379 649.8 79.4419 649.8 82.041Z" fill="#020202" stroke="white" stroke-width="1.35088" stroke-miterlimit="10"/>
<path vector-effect="non-scaling-stroke" d="M615.283 91.4482V100.854Z" fill="#020202"/>
<path vector-effect="non-scaling-stroke" d="M615.283 91.4482V100.854" stroke="white" stroke-width="1.35088" stroke-miterlimit="10"/>
<path vector-effect="non-scaling-stroke" d="M625.721 96.1514C625.721 98.7504 624.277 100.854 622.503 100.854C620.729 100.854 619.285 98.7504 619.285 96.1514C619.285 93.5523 620.729 91.4482 622.503 91.4482C624.277 91.4482 625.721 93.5523 625.721 96.1514Z" fill="#020202" stroke="white" stroke-width="1.35088" stroke-miterlimit="10"/>
<path vector-effect="non-scaling-stroke" d="M629.736 91.4482V100.854Z" fill="#020202"/>
<path vector-effect="non-scaling-stroke" d="M629.736 91.4482V100.854" stroke="white" stroke-width="1.35088" stroke-miterlimit="10"/>
<path vector-effect="non-scaling-stroke" d="M640.174 96.1514C640.174 98.7504 638.73 100.854 636.956 100.854C635.182 100.854 633.738 98.7504 633.738 96.1514C633.738 93.5523 635.182 91.4482 636.956 91.4482C638.73 91.4482 640.174 93.5523 640.174 96.1514Z" fill="#020202" stroke="white" stroke-width="1.35088" stroke-miterlimit="10"/>
<path vector-effect="non-scaling-stroke" d="M644.189 91.4482V100.854Z" fill="#020202"/>
<path vector-effect="non-scaling-stroke" d="M644.189 91.4482V100.854" stroke="white" stroke-width="1.35088" stroke-miterlimit="10"/>
<path vector-effect="non-scaling-stroke" d="M649.002 91.4482V100.854Z" fill="#020202"/>
<path vector-effect="non-scaling-stroke" d="M649.002 91.4482V100.854" stroke="white" stroke-width="1.35088" stroke-miterlimit="10"/>
<path vector-effect="non-scaling-stroke" d="M620.908 108.692C620.908 111.291 619.464 113.395 617.69 113.395C615.916 113.395 614.472 111.291 614.472 108.692C614.472 106.093 615.916 103.989 617.69 103.989C619.464 103.989 620.908 106.093 620.908 108.692Z" fill="#020202" stroke="white" stroke-width="1.35088" stroke-miterlimit="10"/>
<path vector-effect="non-scaling-stroke" d="M624.909 103.989V113.395Z" fill="#020202"/>
<path vector-effect="non-scaling-stroke" d="M624.909 103.989V113.395" stroke="white" stroke-width="1.35088" stroke-miterlimit="10"/>
<path vector-effect="non-scaling-stroke" d="M639.362 103.989V113.395Z" fill="#020202"/>
<path vector-effect="non-scaling-stroke" d="M639.362 103.989V113.395" stroke="white" stroke-width="1.35088" stroke-miterlimit="10"/>
<path vector-effect="non-scaling-stroke" d="M649.8 108.692C649.8 111.291 648.356 113.395 646.582 113.395C644.808 113.395 643.364 111.291 643.364 108.692C643.364 106.093 644.808 103.989 646.582 103.989C648.356 103.989 649.8 106.093 649.8 108.692Z" fill="#020202" stroke="white" stroke-width="1.35088" stroke-miterlimit="10"/>
<path vector-effect="non-scaling-stroke" d="M634.549 103.989V113.395Z" fill="#020202"/>
<path vector-effect="non-scaling-stroke" d="M634.549 103.989V113.395" stroke="white" stroke-width="1.35088" stroke-miterlimit="10"/>
<path vector-effect="non-scaling-stroke" d="M629.736 103.989V113.395Z" fill="#020202"/>
<path vector-effect="non-scaling-stroke" d="M629.736 103.989V113.395" stroke="white" stroke-width="1.35088" stroke-miterlimit="10"/>
<path vector-effect="non-scaling-stroke" d="M508.872 64.7979V74.2041Z" fill="#020202"/>
<path vector-effect="non-scaling-stroke" d="M508.872 64.7979V74.2041" stroke="white" stroke-width="1.35088" stroke-miterlimit="10"/>
<path vector-effect="non-scaling-stroke" d="M519.309 69.501C519.309 72.1001 517.865 74.2041 516.091 74.2041C514.317 74.2041 512.873 72.1001 512.873 69.501C512.873 66.9019 514.317 64.7979 516.091 64.7979C517.865 64.7979 519.309 66.9019 519.309 69.501Z" fill="#020202" stroke="white" stroke-width="1.35088" stroke-miterlimit="10"/>
<path vector-effect="non-scaling-stroke" d="M523.325 64.7988V74.2051Z" fill="#020202"/>
<path vector-effect="non-scaling-stroke" d="M523.325 64.7988V74.2051" stroke="white" stroke-width="1.35088" stroke-miterlimit="10"/>
<path vector-effect="non-scaling-stroke" d="M533.762 69.501C533.762 72.1001 532.318 74.2041 530.544 74.2041C528.77 74.2041 527.326 72.1001 527.326 69.501C527.326 66.9019 528.77 64.7979 530.544 64.7979C532.318 64.7979 533.762 66.9019 533.762 69.501Z" fill="#020202" stroke="white" stroke-width="1.35088" stroke-miterlimit="10"/>
<path vector-effect="non-scaling-stroke" d="M537.778 64.7979V74.2041Z" fill="#020202"/>
<path vector-effect="non-scaling-stroke" d="M537.778 64.7979V74.2041" stroke="white" stroke-width="1.35088" stroke-miterlimit="10"/>
<path vector-effect="non-scaling-stroke" d="M542.591 64.7979V74.2041Z" fill="#020202"/>
<path vector-effect="non-scaling-stroke" d="M542.591 64.7979V74.2041" stroke="white" stroke-width="1.35088" stroke-miterlimit="10"/>
<path vector-effect="non-scaling-stroke" d="M514.496 82.043C514.496 84.642 513.052 86.7461 511.278 86.7461C509.504 86.7461 508.06 84.642 508.06 82.043C508.06 79.4439 509.504 77.3398 511.278 77.3398C513.052 77.3398 514.496 79.4439 514.496 82.043Z" fill="#020202" stroke="white" stroke-width="1.35088" stroke-miterlimit="10"/>
<path vector-effect="non-scaling-stroke" d="M518.512 77.3408V86.7471Z" fill="#020202"/>
<path vector-effect="non-scaling-stroke" d="M518.512 77.3408V86.7471" stroke="white" stroke-width="1.35088" stroke-miterlimit="10"/>
<path vector-effect="non-scaling-stroke" d="M528.949 82.043C528.949 84.642 527.505 86.7461 525.731 86.7461C523.957 86.7461 522.513 84.642 522.513 82.043C522.513 79.4439 523.957 77.3398 525.731 77.3398C527.505 77.3398 528.949 79.4439 528.949 82.043Z" fill="#020202" stroke="white" stroke-width="1.35088" stroke-miterlimit="10"/>
<path vector-effect="non-scaling-stroke" d="M532.964 77.3398V86.7461Z" fill="#020202"/>
<path vector-effect="non-scaling-stroke" d="M532.964 77.3398V86.7461" stroke="white" stroke-width="1.35088" stroke-miterlimit="10"/>
<path vector-effect="non-scaling-stroke" d="M543.402 82.043C543.402 84.642 541.958 86.7461 540.184 86.7461C538.41 86.7461 536.966 84.642 536.966 82.043C536.966 79.4439 538.41 77.3398 540.184 77.3398C541.958 77.3398 543.402 79.4439 543.402 82.043Z" fill="#020202" stroke="white" stroke-width="1.35088" stroke-miterlimit="10"/>
<path vector-effect="non-scaling-stroke" d="M508.872 91.4492V100.855Z" fill="#020202"/>
<path vector-effect="non-scaling-stroke" d="M508.872 91.4492V100.855" stroke="white" stroke-width="1.35088" stroke-miterlimit="10"/>
<path vector-effect="non-scaling-stroke" d="M519.309 96.1523C519.309 98.7514 517.865 100.855 516.091 100.855C514.317 100.855 512.873 98.7514 512.873 96.1523C512.873 93.5532 514.317 91.4492 516.091 91.4492C517.865 91.4492 519.309 93.5532 519.309 96.1523Z" fill="#020202" stroke="white" stroke-width="1.35088" stroke-miterlimit="10"/>
<path vector-effect="non-scaling-stroke" d="M523.325 91.4492V100.855Z" fill="#020202"/>
<path vector-effect="non-scaling-stroke" d="M523.325 91.4492V100.855" stroke="white" stroke-width="1.35088" stroke-miterlimit="10"/>
<path vector-effect="non-scaling-stroke" d="M533.762 96.1523C533.762 98.7514 532.318 100.855 530.544 100.855C528.77 100.855 527.326 98.7514 527.326 96.1523C527.326 93.5532 528.77 91.4492 530.544 91.4492C532.318 91.4492 533.762 93.5532 533.762 96.1523Z" fill="#020202" stroke="white" stroke-width="1.35088" stroke-miterlimit="10"/>
<path vector-effect="non-scaling-stroke" d="M537.778 91.4492V100.855Z" fill="#020202"/>
<path vector-effect="non-scaling-stroke" d="M537.778 91.4492V100.855" stroke="white" stroke-width="1.35088" stroke-miterlimit="10"/>
<path vector-effect="non-scaling-stroke" d="M542.591 91.4492V100.855Z" fill="#020202"/>
<path vector-effect="non-scaling-stroke" d="M542.591 91.4492V100.855" stroke="white" stroke-width="1.35088" stroke-miterlimit="10"/>
<path vector-effect="non-scaling-stroke" d="M514.496 108.693C514.496 111.292 513.052 113.396 511.278 113.396C509.504 113.396 508.06 111.292 508.06 108.693C508.06 106.094 509.504 103.99 511.278 103.99C513.052 103.99 514.496 106.094 514.496 108.693Z" fill="#020202" stroke="white" stroke-width="1.35088" stroke-miterlimit="10"/>
<path vector-effect="non-scaling-stroke" d="M518.512 103.991V113.397Z" fill="#020202"/>
<path vector-effect="non-scaling-stroke" d="M518.512 103.991V113.397" stroke="white" stroke-width="1.35088" stroke-miterlimit="10"/>
<path vector-effect="non-scaling-stroke" d="M532.964 103.99V113.396Z" fill="#020202"/>
<path vector-effect="non-scaling-stroke" d="M532.964 103.99V113.396" stroke="white" stroke-width="1.35088" stroke-miterlimit="10"/>
<path vector-effect="non-scaling-stroke" d="M543.402 108.693C543.402 111.292 541.958 113.396 540.184 113.396C538.41 113.396 536.966 111.292 536.966 108.693C536.966 106.094 538.41 103.99 540.184 103.99C541.958 103.99 543.402 106.094 543.402 108.693Z" fill="#020202" stroke="white" stroke-width="1.35088" stroke-miterlimit="10"/>
<path vector-effect="non-scaling-stroke" d="M528.151 103.99V113.396Z" fill="#020202"/>
<path vector-effect="non-scaling-stroke" d="M528.151 103.99V113.396" stroke="white" stroke-width="1.35088" stroke-miterlimit="10"/>
<path vector-effect="non-scaling-stroke" d="M523.325 103.991V113.397Z" fill="#020202"/>
<path vector-effect="non-scaling-stroke" d="M523.325 103.991V113.397" stroke="white" stroke-width="1.35088" stroke-miterlimit="10"/>
<path vector-effect="non-scaling-stroke" d="M45.2434 85.8799H59.2565C61.5668 85.8799 63.4507 87.7639 63.4507 90.0742V104.087C63.4507 106.398 61.5668 108.282 59.2565 108.282H45.2434C42.9331 108.282 41.0491 106.398 41.0491 104.087V90.0742C41.0491 87.7639 42.9331 85.8799 45.2434 85.8799Z" stroke="white" stroke-width="1.35088" stroke-linecap="round" stroke-linejoin="round"/>
<path vector-effect="non-scaling-stroke" d="M46.4814 91.3115L58.033 102.863" stroke="white" stroke-width="1.35088" stroke-linecap="round" stroke-linejoin="round"/>
<path vector-effect="non-scaling-stroke" d="M58.033 91.3115L46.4814 102.863" stroke="white" stroke-width="1.35088" stroke-linecap="round" stroke-linejoin="round"/>
<path vector-effect="non-scaling-stroke" d="M45.2434 56.9609H59.2565C61.5668 56.9609 63.4507 58.8449 63.4507 61.1552V75.1683C63.4507 77.4786 61.5668 79.3626 59.2565 79.3626H45.2434C42.9331 79.3626 41.0491 77.4786 41.0491 75.1683V61.1552C41.0491 58.8449 42.9331 56.9609 45.2434 56.9609Z" stroke="white" stroke-width="1.35088" stroke-linecap="round" stroke-linejoin="round"/>
<path vector-effect="non-scaling-stroke" d="M45.5051 67.7295L50.4695 72.6801" stroke="white" stroke-width="1.35088" stroke-linecap="round" stroke-linejoin="round"/>
<path vector-effect="non-scaling-stroke" d="M59.5047 63.6309L50.4697 72.6795" stroke="white" stroke-width="1.35088" stroke-linecap="round" stroke-linejoin="round"/>
<path vector-effect="non-scaling-stroke" d="M30.0614 82.043H21.8103" stroke="white" stroke-width="1.35088" stroke-linecap="round" stroke-linejoin="round"/>
<path vector-effect="non-scaling-stroke" d="M5.78966 79.4987C2.69551 77.1747 0.687744 73.4755 0.687744 69.3087V20.366C0.687744 13.3388 6.38099 7.63184 13.4219 7.63184H302.127C367.201 7.63184 419.952 60.3837 419.952 125.457V196.362C419.952 203.389 425.646 209.096 432.687 209.096H441.804" stroke="white" stroke-width="1.35088" stroke-linecap="round" stroke-linejoin="round"/>
<path vector-effect="non-scaling-stroke" d="M450.055 209.096H458.306" stroke="white" stroke-width="1.35088" stroke-linecap="round" stroke-linejoin="round"/>
<path vector-effect="non-scaling-stroke" d="M671.06 347.082C674.584 347.082 677.441 344.225 677.441 340.701C677.441 337.177 674.584 334.32 671.06 334.32C667.536 334.32 664.679 337.177 664.679 340.701C664.679 344.225 667.536 347.082 671.06 347.082Z" stroke="white" stroke-width="1.35088" stroke-miterlimit="10"/>
<path vector-effect="non-scaling-stroke" d="M671.06 346.972V456.959H698.275" stroke="white" stroke-width="1.35088" stroke-miterlimit="10"/>
<path vector-effect="non-scaling-stroke" d="M644.285 371.34C647.809 371.34 650.666 368.483 650.666 364.959C650.666 361.435 647.809 358.578 644.285 358.578C640.761 358.578 637.905 361.435 637.905 364.959C637.905 368.483 640.761 371.34 644.285 371.34Z" stroke="white" stroke-width="1.35088" stroke-miterlimit="10"/>
<path vector-effect="non-scaling-stroke" d="M644.285 371.34V422.703H671.5" stroke="white" stroke-width="1.35088" stroke-miterlimit="10"/>
<path vector-effect="non-scaling-stroke" d="M412.1 484.572L19.115 485.576" stroke="white" stroke-width="1.35088" stroke-miterlimit="10"/>
<path vector-effect="non-scaling-stroke" d="M349.818 479.938C352.651 479.938 354.961 482.234 354.961 485.067C354.961 487.9 352.665 490.196 349.818 490.196C346.985 490.196 344.675 487.9 344.675 485.067C344.675 482.234 346.972 479.938 349.818 479.938Z" fill="#020202" stroke="white" stroke-width="1.35088" stroke-miterlimit="10"/>
<path vector-effect="non-scaling-stroke" d="M409.432 479.938C412.265 479.938 414.575 482.234 414.575 485.067C414.575 487.9 412.279 490.196 409.432 490.196C406.585 490.196 404.289 487.9 404.289 485.067C404.289 482.234 406.585 479.938 409.432 479.938Z" fill="#020202" stroke="white" stroke-width="1.35088" stroke-miterlimit="10"/>
<path vector-effect="non-scaling-stroke" d="M116.147 391.872H179.529" stroke="white" stroke-width="1.35088" stroke-miterlimit="10"/>
<path vector-effect="non-scaling-stroke" d="M313.445 327.87H275.559" stroke="white" stroke-width="1.35088" stroke-miterlimit="10"/>
<path vector-effect="non-scaling-stroke" d="M313.445 336.163H275.559" stroke="white" stroke-width="1.35088" stroke-miterlimit="10"/>
</g>
<defs>
<clipPath id="clip0_21_15589">
<rect width="787.923" height="535" fill="white"/>
</clipPath>
</defs>
</svg>
