<svg width="802" height="535" viewBox="0 0 802 535" fill="none" xmlns="http://www.w3.org/2000/svg">
<g clip-path="url(#clip0_21_15590)">
<g clip-path="url(#clip1_21_15590)">
<path vector-effect="non-scaling-stroke" d="M131.715 250.551H268.212C282.272 250.551 293.682 261.96 293.682 276.021V299.503H131.715V250.551Z" fill="#404040"/>
<path vector-effect="non-scaling-stroke" d="M131.715 299.502H15.2849V188.215C15.2849 181.919 39.1558 155.066 74.2057 155.066H131.715V299.502Z" fill="#404040"/>
<path vector-effect="non-scaling-stroke" d="M27.6309 35.0654H373.304C380.118 35.0654 385.65 40.5974 385.65 47.4114V64.7131H15.2849V47.4114C15.2849 40.5974 20.8168 35.0654 27.6309 35.0654Z" fill="#202020"/>
<path vector-effect="non-scaling-stroke" d="M422.919 311.82C423.754 310.523 424.302 309.932 428.58 306.288C434.458 301.289 443.174 306.922 445.594 307.599C448.014 308.276 450.564 307.21 452.293 306.806L456.485 323.517C456.485 323.517 453.949 323.777 452.552 324.713C451.155 325.649 442.742 333.746 437.253 331.916C436.547 331.743 435.841 332.608 434.458 332.579C433.45 332.55 431.779 331.815 431.418 329.251C431.303 328.358 428.681 329.625 427.745 327.45C427.068 325.88 427.615 325.405 427.341 325.275C426.607 324.929 424.302 325.16 423.524 323.1C423.02 321.789 423.942 320.319 423.798 320.132C423.423 319.613 420.859 319.873 420.138 317.942C419.706 316.79 420.398 313.476 422.948 311.805L422.919 311.82Z" fill="#202020" stroke="white" stroke-width="1.44061" stroke-linecap="round" stroke-linejoin="round"/>
<path vector-effect="non-scaling-stroke" d="M214.852 185.623L230.439 250.566H267.42C281.927 250.566 293.711 262.335 293.711 276.857V319.96H243.074C243.074 312.123 240.164 304.963 235.366 299.517C229.676 293.049 221.349 288.987 212.072 288.987C202.794 288.987 194.468 293.049 188.792 299.517C183.98 304.977 181.084 312.123 181.084 319.96H53.1584C53.1584 312.123 50.2484 304.963 45.4368 299.517C39.7608 293.049 31.4485 288.987 22.1566 288.987C19.8372 288.987 17.5755 289.246 15.4001 289.721" stroke="white" stroke-width="1.44061" stroke-miterlimit="10"/>
<path vector-effect="non-scaling-stroke" d="M15.2988 188.217C16.0623 187.079 16.8115 185.955 17.5462 184.846C29.921 166.247 50.7666 155.068 73.096 155.068H178.908C186.918 155.068 194.409 157.69 200.503 162.185" stroke="white" stroke-width="1.44061" stroke-miterlimit="10"/>
<path vector-effect="non-scaling-stroke" d="M131.714 155.082V250.551H230.425" stroke="white" stroke-width="1.44061" stroke-miterlimit="10"/>
<path vector-effect="non-scaling-stroke" d="M260.015 250.552V269.251C260.015 274.523 264.279 278.788 269.552 278.788H293.696" stroke="white" stroke-width="1.44061" stroke-miterlimit="10"/>
<path vector-effect="non-scaling-stroke" d="M15.2852 350.184C17.5037 350.688 19.7943 350.948 22.1568 350.948C39.2713 350.948 53.1587 337.06 53.1587 319.946C53.1587 312.109 50.2487 304.949 45.437 299.503C39.7611 293.035 31.4488 288.973 22.1568 288.973C18.8867 289.016 17.4893 289.117 15.4004 289.707" fill="#202020"/>
<path vector-effect="non-scaling-stroke" d="M15.2852 350.184C17.5037 350.688 19.7943 350.948 22.1568 350.948C39.2713 350.948 53.1587 337.06 53.1587 319.946C53.1587 312.109 50.2487 304.949 45.437 299.503C39.7611 293.035 31.4488 288.973 22.1568 288.973C18.8867 289.016 17.4893 289.117 15.4004 289.707" stroke="white" stroke-width="1.44061" stroke-linecap="round" stroke-linejoin="round"/>
<path vector-effect="non-scaling-stroke" d="M22.1707 306.706C29.4889 306.706 35.4098 312.641 35.4098 319.945C35.4098 327.249 29.4889 333.199 22.1707 333.199" stroke="white" stroke-width="1.44061" stroke-miterlimit="10"/>
<path vector-effect="non-scaling-stroke" d="M15.2852 308.636C17.2876 307.412 19.6502 306.706 22.1713 306.706C29.4895 306.706 35.4104 312.641 35.4104 319.945C35.4104 327.249 29.4895 333.199 22.1713 333.199C19.6502 333.199 17.2876 332.493 15.2852 331.268" stroke="white" stroke-width="1.44061" stroke-miterlimit="10"/>
<path vector-effect="non-scaling-stroke" d="M235.352 299.503C229.662 293.035 221.335 288.973 212.057 288.973C202.78 288.973 194.453 293.035 188.777 299.503C183.966 304.963 181.07 312.109 181.07 319.946C181.07 337.06 194.929 350.948 212.057 350.948C229.186 350.948 243.059 337.06 243.059 319.946C243.059 312.109 240.149 304.949 235.352 299.503Z" fill="#202020" stroke="white" stroke-width="1.44061" stroke-linecap="round" stroke-linejoin="round"/>
<path vector-effect="non-scaling-stroke" d="M212.057 333.199C204.753 333.199 198.818 327.264 198.818 319.945C198.818 312.627 204.753 306.706 212.057 306.706C219.361 306.706 225.311 312.641 225.311 319.945C225.311 327.249 219.376 333.199 212.057 333.199Z" stroke="white" stroke-width="1.44061" stroke-miterlimit="10"/>
<path vector-effect="non-scaling-stroke" d="M225.311 319.945C225.311 327.264 219.376 333.199 212.057 333.199C204.739 333.199 198.818 327.264 198.818 319.945C198.818 312.627 204.753 306.706 212.057 306.706C219.361 306.706 225.311 312.641 225.311 319.945Z" stroke="white" stroke-width="1.44061" stroke-miterlimit="10"/>
<path vector-effect="non-scaling-stroke" d="M188.777 299.504H45.4368" stroke="white" stroke-width="1.44061" stroke-miterlimit="10"/>
<path vector-effect="non-scaling-stroke" d="M293.696 299.504H235.352" stroke="white" stroke-width="1.44061" stroke-miterlimit="10"/>
<path vector-effect="non-scaling-stroke" d="M552.415 59.9593V47.9014C552.415 40.1365 546.12 33.8555 538.369 33.8555H527.262C519.497 33.8555 513.216 40.1509 513.216 47.9014V59.9593" fill="#020202"/>
<path vector-effect="non-scaling-stroke" d="M552.415 59.9593V47.9014C552.415 40.1365 546.12 33.8555 538.369 33.8555H527.262C519.497 33.8555 513.216 40.1509 513.216 47.9014V59.9593" stroke="white" stroke-width="1.44061" stroke-miterlimit="10"/>
<path vector-effect="non-scaling-stroke" d="M522.782 59.9593V50.6673C522.782 44.6744 517.927 39.834 511.948 39.834H503.391C497.398 39.834 492.558 44.6888 492.558 50.6673V59.9593" fill="#020202"/>
<path vector-effect="non-scaling-stroke" d="M522.782 59.9593V50.6673C522.782 44.6744 517.927 39.834 511.948 39.834H503.391C497.398 39.834 492.558 44.6888 492.558 50.6673V59.9593" stroke="white" stroke-width="1.44061" stroke-miterlimit="10"/>
<path vector-effect="non-scaling-stroke" d="M171.519 515.609C195.268 515.609 214.521 496.356 214.521 472.607C214.521 448.857 195.268 429.604 171.519 429.604C147.769 429.604 128.517 448.857 128.517 472.607C128.517 496.356 147.769 515.609 171.519 515.609Z" fill="#404040" stroke="white" stroke-width="1.44061" stroke-linecap="round" stroke-linejoin="round"/>
<path vector-effect="non-scaling-stroke" d="M237.34 401.527H27.8326C20.9033 401.527 15.2993 396.384 15.2993 390.031V45.3515C15.2993 38.9984 20.9177 33.8555 27.8326 33.8555H373.132C380.061 33.8555 385.665 38.9984 385.665 45.3515V390.017C385.665 396.37 380.046 401.513 373.132 401.513H345.299" stroke="white" stroke-width="1.44061" stroke-miterlimit="10"/>
<path vector-effect="non-scaling-stroke" d="M385.665 68.0127H200.475V185.624H385.665V68.0127Z" stroke="white" stroke-width="1.44061" stroke-miterlimit="10"/>
<path vector-effect="non-scaling-stroke" d="M629.286 459.554C683.309 441.345 723.084 408.744 751.132 364.301C761.908 347.216 767.454 327.35 767.454 307.152V94.8213C767.454 87.2869 761.346 81.1787 753.812 81.1787H624.834H495.857C488.323 81.1787 482.214 87.2869 482.214 94.8213V307.152C482.214 327.35 487.746 347.23 498.536 364.301C526.585 408.744 566.36 441.359 620.383 459.554C623.279 460.534 626.405 460.534 629.286 459.554Z" stroke="white" stroke-width="1.44061" stroke-miterlimit="10"/>
<path vector-effect="non-scaling-stroke" d="M792.046 453.302H677.028C675.102 453.302 673.541 454.863 673.541 456.788V515.637C673.541 517.562 675.102 519.123 677.028 519.123H792.046C793.971 519.123 795.532 517.562 795.532 515.637V456.788C795.532 454.863 793.971 453.302 792.046 453.302Z" fill="#404040"/>
<path vector-effect="non-scaling-stroke" d="M792.046 453.302H677.028C675.102 453.302 673.541 454.863 673.541 456.788V515.637C673.541 517.562 675.102 519.123 677.028 519.123H792.046C793.971 519.123 795.532 517.562 795.532 515.637V456.788C795.532 454.863 793.971 453.302 792.046 453.302Z" stroke="white" stroke-width="1.44061" stroke-miterlimit="10"/>
<path vector-effect="non-scaling-stroke" d="M345.299 498.509V511.229H237.34V362.904H345.299V447.54" stroke="white" stroke-width="1.44061" stroke-miterlimit="10"/>
<path vector-effect="non-scaling-stroke" d="M340.905 498.062C354.964 498.062 366.361 486.666 366.361 472.607C366.361 458.548 354.964 447.151 340.905 447.151C326.847 447.151 315.45 458.548 315.45 472.607C315.45 486.666 326.847 498.062 340.905 498.062Z" fill="#9F20F5" stroke="white" stroke-width="1.44061" stroke-linecap="round" stroke-linejoin="round"/>
<path vector-effect="non-scaling-stroke" d="M761.289 435.166C772.332 435.166 781.284 426.214 781.284 415.17C781.284 404.127 772.332 395.175 761.289 395.175C750.246 395.175 741.293 404.127 741.293 415.17C741.293 426.214 750.246 435.166 761.289 435.166Z" stroke="white" stroke-width="1.44061" stroke-miterlimit="10"/>
<path vector-effect="non-scaling-stroke" d="M482.214 299.489H767.454" stroke="white" stroke-width="1.44061" stroke-miterlimit="10"/>
<path vector-effect="non-scaling-stroke" d="M632.181 299.489C632.181 281.971 646.371 267.781 663.889 267.781C681.407 267.781 695.597 281.971 695.597 299.489" stroke="white" stroke-width="1.44061" stroke-miterlimit="10"/>
<path vector-effect="non-scaling-stroke" d="M767.454 136.023L653.358 204.048V185.623L767.454 117.598V136.023Z" fill="#202020" stroke="white" stroke-width="1.44061" stroke-miterlimit="10"/>
<path vector-effect="non-scaling-stroke" d="M663.889 197.769V267.782" stroke="white" stroke-width="1.44061" stroke-miterlimit="10"/>
<path vector-effect="non-scaling-stroke" d="M767.455 197.769H695.597V232.775H767.455V197.769Z" stroke="white" stroke-width="1.44061" stroke-miterlimit="10"/>
<path vector-effect="non-scaling-stroke" d="M767.454 249.688H727.953V299.489H767.454V249.688Z" stroke="white" stroke-width="1.44061" stroke-miterlimit="10"/>
<path vector-effect="non-scaling-stroke" d="M767.454 257.696H735.833V276.943H767.454V257.696Z" stroke="white" stroke-width="1.44061" stroke-miterlimit="10"/>
<path vector-effect="non-scaling-stroke" d="M549.851 0.72168H495.742C488.271 0.72168 482.214 6.77806 482.214 14.249V46.5042C482.214 53.9751 488.271 60.0315 495.742 60.0315H549.851C557.322 60.0315 563.378 53.9751 563.378 46.5042V14.249C563.378 6.77806 557.322 0.72168 549.851 0.72168Z" stroke="white" stroke-width="1.44061" stroke-miterlimit="10"/>
<path vector-effect="non-scaling-stroke" d="M651.889 0.72168H597.78C590.309 0.72168 584.252 6.77806 584.252 14.249V46.5042C584.252 53.9751 590.309 60.0315 597.78 60.0315H651.889C659.36 60.0315 665.416 53.9751 665.416 46.5042V14.249C665.416 6.77806 659.36 0.72168 651.889 0.72168Z" stroke="white" stroke-width="1.44061" stroke-miterlimit="10"/>
<path vector-effect="non-scaling-stroke" d="M753.913 0.72168H699.804C692.333 0.72168 686.276 6.77806 686.276 14.249V46.5042C686.276 53.9751 692.333 60.0315 699.804 60.0315H753.913C761.384 60.0315 767.44 53.9751 767.44 46.5042V14.249C767.44 6.77806 761.384 0.72168 753.913 0.72168Z" stroke="white" stroke-width="1.44061" stroke-miterlimit="10"/>
<path vector-effect="non-scaling-stroke" d="M761.289 415.17V380.61H801.28V98.8994" stroke="white" stroke-width="1.44061" stroke-miterlimit="10"/>
<path vector-effect="non-scaling-stroke" d="M498.378 500.597L484.317 525.491L422.285 482.33C422.285 482.33 432.845 470.921 447.481 479.535C447.481 479.535 459.611 486.306 468.615 483.367" fill="black"/>
<path vector-effect="non-scaling-stroke" d="M498.378 500.597L484.317 525.491L422.285 482.33C422.285 482.33 432.845 470.921 447.481 479.535C447.481 479.535 459.611 486.306 468.615 483.367" stroke="white" stroke-width="1.44061" stroke-linecap="round" stroke-linejoin="round"/>
<path vector-effect="non-scaling-stroke" d="M569.328 212.045C566.864 205.879 564.948 200.664 564.43 197.106C561.765 178.926 569.342 166.09 561.995 159.636C554.778 153.297 546.177 156.452 540.04 158.383C533.903 160.313 522.249 166.824 522.753 179.559C522.767 179.934 522.782 180.323 522.782 180.698C521.629 182.614 520.102 185.322 518.935 187.958C518.215 189.6 519.771 191.3 521.442 190.695L522.09 190.465C521.067 198.46 519.742 205.044 524.381 208.703C530.979 213.932 544.564 203.488 544.564 203.488L546.192 219.363L569.342 212.031L569.328 212.045Z" fill="#202020" stroke="white" stroke-width="1.44061" stroke-linecap="round" stroke-linejoin="round"/>
<path vector-effect="non-scaling-stroke" d="M529.625 190.205C529.625 190.205 527.882 195.636 521.471 195.132" stroke="white" stroke-width="1.44061" stroke-linecap="round" stroke-linejoin="round"/>
<path vector-effect="non-scaling-stroke" d="M563.32 189.745C563.176 184.832 563.666 180.395 564.098 176.491C564.891 169.317 565.524 163.655 561.433 160.054C554.749 154.176 546.825 156.697 541.034 158.541L540.213 158.8C538.311 159.405 531.785 161.797 527.377 167.43L527.147 167.718L527.464 167.905C527.464 167.905 532.996 170.973 541.02 170.123C541.625 172.198 545.975 185.869 557.025 189.312C558.84 189.874 560.842 190.162 563.032 190.076H563.349V189.745H563.32Z" fill="#404040" stroke="white" stroke-width="1.44061" stroke-linecap="round" stroke-linejoin="round"/>
<path vector-effect="non-scaling-stroke" d="M543.873 177.571C543.873 177.571 548.439 173.033 551.825 176.275C556.132 180.38 551.076 185.898 548.67 186.402" fill="white"/>
<path vector-effect="non-scaling-stroke" d="M543.873 177.571C543.873 177.571 548.439 173.033 551.825 176.275C556.132 180.38 551.076 185.898 548.67 186.402" stroke="white" stroke-width="1.44061" stroke-linecap="round" stroke-linejoin="round"/>
<path vector-effect="non-scaling-stroke" d="M543.167 177.989C543.167 177.989 548.439 173.033 551.839 176.275C556.146 180.38 551.09 185.898 548.684 186.402" fill="#202020"/>
<path vector-effect="non-scaling-stroke" d="M543.167 177.989C543.167 177.989 548.439 173.033 551.839 176.275C556.146 180.38 551.09 185.898 548.684 186.402" stroke="white" stroke-width="1.44061" stroke-linecap="round" stroke-linejoin="round"/>
<path vector-effect="non-scaling-stroke" d="M567.455 162.992C574.074 162.992 579.441 157.626 579.441 151.006C579.441 144.387 574.074 139.021 567.455 139.021C560.835 139.021 555.469 144.387 555.469 151.006C555.469 157.626 560.835 162.992 567.455 162.992Z" fill="#404040" stroke="white" stroke-width="1.44061" stroke-linecap="round" stroke-linejoin="round"/>
<path vector-effect="non-scaling-stroke" d="M517.883 181.849H543.152V173.234H517.883V181.849Z" fill="#9F20F5" stroke="white" stroke-width="1.44061" stroke-linecap="round" stroke-linejoin="round"/>
<path vector-effect="non-scaling-stroke" d="M649.569 304.588C656.801 303.22 663.975 301.664 670.617 298.639C669.983 303.364 669.522 306.432 669.522 306.432C676.653 308.147 689.445 321.054 689.647 323.95C689.935 327.84 686.334 325.765 686.334 325.765C688.307 329.684 689.733 333.314 686.78 334.423C687.328 335.893 685.642 337.103 684.562 337.333C682.674 337.708 679.476 334.322 679.102 333.905C679.419 334.51 681.176 337.621 678.958 338.918C676.739 340.215 674.564 334.783 672.619 332.363C670.645 329.972 664.638 326.212 664.638 326.212C668.355 332.032 667.937 333.458 666.785 334.467C665.387 335.705 661.757 331.139 659.164 329.28C656.599 327.422 649.454 319.686 649.771 312.958C649.829 311.575 649.757 308.536 649.569 304.574V304.588Z" fill="#202020" stroke="white" stroke-width="1.44061" stroke-linecap="round" stroke-linejoin="round"/>
<path vector-effect="non-scaling-stroke" d="M678.209 317.957C678.209 317.957 683.481 320.867 686.319 325.78Z" fill="#202020"/>
<path vector-effect="non-scaling-stroke" d="M678.209 317.957C678.209 317.957 683.481 320.867 686.319 325.78" stroke="white" stroke-width="1.44061" stroke-linecap="round" stroke-linejoin="round"/>
<path vector-effect="non-scaling-stroke" d="M675.889 321.875C675.889 321.875 684.907 329.006 686.78 334.437Z" fill="#202020"/>
<path vector-effect="non-scaling-stroke" d="M675.889 321.875C675.889 321.875 684.907 329.006 686.78 334.437" stroke="white" stroke-width="1.44061" stroke-linecap="round" stroke-linejoin="round"/>
<path vector-effect="non-scaling-stroke" d="M672.273 324.944C672.273 324.944 676.581 328.704 679.664 334.611Z" fill="#202020"/>
<path vector-effect="non-scaling-stroke" d="M672.273 324.944C672.273 324.944 676.581 328.704 679.664 334.611" stroke="white" stroke-width="1.44061" stroke-linecap="round" stroke-linejoin="round"/>
<path vector-effect="non-scaling-stroke" d="M449.483 304.056L458.213 335.317L496.461 321.718C501.806 319.427 506.229 315.408 509.009 310.294L532.088 267.969L537.043 327.408L626.029 313.334L609.736 252.713L628.248 267.306C632.555 270.706 635.581 275.446 636.834 280.776L643.288 308.119L677.848 302.342L663.514 252.9C662.145 248.161 659.005 244.141 654.755 241.663L597.275 208.141C590.778 204.352 582.984 203.516 575.839 205.821L534.09 219.334C526.973 221.639 521.081 226.71 517.725 233.394L494.315 280.171C490.353 288.08 483.626 294.26 475.4 297.516L449.512 304.042L449.483 304.056Z" fill="black" stroke="white" stroke-width="1.44061" stroke-linecap="round" stroke-linejoin="round"/>
<path vector-effect="non-scaling-stroke" d="M620.469 314.213V324.528C620.469 337.392 614.606 349.565 604.536 357.59L549.894 401.125C543.829 405.951 539.19 412.333 536.468 419.593L504.702 504.272L463.04 480.128L496.635 401.096C500.438 392.164 506.301 384.27 513.749 378.046L568.694 332.177" fill="black"/>
<path vector-effect="non-scaling-stroke" d="M620.469 314.213V324.528C620.469 337.392 614.606 349.565 604.536 357.59L549.894 401.125C543.829 405.951 539.19 412.333 536.468 419.593L504.702 504.272L463.04 480.128L496.635 401.096C500.438 392.164 506.301 384.27 513.749 378.046L568.694 332.177" stroke="white" stroke-width="1.44061" stroke-linecap="round" stroke-linejoin="round"/>
<path vector-effect="non-scaling-stroke" d="M644.83 453.764L591.196 434.518C583.95 432.155 578.087 426.767 575.133 419.723L562.989 390.694" stroke="white" stroke-width="1.44061" stroke-linecap="round" stroke-linejoin="round"/>
<path vector-effect="non-scaling-stroke" d="M599.062 361.938L607.648 392.537C610.313 402.059 617.876 409.421 627.456 411.841L691.332 428.005" stroke="white" stroke-width="1.44061" stroke-linecap="round" stroke-linejoin="round"/>
<path vector-effect="non-scaling-stroke" d="M541.769 326.659L547.474 349.882" stroke="white" stroke-width="1.44061" stroke-linecap="round" stroke-linejoin="round"/>
<path vector-effect="non-scaling-stroke" d="M530.95 249.054L532.088 267.969" stroke="white" stroke-width="1.44061" stroke-linecap="round" stroke-linejoin="round"/>
<path vector-effect="non-scaling-stroke" d="M478.31 507.094C480.864 507.094 482.935 505.024 482.935 502.47C482.935 499.916 480.864 497.846 478.31 497.846C475.756 497.846 473.686 499.916 473.686 502.47C473.686 505.024 475.756 507.094 478.31 507.094Z" stroke="white" stroke-width="1.44061" stroke-linecap="round" stroke-linejoin="round"/>
<path vector-effect="non-scaling-stroke" d="M673.239 459.295L729.595 496.981C730.748 497.745 732.232 497.788 733.413 497.068L795.546 459.439" stroke="white" stroke-width="1.44061" stroke-miterlimit="10"/>
<path vector-effect="non-scaling-stroke" d="M267.708 437.066H255.895" stroke="white" stroke-width="1.44061" stroke-miterlimit="10"/>
<path vector-effect="non-scaling-stroke" d="M324.597 437.066H278.685" stroke="white" stroke-width="1.44061" stroke-miterlimit="10"/>
<path vector-effect="non-scaling-stroke" d="M309.37 419.058H255.895" stroke="white" stroke-width="1.44061" stroke-miterlimit="10"/>
<path vector-effect="non-scaling-stroke" d="M324.597 419.058H316.343" stroke="white" stroke-width="1.44061" stroke-miterlimit="10"/>
<path vector-effect="non-scaling-stroke" d="M263.343 401.05H255.895" stroke="white" stroke-width="1.44061" stroke-miterlimit="10"/>
<path vector-effect="non-scaling-stroke" d="M297.759 401.05H271.554" stroke="white" stroke-width="1.44061" stroke-miterlimit="10"/>
<path vector-effect="non-scaling-stroke" d="M324.597 401.05H304.573" stroke="white" stroke-width="1.44061" stroke-miterlimit="10"/>
<path vector-effect="non-scaling-stroke" d="M269.898 383.043H255.895" stroke="white" stroke-width="1.44061" stroke-miterlimit="10"/>
<path vector-effect="non-scaling-stroke" d="M316.343 383.043H282.186" stroke="white" stroke-width="1.44061" stroke-miterlimit="10"/>
<path vector-effect="non-scaling-stroke" d="M329.438 473.515L338.715 482.922L352.372 468.17" stroke="white" stroke-width="1.44061" stroke-miterlimit="10"/>
<path vector-effect="non-scaling-stroke" d="M289.965 460.852H261.254C258.294 460.852 255.895 463.251 255.895 466.211C255.895 469.17 258.294 471.57 261.254 471.57H289.965C292.925 471.57 295.324 469.17 295.324 466.211C295.324 463.251 292.925 460.852 289.965 460.852Z" stroke="white" stroke-width="1.44061" stroke-miterlimit="10"/>
<path vector-effect="non-scaling-stroke" d="M289.965 480.228H261.254C258.294 480.228 255.895 482.627 255.895 485.587C255.895 488.546 258.294 490.946 261.254 490.946H289.965C292.925 490.946 295.324 488.546 295.324 485.587C295.324 482.627 292.925 480.228 289.965 480.228Z" stroke="white" stroke-width="1.44061" stroke-miterlimit="10"/>
<path vector-effect="non-scaling-stroke" d="M161.319 283.469V362.904H74.9692" stroke="white" stroke-width="1.44061" stroke-miterlimit="10"/>
<path vector-effect="non-scaling-stroke" d="M161.319 289.851C164.844 289.851 167.701 286.993 167.701 283.469C167.701 279.944 164.844 277.087 161.319 277.087C157.795 277.087 154.937 279.944 154.937 283.469C154.937 286.993 157.795 289.851 161.319 289.851Z" stroke="white" stroke-width="1.44061" stroke-miterlimit="10"/>
<path vector-effect="non-scaling-stroke" d="M144.017 353.482V343.34" stroke="white" stroke-width="1.44061" stroke-miterlimit="10"/>
<path vector-effect="non-scaling-stroke" d="M134.682 353.482V348.411" stroke="white" stroke-width="1.44061" stroke-miterlimit="10"/>
<path vector-effect="non-scaling-stroke" d="M125.347 353.482V348.411" stroke="white" stroke-width="1.44061" stroke-miterlimit="10"/>
<path vector-effect="non-scaling-stroke" d="M115.998 353.482V343.34" stroke="white" stroke-width="1.44061" stroke-miterlimit="10"/>
<path vector-effect="non-scaling-stroke" d="M106.662 353.482V335.69" stroke="white" stroke-width="1.44061" stroke-miterlimit="10"/>
<path vector-effect="non-scaling-stroke" d="M97.3274 353.482V343.34" stroke="white" stroke-width="1.44061" stroke-miterlimit="10"/>
<path vector-effect="non-scaling-stroke" d="M87.9778 353.482V335.69" stroke="white" stroke-width="1.44061" stroke-miterlimit="10"/>
<path vector-effect="non-scaling-stroke" d="M330.1 84.2344H219.635C217.431 84.2344 215.644 86.021 215.644 88.2249V165.398C215.644 167.602 217.431 169.389 219.635 169.389H330.1C332.304 169.389 334.091 167.602 334.091 165.398V88.2249C334.091 86.021 332.304 84.2344 330.1 84.2344Z" fill="black" stroke="white" stroke-width="1.44061" stroke-miterlimit="10"/>
<path vector-effect="non-scaling-stroke" d="M252.178 108.998H322.681" stroke="white" stroke-width="1.44061" stroke-miterlimit="10"/>
<path vector-effect="non-scaling-stroke" d="M252.178 98.627H288.222" stroke="white" stroke-width="1.44061" stroke-miterlimit="10"/>
<path vector-effect="non-scaling-stroke" d="M243.275 98.627H228.465C227.686 98.627 227.054 99.259 227.054 100.039V107.861C227.054 108.641 227.686 109.273 228.465 109.273H243.275C244.055 109.273 244.687 108.641 244.687 107.861V100.039C244.687 99.259 244.055 98.627 243.275 98.627Z" fill="#9F20F5" stroke="white" stroke-width="1.44061" stroke-linecap="round" stroke-linejoin="round"/>
<path vector-effect="non-scaling-stroke" d="M243.275 119.356H228.465C227.686 119.356 227.054 119.989 227.054 120.768V128.591C227.054 129.37 227.686 130.003 228.465 130.003H243.275C244.055 130.003 244.687 129.37 244.687 128.591V120.768C244.687 119.989 244.055 119.356 243.275 119.356Z" fill="black" stroke="white" stroke-width="1.44061" stroke-miterlimit="10"/>
<path vector-effect="non-scaling-stroke" d="M239.875 155.141V148.169L253.331 144.164V139.438L266.786 132.653L280.241 132.61L293.696 124.269L300.856 119.645H307.08V155.098" fill="black"/>
<path vector-effect="non-scaling-stroke" d="M239.875 155.141V148.169L253.331 144.164V139.438L266.786 132.653L280.241 132.61L293.696 124.269L300.856 119.645H307.08V155.098" stroke="white" stroke-width="1.44061" stroke-miterlimit="10"/>
<path vector-effect="non-scaling-stroke" d="M253.33 139.438V155.141" stroke="white" stroke-width="1.44061" stroke-miterlimit="10"/>
<path vector-effect="non-scaling-stroke" d="M266.786 132.653V155.141" stroke="white" stroke-width="1.44061" stroke-miterlimit="10"/>
<path vector-effect="non-scaling-stroke" d="M280.241 132.61V155.098" stroke="white" stroke-width="1.44061" stroke-miterlimit="10"/>
<path vector-effect="non-scaling-stroke" d="M293.696 124.27V155.142" stroke="white" stroke-width="1.44061" stroke-miterlimit="10"/>
<path vector-effect="non-scaling-stroke" d="M307.079 119.644H319.656V155.097H227.054V148.168H239.875" stroke="white" stroke-width="1.44061" stroke-miterlimit="10"/>
<path vector-effect="non-scaling-stroke" d="M373.952 235.124C407.162 235.124 434.083 208.203 434.083 174.993C434.083 141.784 407.162 114.862 373.952 114.862C340.743 114.862 313.822 141.784 313.822 174.993C313.822 208.203 340.743 235.124 373.952 235.124Z" fill="#020202"/>
<mask id="mask0_21_15590" style="mask-type:luminance" maskUnits="userSpaceOnUse" x="313" y="114" width="122" height="122">
<path vector-effect="non-scaling-stroke" d="M373.952 235.126C407.162 235.126 434.083 208.205 434.083 174.995C434.083 141.786 407.162 114.864 373.952 114.864C340.743 114.864 313.821 141.786 313.821 174.995C313.821 208.205 340.743 235.126 373.952 235.126Z" fill="white"/>
</mask>
<g mask="url(#mask0_21_15590)">
<path vector-effect="non-scaling-stroke" d="M379.557 179.36L381.228 170.385C381.228 170.385 389.108 177.329 393.444 174.433C396.469 172.402 395.98 168.325 395.72 163.412L396.109 163.585C397.118 164.017 398.155 163.052 397.78 162.015C397.19 160.358 396.368 158.644 395.749 157.434C395.763 157.203 395.792 156.973 395.821 156.742C396.743 148.992 389.843 144.54 386.155 143.1C382.467 141.659 377.295 139.369 372.541 142.927C367.7 146.543 371.763 154.682 369.256 165.66C368.738 167.921 367.412 171.12 363.998 175.182L379.557 179.374V179.36Z" fill="#404040" stroke="white" stroke-width="1.44061" stroke-miterlimit="10"/>
<path vector-effect="non-scaling-stroke" d="M394.121 148.992C391.542 145.188 387.436 143.359 386.241 142.898L385.722 142.696C382.063 141.255 377.064 139.282 372.44 142.754C369.616 144.871 369.731 148.516 369.89 153.14C369.976 155.662 370.077 158.514 369.731 161.654L369.703 161.856L369.904 161.885C370.351 161.928 370.797 161.957 371.23 161.957C380.334 161.957 384.599 151.556 385.146 150.115C390.361 151.037 393.991 149.323 394.034 149.308L394.236 149.208L394.107 149.02L394.121 148.992Z" fill="#020202" stroke="white" stroke-width="1.44061" stroke-miterlimit="10"/>
<path vector-effect="non-scaling-stroke" d="M370.956 142.797C375.408 142.797 379.009 139.181 379.009 134.73C379.009 130.278 375.408 126.662 370.956 126.662C366.505 126.662 362.903 130.278 362.903 134.73C362.903 139.181 366.505 142.797 370.956 142.797Z" fill="#020202" stroke="white" stroke-width="1.44061" stroke-miterlimit="10"/>
<path vector-effect="non-scaling-stroke" d="M383.432 154.494C383.432 154.494 380.824 151.54 378.577 153.356C375.725 155.675 378.577 159.248 380.047 159.665" fill="#404040"/>
<path vector-effect="non-scaling-stroke" d="M383.432 154.494C383.432 154.494 380.824 151.54 378.577 153.356C375.725 155.675 378.577 159.248 380.047 159.665" stroke="white" stroke-width="1.44061" stroke-miterlimit="10"/>
<path vector-effect="non-scaling-stroke" d="M383.432 154.494C383.432 154.494 380.824 151.54 378.577 153.356C375.725 155.675 378.577 159.248 380.047 159.665" stroke="white" stroke-width="1.44061" stroke-miterlimit="10"/>
<path vector-effect="non-scaling-stroke" d="M334.091 238.555C334.091 238.555 332.189 184.258 363.998 175.168L379.556 179.36C379.556 179.36 404.983 191.288 405.747 236.293" fill="#020202"/>
<path vector-effect="non-scaling-stroke" d="M334.091 238.555C334.091 238.555 332.189 184.258 363.998 175.168L379.556 179.36C379.556 179.36 404.983 191.288 405.747 236.293" stroke="white" stroke-width="1.44061" stroke-miterlimit="10"/>
<path vector-effect="non-scaling-stroke" d="M353.193 198.332L366.274 238.554" stroke="white" stroke-width="1.44061" stroke-miterlimit="10"/>
</g>
<path vector-effect="non-scaling-stroke" d="M373.952 235.124C407.162 235.124 434.083 208.203 434.083 174.993C434.083 141.784 407.162 114.862 373.952 114.862C340.743 114.862 313.822 141.784 313.822 174.993C313.822 208.203 340.743 235.124 373.952 235.124Z" stroke="white" stroke-width="1.44061" stroke-miterlimit="10"/>
<path vector-effect="non-scaling-stroke" d="M378.174 161.897C381.579 161.897 384.339 159.136 384.339 155.731C384.339 152.326 381.579 149.565 378.174 149.565C374.768 149.565 372.008 152.326 372.008 155.731C372.008 159.136 374.768 161.897 378.174 161.897Z" fill="#020202" stroke="white" stroke-width="1.44061" stroke-miterlimit="10"/>
<path vector-effect="non-scaling-stroke" d="M381.789 160.716C383.403 164.447 386.745 166.838 391.715 167.256" stroke="white" stroke-width="1.44061" stroke-miterlimit="10"/>
<path vector-effect="non-scaling-stroke" d="M390.635 169.331C391.773 169.331 392.695 168.409 392.695 167.271C392.695 166.133 391.773 165.211 390.635 165.211C389.497 165.211 388.575 166.133 388.575 167.271C388.575 168.409 389.497 169.331 390.635 169.331Z" fill="#020202" stroke="white" stroke-width="1.44061" stroke-miterlimit="10"/>
<path vector-effect="non-scaling-stroke" d="M373.952 235.123C407.158 235.123 434.083 208.198 434.083 174.992C434.083 141.786 407.158 114.861 373.952 114.861V105.051C412.575 105.051 443.879 136.355 443.879 174.978C443.879 213.6 412.575 244.905 373.952 244.905V235.094V235.123Z" fill="#020202" stroke="white" stroke-width="1.44061" stroke-miterlimit="10"/>
<path vector-effect="non-scaling-stroke" d="M532.808 28.367C536.707 28.367 539.867 25.2066 539.867 21.308C539.867 17.4094 536.707 14.249 532.808 14.249C528.91 14.249 525.75 17.4094 525.75 21.308C525.75 25.2066 528.91 28.367 532.808 28.367Z" fill="#020202" stroke="white" stroke-width="1.44061" stroke-miterlimit="10"/>
<path vector-effect="non-scaling-stroke" d="M507.655 35.599C510.663 35.599 513.101 33.161 513.101 30.1535C513.101 27.146 510.663 24.708 507.655 24.708C504.648 24.708 502.21 27.146 502.21 30.1535C502.21 33.161 504.648 35.599 507.655 35.599Z" fill="#020202" stroke="white" stroke-width="1.44061" stroke-miterlimit="10"/>
<path vector-effect="non-scaling-stroke" d="M731.944 17.1299L707.785 29.7496V45.4234H731.944V17.1299Z" fill="#020202" stroke="white" stroke-width="1.44061" stroke-miterlimit="10"/>
<path vector-effect="non-scaling-stroke" d="M731.943 24.5205L749.778 33.8412V45.4237H731.943V24.5205Z" fill="#020202" stroke="white" stroke-width="1.44061" stroke-miterlimit="10"/>
<path vector-effect="non-scaling-stroke" d="M724.726 38.0322H719.857V45.4225H724.726V38.0322Z" stroke="white" stroke-width="1.44061" stroke-miterlimit="10"/>
<path vector-effect="non-scaling-stroke" d="M665.416 41.9945V30.9307H631.188" stroke="white" stroke-width="1.44061" stroke-miterlimit="10"/>
<path vector-effect="non-scaling-stroke" d="M631.188 45.3369H664.797" stroke="white" stroke-width="1.44061" stroke-miterlimit="10"/>
<path vector-effect="non-scaling-stroke" d="M584.252 19.8525V30.9164H607.561C608.613 30.9164 609.477 31.7664 609.477 32.8324V38.2347C609.477 42.1531 612.661 45.3369 616.58 45.3369H627.86" stroke="white" stroke-width="1.44061" stroke-miterlimit="10"/>
<path vector-effect="non-scaling-stroke" d="M627.86 30.9302H625.8C624.748 30.9302 623.884 30.0803 623.884 29.0142V23.612C623.884 19.6935 620.7 16.5098 616.782 16.5098H584.872" stroke="white" stroke-width="1.44061" stroke-miterlimit="10"/>
<path vector-effect="non-scaling-stroke" d="M631.202 28.5254H627.86V47.8871H631.202V28.5254Z" stroke="white" stroke-width="1.44061" stroke-miterlimit="10"/>
<path vector-effect="non-scaling-stroke" d="M641.157 16.3525C639.385 16.3525 637.944 17.7643 637.944 19.4931C637.944 25.1691 636.014 25.8894 636.014 25.8894C639.932 25.8894 644.384 24.3479 644.384 19.4931C644.384 17.7643 642.943 16.3525 641.171 16.3525H641.157Z" stroke="white" stroke-width="1.44061" stroke-linecap="round" stroke-linejoin="round"/>
<path vector-effect="non-scaling-stroke" d="M673.541 492.069H607.461" stroke="white" stroke-width="1.44061" stroke-miterlimit="10"/>
<path vector-effect="non-scaling-stroke" d="M673.541 477.029H650.679" stroke="white" stroke-width="1.44061" stroke-miterlimit="10"/>
<path vector-effect="non-scaling-stroke" d="M615.787 507.455H586.485" stroke="white" stroke-width="1.44061" stroke-miterlimit="10"/>
<path vector-effect="non-scaling-stroke" d="M673.541 507.455H640.508" stroke="white" stroke-width="1.44061" stroke-miterlimit="10"/>
<path vector-effect="non-scaling-stroke" d="M385.665 68.0127H15.2993" stroke="white" stroke-width="1.44061" stroke-miterlimit="10"/>
<path vector-effect="non-scaling-stroke" d="M84.5349 77.9092H122.855C137.405 77.9092 149.204 66.1106 149.204 51.5605C149.204 37.0104 137.405 25.2118 122.855 25.2118C117.799 25.2118 112.843 26.6668 108.593 29.4184C103.349 15.3725 89.9516 6.06616 74.9549 6.05176C59.9582 6.06616 46.5605 15.4013 41.3311 29.4472C37.0814 26.6957 32.1257 25.2262 27.0547 25.2118C12.519 25.2262 0.720459 37.0248 0.720459 51.5749C0.720459 66.125 12.519 77.9236 27.0691 77.9236H65.3893" fill="#020202"/>
<path vector-effect="non-scaling-stroke" d="M84.5349 77.9092H122.855C137.405 77.9092 149.204 66.1106 149.204 51.5605C149.204 37.0104 137.405 25.2118 122.855 25.2118C117.799 25.2118 112.843 26.6668 108.593 29.4184C103.349 15.3725 89.9516 6.06616 74.9549 6.05176C59.9582 6.06616 46.5605 15.4013 41.3311 29.4472C37.0814 26.6957 32.1257 25.2262 27.0547 25.2118C12.519 25.2262 0.720459 37.0248 0.720459 51.5749C0.720459 66.125 12.519 77.9236 27.0691 77.9236H65.3893" stroke="white" stroke-width="1.44061"/>
<path vector-effect="non-scaling-stroke" d="M327.58 56.401C331.176 56.401 334.091 53.4857 334.091 49.8895C334.091 46.2932 331.176 43.3779 327.58 43.3779C323.983 43.3779 321.068 46.2932 321.068 49.8895C321.068 53.4857 323.983 56.401 327.58 56.401Z" fill="#020202" stroke="white" stroke-width="1.44061" stroke-miterlimit="10"/>
<path vector-effect="non-scaling-stroke" d="M347.158 56.401C350.754 56.401 353.669 53.4857 353.669 49.8895C353.669 46.2932 350.754 43.3779 347.158 43.3779C343.561 43.3779 340.646 46.2932 340.646 49.8895C340.646 53.4857 343.561 56.401 347.158 56.401Z" fill="#020202" stroke="white" stroke-width="1.44061" stroke-miterlimit="10"/>
<path vector-effect="non-scaling-stroke" d="M366.721 56.401C370.317 56.401 373.232 53.4857 373.232 49.8895C373.232 46.2932 370.317 43.3779 366.721 43.3779C363.125 43.3779 360.209 46.2932 360.209 49.8895C360.209 53.4857 363.125 56.401 366.721 56.401Z" fill="#020202" stroke="white" stroke-width="1.44061" stroke-miterlimit="10"/>
<path vector-effect="non-scaling-stroke" d="M171.303 488.712V495.252" stroke="white" stroke-width="1.44061" stroke-miterlimit="10"/>
<path vector-effect="non-scaling-stroke" d="M171.303 450.118V456.658" stroke="white" stroke-width="1.44061" stroke-miterlimit="10"/>
<path vector-effect="non-scaling-stroke" d="M181.704 464.395C181.502 459.987 177.08 456.674 171.202 456.674C166.549 456.674 161.521 459.627 161.521 464.395C161.521 468.775 166.045 472.607 171.202 472.607C177.195 472.607 181.704 476.18 181.704 480.919C181.704 484.377 178.578 487.46 174.098 488.396C173.219 488.583 172.297 488.713 171.375 488.713C170.453 488.713 169.488 488.598 168.58 488.396C164.301 487.431 161.319 484.348 161.319 480.905" stroke="white" stroke-width="1.44061" stroke-miterlimit="10"/>
<path vector-effect="non-scaling-stroke" d="M120.608 515.609C144.357 515.609 163.61 496.356 163.61 472.607C163.61 448.857 144.357 429.604 120.608 429.604C96.8584 429.604 77.6057 448.857 77.6057 472.607C77.6057 496.356 96.8584 515.609 120.608 515.609Z" fill="#404040" stroke="white" stroke-width="1.44061" stroke-linecap="round" stroke-linejoin="round"/>
<path vector-effect="non-scaling-stroke" d="M120.406 488.712V495.252" stroke="white" stroke-width="1.44061" stroke-miterlimit="10"/>
<path vector-effect="non-scaling-stroke" d="M120.406 450.118V456.658" stroke="white" stroke-width="1.44061" stroke-miterlimit="10"/>
<path vector-effect="non-scaling-stroke" d="M130.808 464.395C130.606 459.987 126.183 456.674 120.306 456.674C115.652 456.674 110.625 459.627 110.625 464.395C110.625 468.775 115.148 472.607 120.306 472.607C126.299 472.607 130.808 476.18 130.808 480.919C130.808 484.377 127.682 487.46 123.201 488.396C122.322 488.583 121.401 488.713 120.479 488.713C119.557 488.713 118.591 488.598 117.684 488.396C113.405 487.431 110.423 484.348 110.423 480.905" stroke="white" stroke-width="1.44061" stroke-miterlimit="10"/>
<path vector-effect="non-scaling-stroke" d="M69.7113 515.609C93.4607 515.609 112.713 496.356 112.713 472.607C112.713 448.857 93.4607 429.604 69.7113 429.604C45.9619 429.604 26.7092 448.857 26.7092 472.607C26.7092 496.356 45.9619 515.609 69.7113 515.609Z" fill="#404040" stroke="white" stroke-width="1.44061" stroke-linecap="round" stroke-linejoin="round"/>
<path vector-effect="non-scaling-stroke" d="M69.7688 488.712V495.252" stroke="white" stroke-width="1.44061" stroke-miterlimit="10"/>
<path vector-effect="non-scaling-stroke" d="M69.7688 450.118V456.658" stroke="white" stroke-width="1.44061" stroke-miterlimit="10"/>
<path vector-effect="non-scaling-stroke" d="M80.17 464.395C79.9683 459.987 75.5456 456.674 69.668 456.674C65.0148 456.674 59.9871 459.627 59.9871 464.395C59.9871 468.775 64.5106 472.607 69.668 472.607C75.6609 472.607 80.17 476.18 80.17 480.919C80.17 484.377 77.0439 487.46 72.5636 488.396C71.6848 488.583 70.7628 488.713 69.8408 488.713C68.9188 488.713 67.9536 488.598 67.0461 488.396C62.7675 487.431 59.7854 484.348 59.7854 480.905" stroke="white" stroke-width="1.44061" stroke-miterlimit="10"/>
<path vector-effect="non-scaling-stroke" d="M74.998 188.547C79.2864 188.547 82.7629 185.071 82.7629 180.782C82.7629 176.494 79.2864 173.018 74.998 173.018C70.7096 173.018 67.2332 176.494 67.2332 180.782C67.2332 185.071 70.7096 188.547 74.998 188.547Z" stroke="white" stroke-width="1.44061" stroke-miterlimit="10"/>
<path vector-effect="non-scaling-stroke" d="M74.998 180.783V48.9531" stroke="white" stroke-width="1.44061" stroke-miterlimit="10"/>
<path vector-effect="non-scaling-stroke" d="M84.2757 57.568L74.9694 48.2617L65.6487 57.568" stroke="white" stroke-width="1.44061" stroke-miterlimit="10"/>
<path vector-effect="non-scaling-stroke" d="M107.916 192.682V101.693" stroke="white" stroke-width="1.44061" stroke-miterlimit="10"/>
<path vector-effect="non-scaling-stroke" d="M117.193 110.308L107.887 101.002L98.5808 110.308" stroke="white" stroke-width="1.44061" stroke-miterlimit="10"/>
<path vector-effect="non-scaling-stroke" d="M703.491 155.73V147.086" stroke="white" stroke-width="1.44061" stroke-miterlimit="10"/>
<path vector-effect="non-scaling-stroke" d="M703.491 129.913V121.27H694.848" stroke="white" stroke-width="1.44061" stroke-miterlimit="10"/>
<path vector-effect="non-scaling-stroke" d="M677.474 121.27H477.662" stroke="white" stroke-width="1.44061" stroke-miterlimit="10"/>
<path vector-effect="non-scaling-stroke" d="M468.975 121.27H460.331V112.626" stroke="white" stroke-width="1.44061" stroke-miterlimit="10"/>
<path vector-effect="non-scaling-stroke" d="M460.331 100.626V82.6475" stroke="white" stroke-width="1.44061" stroke-miterlimit="10"/>
<path vector-effect="non-scaling-stroke" d="M460.331 76.6544V68.0107H451.688" stroke="white" stroke-width="1.44061" stroke-miterlimit="10"/>
<path vector-effect="non-scaling-stroke" d="M432.556 68.0107H403.874" stroke="white" stroke-width="1.44061" stroke-miterlimit="10"/>
<path vector-effect="non-scaling-stroke" d="M394.308 68.0107H385.665" stroke="white" stroke-width="1.44061" stroke-miterlimit="10"/>
</g>
</g>
<defs>
<clipPath id="clip0_21_15590">
<rect width="802" height="535" fill="white"/>
</clipPath>
<clipPath id="clip1_21_15590">
<rect width="802" height="526.21" fill="white"/>
</clipPath>
</defs>
</svg>
