<svg width="595" height="396" viewBox="0 0 595 396" fill="none" xmlns="http://www.w3.org/2000/svg">
<g clip-path="url(#clip0_3183_2426)">
<path vector-effect="non-scaling-stroke" d="M595 0H0V396H595V0Z" fill="#020202"/>
<path vector-effect="non-scaling-stroke" d="M279.61 106.09C286.5 83.6399 306.1 67.4399 329.22 67.4399C332.48 67.4399 335.67 67.7799 338.77 68.3999C343.71 62.0199 350.28 57.1699 357.78 54.5699C362.34 27.0399 384.63 6.13989 411.46 6.13989C437.65 6.13989 459.52 26.0599 464.79 52.6199C465.9 52.5199 467.02 52.4599 468.15 52.4599C482.16 52.4599 494.52 60.0199 501.94 71.5599C508.59 65.2599 517.3 61.4299 526.85 61.4299C547.7 61.4299 564.59 79.6599 564.59 102.15C564.59 103.48 564.53 104.8 564.41 106.1H279.6L279.61 106.09Z" fill="#020202" stroke="white" stroke-linecap="round" stroke-linejoin="round"/>
<path vector-effect="non-scaling-stroke" d="M219.34 238.16L205.69 228.81C204.53 228.01 202.92 228.55 202.51 229.88C201.8 232.31 202.92 236.83 213.91 243.71" fill="#9F9F9D"/>
<path vector-effect="non-scaling-stroke" d="M219.34 238.16L205.69 228.81C204.53 228.01 202.92 228.55 202.51 229.88C201.8 232.31 202.92 236.83 213.91 243.71" stroke="white" stroke-linecap="round" stroke-linejoin="round"/>
<path vector-effect="non-scaling-stroke" d="M217.61 246.35L203.96 237C202.8 236.2 201.19 236.74 200.78 238.07C200.07 240.5 201.19 245.02 212.18 251.9" fill="#9F9F9D"/>
<path vector-effect="non-scaling-stroke" d="M217.61 246.35L203.96 237C202.8 236.2 201.19 236.74 200.78 238.07C200.07 240.5 201.19 245.02 212.18 251.9" stroke="white" stroke-linecap="round" stroke-linejoin="round"/>
<path vector-effect="non-scaling-stroke" d="M208.02 251.87C212.98 245.01 228.43 234.31 232 232.16C232.76 231.69 233 230.66 232.43 229.94C230.59 227.61 224.84 224.76 208.21 239.26L208.02 251.87Z" fill="#9F9F9D" stroke="white" stroke-linecap="round" stroke-linejoin="round"/>
<path vector-effect="non-scaling-stroke" d="M215.2 233.69C226.54 225.65 230.88 227.99 232.43 229.96C232.99 230.67 232.77 231.71 231.98 232.18C229.9 233.44 223.78 237.6 218.06 242.21C223.27 241.03 228.95 239.87 234.32 240.43C235.7 240.57 237.18 240.75 237.96 242.02C238.37 242.69 238.61 243.34 238.21 244.08C237.93 244.61 237.36 245.1 236.76 245.21C233.53 245.84 225.95 248.34 222.82 249.58C219.69 250.84 216.47 252.23 213.52 253.72C209.57 255.74 205.87 257.97 201.75 259.75C196.22 262.14 190.7 264.51 185.07 266.66C180.46 268.43 176.21 270.03 170.17 271.69C169.7 270.89 165.46 251.83 164.46 249.62C171.86 246.07 175.29 244.01 180.62 237.79C183.18 234.8 193.79 224.88 195.57 227.55C198.98 232.67 188.76 236.94 190.58 242.06C191.9 245.74 196.62 244.52 199.22 243.17L215.18 233.69H215.2Z" fill="#9F9F9D" stroke="white" stroke-linecap="round" stroke-linejoin="round"/>
<path vector-effect="non-scaling-stroke" d="M210.41 249.03C212.55 246.8 215.33 244.38 218.19 242.07Z" fill="#9F9F9D"/>
<path vector-effect="non-scaling-stroke" d="M210.41 249.03C212.55 246.8 215.33 244.38 218.19 242.07" stroke="white" stroke-linecap="round" stroke-linejoin="round"/>
<path vector-effect="non-scaling-stroke" d="M142.5 243.43H161.04V272.85H142.5V243.43Z" fill="black" stroke="white" stroke-linecap="round" stroke-linejoin="round"/>
<path vector-effect="non-scaling-stroke" d="M142.5 243.43H161.04V272.85H142.5V243.43Z" stroke="white" stroke-linecap="round" stroke-linejoin="round"/>
<path vector-effect="non-scaling-stroke" d="M163.32 238.85H172.28C173.54 238.85 174.56 239.87 174.56 241.13C174.56 242.39 173.54 243.41 172.28 243.41H163.32C162.06 243.41 161.04 242.39 161.04 241.13C161.04 239.87 162.06 238.85 163.32 238.85Z" fill="black" stroke="white" stroke-linecap="round" stroke-linejoin="round"/>
<path vector-effect="non-scaling-stroke" d="M163.32 238.85H172.28C173.54 238.85 174.56 239.87 174.56 241.13C174.56 242.39 173.54 243.41 172.28 243.41H163.32C162.06 243.41 161.04 242.39 161.04 241.13C161.04 239.87 162.06 238.85 163.32 238.85Z" stroke="white" stroke-linecap="round" stroke-linejoin="round"/>
<path vector-effect="non-scaling-stroke" d="M161.04 243.42H174.57V272.84H161.04V243.42Z" fill="black" stroke="white" stroke-linecap="round" stroke-linejoin="round"/>
<path vector-effect="non-scaling-stroke" d="M174.56 243.41H161.03V253.1C161.03 256.83 164.06 259.87 167.79 259.87C171.52 259.87 174.55 256.84 174.55 253.1V243.41H174.56Z" fill="black" stroke="white" stroke-linecap="round" stroke-linejoin="round"/>
<path vector-effect="non-scaling-stroke" d="M161.04 243.42H174.57V272.84H161.04V243.42Z" stroke="white" stroke-linecap="round" stroke-linejoin="round"/>
<path vector-effect="non-scaling-stroke" d="M174.56 243.41H161.03V253.1C161.03 256.83 164.06 259.87 167.79 259.87C171.52 259.87 174.55 256.84 174.55 253.1V243.41H174.56Z" stroke="white" stroke-linecap="round" stroke-linejoin="round"/>
<path vector-effect="non-scaling-stroke" d="M167.03 254.95C167.03 255.38 167.38 255.72 167.8 255.72C168.22 255.72 168.57 255.37 168.57 254.95C168.57 254.52 168.22 254.18 167.8 254.18C167.38 254.18 167.03 254.53 167.03 254.95Z" fill="white" stroke="white" stroke-linecap="round" stroke-linejoin="round"/>
<path vector-effect="non-scaling-stroke" d="M167.03 263.88C167.03 264.31 167.38 264.65 167.8 264.65C168.22 264.65 168.57 264.3 168.57 263.88C168.57 263.46 168.22 263.11 167.8 263.11C167.38 263.11 167.03 263.46 167.03 263.88Z" fill="white" stroke="white" stroke-linecap="round" stroke-linejoin="round"/>
<path vector-effect="non-scaling-stroke" d="M13.3 200.07C11.71 191.66 9.50003 176.14 11.04 172.68C13.73 166.67 35.81 143.4 39.7 135.42C48.75 116.86 44.87 100.62 55.02 96.1598C65 91.7798 73.28 98.0298 79.28 102.14C85.28 106.25 95.75 117.09 90.89 130.56C90.75 130.96 90.6 131.36 90.47 131.76C91.41 135.53 92.19 145.13 89.72 141.81C84.5 134.79 83.68 135.06 86.9 139.27L88.19 142.64C88.07 142.55 87.91 142.62 87.88 142.77C86.33 151.52 85.47 158.85 79.28 161.2C70.33 164.59 59.12 148.89 59.12 148.89L52.4 164.22C52.4 164.22 56.89 167.96 68.1 185.9C79.31 203.84 97.62 233.75 97.62 233.75H138.68C144.28 233.75 148.82 238.29 148.82 243.89V272.88H92.88C79.48 272.88 66.93 266.24 59.4 255.13C59.4 255.13 42.49 230.27 42.87 230.77C50.67 241.12 51.8 271.05 47.47 266.53C41.68 260.49 19.23 231.52 13.31 200.08L13.3 200.07Z" fill="black" stroke="white" stroke-linecap="round" stroke-linejoin="round"/>
<path vector-effect="non-scaling-stroke" d="M48.1299 267.8C54.9499 255.47 44.8999 234.73 43.1199 231.26C43.0999 231.22 43.1499 231.2 43.1799 231.23L59.3899 255.12C66.9199 266.22 79.4699 272.87 92.8699 272.87H148.78C148.78 272.87 148.81 272.86 148.81 272.84V246.2C148.81 239.32 143.24 233.75 136.36 233.75H97.6299H97.6099C97.2499 233.17 79.1999 203.67 68.0999 185.91C57.2999 168.62 52.7299 164.52 52.4199 164.25C52.4099 164.25 52.4099 164.23 52.4199 164.21L59.1099 148.95C59.1099 148.95 59.1499 148.92 59.1599 148.94C59.7999 149.83 70.6099 164.5 79.2899 161.21C85.5399 158.84 86.3499 151.38 87.9299 142.52C87.9299 142.5 87.9599 142.48 87.9799 142.5L88.4999 142.88C90.1299 144.08 92.4399 142.78 92.1999 140.76C91.8599 137.89 91.2299 134.89 90.6699 132.55C90.7099 132.06 90.7599 131.34 90.7999 130.85C95.9099 117.26 85.3399 106.3 79.2899 102.16C73.2899 98.0498 65.0099 91.7998 55.0299 96.1798C44.8799 100.64 48.7599 116.87 39.7099 135.44C35.8899 143.29 22.2599 157.3 10.9099 172.67" stroke="white" stroke-linecap="round" stroke-linejoin="round"/>
<path vector-effect="non-scaling-stroke" d="M88.5601 142.89L87.9401 142.43C86.3601 151.32 85.5601 158.8 79.2901 161.17C70.3501 164.56 59.1301 148.86 59.1301 148.86L53.8101 160.99L31.0901 147.58C35.0201 142.73 38.1601 138.57 39.7001 135.4C48.7501 116.84 44.8701 100.6 55.0201 96.1398C65.0001 91.7598 73.2801 98.0098 79.2801 102.12C85.2801 106.23 95.7501 117.07 90.8901 130.54C90.7501 130.94 90.6001 131.34 90.4701 131.74C91.0801 134.18 91.8201 137.57 92.2001 140.78C92.4301 142.77 90.1701 144.08 88.5501 142.88H88.5601V142.89Z" fill="#9F9F9D" stroke="white" stroke-linecap="round" stroke-linejoin="round"/>
<path vector-effect="non-scaling-stroke" d="M79.8101 139.61C79.8101 139.67 79.8601 145.99 87.0001 147.6L87.1601 146.88" stroke="white" stroke-linecap="round" stroke-linejoin="round"/>
<path vector-effect="non-scaling-stroke" d="M42.18 128.45C44.09 122.98 45.1 117.84 46 113.3C47.63 104.98 48.92 98.4099 54.86 95.7999C64.57 91.5299 72.7 97.1399 78.64 101.24L79.48 101.82C81.43 103.15 88.02 108.12 91.05 115.99L91.2 116.39L90.78 116.48C90.71 116.5 83.39 117.99 74.55 114.22C73.13 116.33 63.31 130.14 49.51 130.14C47.23 130.14 44.86 129.76 42.39 128.9L42.03 128.78L42.15 128.42V128.45H42.18Z" fill="white" stroke="white" stroke-linecap="round" stroke-linejoin="round"/>
<path vector-effect="non-scaling-stroke" d="M52.3701 164.21C46.0101 158 35.6801 151.18 29.3201 149.75L35.8601 141.47C35.8601 141.47 49.5301 147.34 56.4701 154.93C58.9401 157.63 59.5201 160 59.2401 161.94C58.7701 165.23 54.7401 166.52 52.3701 164.21Z" fill="black" stroke="white" stroke-linecap="round" stroke-linejoin="round"/>
<path vector-effect="non-scaling-stroke" d="M52.3701 164.21C46.0101 158 35.6801 151.18 29.3201 149.75L35.8601 141.47C35.8601 141.47 49.5301 147.34 56.4701 154.93C58.9401 157.63 59.5201 160 59.2401 161.94C58.7701 165.23 54.7401 166.52 52.3701 164.21Z" stroke="white" stroke-linecap="round" stroke-linejoin="round"/>
<path vector-effect="non-scaling-stroke" d="M69.64 121.38C69.64 121.38 66.21 115.01 61.44 117.34C55.39 120.3 58.99 127.88 61.44 129.22L70.6 123.03L69.65 121.39L69.64 121.38Z" fill="#9F9F9D" stroke="white" stroke-linecap="round" stroke-linejoin="round"/>
<path vector-effect="non-scaling-stroke" d="M69.64 121.37C69.64 121.37 66.21 115.01 61.44 117.34C55.39 120.3 58.99 127.88 61.44 129.22" stroke="white" stroke-linecap="round" stroke-linejoin="round"/>
<path vector-effect="non-scaling-stroke" d="M150.43 312.64C227.463 312.64 289.91 250.193 289.91 173.16C289.91 96.1273 227.463 33.6799 150.43 33.6799C73.3973 33.6799 10.95 96.1273 10.95 173.16C10.95 250.193 73.3973 312.64 150.43 312.64Z" stroke="white" stroke-linecap="round" stroke-linejoin="round"/>
<path vector-effect="non-scaling-stroke" d="M167.61 120.1C175.55 80.2201 233.97 79.5501 242.24 119.36C242.79 121.99 243.1 124.7 243.15 127.47C243.35 138.24 239.66 148.16 233.4 155.91C228.57 161.89 225.39 168.96 224.06 176.44C223.71 178.42 222.37 180.02 220.6 180.71L190.4 180.99C188.61 180.34 187.22 178.83 186.84 176.87C186.44 174.83 185.86 172.65 185.12 170.55C185.11 170.51 185.1 170.48 185.08 170.44C183.29 165.36 180.6 160.6 177.09 156.41C170.76 148.87 166.92 139.17 166.82 128.56C166.79 125.67 167.07 122.83 167.62 120.08L167.61 120.1Z" fill="#A1A19F" stroke="white" stroke-linecap="round" stroke-linejoin="round"/>
<path vector-effect="non-scaling-stroke" d="M220.4 180.72L220.5 191.11L220.55 195.89V196.06C220.58 199.05 218.22 201.5 215.26 201.63H215.33V202.07C215.38 207.48 211.04 211.9 205.63 211.95C200.22 212 195.8 207.66 195.75 202.25V201.8H196.07C193.1 201.72 190.7 199.32 190.68 196.33V196.16L190.63 191.38L190.53 180.99L220.4 180.71V180.72Z" fill="#020202" stroke="white" stroke-linecap="round" stroke-linejoin="round"/>
<path vector-effect="non-scaling-stroke" d="M546.28 382.1H79.3499C41.5699 382.1 10.9399 351.82 10.9399 314.47V172.59" stroke="white" stroke-linecap="round" stroke-linejoin="round"/>
<path vector-effect="non-scaling-stroke" d="M202.6 50.97L201.67 54.31C201.32 55.56 200.35 56.53 199.11 56.88L195.79 57.82L199.11 58.76C200.35 59.11 201.32 60.08 201.67 61.33L202.6 64.67L203.53 61.33C203.88 60.08 204.85 59.11 206.09 58.76L209.41 57.82L206.09 56.88C204.85 56.53 203.88 55.56 203.53 54.31L202.6 50.97Z" fill="#AF00FF" stroke="white" stroke-linecap="round" stroke-linejoin="round"/>
<path vector-effect="non-scaling-stroke" d="M218.07 36.5L217.14 39.84C216.79 41.09 215.82 42.06 214.58 42.41L211.26 43.35L214.58 44.29C215.82 44.64 216.79 45.61 217.14 46.86L218.07 50.2L219 46.86C219.35 45.61 220.32 44.64 221.56 44.29L224.88 43.35L221.56 42.41C220.32 42.06 219.35 41.09 219 39.84L218.07 36.5Z" fill="#AF00FF" stroke="white" stroke-linecap="round" stroke-linejoin="round"/>
<path vector-effect="non-scaling-stroke" d="M187.36 45.1001L186.9 46.7301C186.73 47.3401 186.26 47.8101 185.65 47.9801L184.03 48.4401L185.65 48.9001C186.26 49.0701 186.73 49.5501 186.9 50.1501L187.36 51.7801L187.82 50.1501C187.99 49.5401 188.46 49.0701 189.07 48.9001L190.69 48.4401L189.07 47.9801C188.46 47.8101 187.99 47.3301 187.82 46.7301L187.36 45.1001Z" fill="#AF00FF" stroke="white" stroke-linecap="round" stroke-linejoin="round"/>
<path vector-effect="non-scaling-stroke" d="M195.72 67.8L195.18 69.74C194.98 70.47 194.41 71.03 193.69 71.24L191.76 71.79L193.69 72.34C194.41 72.54 194.98 73.11 195.18 73.84L195.72 75.78L196.26 73.84C196.46 73.11 197.03 72.55 197.75 72.34L199.68 71.79L197.75 71.24C197.03 71.04 196.46 70.47 196.26 69.74L195.72 67.8Z" fill="#AF00FF" stroke="white" stroke-linecap="round" stroke-linejoin="round"/>
<path vector-effect="non-scaling-stroke" d="M215.84 62.96L214.58 67.46C214.11 69.14 212.8 70.45 211.13 70.92L206.66 72.18L211.13 73.44C212.8 73.91 214.11 75.22 214.58 76.9L215.84 81.4L217.1 76.9C217.57 75.22 218.88 73.91 220.55 73.44L225.02 72.18L220.55 70.92C218.88 70.45 217.57 69.14 217.1 67.46L215.84 62.96Z" fill="#AF00FF" stroke="white" stroke-linecap="round" stroke-linejoin="round"/>
<path vector-effect="non-scaling-stroke" fill-rule="evenodd" clip-rule="evenodd" d="M471 23.8801C470.89 22.4501 470.79 21.0201 469.31 20.4101C468.54 19.7501 467.07 19.1401 465.64 19.2401C462.13 20.2201 428.43 29.1701 419.15 39.1901C416.5 42.6701 392.78 70.2501 370.05 96.5801C357.23 97.5301 338.89 98.9001 331.31 102.32C324.34 105 316.32 112.8 312.37 117.41L284.67 149.73C283.35 151.27 282.8 153.47 284.33 154.8C285.15 156.18 286.68 157.51 288.1 157.4L288.81 157.35C288.81 157.35 288.9 157.33 326.09 149.48C326.05 150.88 326.43 152.19 327.33 152.96L359.45 180.75C360.93 181.36 361.69 182.02 363.12 181.92C363.15 181.92 363.21 181.88 363.24 181.87C362.94 188.96 362.44 200.58 361.61 219.89C361.01 221.37 362.58 223.41 364.06 224.02L366.19 223.86C366.9 223.81 368.32 223.7 368.98 222.94L396.55 190.02C400.55 186.13 406.97 176.32 408.57 169.03C410.16 162.72 409.94 149.87 408.57 130.59C421.08 116.04 437.22 97.2601 458.15 72.9301C467.43 62.9101 470.6 28.2101 470.99 23.8701L471 23.8801Z" fill="#020202" stroke="white" stroke-linecap="round" stroke-linejoin="round"/>
<path vector-effect="non-scaling-stroke" fill-rule="evenodd" clip-rule="evenodd" d="M319.21 122.69C323.17 118.07 329.92 112.53 334.04 110.06C338.71 108.51 347.94 107.14 362.02 105.9C353.14 116.18 344.87 125.74 338.57 133.02C338.38 133.14 338.19 133.22 338 133.36C337.9 133.54 337.87 133.74 337.79 133.92C336.12 135.85 334.63 137.57 333.3 139.11C330.57 139.64 322.53 141.2 298.72 145.81L319.22 122.68L319.21 122.69Z" fill="#AF00FF" stroke="white" stroke-linecap="round" stroke-linejoin="round"/>
<path vector-effect="non-scaling-stroke" fill-rule="evenodd" clip-rule="evenodd" d="M399.89 167.53C398.79 171.92 393.68 180.2 390.45 184.74L370.72 207.74C370.72 207.74 370.72 207.68 372.3 172.81C377.15 167.17 385.66 157.27 400.61 139.88C401.54 157.28 400.87 164.44 399.9 167.52L399.89 167.53Z" fill="#AF00FF" stroke="white" stroke-linecap="round" stroke-linejoin="round"/>
<path vector-effect="non-scaling-stroke" fill-rule="evenodd" clip-rule="evenodd" d="M347.54 175.77C350.59 178.41 352.27 181.87 352.59 186.15C353.01 191.85 350.59 197.76 345.99 203.12C338.11 212.3 301.94 225 297.74 226.03L296.32 226.13C295.61 226.18 294.19 226.29 293.43 225.63C291.91 224.31 291.8 222.88 291.69 221.46C292.79 217.08 299.28 179.34 307.11 169.45C315.65 159.5 326.24 158.01 334.57 164.56" fill="#020202"/>
<path vector-effect="non-scaling-stroke" d="M347.54 175.77C350.59 178.41 352.27 181.87 352.59 186.15C353.01 191.85 350.59 197.76 345.99 203.12C338.11 212.3 301.94 225 297.74 226.03L296.32 226.13C295.61 226.18 294.19 226.29 293.43 225.63C291.91 224.31 291.8 222.88 291.69 221.46C292.79 217.08 299.28 179.34 307.11 169.45C315.65 159.5 326.24 158.01 334.57 164.56" stroke="white" stroke-linecap="round" stroke-linejoin="round"/>
<path vector-effect="non-scaling-stroke" d="M398.05 382.1L464.97 165.25L529.34 382.1" stroke="white" stroke-linecap="round" stroke-linejoin="round"/>
<path vector-effect="non-scaling-stroke" d="M426 382.1L492.92 165.25L557.29 382.1" stroke="white" stroke-linecap="round" stroke-linejoin="round"/>
<path vector-effect="non-scaling-stroke" d="M401.15 371.65H428.82" stroke="white" stroke-linecap="round" stroke-linejoin="round"/>
<path vector-effect="non-scaling-stroke" d="M526.52 371.65H554.19" stroke="white" stroke-linecap="round" stroke-linejoin="round"/>
<path vector-effect="non-scaling-stroke" d="M406.8 354.71H434.47" stroke="white" stroke-linecap="round" stroke-linejoin="round"/>
<path vector-effect="non-scaling-stroke" d="M521.15 354.71H548.82" stroke="white" stroke-linecap="round" stroke-linejoin="round"/>
<path vector-effect="non-scaling-stroke" d="M411.88 337.77H439.55" stroke="white" stroke-linecap="round" stroke-linejoin="round"/>
<path vector-effect="non-scaling-stroke" d="M516.35 337.77H544.02" stroke="white" stroke-linecap="round" stroke-linejoin="round"/>
<path vector-effect="non-scaling-stroke" d="M416.97 320.83H444.64" stroke="white" stroke-linecap="round" stroke-linejoin="round"/>
<path vector-effect="non-scaling-stroke" d="M511.27 320.83H538.94" stroke="white" stroke-linecap="round" stroke-linejoin="round"/>
<path vector-effect="non-scaling-stroke" d="M422.33 303.89H450" stroke="white" stroke-linecap="round" stroke-linejoin="round"/>
<path vector-effect="non-scaling-stroke" d="M506.19 303.89H533.86" stroke="white" stroke-linecap="round" stroke-linejoin="round"/>
<path vector-effect="non-scaling-stroke" d="M427.39 286.95H455.06" stroke="white" stroke-linecap="round" stroke-linejoin="round"/>
<path vector-effect="non-scaling-stroke" d="M501.37 286.95H529.04" stroke="white" stroke-linecap="round" stroke-linejoin="round"/>
<path vector-effect="non-scaling-stroke" d="M433.04 270H460.71" stroke="white" stroke-linecap="round" stroke-linejoin="round"/>
<path vector-effect="non-scaling-stroke" d="M496.28 270H523.95" stroke="white" stroke-linecap="round" stroke-linejoin="round"/>
<path vector-effect="non-scaling-stroke" d="M437.97 253.06H465.64" stroke="white" stroke-linecap="round" stroke-linejoin="round"/>
<path vector-effect="non-scaling-stroke" d="M491.05 253.06H518.72" stroke="white" stroke-linecap="round" stroke-linejoin="round"/>
<path vector-effect="non-scaling-stroke" d="M443.46 236.12H471.13" stroke="white" stroke-linecap="round" stroke-linejoin="round"/>
<path vector-effect="non-scaling-stroke" d="M486.1 236.12H513.77" stroke="white" stroke-linecap="round" stroke-linejoin="round"/>
<path vector-effect="non-scaling-stroke" d="M448.7 219.18H476.37" stroke="white" stroke-linecap="round" stroke-linejoin="round"/>
<path vector-effect="non-scaling-stroke" d="M481.17 219.18H508.84" stroke="white" stroke-linecap="round" stroke-linejoin="round"/>
<path vector-effect="non-scaling-stroke" d="M453.62 202.24H503.78" stroke="white" stroke-linecap="round" stroke-linejoin="round"/>
<path vector-effect="non-scaling-stroke" d="M459.04 185.3H498.59" stroke="white" stroke-linecap="round" stroke-linejoin="round"/>
<path vector-effect="non-scaling-stroke" d="M464.4 167.23H492.07" stroke="white" stroke-linecap="round" stroke-linejoin="round"/>
<path vector-effect="non-scaling-stroke" d="M543.18 120.62L499.02 173.33H518.57V381.83H567.79V173.33H587.33L543.18 120.62Z" fill="#020202" stroke="white" stroke-linecap="round" stroke-linejoin="round"/>
<path vector-effect="non-scaling-stroke" d="M500.48 84.0801H486.84C486 84.0801 485.27 84.6501 485.06 85.4601L479.65 106.19C479.35 107.36 480.23 108.5 481.43 108.5H495.07C495.91 108.5 496.64 107.93 496.85 107.12L502.26 86.3901C502.56 85.2201 501.68 84.0801 500.48 84.0801Z" stroke="white" stroke-miterlimit="10"/>
<path vector-effect="non-scaling-stroke" d="M485.06 85.4601L484.85 86.2501H502.29C502.49 85.1301 501.64 84.0801 500.48 84.0801H486.84C486 84.0801 485.27 84.6501 485.06 85.4601Z" fill="#202020" stroke="white" stroke-miterlimit="10"/>
<path vector-effect="non-scaling-stroke" d="M479.61 106.45C479.49 107.52 480.32 108.5 481.44 108.5H495.08C495.92 108.5 496.65 107.93 496.86 107.12L497.03 106.45H479.6H479.61Z" fill="#202020" stroke="white" stroke-miterlimit="10"/>
<path vector-effect="non-scaling-stroke" d="M471.87 162.45L471.6 164.52C471.6 164.52 475.41 164.46 475.41 166.93H467.19L467.75 162.46H471.87V162.45Z" fill="#020202" stroke="white" stroke-miterlimit="10"/>
<path vector-effect="non-scaling-stroke" d="M488.88 162.45L488.91 164.52C488.91 164.52 493.15 164.46 493.15 166.93H484.88V162.46H488.88V162.45Z" fill="#020202" stroke="white" stroke-miterlimit="10"/>
<path vector-effect="non-scaling-stroke" d="M479.18 94.8699C479.87 93.7299 480.54 92.5599 481.57 91.6999C481.89 91.4299 482.23 91.1299 482.6 90.8799V91.9699C482.35 92.3499 482.23 92.7699 482.14 93.2399C482.26 93.0999 482.4 92.9699 482.56 92.8499C482.76 92.7099 483.12 92.4599 483.37 92.6599C483.63 92.8599 483.46 93.2799 483.37 93.5099C483.27 93.7699 483.17 94.0199 483.12 94.2999C483.09 94.5099 483.07 94.7299 482.99 94.9299C482.82 95.3799 482.45 95.7899 482.14 96.1399C481.79 96.5399 481.37 96.7699 480.95 97.0899C480.45 97.4699 480.24 98.0499 480 98.5999C479.82 99.0199 479.65 99.4299 479.47 99.8499L477.78 97.2299C478.23 96.4399 478.69 95.6499 479.16 94.8699H479.18Z" fill="#020202" stroke="white" stroke-miterlimit="10"/>
<path vector-effect="non-scaling-stroke" d="M502.64 93.5899C502.61 93.4099 502.47 92.9499 502.18 93.1099C501.89 93.2799 501.97 94.0299 501.94 94.2999C501.86 95.0099 501.44 95.5099 500.94 95.9699C500.99 95.7899 501.03 95.5999 501.04 95.4099C501.05 95.1699 501.07 94.7299 500.77 94.6199C500.46 94.5099 500.2 94.8699 500.05 95.0699C499.88 95.2899 499.73 95.5199 499.51 95.7099C499.35 95.8499 499.18 95.9799 499.05 96.1499C498.76 96.5299 498.61 97.0599 498.48 97.5099C498.33 98.0199 498.36 98.4999 498.32 99.0199C498.27 99.6399 497.89 100.13 497.55 100.63C497.29 101 497.04 101.37 496.78 101.75L499.89 101.78C500.32 100.98 500.74 100.17 501.14 99.3499C501.73 98.1599 502.37 96.9599 502.54 95.6299C502.63 94.9899 502.74 94.2299 502.63 93.5799L502.64 93.5899Z" fill="#020202" stroke="white" stroke-miterlimit="10"/>
<path vector-effect="non-scaling-stroke" d="M480.7 87.1199C480.6 86.9899 480.07 86.5399 479.93 86.2199C479.54 85.3599 479.69 84.5599 479.16 83.8499L472.94 84.4199C472.94 84.4199 472.88 84.4799 472.86 84.5099C472.32 85.2199 472.04 86.1199 471.85 86.9899C471.63 88.0199 471.59 89.1199 471.76 90.1599C471.81 90.4499 472.04 91.5099 472.46 91.7899C472.47 92.1299 472.49 92.4699 472.5 92.8099C472.52 93.1899 472.48 93.6299 472.55 93.9999L478.85 93.4299C478.83 92.9899 478.79 92.5499 478.73 92.1099C479.19 91.7299 479.63 91.2899 479.82 90.7199C479.94 90.3599 479.93 89.9799 479.93 89.6099C479.92 88.9599 480 88.4799 480.5 88.0299C480.69 87.8699 480.85 87.7399 480.82 87.4599C480.81 87.3299 480.77 87.2199 480.69 87.1199H480.7Z" fill="#020202" stroke="white" stroke-miterlimit="10"/>
<path vector-effect="non-scaling-stroke" d="M472.3 162.59C472.24 160.18 472.23 157.75 472.5 155.35C472.81 152.58 473.73 149.95 473.88 147.16C473.96 145.68 476.95 133.31 477.78 130.62C478.66 133.81 479.5 137.02 480.59 140.13C481.18 141.8 481.3 143.44 481.42 145.21C481.53 146.81 481.69 148.41 481.9 150C482.35 153.37 484.66 162.57 484.69 162.68L489.26 162.71C489.16 159.58 488.07 150.17 488.22 148.49C488.37 146.83 488.73 130.39 487.14 123.96L469.33 123.83C468.92 126.72 468.47 129.63 468.27 132.54C468.03 136.04 468.41 139.54 468.39 143.05C468.37 146.55 467.54 149.92 467.3 153.39C467.09 156.44 467.2 159.5 467.35 162.55L472.29 162.59H472.3Z" fill="#020202" stroke="white" stroke-miterlimit="10"/>
<path vector-effect="non-scaling-stroke" d="M466.26 103.15C465.69 101.11 465.43 98.7998 466.97 97.2698C468.29 95.9598 470.12 95.6598 471.6 94.6698C471.69 94.4398 472.03 93.6299 472.15 93.5099C472.4 93.2699 478.9 93.2699 479.02 93.3999C479.39 93.7899 479.73 94.2798 479.95 94.8098C480.42 95.0498 480.92 95.2298 481.46 95.3198C482.1 95.4198 482.74 95.6098 483.36 95.8398C484.21 96.1498 485.07 96.5299 485.89 96.9799V106.19C482.11 116.51 490.83 131.96 491.52 138.34C490.02 138.38 466.92 138.4 464.23 139.09C463.61 136.25 470.07 122.04 470.07 119.14L466.28 103.15H466.26Z" fill="#202020" stroke="white" stroke-miterlimit="10"/>
<path vector-effect="non-scaling-stroke" d="M485.86 106.52L484.59 96.4099C484.91 96.5199 485.23 96.6299 485.54 96.7699C486.8 97.3199 487.94 98.1599 489.07 98.9999C490.23 99.8699 491.38 100.74 492.64 101.42C493.61 101.94 494.61 102.35 495.63 102.65C495.99 101.83 497.74 99.7899 497.74 99.7899C498.9 101.3 500.57 101.41 500.57 101.41C500.53 102.37 500.5 103.33 500.46 104.29C500.39 105.78 500.08 107.17 498.03 108.03C497.88 108.1 497.71 108.15 497.54 108.17C496.24 108.38 494.88 107.96 493.62 107.51C492.32 107.05 491.04 106.48 489.74 106.04C489.08 105.82 488.41 106.26 487.74 106.14C487.35 106.07 486.25 106.58 485.86 106.52Z" fill="#202020" stroke="white" stroke-miterlimit="10"/>
<path vector-effect="non-scaling-stroke" d="M479.01 79.3999C476.95 78.2199 474.6 78.6399 472.75 79.8899C472.19 77.3799 469.78 75.6999 467.19 76.0799C464.6 76.4599 462.62 78.9999 463.02 81.7099C463.42 84.4199 465.94 86.2799 468.65 85.8799C468.93 85.8399 469.21 85.7699 469.48 85.6799C469.48 85.7099 469.48 85.7299 469.48 85.7599C469.54 87.5799 470.35 89.0299 471.47 90.4299C471.6 90.5999 474.06 88.5899 473.89 84.7399C474.42 85.1099 475.49 85.0999 476.11 85.0799C477.4 85.0599 479.12 84.9199 480.18 84.0899C482.08 82.5899 480.7 80.3599 479.02 79.3999H479.01Z" fill="#A1A19F" stroke="white" stroke-miterlimit="10"/>
<path vector-effect="non-scaling-stroke" d="M157.1 326.04H144.9V381.6H157.1V326.04Z" fill="#020202" stroke="white" stroke-linecap="round" stroke-linejoin="round"/>
<path vector-effect="non-scaling-stroke" d="M157.18 381.6H173.2V317.72H157.18V326.04" stroke="white" stroke-linecap="round" stroke-linejoin="round"/>
<path vector-effect="non-scaling-stroke" d="M174.53 339.34H190.54V381.6H169.87" stroke="white" stroke-linecap="square" stroke-linejoin="round"/>
<path vector-effect="non-scaling-stroke" d="M194.92 322.82L187.872 324.382L200.553 381.584L207.602 380.021L194.92 322.82Z" fill="#020202" stroke="white" stroke-linecap="round" stroke-linejoin="round"/>
<path vector-effect="non-scaling-stroke" d="M164.89 322.99V359.6" stroke="white" stroke-linecap="round" stroke-linejoin="round"/>
<path vector-effect="non-scaling-stroke" d="M151 335.6V372.21" stroke="white" stroke-linecap="round" stroke-linejoin="round"/>
<path vector-effect="non-scaling-stroke" d="M129.59 345.23V378.5" stroke="white" stroke-linecap="round" stroke-linejoin="round"/>
<path vector-effect="non-scaling-stroke" d="M138.15 345.23V378.5" stroke="white" stroke-linecap="round" stroke-linejoin="round"/>
<path vector-effect="non-scaling-stroke" d="M181.27 344.83V370.36" stroke="white" stroke-linecap="round" stroke-linejoin="round"/>
<path vector-effect="non-scaling-stroke" d="M177.26 375.82H184.8" stroke="white" stroke-linecap="round" stroke-linejoin="round"/>
<path vector-effect="non-scaling-stroke" d="M168.26 363.94H161.84V375.98H168.26V363.94Z" stroke="white" stroke-linecap="round" stroke-linejoin="round"/>
<path vector-effect="non-scaling-stroke" d="M144.5 339.55H123.38V381.82H144.06" stroke="white" stroke-linecap="square" stroke-linejoin="round"/>
<path vector-effect="non-scaling-stroke" fill-rule="evenodd" clip-rule="evenodd" d="M105.8 364.15C103.32 365.76 102.13 367.07 102.13 371.17C102.13 376.87 103.47 379.65 108.86 379.94V381.69H91.3701V379.94C96.7601 379.65 97.9601 376.87 98.1001 371.17C98.1001 367.08 96.9101 365.76 94.4301 364.3C90.4901 361.81 85.5401 358.89 85.3901 343.1H114.98C114.83 358.74 109.88 361.82 105.8 364.15Z" fill="#020202" stroke="white" stroke-linecap="round" stroke-linejoin="round"/>
<path vector-effect="non-scaling-stroke" d="M85.5001 346.23L81.1601 346.07C81.1601 346.07 80.5201 361.49 89.0301 359.88" stroke="white" stroke-linecap="round" stroke-linejoin="round"/>
<path vector-effect="non-scaling-stroke" d="M115.19 346.23L119.53 346.07C119.53 346.07 120.17 361.49 111.66 359.88" stroke="white" stroke-linecap="round" stroke-linejoin="round"/>
<path vector-effect="non-scaling-stroke" fill-rule="evenodd" clip-rule="evenodd" d="M103.24 351.53H101.53L100.59 349.75C100.5 349.58 100.33 349.5 100.16 349.5C99.9901 349.5 99.8201 349.58 99.7301 349.75L98.7901 351.53H97.0801C96.8201 351.53 96.6501 351.7 96.5701 351.87C96.5701 352.12 96.5701 352.29 96.8301 352.46L98.2801 353.48L97.6001 355.43C97.6001 355.68 97.6001 355.85 97.8601 356.02C98.0301 356.1 98.2901 356.1 98.4601 356.02L100.17 354.75L101.88 356.02C102.05 356.1 102.14 356.1 102.22 356.1C102.3 356.1 102.39 356.1 102.48 356.02C102.74 355.94 102.82 355.68 102.74 355.43L102.14 353.48L103.59 352.46C103.76 352.29 103.85 352.12 103.76 351.87C103.67 351.7 103.5 351.53 103.25 351.53H103.24Z" stroke="white" stroke-linecap="round" stroke-linejoin="round"/>
<path vector-effect="non-scaling-stroke" d="M415.19 244.58H252.68C243.435 244.58 235.94 252.075 235.94 261.32V356.68C235.94 365.925 243.435 373.42 252.68 373.42H415.19C424.435 373.42 431.93 365.925 431.93 356.68V261.32C431.93 252.075 424.435 244.58 415.19 244.58Z" fill="#020202" stroke="white" stroke-linecap="round" stroke-linejoin="round"/>
<path vector-effect="non-scaling-stroke" d="M248.96 244.58H418.91C426.1 244.58 431.93 250.41 431.93 257.6V260H235.94V257.6C235.94 250.41 241.77 244.58 248.96 244.58Z" fill="#202020" stroke="white" stroke-linecap="round" stroke-linejoin="round"/>
<path vector-effect="non-scaling-stroke" d="M243.7 255.4C244.987 255.4 246.03 254.357 246.03 253.07C246.03 251.783 244.987 250.74 243.7 250.74C242.413 250.74 241.37 251.783 241.37 253.07C241.37 254.357 242.413 255.4 243.7 255.4Z" stroke="white" stroke-linecap="round" stroke-linejoin="round"/>
<path vector-effect="non-scaling-stroke" d="M251.55 255.4C252.837 255.4 253.88 254.357 253.88 253.07C253.88 251.783 252.837 250.74 251.55 250.74C250.263 250.74 249.22 251.783 249.22 253.07C249.22 254.357 250.263 255.4 251.55 255.4Z" stroke="white" stroke-linecap="round" stroke-linejoin="round"/>
<path vector-effect="non-scaling-stroke" d="M259.4 255.4C260.687 255.4 261.73 254.357 261.73 253.07C261.73 251.783 260.687 250.74 259.4 250.74C258.113 250.74 257.07 251.783 257.07 253.07C257.07 254.357 258.113 255.4 259.4 255.4Z" stroke="white" stroke-linecap="round" stroke-linejoin="round"/>
<path vector-effect="non-scaling-stroke" d="M406.73 275.81H261.14V357.37H406.73V275.81Z" fill="#020202" stroke="white" stroke-linecap="round" stroke-linejoin="round"/>
<path vector-effect="non-scaling-stroke" d="M356.27 317.22L331 302.63V331.81L356.27 317.22Z" fill="#AF00FF" stroke="white" stroke-linecap="round" stroke-linejoin="round"/>
</g>
<defs>
<clipPath id="clip0_3183_2426">
<rect width="595" height="396" fill="white"/>
</clipPath>
</defs>
</svg>
