<svg width="802" height="535" viewBox="0 0 802 535" fill="none" xmlns="http://www.w3.org/2000/svg">
<g clip-path="url(#clip0_20_11252)">
<path vector-effect="non-scaling-stroke" d="M223.431 416.907H261.254V379.084H223.431V416.907Z" stroke="white" stroke-width="1.37538" stroke-miterlimit="10"/>
<path vector-effect="non-scaling-stroke" d="M299.063 492.54H336.887V454.717H299.063V492.54Z" stroke="white" stroke-width="1.37538" stroke-miterlimit="10"/>
<path vector-effect="non-scaling-stroke" d="M261.254 492.54H299.077V454.717H261.254V492.54Z" fill="#232323"/>
<path vector-effect="non-scaling-stroke" d="M299.063 454.716H336.887V416.893H299.063V454.716Z" fill="#232323"/>
<path vector-effect="non-scaling-stroke" d="M261.254 492.54H299.077V454.717H261.254V492.54Z" stroke="white" stroke-width="1.37538" stroke-miterlimit="10"/>
<path vector-effect="non-scaling-stroke" d="M299.063 454.716H336.887V416.893H299.063V454.716Z" stroke="white" stroke-width="1.37538" stroke-miterlimit="10"/>
<path vector-effect="non-scaling-stroke" d="M336.886 454.716H374.709V416.893H336.886V454.716Z" stroke="white" stroke-width="1.37538" stroke-miterlimit="10"/>
<path vector-effect="non-scaling-stroke" d="M261.254 454.716H299.077V416.893H261.254V454.716Z" stroke="white" stroke-width="1.37538" stroke-miterlimit="10"/>
<mask id="mask0_20_11252" style="mask-type:luminance" maskUnits="userSpaceOnUse" x="48" y="33" width="708" height="488">
<path vector-effect="non-scaling-stroke" d="M534.35 33.7246H755.361L755.333 133.784C755.333 143.989 733.836 143.989 733.836 154.194C733.836 164.4 755.333 164.4 755.333 174.605C755.333 184.81 733.836 184.81 733.836 195.002C733.836 205.194 755.333 205.207 755.333 215.413C755.333 225.618 733.836 225.618 733.836 235.81L733.121 479.129C733.052 502.166 714.36 520.803 691.323 520.803H70.5434C58.1787 520.803 48.1522 510.776 48.1522 498.412V69.6496C48.1522 49.8166 64.2304 33.7384 84.0634 33.7384H273.825" fill="white"/>
</mask>
<g mask="url(#mask0_20_11252)">
<path vector-effect="non-scaling-stroke" d="M767.052 52.0864L558.612 262.396C550.154 271.02 538.848 275.82 526.8 275.903L393.704 277.278H290.412C281.761 277.278 273.33 278.97 265.339 282.298C257.362 285.627 250.196 290.44 244.076 296.602L29.2958 512.097H57.725L258.517 311.126C267.031 302.544 278.364 297.826 290.412 297.826H438.665C440.109 297.826 441.471 297.524 442.709 296.987L526.91 296.465C535.561 296.41 543.978 294.663 551.955 291.279C559.919 287.896 567.043 283.041 573.123 276.852L795.453 51.9214L767.024 52.1002L767.052 52.0864Z" fill="#232323" stroke="white" stroke-width="1.37538" stroke-linejoin="round"/>
<path vector-effect="non-scaling-stroke" d="M510.019 258.627L476.047 258.833L476.158 275.847L510.129 275.64L510.019 258.627Z" fill="#A100FF" stroke="white" stroke-width="1.37538" stroke-linejoin="round"/>
<path vector-effect="non-scaling-stroke" d="M592.845 204.038L568.969 228.217L581.072 240.169L604.949 215.99L592.845 204.038Z" fill="#A100FF" stroke="white" stroke-width="1.37538" stroke-linejoin="round"/>
<path vector-effect="non-scaling-stroke" d="M679.811 115.271L655.934 139.45L668.038 151.402L691.914 127.223L679.811 115.271Z" fill="#A100FF" stroke="white" stroke-width="1.37538" stroke-linejoin="round"/>
<path vector-effect="non-scaling-stroke" d="M757.286 37.7954L733.41 61.9747L745.513 73.9267L769.39 49.7475L757.286 37.7954Z" fill="#A100FF" stroke="white" stroke-width="1.37538" stroke-linejoin="round"/>
<path vector-effect="non-scaling-stroke" d="M220.391 296.698L196.267 320.781L208.178 332.857L232.302 308.774L220.391 296.698Z" fill="#050505" stroke="white" stroke-width="1.37538" stroke-linejoin="round"/>
</g>
<path vector-effect="non-scaling-stroke" d="M534.35 33.7246H755.361L755.333 133.784C755.333 143.989 733.836 143.989 733.836 154.194C733.836 164.4 755.333 164.4 755.333 174.605C755.333 184.81 733.836 184.81 733.836 195.002C733.836 205.194 755.333 205.207 755.333 215.413C755.333 225.618 733.836 225.618 733.836 235.81L733.121 479.129C733.052 502.166 714.36 520.803 691.323 520.803H70.5434C58.1787 520.803 48.1522 510.776 48.1522 498.412V69.6496C48.1522 49.8166 64.2304 33.7384 84.0634 33.7384H273.825" stroke="white" stroke-width="1.37538" stroke-miterlimit="10"/>
<path vector-effect="non-scaling-stroke" d="M404.005 6.23096C417.058 6.23096 417.058 33.7386 430.097 33.7386C443.149 33.7386 443.149 6.23096 456.201 6.23096C469.254 6.23096 469.254 33.7386 482.292 33.7386C495.331 33.7386 495.345 6.23096 508.411 6.23096C521.463 6.23096 521.463 33.7386 534.529 33.7386" stroke="white" stroke-width="1.37538" stroke-linecap="round" stroke-linejoin="round"/>
<path vector-effect="non-scaling-stroke" d="M404.404 6.23096C391.352 6.23096 391.352 33.7386 378.313 33.7386C365.261 33.7386 365.261 6.23096 352.208 6.23096C339.156 6.23096 339.156 33.7386 326.117 33.7386C313.065 33.7386 313.065 6.23096 299.999 6.23096C286.946 6.23096 286.946 33.7386 273.88 33.7386" stroke="white" stroke-width="1.37538" stroke-linecap="round" stroke-linejoin="round"/>
<path vector-effect="non-scaling-stroke" d="M534.35 33.7246H755.306C755.306 33.7246 755.374 33.7521 755.374 33.7934L755.347 133.784C755.347 143.989 733.85 143.989 733.85 154.194C733.85 164.4 755.347 164.4 755.347 174.605C755.347 184.81 733.85 184.81 733.85 195.002C733.85 205.194 755.347 205.207 755.347 215.413C755.347 225.618 733.85 225.618 733.85 235.81L733.134 479.06C733.066 502.125 714.347 520.803 691.268 520.803H70.6122C58.2062 520.803 48.1522 510.749 48.1522 498.343V69.7046C48.1522 49.8303 64.2579 33.7246 84.1322 33.7246H273.825" stroke="white" stroke-width="1.37538" stroke-linecap="round" stroke-linejoin="round"/>
<path vector-effect="non-scaling-stroke" d="M442.599 482.692C442.599 483.834 443.63 484.755 444.923 484.755H449.558C450.837 484.755 451.869 483.834 451.869 482.692V468.759C451.869 467.618 450.837 466.696 449.558 466.696H444.923C443.644 466.696 442.599 467.618 442.599 468.759V482.692Z" fill="#232323" stroke="white" stroke-width="1.37538" stroke-miterlimit="10"/>
<path vector-effect="non-scaling-stroke" d="M765.484 441.884H683.47V488.193H765.484V441.884Z" fill="#232323" stroke="white" stroke-width="1.37538" stroke-miterlimit="10"/>
<path vector-effect="non-scaling-stroke" d="M801.299 484.919C801.299 484.919 800.556 419.74 798.576 407.912L753.931 344.218C749.351 337.685 741.924 333.723 733.946 333.586C715.241 333.256 682.452 332.706 682.259 332.898V407.623C682.397 421.542 682.438 435.846 682.259 448.403V445.336H446.835L446.986 487.464H703.99V484.961L763.063 485.057L801.299 484.906V484.919Z" fill="#232323" stroke="white" stroke-width="1.37538" stroke-miterlimit="10"/>
<path vector-effect="non-scaling-stroke" d="M801.299 484.92V494.891C801.299 497.766 798.975 500.09 796.1 500.09H481.371C481.371 500.09 476.406 500.943 476.791 496.267C477.176 491.591 476.144 488.62 476.144 488.62L801.285 484.92H801.299Z" fill="#232323" stroke="white" stroke-width="1.37538" stroke-miterlimit="10"/>
<path vector-effect="non-scaling-stroke" d="M598.636 504.135C598.636 505.208 599.502 506.074 600.562 506.074H647.572C648.645 506.074 649.498 505.208 649.498 504.135V480.946C649.498 479.887 648.645 479.007 647.572 479.007H600.562C599.502 479.007 598.636 479.873 598.636 480.946V504.135Z" fill="#232323" stroke="white" stroke-width="1.37538" stroke-miterlimit="10"/>
<path vector-effect="non-scaling-stroke" d="M740.617 348.812H692.602V412.479H785.372C788.645 412.479 790.763 410.113 789.319 408.092L749.804 352.76C748.085 350.339 744.509 348.812 740.603 348.812H740.617Z" fill="#232323" stroke="white" stroke-width="1.37538" stroke-miterlimit="10"/>
<path vector-effect="non-scaling-stroke" d="M692.836 427.732C692.836 430.235 696.591 432.271 701.24 432.271C705.889 432.271 709.644 430.235 709.644 427.732C709.644 425.229 705.875 423.193 701.24 423.193C696.605 423.193 692.836 425.229 692.836 427.732Z" fill="#232323" stroke="white" stroke-width="1.37538" stroke-miterlimit="10"/>
<path vector-effect="non-scaling-stroke" d="M768.345 447.661C768.345 448.239 768.812 448.707 769.39 448.707H775.978C776.556 448.707 777.024 448.239 777.024 447.661V444.539C777.024 443.962 776.556 443.508 775.978 443.508H769.39C768.812 443.508 768.345 443.975 768.345 444.539V447.661Z" fill="#232323" stroke="white" stroke-width="1.37538" stroke-miterlimit="10"/>
<path vector-effect="non-scaling-stroke" d="M556.701 454.731L682.383 454.469V256.263H444.634V454.731H497.587" fill="#232323"/>
<path vector-effect="non-scaling-stroke" d="M556.701 454.731L682.383 454.469V256.263H444.634V454.731H497.587" stroke="white" stroke-width="1.37538" stroke-miterlimit="10"/>
<path vector-effect="non-scaling-stroke" d="M660.515 394.599H616.943V430.345H660.515V394.599Z" fill="#A100FF" stroke="white" stroke-width="1.37538" stroke-linejoin="round"/>
<path vector-effect="non-scaling-stroke" d="M789.333 408.091C785.138 402.218 776.666 390.362 772.457 384.462C772.388 388.602 770.697 403.016 750.547 408.022C747.893 408.449 701.46 408.242 697.237 408.284L695.009 398.285H692.602V412.478H785.372C788.645 412.478 790.763 410.113 789.319 408.091H789.333Z" fill="#232323" stroke="white" stroke-width="1.37538" stroke-miterlimit="10"/>
<path vector-effect="non-scaling-stroke" d="M800.872 457.604C800.35 457.59 799.841 457.562 799.305 457.562C787.93 457.562 778.701 461.62 778.701 466.626C778.701 471.633 787.916 475.69 799.305 475.69C799.951 475.69 800.57 475.676 801.203 475.649C801.134 471.138 801.024 464.659 800.872 457.604Z" fill="#232323" stroke="white" stroke-width="1.37538" stroke-miterlimit="10"/>
<path vector-effect="non-scaling-stroke" d="M721.513 524.546C741.976 524.546 758.566 507.957 758.566 487.493C758.566 467.03 741.976 450.44 721.513 450.44C701.049 450.44 684.46 467.03 684.46 487.493C684.46 507.957 701.049 524.546 721.513 524.546Z" fill="#020202" stroke="white" stroke-width="1.37538" stroke-miterlimit="10"/>
<path vector-effect="non-scaling-stroke" d="M721.513 507.174C732.383 507.174 741.195 498.362 741.195 487.492C741.195 476.622 732.383 467.811 721.513 467.811C710.643 467.811 701.831 476.622 701.831 487.492C701.831 498.362 710.643 507.174 721.513 507.174Z" fill="#232323" stroke="white" stroke-width="1.37538" stroke-miterlimit="10"/>
<path vector-effect="non-scaling-stroke" d="M763.393 481.757C762.375 481.757 761.481 481.028 761.33 480.01C758.51 461.016 741.304 446.698 721.293 446.698C701.281 446.698 685.505 459.75 681.682 477.727C681.448 478.827 680.347 479.528 679.22 479.308C678.092 479.075 677.363 478.002 677.597 476.901C681.819 457.041 700.208 442.627 721.306 442.627C742.405 442.627 762.362 458.444 765.47 479.418C765.635 480.533 764.851 481.564 763.709 481.715C763.599 481.715 763.503 481.743 763.407 481.743L763.393 481.757Z" fill="#232323" stroke="white" stroke-width="1.37538" stroke-miterlimit="10"/>
<path vector-effect="non-scaling-stroke" d="M525.617 524.546C546.081 524.546 562.67 507.957 562.67 487.493C562.67 467.03 546.081 450.44 525.617 450.44C505.153 450.44 488.564 467.03 488.564 487.493C488.564 507.957 505.153 524.546 525.617 524.546Z" fill="#020202" stroke="white" stroke-width="1.37538" stroke-miterlimit="10"/>
<path vector-effect="non-scaling-stroke" d="M525.617 507.174C536.487 507.174 545.299 498.362 545.299 487.492C545.299 476.622 536.487 467.811 525.617 467.811C514.747 467.811 505.935 476.622 505.935 487.492C505.935 498.362 514.747 507.174 525.617 507.174Z" fill="#232323" stroke="white" stroke-width="1.37538" stroke-miterlimit="10"/>
<path vector-effect="non-scaling-stroke" d="M567.497 481.757C566.479 481.757 565.585 481.028 565.434 480.01C562.615 461.016 545.409 446.698 525.397 446.698C505.385 446.698 489.609 459.75 485.786 477.727C485.552 478.827 484.452 479.528 483.324 479.308C482.196 479.075 481.467 478.002 481.701 476.901C485.923 457.041 504.312 442.627 525.411 442.627C546.509 442.627 566.466 458.444 569.574 479.418C569.739 480.533 568.955 481.564 567.814 481.715C567.704 481.715 567.607 481.743 567.511 481.743L567.497 481.757Z" fill="#232323" stroke="white" stroke-width="1.37538" stroke-miterlimit="10"/>
<path vector-effect="non-scaling-stroke" d="M747.48 392.865H746.875C744.847 392.865 743.203 394.509 743.203 396.537V400.292C743.203 402.32 744.847 403.965 746.875 403.965H747.48C749.508 403.965 751.152 402.32 751.152 400.292V396.537C751.152 394.509 749.508 392.865 747.48 392.865Z" fill="#232323" stroke="white" stroke-width="1.37538" stroke-miterlimit="10"/>
<path vector-effect="non-scaling-stroke" d="M716.671 376.843L716.424 372.153C716.424 372.153 721.21 374.67 723.012 372.69C724.277 371.3 723.534 369.334 722.819 366.899L723.039 366.94C723.589 367.037 723.988 366.418 723.686 365.95C723.191 365.194 722.572 364.437 722.118 363.901C722.104 363.791 722.09 363.667 722.077 363.543C721.595 359.555 717.607 358.166 715.585 357.89C713.563 357.615 710.702 357.093 708.763 359.458C706.782 361.852 709.808 365.441 709.877 371.232C709.891 372.428 709.616 374.175 708.405 376.637L716.685 376.843H716.671Z" fill="#232323" stroke="white" stroke-width="1.37538" stroke-miterlimit="10"/>
<path vector-effect="non-scaling-stroke" d="M720.192 359.554C718.377 357.917 716.011 357.504 715.323 357.408L715.021 357.367C712.944 357.092 710.083 356.707 708.116 359.072C706.906 360.516 707.429 362.387 708.089 364.739C708.446 366.032 708.859 367.49 709.065 369.14V369.25L709.189 369.236C709.437 369.209 709.67 369.168 709.89 369.113C714.622 367.957 715.557 362.057 715.653 361.245C718.487 361.067 720.165 359.719 720.178 359.705L720.275 359.622L720.178 359.54L720.192 359.554Z" fill="#A0A09E" stroke="white" stroke-width="1.37538" stroke-miterlimit="10"/>
<path vector-effect="non-scaling-stroke" d="M723.177 368.232C721.293 368.686 719.326 367.765 719.312 367.751" stroke="white" stroke-width="1.37538" stroke-miterlimit="10"/>
<path vector-effect="non-scaling-stroke" d="M744.317 393.677L730.068 393.938C726.464 394.337 723.122 391.999 722.283 388.478L720.99 383.114C720.234 381.436 719.931 379.579 718.803 378.052C715.434 373.472 708.268 373.94 705.421 378.795C702.216 383.375 696.508 405.904 693.414 412.423L720.275 412.465L720.509 406.124L745.211 405.024L744.317 393.663V393.677Z" fill="#020202" stroke="white" stroke-width="1.37538" stroke-miterlimit="10"/>
<path vector-effect="non-scaling-stroke" d="M715.612 365.469C715.612 365.469 714.292 363.929 713.123 364.864C711.638 366.033 713.082 367.89 713.838 368.123" fill="#232323"/>
<path vector-effect="non-scaling-stroke" d="M715.612 365.469C715.612 365.469 714.292 363.929 713.123 364.864C711.638 366.033 713.082 367.89 713.838 368.123" stroke="white" stroke-width="1.37538" stroke-miterlimit="10"/>
<path vector-effect="non-scaling-stroke" d="M459.639 352.222L448.292 268.709L416.067 270.717L437.056 352.607L459.639 352.222Z" fill="#232323" stroke="white" stroke-width="1.37538" stroke-miterlimit="10"/>
<path vector-effect="non-scaling-stroke" d="M447.44 363.5C441.017 363.156 436.107 357.572 436.464 351.025C436.822 344.478 442.296 339.458 448.719 339.802C455.128 340.146 460.052 345.73 459.695 352.277C459.337 358.823 453.863 363.857 447.44 363.513V363.5Z" fill="#050505" stroke="white" stroke-width="1.37538" stroke-miterlimit="10"/>
<path vector-effect="non-scaling-stroke" d="M448.141 355.193C446.243 355.097 444.799 353.405 444.895 351.424C445.005 349.444 446.628 347.917 448.526 348.027C450.424 348.137 451.869 349.815 451.772 351.796C451.676 353.776 450.039 355.303 448.141 355.193Z" fill="#232323" stroke="white" stroke-width="1.37538" stroke-miterlimit="10"/>
<path vector-effect="non-scaling-stroke" d="M415.82 370.817L469.075 383.664L462.638 410.332L409.383 397.486L415.82 370.817Z" fill="#A100FF" stroke="white" stroke-width="1.37538" stroke-linejoin="round"/>
<path vector-effect="non-scaling-stroke" d="M313.918 149.545L155.721 219.442L188.662 291.815L329.432 204.533L313.904 149.545H313.918Z" fill="#232323" stroke="white" stroke-width="1.37538" stroke-miterlimit="10"/>
<path vector-effect="non-scaling-stroke" d="M445.693 255.628L339.651 157.165L299.063 194.933L416.15 280.757L445.693 255.628Z" fill="#232323" stroke="white" stroke-width="1.37538" stroke-miterlimit="10"/>
<path vector-effect="non-scaling-stroke" d="M242.59 520.967L213.652 254.156H136.699L132.642 520.967H242.59Z" fill="#232323" stroke="white" stroke-width="1.37538" stroke-miterlimit="10"/>
<path vector-effect="non-scaling-stroke" d="M175.183 294.373C153.919 294.373 136.699 276.37 136.699 254.157C136.699 231.945 153.933 213.941 175.183 213.941C196.418 213.941 213.652 231.945 213.652 254.157C213.652 276.37 196.418 294.373 175.183 294.373Z" fill="#050505" stroke="white" stroke-width="1.37538" stroke-miterlimit="10"/>
<path vector-effect="non-scaling-stroke" d="M175.169 266.357C168.718 266.357 163.478 260.869 163.478 254.116C163.478 247.376 168.705 241.889 175.169 241.889C181.647 241.889 186.873 247.376 186.873 254.116C186.873 260.883 181.647 266.357 175.169 266.357Z" fill="#232323" stroke="white" stroke-width="1.37538" stroke-miterlimit="10"/>
<path vector-effect="non-scaling-stroke" d="M320.244 206.183C304.922 206.183 292.516 193.2 292.516 177.19C292.516 161.167 304.936 148.197 320.244 148.197C335.566 148.197 347.972 161.167 347.972 177.19C347.972 193.214 335.552 206.183 320.244 206.183Z" fill="#050505" stroke="white" stroke-width="1.37538" stroke-miterlimit="10"/>
<path vector-effect="non-scaling-stroke" d="M320.244 185.992C315.582 185.992 311.813 182.045 311.813 177.162C311.813 172.28 315.596 168.333 320.244 168.333C324.907 168.333 328.675 172.28 328.675 177.162C328.675 182.045 324.893 185.992 320.244 185.992Z" fill="#232323" stroke="white" stroke-width="1.37538" stroke-miterlimit="10"/>
<path vector-effect="non-scaling-stroke" d="M442.599 283.124C433.659 289.698 420.84 287.442 413.963 278.09C407.1 268.751 408.778 255.836 417.718 249.275C426.658 242.701 439.477 244.957 446.34 254.296C453.217 263.648 451.539 276.563 442.599 283.137V283.124Z" fill="#050505" stroke="white" stroke-width="1.37538" stroke-miterlimit="10"/>
<path vector-effect="non-scaling-stroke" d="M433.672 270.606C431.045 272.531 427.291 271.885 425.255 269.134C423.247 266.397 423.728 262.601 426.355 260.662C428.982 258.736 432.751 259.396 434.773 262.134C436.794 264.884 436.299 268.667 433.672 270.606Z" fill="#232323" stroke="white" stroke-width="1.37538" stroke-miterlimit="10"/>
<path vector-effect="non-scaling-stroke" d="M407.98 353.652L483.117 372.33Z" fill="white"/>
<path vector-effect="non-scaling-stroke" d="M407.98 353.652L483.117 372.33" stroke="white" stroke-width="1.37538" stroke-miterlimit="10"/>
<path vector-effect="non-scaling-stroke" d="M483.09 372.33C491.067 374.283 495.95 382.329 494.01 390.306C492.057 398.284 484.011 403.166 476.034 401.227" stroke="white" stroke-width="1.37538" stroke-linejoin="round"/>
<path vector-effect="non-scaling-stroke" d="M400.966 382.549C392.988 380.596 388.106 372.55 390.045 364.573C391.998 356.596 400.044 351.713 408.021 353.652" fill="#050505"/>
<path vector-effect="non-scaling-stroke" d="M400.966 382.549C392.988 380.596 388.106 372.55 390.045 364.573C391.998 356.596 400.044 351.713 408.021 353.652" stroke="white" stroke-width="1.37538" stroke-linejoin="round"/>
<path vector-effect="non-scaling-stroke" d="M108.78 501.244L111.489 520.76H84.2427C84.2427 520.76 83.0736 517.418 91.2984 512.068C98.8218 507.185 90.8033 489.869 90.8033 489.869L108.78 501.257V501.244Z" fill="#050505" stroke="white" stroke-width="1.37538" stroke-miterlimit="10"/>
<path vector-effect="non-scaling-stroke" d="M84.243 520.747H111.489L110.692 514.971H87.4751C83.5003 518.588 84.2567 520.747 84.2567 520.747H84.243Z" fill="#050505" stroke="white" stroke-width="1.37538" stroke-miterlimit="10"/>
<path vector-effect="non-scaling-stroke" d="M99.3996 504.021H94.517V503.719H99.3996V504.021ZM94.3382 506.8V507.102H99.2208V506.8H94.3382ZM98.148 509.88H93.2654V510.183H98.148V509.88Z" fill="#050505" stroke="white" stroke-width="1.37538" stroke-miterlimit="10"/>
<path vector-effect="non-scaling-stroke" d="M142.27 501.244L144.98 520.76H117.733C117.733 520.76 116.564 517.418 124.789 512.068C132.312 507.185 124.294 489.869 124.294 489.869L142.27 501.257V501.244Z" fill="#050505" stroke="white" stroke-width="1.37538" stroke-miterlimit="10"/>
<path vector-effect="non-scaling-stroke" d="M117.733 520.747H144.979L144.182 514.971H120.965C116.99 518.588 117.747 520.747 117.747 520.747H117.733Z" fill="#050505" stroke="white" stroke-width="1.37538" stroke-miterlimit="10"/>
<path vector-effect="non-scaling-stroke" d="M132.89 504.021H128.007V503.719H132.89V504.021ZM127.828 506.8V507.102H132.711V506.8H127.828ZM131.638 509.88H126.756V510.183H131.638V509.88Z" fill="#050505" stroke="white" stroke-width="1.37538" stroke-miterlimit="10"/>
<path vector-effect="non-scaling-stroke" d="M65.4094 342.981L65.7599 342.693C66.7924 341.844 66.9409 340.318 66.0916 339.286L57.4591 328.791C56.6098 327.759 55.0843 327.61 54.0518 328.46L53.7013 328.748C52.6688 329.597 52.5203 331.123 53.3696 332.155L62.0022 342.65C62.8515 343.682 64.3769 343.831 65.4094 342.981Z" fill="black" stroke="white" stroke-width="1.37538" stroke-miterlimit="10"/>
<path vector-effect="non-scaling-stroke" d="M68.9758 342.842C68.9758 342.842 69.0859 336.089 65.2073 333.641C65.2073 333.641 62.3052 333.063 64.4233 340.559C64.4233 340.559 56.171 338.097 54.3005 334.288C54.3005 334.288 50.862 338.565 54.2455 342.402C54.2455 342.402 56.061 344.685 64.1758 349.334" fill="#050505"/>
<path vector-effect="non-scaling-stroke" d="M68.9758 342.842C68.9758 342.842 69.0859 336.089 65.2073 333.641C65.2073 333.641 62.3052 333.063 64.4233 340.559C64.4233 340.559 56.171 338.097 54.3005 334.288C54.3005 334.288 50.862 338.565 54.2455 342.402C54.2455 342.402 56.061 344.685 64.1758 349.334" stroke="white" stroke-width="1.37538" stroke-miterlimit="10"/>
<path vector-effect="non-scaling-stroke" d="M57.7665 341.192C57.7665 341.192 53.3515 338.977 53.0076 336.859Z" fill="white"/>
<path vector-effect="non-scaling-stroke" d="M57.7665 341.192C57.7665 341.192 53.3515 338.977 53.0076 336.859" stroke="white" stroke-width="1.37538" stroke-miterlimit="10"/>
<path vector-effect="non-scaling-stroke" d="M82.4269 304.344C82.4269 304.344 69.9934 293.74 68.8381 294.896C66.8025 296.931 73.088 301.291 73.088 301.291C73.088 301.291 68.7418 306.586 70.1309 307.81C71.5201 309.048 77.1041 311.62 77.1041 311.62L82.4269 304.344Z" fill="#050505" stroke="white" stroke-width="1.37538" stroke-miterlimit="10"/>
<path vector-effect="non-scaling-stroke" d="M107.651 318.029L82.9496 302.46L75.9214 313.381L99.0003 330.023L107.651 318.029Z" fill="#404040" stroke="white" stroke-width="1.37538" stroke-miterlimit="10"/>
<path vector-effect="non-scaling-stroke" d="M111.709 385.189L118.187 446.545L122.973 506.072L146.038 505.893L141.582 444.248L139.203 385.189H111.709Z" fill="#050505" stroke="white" stroke-width="1.37538" stroke-miterlimit="10"/>
<path vector-effect="non-scaling-stroke" d="M96.9507 385.189L89.4686 446.834V506.182L112.85 506.072L113.056 448.65L123.454 385.189H96.9507Z" fill="#050505" stroke="white" stroke-width="1.37538" stroke-miterlimit="10"/>
<path vector-effect="non-scaling-stroke" d="M120.923 314.66L120.084 308.622L112.039 309.447L112.025 309.97V286.203H109.315V332.471H112.025V314.564L120.923 314.66Z" fill="#050505" stroke="white" stroke-width="1.37538" stroke-miterlimit="10"/>
<path vector-effect="non-scaling-stroke" d="M95.603 338.948C95.658 343.611 95.7267 348.659 95.8093 353.72C96.0293 366.318 96.3181 378.862 96.4557 385.051C96.4557 385.478 96.4694 385.863 96.4832 386.22C96.4832 386.592 96.4969 386.935 96.5107 387.238C96.5382 388.38 96.552 389.012 96.552 389.012C96.552 389.012 110.237 394.39 127.017 391.667C137.855 389.906 139.203 386.592 139.203 386.592C139.203 386.592 139.203 386.358 139.23 385.931C139.23 385.711 139.244 385.436 139.258 385.12C139.423 379.783 139.904 360.954 139.299 345.316C138.983 336.954 138.35 329.513 137.181 325.525C135.462 319.638 131.5 317.217 127.539 316.007C124.857 315.195 122.175 314.934 120.195 314.535C120.14 314.535 120.099 314.522 120.044 314.508C114.982 313.517 109.976 314.535 105.85 317.011C104.392 317.877 103.044 318.937 101.847 320.147C99.3165 322.705 97.4322 325.965 96.552 329.692C95.9193 332.333 95.5617 335.4 95.603 338.962V338.948Z" fill="#404040" stroke="white" stroke-width="1.37538" stroke-miterlimit="10"/>
<path vector-effect="non-scaling-stroke" d="M103.649 291.855C103.649 291.855 100.265 318.07 117.128 310.588C122.079 308.731 124.101 301.621 124.101 301.621L122.877 297.632C122.877 297.632 124.789 284.071 115.752 284.222C103.924 284.415 103.649 291.855 103.649 291.855Z" fill="#050505" stroke="white" stroke-width="1.37538" stroke-miterlimit="10"/>
<path vector-effect="non-scaling-stroke" d="M105.85 293.424L108.766 298.54C108.766 298.54 110.677 296.477 111.64 297.385C112.603 298.293 111.736 303.038 109.398 302.268C109.398 302.268 109.219 306.958 110.732 308.044C112.231 309.131 118.71 309.653 121.914 307.962C126.549 305.5 128.791 297.715 125.848 290.866C121.79 281.389 106.111 278.46 102.494 283.549C97.9825 289.889 105.863 293.424 105.863 293.424H105.85Z" fill="#050505" stroke="white" stroke-width="1.37538" stroke-miterlimit="10"/>
<path vector-effect="non-scaling-stroke" d="M123.689 315.114L123.358 312.418C123.358 312.418 112.094 313.326 108.779 313.051L109.33 315.348C110.925 315.843 114.625 315.898 117.389 315.925C119.975 315.953 122.134 315.54 123.689 315.127V315.114Z" fill="#050505" stroke="white" stroke-width="1.37538" stroke-miterlimit="10"/>
<path vector-effect="non-scaling-stroke" d="M99.234 323.038C95.6029 329.901 94.5164 331.235 83.5683 348.579L70.5159 340.12L62.2086 351.11C62.2086 351.11 74.6421 365.056 84.5724 365.056C88.4509 365.056 92.2195 362.003 95.5067 357.959C99.3852 353.186 110.677 342.72 116.234 337.383C122.629 331.249 110.457 314.125 99.234 323.038Z" fill="#404040" stroke="white" stroke-width="1.37538" stroke-miterlimit="10"/>
<path vector-effect="non-scaling-stroke" d="M96.428 386.222V387.24C96.428 387.24 96.4143 389.221 96.428 389.234C96.8819 389.399 105.767 392.907 122.56 392.453C130.428 392.233 135.847 390.899 139.175 388.822C139.202 390.596 139.189 385.466 139.202 385.149L139.134 385.218C138.143 385.424 125.38 392.384 96.428 386.25V386.222Z" fill="#050505" stroke="white" stroke-width="1.37538" stroke-miterlimit="10"/>
<path vector-effect="non-scaling-stroke" d="M45.2093 293.794C44.2052 296.504 41.2069 297.893 38.4974 296.889C35.7879 295.885 34.3987 292.887 35.4028 290.177C36.4068 287.468 39.4051 286.078 42.1146 287.082C44.8241 288.086 46.2133 291.085 45.2093 293.794Z" stroke="white" stroke-width="1.37538" stroke-linecap="round" stroke-linejoin="round"/>
<path vector-effect="non-scaling-stroke" d="M61.6452 286.519C61.6452 289.408 59.307 291.746 56.4187 291.746C53.5304 291.746 51.1923 289.408 51.1923 286.519C51.1923 283.631 53.5304 281.293 56.4187 281.293C59.307 281.293 61.6452 283.631 61.6452 286.519Z" stroke="white" stroke-width="1.37538" stroke-linecap="round" stroke-linejoin="round"/>
<path vector-effect="non-scaling-stroke" d="M79.2499 283.725C79.2499 286.614 76.9118 288.952 74.0235 288.952C71.1351 288.952 68.797 286.614 68.797 283.725C68.797 280.837 71.1351 278.499 74.0235 278.499C76.9118 278.499 79.2499 280.837 79.2499 283.725Z" stroke="white" stroke-width="1.37538" stroke-linecap="round" stroke-linejoin="round"/>
<path vector-effect="non-scaling-stroke" d="M32.5693 343.073C36.2554 341.505 40.2165 340.047 44.4114 338.713" stroke="white" stroke-width="1.37538" stroke-linejoin="round"/>
<path vector-effect="non-scaling-stroke" d="M7.06964 359.949C10.962 355.41 16.5323 351.201 23.4642 347.433" stroke="white" stroke-width="1.37538" stroke-linejoin="round"/>
<path vector-effect="non-scaling-stroke" d="M59.8984 270.783C68.6733 268.816 78.1497 267.317 88.135 266.354V301.11" stroke="white" stroke-width="1.37538" stroke-linejoin="round"/>
<path vector-effect="non-scaling-stroke" d="M0.688049 311.551V375.313C0.688049 400.978 51.6735 421.774 114.556 421.774C140.193 421.774 163.85 418.308 174.578 415.461V351.698C163.85 354.559 140.193 358.011 114.556 358.011C81.9182 358.011 52.485 352.413 31.7305 343.432C12.4751 335.111 0.688049 323.888 0.688049 311.551ZM0.688049 311.551C0.688049 300.231 11.0172 279.999 59.8983 270.784" stroke="white" stroke-width="1.37538" stroke-linejoin="round"/>
<path vector-effect="non-scaling-stroke" d="M89.8401 67.4072H79.3184V121.446H89.8401V67.4072Z" fill="#232323" stroke="white" stroke-width="1.37538" stroke-miterlimit="10"/>
<path vector-effect="non-scaling-stroke" d="M137.565 84.9712H27.3147V182.541H137.565V84.9712Z" fill="#232323" stroke="white" stroke-width="1.37538" stroke-miterlimit="10"/>
<path vector-effect="non-scaling-stroke" d="M137.565 181.703H27.3147V182.555H137.565V181.703Z" fill="#232323" stroke="white" stroke-width="1.37538" stroke-miterlimit="10"/>
<g style="mix-blend-mode:multiply">
<path vector-effect="non-scaling-stroke" d="M82.853 90.3633H82.2891V175.252H82.853V90.3633Z" fill="#232323"/>
<path vector-effect="non-scaling-stroke" d="M82.853 90.3633H82.2891V175.252H82.853V90.3633Z" stroke="white" stroke-width="1.37538" stroke-miterlimit="10"/>
</g>
<path vector-effect="non-scaling-stroke" d="M81.3126 175.251H82.2891L82.2891 90.3628H81.3126L81.3126 175.251Z" fill="#232323" stroke="white" stroke-width="1.37538" stroke-miterlimit="10"/>
<g style="mix-blend-mode:multiply">
<path vector-effect="non-scaling-stroke" d="M94.9425 84.9307H75.2195V182.583H94.9425V84.9307Z" fill="#232323"/>
<path vector-effect="non-scaling-stroke" d="M94.9425 84.9307H75.2195V182.583H94.9425V84.9307Z" stroke="white" stroke-width="1.37538" stroke-miterlimit="10"/>
</g>
<path vector-effect="non-scaling-stroke" d="M94.915 84.9307H76.0173V181.978H94.915V84.9307Z" fill="#232323" stroke="white" stroke-width="1.37538" stroke-miterlimit="10"/>
<path vector-effect="non-scaling-stroke" d="M33.0093 189.432H16.3396V199.156H33.0093V189.432Z" fill="#232323" stroke="white" stroke-width="1.37538" stroke-miterlimit="10"/>
<path vector-effect="non-scaling-stroke" d="M147.991 189.432H131.335V199.156H147.991V189.432Z" fill="#232323" stroke="white" stroke-width="1.37538" stroke-miterlimit="10"/>
<path vector-effect="non-scaling-stroke" d="M147.991 182.211H16.3396V191.66H147.991V182.211Z" fill="#232323" stroke="white" stroke-width="1.37538" stroke-miterlimit="10"/>
<path vector-effect="non-scaling-stroke" d="M112.974 41.661C112.974 57.3542 100.252 70.0765 84.5723 70.0765C68.8929 70.0765 56.1569 57.3542 56.1569 41.661C56.1569 25.9679 68.8792 13.2456 84.5723 13.2456C100.265 13.2456 112.974 25.9679 112.974 41.661Z" fill="#232323" stroke="white" stroke-width="1.37538" stroke-miterlimit="10"/>
<path vector-effect="non-scaling-stroke" d="M106.303 41.7701C106.303 53.6397 96.6894 63.2536 84.8198 63.2536C72.9502 63.2536 63.3363 53.6397 63.3363 41.7701C63.3363 29.9006 72.964 20.2866 84.8198 20.2866C96.6756 20.2866 106.303 29.9143 106.303 41.7701Z" fill="#232323" stroke="white" stroke-width="1.37538" stroke-miterlimit="10"/>
<path vector-effect="non-scaling-stroke" d="M99.4815 33.2573L93.1272 38.9927L89.2762 42.4586C87.9833 43.6277 85.934 43.3114 85.04 41.8122C84.146 40.313 84.8612 38.3738 86.5116 37.7961L91.408 36.0906L99.4815 33.2711V33.2573Z" fill="#232323" stroke="white" stroke-width="1.37538" stroke-miterlimit="10"/>
<path vector-effect="non-scaling-stroke" d="M86.1127 23.3822C86.1127 24.0974 85.535 24.6888 84.8198 24.6888C84.1046 24.6888 83.527 24.1112 83.527 23.3822C83.527 22.6533 84.1046 22.0894 84.8198 22.0894C85.535 22.0894 86.1127 22.667 86.1127 23.3822Z" fill="#232323" stroke="white" stroke-width="1.37538" stroke-miterlimit="10"/>
<path vector-effect="non-scaling-stroke" d="M86.1126 60.1596C86.1126 60.8748 85.535 61.4525 84.8198 61.4525C84.1046 61.4525 83.5269 60.8748 83.5269 60.1596C83.5269 59.4444 84.1046 58.853 84.8198 58.853C85.535 58.853 86.1126 59.4444 86.1126 60.1596Z" fill="#232323" stroke="white" stroke-width="1.37538" stroke-miterlimit="10"/>
<path vector-effect="non-scaling-stroke" d="M72.73 27.8519C73.2389 28.3608 73.2389 29.186 72.73 29.6811C72.2211 30.19 71.3959 30.19 70.887 29.6811C70.3781 29.1723 70.3781 28.347 70.887 27.8519C71.3959 27.343 72.2211 27.343 72.73 27.8519Z" fill="#232323" stroke="white" stroke-width="1.37538" stroke-miterlimit="10"/>
<path vector-effect="non-scaling-stroke" d="M98.7384 53.847C99.2473 54.3559 99.2473 55.1811 98.7384 55.6763C98.2295 56.1852 97.4043 56.1852 96.9091 55.6763C96.4002 55.1674 96.4002 54.3421 96.9091 53.847C97.418 53.3381 98.2433 53.3381 98.7384 53.847Z" fill="#232323" stroke="white" stroke-width="1.37538" stroke-miterlimit="10"/>
<path vector-effect="non-scaling-stroke" d="M66.4308 40.478C67.146 40.478 67.7237 41.0557 67.7237 41.7709C67.7237 42.4861 67.146 43.0637 66.4308 43.0637C65.7156 43.0637 65.1379 42.4861 65.1379 41.7709C65.1379 41.0557 65.7156 40.478 66.4308 40.478Z" fill="#232323" stroke="white" stroke-width="1.37538" stroke-miterlimit="10"/>
<path vector-effect="non-scaling-stroke" d="M103.195 40.478C103.91 40.478 104.488 41.0557 104.488 41.7709C104.488 42.4861 103.91 43.0637 103.195 43.0637C102.48 43.0637 101.902 42.4861 101.902 41.7709C101.902 41.0557 102.493 40.478 103.195 40.478Z" fill="#232323" stroke="white" stroke-width="1.37538" stroke-miterlimit="10"/>
<path vector-effect="non-scaling-stroke" d="M70.9009 53.847C71.4098 53.3381 72.235 53.3381 72.7439 53.847C73.2528 54.3559 73.2528 55.1811 72.7439 55.6763C72.235 56.1852 71.4098 56.1852 70.9009 55.6763C70.392 55.1674 70.392 54.3421 70.9009 53.847Z" fill="#232323" stroke="white" stroke-width="1.37538" stroke-miterlimit="10"/>
<path vector-effect="non-scaling-stroke" d="M96.8955 27.8519C97.4044 27.343 98.2296 27.343 98.7247 27.8519C99.2336 28.3608 99.2336 29.186 98.7247 29.6811C98.2158 30.19 97.3906 30.19 96.8955 29.6811C96.3866 29.1723 96.3866 28.347 96.8955 27.8519Z" fill="#232323" stroke="white" stroke-width="1.37538" stroke-miterlimit="10"/>
<path vector-effect="non-scaling-stroke" d="M591.085 108.339C591.085 129.314 585.088 148.886 574.718 165.431C555.683 195.8 521.917 215.991 483.434 215.991C423.976 215.991 375.782 167.797 375.782 108.339C375.782 70.2274 395.588 36.7505 425.461 17.619C431.733 13.6028 438.459 10.2194 445.528 7.55115C457.315 3.10866 470.092 0.687988 483.434 0.687988C494.904 0.687988 505.962 2.47599 516.333 5.80442C539.425 13.204 559.121 28.1957 572.49 47.8224C573.934 49.9405 575.309 52.1273 576.602 54.3555C585.817 70.2274 591.099 88.6575 591.099 108.339H591.085Z" fill="#050505" stroke="white" stroke-width="1.37538" stroke-miterlimit="10"/>
<path vector-effect="non-scaling-stroke" d="M505.179 170.974C486.941 196.748 481 188.015 475.842 193.379C470.684 198.729 473.242 211.644 468.511 210.227C459.516 207.531 455.032 200.71 454.84 188.427C454.647 176.131 457.811 171.386 450.48 167.219C443.149 163.052 429.863 146.011 430.66 139.67C431.458 133.33 436.602 134.113 437.592 128.97C438.583 123.812 441.361 118.668 435.406 120.25C429.464 121.831 424.306 115.697 423.509 110.938C422.711 106.179 418.158 108.751 415.586 105.382C413.014 102.012 397.94 97.0607 399.536 91.1052C401.117 85.1636 394.777 51.4667 401.324 47.093C407.87 42.733 423.729 26.2834 425.503 19.9292C425.723 19.1314 425.695 18.3612 425.475 17.6323C431.747 13.6161 438.473 10.2327 445.542 7.56445C445.666 8.99485 445.68 10.2602 445.528 11.2092C444.731 15.968 461.387 10.8104 465.953 14.9778C470.505 19.1452 472.692 22.9 471.702 27.2737C470.712 31.6337 457.027 16.5732 444.937 30.2445C432.847 43.9158 458.608 28.6628 466.737 31.8262C474.865 35.0034 480.023 42.3341 477.836 45.8964C475.663 49.4586 463.367 45.0987 463.56 49.8575C463.752 54.6163 452.061 62.5385 448.293 63.9277C444.524 65.3168 435.612 76.4162 439.367 86.3327C439.367 86.3327 435.007 91.0915 431.83 76.6225C431.83 76.6225 414.252 70.3094 411.804 85.7413C409.356 101.173 419.341 89.7024 423.495 91.6829C427.662 93.6635 420.125 100.403 422.697 101.792C425.269 103.181 430.028 101.792 430.028 105.561C430.028 109.329 437.166 117.251 442.915 115.477C448.664 113.689 459.172 115.284 463.532 117.664C467.892 120.043 484.149 139.464 494.258 140.261C504.367 141.059 523.403 145.213 505.165 170.988L505.179 170.974Z" fill="#232323" stroke="white" stroke-width="1.37538" stroke-miterlimit="10"/>
<path vector-effect="non-scaling-stroke" d="M430.179 91.697C430.179 91.697 431.706 95.1354 439.724 97.5423C447.743 99.963 449.008 104.914 453.588 103.525C458.168 102.122 437.304 87.6258 430.179 91.697Z" fill="#232323" stroke="white" stroke-width="1.37538" stroke-miterlimit="10"/>
<path vector-effect="non-scaling-stroke" d="M488.633 32.9818C488.633 32.9818 478.455 28.0992 478.716 22.5426C478.978 16.9861 476.337 15.1431 473.696 14.4829C471.056 13.8227 479.775 4.70389 489.156 7.48217C498.536 10.2604 503.033 16.9998 496.954 23.079C490.875 29.1582 490.022 33.7245 488.633 32.9955V32.9818Z" fill="#232323" stroke="white" stroke-width="1.37538" stroke-miterlimit="10"/>
<path vector-effect="non-scaling-stroke" d="M572.49 47.8362C572.49 47.8362 572.449 47.8638 572.435 47.8775C566.906 51.8249 565.916 48.4689 560.387 44.1227C554.857 39.7765 552.286 48.0701 551.694 55.1808C551.103 62.2915 542.809 61.5076 536.675 54.1905C530.554 46.8872 537.858 50.8346 541.214 49.2529C544.57 47.6712 538.257 43.325 535.877 40.9593C533.512 38.5937 524.021 39.3776 521.257 33.0646C518.492 26.7516 527.185 30.0938 532.315 34.2475C537.445 38.4011 538.05 31.0841 536.262 29.1173C534.488 27.1367 532.7 28.127 528.354 26.3528C524.008 24.5785 525.782 20.026 519.854 17.4678C515.577 15.611 515.824 9.22923 516.292 5.83203C539.384 13.2316 559.08 28.2233 572.449 47.85L572.49 47.8362Z" fill="#232323" stroke="white" stroke-width="1.37538" stroke-miterlimit="10"/>
<path vector-effect="non-scaling-stroke" d="M591.085 108.339C591.085 129.314 585.089 148.885 574.718 165.431C574.347 161.965 574.471 157.784 575.942 153.575C579.546 143.205 582.929 138.474 578.198 120.456C573.467 102.425 563.261 121.818 558.145 119.108C552.808 116.275 545.684 112.795 545.491 107.844C545.299 102.893 546.426 98.2576 543.263 90.9955C540.113 83.7335 544.171 79.0022 547.994 73.817C551.832 68.6318 544.845 65.4822 551.378 61.6448C557.911 57.8075 559.947 52.6361 565.352 56.6935C568.983 59.4167 573.109 58.4815 576.602 54.3828C585.818 70.2547 591.099 88.6849 591.099 108.367L591.085 108.339Z" fill="#232323" stroke="white" stroke-width="1.37538" stroke-miterlimit="10"/>
<path vector-effect="non-scaling-stroke" d="M300.975 104.956L315.224 103.718C335.47 101.297 343.805 95.9468 347.037 91.7794C348.852 89.455 347.917 86.0715 345.318 84.6686C336.089 79.7035 325.705 77.3103 315.114 77.8055C314.275 77.8605 313.477 77.9017 312.68 77.9705L219.167 86.099C216.087 86.3741 190.752 61.4521 190.752 61.4521L179.529 62.4149L187.96 84.311C188.042 87.5019 186.832 90.569 184.618 92.8797L183.517 94.0212C179.708 97.9686 181.358 104.625 186.64 106.262C196.859 109.384 214.147 112.781 237.735 111.131" stroke="white" stroke-width="1.37538" stroke-linecap="round" stroke-linejoin="round"/>
<path vector-effect="non-scaling-stroke" d="M288.927 101.778L286.479 105.368L262.203 143.975L238.285 146.066L254.473 108.834L256.22 104.612" stroke="white" stroke-width="1.37538" stroke-linecap="round" stroke-linejoin="round"/>
<path vector-effect="non-scaling-stroke" d="M235.37 73.4738L223.844 66.8307L242.068 65.249L259.219 71.0944" stroke="white" stroke-width="1.37538" stroke-linecap="round" stroke-linejoin="round"/>
</g>
<defs>
<clipPath id="clip0_20_11252">
<rect width="802" height="525.231" fill="white"/>
</clipPath>
</defs>
</svg>
