<svg width="802" height="535" viewBox="0 0 802 535" fill="none" xmlns="http://www.w3.org/2000/svg">
<g clip-path="url(#clip0_21_15591)">
<path vector-effect="non-scaling-stroke" d="M247.062 158.86C248.027 162.65 248.674 166.523 249.984 170.216C250.066 170.464 250.163 170.699 250.259 170.933C251.458 173.841 253.498 176.294 255.799 178.43C260.706 182.964 267.211 185.528 273.895 185.528H281.805V152.176H293.657V173.152H307.894C314.564 173.152 321.083 170.588 325.989 166.054C328.304 163.904 330.344 161.451 331.529 158.557C331.626 158.323 331.722 158.075 331.805 157.84C333.114 154.147 333.762 150.261 334.726 146.484H346.675C346.675 167.915 329.31 185.293 307.907 185.293H293.671V247.627H281.819V197.669H273.908C252.492 197.669 235.141 180.291 235.141 158.86H247.089H247.062Z" fill="#A0A09E" stroke="white" stroke-width="1.41679" stroke-miterlimit="10"/>
<path vector-effect="non-scaling-stroke" d="M183.24 158.846C188.573 142.708 203.774 131.049 221.69 131.049C224.226 131.049 226.693 131.297 229.091 131.738C232.922 127.149 238.007 123.662 243.823 121.802C247.351 102.011 264.633 86.9756 285.416 86.9756C306.199 86.9756 322.654 101.295 326.733 120.396C327.587 120.327 328.456 120.286 329.338 120.286C340.198 120.286 349.776 125.729 355.523 134.026C360.677 129.492 367.43 126.735 374.831 126.735C390.983 126.735 404.075 139.842 404.075 156.021C404.075 156.986 404.02 157.937 403.937 158.86H183.24V158.846Z" fill="#020202" stroke="white" stroke-width="1.41679" stroke-miterlimit="10"/>
<path vector-effect="non-scaling-stroke" d="M267.403 216.012H310.691V461.53H267.403V216.012Z" fill="#202020" stroke="white" stroke-width="1.41679" stroke-miterlimit="10"/>
<path vector-effect="non-scaling-stroke" d="M267.403 256.296H310.691V278.029H267.403V256.296Z" fill="#A0A09E" stroke="white" stroke-width="1.41679" stroke-miterlimit="10"/>
<path vector-effect="non-scaling-stroke" d="M120.961 516.27C158.129 425.615 247.337 361.545 351.374 361.545C355.826 361.545 360.264 361.655 364.66 361.889L357.962 516.27H120.961Z" fill="#202020"/>
<path vector-effect="non-scaling-stroke" d="M127.865 504.391C162.168 420.709 244.54 361.545 340.584 361.545C344.69 361.545 348.784 361.655 352.849 361.862" fill="#202020"/>
<path vector-effect="non-scaling-stroke" d="M127.865 504.391C162.168 420.709 244.54 361.545 340.584 361.545C344.69 361.545 348.784 361.655 352.849 361.862" stroke="white" stroke-width="1.41679" stroke-miterlimit="10"/>
<path vector-effect="non-scaling-stroke" d="M293.34 516.271L499.499 0H519.33V516.271H293.34Z" fill="#020202"/>
<path vector-effect="non-scaling-stroke" d="M294.925 504.391L492.139 18.123" stroke="white" stroke-width="1.41679" stroke-miterlimit="10"/>
<path vector-effect="non-scaling-stroke" d="M129.864 181.916H0.689148V227.753H142.612L129.864 181.916Z" stroke="white" stroke-width="1.41679" stroke-miterlimit="10"/>
<path vector-effect="non-scaling-stroke" d="M593.682 160.528C593.682 148.579 603.37 138.891 615.319 138.891C627.267 138.891 636.956 148.579 636.956 160.528" fill="#020202"/>
<path vector-effect="non-scaling-stroke" d="M593.682 160.528C593.682 148.579 603.37 138.891 615.319 138.891C627.267 138.891 636.956 148.579 636.956 160.528" stroke="white" stroke-width="1.41679" stroke-miterlimit="10"/>
<path vector-effect="non-scaling-stroke" d="M572.266 169.114C572.266 160.748 579.046 153.968 587.411 153.968C595.777 153.968 602.557 160.748 602.557 169.114" fill="#020202"/>
<path vector-effect="non-scaling-stroke" d="M572.266 169.114C572.266 160.748 579.046 153.968 587.411 153.968C595.777 153.968 602.557 160.748 602.557 169.114" stroke="white" stroke-width="1.41679" stroke-miterlimit="10"/>
<path vector-effect="non-scaling-stroke" d="M627.447 172.738C627.447 160.789 637.135 151.101 649.084 151.101C661.032 151.101 670.721 160.789 670.721 172.738" fill="#020202"/>
<path vector-effect="non-scaling-stroke" d="M627.447 172.738C627.447 160.789 637.135 151.101 649.084 151.101C661.032 151.101 670.721 160.789 670.721 172.738" stroke="white" stroke-width="1.41679" stroke-miterlimit="10"/>
<path vector-effect="non-scaling-stroke" d="M648.133 180.318C648.133 171.952 654.913 165.172 663.279 165.172C671.644 165.172 678.425 171.952 678.425 180.318" fill="#020202"/>
<path vector-effect="non-scaling-stroke" d="M648.133 180.318C648.133 171.952 654.913 165.172 663.279 165.172C671.644 165.172 678.425 171.952 678.425 180.318" stroke="white" stroke-width="1.41679" stroke-miterlimit="10"/>
<path vector-effect="non-scaling-stroke" d="M615.305 256.515C628.853 256.515 639.836 245.532 639.836 231.984C639.836 218.436 628.853 207.453 615.305 207.453C601.757 207.453 590.774 218.436 590.774 231.984C590.774 245.532 601.757 256.515 615.305 256.515Z" fill="#9F00FF" stroke="white" stroke-width="1.41679" stroke-linejoin="round"/>
<path vector-effect="non-scaling-stroke" d="M615.305 291.674C648.27 291.674 674.993 264.951 674.993 231.986C674.993 199.021 648.27 172.298 615.305 172.298C582.34 172.298 555.617 199.021 555.617 231.986C555.617 264.951 582.34 291.674 615.305 291.674Z" stroke="white" stroke-width="1.41679" stroke-miterlimit="10"/>
<path vector-effect="non-scaling-stroke" d="M562.549 284.755L668.075 179.229" stroke="white" stroke-width="1.41679" stroke-miterlimit="10"/>
<path vector-effect="non-scaling-stroke" d="M562.549 179.229L668.075 284.755" stroke="white" stroke-width="1.41679" stroke-miterlimit="10"/>
<path vector-effect="non-scaling-stroke" d="M540.692 231.985H689.932" stroke="white" stroke-width="1.41679" stroke-miterlimit="10"/>
<path vector-effect="non-scaling-stroke" d="M615.305 157.372V306.613" stroke="white" stroke-width="1.41679" stroke-miterlimit="10"/>
<path vector-effect="non-scaling-stroke" d="M636.101 311.311C636.101 299.362 645.79 289.674 657.738 289.674C669.687 289.674 679.375 299.362 679.375 311.311" fill="#020202"/>
<path vector-effect="non-scaling-stroke" d="M636.101 311.311C636.101 299.362 645.79 289.674 657.738 289.674C669.687 289.674 679.375 299.362 679.375 311.311" stroke="white" stroke-width="1.41679" stroke-miterlimit="10"/>
<path vector-effect="non-scaling-stroke" d="M679.362 311.311C679.362 299.362 689.05 289.674 700.999 289.674C712.947 289.674 722.636 299.362 722.636 311.311" fill="#020202"/>
<path vector-effect="non-scaling-stroke" d="M679.362 311.311C679.362 299.362 689.05 289.674 700.999 289.674C712.947 289.674 722.636 299.362 722.636 311.311" stroke="white" stroke-width="1.41679" stroke-miterlimit="10"/>
<path vector-effect="non-scaling-stroke" d="M590.774 311.311C590.774 299.362 600.462 289.674 612.411 289.674C624.359 289.674 634.048 299.362 634.048 311.311" fill="#020202"/>
<path vector-effect="non-scaling-stroke" d="M590.774 311.311C590.774 299.362 600.462 289.674 612.411 289.674C624.359 289.674 634.048 299.362 634.048 311.311" stroke="white" stroke-width="1.41679" stroke-miterlimit="10"/>
<path vector-effect="non-scaling-stroke" d="M575.628 311.312C575.628 302.947 582.408 296.166 590.774 296.166C599.139 296.166 605.92 302.947 605.92 311.312" fill="#020202"/>
<path vector-effect="non-scaling-stroke" d="M575.628 311.312C575.628 302.947 582.408 296.166 590.774 296.166C599.139 296.166 605.92 302.947 605.92 311.312" stroke="white" stroke-width="1.41679" stroke-miterlimit="10"/>
<path vector-effect="non-scaling-stroke" d="M544.509 122.629H438.86L457.837 77.2188H563.486L544.509 122.629Z" fill="#202020" stroke="white" stroke-width="1.41679" stroke-miterlimit="10"/>
<path vector-effect="non-scaling-stroke" d="M483.443 77.2188L464.466 122.629" stroke="white" stroke-width="1.41679" stroke-miterlimit="10"/>
<path vector-effect="non-scaling-stroke" d="M510.662 77.2188L491.684 122.629" stroke="white" stroke-width="1.41679" stroke-miterlimit="10"/>
<path vector-effect="non-scaling-stroke" d="M537.88 77.2188L518.903 122.629" stroke="white" stroke-width="1.41679" stroke-miterlimit="10"/>
<path vector-effect="non-scaling-stroke" d="M519.744 181.916H414.094L433.071 136.506H538.721L519.744 181.916Z" fill="#202020" stroke="white" stroke-width="1.41679" stroke-miterlimit="10"/>
<path vector-effect="non-scaling-stroke" d="M458.678 136.506L439.701 181.916" stroke="white" stroke-width="1.41679" stroke-miterlimit="10"/>
<path vector-effect="non-scaling-stroke" d="M485.897 136.506L466.919 181.916" stroke="white" stroke-width="1.41679" stroke-miterlimit="10"/>
<path vector-effect="non-scaling-stroke" d="M513.115 136.506L494.138 181.916" stroke="white" stroke-width="1.41679" stroke-miterlimit="10"/>
<path vector-effect="non-scaling-stroke" d="M494.978 241.204H389.329L408.306 195.794H513.955L494.978 241.204Z" fill="#202020" stroke="white" stroke-width="1.41679" stroke-miterlimit="10"/>
<path vector-effect="non-scaling-stroke" d="M433.912 195.794L414.935 241.204" stroke="white" stroke-width="1.41679" stroke-miterlimit="10"/>
<path vector-effect="non-scaling-stroke" d="M461.131 195.794L442.154 241.204" stroke="white" stroke-width="1.41679" stroke-miterlimit="10"/>
<path vector-effect="non-scaling-stroke" d="M488.349 195.794L469.372 241.204" stroke="white" stroke-width="1.41679" stroke-miterlimit="10"/>
<path vector-effect="non-scaling-stroke" d="M470.213 300.493H364.563L383.541 255.083H489.19L470.213 300.493Z" fill="#202020" stroke="white" stroke-width="1.41679" stroke-miterlimit="10"/>
<path vector-effect="non-scaling-stroke" d="M409.147 255.083L390.169 300.493" stroke="white" stroke-width="1.41679" stroke-miterlimit="10"/>
<path vector-effect="non-scaling-stroke" d="M436.365 255.083L417.388 300.493" stroke="white" stroke-width="1.41679" stroke-miterlimit="10"/>
<path vector-effect="non-scaling-stroke" d="M463.584 255.083L444.607 300.493" stroke="white" stroke-width="1.41679" stroke-miterlimit="10"/>
<path vector-effect="non-scaling-stroke" d="M447.914 99.916H554.004" stroke="white" stroke-width="1.41679" stroke-miterlimit="10"/>
<path vector-effect="non-scaling-stroke" d="M423.369 159.204H529.446" stroke="white" stroke-width="1.41679" stroke-miterlimit="10"/>
<path vector-effect="non-scaling-stroke" d="M398.824 218.493H504.901" stroke="white" stroke-width="1.41679" stroke-miterlimit="10"/>
<path vector-effect="non-scaling-stroke" d="M374.266 277.781H480.356" stroke="white" stroke-width="1.41679" stroke-miterlimit="10"/>
<path vector-effect="non-scaling-stroke" d="M267.404 227.754H0.689148" stroke="white" stroke-width="1.41679" stroke-miterlimit="10"/>
<path vector-effect="non-scaling-stroke" d="M727.253 311.491C727.253 311.491 674.952 306.351 660.977 357.604L632.518 495.461" stroke="white" stroke-width="1.41679" stroke-miterlimit="10"/>
<path vector-effect="non-scaling-stroke" d="M589.243 493.408L617.882 357.522C629.885 307.646 684.157 311.408 684.157 311.408H738.966" stroke="white" stroke-width="1.41679" stroke-miterlimit="10"/>
<path vector-effect="non-scaling-stroke" d="M543.917 493.408L572.555 357.522C584.558 307.646 638.83 311.408 638.83 311.408H693.639" stroke="white" stroke-width="1.41679" stroke-miterlimit="10"/>
<path vector-effect="non-scaling-stroke" d="M500.656 493.408L529.294 357.522C541.298 307.646 595.57 311.408 595.57 311.408H650.379" stroke="white" stroke-width="1.41679" stroke-miterlimit="10"/>
<path vector-effect="non-scaling-stroke" d="M779.14 31.6014C779.14 31.6014 770.527 26.9294 757.834 73.456L712.52 292.996" stroke="white" stroke-width="1.41679" stroke-miterlimit="10"/>
<path vector-effect="non-scaling-stroke" d="M680.147 212.594L709.488 73.3864C720.376 28.1278 769.631 31.5318 769.631 31.5318H778.231" stroke="white" stroke-width="1.41679" stroke-miterlimit="10"/>
<path vector-effect="non-scaling-stroke" d="M651.964 151.115L668.351 73.3874C679.238 28.1288 728.493 31.5328 728.493 31.5328H778.231" stroke="white" stroke-width="1.41679" stroke-miterlimit="10"/>
<path vector-effect="non-scaling-stroke" d="M615.305 138.89L629.087 73.3864C639.974 28.1278 689.229 31.5318 689.229 31.5318H738.967" stroke="white" stroke-width="1.41679" stroke-miterlimit="10"/>
<path vector-effect="non-scaling-stroke" d="M532.63 347.268H483.374C478.165 347.268 473.948 351.485 473.948 356.694V502.6" stroke="white" stroke-width="1.41679" stroke-miterlimit="10"/>
<path vector-effect="non-scaling-stroke" d="M500.656 493.408C500.656 481.459 510.345 471.771 522.293 471.771C534.242 471.771 543.93 481.459 543.93 493.408" fill="#020202"/>
<path vector-effect="non-scaling-stroke" d="M500.656 493.408C500.656 481.459 510.345 471.771 522.293 471.771C534.242 471.771 543.93 481.459 543.93 493.408" stroke="white" stroke-width="1.41679" stroke-miterlimit="10"/>
<path vector-effect="non-scaling-stroke" d="M476.497 504.308C476.497 495.943 483.278 489.162 491.643 489.162C500.009 489.162 506.789 495.943 506.789 504.308" fill="#020202"/>
<path vector-effect="non-scaling-stroke" d="M476.497 504.308C476.497 495.943 483.278 489.162 491.643 489.162C500.009 489.162 506.789 495.943 506.789 504.308" stroke="white" stroke-width="1.41679" stroke-miterlimit="10"/>
<path vector-effect="non-scaling-stroke" d="M545.984 493.408C545.984 481.459 555.672 471.771 567.621 471.771C579.57 471.771 589.258 481.459 589.258 493.408" fill="#020202"/>
<path vector-effect="non-scaling-stroke" d="M545.984 493.408C545.984 481.459 555.672 471.771 567.621 471.771C579.57 471.771 589.258 481.459 589.258 493.408" stroke="white" stroke-width="1.41679" stroke-miterlimit="10"/>
<path vector-effect="non-scaling-stroke" d="M589.244 493.408C589.244 481.459 598.933 471.771 610.881 471.771C622.83 471.771 632.518 481.459 632.518 493.408" fill="#020202"/>
<path vector-effect="non-scaling-stroke" d="M589.244 493.408C589.244 481.459 598.933 471.771 610.881 471.771C622.83 471.771 632.518 481.459 632.518 493.408" stroke="white" stroke-width="1.41679" stroke-miterlimit="10"/>
<path vector-effect="non-scaling-stroke" d="M537.053 462.798C540.319 462.798 542.966 460.151 542.966 456.886C542.966 453.621 540.319 450.974 537.053 450.974C533.788 450.974 531.141 453.621 531.141 456.886C531.141 460.151 533.788 462.798 537.053 462.798Z" stroke="white" stroke-width="1.41679" stroke-miterlimit="10"/>
<path vector-effect="non-scaling-stroke" d="M522.293 465.748C523.922 465.748 525.243 464.428 525.243 462.799C525.243 461.17 523.922 459.85 522.293 459.85C520.665 459.85 519.344 461.17 519.344 462.799C519.344 464.428 520.665 465.748 522.293 465.748Z" stroke="white" stroke-width="1.41679" stroke-miterlimit="10"/>
<path vector-effect="non-scaling-stroke" d="M582.367 458.375C584.818 458.375 586.805 456.389 586.805 453.938C586.805 451.487 584.818 449.5 582.367 449.5C579.916 449.5 577.93 451.487 577.93 453.938C577.93 456.389 579.916 458.375 582.367 458.375Z" stroke="white" stroke-width="1.41679" stroke-miterlimit="10"/>
<path vector-effect="non-scaling-stroke" d="M610.881 465.968C613.332 465.968 615.319 463.981 615.319 461.53C615.319 459.08 613.332 457.093 610.881 457.093C608.43 457.093 606.443 459.08 606.443 461.53C606.443 463.981 608.43 465.968 610.881 465.968Z" stroke="white" stroke-width="1.41679" stroke-miterlimit="10"/>
<path vector-effect="non-scaling-stroke" d="M649.083 483.801C651.534 483.801 653.521 481.814 653.521 479.363C653.521 476.913 651.534 474.926 649.083 474.926C646.632 474.926 644.646 476.913 644.646 479.363C644.646 481.814 646.632 483.801 649.083 483.801Z" stroke="white" stroke-width="1.41679" stroke-miterlimit="10"/>
<path vector-effect="non-scaling-stroke" d="M547.403 425.657C549.854 425.657 551.841 423.67 551.841 421.219C551.841 418.768 549.854 416.781 547.403 416.781C544.953 416.781 542.966 418.768 542.966 421.219C542.966 423.67 544.953 425.657 547.403 425.657Z" stroke="white" stroke-width="1.41679" stroke-miterlimit="10"/>
<path vector-effect="non-scaling-stroke" d="M630.051 453.938C631.68 453.938 633.001 452.617 633.001 450.988C633.001 449.359 631.68 448.039 630.051 448.039C628.422 448.039 627.102 449.359 627.102 450.988C627.102 452.617 628.422 453.938 630.051 453.938Z" stroke="white" stroke-width="1.41679" stroke-miterlimit="10"/>
<path vector-effect="non-scaling-stroke" d="M492.139 478.964C493.768 478.964 495.088 477.643 495.088 476.015C495.088 474.386 493.768 473.065 492.139 473.065C490.51 473.065 489.19 474.386 489.19 476.015C489.19 477.643 490.51 478.964 492.139 478.964Z" stroke="white" stroke-width="1.41679" stroke-miterlimit="10"/>
<path vector-effect="non-scaling-stroke" d="M572.568 411.82C574.197 411.82 575.518 410.5 575.518 408.871C575.518 407.242 574.197 405.922 572.568 405.922C570.94 405.922 569.619 407.242 569.619 408.871C569.619 410.5 570.94 411.82 572.568 411.82Z" stroke="white" stroke-width="1.41679" stroke-miterlimit="10"/>
<path vector-effect="non-scaling-stroke" d="M540.016 416.699C541.645 416.699 542.966 415.379 542.966 413.75C542.966 412.121 541.645 410.801 540.016 410.801C538.388 410.801 537.067 412.121 537.067 413.75C537.067 415.379 538.388 416.699 540.016 416.699Z" stroke="white" stroke-width="1.41679" stroke-miterlimit="10"/>
<path vector-effect="non-scaling-stroke" d="M588.803 142.722C591.254 142.722 593.241 140.735 593.241 138.284C593.241 135.833 591.254 133.847 588.803 133.847C586.352 133.847 584.365 135.833 584.365 138.284C584.365 140.735 586.352 142.722 588.803 142.722Z" stroke="white" stroke-width="1.41679" stroke-miterlimit="10"/>
<path vector-effect="non-scaling-stroke" d="M581.417 133.764C583.045 133.764 584.366 132.443 584.366 130.814C584.366 129.186 583.045 127.865 581.417 127.865C579.788 127.865 578.467 129.186 578.467 130.814C578.467 132.443 579.788 133.764 581.417 133.764Z" stroke="white" stroke-width="1.41679" stroke-miterlimit="10"/>
<path vector-effect="non-scaling-stroke" d="M636.887 425.644C638.516 425.644 639.836 424.323 639.836 422.694C639.836 421.066 638.516 419.745 636.887 419.745C635.258 419.745 633.938 421.066 633.938 422.694C633.938 424.323 635.258 425.644 636.887 425.644Z" stroke="white" stroke-width="1.41679" stroke-miterlimit="10"/>
<path vector-effect="non-scaling-stroke" d="M621.19 442.388C624.455 442.388 627.102 439.741 627.102 436.476C627.102 433.21 624.455 430.563 621.19 430.563C617.924 430.563 615.277 433.21 615.277 436.476C615.277 439.741 617.924 442.388 621.19 442.388Z" stroke="white" stroke-width="1.41679" stroke-miterlimit="10"/>
<path vector-effect="non-scaling-stroke" d="M685.784 148.331C687.413 148.331 688.733 147.011 688.733 145.382C688.733 143.753 687.413 142.433 685.784 142.433C684.155 142.433 682.835 143.753 682.835 145.382C682.835 147.011 684.155 148.331 685.784 148.331Z" stroke="white" stroke-width="1.41679" stroke-miterlimit="10"/>
<path vector-effect="non-scaling-stroke" d="M676.922 136.795C680.188 136.795 682.835 134.148 682.835 130.883C682.835 127.618 680.188 124.971 676.922 124.971C673.657 124.971 671.01 127.618 671.01 130.883C671.01 134.148 673.657 136.795 676.922 136.795Z" stroke="white" stroke-width="1.41679" stroke-miterlimit="10"/>
<path vector-effect="non-scaling-stroke" d="M642.344 110.21C644.795 110.21 646.782 108.223 646.782 105.773C646.782 103.322 644.795 101.335 642.344 101.335C639.894 101.335 637.907 103.322 637.907 105.773C637.907 108.223 639.894 110.21 642.344 110.21Z" stroke="white" stroke-width="1.41679" stroke-miterlimit="10"/>
<path vector-effect="non-scaling-stroke" d="M628.563 125.743C630.192 125.743 631.512 124.423 631.512 122.794C631.512 121.165 630.192 119.845 628.563 119.845C626.934 119.845 625.614 121.165 625.614 122.794C625.614 124.423 626.934 125.743 628.563 125.743Z" stroke="white" stroke-width="1.41679" stroke-miterlimit="10"/>
<path vector-effect="non-scaling-stroke" d="M642.248 138.781C645.513 138.781 648.16 136.134 648.16 132.868C648.16 129.603 645.513 126.956 642.248 126.956C638.983 126.956 636.336 129.603 636.336 132.868C636.336 136.134 638.983 138.781 642.248 138.781Z" stroke="white" stroke-width="1.41679" stroke-miterlimit="10"/>
<path vector-effect="non-scaling-stroke" d="M531.32 504.308C531.32 495.943 538.101 489.162 546.466 489.162C554.832 489.162 561.612 495.943 561.612 504.308" fill="#020202"/>
<path vector-effect="non-scaling-stroke" d="M531.32 504.308C531.32 495.943 538.101 489.162 546.466 489.162C554.832 489.162 561.612 495.943 561.612 504.308" stroke="white" stroke-width="1.41679" stroke-miterlimit="10"/>
<path vector-effect="non-scaling-stroke" d="M621.328 504.308C621.328 495.943 628.108 489.162 636.473 489.162C644.839 489.162 651.619 495.943 651.619 504.308" fill="#020202"/>
<path vector-effect="non-scaling-stroke" d="M621.328 504.308C621.328 495.943 628.108 489.162 636.473 489.162C644.839 489.162 651.619 495.943 651.619 504.308" stroke="white" stroke-width="1.41679" stroke-miterlimit="10"/>
<path vector-effect="non-scaling-stroke" d="M202.327 28.0322L224.998 17.8477L268.341 45.8104L276.058 87.2516L262.428 115.724L203.664 65.4354L190.02 51.5022L202.327 28.0322Z" fill="#202020" stroke="white" stroke-width="1.41679" stroke-miterlimit="10"/>
<path vector-effect="non-scaling-stroke" d="M258.942 95.1209L264.826 83.6133L263.186 67.4889L213.09 36.4941L209.466 48.6633L258.942 95.1209Z" fill="#020202" stroke="white" stroke-width="1.41679" stroke-miterlimit="10"/>
<path vector-effect="non-scaling-stroke" d="M250.59 105.581L238.628 141.413L246.18 146.126L262.428 115.724L250.59 105.581Z" fill="#202020" stroke="white" stroke-width="1.41679" stroke-miterlimit="10"/>
<path vector-effect="non-scaling-stroke" d="M238.049 94.749L226.1 130.581L233.652 135.294L249.901 104.892L238.049 94.749Z" fill="#202020" stroke="white" stroke-width="1.41679" stroke-miterlimit="10"/>
<path vector-effect="non-scaling-stroke" d="M225.687 83.792L213.724 119.624L221.277 124.337L237.525 93.9352L225.687 83.792Z" fill="#202020" stroke="white" stroke-width="1.41679" stroke-miterlimit="10"/>
<path vector-effect="non-scaling-stroke" d="M213.146 73.1533L201.197 108.972L208.749 113.685L224.998 83.2828L213.146 73.1533Z" fill="#202020" stroke="white" stroke-width="1.41679" stroke-miterlimit="10"/>
<path vector-effect="non-scaling-stroke" d="M208.804 26.9984L120.699 21.8027L116.247 55.3195L204.642 50.2754L208.791 26.9846L208.804 26.9984Z" fill="#202020" stroke="white" stroke-width="1.41679" stroke-miterlimit="10"/>
<path vector-effect="non-scaling-stroke" d="M217.942 41.8137C216.288 48.3324 209.562 52.2601 202.906 50.5788C196.249 48.8974 192.198 42.2409 193.851 35.7223C195.505 29.2036 202.231 25.2758 208.887 26.9572C215.544 28.6385 219.609 35.295 217.955 41.8137H217.942Z" fill="#020202" stroke="white" stroke-width="1.41679" stroke-miterlimit="10"/>
<path vector-effect="non-scaling-stroke" d="M209.535 39.4155C209.052 41.3449 207.027 42.5025 205.001 41.9926C202.989 41.4827 201.748 39.5119 202.231 37.5825C202.713 35.6531 204.753 34.5092 206.765 35.0054C208.777 35.5015 210.017 37.486 209.535 39.4155Z" fill="#202020" stroke="white" stroke-width="1.41679" stroke-miterlimit="10"/>
<path vector-effect="non-scaling-stroke" d="M85.046 162.25L36.4109 197.117Z" fill="#202020"/>
<path vector-effect="non-scaling-stroke" d="M85.046 162.25L36.4109 197.117" stroke="white" stroke-width="1.41679" stroke-miterlimit="10"/>
<path vector-effect="non-scaling-stroke" d="M93.9902 29.5615L36.4247 169.775L113.491 180.097L129.271 49.7239L94.004 29.5753L93.9902 29.5615Z" fill="#202020" stroke="white" stroke-width="1.41679" stroke-miterlimit="10"/>
<path vector-effect="non-scaling-stroke" d="M110.942 172.751C118.273 193.024 107.014 215.667 85.8315 223.315C64.6217 230.978 41.5238 220.752 34.192 200.479C26.8603 180.207 38.0922 157.577 59.302 149.915C80.4843 142.252 103.61 152.478 110.942 172.751Z" fill="#020202" stroke="white" stroke-width="1.41679" stroke-miterlimit="10"/>
<path vector-effect="non-scaling-stroke" d="M84.2329 182.413C86.4655 188.573 83.0339 195.464 76.5841 197.793C70.1344 200.122 63.1058 197.021 60.8731 190.847C58.6405 184.673 62.0721 177.796 68.5219 175.467C74.9717 173.138 82.0003 176.238 84.2329 182.413Z" fill="#202020" stroke="white" stroke-width="1.41679" stroke-miterlimit="10"/>
<path vector-effect="non-scaling-stroke" d="M122.174 22.8223C131.834 29.2859 134.177 42.7229 127.411 52.8248C120.658 62.9129 107.345 65.8483 97.6837 59.3848C88.0228 52.9212 85.68 39.498 92.4329 29.3961C99.1997 19.2942 112.513 16.345 122.174 22.8223Z" fill="#020202" stroke="white" stroke-width="1.41679" stroke-miterlimit="10"/>
<path vector-effect="non-scaling-stroke" d="M113.023 36.0656C115.862 37.9675 116.564 41.8952 114.566 44.8721C112.582 47.8351 108.668 48.7033 105.829 46.8015C102.99 44.8996 102.301 40.9443 104.285 37.9951C106.283 35.0182 110.184 34.1638 113.023 36.0656Z" fill="#202020" stroke="white" stroke-width="1.41679" stroke-miterlimit="10"/>
<path vector-effect="non-scaling-stroke" d="M204.422 441.92H197.751V516.271H204.422V441.92Z" fill="#020202" stroke="white" stroke-width="1.41679" stroke-miterlimit="10"/>
<path vector-effect="non-scaling-stroke" d="M198.482 428.055C198.482 423.452 196.029 418.215 196.029 418.215C196.029 418.215 199.46 375.85 199.653 374.279C199.846 372.708 200.921 372.901 200.921 372.901C200.921 372.901 201.996 372.708 202.189 374.279C202.382 375.85 205.814 418.215 205.814 418.215C205.814 418.215 203.361 423.452 203.361 428.055H198.468H198.482Z" fill="#020202" stroke="white" stroke-width="1.41679" stroke-miterlimit="10"/>
<path vector-effect="non-scaling-stroke" d="M195.229 442.181C191.247 444.483 187.939 449.224 187.939 449.224C187.939 449.224 149.571 467.429 148.124 468.049C146.663 468.669 146.305 467.636 146.305 467.636C146.305 467.636 145.602 466.795 146.856 465.844C148.11 464.893 183.047 440.734 183.047 440.734C183.047 440.734 188.807 440.238 192.79 437.937L195.243 442.181H195.229Z" fill="#020202" stroke="white" stroke-width="1.41679" stroke-miterlimit="10"/>
<path vector-effect="non-scaling-stroke" d="M209.08 437.923C213.063 440.224 218.823 440.721 218.823 440.721C218.823 440.721 253.76 464.88 255.014 465.831C256.268 466.781 255.565 467.622 255.565 467.622C255.565 467.622 255.193 468.656 253.746 468.036C252.285 467.415 213.931 449.21 213.931 449.21C213.931 449.21 210.623 444.469 206.641 442.168L209.094 437.923H209.08Z" fill="#020202" stroke="white" stroke-width="1.41679" stroke-miterlimit="10"/>
<path vector-effect="non-scaling-stroke" d="M200.935 444.964C205.855 444.964 209.852 440.968 209.852 436.048C209.852 431.128 205.855 427.131 200.935 427.131C196.015 427.131 192.032 431.128 192.032 436.048C192.032 440.968 196.015 444.964 200.935 444.964Z" fill="#020202" stroke="white" stroke-width="1.41679" stroke-miterlimit="10"/>
<path vector-effect="non-scaling-stroke" d="M407.851 441.892H401.181V516.284H407.851V441.892Z" fill="#020202" stroke="white" stroke-width="1.41679" stroke-miterlimit="10"/>
<path vector-effect="non-scaling-stroke" d="M401.911 428.014C401.911 423.411 399.458 418.174 399.458 418.174C399.458 418.174 402.89 375.809 403.083 374.238C403.276 372.667 404.351 372.86 404.351 372.86C404.351 372.86 405.426 372.667 405.619 374.238C405.812 375.809 409.243 418.174 409.243 418.174C409.243 418.174 406.79 423.411 406.79 428.014H401.898H401.911Z" fill="#020202" stroke="white" stroke-width="1.41679" stroke-miterlimit="10"/>
<path vector-effect="non-scaling-stroke" d="M398.659 442.14C394.676 444.442 391.368 449.183 391.368 449.183C391.368 449.183 353.001 467.388 351.553 468.008C350.093 468.628 349.734 467.595 349.734 467.595C349.734 467.595 349.031 466.754 350.286 465.803C351.54 464.852 386.476 440.693 386.476 440.693C386.476 440.693 392.237 440.197 396.219 437.896L398.673 442.14H398.659Z" fill="#020202" stroke="white" stroke-width="1.41679" stroke-miterlimit="10"/>
<path vector-effect="non-scaling-stroke" d="M412.509 437.896C416.492 440.197 422.253 440.693 422.253 440.693C422.253 440.693 457.189 464.852 458.443 465.803C459.697 466.754 458.994 467.595 458.994 467.595C458.994 467.595 458.622 468.628 457.175 468.008C455.714 467.388 417.36 449.183 417.36 449.183C417.36 449.183 414.053 444.442 410.07 442.14L412.523 437.896H412.509Z" fill="#020202" stroke="white" stroke-width="1.41679" stroke-miterlimit="10"/>
<path vector-effect="non-scaling-stroke" d="M404.351 444.938C409.271 444.938 413.267 440.941 413.267 436.021C413.267 431.101 409.271 427.104 404.351 427.104C399.431 427.104 395.448 431.101 395.448 436.021C395.448 440.941 399.431 444.938 404.351 444.938Z" fill="#020202" stroke="white" stroke-width="1.41679" stroke-miterlimit="10"/>
<path vector-effect="non-scaling-stroke" d="M299.997 414.468H293.327V516.286H299.997V414.468Z" fill="#020202" stroke="white" stroke-width="1.41679" stroke-miterlimit="10"/>
<path vector-effect="non-scaling-stroke" d="M292.362 419.291C289.716 423.067 288.71 428.759 288.71 428.759C288.71 428.759 261.546 461.449 260.485 462.62C259.424 463.792 258.652 463.006 258.652 463.006C258.652 463.006 257.66 462.551 258.404 461.145C259.148 459.754 280.689 423.122 280.689 423.122C280.689 423.122 285.705 420.242 288.351 416.479L292.362 419.291Z" fill="#020202" stroke="white" stroke-width="1.41679" stroke-miterlimit="10"/>
<path vector-effect="non-scaling-stroke" d="M303.139 409.602C307.728 410.002 313.158 408.031 313.158 408.031C313.158 408.031 355.013 415.184 356.556 415.528C358.1 415.859 357.81 416.92 357.81 416.92C357.81 416.92 357.907 418.009 356.336 418.064C354.751 418.119 312.29 417.802 312.29 417.802C312.29 417.802 307.301 414.894 302.712 414.495L303.153 409.616L303.139 409.602Z" fill="#020202" stroke="white" stroke-width="1.41679" stroke-miterlimit="10"/>
<path vector-effect="non-scaling-stroke" d="M289.371 405.11C287.428 400.934 283.004 397.213 283.004 397.213C283.004 397.213 268.313 357.371 267.831 355.868C267.349 354.366 268.41 354.091 268.41 354.091C268.41 354.091 269.306 353.457 270.146 354.794C270.987 356.13 291.907 393.079 291.907 393.079C291.907 393.079 291.88 398.867 293.823 403.043L289.371 405.11Z" fill="#020202" stroke="white" stroke-width="1.41679" stroke-miterlimit="10"/>
<path vector-effect="non-scaling-stroke" d="M300.093 404.035C296.069 401.21 290.501 402.174 287.676 406.212C284.837 410.236 285.816 415.804 289.84 418.629C293.864 421.455 299.432 420.49 302.257 416.452C305.082 412.428 304.117 406.86 300.093 404.035Z" fill="#020202" stroke="white" stroke-width="1.41679" stroke-miterlimit="10"/>
<path vector-effect="non-scaling-stroke" d="M457.837 77.2188L447.914 99.917H473.947L483.443 77.2188H457.837Z" fill="#9F00FF" stroke="white" stroke-width="1.41679" stroke-miterlimit="10"/>
<path vector-effect="non-scaling-stroke" d="M426.87 277.781L417.388 300.493H444.607L454.102 277.781H426.87Z" fill="#9F00FF" stroke="white" stroke-width="1.41679" stroke-miterlimit="10"/>
<path vector-effect="non-scaling-stroke" d="M762.905 18.123H17.227C8.0934 18.123 0.689148 25.5273 0.689148 34.6609V499.733C0.689148 508.867 8.0934 516.271 17.227 516.271H762.905C772.039 516.271 779.443 508.867 779.443 499.733V34.6609C779.443 25.5273 772.039 18.123 762.905 18.123Z" stroke="white" stroke-width="1.41679" stroke-linecap="round" stroke-linejoin="round"/>
<path vector-effect="non-scaling-stroke" d="M196.566 249.915C200.122 253.471 205.014 254.89 209.631 254.201C210.32 249.571 208.901 244.692 205.345 241.136C201.789 237.581 196.897 236.161 192.28 236.85C191.591 241.481 193.011 246.36 196.566 249.915Z" fill="#9F00FF" stroke="white" stroke-width="1.41679" stroke-linejoin="round"/>
<path vector-effect="non-scaling-stroke" d="M222.71 249.915C219.154 253.471 214.262 254.89 209.645 254.201C208.956 249.571 210.375 244.692 213.931 241.136C217.487 237.581 222.379 236.161 226.996 236.85C227.685 241.481 226.265 246.36 222.71 249.915Z" fill="#9F00FF" stroke="white" stroke-width="1.41679" stroke-linejoin="round"/>
<path vector-effect="non-scaling-stroke" d="M209.645 254.201V266.012" stroke="white" stroke-width="1.41679" stroke-miterlimit="10"/>
<path vector-effect="non-scaling-stroke" d="M226.058 308.321H188.793L183.694 270.298H231.157L226.058 308.321Z" fill="#A0A09E" stroke="white" stroke-width="1.41679" stroke-miterlimit="10"/>
<path vector-effect="non-scaling-stroke" d="M237.043 264.675H177.823V275.907H237.043V264.675Z" fill="#A0A09E" stroke="white" stroke-width="1.41679" stroke-miterlimit="10"/>
<path vector-effect="non-scaling-stroke" d="M94.252 384.326L35.5013 474.609L30.8018 534.311H94.252V384.326Z" fill="#020202" stroke="white" stroke-width="1.41679" stroke-miterlimit="10"/>
<path vector-effect="non-scaling-stroke" d="M103.582 396.083L69.9138 534.312H127.286L103.582 396.083Z" fill="#020202" stroke="white" stroke-width="1.41679" stroke-miterlimit="10"/>
<path vector-effect="non-scaling-stroke" d="M110.611 505.631H140.489L107.069 336.008L89.9798 373.549L110.597 505.631H110.611Z" fill="#020202" stroke="white" stroke-width="1.41679" stroke-miterlimit="10"/>
<path vector-effect="non-scaling-stroke" d="M106.531 283.363L109.605 266.894C109.605 266.894 124.089 279.655 132.027 274.322C137.595 270.587 136.685 263.118 136.217 254.091L136.933 254.394C138.766 255.193 140.682 253.415 140.007 251.514C138.918 248.468 137.416 245.326 136.272 243.093C136.313 242.666 136.355 242.252 136.41 241.825C138.091 227.603 125.44 219.403 118.659 216.756C111.879 214.11 102.397 209.893 93.6594 216.439C84.7703 223.096 92.2399 238.035 87.6369 258.184C86.6859 262.346 84.2604 268.203 77.9622 275.673L106.531 283.363Z" fill="#202020" stroke="white" stroke-width="1.41679" stroke-miterlimit="10"/>
<path vector-effect="non-scaling-stroke" d="M133.268 227.603C128.54 220.616 120.988 217.267 118.783 216.412L117.832 216.04C111.121 213.394 101.928 209.783 93.4389 216.137C88.2432 220.023 88.4775 226.735 88.7669 235.21C88.9323 239.841 89.1115 245.078 88.4775 250.839L88.4362 251.211L88.8083 251.252C89.6352 251.349 90.4483 251.39 91.2476 251.39C107.965 251.39 115.806 232.289 116.812 229.643C126.404 231.338 133.061 228.196 133.13 228.154L133.516 227.961L133.281 227.603H133.268Z" fill="#A0A09E" stroke="white" stroke-width="1.41679" stroke-miterlimit="10"/>
<path vector-effect="non-scaling-stroke" d="M86.7273 273.096H113.643L111.906 289.358L86.7135 273.096H86.7273Z" fill="#020202" stroke="white" stroke-width="1.41679" stroke-miterlimit="10"/>
<path vector-effect="non-scaling-stroke" d="M90.724 216.219C98.8965 216.219 105.525 209.59 105.525 201.404C105.525 193.218 98.8965 186.589 90.724 186.589C82.5515 186.589 75.9226 193.218 75.9226 201.404C75.9226 209.59 82.5515 216.219 90.724 216.219Z" fill="#A0A09E" stroke="white" stroke-width="1.41679" stroke-miterlimit="10"/>
<path vector-effect="non-scaling-stroke" d="M113.643 237.704C113.643 237.704 108.86 232.274 104.74 235.623C99.5027 239.882 104.74 246.442 107.427 247.2" fill="#A0A09E"/>
<path vector-effect="non-scaling-stroke" d="M113.643 237.704C113.643 237.704 108.86 232.274 104.74 235.623C99.5027 239.882 104.74 246.442 107.427 247.2" stroke="white" stroke-width="1.41679" stroke-miterlimit="10"/>
<path vector-effect="non-scaling-stroke" d="M138.725 240.02L111.534 235.886" stroke="white" stroke-width="1.41679" stroke-miterlimit="10"/>
<path vector-effect="non-scaling-stroke" d="M139.359 233.749L138.008 246.662" stroke="white" stroke-width="1.41679" stroke-miterlimit="10"/>
<path vector-effect="non-scaling-stroke" d="M136.396 258.983C129.45 258.983 128.044 253.14 128.031 253.085" stroke="white" stroke-width="1.41679" stroke-miterlimit="10"/>
<path vector-effect="non-scaling-stroke" d="M176.183 312.814C180.814 305.22 191.233 295.945 195.188 290.102C198.372 285.389 203.691 282.577 209.369 282.577H232.55C235.926 282.577 238.669 285.32 238.669 288.696C238.669 291.59 236.643 294.099 233.818 294.691L232.66 294.939C232.66 294.939 231.64 316.494 214.262 317.128L199.598 336.918L176.197 312.814H176.183Z" fill="#202020" stroke="white" stroke-width="1.41679" stroke-miterlimit="10"/>
<path vector-effect="non-scaling-stroke" d="M110.611 378.111V505.646H5.66418L58.3097 294.816C64.8146 268.782 100.302 265.158 111.906 289.358L138.422 344.636L176.666 311.905L209.852 332.922L160.376 382.756C146.953 395.945 131.49 401.113 118.769 388.379L110.597 378.111H110.611Z" fill="#020202" stroke="white" stroke-width="1.41679" stroke-miterlimit="10"/>
<path vector-effect="non-scaling-stroke" d="M110.611 378.111L77.9072 334.382" stroke="white" stroke-width="1.41679" stroke-miterlimit="10"/>
<path vector-effect="non-scaling-stroke" d="M110.61 420.862H85.7209V456.956C85.7209 466.714 93.6177 474.61 103.361 474.61H110.61V420.862Z" fill="#020202" stroke="white" stroke-width="1.41679" stroke-miterlimit="10"/>
<path vector-effect="non-scaling-stroke" d="M33.0619 395.944H110.611" stroke="white" stroke-width="1.41679" stroke-miterlimit="10"/>
</g>
<defs>
<clipPath id="clip0_21_15591">
<rect width="780.132" height="535" fill="white"/>
</clipPath>
</defs>
</svg>
