<svg width="595" height="397" viewBox="0 0 595 397" fill="none" xmlns="http://www.w3.org/2000/svg">
<g clip-path="url(#clip0_394_3832)">
<path vector-effect="non-scaling-stroke" d="M595 0H0V396.67H595V0Z" fill="black"/>
<path vector-effect="non-scaling-stroke" d="M147.82 380.64H548.94C562.17 380.64 572.9 369.91 572.9 356.68L571.26 31.9805H223.71" stroke="white" stroke-miterlimit="10"/>
<path vector-effect="non-scaling-stroke" d="M41.2706 37.3L148.941 39.3L149.561 39.03L39.1406 37C40.0606 37.21 40.8906 37.35 41.2706 37.29V37.3Z" fill="black" stroke="white" stroke-miterlimit="10"/>
<path vector-effect="non-scaling-stroke" d="M41.2706 37.3L148.941 39.3L149.561 39.03L39.1406 37C40.0606 37.21 40.8906 37.35 41.2706 37.29V37.3Z" fill="black" stroke="white" stroke-miterlimit="10"/>
<path vector-effect="non-scaling-stroke" d="M174.07 33.75L96.02 2.75L17.97 33.75H17.96L23.04 42.63H168.99L174.07 33.75ZM37.53 33.75L96.02 10.22L154.51 33.75H37.53Z" fill="black"/>
<path vector-effect="non-scaling-stroke" d="M174.07 33.75L96.02 2.75L17.97 33.75H17.96L23.04 42.63H168.99L174.07 33.75ZM174.07 33.75H174.06M37.53 33.75L96.02 10.22L154.51 33.75H37.53Z" stroke="white" stroke-miterlimit="10"/>
<path vector-effect="non-scaling-stroke" d="M45.3392 49.3799H27.4492V133.88H45.3392V49.3799Z" fill="black" stroke="white" stroke-miterlimit="10"/>
<path vector-effect="non-scaling-stroke" d="M49.78 127.62H23V133.89H49.78V127.62Z" fill="black" stroke="white" stroke-miterlimit="10"/>
<path vector-effect="non-scaling-stroke" d="M48.8397 49.3799H23.9497C21.8697 49.3799 20.1797 51.0699 20.1797 53.1499C20.1797 55.2299 21.8697 56.9199 23.9497 56.9199C25.7097 56.9199 27.1697 55.7099 27.5897 54.0899H45.1997C45.6197 55.7099 47.0797 56.9199 48.8397 56.9199C50.9197 56.9199 52.6097 55.2299 52.6097 53.1499C52.6097 51.0699 50.9197 49.3799 48.8397 49.3799Z" fill="black" stroke="white" stroke-miterlimit="10"/>
<path vector-effect="non-scaling-stroke" d="M164.249 49.3799H146.359V133.88H164.249V49.3799Z" fill="black" stroke="white" stroke-miterlimit="10"/>
<path vector-effect="non-scaling-stroke" d="M168.69 127.62H141.91V133.89H168.69V127.62Z" fill="black" stroke="white" stroke-miterlimit="10"/>
<path vector-effect="non-scaling-stroke" d="M167.75 49.3799H142.86C140.78 49.3799 139.09 51.0699 139.09 53.1499C139.09 55.2299 140.78 56.9199 142.86 56.9199C144.62 56.9199 146.08 55.7099 146.5 54.0899H164.11C164.53 55.7099 165.99 56.9199 167.75 56.9199C169.83 56.9199 171.52 55.2299 171.52 53.1499C171.52 51.0699 169.83 49.3799 167.75 49.3799Z" fill="black" stroke="white" stroke-miterlimit="10"/>
<path vector-effect="non-scaling-stroke" d="M84.85 49.3799H66.96V133.88H84.85V49.3799Z" fill="black" stroke="white" stroke-miterlimit="10"/>
<path vector-effect="non-scaling-stroke" d="M89.2898 127.62H62.5098V133.89H89.2898V127.62Z" fill="black" stroke="white" stroke-miterlimit="10"/>
<path vector-effect="non-scaling-stroke" d="M88.3397 49.3799H63.4497C61.3697 49.3799 59.6797 51.0699 59.6797 53.1499C59.6797 55.2299 61.3697 56.9199 63.4497 56.9199C65.2097 56.9199 66.6697 55.7099 67.0897 54.0899H84.6997C85.1197 55.7099 86.5797 56.9199 88.3397 56.9199C90.4197 56.9199 92.1097 55.2299 92.1097 53.1499C92.1097 51.0699 90.4197 49.3799 88.3397 49.3799Z" fill="black" stroke="white" stroke-miterlimit="10"/>
<path vector-effect="non-scaling-stroke" d="M124.41 49.3799H106.52V133.88H124.41V49.3799Z" fill="black" stroke="white" stroke-miterlimit="10"/>
<path vector-effect="non-scaling-stroke" d="M128.85 127.62H102.07V133.89H128.85V127.62Z" fill="black" stroke="white" stroke-miterlimit="10"/>
<path vector-effect="non-scaling-stroke" d="M127.91 49.3799H103.02C100.94 49.3799 99.25 51.0699 99.25 53.1499C99.25 55.2299 100.94 56.9199 103.02 56.9199C104.78 56.9199 106.24 55.7099 106.66 54.0899H124.27C124.69 55.7099 126.15 56.9199 127.91 56.9199C129.99 56.9199 131.68 55.2299 131.68 53.1499C131.68 51.0699 129.99 49.3799 127.91 49.3799Z" fill="black" stroke="white" stroke-miterlimit="10"/>
<path vector-effect="non-scaling-stroke" d="M170.991 45.7197H21.1006V49.3797H170.991V45.7197Z" fill="black" stroke="white" stroke-miterlimit="10"/>
<path vector-effect="non-scaling-stroke" d="M176.35 133.88H15.6797V141.73H176.35V133.88Z" fill="black" stroke="white" stroke-miterlimit="10"/>
<path vector-effect="non-scaling-stroke" d="M5.41016 141.73V153.01H186.63V147.93V141.73H5.41016Z" fill="black" stroke="white" stroke-miterlimit="10"/>
<path vector-effect="non-scaling-stroke" d="M295.221 266.609V226.839H255.451V266.609H295.221Z" stroke="white" stroke-miterlimit="10"/>
<path vector-effect="non-scaling-stroke" d="M255.44 306.379V266.609H295.21V306.379L274.46 287.629L255.44 306.379Z" fill="#404040"/>
<path vector-effect="non-scaling-stroke" d="M255.44 266.609V226.839H215.67V266.609H255.44Z" fill="#202020"/>
<path vector-effect="non-scaling-stroke" d="M215.66 306.37V266.6H175.89V306.37H215.66Z" fill="#202020" stroke="white" stroke-miterlimit="10"/>
<path vector-effect="non-scaling-stroke" d="M255.44 306.379V266.609H295.21V306.379L275.33 286.489L255.44 306.379Z" stroke="white" stroke-miterlimit="10"/>
<path vector-effect="non-scaling-stroke" d="M255.44 266.609V226.839H215.67V266.609H255.44Z" stroke="white" stroke-miterlimit="10"/>
<path vector-effect="non-scaling-stroke" d="M255.44 226.839V187.069H215.67V226.839H255.44Z" stroke="white" stroke-miterlimit="10"/>
<path vector-effect="non-scaling-stroke" d="M215.671 306.379V266.609H255.441V306.379" stroke="white" stroke-miterlimit="10"/>
<path vector-effect="non-scaling-stroke" d="M255.441 195.56C260.124 195.56 263.921 191.754 263.921 187.06C263.921 182.365 260.124 178.56 255.441 178.56C250.758 178.56 246.961 182.365 246.961 187.06C246.961 191.754 250.758 195.56 255.441 195.56Z" fill="#020202" stroke="white" stroke-miterlimit="10"/>
<path vector-effect="non-scaling-stroke" d="M295.21 275.109C299.894 275.109 303.69 271.304 303.69 266.609C303.69 261.915 299.894 258.109 295.21 258.109C290.527 258.109 286.73 261.915 286.73 266.609C286.73 271.304 290.527 275.109 295.21 275.109Z" fill="#020202" stroke="white" stroke-miterlimit="10"/>
<path vector-effect="non-scaling-stroke" d="M458.88 7.30957L414.73 60.0196H434.27V268.52H483.49V60.0196H503.04L458.88 7.30957Z" fill="#A100FF" stroke="white" stroke-miterlimit="10"/>
<path vector-effect="non-scaling-stroke" d="M588.57 272.86C588.57 290.53 583.52 307.02 574.78 320.96C558.75 346.54 530.3 363.55 497.88 363.55C447.79 363.55 407.19 322.95 407.19 272.86C407.19 240.76 423.87 212.55 449.04 196.43C454.33 193.04 459.99 190.19 465.94 187.95C475.87 184.21 486.64 182.17 497.88 182.17C507.54 182.17 516.86 183.68 525.59 186.48C545.04 192.72 561.64 205.34 572.9 221.88C574.12 223.67 575.27 225.5 576.36 227.38C584.12 240.75 588.57 256.28 588.57 272.86Z" fill="#050505" stroke="white" stroke-miterlimit="10"/>
<path vector-effect="non-scaling-stroke" d="M516.19 325.62C500.83 347.33 495.82 339.98 491.47 344.49C487.13 349 489.29 359.88 485.29 358.69C477.71 356.42 473.93 350.67 473.77 340.32C473.6 329.97 476.27 325.96 470.1 322.45C463.92 318.94 452.73 304.58 453.4 299.24C454.07 293.9 458.41 294.56 459.24 290.22C460.07 285.88 462.41 281.54 457.4 282.87C452.39 284.21 448.05 279.03 447.38 275.02C446.71 271.01 442.87 273.18 440.7 270.34C438.53 267.5 425.84 263.33 427.17 258.32C428.51 253.31 423.16 224.92 428.67 221.25C434.18 217.58 447.54 203.72 449.04 198.37C449.23 197.69 449.21 197.05 449.02 196.43C454.31 193.04 459.97 190.19 465.92 187.95C466.02 189.16 466.04 190.23 465.9 191.02C465.23 195.03 479.26 190.69 483.1 194.19C486.94 197.7 488.78 200.87 487.94 204.54C487.1 208.21 475.58 195.52 465.4 207.04C455.21 218.56 476.92 205.7 483.77 208.38C490.62 211.05 494.96 217.23 493.12 220.24C491.28 223.25 480.93 219.57 481.1 223.58C481.27 227.59 471.41 234.27 468.24 235.44C465.07 236.61 457.55 245.96 460.73 254.31C460.73 254.31 457.06 258.32 454.38 246.13C454.38 246.13 439.58 240.81 437.51 253.81C435.45 266.81 443.86 257.15 447.36 258.82C450.87 260.49 444.52 266.17 446.69 267.34C448.86 268.51 452.87 267.34 452.87 270.51C452.87 273.68 458.88 280.36 463.73 278.86C468.57 277.36 477.42 278.69 481.1 280.7C484.77 282.7 498.47 299.07 506.98 299.74C515.5 300.41 531.53 303.91 516.16 325.62H516.19Z" fill="#232323" stroke="white" stroke-miterlimit="10"/>
<path vector-effect="non-scaling-stroke" d="M453.011 258.83C453.011 258.83 454.301 261.72 461.051 263.76C467.801 265.8 468.871 269.98 472.731 268.8C476.591 267.62 459.011 255.4 453.011 258.83Z" fill="#232323" stroke="white" stroke-miterlimit="10"/>
<path vector-effect="non-scaling-stroke" d="M572.9 221.88C572.9 221.88 572.87 221.9 572.86 221.91C568.2 225.24 567.37 222.409 562.71 218.749C558.05 215.089 555.89 222.08 555.39 228.07C554.89 234.06 547.9 233.4 542.74 227.24C537.58 221.08 543.74 224.409 546.57 223.079C549.4 221.749 544.07 218.089 542.08 216.089C540.08 214.089 532.09 214.759 529.76 209.439C527.43 204.119 534.75 206.939 539.08 210.439C543.41 213.929 543.91 207.779 542.41 206.109C540.91 204.449 539.41 205.279 535.75 203.779C532.09 202.279 533.59 198.449 528.59 196.289C524.99 194.729 525.2 189.349 525.59 186.479C545.04 192.719 561.64 205.34 572.9 221.88Z" fill="#232323" stroke="white" stroke-miterlimit="10"/>
<path vector-effect="non-scaling-stroke" d="M588.57 272.86C588.57 290.53 583.52 307.02 574.78 320.96C574.47 318.03 574.58 314.52 575.81 310.97C578.85 302.24 581.7 298.25 577.71 283.06C573.72 267.87 565.13 284.21 560.81 281.92C556.31 279.53 550.31 276.6 550.15 272.43C549.99 268.25 550.94 264.35 548.28 258.23C545.62 252.11 549.04 248.13 552.27 243.76C555.5 239.39 549.61 236.74 555.12 233.51C560.63 230.28 562.33 225.92 566.89 229.33C569.95 231.62 573.43 230.84 576.37 227.38C584.13 240.75 588.58 256.28 588.58 272.86H588.57Z" fill="#232323" stroke="white" stroke-miterlimit="10"/>
<path vector-effect="non-scaling-stroke" d="M41.2706 37.3L148.941 39.3L149.561 39.03L39.1406 37C40.0606 37.21 40.8906 37.35 41.2706 37.29V37.3Z" fill="black" stroke="white" stroke-miterlimit="10"/>
<path vector-effect="non-scaling-stroke" d="M41.2706 37.3L148.941 39.3L149.561 39.03L39.1406 37C40.0606 37.21 40.8906 37.35 41.2706 37.29V37.3Z" fill="black" stroke="white" stroke-miterlimit="10"/>
<path vector-effect="non-scaling-stroke" d="M174.07 33.75L96.02 2.75L17.97 33.75H17.96L23.04 42.63H168.99L174.07 33.75ZM37.53 33.75L96.02 10.22L154.51 33.75H37.53Z" fill="black"/>
<path vector-effect="non-scaling-stroke" d="M174.07 33.75L96.02 2.75L17.97 33.75H17.96L23.04 42.63H168.99L174.07 33.75ZM174.07 33.75H174.06M37.53 33.75L96.02 10.22L154.51 33.75H37.53Z" stroke="white" stroke-miterlimit="10"/>
<path vector-effect="non-scaling-stroke" d="M45.3392 49.3799H27.4492V133.88H45.3392V49.3799Z" fill="black" stroke="white" stroke-miterlimit="10"/>
<path vector-effect="non-scaling-stroke" d="M49.78 127.62H23V133.89H49.78V127.62Z" fill="black" stroke="white" stroke-miterlimit="10"/>
<path vector-effect="non-scaling-stroke" d="M48.8397 49.3799H23.9497C21.8697 49.3799 20.1797 51.0699 20.1797 53.1499C20.1797 55.2299 21.8697 56.9199 23.9497 56.9199C25.7097 56.9199 27.1697 55.7099 27.5897 54.0899H45.1997C45.6197 55.7099 47.0797 56.9199 48.8397 56.9199C50.9197 56.9199 52.6097 55.2299 52.6097 53.1499C52.6097 51.0699 50.9197 49.3799 48.8397 49.3799Z" fill="black" stroke="white" stroke-miterlimit="10"/>
<path vector-effect="non-scaling-stroke" d="M164.249 49.3799H146.359V133.88H164.249V49.3799Z" fill="black" stroke="white" stroke-miterlimit="10"/>
<path vector-effect="non-scaling-stroke" d="M168.69 127.62H141.91V133.89H168.69V127.62Z" fill="black" stroke="white" stroke-miterlimit="10"/>
<path vector-effect="non-scaling-stroke" d="M167.75 49.3799H142.86C140.78 49.3799 139.09 51.0699 139.09 53.1499C139.09 55.2299 140.78 56.9199 142.86 56.9199C144.62 56.9199 146.08 55.7099 146.5 54.0899H164.11C164.53 55.7099 165.99 56.9199 167.75 56.9199C169.83 56.9199 171.52 55.2299 171.52 53.1499C171.52 51.0699 169.83 49.3799 167.75 49.3799Z" fill="black" stroke="white" stroke-miterlimit="10"/>
<path vector-effect="non-scaling-stroke" d="M84.85 49.3799H66.96V133.88H84.85V49.3799Z" fill="black" stroke="white" stroke-miterlimit="10"/>
<path vector-effect="non-scaling-stroke" d="M89.2898 127.62H62.5098V133.89H89.2898V127.62Z" fill="black" stroke="white" stroke-miterlimit="10"/>
<path vector-effect="non-scaling-stroke" d="M88.3397 49.3799H63.4497C61.3697 49.3799 59.6797 51.0699 59.6797 53.1499C59.6797 55.2299 61.3697 56.9199 63.4497 56.9199C65.2097 56.9199 66.6697 55.7099 67.0897 54.0899H84.6997C85.1197 55.7099 86.5797 56.9199 88.3397 56.9199C90.4197 56.9199 92.1097 55.2299 92.1097 53.1499C92.1097 51.0699 90.4197 49.3799 88.3397 49.3799Z" fill="black" stroke="white" stroke-miterlimit="10"/>
<path vector-effect="non-scaling-stroke" d="M124.41 49.3799H106.52V133.88H124.41V49.3799Z" fill="black" stroke="white" stroke-miterlimit="10"/>
<path vector-effect="non-scaling-stroke" d="M128.85 127.62H102.07V133.89H128.85V127.62Z" fill="black" stroke="white" stroke-miterlimit="10"/>
<path vector-effect="non-scaling-stroke" d="M127.91 49.3799H103.02C100.94 49.3799 99.25 51.0699 99.25 53.1499C99.25 55.2299 100.94 56.9199 103.02 56.9199C104.78 56.9199 106.24 55.7099 106.66 54.0899H124.27C124.69 55.7099 126.15 56.9199 127.91 56.9199C129.99 56.9199 131.68 55.2299 131.68 53.1499C131.68 51.0699 129.99 49.3799 127.91 49.3799Z" fill="black" stroke="white" stroke-miterlimit="10"/>
<path vector-effect="non-scaling-stroke" d="M170.991 45.7197H21.1006V49.3797H170.991V45.7197Z" fill="black" stroke="white" stroke-miterlimit="10"/>
<path vector-effect="non-scaling-stroke" d="M176.35 133.88H15.6797V141.73H176.35V133.88Z" fill="black" stroke="white" stroke-miterlimit="10"/>
<path vector-effect="non-scaling-stroke" d="M5.41016 141.73V153.01H186.63V147.93V141.73H5.41016Z" fill="black" stroke="white" stroke-miterlimit="10"/>
<path vector-effect="non-scaling-stroke" d="M356.85 205.719C357.51 198.869 359.96 189.419 355.89 186.479C351.41 187.969 349.2 187.819 344.49 187.419C338.88 186.949 333.24 184.559 329.16 182.399C329.31 186.739 328.99 190.739 329.25 195.069C329.58 200.479 330.21 206.359 333.97 210.259C337.06 213.449 342.04 214.659 346.24 213.219C348.44 214.849 351.86 214.529 353.71 212.519C355.53 213.989 358.66 213.249 359.64 211.119C360.61 208.989 359.13 206.139 356.83 205.719H356.85Z" fill="black" stroke="white" stroke-miterlimit="10"/>
<path vector-effect="non-scaling-stroke" d="M393.7 41.3695C393.7 38.4495 390.44 36.6195 388.32 35.9495C388.72 35.0495 388.96 34.0295 388.96 32.9295C388.96 29.4895 386.77 26.7095 384.08 26.7095C383.44 26.7095 382.83 26.8795 382.26 27.1695C382.25 23.7495 380.07 20.9795 377.38 20.9795C376.08 20.9795 374.9 21.6395 374.03 22.6995C373.31 20.3995 371.56 18.7695 369.5 18.7695C366.83 18.7695 364.68 21.4995 364.63 24.8795C363.73 23.4995 362.4 22.5995 360.88 22.5995C358.18 22.5995 356 25.3895 356 28.8195C356 28.8195 356 28.8395 356 28.8495C355.93 28.8495 355.87 28.8195 355.8 28.8195C353.1 28.8195 350.92 31.6095 350.92 35.0395C350.92 38.4695 353.11 41.2595 355.8 41.2595C356 41.2595 356.19 41.2095 356.39 41.1795C356.39 41.3395 356.36 41.4995 356.36 41.6695C356.36 48.3795 362.56 53.8195 370.22 53.8195C374.41 53.8195 376.99 56.3995 379.53 53.8195C379.49 54.1295 381.29 54.6395 381.29 54.9695C381.29 58.4095 381.55 51.4795 384.25 51.4795C386.95 51.4795 388.76 53.6395 388.76 50.1995C388.76 48.9995 390.1 48.2495 389.64 47.2995C391.06 46.2095 393.69 43.6495 393.69 41.3895L393.7 41.3695Z" fill="#232323" stroke="white" stroke-miterlimit="10"/>
<path vector-effect="non-scaling-stroke" d="M402.95 365.48C397.95 372.35 385.57 373.81 385.57 373.81C370.39 375.24 368.71 389.09 368.71 389.09L436.52 387.87L433.66 362.38L402.95 365.48Z" fill="black" stroke="white" stroke-linecap="round" stroke-linejoin="round"/>
<path vector-effect="non-scaling-stroke" d="M324.81 362.879C319.81 369.749 307.43 371.209 307.43 371.209C292.25 372.639 290.57 386.489 290.57 386.489L358.38 385.269L355.52 359.779L324.81 362.879Z" fill="black" stroke="white" stroke-linecap="round" stroke-linejoin="round"/>
<path vector-effect="non-scaling-stroke" d="M348.021 169.24L358.301 80.9099C358.301 80.9099 361.891 76.1399 362.081 76.0099C362.271 75.8799 363.871 74.7199 363.871 74.7199L372.851 73.5699L388.561 72.6699L390.871 73.3099L389.181 165.38L348.021 169.23V169.24Z" fill="black" stroke="white" stroke-miterlimit="10"/>
<path vector-effect="non-scaling-stroke" d="M406.23 163.37L342.33 162.43C342.33 162.43 332.77 244.43 311.78 363.39L367.17 369.46C369.75 343.87 378 236.81 378 236.81L385.07 366.93L444.18 368.06C433.52 288.37 422.19 191.72 406.23 163.37Z" fill="black" stroke="white" stroke-miterlimit="10"/>
<path vector-effect="non-scaling-stroke" d="M363.87 74.7491C363.87 74.7491 363.86 74.7291 363.85 74.7391C350.78 80.9991 345.08 81.6691 341.49 86.4291C336.27 93.3591 337.37 108.479 336.18 114.199C334.5 122.279 335.02 129.339 333.95 133.889C329.9 146.159 332.38 167.639 326.04 188.779C343.68 191.739 338.55 178.769 340.63 187.069C347.92 187.399 335.66 168.739 348.01 166.629C359.11 164.729 342.28 158.229 345.91 155.719C352.39 151.259 357.89 143.649 361.93 93.1691C362.98 79.9891 363.79 75.1291 363.85 74.7591L363.87 74.7491Z" fill="#232323" stroke="white" stroke-miterlimit="10"/>
<path vector-effect="non-scaling-stroke" d="M342.3 105.919L329.42 204.139C329.42 204.139 347.38 205.669 350.42 197.539L359.67 116.039" fill="#232323"/>
<path vector-effect="non-scaling-stroke" d="M342.3 105.919L329.42 204.139C329.42 204.139 347.38 205.669 350.42 197.539L359.67 116.039" stroke="white" stroke-miterlimit="10"/>
<path vector-effect="non-scaling-stroke" d="M440.53 195.069C441.58 178.689 443.25 178.399 440.61 162.239C439 152.399 433.09 101.659 427.02 85.7592C426.46 84.2992 425.34 83.1292 423.91 82.5092C413.5 77.9992 398.14 73.7192 389.52 72.9092C388.74 77.0892 388.97 83.4192 388.73 85.6892C388.49 87.9592 385.07 130.129 384.42 152.419C384.33 155.359 385.83 191.269 386.48 194.139C388.15 201.499 394.35 202.419 399.33 202.759C404.3 203.099 413.86 202.759 413.86 202.759L413.3 190.629C413.3 190.629 421.92 195.539 429.15 195.999C433.86 196.309 436.07 196.549 440.55 195.059L440.53 195.069Z" fill="#232323" stroke="white" stroke-miterlimit="10"/>
<path vector-effect="non-scaling-stroke" d="M460.67 163.379L440.61 162.239C440.81 167.069 440.64 174.539 440.64 178.889C440.64 185.699 439.43 201.099 439.43 201.099C439.43 201.099 438.51 211.289 438.25 214.299H438.58L455.24 215.289C456.34 215.329 457.29 214.519 457.41 213.419L462.67 165.709C462.8 164.499 461.88 163.429 460.67 163.379Z" fill="white" stroke="white" stroke-linejoin="round"/>
<path vector-effect="non-scaling-stroke" d="M413.81 190.989C413.81 190.989 413.61 179.149 411.93 161.099L395.55 160.689C394.43 160.649 393.47 161.489 393.37 162.619L389.42 210.669C389.32 211.869 390.24 212.899 391.44 212.939L440.04 214.269C435.04 209.979 413.8 190.999 413.8 190.999L413.81 190.989Z" fill="white" stroke="white" stroke-linejoin="round"/>
<path vector-effect="non-scaling-stroke" d="M441.49 214.309C442.15 207.459 444.6 198.009 440.53 195.069C436.05 196.559 433.84 196.409 429.13 196.009C423.52 195.539 417.88 193.149 413.8 190.989C413.95 195.329 413.63 199.329 413.89 203.659C414.22 209.069 414.85 214.949 418.61 218.849C421.7 222.039 426.68 223.249 430.88 221.809C433.08 223.439 436.5 223.119 438.35 221.109C440.17 222.579 443.3 221.839 444.28 219.709C445.25 217.579 443.77 214.729 441.47 214.309H441.49Z" fill="black" stroke="white" stroke-miterlimit="10"/>
<path vector-effect="non-scaling-stroke" d="M367.87 58.7798L368.97 72.2498L364.91 74.5898L372.14 83.3598C372.14 83.3598 386.05 74.6698 389.52 72.9198C386.3 71.3998 385.7 69.6498 385.72 69.6298C385.83 69.4898 383.24 52.4198 383.24 52.4198C383.24 52.4198 379.87 46.7798 367.87 58.7798Z" fill="black" stroke="white" stroke-miterlimit="10"/>
<path vector-effect="non-scaling-stroke" d="M389.04 77.2998L381.08 85.8598C381.02 85.9198 380.94 85.9598 380.85 85.9598C380.76 85.9598 380.68 85.9198 380.62 85.8598L372.15 83.3598" fill="black"/>
<path vector-effect="non-scaling-stroke" d="M389.04 77.2998L381.08 85.8598C381.02 85.9198 380.94 85.9598 380.85 85.9598C380.76 85.9598 380.68 85.9198 380.62 85.8598L372.15 83.3598" stroke="white" stroke-miterlimit="10"/>
<path vector-effect="non-scaling-stroke" d="M372.141 83.36L367.331 85.83C367.271 85.91 367.171 85.96 367.071 85.96C366.971 85.96 366.871 85.91 366.811 85.83L363.091 80.75" fill="black"/>
<path vector-effect="non-scaling-stroke" d="M372.141 83.36L367.331 85.83C367.271 85.91 367.171 85.96 367.071 85.96C366.971 85.96 366.871 85.91 366.811 85.83L363.091 80.75" stroke="white" stroke-miterlimit="10"/>
<path vector-effect="non-scaling-stroke" d="M360.59 40.7695C360.59 40.7695 359.88 49.1295 361.53 56.8195C363.18 64.5095 370.08 67.9895 375.47 66.0695C382.53 63.5495 384.54 56.6695 385.16 53.8995C385.16 53.8995 387.94 56.1795 390.08 53.3695C392.73 49.8895 391.35 45.9195 388.99 44.6895C386.64 43.4495 384.03 44.8895 383.19 48.1995C383.19 48.1995 381.12 46.2495 376.85 40.8995C369.72 43.0395 360.58 40.7695 360.58 40.7695H360.59Z" fill="black" stroke="white" stroke-miterlimit="10"/>
<path vector-effect="non-scaling-stroke" d="M362.081 76.0098L352.961 85.9698L358.831 88.8698L351.761 94.1098L353.351 159.58" stroke="white" stroke-miterlimit="10"/>
<path vector-effect="non-scaling-stroke" d="M385.69 160.679L399.77 90.1795L392.13 87.3495L399.33 82.5495L392.73 74.7295" stroke="white" stroke-miterlimit="10"/>
<path vector-effect="non-scaling-stroke" d="M411.931 161.099L407.391 112.619" stroke="white" stroke-miterlimit="10"/>
<path vector-effect="non-scaling-stroke" d="M372.04 307.66C373.44 307.92 376.63 308.87 377.98 309.32C398.64 316.19 421.38 327.63 443.61 345.53" stroke="white" stroke-miterlimit="10"/>
<path vector-effect="non-scaling-stroke" d="M150.76 311.341C204.62 331.441 263.77 304.621 322.26 301.601" stroke="white" stroke-miterlimit="10"/>
<path vector-effect="non-scaling-stroke" d="M274.46 283.49C262.29 283.49 252.42 293.12 252.42 305.01C252.42 316.9 274.46 343.74 274.46 343.74C274.46 343.74 296.5 316.89 296.5 305.01C296.5 293.13 286.63 283.49 274.46 283.49ZM274.46 315.77C268.37 315.77 263.44 310.95 263.44 305.01C263.44 299.07 268.37 294.25 274.46 294.25C280.55 294.25 285.48 299.07 285.48 305.01C285.48 310.95 280.55 315.77 274.46 315.77Z" fill="#A100FF" stroke="white" stroke-miterlimit="10"/>
<path vector-effect="non-scaling-stroke" d="M285.4 305.99L296.88 304.19" stroke="white" stroke-miterlimit="10"/>
<path vector-effect="non-scaling-stroke" d="M577.81 99.7105H495.89C495.68 99.7105 495.5 99.5105 495.5 99.2705V32.4205C495.5 32.1805 495.67 31.9805 495.89 31.9805H577.81C578.02 31.9805 578.2 32.1805 578.2 32.4205V99.2805C578.2 99.5205 578.03 99.7205 577.81 99.7205V99.7105Z" fill="#020202" stroke="white" stroke-miterlimit="10"/>
<path vector-effect="non-scaling-stroke" d="M533.58 77.6006H525.07V89.0406H533.58V77.6006Z" fill="#A2A2A0" stroke="white" stroke-miterlimit="10"/>
<path vector-effect="non-scaling-stroke" d="M548.63 69.1201H540.12V89.0301H548.63V69.1201Z" fill="#020202" stroke="white" stroke-linejoin="round"/>
<path vector-effect="non-scaling-stroke" d="M563.67 59.6504H555.16V89.0304H563.67V59.6504Z" fill="#A100FF" stroke="white" stroke-miterlimit="10"/>
<path vector-effect="non-scaling-stroke" d="M564.68 45.3903C564.63 45.1603 564.41 45.0203 564.21 45.0803C559.4 46.5003 556.69 49.8003 553.83 53.3003C552.96 54.3603 552.07 55.4503 551.09 56.5203C550.44 57.2303 549.39 58.1303 548.1 58.3403C547 58.5203 545.9 58.2003 544.73 57.8603C544.37 57.7503 544.02 57.6503 543.66 57.5603C541.51 57.0203 539.51 57.5703 537.86 59.1603C536.62 60.3503 535.87 61.9603 535.15 63.5203C534.61 64.6803 534.05 65.8803 533.31 66.8503C531.68 68.9703 530 68.4503 527.87 67.7803C527.31 67.6103 526.74 67.4303 526.14 67.2903C524.24 66.8703 522.06 67.5303 520.15 69.1103C518.84 70.1903 517.75 71.5603 516.71 72.8803C514.68 75.4403 512.76 77.8603 509.37 78.0603C509.16 78.0703 508.99 78.2803 509 78.5203C509.01 78.7503 509.18 78.9303 509.39 78.9303C509.39 78.9303 509.4 78.9303 509.41 78.9303C513.12 78.7203 515.24 76.0503 517.29 73.4603C518.31 72.1703 519.36 70.8503 520.61 69.8103C522.35 68.3803 524.31 67.7703 526 68.1503C526.56 68.2803 527.13 68.4503 527.67 68.6203C529.78 69.2803 531.95 69.9603 533.9 67.4103C534.7 66.3603 535.28 65.1203 535.84 63.9203C536.56 62.3703 537.25 60.9003 538.37 59.8203C539.82 58.4203 541.6 57.9303 543.49 58.4103C543.84 58.5003 544.18 58.6003 544.53 58.7003C545.72 59.0503 546.95 59.4103 548.21 59.2003C549.39 59.0003 550.57 58.2903 551.62 57.1403C552.61 56.0503 553.51 54.9503 554.39 53.8803C557.3 50.3303 559.81 47.2703 564.4 45.9103C564.61 45.8503 564.73 45.6103 564.68 45.3803V45.3903Z" stroke="white" stroke-miterlimit="10"/>
<path vector-effect="non-scaling-stroke" d="M578.73 166.92H495.44V193.25H578.73V166.92Z" fill="#020202" stroke="white" stroke-miterlimit="10"/>
<path vector-effect="non-scaling-stroke" d="M578.73 140.601H495.44V166.931H578.73V140.601Z" fill="#232323" stroke="white" stroke-miterlimit="10"/>
<path vector-effect="non-scaling-stroke" d="M578.73 117.74H495.44V144.07H578.73V117.74Z" fill="#050505" stroke="white" stroke-miterlimit="10"/>
<path vector-effect="non-scaling-stroke" d="M564.89 133.85C566.21 133.85 567.29 132.53 567.29 130.9C567.29 129.27 566.22 127.95 564.89 127.95C563.56 127.95 562.49 129.27 562.49 130.9C562.49 132.53 563.56 133.85 564.89 133.85Z" fill="#020202" stroke="white" stroke-miterlimit="10"/>
<path vector-effect="non-scaling-stroke" d="M564.89 158.44C566.21 158.44 567.29 157.12 567.29 155.49C567.29 153.86 566.22 152.54 564.89 152.54C563.56 152.54 562.49 153.86 562.49 155.49C562.49 157.12 563.56 158.44 564.89 158.44Z" fill="#020202" stroke="white" stroke-miterlimit="10"/>
<path vector-effect="non-scaling-stroke" d="M564.89 183.041C566.21 183.041 567.29 181.721 567.29 180.091C567.29 178.461 566.22 177.141 564.89 177.141C563.56 177.141 562.49 178.461 562.49 180.091C562.49 181.721 563.56 183.041 564.89 183.041Z" fill="#020202" stroke="white" stroke-miterlimit="10"/>
<path vector-effect="non-scaling-stroke" d="M506.721 130.9H551.091" stroke="white" stroke-miterlimit="10"/>
<path vector-effect="non-scaling-stroke" d="M506.721 155.5H551.091" stroke="white" stroke-miterlimit="10"/>
<path vector-effect="non-scaling-stroke" d="M506.721 180.101H551.091" stroke="white" stroke-miterlimit="10"/>
<path vector-effect="non-scaling-stroke" d="M41.9099 192.57C35.1199 192.57 29.5799 190.41 25.2999 186.08C21.0199 181.75 18.8799 176.29 18.8799 169.68C18.8799 163.07 21.0199 157.42 25.2999 153C29.5799 148.58 35.1199 146.37 41.9099 146.37C48.6999 146.37 54.3999 148.58 58.7299 153C63.0599 157.42 65.2199 162.98 65.2199 169.68C65.2199 176.38 63.0599 181.75 58.7299 186.08C54.3999 190.41 48.7999 192.57 41.9099 192.57ZM41.9099 183.35C45.5399 183.35 48.5099 182.07 50.8399 179.51C53.1699 176.95 54.3299 173.67 54.3299 169.67C54.3299 165.67 53.1699 162.11 50.8399 159.55C48.5099 156.99 45.5399 155.71 41.9099 155.71C38.2799 155.71 35.3299 156.99 33.0499 159.55C30.7699 162.11 29.6299 165.48 29.6299 169.67C29.6299 173.86 30.7899 176.95 33.1199 179.51C35.4499 182.07 38.3799 183.35 41.9099 183.35ZM45.0099 242.53H31.5699L92.4299 147.76H106.01L45.0099 242.53ZM112.92 236.04C108.59 240.37 103.03 242.53 96.2399 242.53C89.4499 242.53 83.9099 240.37 79.6299 236.04C75.3499 231.71 73.2099 226.25 73.2099 219.64C73.2099 213.03 75.3499 207.38 79.6299 202.96C83.9099 198.54 89.4499 196.33 96.2399 196.33C103.03 196.33 108.59 198.56 112.92 203.03C117.25 207.49 119.41 213.03 119.41 219.64C119.41 226.25 117.25 231.71 112.92 236.04ZM87.3799 229.48C89.6599 232.04 92.6099 233.32 96.2399 233.32C99.8699 233.32 102.85 232.04 105.17 229.48C107.49 226.92 108.66 223.64 108.66 219.64C108.66 215.64 107.5 212.08 105.17 209.52C102.84 206.96 99.8699 205.68 96.2399 205.68C92.6099 205.68 89.6599 206.96 87.3799 209.52C85.0999 212.08 83.9599 215.45 83.9599 219.64C83.9599 223.83 85.0999 226.92 87.3799 229.48Z" fill="#A100FF" stroke="white" stroke-miterlimit="10"/>
<path vector-effect="non-scaling-stroke" d="M293.231 72.4502C293.431 71.5202 293.281 70.4802 292.831 69.5802C292.371 68.6802 291.691 68.0702 290.931 67.9002C290.641 66.7102 289.841 65.7502 288.761 65.3202C287.831 64.9502 287.011 65.1702 286.451 65.4402C286.961 64.4802 287.461 63.5202 287.951 62.5502C289.241 60.0102 289.631 59.1102 289.401 58.1702C289.121 57.0602 288.121 56.3702 287.301 56.2002C286.321 56.0002 284.841 56.5002 281.221 61.7902C276.001 69.4202 274.151 75.5402 273.831 76.7002L272.891 84.2102C274.121 86.4902 276.051 88.2502 281.051 89.8502C282.251 90.2302 283.381 90.3902 284.441 90.3902C286.821 90.3902 288.781 89.5902 290.171 88.7702C290.231 88.7302 290.281 88.6602 290.291 88.5802C290.651 85.6602 290.921 82.7102 291.101 79.7902C292.411 79.6802 293.621 78.5802 294.091 77.0302C294.561 75.4602 294.221 73.6002 293.261 72.4402L293.231 72.4502Z" fill="#404040" stroke="white" stroke-miterlimit="10"/>
<path vector-effect="non-scaling-stroke" d="M278.041 72.1397C279.121 70.3397 280.751 69.0397 282.501 68.5597C284.261 68.0797 286.171 68.4197 287.751 69.4897C288.621 70.0797 289.091 70.8497 289.071 71.6697C289.051 72.4697 288.551 73.2097 287.741 73.6497C287.531 73.7597 287.321 73.8497 287.111 73.9397C286.701 74.1197 286.311 74.2797 285.991 74.5797C285.391 75.1397 285.081 76.0897 284.861 76.9597C284.831 77.0897 284.791 77.2197 284.761 77.3597C284.551 78.1897 284.341 79.0497 283.901 79.7697C283.501 80.4097 282.841 80.9297 282.171 80.9297" fill="#404040"/>
<path vector-effect="non-scaling-stroke" d="M278.041 72.1397C279.121 70.3397 280.751 69.0397 282.501 68.5597C284.261 68.0797 286.171 68.4197 287.751 69.4897C288.621 70.0797 289.091 70.8497 289.071 71.6697C289.051 72.4697 288.551 73.2097 287.741 73.6497C287.531 73.7597 287.321 73.8497 287.111 73.9397C286.701 74.1197 286.311 74.2797 285.991 74.5797C285.391 75.1397 285.081 76.0897 284.861 76.9597C284.831 77.0897 284.791 77.2197 284.761 77.3597C284.551 78.1897 284.341 79.0497 283.901 79.7697C283.501 80.4097 282.841 80.9297 282.171 80.9297" stroke="white" stroke-miterlimit="10"/>
<path vector-effect="non-scaling-stroke" d="M217.501 76.2904C218.401 75.7704 222.061 78.4904 222.961 78.9804C226.861 81.1504 220.741 79.9904 224.271 82.7204C228.291 85.8204 245.341 103 260.831 105.54C264.881 99.2304 268.331 89.8304 270.591 82.6404C272.871 84.2104 272.641 84.7204 280.111 86.6304C285.981 88.1304 288.651 88.8104 291.911 87.2804C290.161 98.6504 283.031 110.57 278.621 121.2C276.561 126.17 271.991 128.36 267.681 131.59C263.371 134.81 269.201 137.35 263.871 136.63C258.541 135.91 252.291 133.91 247.711 131.09C236.161 123.96 226.101 118.59 220.611 106.21C217.861 100.02 218.171 87.6804 217.401 80.9504C217.291 80.0304 216.511 76.8704 217.501 76.3004V76.2904Z" fill="#232323" stroke="white" stroke-miterlimit="10"/>
<path vector-effect="non-scaling-stroke" d="M220.12 70.2501C221.63 70.6401 222.62 71.8801 223.21 73.3201C235.91 104.12 219.07 135.35 238.72 162.63C241.05 165.86 242.99 174.32 241.86 178.14C240.83 181.62 233.61 180.89 230.79 183.17C227.97 185.45 233.79 177.93 230.56 179.59C226.1 169.5 224.81 142.82 221.24 132.38C217.78 122.27 214.31 112.12 212.12 101.66C210.59 94.3301 186.32 94.9801 186.53 87.4901C186.59 85.3601 178.97 73.9001 180.39 72.1601C183.8 67.9901 217.19 69.4901 220.12 70.2601V70.2501Z" fill="#232323" stroke="white" stroke-miterlimit="10"/>
<path vector-effect="non-scaling-stroke" d="M231.08 140.64L172.19 142.42C156.76 169.83 133.28 258.35 118.08 301.44L169.67 302.15L194.33 208.75C191.36 227.27 171.27 329.24 166.6 353.88L222.41 350.53C240.03 247.25 231.08 140.63 231.08 140.63V140.64Z" fill="black" stroke="white" stroke-miterlimit="10"/>
<path vector-effect="non-scaling-stroke" d="M287.82 132.26L281.8 125.64C281.29 125.08 280.38 125.16 280 125.81C279.33 127 279.35 129.52 284.27 134.51" fill="#404040"/>
<path vector-effect="non-scaling-stroke" d="M287.82 132.26L281.8 125.64C281.29 125.08 280.38 125.16 280 125.81C279.33 127 279.35 129.52 284.27 134.51" stroke="white" stroke-miterlimit="10"/>
<path vector-effect="non-scaling-stroke" d="M285.89 136.35L279.87 129.73C279.36 129.17 278.45 129.25 278.07 129.9C277.4 131.09 277.42 133.61 282.34 138.6" fill="#404040"/>
<path vector-effect="non-scaling-stroke" d="M285.89 136.35L279.87 129.73C279.36 129.17 278.45 129.25 278.07 129.9C277.4 131.09 277.42 133.61 282.34 138.6" stroke="white" stroke-miterlimit="10"/>
<path vector-effect="non-scaling-stroke" d="M286.2 129.39C293.17 126.57 295.16 128.34 295.73 129.57C295.93 130.01 295.69 130.53 295.22 130.68C293.97 131.08 290.23 132.51 286.65 134.22C289.54 134.25 292.67 134.35 295.43 135.31C296.14 135.56 296.89 135.83 297.15 136.6C297.28 137.01 297.33 137.37 297.02 137.72C296.81 137.96 296.45 138.15 296.12 138.14C294.34 138.07 290.04 138.44 288.24 138.7C286.44 138.97 284.57 139.3 282.83 139.72C280.5 140.29 278.27 141 275.89 141.42C272.68 141.99 269.48 142.55 266.25 142.98C263.61 143.33 261.17 143.65 257.79 143.77C257.64 143.29 257.79 132.73 257.54 131.45C261.87 130.5 263.94 129.85 267.52 127.24C269.24 125.99 276.06 122.09 276.66 123.71C277.82 126.83 271.9 127.8 272.23 130.72C272.47 132.82 275.1 132.77 276.64 132.38L286.22 129.38L286.2 129.39Z" fill="#404040" stroke="white" stroke-miterlimit="10"/>
<path vector-effect="non-scaling-stroke" d="M174.57 82.89C162.11 82.13 156.05 67.16 165.11 58.85C166.01 58.02 167.04 57.29 168.22 56.68C169.46 56.04 170.39 54.95 170.83 53.65C171.72 50.95 174.15 46.39 180.55 44.65C182.08 44.23 183.35 43.18 184 41.76C185.95 37.5 190.84 26.19 204.69 29.21C204.69 29.21 212.37 29.52 215.9 35.46C218.1 39.16 218.52 42.33 218.52 44.19C218.52 45.28 218.88 46.35 219.61 47.19C221.05 48.86 223.21 52.23 222.95 57.24C222.89 58.45 223.26 59.67 224.07 60.6C225.84 62.61 228.08 67.32 222.71 76.02C217.72 84.1 191.75 83.95 174.57 82.9V82.89Z" fill="#232323" stroke="white" stroke-miterlimit="10"/>
<path vector-effect="non-scaling-stroke" d="M183.8 147.76H232.17C234.64 147.76 236.42 145.41 235.77 143.04C234.26 137.58 216.82 129.91 221.81 117.01C229.51 97.0998 218.32 79.0898 216.32 74.2598C214.31 69.4298 213.13 68.7098 204.94 68.3498C197.39 68.0098 192.31 67.9098 188.27 73.4898C187.29 74.8398 187.19 76.6298 185.86 77.6198L180.5 81.5898L183.8 147.76Z" fill="#A2A2A0" stroke="white" stroke-miterlimit="10"/>
<path vector-effect="non-scaling-stroke" d="M217.5 76.29L216.39 85.8C216.36 85.9 216.29 85.98 216.19 86.02C216.09 86.06 215.98 86.04 215.9 85.98L207.85 80.41L201.79 90C201.74 90.09 201.65 90.14 201.55 90.15C201.55 90.15 201.53 90.15 201.52 90.15C201.43 90.15 201.34 90.11 201.28 90.05L189.56 79.33" fill="#A2A2A0"/>
<path vector-effect="non-scaling-stroke" d="M217.5 76.29L216.39 85.8C216.36 85.9 216.29 85.98 216.19 86.02C216.09 86.06 215.98 86.04 215.9 85.98L207.85 80.41L201.79 90C201.74 90.09 201.65 90.14 201.55 90.15C201.55 90.15 201.53 90.15 201.52 90.15C201.43 90.15 201.34 90.11 201.28 90.05L189.56 79.33" stroke="white" stroke-miterlimit="10"/>
<path vector-effect="non-scaling-stroke" d="M168.71 89.1696C169.97 86.6096 171.88 82.6596 174.39 79.6496C175.93 77.8096 176.39 76.7296 180.22 75.0596C180.22 75.0596 186.3 71.5096 189.52 79.1796C190.1 80.5496 190.45 82.0096 190.67 83.4796C193.7 104.12 196.29 138.08 192.28 159.73C191.73 162.69 189.52 175.17 182.89 178.33C178.65 180.36 173.32 179.92 168.62 179.92C163.92 179.92 153.59 181.3 150.27 180.12C149.54 179.86 148.96 179.34 149.95 176.4C152.13 166.63 168.9 147.72 166.41 120.23C165.14 106.2 166.27 94.1396 168.71 89.1696Z" fill="#232323" stroke="white" stroke-miterlimit="10"/>
<path vector-effect="non-scaling-stroke" d="M182.431 125.27C180.651 139.41 192.131 151.7 206.361 150.88L258.541 146.13L258.071 128.34L214.861 126C210.691 125.77 207.021 123.15 205.461 119.27L188.511 77.1396" fill="#232323"/>
<path vector-effect="non-scaling-stroke" d="M182.431 125.27C180.651 139.41 192.131 151.7 206.361 150.88L258.541 146.13L258.071 128.34L214.861 126C210.691 125.77 207.021 123.15 205.461 119.27L188.511 77.1396" stroke="white" stroke-miterlimit="10"/>
<path vector-effect="non-scaling-stroke" d="M195.441 74.2203C196.121 70.2403 196.981 65.3903 196.831 63.2103C196.071 52.0603 189.831 45.4103 193.421 40.6303C196.951 35.9403 202.571 36.7103 206.531 37.0803C210.491 37.4403 218.391 39.8203 219.741 47.4603C219.781 47.6903 219.821 47.9103 219.871 48.1403C220.821 49.1303 222.101 50.5403 223.141 51.9603C223.791 52.8403 223.071 54.0503 221.991 53.9103L221.571 53.8503C223.231 58.4703 224.881 62.2103 222.561 64.9803C219.251 68.9303 209.681 64.4603 209.681 64.4603L210.661 73.4703L213.481 94.3303L195.441 74.2203Z" fill="#404040" stroke="white" stroke-miterlimit="10"/>
<path vector-effect="non-scaling-stroke" d="M216.96 54.8203C216.96 54.8203 218.72 57.8203 222.53 56.7103" stroke="white" stroke-miterlimit="10"/>
<path vector-effect="non-scaling-stroke" d="M222.09 46.1201L203.99 47.8101" stroke="#E5E5DC" stroke-miterlimit="10"/>
<path vector-effect="non-scaling-stroke" d="M221.54 42.2002L222.63 50.2702" stroke="#E5E5DC" stroke-miterlimit="10"/>
<path vector-effect="non-scaling-stroke" d="M215.21 38.3802C216.56 38.7402 219.12 48.2502 204.1 48.3102C204.1 48.3102 199.92 49.7302 200.96 53.2702C200.96 53.2702 199.21 62.6802 193 58.7002C186.79 54.7202 190.07 41.8402 190.07 41.8402L194.24 35.2702L208.38 33.9502L215.21 38.3702V38.3802Z" fill="#232323"/>
<path vector-effect="non-scaling-stroke" d="M206.48 49.4401C206.48 49.4401 203.13 47.3301 201.5 49.6901C199.43 52.6801 203.2 55.3101 204.73 55.3101" fill="#404040"/>
<path vector-effect="non-scaling-stroke" d="M206.48 49.4401C206.48 49.4401 203.13 47.3301 201.5 49.6901C199.43 52.6801 203.2 55.3101 204.73 55.3101" stroke="white" stroke-miterlimit="10"/>
<path vector-effect="non-scaling-stroke" d="M106.66 272.95H122.09C126.89 272.95 130.79 276.85 130.79 281.65V332.3C130.79 337.1 126.89 341 122.09 341H106.66V272.95Z" fill="black"/>
<path vector-effect="non-scaling-stroke" d="M247.98 348.69L247.41 347.19L231.02 357.67H257.1L254.86 356.48C251.7 354.8 249.25 352.03 247.98 348.69Z" fill="#414040"/>
<path vector-effect="non-scaling-stroke" d="M247.02 312.56H199.35V357.67H247.02V312.56Z" fill="#414040"/>
<path vector-effect="non-scaling-stroke" d="M223.16 337.44C236.315 337.44 246.98 326.775 246.98 313.62C246.98 300.464 236.315 289.8 223.16 289.8C210.004 289.8 199.34 300.464 199.34 313.62C199.34 326.775 210.004 337.44 223.16 337.44Z" fill="#414040"/>
<path vector-effect="non-scaling-stroke" d="M188.98 362.14H171.62V375.6H188.98V362.14Z" fill="#414040"/>
<path vector-effect="non-scaling-stroke" d="M177.63 325.66H144.76V375.61H177.63V325.66Z" fill="#414040"/>
<path vector-effect="non-scaling-stroke" d="M161.19 339.92C170.264 339.92 177.62 332.564 177.62 323.49C177.62 314.416 170.264 307.06 161.19 307.06C152.116 307.06 144.76 314.416 144.76 323.49C144.76 332.564 152.116 339.92 161.19 339.92Z" fill="#414040"/>
<path vector-effect="non-scaling-stroke" d="M106.66 272.95H39.2197V341.17H106.66V272.95Z" fill="#202020"/>
<path vector-effect="non-scaling-stroke" d="M106.66 390.16H58.3097C47.7697 390.16 39.2197 381.61 39.2197 371.07V341H106.66V371.25C106.66 381.69 115.13 390.16 125.57 390.15H126.25H106.66V390.16Z" fill="#414040"/>
<path vector-effect="non-scaling-stroke" d="M48.6697 252.25C43.4497 252.25 39.2197 256.48 39.2197 261.7V272.94H106.66V252.25H48.6797H48.6697Z" fill="#414040"/>
<path vector-effect="non-scaling-stroke" d="M188.489 375.6C194.487 375.6 199.349 370.738 199.349 364.74C199.349 358.742 194.487 353.88 188.489 353.88C182.491 353.88 177.629 358.742 177.629 364.74C177.629 370.738 182.491 375.6 188.489 375.6Z" fill="black"/>
<path vector-effect="non-scaling-stroke" d="M223.099 289.69H159.289C149.109 289.69 138.539 296.99 136.359 306.89L161.279 306.94C170.319 306.96 177.629 314.29 177.629 323.32V364.74H199.349V312.87C199.349 300.07 209.729 289.68 222.529 289.68H223.099V289.69Z" fill="black"/>
<path vector-effect="non-scaling-stroke" d="M121.769 272.95H29.2494C24.3396 272.95 20.3594 276.93 20.3594 281.84V332.11C20.3594 337.02 24.3396 341 29.2494 341H121.769C126.679 341 130.659 337.02 130.659 332.11V281.84C130.659 276.93 126.679 272.95 121.769 272.95Z" fill="#020202" stroke="white" stroke-miterlimit="10"/>
<path vector-effect="non-scaling-stroke" d="M48.7295 252.25H106.659" stroke="white" stroke-miterlimit="10"/>
<path vector-effect="non-scaling-stroke" d="M58.2695 390.16H125.71" stroke="white" stroke-miterlimit="10"/>
<path vector-effect="non-scaling-stroke" d="M159.28 289.69H223.18" stroke="white" stroke-miterlimit="10"/>
<path vector-effect="non-scaling-stroke" d="M130.649 307.01H161.189" stroke="white" stroke-miterlimit="10"/>
<path vector-effect="non-scaling-stroke" d="M199.34 364.74C199.34 370.74 194.48 375.6 188.48 375.6C182.48 375.6 177.62 370.74 177.62 364.74" stroke="white" stroke-miterlimit="10"/>
<path vector-effect="non-scaling-stroke" d="M199.34 313.51C199.34 300.36 210 289.69 223.16 289.69C236.32 289.69 246.98 300.35 246.98 313.51" stroke="white" stroke-miterlimit="10"/>
<path vector-effect="non-scaling-stroke" d="M159.28 289.69C148.41 289.69 139.23 296.97 136.37 306.92L136.35 307" stroke="white" stroke-miterlimit="10"/>
<path vector-effect="non-scaling-stroke" d="M274.46 343.95C274.46 351.53 268.32 357.67 260.74 357.67C253.16 357.67 247.02 351.53 247.02 343.95" stroke="white" stroke-miterlimit="10"/>
<path vector-effect="non-scaling-stroke" d="M144.76 323.44C144.76 314.36 152.12 307.01 161.19 307.01C170.26 307.01 177.62 314.37 177.62 323.44" stroke="white" stroke-miterlimit="10"/>
<path vector-effect="non-scaling-stroke" d="M144.76 371.1C144.76 381.62 136.23 390.15 125.71 390.15C115.19 390.15 106.66 381.62 106.66 371.1" stroke="white" stroke-miterlimit="10"/>
<path vector-effect="non-scaling-stroke" d="M58.2697 390.16C47.7497 390.16 39.2197 381.63 39.2197 371.11" stroke="white" stroke-miterlimit="10"/>
<path vector-effect="non-scaling-stroke" d="M39.2197 261.77C39.2197 256.52 43.4797 252.26 48.7297 252.26" stroke="white" stroke-miterlimit="10"/>
<path vector-effect="non-scaling-stroke" d="M39.2197 261.77V371.1" stroke="white" stroke-miterlimit="10"/>
<path vector-effect="non-scaling-stroke" d="M106.66 252.25V371.1" stroke="white" stroke-miterlimit="10"/>
<path vector-effect="non-scaling-stroke" d="M199.34 364.74V313.51" stroke="white" stroke-miterlimit="10"/>
<path vector-effect="non-scaling-stroke" d="M247.02 313.62V343.95" stroke="white" stroke-miterlimit="10"/>
<path vector-effect="non-scaling-stroke" d="M144.76 371.1V323.44" stroke="white" stroke-miterlimit="10"/>
<path vector-effect="non-scaling-stroke" d="M177.63 323.44V364.74" stroke="white" stroke-miterlimit="10"/>
<path vector-effect="non-scaling-stroke" d="M260.74 357.67H199.34" stroke="white" stroke-miterlimit="10"/>
<path vector-effect="non-scaling-stroke" d="M188.48 375.6H144.76" stroke="white" stroke-miterlimit="10"/>
<path vector-effect="non-scaling-stroke" d="M20.3598 295.83H14.0498V318.11H20.3598V295.83Z" stroke="white" stroke-miterlimit="10"/>
<path vector-effect="non-scaling-stroke" d="M32.5993 298.96H29.0693V314.99H32.5993V298.96Z" stroke="white" stroke-miterlimit="10"/>
<path vector-effect="non-scaling-stroke" d="M117.07 311C119.296 311 121.1 309.196 121.1 306.97C121.1 304.745 119.296 302.94 117.07 302.94C114.844 302.94 113.04 304.745 113.04 306.97C113.04 309.196 114.844 311 117.07 311Z" stroke="white" stroke-miterlimit="10"/>
<path vector-effect="non-scaling-stroke" d="M85.6602 263.72H98.4402" stroke="white" stroke-miterlimit="10"/>
<path vector-effect="non-scaling-stroke" d="M50.5996 263.72H76.5496" stroke="white" stroke-miterlimit="10"/>
<path vector-effect="non-scaling-stroke" d="M90.21 350.23H98.44" stroke="white" stroke-miterlimit="10"/>
<path vector-effect="non-scaling-stroke" d="M50.5996 350.23H76.5496" stroke="white" stroke-miterlimit="10"/>
<path vector-effect="non-scaling-stroke" d="M68.9502 359.45H98.4402" stroke="white" stroke-miterlimit="10"/>
<path vector-effect="non-scaling-stroke" d="M50.5996 359.45H56.3496" stroke="white" stroke-miterlimit="10"/>
<path vector-effect="non-scaling-stroke" d="M93.25 368.68H98.44" stroke="white" stroke-miterlimit="10"/>
<path vector-effect="non-scaling-stroke" d="M74.5195 368.68H80.9495" stroke="white" stroke-miterlimit="10"/>
<path vector-effect="non-scaling-stroke" d="M50.5996 368.68H64.5496" stroke="white" stroke-miterlimit="10"/>
<path vector-effect="non-scaling-stroke" d="M88.6895 377.91H98.4395" stroke="white" stroke-miterlimit="10"/>
<path vector-effect="non-scaling-stroke" d="M56.3496 377.91H74.5196" stroke="white" stroke-miterlimit="10"/>
<path vector-effect="non-scaling-stroke" d="M73.0901 327.44C84.3954 327.44 93.5601 318.275 93.5601 306.97C93.5601 295.665 84.3954 286.5 73.0901 286.5C61.7848 286.5 52.6201 295.665 52.6201 306.97C52.6201 318.275 61.7848 327.44 73.0901 327.44Z" fill="#A100FF" stroke="white" stroke-miterlimit="10"/>
<path vector-effect="non-scaling-stroke" d="M72.9697 316.77V320.71" stroke="white" stroke-miterlimit="10"/>
<path vector-effect="non-scaling-stroke" d="M72.9697 293.56V297.5" stroke="white" stroke-miterlimit="10"/>
<path vector-effect="non-scaling-stroke" d="M79.22 302.139C79.1 299.489 76.44 297.489 72.91 297.489C70.11 297.489 67.08 299.269 67.08 302.139C67.08 304.769 69.8 307.079 72.91 307.079C76.51 307.079 79.22 309.229 79.22 312.079C79.22 314.159 77.34 316.009 74.64 316.579C74.11 316.689 73.56 316.769 73.01 316.769C72.46 316.769 71.88 316.699 71.33 316.579C68.76 315.999 66.96 314.149 66.96 312.079" stroke="white" stroke-miterlimit="10"/>
<path vector-effect="non-scaling-stroke" d="M295.141 99.1201H344.551V125.67H311.001L301.781 134.88V125.67H295.141V99.1201Z" fill="#020202" stroke="white" stroke-miterlimit="10"/>
<path vector-effect="non-scaling-stroke" d="M320.731 84.4307H275.351V113.621H306.161L314.631 122.091V113.621H320.731V84.4307Z" fill="#020202" stroke="white" stroke-miterlimit="10"/>
<path vector-effect="non-scaling-stroke" d="M301.32 57.6904H355.51V86.8104H318.71L308.6 96.9204V86.8104H301.32V57.6904Z" fill="#A100FF" stroke="white" stroke-miterlimit="10"/>
</g>
<defs>
<clipPath id="clip0_394_3832">
<rect width="595" height="396.67" fill="white"/>
</clipPath>
</defs>
</svg>
