<svg width="802" height="535" viewBox="0 0 802 535" fill="none" xmlns="http://www.w3.org/2000/svg">
<g clip-path="url(#clip0_21_15597)">
<path vector-effect="non-scaling-stroke" d="M606.787 287.212H533.093V411.071H606.787V287.212Z" fill="#020202" stroke="white" stroke-width="1.34761" stroke-miterlimit="10"/>
<path vector-effect="non-scaling-stroke" d="M689.029 181.957H615.334V392.222H689.029V181.957Z" fill="#020202" stroke="white" stroke-width="1.34761" stroke-miterlimit="10"/>
<path d="M734.416 1.06152L668.288 79.9958H697.562V392.222L770.812 392.172L771.27 79.9958H800.544L734.416 1.06152Z" fill="#020202" stroke="white" stroke-width="1.34761" stroke-miterlimit="10"/>
<path d="M257.829 397.434H326.72V301.91" stroke="white" stroke-width="1.34761" stroke-linecap="round" stroke-linejoin="round"/>
<path vector-effect="non-scaling-stroke" d="M332.3 301.91V315.438H338.669V331.361H345.828V372.761H355.381V328.176L365.725 318.622V403.001H351.394L351.652 450.293" stroke="white" stroke-width="1.34761" stroke-linecap="round" stroke-linejoin="round"/>
<path vector-effect="non-scaling-stroke" d="M332.3 293.146V297.922" stroke="white" stroke-width="1.34761" stroke-linecap="round" stroke-linejoin="round"/>
<path vector-effect="non-scaling-stroke" d="M473.987 299.515V307.476L464.433 312.253V320.215L470.802 322.61L467.618 375.142H454.879V307.476L438.167 289.961V344.888L430.206 352.85V380.708L449.313 399.816V450.293" stroke="white" stroke-width="1.34761" stroke-linecap="round" stroke-linejoin="round"/>
<path vector-effect="non-scaling-stroke" d="M473.987 290.764V295.541" stroke="white" stroke-width="1.34761" stroke-linecap="round" stroke-linejoin="round"/>
<path vector-effect="non-scaling-stroke" d="M478.764 309.871L484.33 312.253V320.214L477.975 322.609L482.003 388.669" stroke="white" stroke-width="1.34761" stroke-linecap="round" stroke-linejoin="round"/>
<path vector-effect="non-scaling-stroke" d="M500.253 308.279V336.138H493.095V403.803H477.975L478.587 469.319" stroke="white" stroke-width="1.34761" stroke-linecap="round" stroke-linejoin="round"/>
<path vector-effect="non-scaling-stroke" d="M509.807 317.03V358.43H516.176V397.434H549.451V451.327" stroke="white" stroke-width="1.34761" stroke-linecap="round" stroke-linejoin="round"/>
<path vector-effect="non-scaling-stroke" d="M509.807 308.279V313.056" stroke="white" stroke-width="1.34761" stroke-linecap="round" stroke-linejoin="round"/>
<path vector-effect="non-scaling-stroke" d="M376.081 431.648C379.155 431.648 381.648 429.156 381.648 426.082C381.648 423.008 379.155 420.516 376.081 420.516C373.007 420.516 370.515 423.008 370.515 426.082C370.515 429.156 373.007 431.648 376.081 431.648Z" stroke="white" stroke-width="1.34761" stroke-linecap="round" stroke-linejoin="round"/>
<path vector-effect="non-scaling-stroke" d="M432.601 431.648C435.675 431.648 438.167 429.156 438.167 426.082C438.167 423.008 435.675 420.516 432.601 420.516C429.527 420.516 427.035 423.008 427.035 426.082C427.035 429.156 429.527 431.648 432.601 431.648Z" stroke="white" stroke-width="1.34761" stroke-linecap="round" stroke-linejoin="round"/>
<path vector-effect="non-scaling-stroke" d="M376.081 353.653V350.523C376.081 340.152 379.048 329.945 384.9 321.385C388.697 315.819 393.27 311.233 398.373 308.279V394.25H407.927V330.571H419.863V385.499L432.601 398.237V420.529" stroke="white" stroke-width="1.34761" stroke-linecap="round" stroke-linejoin="round"/>
<path vector-effect="non-scaling-stroke" d="M376.081 420.516V357.627" stroke="white" stroke-width="1.34761" stroke-linecap="round" stroke-linejoin="round"/>
<path vector-effect="non-scaling-stroke" d="M55.812 25.94C65.9646 36.0926 65.9646 52.5463 55.812 62.6853C45.6594 72.8379 29.2057 72.8379 19.0667 62.6853C0.680481 44.3127 0.680481 7.56738 0.680481 7.56738C0.680481 7.56738 37.4258 7.56738 55.812 25.94Z" stroke="white" stroke-width="1.34761" stroke-miterlimit="10"/>
<path vector-effect="non-scaling-stroke" d="M81.2615 25.94C71.1089 36.0925 71.1089 52.5463 81.2615 62.6852C91.4141 72.8378 107.868 72.8378 118.007 62.6852C136.379 44.3126 136.379 7.55371 136.379 7.55371C136.379 7.55371 99.6342 7.55371 81.2479 25.9264L81.2615 25.94Z" stroke="white" stroke-width="1.34761" stroke-miterlimit="10"/>
<path vector-effect="non-scaling-stroke" d="M30.2808 37.1543C47.8097 53.4583 67.5569 66.5914 67.0942 108.617" stroke="white" stroke-width="1.34761" stroke-miterlimit="10"/>
<path vector-effect="non-scaling-stroke" d="M103.907 37.1543C86.3786 53.4583 66.6314 66.5914 67.0942 108.617" stroke="white" stroke-width="1.34761" stroke-miterlimit="10"/>
<path vector-effect="non-scaling-stroke" d="M136.379 143.267V151.922C136.379 171.111 120.933 186.572 101.73 186.572C82.5272 186.572 67.0806 171.125 67.0806 151.922V108.617" stroke="white" stroke-width="1.34761" stroke-miterlimit="10"/>
<path vector-effect="non-scaling-stroke" d="M159.488 120.171C159.488 132.923 149.145 143.266 136.393 143.266C123.641 143.266 113.298 132.923 113.298 120.171V94.1904H159.502V120.171H159.488Z" fill="#404040" stroke="white" stroke-width="1.34761" stroke-miterlimit="10"/>
<path vector-effect="non-scaling-stroke" d="M124.839 94.1773V76.8525" stroke="white" stroke-width="1.34761" stroke-miterlimit="10"/>
<path vector-effect="non-scaling-stroke" d="M147.934 94.1773V76.8525" stroke="white" stroke-width="1.34761" stroke-miterlimit="10"/>
<path vector-effect="non-scaling-stroke" d="M257.993 294.615H34.4861V397.829H257.993V294.615Z" stroke="white" stroke-width="1.34761" stroke-linecap="round" stroke-linejoin="round"/>
<path vector-effect="non-scaling-stroke" d="M35.2346 343.037H257.993" stroke="white" stroke-width="1.34761" stroke-linecap="round" stroke-linejoin="round"/>
<path vector-effect="non-scaling-stroke" d="M35.6021 319.411H257.993" stroke="white" stroke-width="1.34761" stroke-linecap="round" stroke-linejoin="round"/>
<path vector-effect="non-scaling-stroke" d="M122.267 296.207V396.971" stroke="white" stroke-width="1.34761" stroke-linecap="round" stroke-linejoin="round"/>
<path vector-effect="non-scaling-stroke" d="M169.083 296.207V396.971" stroke="white" stroke-width="1.34761" stroke-linecap="round" stroke-linejoin="round"/>
<path vector-effect="non-scaling-stroke" d="M215.885 296.207V396.971" stroke="white" stroke-width="1.34761" stroke-linecap="round" stroke-linejoin="round"/>
<path vector-effect="non-scaling-stroke" d="M75.4504 294.982V395.746" stroke="white" stroke-width="1.34761" stroke-linecap="round" stroke-linejoin="round"/>
<path vector-effect="non-scaling-stroke" d="M145.525 343.826V396.372" stroke="white" stroke-width="1.34761" stroke-linecap="round" stroke-linejoin="round"/>
<path vector-effect="non-scaling-stroke" d="M138.448 370.515H144.314" stroke="white" stroke-width="1.34761" stroke-linecap="round" stroke-linejoin="round"/>
<path vector-effect="non-scaling-stroke" d="M551.406 398.094L618.546 367.997V385.471L658.149 367.208V384.355L696.16 366.812V384.355L732.184 367.739V384.914L770.835 367.086V384.355V503.792H35.2347V397.829" fill="#020202"/>
<path vector-effect="non-scaling-stroke" d="M549.298 396.794C548.956 396.94 548.797 397.336 548.943 397.678C549.089 398.021 549.485 398.18 549.827 398.034L549.298 396.794ZM618.546 367.997H619.22V366.977L618.282 367.377L618.546 367.997ZM618.546 385.471H617.872V386.524L618.828 386.083L618.546 385.471ZM658.149 367.208H658.823V366.155L657.867 366.596L658.149 367.208ZM658.149 384.355H657.475V385.409L658.431 384.967L658.149 384.355ZM696.16 366.812H696.834V365.759L695.878 366.201L696.16 366.812ZM696.16 384.355H695.486V385.408L696.442 384.967L696.16 384.355ZM732.184 367.739H732.858V366.686L731.902 367.127L732.184 367.739ZM732.184 384.914H731.51V385.966L732.466 385.525L732.184 384.914ZM770.835 367.086H771.509V366.033L770.553 366.474L770.835 367.086ZM770.835 503.792V504.465H771.509V503.792H770.835ZM35.2347 503.792H34.5609V504.465H35.2347V503.792ZM549.827 398.034L618.81 368.616L618.282 367.377L549.298 396.794L549.827 398.034ZM617.872 367.997V385.471H619.22V367.997H617.872ZM618.828 386.083L658.431 367.819L657.867 366.596L618.264 384.86L618.828 386.083ZM657.475 367.208V384.355H658.823V367.208H657.475ZM658.431 384.967L696.442 367.424L695.878 366.201L657.867 383.744L658.431 384.967ZM695.486 366.812V384.355H696.834V366.812H695.486ZM696.442 384.967L732.466 368.35L731.902 367.127L695.878 383.744L696.442 384.967ZM731.51 367.739V384.914H732.858V367.739H731.51ZM732.466 385.525L771.117 367.697L770.553 366.474L731.902 384.302L732.466 385.525ZM770.161 367.086V384.355H771.509V367.086H770.161ZM770.161 384.355V503.792H771.509V384.355H770.161ZM770.835 503.118H35.2347V504.465H770.835V503.118ZM35.9085 503.792V397.829H34.5609V503.792H35.9085Z" fill="white"/>    
<path xmlns="http://www.w3.org/2000/svg" vector-effect="non-scaling-stroke" d="M115.135 439.106L106.18 468.421L173.805 468.203C175.425 463.739 167.327 459.071 164.605 458.704C154.562 457.329 147.485 449.436 148.369 440.985L115.135 439.106Z" fill="#020202" stroke="white" stroke-width="1.34761" stroke-miterlimit="10"/>
<path vector-effect="non-scaling-stroke" d="M122.484 458.105C124.882 458.105 126.826 456.161 126.826 453.763C126.826 451.366 124.882 449.422 122.484 449.422C120.087 449.422 118.143 451.366 118.143 453.763C118.143 456.161 120.087 458.105 122.484 458.105Z" fill="#020202" stroke="white" stroke-width="1.34761" stroke-miterlimit="10"/>
<path vector-effect="non-scaling-stroke" d="M240.382 438.671L239.008 468.421L306.633 468.203C308.252 463.739 300.155 459.071 297.433 458.704C287.389 457.329 272.038 448.973 272.922 440.508L240.369 438.671H240.382Z" fill="#020202" stroke="white" stroke-width="1.34761" stroke-miterlimit="10"/>
<path vector-effect="non-scaling-stroke" d="M252.1 458.105C254.498 458.105 256.441 456.161 256.441 453.763C256.441 451.366 254.498 449.422 252.1 449.422C249.702 449.422 247.759 451.366 247.759 453.763C247.759 456.161 249.702 458.105 252.1 458.105Z" fill="#020202" stroke="white" stroke-width="1.34761" stroke-miterlimit="10"/>
<path vector-effect="non-scaling-stroke" d="M319.589 142.028C314.376 147.022 232.72 221.139 228.76 217.328C224.418 213.15 204.127 195.662 207.529 189.062C209.203 185.809 212.81 184.121 216.09 182.502C236.544 172.445 285.974 134.651 303.924 115.775C304.156 115.53 318.391 140.612 319.575 142.028H319.589Z" fill="#202020" stroke="white" stroke-width="1.34761" stroke-miterlimit="10"/>
<path vector-effect="non-scaling-stroke" d="M286.531 231.536L412.411 193.243L374.117 67.3635L248.238 105.657L286.531 231.536Z" fill="#202020" stroke="white" stroke-width="1.34761" stroke-miterlimit="10"/>
<path vector-effect="non-scaling-stroke" d="M355.096 221.37C355.096 221.37 355.136 221.302 355.136 221.275C356.497 218.743 358.158 214.565 361.778 212.932C366.732 210.687 376.952 208.523 381.008 204.903C381.402 204.549 381.824 204.018 381.62 203.528C381.484 203.188 381.089 203.011 380.708 203.025C380.395 203.025 379.32 203.161 378.245 203.338C378.095 203.365 377.946 203.406 377.796 203.419H377.619C377.116 203.542 376.598 203.623 376.095 203.691C373.346 204.113 370.569 204.413 367.766 204.59L377.619 203.433C377.823 203.406 378.041 203.365 378.259 203.324C379.252 203.12 380.246 202.875 381.212 202.548C382.845 201.99 384.397 201.174 385.621 200.003C385.975 199.663 386.315 199.214 386.22 198.71C386.125 198.316 385.771 198.016 385.404 197.839C384.424 197.336 383.267 197.39 382.205 197.581C378.109 198.316 376.394 198.955 368.596 199.704C373.319 199.146 383.743 197.186 387.595 195.131C388.085 194.886 388.575 194.573 388.806 194.083C389.105 193.457 388.874 192.654 388.384 192.192C387.881 191.702 387.173 191.497 386.479 191.484C385.785 191.457 385.104 191.62 384.424 191.756C380.872 192.505 376.421 194.042 367.888 195.063C371.209 191.579 389.827 188.231 386.942 185.645C384.056 183.06 365.33 189.742 361.301 192.192C357.259 194.641 356.933 192.818 356.933 192.818C360.417 180.556 357.028 180.896 357.028 180.896C355.3 180.828 354.919 181.1 353.762 183.264C352.782 185.087 352.292 189.592 351.489 191.511C346.236 204.018 348.114 201.133 342.112 205.243" fill="#202020"/>
<path vector-effect="non-scaling-stroke" d="M355.681 221.711C356.974 219.111 358.294 216.145 360.689 214.362C361.846 213.491 363.275 213.014 364.622 212.538C366.051 212.034 367.48 211.572 368.923 211.095C371.971 210.088 375.047 209.095 377.918 207.68C379.089 207.108 380.218 206.441 381.226 205.611C381.77 205.162 382.369 204.549 382.355 203.787C382.342 203.025 381.675 202.453 380.94 202.372C380.123 202.277 379.198 202.508 378.395 202.644C377.36 202.821 376.326 203.011 375.278 203.161C372.788 203.529 370.27 203.774 367.766 203.937V205.298C371.046 204.917 374.339 204.577 377.619 204.141C379.606 203.882 381.62 203.297 383.417 202.399C384.682 201.759 387.2 200.398 386.887 198.656C386.574 196.914 383.961 196.683 382.559 196.874C381.334 197.037 380.11 197.323 378.898 197.568C375.482 198.262 372.053 198.725 368.582 199.065V200.426C371.468 200.072 374.339 199.568 377.184 198.969C380.205 198.343 383.281 197.649 386.166 196.533C387.254 196.112 388.711 195.622 389.323 194.56C390.153 193.131 389.078 191.525 387.676 191.035C386.275 190.545 384.546 191.035 383.09 191.389C381.947 191.661 380.804 191.961 379.66 192.246C375.782 193.213 371.849 193.934 367.875 194.424L368.351 195.581C369.304 194.615 370.706 194.057 371.93 193.539C373.781 192.764 375.687 192.124 377.592 191.484C379.497 190.845 381.307 190.26 383.144 189.565C384.437 189.075 385.853 188.572 386.969 187.728C387.731 187.143 388.289 186.19 387.54 185.347C386.792 184.503 385.499 184.421 384.465 184.421C380.586 184.421 376.598 185.687 372.937 186.844C369.277 188 365.561 189.293 362.118 191.008C361.356 191.389 360.648 191.852 359.886 192.233C359.246 192.559 358.294 192.981 357.654 192.764C357.64 192.764 357.532 192.709 357.559 192.641C357.382 193.09 357.641 192.614 357.586 192.696L357.668 192.723C357.79 192.464 357.845 192.07 357.926 191.784C358.307 190.341 358.648 188.899 358.879 187.429C359.138 185.796 359.369 184.054 359.015 182.407C358.852 181.686 358.525 180.896 357.872 180.502C357.423 180.229 356.892 180.229 356.375 180.257C354.238 180.365 353.19 182.529 352.605 184.367C351.843 186.762 351.68 189.334 350.7 191.675C349.72 194.016 348.767 196.438 347.747 198.793C347.311 199.772 346.848 200.888 346.154 201.651C345.501 202.358 344.684 202.807 343.841 203.338C343.147 203.787 342.452 204.236 341.758 204.699C341.037 205.189 341.718 206.373 342.439 205.869C344.249 204.631 346.535 203.624 347.774 201.732C348.522 200.575 349.026 199.242 349.543 197.976C350.033 196.819 350.496 195.649 350.986 194.492C351.489 193.254 352.101 192.029 352.469 190.749C353.122 188.477 353.245 185.932 354.265 183.795C354.646 183.019 355.164 181.794 356.13 181.645C356.443 181.59 356.797 181.59 357.11 181.645C356.974 181.631 356.974 181.59 357.11 181.645C357.246 181.699 356.974 181.577 357.069 181.631C357.11 181.658 357.164 181.672 357.205 181.713C357.096 181.631 357.259 181.74 357.327 181.849C357.287 181.794 357.423 181.999 357.491 182.135C357.926 183.019 357.845 184.53 357.749 185.619C357.641 186.83 357.423 188.014 357.151 189.198C356.987 189.947 356.797 190.695 356.606 191.444C356.484 191.933 356.157 192.573 356.266 193.077C356.511 194.179 357.858 194.315 358.756 194.125C360.458 193.771 361.914 192.614 363.465 191.893C365.017 191.171 366.704 190.504 368.351 189.878C372.284 188.422 376.313 187.116 380.436 186.286C381.96 185.986 383.539 185.714 385.104 185.823C385.553 185.85 386.002 185.945 386.356 186.136C386.533 186.231 386.438 186.272 386.56 186.34C386.492 186.313 386.56 186.258 386.56 186.258C386.397 186.462 386.111 186.735 385.757 186.952C385.199 187.293 384.601 187.565 384.002 187.81C382.355 188.504 380.64 189.075 378.953 189.633C375.564 190.777 371.903 191.743 368.814 193.58C368.31 193.88 367.807 194.22 367.398 194.642C367.031 195.023 367.262 195.88 367.875 195.799C371.168 195.39 374.434 194.859 377.66 194.125C379.783 193.648 381.892 193.063 384.015 192.573C384.723 192.41 385.431 192.233 386.152 192.206C386.955 192.178 388.547 192.573 388.207 193.73C387.935 194.628 386.057 195.132 385.268 195.417C382.668 196.356 379.96 196.983 377.265 197.554C374.394 198.167 371.481 198.697 368.555 199.051C367.698 199.16 367.671 200.494 368.555 200.412C371.522 200.126 374.489 199.772 377.415 199.228C378.368 199.051 379.307 198.847 380.259 198.656C381.579 198.398 383.09 197.908 384.41 198.235C384.791 198.33 385.526 198.561 385.458 199.092C385.417 199.432 384.723 199.881 384.465 200.099C383.662 200.725 382.75 201.229 381.797 201.61C380.436 202.168 378.926 202.576 377.469 202.78C375.863 202.998 374.258 203.161 372.652 203.352C371.046 203.542 369.372 203.733 367.725 203.937C366.881 204.032 366.84 205.352 367.725 205.298C371.536 205.053 375.265 204.468 379.034 203.91C379.456 203.842 379.878 203.787 380.314 203.746C380.395 203.746 380.627 203.678 380.681 203.719C380.899 203.869 380.586 204.332 380.504 204.427C380.123 204.862 379.511 205.203 379.021 205.516C377.85 206.237 376.598 206.836 375.333 207.366C372.57 208.523 369.698 209.408 366.868 210.347C364.445 211.15 361.682 211.844 359.655 213.45C357.219 215.369 355.83 218.322 354.483 221.044C354.102 221.82 355.272 222.514 355.654 221.724L355.681 221.711Z" fill="white"/>
<path vector-effect="non-scaling-stroke" d="M367.753 204.604C370.556 204.427 373.346 204.128 376.081 203.706C376.599 203.624 377.102 203.556 377.606 203.447L367.753 204.604Z" fill="#202020"/>
<path vector-effect="non-scaling-stroke" d="M367.752 205.285C371.1 205.067 374.503 204.754 377.796 204.1C378.531 203.951 378.381 202.672 377.619 202.767C374.748 203.107 371.862 203.447 368.991 203.774L367.766 203.924C367.398 203.964 367.085 204.209 367.085 204.604C367.085 204.944 367.398 205.325 367.766 205.285C370.637 204.944 373.523 204.604 376.394 204.277L377.619 204.128L377.442 202.794C374.271 203.434 370.991 203.719 367.766 203.924C366.895 203.978 366.895 205.339 367.766 205.285H367.752Z" fill="white"/>
<path vector-effect="non-scaling-stroke" d="M384.492 196.343C378.994 198.479 373.128 199.677 367.221 199.868Z" fill="#202020"/>
<path vector-effect="non-scaling-stroke" d="M384.315 195.689C378.844 197.799 373.087 198.983 367.221 199.187C366.35 199.214 366.35 200.575 367.221 200.548C373.196 200.344 379.089 199.146 384.669 197.009C385.472 196.696 385.131 195.376 384.301 195.703L384.315 195.689Z" fill="white"/>
<path vector-effect="non-scaling-stroke" d="M218.73 184.924L217.382 172.785C217.382 172.785 230.189 178.61 234.585 173.207C237.674 169.41 235.442 164.402 233.21 158.196L233.768 158.264C235.224 158.441 236.177 156.78 235.306 155.61C233.904 153.718 232.189 151.84 230.91 150.52C230.856 150.221 230.788 149.908 230.733 149.622C228.882 139.347 218.335 136.312 213.041 135.904C207.747 135.495 200.248 134.57 195.553 140.98C190.776 147.512 199.146 156.345 200.207 171.383C200.425 174.472 199.976 179.086 197.173 185.619L218.716 184.924H218.73Z" fill="#202020" stroke="white" stroke-width="1.34761" stroke-miterlimit="10"/>
<path vector-effect="non-scaling-stroke" d="M236.163 419.455C236.231 421.02 236.762 433.132 237.17 444.809H288.423C287.062 417.863 284.313 375.374 283.483 368.964C282.422 360.717 281.224 352.334 277.645 344.835C274.773 338.819 270.473 333.634 266.226 328.504C254.795 314.731 243.363 300.958 231.944 287.185C221.384 274.447 215.518 264.376 200.167 257.177C190.749 252.754 179.303 248.127 169.818 254.196C166.32 256.442 163.258 259.463 160.849 262.947L104.234 444.823H160.849C171.26 419.319 184.094 362.5 194.532 335.24C195.961 336.22 197.349 337.132 198.697 337.989C207.067 343.338 215.899 348.128 223.153 354.906C223.779 355.491 224.378 356.103 224.949 356.716C239.743 372.748 235.252 398.687 236.163 419.455Z" fill="#020202" stroke="white" stroke-width="1.34761"/>
<path vector-effect="non-scaling-stroke" d="M363.234 225.671C356.293 215.232 349.978 205.148 341.119 196.261C325.155 207.298 305.231 217.913 285.198 217.777C268.281 217.655 246.452 201.636 232.516 192.831C230.937 191.838 229.399 190.681 227.862 189.483C227.685 189.225 227.508 188.98 227.331 188.721C218.226 176.187 197.975 179.181 186.789 187.632C181.835 191.375 178.119 196.9 175.016 202.194C169.872 210.972 162.605 256.877 158.304 266.09L160.849 267.547C161.734 267.982 162.618 268.377 163.489 268.744C184.842 277.781 208.387 281.605 231.509 279.781C233.782 266.771 235.061 253.583 235.347 240.369C249.446 247.105 262.13 256.686 278.461 255.802C295.16 254.903 311.437 249.569 326.951 243.281C330.054 242.015 364.078 226.923 363.248 225.671H363.234Z" fill="#202020" stroke="white" stroke-width="1.34761" stroke-miterlimit="10"/>
<path vector-effect="non-scaling-stroke" d="M221.166 134.039C215.096 130.555 208.155 131.78 202.684 135.495C201.024 128.092 193.906 123.124 186.285 124.254C178.296 125.438 172.785 132.868 173.969 140.857C175.153 148.846 182.583 154.358 190.572 153.174C191.416 153.051 192.232 152.861 193.008 152.602C193.008 152.67 193.008 152.752 193.008 152.82C193.185 158.182 195.567 162.469 198.874 166.592C199.268 167.096 206.522 161.162 206.019 149.799C207.584 150.874 210.727 150.846 212.578 150.819C216.389 150.751 221.452 150.356 224.582 147.893C230.189 143.484 226.106 136.87 221.152 134.039H221.166Z" fill="#A2A2A0" stroke="white" stroke-width="1.34761" stroke-miterlimit="10"/>
<path vector-effect="non-scaling-stroke" d="M234.367 161.584C229.536 163.054 227.317 159.284 227.29 159.243" stroke="white" stroke-width="1.34761" stroke-miterlimit="10"/>
<path vector-effect="non-scaling-stroke" d="M481.989 162.373C507.717 162.373 528.574 141.516 528.574 115.788C528.574 90.0599 507.717 69.2031 481.989 69.2031C456.261 69.2031 435.404 90.0599 435.404 115.788C435.404 141.516 456.261 162.373 481.989 162.373Z" stroke="white" stroke-width="1.34761" stroke-miterlimit="10"/>
<path vector-effect="non-scaling-stroke" d="M495.953 171.232C491.489 172.348 486.807 172.947 481.989 172.947C478.301 172.947 474.681 172.593 471.184 171.927" stroke="white" stroke-width="1.34761" stroke-miterlimit="10"/>
<path vector-effect="non-scaling-stroke" d="M536.74 99.2803C538.319 104.506 539.162 110.045 539.162 115.788C539.162 134.637 530.044 151.35 515.972 161.761" stroke="white" stroke-width="1.34761" stroke-miterlimit="10"/>
<path vector-effect="non-scaling-stroke" d="M451.749 67.2572C460.514 61.7862 470.884 58.6152 481.976 58.6152C495.912 58.6152 508.691 63.6099 518.612 71.898" stroke="white" stroke-width="1.34761" stroke-miterlimit="10"/>
<path vector-effect="non-scaling-stroke" d="M443.611 158.154C432.07 147.688 424.816 132.582 424.816 115.788C424.816 108.33 426.245 101.212 428.831 94.6934" stroke="white" stroke-width="1.34761" stroke-miterlimit="10"/>
<path vector-effect="non-scaling-stroke" d="M450.443 128.608V115.788H388.86" stroke="white" stroke-width="1.34761" stroke-miterlimit="10"/>
<path vector-effect="non-scaling-stroke" d="M504.853 106.112C506.657 106.112 508.119 104.649 508.119 102.845C508.119 101.041 506.657 99.5791 504.853 99.5791C503.049 99.5791 501.587 101.041 501.587 102.845C501.587 104.649 503.049 106.112 504.853 106.112Z" fill="#A0A09E"/>
<path vector-effect="non-scaling-stroke" d="M453.94 97.0755C455.744 97.0755 457.207 95.6131 457.207 93.8092C457.207 92.0053 455.744 90.543 453.94 90.543C452.137 90.543 450.674 92.0053 450.674 93.8092C450.674 95.6131 452.137 97.0755 453.94 97.0755Z" fill="#A0A09E"/>
<path vector-effect="non-scaling-stroke" d="M450.443 135.127C452.247 135.127 453.709 133.665 453.709 131.861C453.709 130.057 452.247 128.595 450.443 128.595C448.639 128.595 447.177 130.057 447.177 131.861C447.177 133.665 448.639 135.127 450.443 135.127Z" fill="#A0A09E"/>
<path vector-effect="non-scaling-stroke" d="M492.264 150.697C494.068 150.697 495.531 149.234 495.531 147.43C495.531 145.626 494.068 144.164 492.264 144.164C490.461 144.164 488.998 145.626 488.998 147.43C488.998 149.234 490.461 150.697 492.264 150.697Z" fill="#A0A09E"/>
<path vector-effect="non-scaling-stroke" d="M504.853 106.112C506.657 106.112 508.119 104.649 508.119 102.845C508.119 101.041 506.657 99.5791 504.853 99.5791C503.049 99.5791 501.587 101.041 501.587 102.845C501.587 104.649 503.049 106.112 504.853 106.112Z" stroke="white" stroke-width="1.34761" stroke-miterlimit="10"/>
<path vector-effect="non-scaling-stroke" d="M485.882 93.4417C487.685 93.4417 489.148 91.9793 489.148 90.1754C489.148 88.3715 487.685 86.9092 485.882 86.9092C484.078 86.9092 482.615 88.3715 482.615 90.1754C482.615 91.9793 484.078 93.4417 485.882 93.4417Z" stroke="white" stroke-width="1.34761" stroke-miterlimit="10"/>
<path vector-effect="non-scaling-stroke" d="M468.543 104.193C470.347 104.193 471.81 102.73 471.81 100.926C471.81 99.1225 470.347 97.6602 468.543 97.6602C466.739 97.6602 465.277 99.1225 465.277 100.926C465.277 102.73 466.739 104.193 468.543 104.193Z" stroke="white" stroke-width="1.34761" stroke-miterlimit="10"/>
<path vector-effect="non-scaling-stroke" d="M453.94 97.0755C455.744 97.0755 457.207 95.6131 457.207 93.8092C457.207 92.0053 455.744 90.543 453.94 90.543C452.137 90.543 450.674 92.0053 450.674 93.8092C450.674 95.6131 452.137 97.0755 453.94 97.0755Z" stroke="white" stroke-width="1.34761" stroke-miterlimit="10"/>
<path vector-effect="non-scaling-stroke" d="M450.443 135.127C452.247 135.127 453.709 133.665 453.709 131.861C453.709 130.057 452.247 128.595 450.443 128.595C448.639 128.595 447.177 130.057 447.177 131.861C447.177 133.665 448.639 135.127 450.443 135.127Z" stroke="white" stroke-width="1.34761" stroke-miterlimit="10"/>
<path vector-effect="non-scaling-stroke" d="M464.42 147.866C466.224 147.866 467.686 146.403 467.686 144.599C467.686 142.795 466.224 141.333 464.42 141.333C462.616 141.333 461.153 142.795 461.153 144.599C461.153 146.403 462.616 147.866 464.42 147.866Z" stroke="white" stroke-width="1.34761" stroke-miterlimit="10"/>
<path vector-effect="non-scaling-stroke" d="M492.264 150.697C494.068 150.697 495.531 149.234 495.531 147.43C495.531 145.626 494.068 144.164 492.264 144.164C490.461 144.164 488.998 145.626 488.998 147.43C488.998 149.234 490.461 150.697 492.264 150.697Z" stroke="white" stroke-width="1.34761" stroke-miterlimit="10"/>
<path vector-effect="non-scaling-stroke" d="M464.42 141.333V126.458H527.281" stroke="white" stroke-width="1.34761" stroke-miterlimit="10"/>
<path vector-effect="non-scaling-stroke" d="M528.574 115.788H485.882V93.4277" stroke="white" stroke-width="1.34761" stroke-miterlimit="10"/>
<path vector-effect="non-scaling-stroke" d="M468.543 97.6606V71.5986" stroke="white" stroke-width="1.34761" stroke-miterlimit="10"/>
<path vector-effect="non-scaling-stroke" d="M453.94 97.0752V111.746H475.43V126.689" stroke="white" stroke-width="1.34761" stroke-miterlimit="10"/>
<path vector-effect="non-scaling-stroke" d="M492.264 144.164V126.689" stroke="white" stroke-width="1.34761" stroke-miterlimit="10"/>
<path vector-effect="non-scaling-stroke" d="M504.853 99.5796V88.624H519.837" stroke="white" stroke-width="1.34761" stroke-miterlimit="10"/>
<path vector-effect="non-scaling-stroke" d="M59.4457 481.104H750.938" stroke="white" stroke-width="1.34761" stroke-miterlimit="10"/>
<path vector-effect="non-scaling-stroke" d="M558.624 250.181L551.03 267.886H530.793L538.387 250.181H558.624Z" stroke="white" stroke-width="1.34761" stroke-miterlimit="10"/>
<path vector-effect="non-scaling-stroke" d="M548.512 250.181L540.918 267.886" stroke="white" stroke-width="1.34761" stroke-miterlimit="10"/>
<path vector-effect="non-scaling-stroke" d="M535.869 259.04H554.84" stroke="white" stroke-width="1.34761" stroke-miterlimit="10"/>
<path vector-effect="non-scaling-stroke" d="M583.924 250.181L576.33 267.886H556.092L563.686 250.181H583.924Z" stroke="white" stroke-width="1.34761" stroke-miterlimit="10"/>
<path vector-effect="non-scaling-stroke" d="M573.798 250.181L566.204 267.886" stroke="white" stroke-width="1.34761" stroke-miterlimit="10"/>
<path vector-effect="non-scaling-stroke" d="M561.155 259.04H580.127" stroke="white" stroke-width="1.34761" stroke-miterlimit="10"/>
<path vector-effect="non-scaling-stroke" d="M609.21 250.181L601.616 267.886H581.379L588.973 250.181H609.21Z" stroke="white" stroke-width="1.34761" stroke-miterlimit="10"/>
<path vector-effect="non-scaling-stroke" d="M599.098 250.181L591.504 267.886" stroke="white" stroke-width="1.34761" stroke-miterlimit="10"/>
<path vector-effect="non-scaling-stroke" d="M586.455 259.04H605.426" stroke="white" stroke-width="1.34761" stroke-miterlimit="10"/>
<path vector-effect="non-scaling-stroke" d="M543.449 267.887V288.233" stroke="white" stroke-width="1.34761" stroke-miterlimit="10"/>
<path vector-effect="non-scaling-stroke" d="M568.749 267.887V287.62" stroke="white" stroke-width="1.34761" stroke-miterlimit="10"/>
<path vector-effect="non-scaling-stroke" d="M594.035 267.887V286.79" stroke="white" stroke-width="1.34761" stroke-miterlimit="10"/>
<path vector-effect="non-scaling-stroke" d="M131.643 227.521L86.5556 209.611L41.4678 227.521L44.4074 232.652H128.717L131.657 227.521H131.643Z" fill="black" stroke="white" stroke-width="1.34761" stroke-miterlimit="10"/>
<path vector-effect="non-scaling-stroke" d="M57.2543 234.639H46.9247V283.455H57.2543V234.639Z" fill="black" stroke="white" stroke-width="1.34761" stroke-miterlimit="10"/>
<path vector-effect="non-scaling-stroke" d="M59.8404 279.835H44.3666V283.455H59.8404V279.835Z" fill="black" stroke="white" stroke-width="1.34761" stroke-miterlimit="10"/>
<path vector-effect="non-scaling-stroke" d="M125.941 234.639H115.611V283.455H125.941V234.639Z" fill="black" stroke="white" stroke-width="1.34761" stroke-miterlimit="10"/>
<path vector-effect="non-scaling-stroke" d="M128.527 279.835H113.053V283.455H128.527V279.835Z" fill="black" stroke="white" stroke-width="1.34761" stroke-miterlimit="10"/>
<path vector-effect="non-scaling-stroke" d="M80.0772 234.639H69.7477V283.455H80.0772V234.639Z" fill="black" stroke="white" stroke-width="1.34761" stroke-miterlimit="10"/>
<path vector-effect="non-scaling-stroke" d="M82.6497 279.835H67.1758V283.455H82.6497V279.835Z" fill="black" stroke="white" stroke-width="1.34761" stroke-miterlimit="10"/>
<path vector-effect="non-scaling-stroke" d="M102.928 234.639H92.5982V283.455H102.928V234.639Z" fill="black" stroke="white" stroke-width="1.34761" stroke-miterlimit="10"/>
<path vector-effect="non-scaling-stroke" d="M105.513 279.835H90.0396V283.455H105.513V279.835Z" fill="black" stroke="white" stroke-width="1.34761" stroke-miterlimit="10"/>
<path vector-effect="non-scaling-stroke" d="M129.847 232.529H43.2642V234.639H129.847V232.529Z" fill="black" stroke="white" stroke-width="1.34761" stroke-miterlimit="10"/>
<path vector-effect="non-scaling-stroke" d="M132.936 283.456H40.134V287.988H132.936V283.456Z" fill="black" stroke="white" stroke-width="1.34761" stroke-miterlimit="10"/>
<path vector-effect="non-scaling-stroke" d="M34.2004 287.987V294.506H138.87V291.567V287.987H34.2004Z" fill="black" stroke="white" stroke-width="1.34761" stroke-miterlimit="10"/>
<path vector-effect="non-scaling-stroke" d="M390.303 415.983H440.018C448.225 415.983 454.879 422.652 454.879 430.872H375.428C375.428 422.652 382.083 415.983 390.289 415.983H390.303Z" fill="#020202" stroke="white" stroke-width="1.34761" stroke-miterlimit="10"/>
<path vector-effect="non-scaling-stroke" d="M467.005 438.425C467.005 434.247 463.617 430.858 459.452 430.858H434.547V415.97H411.329C411.329 424.135 404.715 430.858 396.563 430.858H351.407C347.229 430.858 343.854 434.247 343.854 438.425V454.321H473.579V438.425H467.005Z" fill="#202020" stroke="white" stroke-width="1.34761" stroke-miterlimit="10"/>
<path vector-effect="non-scaling-stroke" d="M375.428 465.195C381.43 465.195 386.302 460.323 386.302 454.321C386.302 448.319 381.43 443.447 375.428 443.447C369.426 443.447 364.554 448.319 364.554 454.321C364.554 460.323 369.426 465.195 375.428 465.195Z" fill="#020202" stroke="white" stroke-width="1.34761" stroke-miterlimit="10"/>
<path vector-effect="non-scaling-stroke" d="M445.761 465.195C451.763 465.195 456.635 460.323 456.635 454.321C456.635 448.319 451.763 443.447 445.761 443.447C439.759 443.447 434.887 448.319 434.887 454.321C434.887 460.323 439.759 465.195 445.761 465.195Z" fill="#020202" stroke="white" stroke-width="1.34761" stroke-miterlimit="10"/>
<path vector-effect="non-scaling-stroke" d="M420.094 433.513L412.364 441.066H420.652L412.663 449.191" stroke="white" stroke-width="1.34761" stroke-linejoin="round"/>
<path vector-effect="non-scaling-stroke" d="M555.235 465.195C562.563 465.195 568.504 459.255 568.504 451.926C568.504 444.598 562.563 438.657 555.235 438.657C547.907 438.657 541.966 444.598 541.966 451.926C541.966 459.255 547.907 465.195 555.235 465.195Z" fill="#020202" stroke="white" stroke-width="1.34761" stroke-miterlimit="10"/>
<path vector-effect="non-scaling-stroke" d="M513.196 465.195C520.524 465.195 526.465 459.255 526.465 451.926C526.465 444.598 520.524 438.657 513.196 438.657C505.867 438.657 499.927 444.598 499.927 451.926C499.927 459.255 505.867 465.195 513.196 465.195Z" fill="#020202" stroke="white" stroke-width="1.34761" stroke-miterlimit="10"/>
<path vector-effect="non-scaling-stroke" d="M555.235 451.926L546.389 428.695L548.498 427.429C549.465 426.857 549.056 425.374 547.927 425.374H543.068" fill="#020202"/>
<path vector-effect="non-scaling-stroke" d="M555.235 451.926L546.389 428.695L548.498 427.429C549.465 426.857 549.056 425.374 547.927 425.374H543.068" stroke="white" stroke-width="1.34761" stroke-miterlimit="10"/>
<path vector-effect="non-scaling-stroke" d="M524.26 427.593H515.414" stroke="white" stroke-width="1.34761" stroke-miterlimit="10"/>
<path vector-effect="non-scaling-stroke" d="M529.785 451.926H513.196L522.246 432.016H547.655L535.066 449.245" fill="#020202"/>
<path vector-effect="non-scaling-stroke" d="M529.785 451.926H513.196L522.246 432.016H547.655L535.066 449.245" stroke="white" stroke-width="1.34761" stroke-miterlimit="10"/>
<path vector-effect="non-scaling-stroke" d="M519.837 427.593L531.513 449.014" stroke="white" stroke-width="1.34761" stroke-miterlimit="10"/>
<path vector-effect="non-scaling-stroke" d="M533.106 455.247C534.94 455.247 536.427 453.76 536.427 451.926C536.427 450.092 534.94 448.605 533.106 448.605C531.272 448.605 529.785 450.092 529.785 451.926C529.785 453.76 531.272 455.247 533.106 455.247Z" fill="#020202" stroke="white" stroke-width="1.34761" stroke-miterlimit="10"/>
<path vector-effect="non-scaling-stroke" d="M696.228 459.765H709.66C711.661 459.765 713.28 458.145 713.28 456.145V436.207C713.28 423.074 708.49 412.799 705.836 408.145C704.87 406.443 703.073 405.409 701.114 405.409H595.491C592.484 405.409 590.061 407.845 590.061 410.839V456.145C590.061 458.145 591.681 459.765 593.681 459.765H607.114" fill="#020202"/>
<path vector-effect="non-scaling-stroke" d="M696.228 459.765H709.66C711.661 459.765 713.28 458.145 713.28 456.145V436.207C713.28 423.074 708.49 412.799 705.836 408.145C704.87 406.443 703.073 405.409 701.114 405.409H595.491C592.484 405.409 590.061 407.845 590.061 410.839V456.145C590.061 458.145 591.681 459.765 593.681 459.765H607.114" stroke="white" stroke-width="1.34761" stroke-miterlimit="10"/>
<path vector-effect="non-scaling-stroke" d="M623.758 459.765H679.625" stroke="white" stroke-width="1.34761" stroke-miterlimit="10"/>
<path vector-effect="non-scaling-stroke" d="M707.279 410.839H590.075" stroke="white" stroke-width="1.34761" stroke-miterlimit="10"/>
<path vector-effect="non-scaling-stroke" d="M713.294 445.271H704.23L691.478 432.587H590.075" fill="#020202"/>
<path vector-effect="non-scaling-stroke" d="M713.294 445.271H704.23L691.478 432.587H590.075" stroke="white" stroke-width="1.34761" stroke-miterlimit="10"/>
<path vector-effect="non-scaling-stroke" d="M687.926 465.209C692.932 465.209 696.99 461.151 696.99 456.145C696.99 451.139 692.932 447.081 687.926 447.081C682.92 447.081 678.862 451.139 678.862 456.145C678.862 461.151 682.92 465.209 687.926 465.209Z" fill="#020202" stroke="white" stroke-width="1.34761" stroke-miterlimit="10"/>
<path vector-effect="non-scaling-stroke" d="M615.443 465.209C620.448 465.209 624.506 461.151 624.506 456.145C624.506 451.139 620.448 447.081 615.443 447.081C610.437 447.081 606.379 451.139 606.379 456.145C606.379 461.151 610.437 465.209 615.443 465.209Z" fill="#020202" stroke="white" stroke-width="1.34761" stroke-miterlimit="10"/>
<path vector-effect="non-scaling-stroke" d="M709.674 452.512H713.294" stroke="white" stroke-width="1.34761" stroke-miterlimit="10"/>
<path vector-effect="non-scaling-stroke" d="M590.075 448.891H593.586" stroke="white" stroke-width="1.34761" stroke-miterlimit="10"/>
<path vector-effect="non-scaling-stroke" d="M590.075 441.651H593.586" stroke="white" stroke-width="1.34761" stroke-miterlimit="10"/>
<path vector-effect="non-scaling-stroke" d="M691.546 410.839V432.587" stroke="white" stroke-width="1.34761" stroke-miterlimit="10"/>
<path vector-effect="non-scaling-stroke" d="M669.812 410.839V432.587" stroke="white" stroke-width="1.34761" stroke-miterlimit="10"/>
<path vector-effect="non-scaling-stroke" d="M648.064 410.839V432.587" stroke="white" stroke-width="1.34761" stroke-miterlimit="10"/>
<path vector-effect="non-scaling-stroke" d="M626.316 410.84V432.588" stroke="white" stroke-width="1.34761" stroke-miterlimit="10"/>
<path vector-effect="non-scaling-stroke" d="M604.582 410.84V432.588" stroke="white" stroke-width="1.34761" stroke-miterlimit="10"/>
<path vector-effect="non-scaling-stroke" d="M670.452 241.838V234.475C670.452 229.739 666.614 225.901 661.878 225.901H655.1C650.364 225.901 646.527 229.739 646.527 234.475V241.838" fill="#020202"/>
<path vector-effect="non-scaling-stroke" d="M670.452 241.838V234.475C670.452 229.739 666.614 225.901 661.878 225.901H655.1C650.364 225.901 646.527 229.739 646.527 234.475V241.838" stroke="white" stroke-width="1.34761" stroke-miterlimit="10"/>
<path vector-effect="non-scaling-stroke" d="M652.365 243.866V236.163C652.365 232.516 649.398 229.549 645.751 229.549H640.525C636.878 229.549 633.911 232.516 633.911 236.163V241.838" fill="#020202"/>
<path vector-effect="non-scaling-stroke" d="M652.365 243.866V236.163C652.365 232.516 649.398 229.549 645.751 229.549H640.525C636.878 229.549 633.911 232.516 633.911 236.163V241.838" stroke="white" stroke-width="1.34761" stroke-miterlimit="10"/>
<path vector-effect="non-scaling-stroke" d="M663.212 207.665H640.171C632.85 207.665 626.916 213.6 626.916 220.921V230.61C626.916 237.931 632.85 243.866 640.171 243.866H663.212C670.533 243.866 676.467 237.931 676.467 230.61V220.921C676.467 213.6 670.533 207.665 663.212 207.665Z" stroke="white" stroke-width="1.34761" stroke-miterlimit="10"/>
<path vector-effect="non-scaling-stroke" d="M658.489 222.568C660.872 222.568 662.803 220.636 662.803 218.254C662.803 215.871 660.872 213.939 658.489 213.939C656.107 213.939 654.175 215.871 654.175 218.254C654.175 220.636 656.107 222.568 658.489 222.568Z" fill="#020202" stroke="white" stroke-width="1.34761" stroke-miterlimit="10"/>
<path vector-effect="non-scaling-stroke" d="M643.138 226.963C644.972 226.963 646.459 225.476 646.459 223.642C646.459 221.808 644.972 220.321 643.138 220.321C641.304 220.321 639.817 221.808 639.817 223.642C639.817 225.476 641.304 226.963 643.138 226.963Z" fill="#020202" stroke="white" stroke-width="1.34761" stroke-miterlimit="10"/>
<path vector-effect="non-scaling-stroke" d="M663.647 298.29V290.927C663.647 286.191 659.809 282.354 655.073 282.354H648.296C643.56 282.354 639.722 286.191 639.722 290.927V298.29" fill="#020202"/>
<path vector-effect="non-scaling-stroke" d="M663.647 298.29V290.927C663.647 286.191 659.809 282.354 655.073 282.354H648.296C643.56 282.354 639.722 286.191 639.722 290.927V298.29" stroke="white" stroke-width="1.34761" stroke-miterlimit="10"/>
<path vector-effect="non-scaling-stroke" d="M663.212 262.13H640.171C632.85 262.13 626.916 268.065 626.916 275.385V285.075C626.916 292.396 632.85 298.331 640.171 298.331H663.212C670.533 298.331 676.467 292.396 676.467 285.075V275.385C676.467 268.065 670.533 262.13 663.212 262.13Z" stroke="white" stroke-width="1.34761" stroke-miterlimit="10"/>
<path vector-effect="non-scaling-stroke" d="M651.685 279.005C654.067 279.005 655.999 277.074 655.999 274.691C655.999 272.308 654.067 270.377 651.685 270.377C649.302 270.377 647.37 272.308 647.37 274.691C647.37 277.074 649.302 279.005 651.685 279.005Z" fill="#020202" stroke="white" stroke-width="1.34761" stroke-miterlimit="10"/>
<path vector-effect="non-scaling-stroke" d="M649.453 349.693V343.256C649.453 339.105 646.091 335.743 641.94 335.743H636.007C631.856 335.743 628.494 339.105 628.494 343.256V346.699" fill="#020202"/>
<path vector-effect="non-scaling-stroke" d="M649.453 349.693V343.256C649.453 339.105 646.091 335.743 641.94 335.743H636.007C631.856 335.743 628.494 339.105 628.494 343.256V346.699" stroke="white" stroke-width="1.34761" stroke-miterlimit="10"/>
<path vector-effect="non-scaling-stroke" d="M638.973 332.803C641.055 332.803 642.743 331.115 642.743 329.033C642.743 326.951 641.055 325.264 638.973 325.264C636.891 325.264 635.204 326.951 635.204 329.033C635.204 331.115 636.891 332.803 638.973 332.803Z" fill="#020202" stroke="white" stroke-width="1.34761" stroke-miterlimit="10"/>
<path vector-effect="non-scaling-stroke" d="M675.174 345.201V343.201C675.174 339.05 671.813 335.688 667.662 335.688H661.728C657.577 335.688 654.216 339.05 654.216 343.201V349.638" fill="#020202"/>
<path vector-effect="non-scaling-stroke" d="M675.174 345.201V343.201C675.174 339.05 671.813 335.688 667.662 335.688H661.728C657.577 335.688 654.216 339.05 654.216 343.201V349.638" stroke="white" stroke-width="1.34761" stroke-miterlimit="10"/>
<path vector-effect="non-scaling-stroke" d="M659.347 352.795V344.671C659.347 341.472 656.747 338.873 653.549 338.873H648.976C645.778 338.873 643.179 341.472 643.179 344.671V352.795" fill="#020202"/>
<path vector-effect="non-scaling-stroke" d="M659.347 352.795V344.671C659.347 341.472 656.747 338.873 653.549 338.873H648.976C645.778 338.873 643.179 341.472 643.179 344.671V352.795" stroke="white" stroke-width="1.34761" stroke-miterlimit="10"/>
<path vector-effect="non-scaling-stroke" d="M663.212 316.595H640.171C632.85 316.595 626.916 322.529 626.916 329.85V339.54C626.916 346.861 632.85 352.796 640.171 352.796H663.212C670.533 352.796 676.467 346.861 676.467 339.54V329.85C676.467 322.529 670.533 316.595 663.212 316.595Z" stroke="white" stroke-width="1.34761" stroke-miterlimit="10"/>
<path vector-effect="non-scaling-stroke" d="M664.709 332.762C666.791 332.762 668.479 331.074 668.479 328.992C668.479 326.91 666.791 325.223 664.709 325.223C662.627 325.223 660.939 326.91 660.939 328.992C660.939 331.074 662.627 332.762 664.709 332.762Z" fill="#020202" stroke="white" stroke-width="1.34761" stroke-miterlimit="10"/>
<path vector-effect="non-scaling-stroke" d="M651.263 336.628C652.871 336.628 654.175 335.324 654.175 333.715C654.175 332.107 652.871 330.803 651.263 330.803C649.654 330.803 648.35 332.107 648.35 333.715C648.35 335.324 649.654 336.628 651.263 336.628Z" fill="#020202" stroke="white" stroke-width="1.34761" stroke-miterlimit="10"/>
<path fill-rule="evenodd" clip-rule="evenodd" d="M349.352 134.992C349.543 135.495 349.543 135.985 349.339 136.489L332.708 178.12C332.531 178.582 332.218 178.95 331.796 179.195C331.361 179.426 330.898 179.494 330.408 179.399C329.918 179.317 329.51 179.086 329.197 178.719C328.87 178.337 328.707 177.888 328.707 177.385L328.353 152.575L313.873 156.984C313.342 157.148 312.839 157.107 312.335 156.875C311.845 156.631 311.505 156.249 311.301 155.732C311.11 155.229 311.11 154.725 311.314 154.235L327.918 112.618C328.108 112.142 328.435 111.788 328.87 111.543C329.306 111.311 329.769 111.243 330.259 111.339C330.735 111.42 331.143 111.652 331.456 112.019C331.783 112.414 331.946 112.863 331.946 113.366L332.314 138.149L346.78 133.753C347.311 133.59 347.815 133.631 348.318 133.862C348.808 134.107 349.109 134.469 349.352 135.005V134.992Z" fill="#A100FF" stroke="white" stroke-width="1.34761" stroke-miterlimit="10" stroke-linejoin="round"/>
</g>
<defs>
<clipPath id="clip0_21_15597">
<rect width="802" height="504.472" fill="white"/>
</clipPath>
</defs>
</svg>