<svg width="802" height="535" viewBox="0 0 802 535" fill="none" xmlns="http://www.w3.org/2000/svg">
<g clip-path="url(#clip0_1_5984)">
<path vector-effect="non-scaling-stroke" d="M122.713 374.065H139.568C144.82 374.065 149.071 378.334 149.071 383.581V438.988C149.071 444.247 144.807 448.503 139.568 448.503H122.713V374.065Z" fill="black"/>
<path vector-effect="non-scaling-stroke" d="M287.075 443.163H258.579V466.758H287.075V443.163Z" fill="#414040"/>
<path vector-effect="non-scaling-stroke" d="M276.061 417.414H223.974V466.758H276.061V417.414Z" fill="#414040"/>
<path vector-effect="non-scaling-stroke" d="M249.998 444.622C264.37 444.622 276.021 432.956 276.021 418.565C276.021 404.174 264.37 392.507 249.998 392.507C235.625 392.507 223.974 404.174 223.974 418.565C223.974 432.956 235.625 444.622 249.998 444.622Z" fill="#414040"/>
<path vector-effect="non-scaling-stroke" d="M212.653 471.643H193.687V486.365H212.653V471.643Z" fill="#414040"/>
<path vector-effect="non-scaling-stroke" d="M200.236 431.734H164.335V486.378H200.236V431.734Z" fill="#414040"/>
<path vector-effect="non-scaling-stroke" d="M182.299 447.339C192.213 447.339 200.249 439.292 200.249 429.365C200.249 419.439 192.213 411.391 182.299 411.391C172.385 411.391 164.348 419.439 164.348 429.365C164.348 439.292 172.385 447.339 182.299 447.339Z" fill="#414040"/>
<path vector-effect="non-scaling-stroke" d="M122.713 374.065H49.0398V448.691H122.713V374.065Z" fill="#202020"/>
<path vector-effect="non-scaling-stroke" d="M122.713 502.291H69.8907C58.3693 502.291 49.0398 492.936 49.0398 481.413V448.517H122.713V481.601C122.713 493.03 131.962 502.278 143.377 502.278H144.125H122.727L122.713 502.291Z" fill="#414040"/>
<path vector-effect="non-scaling-stroke" d="M122.713 374.065H49.0398V361.766C49.0398 356.051 53.6644 351.42 59.3717 351.42H133.112C127.739 351.42 122.713 356.238 122.713 361.15V374.052V374.065Z" fill="#414040"/>
<path vector-effect="non-scaling-stroke" d="M212.118 486.378C218.673 486.378 223.987 481.058 223.987 474.494C223.987 467.93 218.673 462.609 212.118 462.609C205.563 462.609 200.249 467.93 200.249 474.494C200.249 481.058 205.563 486.378 212.118 486.378Z" fill="black"/>
<path vector-effect="non-scaling-stroke" d="M249.917 392.387H180.2C169.08 392.387 157.532 400.377 155.152 411.204L182.379 411.257C192.256 411.284 200.236 419.301 200.236 429.178V474.494H223.961V417.762C223.961 403.749 235.295 392.4 249.289 392.4H249.917V392.387Z" fill="black"/>
<path vector-effect="non-scaling-stroke" d="M291.138 466.745H290.964C282.731 466.745 276.061 460.066 276.061 451.822V418.551C276.061 404.097 264.366 392.373 249.917 392.373H231.793V328.789H306.041V451.822C306.041 460.066 299.372 466.745 291.138 466.745Z" fill="black"/>
<path vector-effect="non-scaling-stroke" d="M359.077 6.70508H1.33652V128.922H359.077V6.70508Z" fill="black"/>
<path vector-effect="non-scaling-stroke" d="M359.077 6.70508V524.026" stroke="white" stroke-width="1.34761" stroke-miterlimit="10"/>
<path vector-effect="non-scaling-stroke" d="M359.077 128.922H1.33652" stroke="white" stroke-width="1.34761" stroke-miterlimit="10"/>
<path vector-effect="non-scaling-stroke" d="M359.077 328.802H1.33652" stroke="white" stroke-width="1.34761" stroke-miterlimit="10"/>
<path vector-effect="non-scaling-stroke" d="M117.407 26.9272H36.8366V107.602H117.407V26.9272Z" stroke="white" stroke-width="1.34761" stroke-miterlimit="10"/>
<path vector-effect="non-scaling-stroke" d="M139.22 374.065H38.1331C32.7739 374.065 28.4294 378.415 28.4294 383.781V438.787C28.4294 444.153 32.7739 448.503 38.1331 448.503H139.22C144.579 448.503 148.924 444.153 148.924 438.787V383.781C148.924 378.415 144.579 374.065 139.22 374.065Z" stroke="white" stroke-width="1.34761" stroke-miterlimit="10"/>
<path vector-effect="non-scaling-stroke" d="M121.604 282.094V304.003H1.33652V160.199H110.497C116.632 160.199 121.604 165.177 121.604 171.32V207.562" stroke="white" stroke-width="1.34761" stroke-miterlimit="10"/>
<path vector-effect="non-scaling-stroke" d="M121.604 223.649V232.108" stroke="white" stroke-width="1.34761" stroke-miterlimit="10"/>
<path vector-effect="non-scaling-stroke" d="M252.256 26.9272H171.686V107.602H252.256V26.9272Z" stroke="white" stroke-width="1.34761" stroke-miterlimit="10"/>
<path vector-effect="non-scaling-stroke" d="M359.144 26.9272H292.862V107.602H359.144V26.9272Z" stroke="white" stroke-width="1.34761" stroke-miterlimit="10"/>
<path vector-effect="non-scaling-stroke" d="M77.1217 88.6649C88.9253 88.6649 98.494 79.0838 98.494 67.2649C98.494 55.446 88.9253 45.8649 77.1217 45.8649C65.3182 45.8649 55.7495 55.446 55.7495 67.2649C55.7495 79.0838 65.3182 88.6649 77.1217 88.6649Z" fill="black"/>
<path vector-effect="non-scaling-stroke" d="M77.1217 88.6649C88.9253 88.6649 98.494 79.0838 98.494 67.2649C98.494 55.446 88.9253 45.8649 77.1217 45.8649C65.3182 45.8649 55.7495 55.446 55.7495 67.2649C55.7495 79.0838 65.3182 88.6649 77.1217 88.6649Z" stroke="white" stroke-width="1.34761" stroke-miterlimit="10"/>
<path vector-effect="non-scaling-stroke" d="M359.144 45.1688H307.271V89.3607H359.144V45.1688Z" fill="black"/>
<path vector-effect="non-scaling-stroke" d="M359.144 45.1688H307.271V89.3607H359.144V45.1688Z" stroke="white" stroke-width="1.34761" stroke-miterlimit="10"/>
<path vector-effect="non-scaling-stroke" d="M359.158 67.2648H307.271" stroke="white" stroke-width="1.34761" stroke-miterlimit="10"/>
<path vector-effect="non-scaling-stroke" d="M211.971 46.8418L188.407 87.6878H235.522L211.971 46.8418Z" fill="black"/>
<path vector-effect="non-scaling-stroke" d="M211.971 46.8418L188.407 87.6878H235.522L211.971 46.8418Z" stroke="white" stroke-width="1.34761" stroke-miterlimit="10"/>
<path vector-effect="non-scaling-stroke" d="M108.131 74.0635L120.802 103.253L137.295 86.7509L108.131 74.0635Z" fill="#8D2AF3" stroke="white" stroke-width="1.34761" stroke-miterlimit="10"/>
<path vector-effect="non-scaling-stroke" d="M108.131 74.0635L120.802 103.253L137.295 86.7509L108.131 74.0635Z" stroke="white" stroke-width="1.34761" stroke-miterlimit="10"/>
<path vector-effect="non-scaling-stroke" d="M122.072 88.0225L136.6 102.557" stroke="white" stroke-width="1.34761" stroke-miterlimit="10"/>
<path vector-effect="non-scaling-stroke" d="M41.7419 202.999H1.33652V281.559H41.7419V202.999Z" stroke="white" stroke-width="1.34761" stroke-miterlimit="10"/>
<path vector-effect="non-scaling-stroke" d="M88.3625 202.999H59.7058C55.5867 202.999 52.2476 206.343 52.2476 210.467C52.2476 214.591 55.5867 217.935 59.7058 217.935H88.3625C92.4816 217.935 95.8207 214.591 95.8207 210.467C95.8207 206.343 92.4816 202.999 88.3625 202.999Z" fill="#E2E2DE" stroke="white" stroke-width="1.34761" stroke-linejoin="round"/>
<path vector-effect="non-scaling-stroke" d="M88.3625 202.999H59.7058C55.5867 202.999 52.2476 206.343 52.2476 210.467C52.2476 214.591 55.5867 217.935 59.7058 217.935H88.3625C92.4816 217.935 95.8207 214.591 95.8207 210.467C95.8207 206.343 92.4816 202.999 88.3625 202.999Z" stroke="white" stroke-width="1.34761" stroke-miterlimit="10"/>
<path vector-effect="non-scaling-stroke" d="M121.604 180.194H1.33652" stroke="white" stroke-width="1.34761" stroke-miterlimit="10"/>
<path vector-effect="non-scaling-stroke" d="M324.433 128.922L224.375 200.443L212.773 184.182L290.082 128.922H324.433Z" fill="#202020" stroke="white" stroke-width="1.34761" stroke-miterlimit="10"/>
<path vector-effect="non-scaling-stroke" d="M324.433 128.922L224.375 200.443L212.773 184.182L290.082 128.922H324.433Z" stroke="white" stroke-width="1.34761" stroke-miterlimit="10"/>
<path vector-effect="non-scaling-stroke" d="M231.793 194.875V392.373" stroke="white" stroke-width="1.34761" stroke-miterlimit="10"/>
<path vector-effect="non-scaling-stroke" d="M359.077 309.905H291.044V328.803H359.077V309.905Z" fill="#202020" stroke="white" stroke-width="1.34761" stroke-miterlimit="10"/>
<path vector-effect="non-scaling-stroke" d="M292.983 250.711H250.011V259.517H292.983V250.711Z" fill="#A1A19F" stroke="white" stroke-width="1.34761" stroke-miterlimit="10"/>
<path vector-effect="non-scaling-stroke" d="M359.077 309.905H291.044V328.803H359.077V309.905Z" stroke="white" stroke-width="1.34761" stroke-miterlimit="10"/>
<path vector-effect="non-scaling-stroke" d="M359.091 195.959H306.041V309.905H359.091V195.959Z" stroke="white" stroke-width="1.34761" stroke-miterlimit="10"/>
<path vector-effect="non-scaling-stroke" d="M306.041 328.802V451.742" stroke="white" stroke-width="1.34761" stroke-miterlimit="10"/>
<path vector-effect="non-scaling-stroke" d="M59.4252 351.434H133.099" stroke="white" stroke-width="1.34761" stroke-miterlimit="10"/>
<path vector-effect="non-scaling-stroke" d="M69.8506 502.291H143.524" stroke="white" stroke-width="1.34761" stroke-miterlimit="10"/>
<path vector-effect="non-scaling-stroke" d="M180.214 392.387H250.011" stroke="white" stroke-width="1.34761" stroke-miterlimit="10"/>
<path vector-effect="non-scaling-stroke" d="M148.924 411.338H182.299" stroke="white" stroke-width="1.34761" stroke-miterlimit="10"/>
<path vector-effect="non-scaling-stroke" d="M223.974 474.494C223.974 481.052 218.668 486.365 212.118 486.365C205.569 486.365 200.263 481.052 200.263 474.494" stroke="white" stroke-width="1.34761" stroke-miterlimit="10"/>
<path vector-effect="non-scaling-stroke" d="M223.974 418.444C223.974 404.057 235.629 392.387 249.998 392.387C264.366 392.387 276.021 404.057 276.021 418.444" stroke="white" stroke-width="1.34761" stroke-miterlimit="10"/>
<path vector-effect="non-scaling-stroke" d="M180.214 392.387C168.331 392.387 158.307 400.35 155.179 411.244V411.338" stroke="white" stroke-width="1.34761" stroke-miterlimit="10"/>
<path vector-effect="non-scaling-stroke" d="M306.041 451.742C306.041 460.026 299.331 466.745 291.058 466.745C282.784 466.745 276.075 460.026 276.075 451.742" stroke="white" stroke-width="1.34761" stroke-miterlimit="10"/>
<path vector-effect="non-scaling-stroke" d="M164.335 429.311C164.335 419.381 172.368 411.338 182.285 411.338C192.203 411.338 200.236 419.381 200.236 429.311" stroke="white" stroke-width="1.34761" stroke-miterlimit="10"/>
<path vector-effect="non-scaling-stroke" d="M164.335 481.44C164.335 492.949 155.019 502.278 143.524 502.278C132.029 502.278 122.713 492.949 122.713 481.44" stroke="white" stroke-width="1.34761" stroke-miterlimit="10"/>
<path vector-effect="non-scaling-stroke" d="M69.8507 502.291C58.3559 502.291 49.0398 492.963 49.0398 481.453" stroke="white" stroke-width="1.34761" stroke-miterlimit="10"/>
<path vector-effect="non-scaling-stroke" d="M49.0398 361.846C49.0398 356.105 53.6912 351.434 59.4385 351.434" stroke="white" stroke-width="1.34761" stroke-miterlimit="10"/>
<path vector-effect="non-scaling-stroke" d="M247.284 159.516V128.922" stroke="white" stroke-width="1.34761" stroke-miterlimit="10"/>
<path vector-effect="non-scaling-stroke" d="M49.0398 361.846V481.44" stroke="white" stroke-width="1.34761" stroke-miterlimit="10"/>
<path vector-effect="non-scaling-stroke" d="M122.713 361.846V481.44" stroke="white" stroke-width="1.34761" stroke-miterlimit="10"/>
<path vector-effect="non-scaling-stroke" d="M223.974 474.494V418.444" stroke="white" stroke-width="1.34761" stroke-miterlimit="10"/>
<path vector-effect="non-scaling-stroke" d="M276.061 418.565V451.742" stroke="white" stroke-width="1.34761" stroke-miterlimit="10"/>
<path vector-effect="non-scaling-stroke" d="M164.335 481.44V429.312" stroke="white" stroke-width="1.34761" stroke-miterlimit="10"/>
<path vector-effect="non-scaling-stroke" d="M200.249 429.312V474.494" stroke="white" stroke-width="1.34761" stroke-miterlimit="10"/>
<path vector-effect="non-scaling-stroke" d="M291.045 466.745H223.974" stroke="white" stroke-width="1.34761" stroke-miterlimit="10"/>
<path vector-effect="non-scaling-stroke" d="M212.105 486.365H164.335" stroke="white" stroke-width="1.34761" stroke-miterlimit="10"/>
<path vector-effect="non-scaling-stroke" d="M28.4294 399.105H21.5325V423.476H28.4294V399.105Z" stroke="white" stroke-width="1.34761" stroke-miterlimit="10"/>
<path vector-effect="non-scaling-stroke" d="M21.5325 411.338H20.2227C18.1777 411.338 16.5337 412.997 16.5337 415.031V485.415C16.5337 487.462 14.8763 489.108 12.8446 489.108H3.22113" stroke="white" stroke-width="1.34761" stroke-miterlimit="10"/>
<path vector-effect="non-scaling-stroke" d="M41.8221 402.531H37.9594V420.064H41.8221V402.531Z" stroke="white" stroke-width="1.34761" stroke-miterlimit="10"/>
<path vector-effect="non-scaling-stroke" d="M134.088 415.714C136.524 415.714 138.498 413.737 138.498 411.298C138.498 408.858 136.524 406.881 134.088 406.881C131.652 406.881 129.677 408.858 129.677 411.298C129.677 413.737 131.652 415.714 134.088 415.714Z" stroke="white" stroke-width="1.34761" stroke-miterlimit="10"/>
<path vector-effect="non-scaling-stroke" d="M271.784 211.31C279.069 211.31 284.99 217.239 284.99 224.533V250.711H258.579V224.533C258.579 217.239 264.5 211.31 271.784 211.31Z" stroke="white" stroke-width="1.34761" stroke-miterlimit="10"/>
<path vector-effect="non-scaling-stroke" d="M271.784 211.31V250.711" stroke="white" stroke-width="1.34761" stroke-miterlimit="10"/>
<path vector-effect="non-scaling-stroke" d="M258.579 231.01H284.99" stroke="white" stroke-width="1.34761" stroke-miterlimit="10"/>
<path vector-effect="non-scaling-stroke" d="M359.077 172.11C355.91 177.022 350.39 180.26 344.121 180.26C334.297 180.26 326.317 172.284 326.317 162.434C326.317 152.584 334.283 144.607 344.121 144.607C350.443 144.607 355.99 147.899 359.144 152.878" stroke="white" stroke-width="1.34761" stroke-miterlimit="10"/>
<path vector-effect="non-scaling-stroke" d="M344.134 144.621V180.261" stroke="white" stroke-width="1.34761" stroke-miterlimit="10"/>
<path vector-effect="non-scaling-stroke" d="M326.331 162.434H359.078" stroke="white" stroke-width="1.34761" stroke-miterlimit="10"/>
<path vector-effect="non-scaling-stroke" d="M327.56 271.04C329.59 271.04 331.236 269.392 331.236 267.36C331.236 265.327 329.59 263.679 327.56 263.679C325.53 263.679 323.885 265.327 323.885 267.36C323.885 269.392 325.53 271.04 327.56 271.04Z" stroke="white" stroke-width="1.34761" stroke-miterlimit="10"/>
<path vector-effect="non-scaling-stroke" d="M56.538 228.16H89.8194" stroke="white" stroke-width="1.34761" stroke-miterlimit="10"/>
<path vector-effect="non-scaling-stroke" d="M56.538 234.891H89.8194" stroke="white" stroke-width="1.34761" stroke-miterlimit="10"/>
<path vector-effect="non-scaling-stroke" d="M56.538 241.623H89.8194" stroke="white" stroke-width="1.34761" stroke-miterlimit="10"/>
<path vector-effect="non-scaling-stroke" d="M56.538 248.342H89.8194" stroke="white" stroke-width="1.34761" stroke-miterlimit="10"/>
<path vector-effect="non-scaling-stroke" d="M225.698 295.96C219.55 295.96 214.284 299.774 212.132 305.167C211.437 306.907 209.766 308.072 207.895 308.072H203.283C194.515 308.072 187.418 315.178 187.418 323.958V328.789H231.793V295.96H225.698Z" stroke="white" stroke-width="1.34761" stroke-miterlimit="10"/>
<path vector-effect="non-scaling-stroke" d="M99.777 363.974H113.731" stroke="white" stroke-width="1.34761" stroke-miterlimit="10"/>
<path vector-effect="non-scaling-stroke" d="M61.4701 363.974H89.8194" stroke="white" stroke-width="1.34761" stroke-miterlimit="10"/>
<path vector-effect="non-scaling-stroke" d="M104.749 458.608H113.731" stroke="white" stroke-width="1.34761" stroke-miterlimit="10"/>
<path vector-effect="non-scaling-stroke" d="M61.4701 458.608H89.8194" stroke="white" stroke-width="1.34761" stroke-miterlimit="10"/>
<path vector-effect="non-scaling-stroke" d="M81.5191 468.699H113.731" stroke="white" stroke-width="1.34761" stroke-miterlimit="10"/>
<path vector-effect="non-scaling-stroke" d="M61.4701 468.699H67.7521" stroke="white" stroke-width="1.34761" stroke-miterlimit="10"/>
<path vector-effect="non-scaling-stroke" d="M108.064 478.79H113.731" stroke="white" stroke-width="1.34761" stroke-miterlimit="10"/>
<path vector-effect="non-scaling-stroke" d="M87.6006 478.79H94.6312" stroke="white" stroke-width="1.34761" stroke-miterlimit="10"/>
<path vector-effect="non-scaling-stroke" d="M61.4701 478.79H76.7073" stroke="white" stroke-width="1.34761" stroke-miterlimit="10"/>
<path vector-effect="non-scaling-stroke" d="M103.092 488.894H113.731" stroke="white" stroke-width="1.34761" stroke-miterlimit="10"/>
<path vector-effect="non-scaling-stroke" d="M67.7521 488.894H87.6006" stroke="white" stroke-width="1.34761" stroke-miterlimit="10"/>
<path vector-effect="non-scaling-stroke" d="M122.713 367.213H143.497V361.833C143.497 356.091 138.846 351.42 133.099 351.42C127.351 351.42 122.7 356.078 122.7 361.833" stroke="white" stroke-width="1.34761" stroke-miterlimit="10"/>
<path vector-effect="non-scaling-stroke" d="M81.9869 174.091C83.9652 174.091 85.569 172.485 85.569 170.504C85.569 168.523 83.9652 166.917 81.9869 166.917C80.0086 166.917 78.4048 168.523 78.4048 170.504C78.4048 172.485 80.0086 174.091 81.9869 174.091Z" fill="#A1A19F" stroke="white" stroke-width="1.34761" stroke-miterlimit="10"/>
<path vector-effect="non-scaling-stroke" d="M94.0297 174.091C96.008 174.091 97.6118 172.485 97.6118 170.504C97.6118 168.523 96.008 166.917 94.0297 166.917C92.0513 166.917 90.4476 168.523 90.4476 170.504C90.4476 172.485 92.0513 174.091 94.0297 174.091Z" fill="#A1A19F" stroke="white" stroke-width="1.34761" stroke-miterlimit="10"/>
<path vector-effect="non-scaling-stroke" d="M106.072 174.091C108.051 174.091 109.655 172.485 109.655 170.504C109.655 168.523 108.051 166.917 106.072 166.917C104.094 166.917 102.49 168.523 102.49 170.504C102.49 172.485 104.094 174.091 106.072 174.091Z" fill="#E2E2DE" stroke="white" stroke-width="1.34761" stroke-linejoin="round"/>
<path vector-effect="non-scaling-stroke" d="M81.9869 174.091C83.9652 174.091 85.569 172.485 85.569 170.504C85.569 168.523 83.9652 166.917 81.9869 166.917C80.0086 166.917 78.4048 168.523 78.4048 170.504C78.4048 172.485 80.0086 174.091 81.9869 174.091Z" stroke="white" stroke-width="1.34761" stroke-miterlimit="10"/>
<path vector-effect="non-scaling-stroke" d="M94.0297 174.091C96.008 174.091 97.6118 172.485 97.6118 170.504C97.6118 168.523 96.008 166.917 94.0297 166.917C92.0513 166.917 90.4476 168.523 90.4476 170.504C90.4476 172.485 92.0513 174.091 94.0297 174.091Z" stroke="white" stroke-width="1.34761" stroke-miterlimit="10"/>
<path vector-effect="non-scaling-stroke" d="M106.072 174.091C108.051 174.091 109.655 172.485 109.655 170.504C109.655 168.523 108.051 166.917 106.072 166.917C104.094 166.917 102.49 168.523 102.49 170.504C102.49 172.485 104.094 174.091 106.072 174.091Z" stroke="white" stroke-width="1.34761" stroke-miterlimit="10"/>
<path vector-effect="non-scaling-stroke" d="M106.166 41.1271C108.144 41.1271 109.748 39.5213 109.748 37.5404C109.748 35.5595 108.144 33.9536 106.166 33.9536C104.188 33.9536 102.584 35.5595 102.584 37.5404C102.584 39.5213 104.188 41.1271 106.166 41.1271Z" fill="#E2E2DE" stroke="white" stroke-width="1.34761" stroke-miterlimit="10"/>
<path vector-effect="non-scaling-stroke" d="M106.166 41.1271C108.144 41.1271 109.748 39.5213 109.748 37.5404C109.748 35.5595 108.144 33.9536 106.166 33.9536C104.188 33.9536 102.584 35.5595 102.584 37.5404C102.584 39.5213 104.188 41.1271 106.166 41.1271Z" stroke="white" stroke-width="1.34761" stroke-miterlimit="10"/>
<path vector-effect="non-scaling-stroke" d="M241.002 41.1271C242.981 41.1271 244.584 39.5213 244.584 37.5404C244.584 35.5595 242.981 33.9536 241.002 33.9536C239.024 33.9536 237.42 35.5595 237.42 37.5404C237.42 39.5213 239.024 41.1271 241.002 41.1271Z" fill="#E2E2DE" stroke="white" stroke-width="1.34761" stroke-miterlimit="10"/>
<path vector-effect="non-scaling-stroke" d="M241.002 41.1271C242.981 41.1271 244.584 39.5213 244.584 37.5404C244.584 35.5595 242.981 33.9536 241.002 33.9536C239.024 33.9536 237.42 35.5595 237.42 37.5404C237.42 39.5213 239.024 41.1271 241.002 41.1271Z" stroke="white" stroke-width="1.34761" stroke-miterlimit="10"/>
<path vector-effect="non-scaling-stroke" d="M359.077 229.311H687.574C725.132 229.311 755.593 259.838 755.593 297.512C755.593 335.173 725.145 365.714 687.574 365.714H359.077" stroke="white" stroke-width="1.34761" stroke-miterlimit="10"/>
<path vector-effect="non-scaling-stroke" d="M359.144 229.311H493.432V365.714H359.144V229.311Z" stroke="white" stroke-width="1.34761" stroke-miterlimit="10"/>
<path vector-effect="non-scaling-stroke" d="M359.144 365.687H725.64C763.198 365.687 793.659 396.402 793.659 434.29C793.659 472.178 763.212 502.893 725.64 502.893H359.077" stroke="white" stroke-width="1.34761" stroke-miterlimit="10"/>
<path vector-effect="non-scaling-stroke" d="M513.802 365.687H648.09V502.893H513.802V365.687Z" fill="black" stroke="white" stroke-width="1.34761" stroke-miterlimit="10"/>
<path vector-effect="non-scaling-stroke" d="M698.774 451.996H777.968V515.982H698.774V451.996Z" fill="#202020" stroke="white" stroke-width="1.34761" stroke-miterlimit="10"/>
<path vector-effect="non-scaling-stroke" d="M698.774 515.996H599.264V402.411H698.774V515.996Z" fill="#404040" stroke="white" stroke-width="1.34761" stroke-miterlimit="10"/>
<path vector-effect="non-scaling-stroke" d="M676.814 451.996V377.116C676.814 361.926 664.531 349.614 649.387 349.614C634.243 349.614 621.96 361.926 621.96 377.116V451.996" stroke="white" stroke-width="1.34761" stroke-miterlimit="10"/>
<path vector-effect="non-scaling-stroke" d="M738.698 451.996V515.982" stroke="white" stroke-width="1.34761" stroke-miterlimit="10"/>
<path vector-effect="non-scaling-stroke" d="M699.429 483.996H777.954" stroke="white" stroke-width="1.34761" stroke-miterlimit="10"/>
<path vector-effect="non-scaling-stroke" d="M764.121 451.996H713.276V393.966H764.121V451.996Z" stroke="white" stroke-width="1.34761" stroke-miterlimit="10"/>
<path vector-effect="non-scaling-stroke" d="M752.906 419.301V381.051C752.906 373.289 746.638 366.999 738.899 366.999C731.16 366.999 724.891 373.289 724.891 381.051V419.301" stroke="white" stroke-width="1.34761" stroke-miterlimit="10"/>
<path vector-effect="non-scaling-stroke" d="M588.491 203.28H720.213C724.424 203.28 727.966 200.041 728.42 195.772L738.07 105.381C738.605 100.402 734.769 96.0524 729.864 96.0524H598.142C593.931 96.0524 590.389 99.2911 589.935 103.56L580.285 193.952C579.75 198.93 583.586 203.28 588.491 203.28Z" stroke="white" stroke-width="1.34761" stroke-miterlimit="10"/>
<path vector-effect="non-scaling-stroke" d="M713.276 110.614H669.275C666.78 110.614 664.758 112.639 664.758 115.137V143.483C664.758 145.981 666.78 148.007 669.275 148.007H713.276C715.771 148.007 717.794 145.981 717.794 143.483V115.137C717.794 112.639 715.771 110.614 713.276 110.614Z" fill="#202020" stroke="white" stroke-width="1.34761" stroke-miterlimit="10"/>
<path vector-effect="non-scaling-stroke" d="M713.276 110.614H669.275C666.78 110.614 664.758 112.639 664.758 115.137V143.483C664.758 145.981 666.78 148.007 669.275 148.007H713.276C715.771 148.007 717.794 145.981 717.794 143.483V115.137C717.794 112.639 715.771 110.614 713.276 110.614Z" stroke="white" stroke-width="1.34761" stroke-miterlimit="10"/>
<path vector-effect="non-scaling-stroke" d="M650.082 110.614H606.081C603.586 110.614 601.563 112.639 601.563 115.137V143.483C601.563 145.981 603.586 148.007 606.081 148.007H650.082C652.577 148.007 654.6 145.981 654.6 143.483V115.137C654.6 112.639 652.577 110.614 650.082 110.614Z" stroke="white" stroke-width="1.34761" stroke-miterlimit="10"/>
<path vector-effect="non-scaling-stroke" d="M671.935 154.458H710.63" stroke="white" stroke-width="1.34761" stroke-miterlimit="10"/>
<path vector-effect="non-scaling-stroke" d="M671.935 160.908H710.63" stroke="white" stroke-width="1.34761" stroke-miterlimit="10"/>
<path vector-effect="non-scaling-stroke" d="M671.935 167.359H710.63" stroke="white" stroke-width="1.34761" stroke-miterlimit="10"/>
<path vector-effect="non-scaling-stroke" d="M671.935 173.81H710.63" stroke="white" stroke-width="1.34761" stroke-miterlimit="10"/>
<path vector-effect="non-scaling-stroke" d="M580.766 189.334L580.271 193.965C579.737 198.944 583.573 203.293 588.478 203.293H720.2C724.41 203.293 727.952 200.055 728.407 195.785L728.621 193.751L729.088 189.334H580.752H580.766Z" fill="#404040" stroke="white" stroke-width="1.34761" stroke-miterlimit="10"/>
<path vector-effect="non-scaling-stroke" d="M638.534 203.28L636.261 219.072C636.261 219.072 635.994 225.938 627.36 225.938V228.829H683.791V226.192C683.791 226.192 673.553 226.687 674.208 220.451C675.036 212.488 676.346 203.293 676.346 203.293H638.547L638.534 203.28Z" fill="#404040" stroke="white" stroke-width="1.34761" stroke-miterlimit="10"/>
<path vector-effect="non-scaling-stroke" d="M463.412 365.981C463.412 346.964 425.934 345.692 425.934 312.568V149.787H414.306V312.568C414.306 345.706 376.827 346.964 376.827 365.981H463.412Z" fill="#202020" stroke="white" stroke-width="1.34761" stroke-miterlimit="10"/>
<path vector-effect="non-scaling-stroke" d="M393.081 59.5023H443.444C446.545 59.5023 449.244 61.5901 450.02 64.6014L469.988 141.248C471.111 145.571 467.863 149.786 463.412 149.786H413.049C409.948 149.786 407.249 147.699 406.473 144.687L386.504 68.0409C385.382 63.7181 388.63 59.5023 393.081 59.5023Z" stroke="white" stroke-width="1.34761" stroke-miterlimit="10"/>
<path vector-effect="non-scaling-stroke" d="M450.033 64.5881L450.795 67.519H386.397C385.649 63.3836 388.803 59.489 393.08 59.489H443.444C446.544 59.489 449.244 61.5768 450.02 64.5881H450.033Z" fill="#202020" stroke="white" stroke-width="1.34761" stroke-miterlimit="10"/>
<path vector-effect="non-scaling-stroke" d="M470.162 142.212C470.603 146.173 467.529 149.787 463.412 149.787H413.049C409.948 149.787 407.249 147.699 406.473 144.688L405.832 142.212H470.176H470.162Z" fill="#202020" stroke="white" stroke-width="1.34761" stroke-miterlimit="10"/>
<path vector-effect="non-scaling-stroke" d="M400.191 84.449H406.714L408.786 90.3778C409.16 91.4351 410.202 92.1979 411.272 92.1979H445.168C447.146 92.1979 448.884 94.1385 448.603 96.0122L446.718 108.485H416.418C415.295 108.485 414.546 109.396 414.747 110.52C414.947 111.644 416.017 112.554 417.139 112.554H444.941" stroke="white" stroke-width="1.34761" stroke-miterlimit="10"/>
<path vector-effect="non-scaling-stroke" d="M410.617 95.584L413.985 106.09" stroke="white" stroke-width="1.34761" stroke-miterlimit="10"/>
<path vector-effect="non-scaling-stroke" d="M440.156 121.708C438.699 120.37 438.418 118.282 439.541 117.064C440.663 115.846 442.749 115.927 444.219 117.265C445.676 118.603 445.956 120.691 444.834 121.909C443.711 123.14 441.626 123.047 440.156 121.708Z" stroke="white" stroke-width="1.34761" stroke-miterlimit="10"/>
<path vector-effect="non-scaling-stroke" d="M418.222 121.708C416.765 120.37 416.484 118.282 417.607 117.064C418.73 115.833 420.815 115.927 422.285 117.265C423.742 118.603 424.023 120.691 422.9 121.909C421.777 123.14 419.692 123.047 418.222 121.708Z" stroke="white" stroke-width="1.34761" stroke-miterlimit="10"/>
<path vector-effect="non-scaling-stroke" d="M656.11 452.84L677.295 485.615C677.295 485.615 664.25 502.652 644.04 502.652C623.818 502.652 613.432 502.652 613.432 502.652C613.432 502.652 612.871 493.19 621.559 486.94C630.247 480.69 629.498 474.815 628.924 469.315C628.362 463.814 656.11 452.84 656.11 452.84Z" fill="black" stroke="white" stroke-width="1.34761" stroke-miterlimit="10"/>
<path vector-effect="non-scaling-stroke" d="M603.916 460.896V502.653H546.308C546.308 502.653 544.825 493.579 556.547 485.107C566.451 477.96 571.476 471.951 573.187 463.56C574.898 455.155 603.916 460.896 603.916 460.896Z" fill="black" stroke="white" stroke-width="1.34761" stroke-miterlimit="10"/>
<path vector-effect="non-scaling-stroke" d="M558.431 316.209H619.915V462.556H558.431V316.209Z" fill="#202020" stroke="white" stroke-width="1.34761" stroke-miterlimit="10"/>
<path vector-effect="non-scaling-stroke" d="M564.967 210.052L542.004 344.233C539.345 359.758 543.167 375.711 552.564 388.332L619.915 478.763L671.441 444.555L597.594 335.748L600.026 314.83L564.967 210.052Z" fill="#202020" stroke="white" stroke-width="1.34761" stroke-miterlimit="10"/>
<path vector-effect="non-scaling-stroke" d="M603.916 502.652H546.308C546.308 502.652 545.119 495.332 553.366 487.703H603.902V502.652H603.916Z" fill="#202020"/>
<path vector-effect="non-scaling-stroke" d="M620.102 488.091C650.884 493.86 669.877 474.159 669.877 474.159L677.282 485.629C677.282 485.629 664.236 502.666 644.027 502.666C623.804 502.666 613.419 502.666 613.419 502.666C613.419 502.666 612.924 494.301 620.102 488.091Z" fill="#202020"/>
<path vector-effect="non-scaling-stroke" d="M603.916 502.652H546.308C546.308 502.652 545.119 495.332 553.366 487.703H603.902V502.652H603.916Z" stroke="white" stroke-width="1.34761" stroke-miterlimit="10"/>
<path vector-effect="non-scaling-stroke" d="M620.102 488.091C650.884 493.86 669.877 474.159 669.877 474.159L677.282 485.629C677.282 485.629 664.236 502.666 644.027 502.666C623.804 502.666 613.419 502.666 613.419 502.666C613.419 502.666 612.924 494.301 620.102 488.091Z" stroke="white" stroke-width="1.34761" stroke-miterlimit="10"/>
<path vector-effect="non-scaling-stroke" d="M483.488 84.2349C477.046 81.3843 465.698 70.6374 463.332 68.108C462.824 67.5592 461.942 67.5592 461.448 68.1347C459.87 70.0352 458.534 75.2011 473.196 86.2692L483.488 84.2483V84.2349Z" fill="white" stroke="white" stroke-width="1.34761" stroke-miterlimit="10"/>
<path vector-effect="non-scaling-stroke" d="M493.686 110.453V94.0448C493.686 86.2691 480.04 83.927 473.357 80.9559C470.189 79.5506 466.513 81.1031 465.177 84.3419L459.924 97.0695C459.483 98.1535 460.191 99.3714 461.341 99.4651C463.439 99.6257 466.914 97.9394 470.63 87.8082C473.036 89.4276 476.083 90.6321 477.928 92.8805C479.478 94.7675 481.269 98.3944 478.516 100.107C474.667 102.49 469.775 93.6701 465.858 98.555C461.22 104.337 482.379 112.674 494.756 111.309" fill="white"/>
<path vector-effect="non-scaling-stroke" d="M493.686 110.453V94.0448C493.686 86.2691 480.04 83.927 473.357 80.9559C470.189 79.5506 466.513 81.1031 465.177 84.3419L459.924 97.0695C459.483 98.1535 460.191 99.3714 461.341 99.4651C463.439 99.6257 466.914 97.9394 470.63 87.8082C473.036 89.4276 476.083 90.6321 477.928 92.8805C479.478 94.7675 481.269 98.3944 478.516 100.107C474.667 102.49 469.775 93.6701 465.858 98.555C461.22 104.337 482.379 112.674 494.756 111.309" stroke="white" stroke-width="1.34761" stroke-miterlimit="10"/>
<path vector-effect="non-scaling-stroke" d="M498.044 117.774C501.586 115.124 505.529 112.139 506.103 111.631C503.403 108.7 501.679 103.815 499.447 100.362C496.734 96.1595 493.847 92.0642 490.96 87.9689C488.808 84.9175 486.348 82.2943 484.036 79.4169C482.325 77.2889 480.628 74.8933 479.077 72.5646C477.527 70.2493 476.631 68.1883 475.575 65.6588C475.281 64.9629 474.453 64.655 473.798 65.0298C472.114 66.0068 469.882 68.9511 473.891 77.7172C469.146 73.8494 464.709 69.5667 463.332 68.0946C462.824 67.5459 461.942 67.5459 461.448 68.1213C460.111 69.7273 458.962 73.6621 467.449 81.5047C466.473 82.1739 465.658 83.1375 465.163 84.3286L459.91 97.0562C459.469 98.1402 460.178 99.3581 461.327 99.4518C463.426 99.6124 466.901 97.9261 470.617 87.7949C473.023 89.4143 476.07 90.6188 477.914 92.8672C479.465 94.7542 481.256 98.3945 478.503 100.094C474.653 102.476 469.761 93.6568 465.845 98.5417C461.782 103.601 473.878 107.375 476.752 108.941C482.726 112.206 488.033 116.73 492.189 122.137C492.189 122.137 494.983 120.076 498.057 117.76L498.044 117.774Z" fill="black" stroke="white" stroke-width="1.34761" stroke-miterlimit="10"/>
<path vector-effect="non-scaling-stroke" d="M480.761 82.7627C478.583 81.411 476.137 79.5641 473.771 77.6235L480.761 82.7627Z" fill="white"/>
<path vector-effect="non-scaling-stroke" d="M480.761 82.7627C478.583 81.411 476.137 79.5641 473.771 77.6235" stroke="white" stroke-width="1.34761" stroke-miterlimit="10"/>
<path vector-effect="non-scaling-stroke" d="M480.574 85.0914C477.687 83.646 475.455 81.8794 473.357 80.9426C470.189 79.5373 466.513 81.0898 465.177 84.3286" fill="black"/>
<path vector-effect="non-scaling-stroke" d="M480.574 85.0914C477.687 83.646 475.455 81.8794 473.357 80.9426C470.189 79.5373 466.513 81.0898 465.177 84.3286" stroke="white" stroke-width="1.34761" stroke-miterlimit="10"/>
<path vector-effect="non-scaling-stroke" d="M480.574 85.0914C477.687 83.646 475.455 81.8794 473.357 80.9426C470.189 79.5373 466.513 81.0898 465.177 84.3286" stroke="white" stroke-width="1.34761" stroke-miterlimit="10"/>
<path vector-effect="non-scaling-stroke" d="M431.534 87.7948H466.059C468.572 87.7948 470.617 89.8425 470.617 92.3719V111.068C470.617 113.598 468.572 115.646 466.059 115.646H431.534C429.022 115.646 426.977 113.598 426.977 111.068V92.3719C426.977 89.8425 429.022 87.7948 431.534 87.7948Z" fill="#8D2AF3"/>
<path vector-effect="non-scaling-stroke" d="M431.534 87.7948H466.059C468.572 87.7948 470.617 89.8425 470.617 92.3719V111.068C470.617 113.598 468.572 115.646 466.059 115.646H431.534C429.022 115.646 426.977 113.598 426.977 111.068V92.3719C426.977 89.8425 429.022 87.7948 431.534 87.7948Z" stroke="white" stroke-width="1.34761" stroke-miterlimit="10"/>
<path vector-effect="non-scaling-stroke" d="M426.963 92.9341H470.617V98.9566H426.963V92.9341Z" fill="white" stroke="white" stroke-width="1.34761" stroke-miterlimit="10"/>
<path vector-effect="non-scaling-stroke" d="M476.738 108.954C468.933 106.264 463.172 101.874 465.832 98.5551C469.748 93.6702 474.64 102.49 478.489 100.108" fill="white"/>
<path vector-effect="non-scaling-stroke" d="M476.738 108.954C468.933 106.264 463.172 101.874 465.832 98.5551C469.748 93.6702 474.64 102.49 478.489 100.108" stroke="white" stroke-width="1.34761" stroke-miterlimit="10"/>
<path vector-effect="non-scaling-stroke" d="M476.738 108.954C468.933 106.264 463.172 101.874 465.832 98.5551C469.748 93.6702 474.64 102.49 478.489 100.108" fill="black"/>
<path vector-effect="non-scaling-stroke" d="M476.738 108.954C468.933 106.264 463.172 101.874 465.832 98.5551C469.748 93.6702 474.64 102.49 478.489 100.108" stroke="white" stroke-width="1.34761" stroke-miterlimit="10"/>
<path vector-effect="non-scaling-stroke" d="M476.738 108.954C468.933 106.264 463.172 101.874 465.832 98.5551C469.748 93.6702 474.64 102.49 478.489 100.108" stroke="white" stroke-width="1.34761" stroke-miterlimit="10"/>
<path vector-effect="non-scaling-stroke" d="M558.044 316.209H529.106L561.479 151.66L578.026 188.09L558.057 316.222L558.044 316.209Z" fill="#202020" stroke="white" stroke-width="1.34761" stroke-miterlimit="10"/>
<path vector-effect="non-scaling-stroke" d="M561.987 100.576L559.006 84.5962C559.006 84.5962 544.985 96.9759 537.286 91.7965C531.9 88.1696 532.782 80.9158 533.236 72.1631L532.555 72.4575C530.777 73.2338 528.919 71.5073 529.574 69.6738C530.63 66.7161 532.074 63.6647 533.183 61.4966C533.143 61.0817 533.103 60.6802 533.049 60.2653C531.419 46.467 543.675 38.5173 550.238 35.9477C556.801 33.3781 565.983 29.2962 574.444 35.6399C583.051 42.0907 575.82 56.5982 580.285 76.138C581.207 80.1663 583.559 85.8543 589.654 93.0947L561.987 100.563V100.576Z" fill="black" stroke="white" stroke-width="1.34761" stroke-miterlimit="10"/>
<path vector-effect="non-scaling-stroke" d="M536.097 46.4937C540.681 39.7217 547.992 36.4696 550.118 35.6398L551.04 35.2784C557.536 32.7222 566.437 29.2024 574.671 35.3721C579.697 39.1462 579.483 45.6506 579.202 53.8813C579.042 58.3647 578.868 63.4504 579.483 69.0447L579.523 69.406L579.162 69.4462C578.36 69.5265 577.571 69.58 576.809 69.58C560.623 69.58 554.395 50.9905 552.056 48.4744C542.766 50.1206 536.311 47.0692 536.257 47.029L535.883 46.8417L536.11 46.4937H536.097Z" fill="#A1A19F" stroke="white" stroke-width="1.34761" stroke-miterlimit="10"/>
<path vector-effect="non-scaling-stroke" d="M581.18 90.6188H555.116L556.787 106.398L581.18 90.6188Z" fill="white" stroke="white" stroke-width="1.34761" stroke-miterlimit="10"/>
<path vector-effect="non-scaling-stroke" d="M577.304 35.4391C569.391 35.4391 562.976 29.0017 562.976 21.0654C562.976 13.129 569.391 6.69165 577.304 6.69165C585.217 6.69165 591.632 13.129 591.632 21.0654C591.632 29.0017 585.217 35.4391 577.304 35.4391Z" fill="#A1A19F" stroke="white" stroke-width="1.34761" stroke-miterlimit="10"/>
<path vector-effect="non-scaling-stroke" d="M555.116 56.2771C555.116 56.2771 559.754 51.0041 563.738 54.2562C568.803 58.3783 563.738 64.7622 561.131 65.4849" fill="black"/>
<path vector-effect="non-scaling-stroke" d="M555.116 56.2771C555.116 56.2771 559.754 51.0041 563.738 54.2562C568.803 58.3783 563.738 64.7622 561.131 65.4849" stroke="white" stroke-width="1.34761" stroke-miterlimit="10"/>
<path vector-effect="non-scaling-stroke" d="M530.817 58.5388L557.148 54.5238" stroke="white" stroke-width="1.34761" stroke-miterlimit="10"/>
<path vector-effect="non-scaling-stroke" d="M530.216 52.4495L531.512 64.9763" stroke="white" stroke-width="1.34761" stroke-miterlimit="10"/>
<path vector-effect="non-scaling-stroke" d="M533.076 76.9275C539.799 76.9275 541.162 71.2664 541.176 71.1995" stroke="white" stroke-width="1.34761" stroke-miterlimit="10"/>
<path vector-effect="non-scaling-stroke" d="M554.876 171.079L558.057 316.209H659.692L608.701 111.698C603.983 92.7734 580.659 84.2482 565.034 96.1594C559.808 100.134 556.988 105.983 552.858 110.814C549.743 114.468 546.442 117.974 543.247 121.548L528.01 138.558L527.957 138.611L502.495 98.9164L470.349 119.299L502.588 177.022C511.65 193.965 535.041 196.08 546.977 181.037L554.889 171.079H554.876Z" fill="#202020" stroke="white" stroke-width="1.34761" stroke-miterlimit="10"/>
<path vector-effect="non-scaling-stroke" d="M554.876 171.079L578.026 145.705" stroke="white" stroke-width="1.34761" stroke-miterlimit="10"/>
<path vector-effect="non-scaling-stroke" d="M633.147 209.784H558.044" stroke="white" stroke-width="1.34761" stroke-miterlimit="10"/>
<path vector-effect="non-scaling-stroke" d="M488.38 375.725H372.524V502.893H488.38V375.725Z" stroke="white" stroke-width="1.34761" stroke-miterlimit="10"/>
<path vector-effect="non-scaling-stroke" d="M359.077 395.826H497.803C509.405 395.826 518.828 405.262 518.828 416.878C518.828 428.495 509.405 437.93 497.803 437.93H359.077V395.826Z" fill="black" stroke="white" stroke-width="1.34761" stroke-miterlimit="10"/>
<path vector-effect="non-scaling-stroke" d="M359.077 395.826H497.803C509.405 395.826 518.828 405.262 518.828 416.878C518.828 428.495 509.405 437.93 497.803 437.93H359.077V395.826Z" stroke="white" stroke-width="1.34761" stroke-miterlimit="10"/>
<path vector-effect="non-scaling-stroke" d="M389.351 408.487L392.412 414.724L399.282 415.727L394.31 420.572L395.486 427.425L389.351 424.186L383.203 427.425L384.379 420.572L379.407 415.727L386.277 414.724L389.351 408.487Z" fill="#8D2AF3"/>
<path vector-effect="non-scaling-stroke" d="M417.661 408.487L420.735 414.724L427.605 415.727L422.633 420.572L423.809 427.425L417.661 424.186L411.526 427.425L412.702 420.572L407.73 415.727L414.6 414.724L417.661 408.487Z" fill="#8D2AF3"/>
<path vector-effect="non-scaling-stroke" d="M417.661 408.487L420.735 414.724L427.605 415.727L422.633 420.572L423.809 427.425L417.661 424.186L411.526 427.425L412.702 420.572L407.73 415.727L414.6 414.724L417.661 408.487Z" stroke="white" stroke-width="1.34761" stroke-miterlimit="10"/>
<path vector-effect="non-scaling-stroke" d="M445.983 408.487L449.057 414.724L455.927 415.727L450.955 420.572L452.131 427.425L445.983 424.186L439.848 427.425L441.011 420.572L436.052 415.727L442.909 414.724L445.983 408.487Z" fill="#8D2AF3"/>
<path vector-effect="non-scaling-stroke" d="M389.351 408.487L392.412 414.724L399.282 415.727L394.31 420.572L395.486 427.425L389.351 424.186L383.203 427.425L384.379 420.572L379.407 415.727L386.277 414.724L389.351 408.487Z" stroke="white" stroke-width="1.34761" stroke-miterlimit="10"/>
<path vector-effect="non-scaling-stroke" d="M445.983 408.487L449.057 414.724L455.927 415.727L450.955 420.572L452.131 427.425L445.983 424.186L439.848 427.425L441.011 420.572L436.052 415.727L442.909 414.724L445.983 408.487Z" stroke="white" stroke-width="1.34761" stroke-miterlimit="10"/>
<path vector-effect="non-scaling-stroke" d="M474.306 408.487L477.38 414.724L484.25 415.727L479.278 420.572L480.454 427.425L474.306 424.186L468.171 427.425L469.334 420.572L464.361 415.727L471.231 414.724L474.306 408.487Z" stroke="white" stroke-width="1.34761" stroke-miterlimit="10"/>
<path vector-effect="non-scaling-stroke" d="M401.381 489.215H385.916" stroke="white" stroke-width="1.34761" stroke-miterlimit="10"/>
<path vector-effect="non-scaling-stroke" d="M475.883 489.215H415.763" stroke="white" stroke-width="1.34761" stroke-miterlimit="10"/>
<path vector-effect="non-scaling-stroke" d="M455.941 477.759H385.916" stroke="white" stroke-width="1.34761" stroke-miterlimit="10"/>
<path vector-effect="non-scaling-stroke" d="M475.883 477.759H465.083" stroke="white" stroke-width="1.34761" stroke-miterlimit="10"/>
<path vector-effect="non-scaling-stroke" d="M395.674 466.317H385.916" stroke="white" stroke-width="1.34761" stroke-miterlimit="10"/>
<path vector-effect="non-scaling-stroke" d="M440.744 466.317H406.42" stroke="white" stroke-width="1.34761" stroke-miterlimit="10"/>
<path vector-effect="non-scaling-stroke" d="M475.883 466.317H449.659" stroke="white" stroke-width="1.34761" stroke-miterlimit="10"/>
<path vector-effect="non-scaling-stroke" d="M404.241 454.874H385.916" stroke="white" stroke-width="1.34761" stroke-miterlimit="10"/>
<path vector-effect="non-scaling-stroke" d="M465.083 454.874H420.347" stroke="white" stroke-width="1.34761" stroke-miterlimit="10"/>
<path vector-effect="non-scaling-stroke" d="M105.859 204.217C103.279 205.863 102.223 209.851 103.239 212.956C103.907 215.017 104.054 215.298 104.054 215.298L121.818 207.482C121.818 207.482 120.374 204.203 116.217 203.481C113.865 203.066 108.585 202.49 105.859 204.23V204.217Z" fill="#414040"/>
<path vector-effect="non-scaling-stroke" d="M105.137 223.502V227.584L116.378 226.058V224.372L105.137 223.502Z" fill="#E2E2DE" stroke="white" stroke-width="1.34761" stroke-linejoin="round"/>
<path vector-effect="non-scaling-stroke" d="M86.9056 304.016H102.664L123.569 266.784L106.166 267.185L86.9056 304.016Z" fill="#414040"/>
<path vector-effect="non-scaling-stroke" d="M113.744 266.971L131.481 266.476L155.553 314.415L142.802 322.927L113.744 266.971Z" fill="#414040"/>
<path vector-effect="non-scaling-stroke" d="M161.916 253.32H130.465V228.427H161.916V240.151L160.018 241.744L161.916 250.296V253.32Z" fill="#8D2AF3"/>
<path vector-effect="non-scaling-stroke" d="M116.378 224.372L105.137 223.502V227.584L116.378 226.045V224.693L116.391 222.057C116.391 222.057 122.793 225.523 125.012 222.231C127.231 218.939 124.33 214.656 124.33 214.656C124.33 214.656 125.814 214.428 125.507 213.411C125.199 212.394 123.355 210.868 122.686 209.731C122.018 208.593 121.871 207.295 121.497 206.693C118.596 202.049 108.679 202.41 105.845 204.19C102.317 206.398 102.758 211.497 103.439 213.826C104.442 217.239 107.944 219.407 107.262 220.933L106.874 223.609" stroke="white" stroke-width="1.34761" stroke-miterlimit="10"/>
<path vector-effect="non-scaling-stroke" d="M116.378 226.058C123.568 236.886 136.614 245.317 159.576 240.954L161.916 250.296C144.486 254.793 120.093 254.953 109.641 234.892" fill="#202020"/>
<path vector-effect="non-scaling-stroke" d="M126.549 249.908L131.481 266.476L99.7904 267.36L105.444 227.584L116.378 226.058L123.569 239.95" fill="#202020"/>
<path vector-effect="non-scaling-stroke" d="M126.549 249.908L131.481 266.476L99.7904 267.359L105.444 227.584" stroke="white" stroke-width="1.34761" stroke-miterlimit="10"/>
<path vector-effect="non-scaling-stroke" d="M131.481 266.476L155.553 314.415L142.802 322.927L113.744 266.971" stroke="white" stroke-width="1.34761" stroke-miterlimit="10"/>
<path vector-effect="non-scaling-stroke" d="M102.664 304.017L118.423 275.952" stroke="white" stroke-width="1.34761" stroke-miterlimit="10"/>
<path vector-effect="non-scaling-stroke" d="M106.166 267.186L86.9056 304.017" stroke="white" stroke-width="1.34761" stroke-miterlimit="10"/>
<path vector-effect="non-scaling-stroke" d="M104.041 215.298L130.92 203.467" stroke="white" stroke-width="1.34761" stroke-miterlimit="10"/>
<path vector-effect="non-scaling-stroke" d="M145.048 321.428L150.207 328.08L164.228 321.683C164.228 321.683 164.001 318.323 160.953 318.859C157.906 319.394 153.843 320.331 151.53 317.105" stroke="white" stroke-width="1.34761" stroke-miterlimit="10"/>
<path vector-effect="non-scaling-stroke" d="M149.071 326.621L163.586 319.822" stroke="white" stroke-width="1.34761" stroke-miterlimit="10"/>
<path vector-effect="non-scaling-stroke" d="M125.694 217.975C125.694 217.975 123.916 218.992 121.43 217.975" stroke="white" stroke-width="1.34761" stroke-miterlimit="10"/>
<path vector-effect="non-scaling-stroke" d="M127.725 253.856H118.289V266.476" fill="#E2E2DE"/>
<path vector-effect="non-scaling-stroke" d="M127.725 253.856H118.289V266.476" stroke="white" stroke-width="1.34761" stroke-linejoin="round"/>
<path vector-effect="non-scaling-stroke" d="M127.725 253.856H118.289V266.476" stroke="white" stroke-width="1.34761" stroke-miterlimit="10"/>
<path vector-effect="non-scaling-stroke" d="M118.008 266.851L127.725 253.856" stroke="white" stroke-width="1.34761" stroke-miterlimit="10"/>
<path vector-effect="non-scaling-stroke" d="M139.033 315.673L152.051 307.443" stroke="white" stroke-width="1.34761" stroke-miterlimit="10"/>
<path vector-effect="non-scaling-stroke" d="M161.916 248.489V253.32H130.465V251.233" stroke="white" stroke-width="1.34761" stroke-miterlimit="10"/>
<path vector-effect="non-scaling-stroke" d="M130.465 238.492V228.427H161.916V236.872" stroke="white" stroke-width="1.34761" stroke-miterlimit="10"/>
<path vector-effect="non-scaling-stroke" d="M160.018 241.744L161.916 240.151V236.872C161.916 236.872 166.099 236.738 166.433 241.396C166.767 246.053 161.715 248.489 161.715 248.489" stroke="white" stroke-width="1.34761" stroke-miterlimit="10"/>
<path vector-effect="non-scaling-stroke" d="M149.899 228.427H144.486V236.872H149.899V228.427Z" fill="#E2E2DE" stroke="white" stroke-width="1.34761" stroke-linejoin="round"/>
<path vector-effect="non-scaling-stroke" d="M149.899 228.427H144.486V236.872H149.899V228.427Z" stroke="white" stroke-width="1.34761" stroke-miterlimit="10"/>
<path vector-effect="non-scaling-stroke" d="M116.378 226.058C123.568 236.886 136.614 245.317 159.576 240.954L161.474 248.556L161.916 250.296C144.486 254.793 120.093 254.953 109.641 234.892" stroke="white" stroke-width="1.34761" stroke-miterlimit="10"/>
<path vector-effect="non-scaling-stroke" d="M359.077 207.108H322.08V238.786H359.077V207.108Z" fill="black"/>
<path vector-effect="non-scaling-stroke" d="M359.077 207.108H322.08V238.786H359.077V207.108Z" stroke="white" stroke-width="1.34761" stroke-miterlimit="10"/>
<path vector-effect="non-scaling-stroke" d="M322.08 222.953H359.077" stroke="white" stroke-width="1.34761" stroke-miterlimit="10"/>
<path vector-effect="non-scaling-stroke" d="M337.037 207.108V238.799" stroke="white" stroke-width="1.34761" stroke-miterlimit="10"/>
<path vector-effect="non-scaling-stroke" d="M351.98 207.108V238.799" stroke="white" stroke-width="1.34761" stroke-miterlimit="10"/>
<path vector-effect="non-scaling-stroke" d="M292.983 250.711H250.011V259.517H292.983V250.711Z" fill="#202020" stroke="white" stroke-width="1.34761" stroke-miterlimit="10"/>
<path vector-effect="non-scaling-stroke" d="M85.9032 422.018V426.327" stroke="white" stroke-width="1.34761" stroke-miterlimit="10"/>
<path vector-effect="non-scaling-stroke" d="M85.9032 396.616V400.925" stroke="white" stroke-width="1.34761" stroke-miterlimit="10"/>
<path vector-effect="non-scaling-stroke" d="M92.7466 406.011C92.613 403.107 89.7125 400.925 85.8498 400.925C82.789 400.925 79.4876 402.866 79.4876 406.011C79.4876 408.888 82.4682 411.418 85.8498 411.418C89.7794 411.418 92.7466 413.773 92.7466 416.892C92.7466 419.167 90.6883 421.188 87.7477 421.817C87.173 421.937 86.5715 422.031 85.9567 422.031C85.3419 422.031 84.7137 421.951 84.1256 421.817C81.3187 421.174 79.3539 419.153 79.3539 416.892" stroke="white" stroke-width="1.34761" stroke-miterlimit="10"/>
<path vector-effect="non-scaling-stroke" d="M86.0502 433.688C98.4 433.688 108.412 423.663 108.412 411.298C108.412 398.932 98.4 388.907 86.0502 388.907C73.7004 388.907 63.6889 398.932 63.6889 411.298C63.6889 423.663 73.7004 433.688 86.0502 433.688Z" stroke="white" stroke-width="1.34761" stroke-miterlimit="10"/>
</g>
<defs>
<clipPath id="clip0_1_5984">
<rect width="802" height="535" fill="white"/>
</clipPath>
</defs>
</svg>
