<svg width="802" height="535" viewBox="0 0 802 535" fill="none" xmlns="http://www.w3.org/2000/svg">
<g clip-path="url(#clip0_20_12237)">
<path vector-effect="non-scaling-stroke" d="M686.294 419.13C743.597 376.946 780.778 309.032 780.778 232.416C780.778 104.436 677.029 0.6875 549.049 0.6875C471.87 0.6875 403.529 38.4178 361.414 96.436" stroke="white" stroke-width="1.37451"/>
<path vector-effect="non-scaling-stroke" d="M462.633 19.9717H376.946V105.659H462.633V19.9717Z" fill="black" stroke="white" stroke-width="1.37451" stroke-miterlimit="10"/>
<path vector-effect="non-scaling-stroke" d="M606.05 19.9717H520.363V105.659H606.05V19.9717Z" fill="black" stroke="white" stroke-width="1.37451" stroke-miterlimit="10"/>
<path vector-effect="non-scaling-stroke" d="M419.79 85.5356C432.338 85.5356 442.51 75.3632 442.51 62.8149C442.51 50.2666 432.338 40.0942 419.79 40.0942C407.241 40.0942 397.069 50.2666 397.069 62.8149C397.069 75.3632 407.241 85.5356 419.79 85.5356Z" fill="black"/>
<path vector-effect="non-scaling-stroke" d="M419.79 85.5356C432.338 85.5356 442.51 75.3632 442.51 62.8149C442.51 50.2666 432.338 40.0942 419.79 40.0942C407.241 40.0942 397.069 50.2666 397.069 62.8149C397.069 75.3632 407.241 85.5356 419.79 85.5356Z" fill="black" stroke="white" stroke-width="1.37451" stroke-miterlimit="10"/>
<path vector-effect="non-scaling-stroke" d="M563.206 41.1123L538.162 84.5056H588.263L563.206 41.1123Z" fill="black"/>
<path vector-effect="non-scaling-stroke" d="M563.206 41.1123L538.162 84.5056H588.263L563.206 41.1123Z" fill="black" stroke="white" stroke-width="1.37451" stroke-miterlimit="10"/>
<path vector-effect="non-scaling-stroke" d="M472.956 102.458L493.986 123.488" stroke="white" stroke-width="1.37451" stroke-miterlimit="10"/>
<path vector-effect="non-scaling-stroke" d="M452.737 82.2383L471.114 124.505L495.003 100.615L452.737 82.2383Z" fill="#404040" stroke="white" stroke-width="1.37451" stroke-miterlimit="10"/>
<path vector-effect="non-scaling-stroke" d="M568.003 99.2944H555.812V116.723H568.003V99.2944Z" fill="#020202" stroke="white" stroke-width="1.37451" stroke-miterlimit="10"/>
<path vector-effect="non-scaling-stroke" d="M575.329 164.09H548.485V219.029H575.329V164.09Z" fill="#020202" stroke="white" stroke-width="1.37451" stroke-miterlimit="10"/>
<path vector-effect="non-scaling-stroke" d="M528.514 209.078H491.69V300.015H528.514V209.078Z" fill="#202020" stroke="white" stroke-width="1.37451" stroke-miterlimit="10"/>
<path vector-effect="non-scaling-stroke" d="M693.895 217.379L722.058 195.524V189.779C722.058 186.851 723.543 184.116 725.99 182.522L735.405 176.377C738.154 174.577 740.711 172.488 743.006 170.137L748.683 164.337C750.002 162.99 752.091 162.756 753.658 163.787L753.741 163.842C755.679 165.106 756.188 167.718 754.868 169.601C750.841 175.36 743.185 186.343 743.185 186.343L746.951 180.941C750.167 183.951 754.346 185.724 758.744 185.972L765.067 186.329C761.04 191.497 755.665 195.469 749.549 197.82C755.665 195.469 761.026 191.497 765.067 186.329L771.72 176.556C772.957 174.742 775.389 174.192 777.286 175.305L777.383 175.36C779.472 176.597 780.145 179.278 778.881 181.326C774.675 188.143 766.194 201.916 766.194 201.916L779.568 180.171C780.626 178.453 781.987 176.941 783.582 175.718L785.781 174.027C786.619 173.381 787.678 173.079 788.736 173.175C790.427 173.326 791.966 174.233 792.914 175.649L793.396 176.35C794.165 177.477 794.33 178.907 793.863 180.171C793.67 180.68 793.382 181.147 793.024 181.546L777.974 197.985L789.712 185.161L796.447 185.298C797.547 185.326 798.605 185.71 799.457 186.411C800.323 187.112 800.914 188.088 801.148 189.174L801.23 189.559C801.464 190.617 801.34 191.703 800.887 192.679L800.681 193.119C800.186 194.191 799.306 195.043 798.234 195.524L796.103 196.473C794.11 197.366 792.062 198.15 789.973 198.809L783.334 200.926L758.029 209.173C751.239 211.386 744.903 214.823 739.336 219.303L719.048 235.646L693.922 217.324L693.895 217.379Z" fill="#020202"/>
<path vector-effect="non-scaling-stroke" d="M765.067 186.329L758.744 185.972C754.346 185.724 750.167 183.951 746.951 180.941L743.185 186.343C743.185 186.343 750.841 175.36 754.868 169.601C756.188 167.718 755.679 165.106 753.741 163.842L753.658 163.787C752.091 162.756 750.002 162.99 748.683 164.337L743.006 170.137C740.711 172.488 738.154 174.577 735.405 176.377L725.99 182.522C723.543 184.116 722.058 186.851 722.058 189.779V195.524L693.895 217.379L693.922 217.324L719.048 235.646L739.336 219.303C744.903 214.823 751.239 211.386 758.029 209.173L783.334 200.926L789.973 198.809C792.062 198.15 794.11 197.366 796.103 196.473L798.234 195.524C799.306 195.043 800.186 194.191 800.681 193.119L800.887 192.679C801.34 191.703 801.464 190.617 801.23 189.559L801.148 189.174C800.914 188.088 800.323 187.112 799.457 186.411C798.605 185.71 797.547 185.326 796.447 185.298L789.712 185.161L777.974 197.985L793.024 181.546C793.382 181.147 793.67 180.68 793.863 180.171C794.33 178.907 794.165 177.477 793.396 176.35L792.914 175.649C791.966 174.233 790.427 173.326 788.736 173.175C787.678 173.079 786.619 173.381 785.781 174.027L783.582 175.718C781.987 176.941 780.626 178.453 779.568 180.171L766.194 201.916C766.194 201.916 774.675 188.143 778.881 181.326C780.145 179.278 779.472 176.597 777.383 175.36L777.286 175.305C775.389 174.192 772.957 174.742 771.72 176.556L765.067 186.329ZM765.067 186.329C761.04 191.497 755.665 195.469 749.549 197.82M765.067 186.329C761.026 191.497 755.665 195.469 749.549 197.82M749.549 197.82L746.415 199.029" stroke="white" stroke-width="1.37451" stroke-linecap="round" stroke-linejoin="round"/>
<path vector-effect="non-scaling-stroke" d="M526.726 289.541H530.067C544.829 289.541 548.334 290.008 551.11 292.729C552.98 294.571 555.248 299.794 555.701 302.378L557.57 306.241C558.285 307.725 552.856 342.885 554.217 344.274C554.272 344.329 544.1 406.553 544.155 406.594L621.884 403.941V228.512V286.956L631.395 296.839C633.801 299.327 636.701 301.293 639.904 302.598C642.983 303.849 646.295 304.468 649.622 304.399L651.463 304.372C656.219 304.289 660.851 302.818 664.796 300.166L669.387 297.073C670.198 296.523 670.981 295.932 671.724 295.286L723.172 250.862C725.605 248.759 727.006 245.694 727.006 242.477C727.006 234.753 724.189 227.289 719.076 221.502L709.413 210.534C706.87 207.647 703.214 205.998 699.379 205.998C690.335 205.998 681.62 209.42 674.995 215.564L647.532 240.8L656.412 232.801L629.993 197.283C624.88 190.411 616.812 186.356 608.249 186.356H575.329L569.446 206.08C569.446 207.427 567.756 208.018 566.903 206.974L548.471 186.37H511.717C503.607 186.37 496.047 190.452 491.594 197.228L443.871 270.009C432.957 286.654 444.902 308.77 464.805 308.77H501.009L502.068 305.76C503.992 300.303 507.813 295.712 512.83 292.812C516.528 290.681 520.706 289.554 524.967 289.554H526.713V287.946C526.713 280.977 522.933 274.558 516.83 271.191L507.208 265.871C502.851 263.466 500.143 258.875 500.143 253.899V228.54" fill="#202020"/>
<path vector-effect="non-scaling-stroke" d="M526.726 289.541H530.067C544.829 289.541 548.334 290.008 551.11 292.729C552.98 294.571 555.248 299.794 555.701 302.378L557.57 306.241C558.285 307.725 552.856 342.885 554.217 344.274C554.272 344.329 544.1 406.553 544.155 406.594L621.884 403.941V228.512V286.956L631.395 296.839C633.801 299.327 636.701 301.293 639.904 302.598C642.983 303.849 646.295 304.468 649.622 304.399L651.463 304.372C656.219 304.289 660.851 302.818 664.796 300.166L669.387 297.073C670.198 296.523 670.981 295.932 671.724 295.286L723.172 250.862C725.605 248.759 727.006 245.694 727.006 242.477C727.006 234.753 724.189 227.289 719.076 221.502L709.413 210.534C706.87 207.647 703.214 205.998 699.379 205.998C690.335 205.998 681.62 209.42 674.995 215.564L647.532 240.8L656.412 232.801L629.993 197.283C624.88 190.411 616.812 186.356 608.249 186.356H575.329L569.446 206.08C569.446 207.427 567.756 208.018 566.903 206.974L548.471 186.37H511.717C503.607 186.37 496.047 190.452 491.594 197.228L443.871 270.009C432.957 286.654 444.902 308.77 464.805 308.77H501.009L502.068 305.76C503.992 300.303 507.813 295.712 512.83 292.812C516.528 290.681 520.706 289.554 524.967 289.554H526.713V287.946C526.713 280.977 522.933 274.558 516.83 271.191L507.208 265.871C502.851 263.466 500.143 258.875 500.143 253.899V228.54" stroke="white" stroke-width="1.37451" stroke-miterlimit="10"/>
<path vector-effect="non-scaling-stroke" d="M561.9 180.432C577.014 180.432 589.266 165.539 589.266 147.168C589.266 128.798 577.014 113.905 561.9 113.905C546.786 113.905 534.533 128.798 534.533 147.168C534.533 165.539 546.786 180.432 561.9 180.432Z" fill="#020202" stroke="white" stroke-width="1.37451" stroke-miterlimit="10"/>
<path vector-effect="non-scaling-stroke" d="M562.436 125.039L562.477 124.874C564.292 132.351 569.487 138.55 576.539 141.615L589.266 147.168C589.266 128.791 577.02 113.905 561.9 113.905C546.78 113.905 534.533 128.791 534.533 147.168L548.072 141.547C555.179 138.591 560.498 132.489 562.436 125.039Z" fill="#404040" stroke="white" stroke-width="1.37451" stroke-miterlimit="10"/>
<path vector-effect="non-scaling-stroke" d="M557.433 91.7075H566.381C572.416 91.7075 577.323 96.6145 577.323 102.649V104.889C577.323 107.652 575.068 109.906 572.306 109.906H551.496C548.733 109.906 546.479 107.652 546.479 104.889V102.649C546.479 96.6145 551.386 91.7075 557.42 91.7075H557.433Z" fill="#404040" stroke="white" stroke-width="1.37451" stroke-miterlimit="10"/>
<path vector-effect="non-scaling-stroke" d="M631.093 384.066H572.607V413.935H631.093V384.066Z" fill="#020202"/>
<path vector-effect="non-scaling-stroke" d="M0.68689 241.157H314.515C350.404 241.157 379.489 270.297 379.489 306.227C379.489 342.17 350.39 371.296 314.515 371.296H0.68689" stroke="white" stroke-width="1.37451" stroke-miterlimit="10"/>
<path vector-effect="non-scaling-stroke" d="M0.755615 241.158H129.053V371.311H0.755615V241.158Z" stroke="white" stroke-width="1.37451" stroke-miterlimit="10"/>
<path vector-effect="non-scaling-stroke" d="M0.755615 371.283H350.899C386.787 371.283 415.872 400.588 415.872 436.737C415.872 472.887 386.773 502.192 350.899 502.192H13.5386" stroke="white" stroke-width="1.37451" stroke-miterlimit="10"/>
<path vector-effect="non-scaling-stroke" d="M148.516 371.283H276.813V502.192H148.516V371.283Z" fill="black" stroke="white" stroke-width="1.37451" stroke-miterlimit="10"/>
<path vector-effect="non-scaling-stroke" d="M325.223 453.63H400.89V514.686H325.223V453.63Z" fill="black" stroke="white" stroke-width="1.37451" stroke-miterlimit="10"/>
<path vector-effect="non-scaling-stroke" d="M325.223 514.686H230.148V406.319H325.223V514.686Z" fill="black" stroke="white" stroke-width="1.37451" stroke-miterlimit="10"/>
<path vector-effect="non-scaling-stroke" d="M304.248 453.63V382.183C304.248 367.695 292.509 355.943 278.05 355.943C263.576 355.943 251.851 367.695 251.851 382.183V453.63" stroke="white" stroke-width="1.37451" stroke-miterlimit="10"/>
<path vector-effect="non-scaling-stroke" d="M363.365 453.63V514.686" stroke="white" stroke-width="1.37451" stroke-miterlimit="10"/>
<path vector-effect="non-scaling-stroke" d="M325.855 484.158H400.876" stroke="white" stroke-width="1.37451" stroke-miterlimit="10"/>
<path vector-effect="non-scaling-stroke" d="M387.653 453.63H339.078V398.265H387.653V453.63Z" stroke="white" stroke-width="1.37451" stroke-miterlimit="10"/>
<path vector-effect="non-scaling-stroke" d="M376.946 422.443V385.936C376.946 378.527 370.953 372.534 363.558 372.534C356.163 372.534 350.17 378.541 350.17 385.936V422.443" stroke="white" stroke-width="1.37451" stroke-miterlimit="10"/>
<path vector-effect="non-scaling-stroke" d="M219.866 216.321H345.717C349.744 216.321 353.125 213.228 353.565 209.16L362.774 122.923C363.283 118.181 359.627 114.03 354.926 114.03H229.076C225.048 114.03 221.667 117.122 221.227 121.191L212.018 207.428C211.509 212.17 215.166 216.321 219.866 216.321Z" stroke="white" stroke-width="1.37451" stroke-miterlimit="10"/>
<path vector-effect="non-scaling-stroke" d="M339.078 127.898H297.045C294.662 127.898 292.729 129.831 292.729 132.214V159.265C292.729 161.648 294.662 163.581 297.045 163.581H339.078C341.462 163.581 343.394 161.648 343.394 159.265V132.214C343.394 129.831 341.462 127.898 339.078 127.898Z" fill="black" stroke="white" stroke-width="1.37451" stroke-miterlimit="10"/>
<path vector-effect="non-scaling-stroke" d="M339.078 127.898H297.045C294.662 127.898 292.729 129.831 292.729 132.214V159.265C292.729 161.648 294.662 163.581 297.045 163.581H339.078C341.462 163.581 343.394 161.648 343.394 159.265V132.214C343.394 129.831 341.462 127.898 339.078 127.898Z" stroke="white" stroke-width="1.37451" stroke-miterlimit="10"/>
<path vector-effect="non-scaling-stroke" d="M278.696 127.898H236.663C234.28 127.898 232.347 129.831 232.347 132.214V159.265C232.347 161.648 234.28 163.581 236.663 163.581H278.696C281.079 163.581 283.012 161.648 283.012 159.265V132.214C283.012 129.831 281.079 127.898 278.696 127.898Z" stroke="white" stroke-width="1.37451" stroke-miterlimit="10"/>
<path vector-effect="non-scaling-stroke" d="M299.588 169.738H336.549" stroke="white" stroke-width="1.37451" stroke-miterlimit="10"/>
<path vector-effect="non-scaling-stroke" d="M299.588 175.896H336.549" stroke="white" stroke-width="1.37451" stroke-miterlimit="10"/>
<path vector-effect="non-scaling-stroke" d="M299.588 182.041H336.549" stroke="white" stroke-width="1.37451" stroke-miterlimit="10"/>
<path vector-effect="non-scaling-stroke" d="M299.588 188.198H336.549" stroke="white" stroke-width="1.37451" stroke-miterlimit="10"/>
<path vector-effect="non-scaling-stroke" d="M212.485 203.016L212.018 207.428C211.509 212.17 215.166 216.321 219.866 216.321H345.717C349.744 216.321 353.125 213.228 353.565 209.16L353.771 207.222L354.225 203.002H212.499L212.485 203.016Z" fill="black" stroke="white" stroke-width="1.37451" stroke-miterlimit="10"/>
<path vector-effect="non-scaling-stroke" d="M267.672 216.321L265.5 231.385C265.5 231.385 265.239 237.942 256.992 237.942V240.691H310.901V238.176C310.901 238.176 301.128 238.643 301.746 232.705C302.543 225.104 303.781 216.335 303.781 216.335H267.672V216.321Z" fill="black" stroke="white" stroke-width="1.37451" stroke-miterlimit="10"/>
<path vector-effect="non-scaling-stroke" d="M100.367 371.558C100.367 353.414 64.5605 352.205 64.5605 320.591V165.271H53.4545V320.591C53.4545 352.205 17.6484 353.414 17.6484 371.558H100.367Z" fill="black" stroke="white" stroke-width="1.37451" stroke-miterlimit="10"/>
<path vector-effect="non-scaling-stroke" d="M33.1804 79.1304H81.3021C84.2573 79.1304 86.8414 81.1234 87.5973 83.9961L106.676 157.12C107.748 161.244 104.641 165.271 100.394 165.271H52.2724C49.3172 165.271 46.7331 163.278 45.9909 160.405L26.9127 87.2812C25.8405 83.1577 28.9469 79.1304 33.2079 79.1304H33.1804Z" stroke="white" stroke-width="1.37451" stroke-miterlimit="10"/>
<path vector-effect="non-scaling-stroke" d="M87.5834 83.9966L88.3119 86.8006H26.7888C26.074 82.8557 29.0842 79.1445 33.1803 79.1445H81.3019C84.2571 79.1445 86.8412 81.1376 87.5972 84.0103L87.5834 83.9966Z" fill="#202020" stroke="white" stroke-width="1.37451" stroke-miterlimit="10"/>
<path vector-effect="non-scaling-stroke" d="M106.827 158.055C107.253 161.835 104.311 165.271 100.367 165.271H52.2449C49.2897 165.271 46.7056 163.278 45.9634 160.406L45.3448 158.042H106.813L106.827 158.055Z" fill="#202020" stroke="white" stroke-width="1.37451" stroke-miterlimit="10"/>
<path vector-effect="non-scaling-stroke" d="M39.9705 102.937H46.197L48.1763 108.586C48.5337 109.589 49.5233 110.318 50.5405 110.318H82.9239C84.807 110.318 86.4702 112.16 86.1953 113.96L84.3947 125.85H55.4475C54.3753 125.85 53.6606 126.716 53.853 127.788C54.0455 128.86 55.0626 129.726 56.1347 129.726H82.6903" stroke="white" stroke-width="1.37451" stroke-miterlimit="10"/>
<path vector-effect="non-scaling-stroke" d="M49.9357 113.562L53.152 123.583" stroke="white" stroke-width="1.37451" stroke-miterlimit="10"/>
<path vector-effect="non-scaling-stroke" d="M78.1545 138.495C76.7525 137.217 76.4914 135.224 77.5635 134.056C78.6356 132.887 80.6286 132.97 82.0306 134.248C83.4189 135.526 83.6938 137.519 82.6217 138.688C81.5496 139.856 79.5565 139.774 78.1545 138.495Z" stroke="white" stroke-width="1.37451" stroke-miterlimit="10"/>
<path vector-effect="non-scaling-stroke" d="M57.2068 138.495C55.8185 137.217 55.5436 135.224 56.6157 134.056C57.6879 132.887 59.6809 132.97 61.0829 134.248C62.4712 135.526 62.7461 137.519 61.6739 138.688C60.6018 139.856 58.6088 139.774 57.2068 138.495Z" stroke="white" stroke-width="1.37451" stroke-miterlimit="10"/>
<path vector-effect="non-scaling-stroke" d="M284.468 454.441L304.715 485.712C304.715 485.712 292.262 501.972 272.936 501.972C253.624 501.972 243.687 501.972 243.687 501.972C243.687 501.972 243.151 492.955 251.453 486.99C259.755 481.024 259.04 475.416 258.49 470.18C257.954 464.943 284.468 454.455 284.468 454.455V454.441Z" fill="black" stroke="white" stroke-width="1.37451" stroke-miterlimit="10"/>
<path vector-effect="non-scaling-stroke" d="M234.601 462.125V501.972H179.566C179.566 501.972 178.136 493.312 189.352 485.23C198.809 478.412 203.62 472.681 205.255 464.667C206.891 456.654 234.601 462.125 234.601 462.125Z" fill="black" stroke="white" stroke-width="1.37451" stroke-miterlimit="10"/>
<path vector-effect="non-scaling-stroke" d="M191.139 324.068H249.886V463.705H191.139V324.068Z" fill="#202020" stroke="white" stroke-width="1.37451" stroke-miterlimit="10"/>
<path vector-effect="non-scaling-stroke" d="M197.393 222.781L175.456 350.816C172.913 365.634 176.569 380.85 185.545 392.89L249.886 479.168L299.121 446.537L228.567 342.721L230.89 322.763L197.393 222.781Z" fill="#202020" stroke="white" stroke-width="1.37451" stroke-miterlimit="10"/>
<path vector-effect="non-scaling-stroke" d="M234.601 501.972H179.566C179.566 501.972 178.425 494.989 186.315 487.704H234.601V501.972Z" fill="#202020"/>
<path vector-effect="non-scaling-stroke" d="M250.065 488.062C279.479 493.56 297.623 474.771 297.623 474.771L304.701 485.712C304.701 485.712 292.248 501.972 272.923 501.972C253.611 501.972 243.673 501.972 243.673 501.972C243.673 501.972 243.192 493.986 250.051 488.076L250.065 488.062Z" fill="#202020"/>
<path vector-effect="non-scaling-stroke" d="M234.601 501.972H179.566C179.566 501.972 178.425 494.989 186.315 487.704H234.601V501.972Z" stroke="white" stroke-width="1.37451" stroke-miterlimit="10"/>
<path vector-effect="non-scaling-stroke" d="M250.065 488.062C279.479 493.56 297.623 474.771 297.623 474.771L304.701 485.712C304.701 485.712 292.248 501.972 272.923 501.972C253.611 501.972 243.673 501.972 243.673 501.972C243.673 501.972 243.192 493.986 250.051 488.076L250.065 488.062Z" stroke="white" stroke-width="1.37451" stroke-miterlimit="10"/>
<path vector-effect="non-scaling-stroke" d="M119.555 102.745C113.411 100.023 102.552 89.7694 100.298 87.3503C99.8029 86.828 98.9645 86.828 98.4971 87.3778C96.9852 89.1921 95.7206 94.1266 109.713 104.683L119.541 102.745H119.555Z" fill="white" stroke="white" stroke-width="1.37451" stroke-miterlimit="10"/>
<path vector-effect="non-scaling-stroke" d="M129.3 127.747V112.091C129.3 104.669 116.256 102.428 109.878 99.5967C106.854 98.2634 103.335 99.7341 102.057 102.827L97.0264 114.964C96.6003 115.995 97.2876 117.163 98.3872 117.245C100.394 117.41 103.72 115.788 107.267 106.126C109.562 107.665 112.476 108.82 114.235 110.964C115.706 112.765 117.438 116.228 114.799 117.864C111.115 120.132 106.442 111.72 102.703 116.379C98.2635 121.891 118.483 129.85 130.317 128.558" fill="white"/>
<path vector-effect="non-scaling-stroke" d="M129.3 127.747V112.091C129.3 104.669 116.256 102.428 109.878 99.5967C106.854 98.2634 103.335 99.7341 102.057 102.827L97.0264 114.964C96.6003 115.995 97.2876 117.163 98.3872 117.245C100.394 117.41 103.72 115.788 107.267 106.126C109.562 107.665 112.476 108.82 114.235 110.964C115.706 112.765 117.438 116.228 114.799 117.864C111.115 120.132 106.442 111.72 102.703 116.379C98.2635 121.891 118.483 129.85 130.317 128.558" stroke="white" stroke-width="1.37451" stroke-miterlimit="10"/>
<path vector-effect="non-scaling-stroke" d="M133.465 134.729C136.86 132.2 140.626 129.355 141.162 128.874C138.578 126.07 136.928 121.41 134.798 118.125C132.2 114.111 129.451 110.208 126.688 106.304C124.627 103.404 122.29 100.889 120.063 98.1396C118.427 96.1053 116.806 93.8236 115.321 91.5969C113.837 89.3839 112.984 87.4184 111.967 85.013C111.692 84.3532 110.895 84.0508 110.277 84.422C108.668 85.3566 106.538 88.1606 110.373 96.5314C105.851 92.834 101.603 88.7654 100.284 87.3497C99.7891 86.8273 98.9506 86.8273 98.4833 87.3772C97.205 88.9029 96.1054 92.6553 104.215 100.146C103.28 100.792 102.497 101.7 102.03 102.84L96.9988 114.977C96.5727 116.008 97.26 117.177 98.3596 117.259C100.366 117.424 103.693 115.802 107.239 106.139C109.534 107.679 112.448 108.833 114.208 110.978C115.678 112.778 117.41 116.242 114.771 117.878C111.088 120.146 106.414 111.733 102.676 116.393C98.7857 121.231 110.345 124.819 113.094 126.317C118.812 129.437 123.871 133.753 127.843 138.908C127.843 138.908 130.509 136.942 133.451 134.729H133.465Z" fill="black" stroke="white" stroke-width="1.37451" stroke-miterlimit="10"/>
<path vector-effect="non-scaling-stroke" d="M116.957 101.328C114.867 100.036 112.531 98.2769 110.277 96.4351L116.957 101.328Z" fill="white"/>
<path vector-effect="non-scaling-stroke" d="M116.957 101.328C114.867 100.036 112.531 98.2769 110.277 96.4351" stroke="white" stroke-width="1.37451" stroke-miterlimit="10"/>
<path vector-effect="non-scaling-stroke" d="M116.764 103.555C114.015 102.181 111.871 100.49 109.864 99.5967C106.84 98.2634 103.322 99.7341 102.043 102.827" fill="black"/>
<path vector-effect="non-scaling-stroke" d="M116.764 103.555C114.015 102.181 111.871 100.49 109.864 99.5967C106.84 98.2634 103.322 99.7341 102.043 102.827" stroke="white" stroke-width="1.37451" stroke-miterlimit="10"/>
<path vector-effect="non-scaling-stroke" d="M116.764 103.555C114.015 102.181 111.871 100.49 109.864 99.5967C106.84 98.2634 103.322 99.7341 102.043 102.827" stroke="white" stroke-width="1.37451" stroke-miterlimit="10"/>
<path vector-effect="non-scaling-stroke" d="M69.9073 106.14H102.896C105.301 106.14 107.253 108.092 107.253 110.511V128.338C107.253 130.744 105.301 132.709 102.896 132.709H69.9073C67.5019 132.709 65.55 130.758 65.55 128.338V110.511C65.55 108.106 67.5019 106.14 69.9073 106.14Z" fill="#202020"/>
<path vector-effect="non-scaling-stroke" d="M69.9073 106.14H102.896C105.301 106.14 107.253 108.092 107.253 110.511V128.338C107.253 130.744 105.301 132.709 102.896 132.709H69.9073C67.5019 132.709 65.55 130.758 65.55 128.338V110.511C65.55 108.106 67.5019 106.14 69.9073 106.14Z" stroke="white" stroke-width="1.37451" stroke-miterlimit="10"/>
<path vector-effect="non-scaling-stroke" d="M65.55 111.033H107.253V116.778H65.55V111.033Z" fill="white" stroke="white" stroke-width="1.37451" stroke-miterlimit="10"/>
<path vector-effect="non-scaling-stroke" d="M113.095 126.317C105.631 123.761 100.133 119.555 102.676 116.393C106.414 111.734 111.088 120.146 114.771 117.878" fill="white"/>
<path vector-effect="non-scaling-stroke" d="M113.095 126.317C105.631 123.761 100.133 119.555 102.676 116.393C106.414 111.734 111.088 120.146 114.771 117.878" stroke="white" stroke-width="1.37451" stroke-miterlimit="10"/>
<path vector-effect="non-scaling-stroke" d="M113.095 126.317C105.631 123.761 100.133 119.555 102.676 116.393C106.414 111.734 111.088 120.146 114.771 117.878" fill="black"/>
<path vector-effect="non-scaling-stroke" d="M113.095 126.317C105.631 123.761 100.133 119.555 102.676 116.393C106.414 111.734 111.088 120.146 114.771 117.878" stroke="white" stroke-width="1.37451" stroke-miterlimit="10"/>
<path vector-effect="non-scaling-stroke" d="M113.095 126.317C105.631 123.761 100.133 119.555 102.676 116.393C106.414 111.734 111.088 120.146 114.771 117.878" stroke="white" stroke-width="1.37451" stroke-miterlimit="10"/>
<path vector-effect="non-scaling-stroke" d="M190.782 324.069H163.14L194.067 167.058L209.874 201.806L190.796 324.055L190.782 324.069Z" fill="#202020" stroke="white" stroke-width="1.37451" stroke-miterlimit="10"/>
<path vector-effect="non-scaling-stroke" d="M194.548 118.331L191.703 103.088C191.703 103.088 178.301 114.895 170.961 109.96C165.807 106.497 166.659 99.5827 167.085 91.2257L166.425 91.5144C164.721 92.2566 162.962 90.6072 163.58 88.8478C164.584 86.0301 165.972 83.1161 167.03 81.0543C166.989 80.6695 166.948 80.2709 166.907 79.886C165.353 66.7182 177.05 59.1309 183.332 56.6842C189.614 54.2376 198.383 50.334 206.451 56.3819C214.671 62.5397 207.757 76.381 212.032 95.0194C212.911 98.868 215.152 104.284 220.98 111.211L194.548 118.331Z" fill="black" stroke="white" stroke-width="1.37451" stroke-miterlimit="10"/>
<path vector-effect="non-scaling-stroke" d="M169.807 66.7181C174.178 60.2579 181.174 57.1515 183.208 56.3542L184.088 56.0106C190.301 53.564 198.809 50.2239 206.657 56.1068C211.468 59.7081 211.248 65.9071 210.987 73.7693C210.836 78.044 210.671 82.8961 211.248 88.2292L211.29 88.5728L210.946 88.614C210.176 88.6965 209.42 88.7377 208.692 88.7377C193.228 88.7377 187.277 70.9928 185.036 68.6011C176.157 70.1681 169.999 67.2541 169.93 67.2266L169.573 67.0479L169.793 66.7181H169.807Z" fill="#A0A09E" stroke="white" stroke-width="1.37451" stroke-miterlimit="10"/>
<path vector-effect="non-scaling-stroke" d="M212.884 108.833H187.978L189.586 123.884L212.884 108.833Z" fill="white" stroke="white" stroke-width="1.37451" stroke-miterlimit="10"/>
<path vector-effect="non-scaling-stroke" d="M209.173 56.19C201.613 56.19 195.483 50.0459 195.483 42.4861C195.483 34.9125 201.613 28.7822 209.173 28.7822C216.733 28.7822 222.863 34.9263 222.863 42.4861C222.863 50.0597 216.733 56.19 209.173 56.19Z" fill="#A0A09E" stroke="white" stroke-width="1.37451" stroke-miterlimit="10"/>
<path vector-effect="non-scaling-stroke" d="M187.978 76.0655C187.978 76.0655 192.404 71.0348 196.225 74.1412C201.063 78.0723 196.225 84.1614 193.737 84.8624" fill="black"/>
<path vector-effect="non-scaling-stroke" d="M187.978 76.0655C187.978 76.0655 192.404 71.0348 196.225 74.1412C201.063 78.0723 196.225 84.1614 193.737 84.8624" stroke="white" stroke-width="1.37451" stroke-miterlimit="10"/>
<path vector-effect="non-scaling-stroke" d="M164.762 78.2235L189.93 74.4023" stroke="white" stroke-width="1.37451" stroke-miterlimit="10"/>
<path vector-effect="non-scaling-stroke" d="M164.185 72.4087L165.436 84.3532" stroke="white" stroke-width="1.37451" stroke-miterlimit="10"/>
<path vector-effect="non-scaling-stroke" d="M166.92 95.7625C173.339 95.7625 174.645 90.3606 174.659 90.3057" stroke="white" stroke-width="1.37451" stroke-miterlimit="10"/>
<path vector-effect="non-scaling-stroke" d="M187.744 185.601L190.782 324.069H287.877L239.165 128.93C234.656 110.868 212.375 102.745 197.448 114.099C192.459 117.892 189.751 123.459 185.806 128.077C182.823 131.555 179.676 134.909 176.624 138.317L162.068 154.55L162.013 154.605L137.684 116.724L106.978 136.173L137.781 191.25C146.44 207.414 168.776 209.435 180.184 195.085L187.744 185.587V185.601Z" fill="#202020" stroke="white" stroke-width="1.37451" stroke-miterlimit="10"/>
<path vector-effect="non-scaling-stroke" d="M187.744 185.6L209.86 161.381" stroke="white" stroke-width="1.37451" stroke-miterlimit="10"/>
<path vector-effect="non-scaling-stroke" d="M262.531 222.534H190.782" stroke="white" stroke-width="1.37451" stroke-miterlimit="10"/>
<path vector-effect="non-scaling-stroke" d="M124.228 380.85H13.5388V502.178H124.228V380.85Z" stroke="white" stroke-width="1.37451" stroke-miterlimit="10"/>
<path vector-effect="non-scaling-stroke" d="M0.68689 400.024H133.217C144.296 400.024 153.299 409.027 153.299 420.106C153.299 431.185 144.296 440.188 133.217 440.188H0.68689V400.024Z" fill="black" stroke="white" stroke-width="1.37451" stroke-miterlimit="10"/>
<path vector-effect="non-scaling-stroke" d="M0.68689 400.024H133.217C144.296 400.024 153.299 409.027 153.299 420.106C153.299 431.185 144.296 440.188 133.217 440.188H0.68689V400.024Z" stroke="white" stroke-width="1.37451" stroke-miterlimit="10"/>
<path vector-effect="non-scaling-stroke" d="M29.6068 412.12L32.5482 418.072L39.1046 419.02L34.3626 423.652L35.4759 430.181L29.6068 427.102L23.7376 430.181L24.8647 423.652L20.1089 419.02L26.6791 418.072L29.6068 412.12Z" fill="#8D1AF2"/>
<path vector-effect="non-scaling-stroke" d="M56.6711 412.12L59.5988 418.072L66.169 419.02L61.4132 423.652L62.5403 430.181L56.6711 427.102L50.8019 430.181L51.9153 423.652L47.1732 419.02L53.7296 418.072L56.6711 412.12Z" fill="#8D1AF2"/>
<path vector-effect="non-scaling-stroke" d="M56.6711 412.12L59.5988 418.072L66.169 419.02L61.4132 423.652L62.5403 430.181L56.6711 427.102L50.8019 430.181L51.9153 423.652L47.1732 419.02L53.7296 418.072L56.6711 412.12Z" stroke="white" stroke-width="1.37451" stroke-miterlimit="10"/>
<path vector-effect="non-scaling-stroke" d="M83.7213 412.12L86.6627 418.072L93.2191 419.02L88.4771 423.652L89.5904 430.181L83.7213 427.102L77.8521 430.181L78.9792 423.652L74.2234 419.02L80.7936 418.072L83.7213 412.12Z" fill="#8D1AF2"/>
<path vector-effect="non-scaling-stroke" d="M29.6068 412.12L32.5482 418.072L39.1046 419.02L34.3626 423.652L35.4759 430.181L29.6068 427.102L23.7376 430.181L24.8647 423.652L20.1089 419.02L26.6791 418.072L29.6068 412.12Z" stroke="white" stroke-width="1.37451" stroke-miterlimit="10"/>
<path vector-effect="non-scaling-stroke" d="M83.7213 412.12L86.6627 418.072L93.2191 419.02L88.4771 423.652L89.5904 430.181L83.7213 427.102L77.8521 430.181L78.9792 423.652L74.2234 419.02L80.7936 418.072L83.7213 412.12Z" stroke="white" stroke-width="1.37451" stroke-miterlimit="10"/>
<path vector-effect="non-scaling-stroke" d="M110.785 412.12L113.713 418.072L120.283 419.02L115.528 423.652L116.655 430.181L110.785 427.102L104.916 430.181L106.03 423.652L101.288 419.02L107.844 418.072L110.785 412.12Z" stroke="white" stroke-width="1.37451" stroke-miterlimit="10"/>
<path vector-effect="non-scaling-stroke" d="M41.1114 489.134H26.3354" stroke="white" stroke-width="1.37451" stroke-miterlimit="10"/>
<path vector-effect="non-scaling-stroke" d="M112.284 489.134H54.8428" stroke="white" stroke-width="1.37451" stroke-miterlimit="10"/>
<path vector-effect="non-scaling-stroke" d="M93.2329 478.22H26.3354" stroke="white" stroke-width="1.37451" stroke-miterlimit="10"/>
<path vector-effect="non-scaling-stroke" d="M112.284 478.22H101.961" stroke="white" stroke-width="1.37451" stroke-miterlimit="10"/>
<path vector-effect="non-scaling-stroke" d="M35.6546 467.292H26.3354" stroke="white" stroke-width="1.37451" stroke-miterlimit="10"/>
<path vector-effect="non-scaling-stroke" d="M78.7181 467.292H45.9222" stroke="white" stroke-width="1.37451" stroke-miterlimit="10"/>
<path vector-effect="non-scaling-stroke" d="M112.284 467.292H87.2264" stroke="white" stroke-width="1.37451" stroke-miterlimit="10"/>
<path vector-effect="non-scaling-stroke" d="M43.8467 456.379H26.3354" stroke="white" stroke-width="1.37451" stroke-miterlimit="10"/>
<path vector-effect="non-scaling-stroke" d="M101.961 456.379H59.2275" stroke="white" stroke-width="1.37451" stroke-miterlimit="10"/>
<path vector-effect="non-scaling-stroke" d="M554.519 337.194H575.728C582.325 337.194 587.686 342.555 587.686 349.153V418.772C587.686 425.369 582.325 430.73 575.728 430.73H554.519V337.194Z" fill="black"/>
<path vector-effect="non-scaling-stroke" d="M761.301 423.995H725.454V453.63H761.301V423.995Z" fill="#414040"/>
<path vector-effect="non-scaling-stroke" d="M747.446 391.639H681.923V453.643H747.446V391.639Z" fill="#202020"/>
<path vector-effect="non-scaling-stroke" d="M714.65 425.823C732.732 425.823 747.391 411.165 747.391 393.083C747.391 375 732.732 360.342 714.65 360.342C696.567 360.342 681.909 375 681.909 393.083C681.909 411.165 696.567 425.823 714.65 425.823Z" fill="#202020"/>
<path vector-effect="non-scaling-stroke" d="M667.669 459.788H643.807V478.289H667.669V459.788Z" fill="#414040"/>
<path vector-effect="non-scaling-stroke" d="M652.068 409.632H606.888V478.289H652.068V409.632Z" fill="#202020"/>
<path vector-effect="non-scaling-stroke" d="M629.485 429.246C641.958 429.246 652.068 419.135 652.068 406.662C652.068 394.19 641.958 384.079 629.485 384.079C617.013 384.079 606.902 394.19 606.902 406.662C606.902 419.135 617.013 429.246 629.485 429.246Z" fill="#202020"/>
<path vector-effect="non-scaling-stroke" d="M554.519 337.194H461.822V430.964H554.519V337.194Z" fill="#202020"/>
<path vector-effect="non-scaling-stroke" d="M554.519 498.287H488.061C473.574 498.287 461.822 486.535 461.822 472.047V430.716H554.519V472.295C554.519 486.645 566.161 498.287 580.511 498.273H581.446H554.519V498.287Z" fill="#414040"/>
<path vector-effect="non-scaling-stroke" d="M554.519 337.194H461.822V321.744C461.822 314.569 467.636 308.755 474.811 308.755H557.406L556.952 309.923C550.189 309.923 554.505 314.803 554.505 320.988V337.194H554.519Z" fill="#414040"/>
<path vector-effect="non-scaling-stroke" d="M666.995 478.288C675.239 478.288 681.923 471.605 681.923 463.361C681.923 455.117 675.239 448.434 666.995 448.434C658.751 448.434 652.068 455.117 652.068 463.361C652.068 471.605 658.751 478.288 666.995 478.288Z" fill="black"/>
<path vector-effect="non-scaling-stroke" d="M714.567 360.203H626.86C612.867 360.203 598.339 370.237 595.342 383.845L629.595 383.914C642.021 383.941 652.068 394.016 652.068 406.428V463.36H681.923V392.064C681.923 374.471 696.19 360.189 713.784 360.189H714.567V360.203Z" fill="black"/>
<path vector-effect="non-scaling-stroke" d="M766.414 453.643H766.194C755.844 453.643 747.445 445.245 747.445 434.895V393.096C747.445 374.938 732.724 360.204 714.553 360.204H691.737V337.194H785.148V434.908C785.148 445.258 776.75 453.657 766.4 453.657L766.414 453.643Z" fill="black"/>
<path vector-effect="non-scaling-stroke" d="M575.288 337.194H448.118C441.369 337.194 435.899 342.665 435.899 349.414V418.51C435.899 425.259 441.369 430.73 448.118 430.73H575.288C582.036 430.73 587.507 425.259 587.507 418.51V349.414C587.507 342.665 582.036 337.194 575.288 337.194Z" stroke="white" stroke-width="1.37451" stroke-miterlimit="10"/>
<path vector-effect="non-scaling-stroke" d="M474.894 308.742H554.519" stroke="white" stroke-width="1.37451" stroke-miterlimit="10"/>
<path vector-effect="non-scaling-stroke" d="M488.007 498.287H580.704" stroke="white" stroke-width="1.37451" stroke-miterlimit="10"/>
<path vector-effect="non-scaling-stroke" d="M626.86 360.204H714.677" stroke="white" stroke-width="1.37451" stroke-miterlimit="10"/>
<path vector-effect="non-scaling-stroke" d="M587.494 384.011H629.485" stroke="white" stroke-width="1.37451" stroke-miterlimit="10"/>
<path vector-effect="non-scaling-stroke" d="M681.909 463.36C681.909 471.607 675.229 478.288 666.982 478.288C658.735 478.288 652.054 471.607 652.054 463.36" stroke="white" stroke-width="1.37451" stroke-miterlimit="10"/>
<path vector-effect="non-scaling-stroke" d="M681.909 392.945C681.909 374.87 696.561 360.204 714.65 360.204C732.738 360.204 747.391 374.856 747.391 392.945" stroke="white" stroke-width="1.37451" stroke-miterlimit="10"/>
<path vector-effect="non-scaling-stroke" d="M626.859 360.204C611.918 360.204 599.3 370.211 595.369 383.887L595.342 383.997" stroke="white" stroke-width="1.37451" stroke-miterlimit="10"/>
<path vector-effect="non-scaling-stroke" d="M785.162 434.785C785.162 445.204 776.723 453.643 766.304 453.643C755.885 453.643 747.446 445.204 747.446 434.785" stroke="white" stroke-width="1.37451" stroke-miterlimit="10"/>
<path vector-effect="non-scaling-stroke" d="M606.888 406.594C606.888 394.113 617.004 384.011 629.471 384.011C641.938 384.011 652.054 394.127 652.054 406.594" stroke="white" stroke-width="1.37451" stroke-miterlimit="10"/>
<path vector-effect="non-scaling-stroke" d="M606.888 472.103C606.888 486.562 595.163 498.287 580.703 498.287C566.244 498.287 554.519 486.562 554.519 472.103" stroke="white" stroke-width="1.37451" stroke-miterlimit="10"/>
<path vector-effect="non-scaling-stroke" d="M488.006 498.287C473.547 498.287 461.822 486.562 461.822 472.103" stroke="white" stroke-width="1.37451" stroke-miterlimit="10"/>
<path vector-effect="non-scaling-stroke" d="M461.822 321.814C461.822 314.598 467.677 308.742 474.894 308.742" stroke="white" stroke-width="1.37451" stroke-miterlimit="10"/>
<path vector-effect="non-scaling-stroke" d="M461.822 321.813V472.103" stroke="white" stroke-width="1.37451" stroke-miterlimit="10"/>
<path vector-effect="non-scaling-stroke" d="M554.519 321.813V472.103" stroke="white" stroke-width="1.37451" stroke-miterlimit="10"/>
<path vector-effect="non-scaling-stroke" d="M681.909 463.361V392.944" stroke="white" stroke-width="1.37451" stroke-miterlimit="10"/>
<path vector-effect="non-scaling-stroke" d="M747.446 393.082V434.785" stroke="white" stroke-width="1.37451" stroke-miterlimit="10"/>
<path vector-effect="non-scaling-stroke" d="M606.888 472.103V406.594" stroke="white" stroke-width="1.37451" stroke-miterlimit="10"/>
<path vector-effect="non-scaling-stroke" d="M652.068 406.594V463.361" stroke="white" stroke-width="1.37451" stroke-miterlimit="10"/>
<path vector-effect="non-scaling-stroke" d="M766.304 453.643H681.909" stroke="white" stroke-width="1.37451" stroke-miterlimit="10"/>
<path vector-effect="non-scaling-stroke" d="M666.995 478.288H606.888" stroke="white" stroke-width="1.37451" stroke-miterlimit="10"/>
<path vector-effect="non-scaling-stroke" d="M435.899 368.644H427.226V399.268H435.899V368.644Z" stroke="white" stroke-width="1.37451" stroke-miterlimit="10"/>
<path vector-effect="non-scaling-stroke" d="M452.736 372.945H447.884V394.979H452.736V372.945Z" stroke="white" stroke-width="1.37451" stroke-miterlimit="10"/>
<path vector-effect="non-scaling-stroke" d="M568.828 389.495C571.887 389.495 574.367 387.015 574.367 383.955C574.367 380.896 571.887 378.416 568.828 378.416C565.768 378.416 563.288 380.896 563.288 383.955C563.288 387.015 565.768 389.495 568.828 389.495Z" stroke="white" stroke-width="1.37451" stroke-miterlimit="10"/>
<path vector-effect="non-scaling-stroke" d="M525.654 324.508H543.221" stroke="white" stroke-width="1.37451" stroke-miterlimit="10"/>
<path vector-effect="non-scaling-stroke" d="M477.464 324.508H513.133" stroke="white" stroke-width="1.37451" stroke-miterlimit="10"/>
<path vector-effect="non-scaling-stroke" d="M531.922 443.403H543.22" stroke="white" stroke-width="1.37451" stroke-miterlimit="10"/>
<path vector-effect="non-scaling-stroke" d="M477.464 443.403H513.133" stroke="white" stroke-width="1.37451" stroke-miterlimit="10"/>
<path vector-effect="non-scaling-stroke" d="M502.686 456.09H543.221" stroke="white" stroke-width="1.37451" stroke-miterlimit="10"/>
<path vector-effect="non-scaling-stroke" d="M477.464 456.09H485.368" stroke="white" stroke-width="1.37451" stroke-miterlimit="10"/>
<path vector-effect="non-scaling-stroke" d="M536.087 468.776H543.221" stroke="white" stroke-width="1.37451" stroke-miterlimit="10"/>
<path vector-effect="non-scaling-stroke" d="M510.342 468.776H519.181" stroke="white" stroke-width="1.37451" stroke-miterlimit="10"/>
<path vector-effect="non-scaling-stroke" d="M477.464 468.776H496.639" stroke="white" stroke-width="1.37451" stroke-miterlimit="10"/>
<path vector-effect="non-scaling-stroke" d="M529.833 481.463H543.22" stroke="white" stroke-width="1.37451" stroke-miterlimit="10"/>
<path vector-effect="non-scaling-stroke" d="M485.367 481.463H510.342" stroke="white" stroke-width="1.37451" stroke-miterlimit="10"/>
<path vector-effect="non-scaling-stroke" d="M508.391 412.092C523.93 412.092 536.527 399.495 536.527 383.956C536.527 368.416 523.93 355.819 508.391 355.819C492.851 355.819 480.254 368.416 480.254 383.956C480.254 399.495 492.851 412.092 508.391 412.092Z" fill="#A100FF" stroke="white" stroke-width="1.37451" stroke-miterlimit="10"/>
<path vector-effect="non-scaling-stroke" d="M508.212 397.427V402.842" stroke="white" stroke-width="1.37451" stroke-miterlimit="10"/>
<path vector-effect="non-scaling-stroke" d="M508.212 365.51V370.925" stroke="white" stroke-width="1.37451" stroke-miterlimit="10"/>
<path vector-effect="non-scaling-stroke" d="M516.817 377.317C516.652 373.675 512.995 370.926 508.143 370.926C504.295 370.926 500.13 373.372 500.13 377.317C500.13 380.932 503.869 384.107 508.143 384.107C513.092 384.107 516.817 387.063 516.817 390.98C516.817 393.839 514.233 396.382 510.521 397.165C509.793 397.316 509.037 397.426 508.281 397.426C507.525 397.426 506.728 397.33 505.972 397.165C502.439 396.368 499.965 393.825 499.965 390.98" stroke="white" stroke-width="1.37451" stroke-miterlimit="10"/>
<path vector-effect="non-scaling-stroke" d="M501.01 308.743H522.246V300.922V318.681L521.38 320.041C519.731 322.626 520.308 326.048 522.713 327.945C524.129 329.058 526.108 329.141 527.593 328.124L527.359 328.508L529.71 324.646C530.864 322.749 531.469 320.577 531.469 318.365V306.269V318.337C531.469 320.578 530.851 322.763 529.696 324.674L527.593 328.124V330.034C527.593 331.34 528.225 332.55 529.284 333.305C529.957 333.787 530.768 334.048 531.593 334.048H531.868C532.844 334.048 533.792 333.69 534.534 333.031L535.441 332.22L537.888 326.9C538.974 324.55 539.537 321.993 539.537 319.409V307.973V319.423C539.537 322.007 538.974 324.55 537.902 326.9L535.441 332.22L536.472 333.855C537.173 334.969 538.397 335.628 539.702 335.628C541.077 335.628 542.341 334.886 543.029 333.704L544.912 330.405C546.616 327.423 547.51 324.041 547.51 320.619V310.489V320.797C547.51 324.11 546.644 327.368 545.008 330.24L543.551 332.811L544.912 335.642C545.2 336.233 545.654 336.728 546.231 337.072C547.042 337.539 548.032 337.649 548.925 337.347L550.286 336.893C551.138 336.604 551.826 336 552.21 335.189L555.386 328.591C555.605 328.151 555.715 327.656 555.715 327.161V311.423V320.399L570.175 324.976C571.069 325.265 572.017 325.292 572.924 325.058L573.68 324.866C574.931 324.55 576.017 323.766 576.718 322.68L576.773 322.584C577.57 321.333 577.776 319.808 577.337 318.392C576.965 317.182 576.168 316.165 575.082 315.519L562.258 310.186C560.004 309.252 558.093 307.63 556.801 305.568C556.499 294.297 547.276 285.321 535.991 285.321H525.078C512.033 285.321 501.367 295.713 501.01 308.743Z" fill="#020202"/>
<path vector-effect="non-scaling-stroke" d="M527.593 328.124C526.108 329.141 524.129 329.058 522.713 327.945C520.308 326.048 519.731 322.626 521.38 320.041L522.246 318.681V300.922V308.743H501.01C501.367 295.713 512.033 285.321 525.078 285.321H535.991C547.276 285.321 556.499 294.297 556.801 305.568C558.093 307.63 560.004 309.252 562.258 310.186L575.082 315.519C576.168 316.165 576.965 317.182 577.337 318.392C577.776 319.808 577.57 321.333 576.773 322.584L576.718 322.68C576.017 323.766 574.931 324.55 573.68 324.866L572.924 325.058C572.017 325.292 571.069 325.265 570.175 324.976L555.715 320.399V311.423V327.161C555.715 327.656 555.605 328.151 555.386 328.591L552.21 335.189C551.826 336 551.138 336.604 550.286 336.893L548.925 337.347C548.032 337.649 547.042 337.539 546.231 337.072C545.654 336.728 545.2 336.233 544.912 335.642L543.551 332.811L545.008 330.24C546.644 327.368 547.51 324.11 547.51 320.797V310.489V320.619C547.51 324.041 546.616 327.423 544.912 330.405L543.029 333.704C542.341 334.886 541.077 335.628 539.702 335.628C538.397 335.628 537.173 334.969 536.472 333.855L535.441 332.22M527.593 328.124L527.359 328.508L529.71 324.646C530.864 322.749 531.469 320.577 531.469 318.365V306.269V318.337C531.469 320.578 530.851 322.763 529.696 324.674L527.593 328.124ZM527.593 328.124V330.034C527.593 331.34 528.225 332.55 529.284 333.305C529.957 333.787 530.768 334.048 531.593 334.048H531.868C532.844 334.048 533.792 333.69 534.534 333.031L535.441 332.22M535.441 332.22L537.888 326.9C538.974 324.55 539.537 321.993 539.537 319.409V307.973V319.423C539.537 322.007 538.974 324.55 537.902 326.9L535.441 332.22Z" stroke="white" stroke-width="1.37451" stroke-linecap="round" stroke-linejoin="round"/>
<path vector-effect="non-scaling-stroke" d="M760.146 90.6626H675.765V136.008H733.068L748.806 151.746V136.008H760.146V90.6626Z" fill="#020202" stroke="white" stroke-width="1.37451" stroke-miterlimit="10"/>
<path vector-effect="non-scaling-stroke" d="M702.114 49.4546H794.11V108.641H731.639L714.471 125.809V108.641H702.114V49.4546Z" fill="#020202" stroke="white" stroke-width="1.37451" stroke-miterlimit="10"/>
<path vector-effect="non-scaling-stroke" d="M749.054 18.0742H650.446V71.0616H717.412L735.803 89.4663V71.0616H749.054V18.0742Z" fill="#202020" stroke="white" stroke-width="1.37451" stroke-miterlimit="10"/>
<path vector-effect="non-scaling-stroke" d="M452.737 140.778C445.411 135.458 436.49 132.476 427.226 132.476V175.896L452.737 140.778Z" fill="#A2A2A0" stroke="white" stroke-width="1.37451" stroke-miterlimit="10"/>
<path vector-effect="non-scaling-stroke" d="M414.594 134.359C409.838 135.802 405.522 138.001 401.715 140.778C394.237 146.207 388.767 153.863 385.949 162.481C383.282 170.646 383.008 179.69 385.702 188.528C385.784 188.789 385.88 189.05 385.963 189.312C388.904 198.37 394.54 205.806 401.728 211.015L427.239 175.896V132.476C423.061 132.476 418.814 133.08 414.608 134.359H414.594Z" fill="#404040" stroke="white" stroke-width="1.37451" stroke-miterlimit="10"/>
<path vector-effect="non-scaling-stroke" d="M468.764 163.264C468.681 163.003 468.585 162.742 468.502 162.481C465.561 153.437 459.925 145.987 452.737 140.777L427.226 175.896L468.502 189.311C471.169 181.147 471.444 172.102 468.75 163.264H468.764Z" fill="#020202" stroke="white" stroke-width="1.37451" stroke-linejoin="round"/>
<path vector-effect="non-scaling-stroke" d="M427.226 175.896L401.715 211.015C409.041 216.334 417.961 219.317 427.226 219.317C431.404 219.317 435.651 218.712 439.857 217.434C444.613 215.99 448.929 213.791 452.737 211.015C460.214 205.585 465.684 197.929 468.502 189.311L427.226 175.896Z" fill="#A100FF" stroke="white" stroke-width="1.37451" stroke-miterlimit="10"/>
</g>
<g clip-path="url(#clip1_20_12237)">
<path vector-effect="non-scaling-stroke" d="M686.294 419.13C743.597 376.946 780.778 309.032 780.778 232.416C780.778 104.436 677.029 0.6875 549.049 0.6875C471.87 0.6875 403.529 38.4178 361.414 96.436" stroke="white" stroke-width="1.37451"/>
<path vector-effect="non-scaling-stroke" d="M462.633 19.9717H376.946V105.659H462.633V19.9717Z" fill="black" stroke="white" stroke-width="1.37451" stroke-miterlimit="10"/>
<path vector-effect="non-scaling-stroke" d="M606.05 19.9717H520.363V105.659H606.05V19.9717Z" fill="black" stroke="white" stroke-width="1.37451" stroke-miterlimit="10"/>
<path vector-effect="non-scaling-stroke" d="M419.79 85.5356C432.338 85.5356 442.51 75.3632 442.51 62.8149C442.51 50.2666 432.338 40.0942 419.79 40.0942C407.241 40.0942 397.069 50.2666 397.069 62.8149C397.069 75.3632 407.241 85.5356 419.79 85.5356Z" fill="black"/>
<path vector-effect="non-scaling-stroke" d="M419.79 85.5356C432.338 85.5356 442.51 75.3632 442.51 62.8149C442.51 50.2666 432.338 40.0942 419.79 40.0942C407.241 40.0942 397.069 50.2666 397.069 62.8149C397.069 75.3632 407.241 85.5356 419.79 85.5356Z" fill="black" stroke="white" stroke-width="1.37451" stroke-miterlimit="10"/>
<path vector-effect="non-scaling-stroke" d="M563.206 41.1123L538.162 84.5056H588.263L563.206 41.1123Z" fill="black"/>
<path vector-effect="non-scaling-stroke" d="M563.206 41.1123L538.162 84.5056H588.263L563.206 41.1123Z" fill="black" stroke="white" stroke-width="1.37451" stroke-miterlimit="10"/>
<path vector-effect="non-scaling-stroke" d="M472.956 102.458L493.986 123.488" stroke="white" stroke-width="1.37451" stroke-miterlimit="10"/>
<path vector-effect="non-scaling-stroke" d="M452.737 82.2383L471.114 124.505L495.003 100.615L452.737 82.2383Z" fill="#404040" stroke="white" stroke-width="1.37451" stroke-miterlimit="10"/>
<path vector-effect="non-scaling-stroke" d="M568.003 99.2944H555.812V116.723H568.003V99.2944Z" fill="#020202" stroke="white" stroke-width="1.37451" stroke-miterlimit="10"/>
<path vector-effect="non-scaling-stroke" d="M575.329 164.09H548.485V219.029H575.329V164.09Z" fill="#020202" stroke="white" stroke-width="1.37451" stroke-miterlimit="10"/>
<path vector-effect="non-scaling-stroke" d="M528.514 209.078H491.69V300.015H528.514V209.078Z" fill="#202020" stroke="white" stroke-width="1.37451" stroke-miterlimit="10"/>
<path vector-effect="non-scaling-stroke" d="M693.895 217.379L722.058 195.524V189.779C722.058 186.851 723.543 184.116 725.99 182.522L735.405 176.377C738.154 174.577 740.711 172.488 743.006 170.137L748.683 164.337C750.002 162.99 752.091 162.756 753.658 163.787L753.741 163.842C755.679 165.106 756.188 167.718 754.868 169.601C750.841 175.36 743.185 186.343 743.185 186.343L746.951 180.941C750.167 183.951 754.346 185.724 758.744 185.972L765.067 186.329C761.04 191.497 755.665 195.469 749.549 197.82C755.665 195.469 761.026 191.497 765.067 186.329L771.72 176.556C772.957 174.742 775.389 174.192 777.286 175.305L777.383 175.36C779.472 176.597 780.145 179.278 778.881 181.326C774.675 188.143 766.194 201.916 766.194 201.916L779.568 180.171C780.626 178.453 781.987 176.941 783.582 175.718L785.781 174.027C786.619 173.381 787.678 173.079 788.736 173.175C790.427 173.326 791.966 174.233 792.914 175.649L793.396 176.35C794.165 177.477 794.33 178.907 793.863 180.171C793.67 180.68 793.382 181.147 793.024 181.546L777.974 197.985L789.712 185.161L796.447 185.298C797.547 185.326 798.605 185.71 799.457 186.411C800.323 187.112 800.914 188.088 801.148 189.174L801.23 189.559C801.464 190.617 801.34 191.703 800.887 192.679L800.681 193.119C800.186 194.191 799.306 195.043 798.234 195.524L796.103 196.473C794.11 197.366 792.062 198.15 789.973 198.809L783.334 200.926L758.029 209.173C751.239 211.386 744.903 214.823 739.336 219.303L719.048 235.646L693.922 217.324L693.895 217.379Z" fill="#020202"/>
<path vector-effect="non-scaling-stroke" d="M765.067 186.329L758.744 185.972C754.346 185.724 750.167 183.951 746.951 180.941L743.185 186.343C743.185 186.343 750.841 175.36 754.868 169.601C756.188 167.718 755.679 165.106 753.741 163.842L753.658 163.787C752.091 162.756 750.002 162.99 748.683 164.337L743.006 170.137C740.711 172.488 738.154 174.577 735.405 176.377L725.99 182.522C723.543 184.116 722.058 186.851 722.058 189.779V195.524L693.895 217.379L693.922 217.324L719.048 235.646L739.336 219.303C744.903 214.823 751.239 211.386 758.029 209.173L783.334 200.926L789.973 198.809C792.062 198.15 794.11 197.366 796.103 196.473L798.234 195.524C799.306 195.043 800.186 194.191 800.681 193.119L800.887 192.679C801.34 191.703 801.464 190.617 801.23 189.559L801.148 189.174C800.914 188.088 800.323 187.112 799.457 186.411C798.605 185.71 797.547 185.326 796.447 185.298L789.712 185.161L777.974 197.985L793.024 181.546C793.382 181.147 793.67 180.68 793.863 180.171C794.33 178.907 794.165 177.477 793.396 176.35L792.914 175.649C791.966 174.233 790.427 173.326 788.736 173.175C787.678 173.079 786.619 173.381 785.781 174.027L783.582 175.718C781.987 176.941 780.626 178.453 779.568 180.171L766.194 201.916C766.194 201.916 774.675 188.143 778.881 181.326C780.145 179.278 779.472 176.597 777.383 175.36L777.286 175.305C775.389 174.192 772.957 174.742 771.72 176.556L765.067 186.329ZM765.067 186.329C761.04 191.497 755.665 195.469 749.549 197.82M765.067 186.329C761.026 191.497 755.665 195.469 749.549 197.82M749.549 197.82L746.415 199.029" stroke="white" stroke-width="1.37451" stroke-linecap="round" stroke-linejoin="round"/>
<path vector-effect="non-scaling-stroke" d="M526.726 289.541H530.067C544.829 289.541 548.334 290.008 551.11 292.729C552.98 294.571 555.248 299.794 555.701 302.378L557.57 306.241C558.285 307.725 552.856 342.885 554.217 344.274C554.272 344.329 544.1 406.553 544.155 406.594L621.884 403.941V228.512V286.956L631.395 296.839C633.801 299.327 636.701 301.293 639.904 302.598C642.983 303.849 646.295 304.468 649.622 304.399L651.463 304.372C656.219 304.289 660.851 302.818 664.796 300.166L669.387 297.073C670.198 296.523 670.981 295.932 671.724 295.286L723.172 250.862C725.605 248.759 727.006 245.694 727.006 242.477C727.006 234.753 724.189 227.289 719.076 221.502L709.413 210.534C706.87 207.647 703.214 205.998 699.379 205.998C690.335 205.998 681.62 209.42 674.995 215.564L647.532 240.8L656.412 232.801L629.993 197.283C624.88 190.411 616.812 186.356 608.249 186.356H575.329L569.446 206.08C569.446 207.427 567.756 208.018 566.903 206.974L548.471 186.37H511.717C503.607 186.37 496.047 190.452 491.594 197.228L443.871 270.009C432.957 286.654 444.902 308.77 464.805 308.77H501.009L502.068 305.76C503.992 300.303 507.813 295.712 512.83 292.812C516.528 290.681 520.706 289.554 524.967 289.554H526.713V287.946C526.713 280.977 522.933 274.558 516.83 271.191L507.208 265.871C502.851 263.466 500.143 258.875 500.143 253.899V228.54" fill="#202020"/>
<path vector-effect="non-scaling-stroke" d="M526.726 289.541H530.067C544.829 289.541 548.334 290.008 551.11 292.729C552.98 294.571 555.248 299.794 555.701 302.378L557.57 306.241C558.285 307.725 552.856 342.885 554.217 344.274C554.272 344.329 544.1 406.553 544.155 406.594L621.884 403.941V228.512V286.956L631.395 296.839C633.801 299.327 636.701 301.293 639.904 302.598C642.983 303.849 646.295 304.468 649.622 304.399L651.463 304.372C656.219 304.289 660.851 302.818 664.796 300.166L669.387 297.073C670.198 296.523 670.981 295.932 671.724 295.286L723.172 250.862C725.605 248.759 727.006 245.694 727.006 242.477C727.006 234.753 724.189 227.289 719.076 221.502L709.413 210.534C706.87 207.647 703.214 205.998 699.379 205.998C690.335 205.998 681.62 209.42 674.995 215.564L647.532 240.8L656.412 232.801L629.993 197.283C624.88 190.411 616.812 186.356 608.249 186.356H575.329L569.446 206.08C569.446 207.427 567.756 208.018 566.903 206.974L548.471 186.37H511.717C503.607 186.37 496.047 190.452 491.594 197.228L443.871 270.009C432.957 286.654 444.902 308.77 464.805 308.77H501.009L502.068 305.76C503.992 300.303 507.813 295.712 512.83 292.812C516.528 290.681 520.706 289.554 524.967 289.554H526.713V287.946C526.713 280.977 522.933 274.558 516.83 271.191L507.208 265.871C502.851 263.466 500.143 258.875 500.143 253.899V228.54" stroke="white" stroke-width="1.37451" stroke-miterlimit="10"/>
<path vector-effect="non-scaling-stroke" d="M561.9 180.432C577.014 180.432 589.266 165.539 589.266 147.168C589.266 128.798 577.014 113.905 561.9 113.905C546.786 113.905 534.533 128.798 534.533 147.168C534.533 165.539 546.786 180.432 561.9 180.432Z" fill="#020202" stroke="white" stroke-width="1.37451" stroke-miterlimit="10"/>
<path vector-effect="non-scaling-stroke" d="M562.436 125.039L562.477 124.874C564.292 132.351 569.487 138.55 576.539 141.615L589.266 147.168C589.266 128.791 577.02 113.905 561.9 113.905C546.78 113.905 534.533 128.791 534.533 147.168L548.072 141.547C555.179 138.591 560.498 132.489 562.436 125.039Z" fill="#404040" stroke="white" stroke-width="1.37451" stroke-miterlimit="10"/>
<path vector-effect="non-scaling-stroke" d="M557.433 91.7075H566.381C572.416 91.7075 577.323 96.6145 577.323 102.649V104.889C577.323 107.652 575.068 109.906 572.306 109.906H551.496C548.733 109.906 546.479 107.652 546.479 104.889V102.649C546.479 96.6145 551.386 91.7075 557.42 91.7075H557.433Z" fill="#404040" stroke="white" stroke-width="1.37451" stroke-miterlimit="10"/>
<path vector-effect="non-scaling-stroke" d="M631.093 384.066H572.607V413.935H631.093V384.066Z" fill="#020202"/>
<path vector-effect="non-scaling-stroke" d="M0.68689 241.157H314.515C350.404 241.157 379.489 270.297 379.489 306.227C379.489 342.17 350.39 371.296 314.515 371.296H0.68689" stroke="white" stroke-width="1.37451" stroke-miterlimit="10"/>
<path vector-effect="non-scaling-stroke" d="M0.755615 241.158H129.053V371.311H0.755615V241.158Z" stroke="white" stroke-width="1.37451" stroke-miterlimit="10"/>
<path vector-effect="non-scaling-stroke" d="M0.755615 371.283H350.899C386.787 371.283 415.872 400.588 415.872 436.737C415.872 472.887 386.773 502.192 350.899 502.192H13.5386" stroke="white" stroke-width="1.37451" stroke-miterlimit="10"/>
<path vector-effect="non-scaling-stroke" d="M148.516 371.283H276.813V502.192H148.516V371.283Z" fill="black" stroke="white" stroke-width="1.37451" stroke-miterlimit="10"/>
<path vector-effect="non-scaling-stroke" d="M325.223 453.63H400.89V514.686H325.223V453.63Z" fill="black" stroke="white" stroke-width="1.37451" stroke-miterlimit="10"/>
<path vector-effect="non-scaling-stroke" d="M325.223 514.686H230.148V406.319H325.223V514.686Z" fill="black" stroke="white" stroke-width="1.37451" stroke-miterlimit="10"/>
<path vector-effect="non-scaling-stroke" d="M304.248 453.63V382.183C304.248 367.695 292.509 355.943 278.05 355.943C263.576 355.943 251.851 367.695 251.851 382.183V453.63" stroke="white" stroke-width="1.37451" stroke-miterlimit="10"/>
<path vector-effect="non-scaling-stroke" d="M363.365 453.63V514.686" stroke="white" stroke-width="1.37451" stroke-miterlimit="10"/>
<path vector-effect="non-scaling-stroke" d="M325.855 484.158H400.876" stroke="white" stroke-width="1.37451" stroke-miterlimit="10"/>
<path vector-effect="non-scaling-stroke" d="M387.653 453.63H339.078V398.265H387.653V453.63Z" stroke="white" stroke-width="1.37451" stroke-miterlimit="10"/>
<path vector-effect="non-scaling-stroke" d="M376.946 422.443V385.936C376.946 378.527 370.953 372.534 363.558 372.534C356.163 372.534 350.17 378.541 350.17 385.936V422.443" stroke="white" stroke-width="1.37451" stroke-miterlimit="10"/>
<path vector-effect="non-scaling-stroke" d="M219.866 216.321H345.717C349.744 216.321 353.125 213.228 353.565 209.16L362.774 122.923C363.283 118.181 359.627 114.03 354.926 114.03H229.076C225.048 114.03 221.667 117.122 221.227 121.191L212.018 207.428C211.509 212.17 215.166 216.321 219.866 216.321Z" stroke="white" stroke-width="1.37451" stroke-miterlimit="10"/>
<path vector-effect="non-scaling-stroke" d="M339.078 127.898H297.045C294.662 127.898 292.729 129.831 292.729 132.214V159.265C292.729 161.648 294.662 163.581 297.045 163.581H339.078C341.462 163.581 343.394 161.648 343.394 159.265V132.214C343.394 129.831 341.462 127.898 339.078 127.898Z" fill="black" stroke="white" stroke-width="1.37451" stroke-miterlimit="10"/>
<path vector-effect="non-scaling-stroke" d="M339.078 127.898H297.045C294.662 127.898 292.729 129.831 292.729 132.214V159.265C292.729 161.648 294.662 163.581 297.045 163.581H339.078C341.462 163.581 343.394 161.648 343.394 159.265V132.214C343.394 129.831 341.462 127.898 339.078 127.898Z" stroke="white" stroke-width="1.37451" stroke-miterlimit="10"/>
<path vector-effect="non-scaling-stroke" d="M278.696 127.898H236.663C234.28 127.898 232.347 129.831 232.347 132.214V159.265C232.347 161.648 234.28 163.581 236.663 163.581H278.696C281.079 163.581 283.012 161.648 283.012 159.265V132.214C283.012 129.831 281.079 127.898 278.696 127.898Z" stroke="white" stroke-width="1.37451" stroke-miterlimit="10"/>
<path vector-effect="non-scaling-stroke" d="M299.588 169.738H336.549" stroke="white" stroke-width="1.37451" stroke-miterlimit="10"/>
<path vector-effect="non-scaling-stroke" d="M299.588 175.896H336.549" stroke="white" stroke-width="1.37451" stroke-miterlimit="10"/>
<path vector-effect="non-scaling-stroke" d="M299.588 182.041H336.549" stroke="white" stroke-width="1.37451" stroke-miterlimit="10"/>
<path vector-effect="non-scaling-stroke" d="M299.588 188.198H336.549" stroke="white" stroke-width="1.37451" stroke-miterlimit="10"/>
<path vector-effect="non-scaling-stroke" d="M212.485 203.016L212.018 207.428C211.509 212.17 215.166 216.321 219.866 216.321H345.717C349.744 216.321 353.125 213.228 353.565 209.16L353.771 207.222L354.225 203.002H212.499L212.485 203.016Z" fill="black" stroke="white" stroke-width="1.37451" stroke-miterlimit="10"/>
<path vector-effect="non-scaling-stroke" d="M267.672 216.321L265.5 231.385C265.5 231.385 265.239 237.942 256.992 237.942V240.691H310.901V238.176C310.901 238.176 301.128 238.643 301.746 232.705C302.543 225.104 303.781 216.335 303.781 216.335H267.672V216.321Z" fill="black" stroke="white" stroke-width="1.37451" stroke-miterlimit="10"/>
<path vector-effect="non-scaling-stroke" d="M100.367 371.558C100.367 353.414 64.5605 352.205 64.5605 320.591V165.271H53.4545V320.591C53.4545 352.205 17.6484 353.414 17.6484 371.558H100.367Z" fill="black" stroke="white" stroke-width="1.37451" stroke-miterlimit="10"/>
<path vector-effect="non-scaling-stroke" d="M33.1804 79.1304H81.3021C84.2573 79.1304 86.8414 81.1234 87.5973 83.9961L106.676 157.12C107.748 161.244 104.641 165.271 100.394 165.271H52.2724C49.3172 165.271 46.7331 163.278 45.9909 160.405L26.9127 87.2812C25.8405 83.1577 28.9469 79.1304 33.2079 79.1304H33.1804Z" stroke="white" stroke-width="1.37451" stroke-miterlimit="10"/>
<path vector-effect="non-scaling-stroke" d="M87.5834 83.9966L88.3119 86.8006H26.7888C26.074 82.8557 29.0842 79.1445 33.1803 79.1445H81.3019C84.2571 79.1445 86.8412 81.1376 87.5972 84.0103L87.5834 83.9966Z" fill="#202020" stroke="white" stroke-width="1.37451" stroke-miterlimit="10"/>
<path vector-effect="non-scaling-stroke" d="M106.827 158.055C107.253 161.835 104.311 165.271 100.367 165.271H52.2449C49.2897 165.271 46.7056 163.278 45.9634 160.406L45.3448 158.042H106.813L106.827 158.055Z" fill="#202020" stroke="white" stroke-width="1.37451" stroke-miterlimit="10"/>
<path vector-effect="non-scaling-stroke" d="M39.9705 102.937H46.197L48.1763 108.586C48.5337 109.589 49.5233 110.318 50.5405 110.318H82.9239C84.807 110.318 86.4702 112.16 86.1953 113.96L84.3947 125.85H55.4475C54.3753 125.85 53.6606 126.716 53.853 127.788C54.0455 128.86 55.0626 129.726 56.1347 129.726H82.6903" stroke="white" stroke-width="1.37451" stroke-miterlimit="10"/>
<path vector-effect="non-scaling-stroke" d="M49.9357 113.562L53.152 123.583" stroke="white" stroke-width="1.37451" stroke-miterlimit="10"/>
<path vector-effect="non-scaling-stroke" d="M78.1545 138.495C76.7525 137.217 76.4914 135.224 77.5635 134.056C78.6356 132.887 80.6286 132.97 82.0306 134.248C83.4189 135.526 83.6938 137.519 82.6217 138.688C81.5496 139.856 79.5565 139.774 78.1545 138.495Z" stroke="white" stroke-width="1.37451" stroke-miterlimit="10"/>
<path vector-effect="non-scaling-stroke" d="M57.2068 138.495C55.8185 137.217 55.5436 135.224 56.6157 134.056C57.6879 132.887 59.6809 132.97 61.0829 134.248C62.4712 135.526 62.7461 137.519 61.6739 138.688C60.6018 139.856 58.6088 139.774 57.2068 138.495Z" stroke="white" stroke-width="1.37451" stroke-miterlimit="10"/>
<path vector-effect="non-scaling-stroke" d="M284.468 454.441L304.715 485.712C304.715 485.712 292.262 501.972 272.936 501.972C253.624 501.972 243.687 501.972 243.687 501.972C243.687 501.972 243.151 492.955 251.453 486.99C259.755 481.024 259.04 475.416 258.49 470.18C257.954 464.943 284.468 454.455 284.468 454.455V454.441Z" fill="black" stroke="white" stroke-width="1.37451" stroke-miterlimit="10"/>
<path vector-effect="non-scaling-stroke" d="M234.601 462.125V501.972H179.566C179.566 501.972 178.136 493.312 189.352 485.23C198.809 478.412 203.62 472.681 205.255 464.667C206.891 456.654 234.601 462.125 234.601 462.125Z" fill="black" stroke="white" stroke-width="1.37451" stroke-miterlimit="10"/>
<path vector-effect="non-scaling-stroke" d="M191.139 324.068H249.886V463.705H191.139V324.068Z" fill="#202020" stroke="white" stroke-width="1.37451" stroke-miterlimit="10"/>
<path vector-effect="non-scaling-stroke" d="M197.393 222.781L175.456 350.816C172.913 365.634 176.569 380.85 185.545 392.89L249.886 479.168L299.121 446.537L228.567 342.721L230.89 322.763L197.393 222.781Z" fill="#202020" stroke="white" stroke-width="1.37451" stroke-miterlimit="10"/>
<path vector-effect="non-scaling-stroke" d="M234.601 501.972H179.566C179.566 501.972 178.425 494.989 186.315 487.704H234.601V501.972Z" fill="#202020"/>
<path vector-effect="non-scaling-stroke" d="M250.065 488.062C279.479 493.56 297.623 474.771 297.623 474.771L304.701 485.712C304.701 485.712 292.248 501.972 272.923 501.972C253.611 501.972 243.673 501.972 243.673 501.972C243.673 501.972 243.192 493.986 250.051 488.076L250.065 488.062Z" fill="#202020"/>
<path vector-effect="non-scaling-stroke" d="M234.601 501.972H179.566C179.566 501.972 178.425 494.989 186.315 487.704H234.601V501.972Z" stroke="white" stroke-width="1.37451" stroke-miterlimit="10"/>
<path vector-effect="non-scaling-stroke" d="M250.065 488.062C279.479 493.56 297.623 474.771 297.623 474.771L304.701 485.712C304.701 485.712 292.248 501.972 272.923 501.972C253.611 501.972 243.673 501.972 243.673 501.972C243.673 501.972 243.192 493.986 250.051 488.076L250.065 488.062Z" stroke="white" stroke-width="1.37451" stroke-miterlimit="10"/>
<path vector-effect="non-scaling-stroke" d="M119.555 102.745C113.411 100.023 102.552 89.7694 100.298 87.3503C99.8029 86.828 98.9645 86.828 98.4971 87.3778C96.9852 89.1921 95.7206 94.1266 109.713 104.683L119.541 102.745H119.555Z" fill="white" stroke="white" stroke-width="1.37451" stroke-miterlimit="10"/>
<path vector-effect="non-scaling-stroke" d="M129.3 127.747V112.091C129.3 104.669 116.256 102.428 109.878 99.5967C106.854 98.2634 103.335 99.7341 102.057 102.827L97.0264 114.964C96.6003 115.995 97.2876 117.163 98.3872 117.245C100.394 117.41 103.72 115.788 107.267 106.126C109.562 107.665 112.476 108.82 114.235 110.964C115.706 112.765 117.438 116.228 114.799 117.864C111.115 120.132 106.442 111.72 102.703 116.379C98.2635 121.891 118.483 129.85 130.317 128.558" fill="white"/>
<path vector-effect="non-scaling-stroke" d="M129.3 127.747V112.091C129.3 104.669 116.256 102.428 109.878 99.5967C106.854 98.2634 103.335 99.7341 102.057 102.827L97.0264 114.964C96.6003 115.995 97.2876 117.163 98.3872 117.245C100.394 117.41 103.72 115.788 107.267 106.126C109.562 107.665 112.476 108.82 114.235 110.964C115.706 112.765 117.438 116.228 114.799 117.864C111.115 120.132 106.442 111.72 102.703 116.379C98.2635 121.891 118.483 129.85 130.317 128.558" stroke="white" stroke-width="1.37451" stroke-miterlimit="10"/>
<path vector-effect="non-scaling-stroke" d="M133.465 134.729C136.86 132.2 140.626 129.355 141.162 128.874C138.578 126.07 136.928 121.41 134.798 118.125C132.2 114.111 129.451 110.208 126.688 106.304C124.627 103.404 122.29 100.889 120.063 98.1396C118.427 96.1053 116.806 93.8236 115.321 91.5969C113.837 89.3839 112.984 87.4184 111.967 85.013C111.692 84.3532 110.895 84.0508 110.277 84.422C108.668 85.3566 106.538 88.1606 110.373 96.5314C105.851 92.834 101.603 88.7654 100.284 87.3497C99.7891 86.8273 98.9506 86.8273 98.4833 87.3772C97.205 88.9029 96.1054 92.6553 104.215 100.146C103.28 100.792 102.497 101.7 102.03 102.84L96.9988 114.977C96.5727 116.008 97.26 117.177 98.3596 117.259C100.366 117.424 103.693 115.802 107.239 106.139C109.534 107.679 112.448 108.833 114.208 110.978C115.678 112.778 117.41 116.242 114.771 117.878C111.088 120.146 106.414 111.733 102.676 116.393C98.7857 121.231 110.345 124.819 113.094 126.317C118.812 129.437 123.871 133.753 127.843 138.908C127.843 138.908 130.509 136.942 133.451 134.729H133.465Z" fill="black" stroke="white" stroke-width="1.37451" stroke-miterlimit="10"/>
<path vector-effect="non-scaling-stroke" d="M116.957 101.328C114.867 100.036 112.531 98.2769 110.277 96.4351L116.957 101.328Z" fill="white"/>
<path vector-effect="non-scaling-stroke" d="M116.957 101.328C114.867 100.036 112.531 98.2769 110.277 96.4351" stroke="white" stroke-width="1.37451" stroke-miterlimit="10"/>
<path vector-effect="non-scaling-stroke" d="M116.764 103.555C114.015 102.181 111.871 100.49 109.864 99.5967C106.84 98.2634 103.322 99.7341 102.043 102.827" fill="black"/>
<path vector-effect="non-scaling-stroke" d="M116.764 103.555C114.015 102.181 111.871 100.49 109.864 99.5967C106.84 98.2634 103.322 99.7341 102.043 102.827" stroke="white" stroke-width="1.37451" stroke-miterlimit="10"/>
<path vector-effect="non-scaling-stroke" d="M116.764 103.555C114.015 102.181 111.871 100.49 109.864 99.5967C106.84 98.2634 103.322 99.7341 102.043 102.827" stroke="white" stroke-width="1.37451" stroke-miterlimit="10"/>
<path vector-effect="non-scaling-stroke" d="M69.9073 106.14H102.896C105.301 106.14 107.253 108.092 107.253 110.511V128.338C107.253 130.744 105.301 132.709 102.896 132.709H69.9073C67.5019 132.709 65.55 130.758 65.55 128.338V110.511C65.55 108.106 67.5019 106.14 69.9073 106.14Z" fill="#202020"/>
<path vector-effect="non-scaling-stroke" d="M69.9073 106.14H102.896C105.301 106.14 107.253 108.092 107.253 110.511V128.338C107.253 130.744 105.301 132.709 102.896 132.709H69.9073C67.5019 132.709 65.55 130.758 65.55 128.338V110.511C65.55 108.106 67.5019 106.14 69.9073 106.14Z" stroke="white" stroke-width="1.37451" stroke-miterlimit="10"/>
<path vector-effect="non-scaling-stroke" d="M65.55 111.033H107.253V116.778H65.55V111.033Z" fill="white" stroke="white" stroke-width="1.37451" stroke-miterlimit="10"/>
<path vector-effect="non-scaling-stroke" d="M113.095 126.317C105.631 123.761 100.133 119.555 102.676 116.393C106.414 111.734 111.088 120.146 114.771 117.878" fill="white"/>
<path vector-effect="non-scaling-stroke" d="M113.095 126.317C105.631 123.761 100.133 119.555 102.676 116.393C106.414 111.734 111.088 120.146 114.771 117.878" stroke="white" stroke-width="1.37451" stroke-miterlimit="10"/>
<path vector-effect="non-scaling-stroke" d="M113.095 126.317C105.631 123.761 100.133 119.555 102.676 116.393C106.414 111.734 111.088 120.146 114.771 117.878" fill="black"/>
<path vector-effect="non-scaling-stroke" d="M113.095 126.317C105.631 123.761 100.133 119.555 102.676 116.393C106.414 111.734 111.088 120.146 114.771 117.878" stroke="white" stroke-width="1.37451" stroke-miterlimit="10"/>
<path vector-effect="non-scaling-stroke" d="M113.095 126.317C105.631 123.761 100.133 119.555 102.676 116.393C106.414 111.734 111.088 120.146 114.771 117.878" stroke="white" stroke-width="1.37451" stroke-miterlimit="10"/>
<path vector-effect="non-scaling-stroke" d="M190.782 324.069H163.14L194.067 167.058L209.874 201.806L190.796 324.055L190.782 324.069Z" fill="#202020" stroke="white" stroke-width="1.37451" stroke-miterlimit="10"/>
<path vector-effect="non-scaling-stroke" d="M194.548 118.331L191.703 103.088C191.703 103.088 178.301 114.895 170.961 109.96C165.807 106.497 166.659 99.5827 167.085 91.2257L166.425 91.5144C164.721 92.2566 162.962 90.6072 163.58 88.8478C164.584 86.0301 165.972 83.1161 167.03 81.0543C166.989 80.6695 166.948 80.2709 166.907 79.886C165.353 66.7182 177.05 59.1309 183.332 56.6842C189.614 54.2376 198.383 50.334 206.451 56.3819C214.671 62.5397 207.757 76.381 212.032 95.0194C212.911 98.868 215.152 104.284 220.98 111.211L194.548 118.331Z" fill="black" stroke="white" stroke-width="1.37451" stroke-miterlimit="10"/>
<path vector-effect="non-scaling-stroke" d="M169.807 66.7181C174.178 60.2579 181.174 57.1515 183.208 56.3542L184.088 56.0106C190.301 53.564 198.809 50.2239 206.657 56.1068C211.468 59.7081 211.248 65.9071 210.987 73.7693C210.836 78.044 210.671 82.8961 211.248 88.2292L211.29 88.5728L210.946 88.614C210.176 88.6965 209.42 88.7377 208.692 88.7377C193.228 88.7377 187.277 70.9928 185.036 68.6011C176.157 70.1681 169.999 67.2541 169.93 67.2266L169.573 67.0479L169.793 66.7181H169.807Z" fill="#A0A09E" stroke="white" stroke-width="1.37451" stroke-miterlimit="10"/>
<path vector-effect="non-scaling-stroke" d="M212.884 108.833H187.978L189.586 123.884L212.884 108.833Z" fill="white" stroke="white" stroke-width="1.37451" stroke-miterlimit="10"/>
<path vector-effect="non-scaling-stroke" d="M209.173 56.19C201.613 56.19 195.483 50.0459 195.483 42.4861C195.483 34.9125 201.613 28.7822 209.173 28.7822C216.733 28.7822 222.863 34.9263 222.863 42.4861C222.863 50.0597 216.733 56.19 209.173 56.19Z" fill="#A0A09E" stroke="white" stroke-width="1.37451" stroke-miterlimit="10"/>
<path vector-effect="non-scaling-stroke" d="M187.978 76.0655C187.978 76.0655 192.404 71.0348 196.225 74.1412C201.063 78.0723 196.225 84.1614 193.737 84.8624" fill="black"/>
<path vector-effect="non-scaling-stroke" d="M187.978 76.0655C187.978 76.0655 192.404 71.0348 196.225 74.1412C201.063 78.0723 196.225 84.1614 193.737 84.8624" stroke="white" stroke-width="1.37451" stroke-miterlimit="10"/>
<path vector-effect="non-scaling-stroke" d="M164.762 78.2235L189.93 74.4023" stroke="white" stroke-width="1.37451" stroke-miterlimit="10"/>
<path vector-effect="non-scaling-stroke" d="M164.185 72.4087L165.436 84.3532" stroke="white" stroke-width="1.37451" stroke-miterlimit="10"/>
<path vector-effect="non-scaling-stroke" d="M166.92 95.7625C173.339 95.7625 174.645 90.3606 174.659 90.3057" stroke="white" stroke-width="1.37451" stroke-miterlimit="10"/>
<path vector-effect="non-scaling-stroke" d="M187.744 185.601L190.782 324.069H287.877L239.165 128.93C234.656 110.868 212.375 102.745 197.448 114.099C192.459 117.892 189.751 123.459 185.806 128.077C182.823 131.555 179.676 134.909 176.624 138.317L162.068 154.55L162.013 154.605L137.684 116.724L106.978 136.173L137.781 191.25C146.44 207.414 168.776 209.435 180.184 195.085L187.744 185.587V185.601Z" fill="#202020" stroke="white" stroke-width="1.37451" stroke-miterlimit="10"/>
<path vector-effect="non-scaling-stroke" d="M187.744 185.6L209.86 161.381" stroke="white" stroke-width="1.37451" stroke-miterlimit="10"/>
<path vector-effect="non-scaling-stroke" d="M262.531 222.534H190.782" stroke="white" stroke-width="1.37451" stroke-miterlimit="10"/>
<path vector-effect="non-scaling-stroke" d="M124.228 380.85H13.5388V502.178H124.228V380.85Z" stroke="white" stroke-width="1.37451" stroke-miterlimit="10"/>
<path vector-effect="non-scaling-stroke" d="M0.68689 400.024H133.217C144.296 400.024 153.299 409.027 153.299 420.106C153.299 431.185 144.296 440.188 133.217 440.188H0.68689V400.024Z" fill="black" stroke="white" stroke-width="1.37451" stroke-miterlimit="10"/>
<path vector-effect="non-scaling-stroke" d="M0.68689 400.024H133.217C144.296 400.024 153.299 409.027 153.299 420.106C153.299 431.185 144.296 440.188 133.217 440.188H0.68689V400.024Z" stroke="white" stroke-width="1.37451" stroke-miterlimit="10"/>
<path vector-effect="non-scaling-stroke" d="M29.6068 412.12L32.5482 418.072L39.1046 419.02L34.3626 423.652L35.4759 430.181L29.6068 427.102L23.7376 430.181L24.8647 423.652L20.1089 419.02L26.6791 418.072L29.6068 412.12Z" fill="#8D1AF2"/>
<path vector-effect="non-scaling-stroke" d="M56.6711 412.12L59.5988 418.072L66.169 419.02L61.4132 423.652L62.5403 430.181L56.6711 427.102L50.8019 430.181L51.9153 423.652L47.1732 419.02L53.7296 418.072L56.6711 412.12Z" fill="#8D1AF2"/>
<path vector-effect="non-scaling-stroke" d="M56.6711 412.12L59.5988 418.072L66.169 419.02L61.4132 423.652L62.5403 430.181L56.6711 427.102L50.8019 430.181L51.9153 423.652L47.1732 419.02L53.7296 418.072L56.6711 412.12Z" stroke="white" stroke-width="1.37451" stroke-miterlimit="10"/>
<path vector-effect="non-scaling-stroke" d="M83.7213 412.12L86.6627 418.072L93.2191 419.02L88.4771 423.652L89.5904 430.181L83.7213 427.102L77.8521 430.181L78.9792 423.652L74.2234 419.02L80.7936 418.072L83.7213 412.12Z" fill="#8D1AF2"/>
<path vector-effect="non-scaling-stroke" d="M29.6068 412.12L32.5482 418.072L39.1046 419.02L34.3626 423.652L35.4759 430.181L29.6068 427.102L23.7376 430.181L24.8647 423.652L20.1089 419.02L26.6791 418.072L29.6068 412.12Z" stroke="white" stroke-width="1.37451" stroke-miterlimit="10"/>
<path vector-effect="non-scaling-stroke" d="M83.7213 412.12L86.6627 418.072L93.2191 419.02L88.4771 423.652L89.5904 430.181L83.7213 427.102L77.8521 430.181L78.9792 423.652L74.2234 419.02L80.7936 418.072L83.7213 412.12Z" stroke="white" stroke-width="1.37451" stroke-miterlimit="10"/>
<path vector-effect="non-scaling-stroke" d="M110.785 412.12L113.713 418.072L120.283 419.02L115.528 423.652L116.655 430.181L110.785 427.102L104.916 430.181L106.03 423.652L101.288 419.02L107.844 418.072L110.785 412.12Z" stroke="white" stroke-width="1.37451" stroke-miterlimit="10"/>
<path vector-effect="non-scaling-stroke" d="M41.1114 489.134H26.3354" stroke="white" stroke-width="1.37451" stroke-miterlimit="10"/>
<path vector-effect="non-scaling-stroke" d="M112.284 489.134H54.8428" stroke="white" stroke-width="1.37451" stroke-miterlimit="10"/>
<path vector-effect="non-scaling-stroke" d="M93.2329 478.22H26.3354" stroke="white" stroke-width="1.37451" stroke-miterlimit="10"/>
<path vector-effect="non-scaling-stroke" d="M112.284 478.22H101.961" stroke="white" stroke-width="1.37451" stroke-miterlimit="10"/>
<path vector-effect="non-scaling-stroke" d="M35.6546 467.292H26.3354" stroke="white" stroke-width="1.37451" stroke-miterlimit="10"/>
<path vector-effect="non-scaling-stroke" d="M78.7181 467.292H45.9222" stroke="white" stroke-width="1.37451" stroke-miterlimit="10"/>
<path vector-effect="non-scaling-stroke" d="M112.284 467.292H87.2264" stroke="white" stroke-width="1.37451" stroke-miterlimit="10"/>
<path vector-effect="non-scaling-stroke" d="M43.8467 456.379H26.3354" stroke="white" stroke-width="1.37451" stroke-miterlimit="10"/>
<path vector-effect="non-scaling-stroke" d="M101.961 456.379H59.2275" stroke="white" stroke-width="1.37451" stroke-miterlimit="10"/>
<path vector-effect="non-scaling-stroke" d="M554.519 337.194H575.728C582.325 337.194 587.686 342.555 587.686 349.153V418.772C587.686 425.369 582.325 430.73 575.728 430.73H554.519V337.194Z" fill="black"/>
<path vector-effect="non-scaling-stroke" d="M761.301 423.995H725.454V453.63H761.301V423.995Z" fill="#414040"/>
<path vector-effect="non-scaling-stroke" d="M747.446 391.639H681.923V453.643H747.446V391.639Z" fill="#202020"/>
<path vector-effect="non-scaling-stroke" d="M714.65 425.823C732.732 425.823 747.391 411.165 747.391 393.083C747.391 375 732.732 360.342 714.65 360.342C696.567 360.342 681.909 375 681.909 393.083C681.909 411.165 696.567 425.823 714.65 425.823Z" fill="#202020"/>
<path vector-effect="non-scaling-stroke" d="M667.669 459.788H643.807V478.289H667.669V459.788Z" fill="#414040"/>
<path vector-effect="non-scaling-stroke" d="M652.068 409.632H606.888V478.289H652.068V409.632Z" fill="#202020"/>
<path vector-effect="non-scaling-stroke" d="M629.485 429.246C641.958 429.246 652.068 419.135 652.068 406.662C652.068 394.19 641.958 384.079 629.485 384.079C617.013 384.079 606.902 394.19 606.902 406.662C606.902 419.135 617.013 429.246 629.485 429.246Z" fill="#202020"/>
<path vector-effect="non-scaling-stroke" d="M554.519 337.194H461.822V430.964H554.519V337.194Z" fill="#202020"/>
<path vector-effect="non-scaling-stroke" d="M554.519 498.287H488.061C473.574 498.287 461.822 486.535 461.822 472.047V430.716H554.519V472.295C554.519 486.645 566.161 498.287 580.511 498.273H581.446H554.519V498.287Z" fill="#414040"/>
<path vector-effect="non-scaling-stroke" d="M554.519 337.194H461.822V321.744C461.822 314.569 467.636 308.755 474.811 308.755H557.406L556.952 309.923C550.189 309.923 554.505 314.803 554.505 320.988V337.194H554.519Z" fill="#414040"/>
<path vector-effect="non-scaling-stroke" d="M666.995 478.288C675.239 478.288 681.923 471.605 681.923 463.361C681.923 455.117 675.239 448.434 666.995 448.434C658.751 448.434 652.068 455.117 652.068 463.361C652.068 471.605 658.751 478.288 666.995 478.288Z" fill="black"/>
<path vector-effect="non-scaling-stroke" d="M714.567 360.203H626.86C612.867 360.203 598.339 370.237 595.342 383.845L629.595 383.914C642.021 383.941 652.068 394.016 652.068 406.428V463.36H681.923V392.064C681.923 374.471 696.19 360.189 713.784 360.189H714.567V360.203Z" fill="black"/>
<path vector-effect="non-scaling-stroke" d="M766.414 453.643H766.194C755.844 453.643 747.445 445.245 747.445 434.895V393.096C747.445 374.938 732.724 360.204 714.553 360.204H691.737V337.194H785.148V434.908C785.148 445.258 776.75 453.657 766.4 453.657L766.414 453.643Z" fill="black"/>
<path vector-effect="non-scaling-stroke" d="M575.288 337.194H448.118C441.369 337.194 435.899 342.665 435.899 349.414V418.51C435.899 425.259 441.369 430.73 448.118 430.73H575.288C582.036 430.73 587.507 425.259 587.507 418.51V349.414C587.507 342.665 582.036 337.194 575.288 337.194Z" stroke="white" stroke-width="1.37451" stroke-miterlimit="10"/>
<path vector-effect="non-scaling-stroke" d="M474.894 308.742H554.519" stroke="white" stroke-width="1.37451" stroke-miterlimit="10"/>
<path vector-effect="non-scaling-stroke" d="M488.007 498.287H580.704" stroke="white" stroke-width="1.37451" stroke-miterlimit="10"/>
<path vector-effect="non-scaling-stroke" d="M626.86 360.204H714.677" stroke="white" stroke-width="1.37451" stroke-miterlimit="10"/>
<path vector-effect="non-scaling-stroke" d="M587.494 384.011H629.485" stroke="white" stroke-width="1.37451" stroke-miterlimit="10"/>
<path vector-effect="non-scaling-stroke" d="M681.909 463.36C681.909 471.607 675.229 478.288 666.982 478.288C658.735 478.288 652.054 471.607 652.054 463.36" stroke="white" stroke-width="1.37451" stroke-miterlimit="10"/>
<path vector-effect="non-scaling-stroke" d="M681.909 392.945C681.909 374.87 696.561 360.204 714.65 360.204C732.738 360.204 747.391 374.856 747.391 392.945" stroke="white" stroke-width="1.37451" stroke-miterlimit="10"/>
<path vector-effect="non-scaling-stroke" d="M626.859 360.204C611.918 360.204 599.3 370.211 595.369 383.887L595.342 383.997" stroke="white" stroke-width="1.37451" stroke-miterlimit="10"/>
<path vector-effect="non-scaling-stroke" d="M785.162 434.785C785.162 445.204 776.723 453.643 766.304 453.643C755.885 453.643 747.446 445.204 747.446 434.785" stroke="white" stroke-width="1.37451" stroke-miterlimit="10"/>
<path vector-effect="non-scaling-stroke" d="M606.888 406.594C606.888 394.113 617.004 384.011 629.471 384.011C641.938 384.011 652.054 394.127 652.054 406.594" stroke="white" stroke-width="1.37451" stroke-miterlimit="10"/>
<path vector-effect="non-scaling-stroke" d="M606.888 472.103C606.888 486.562 595.163 498.287 580.703 498.287C566.244 498.287 554.519 486.562 554.519 472.103" stroke="white" stroke-width="1.37451" stroke-miterlimit="10"/>
<path vector-effect="non-scaling-stroke" d="M488.006 498.287C473.547 498.287 461.822 486.562 461.822 472.103" stroke="white" stroke-width="1.37451" stroke-miterlimit="10"/>
<path vector-effect="non-scaling-stroke" d="M461.822 321.814C461.822 314.598 467.677 308.742 474.894 308.742" stroke="white" stroke-width="1.37451" stroke-miterlimit="10"/>
<path vector-effect="non-scaling-stroke" d="M461.822 321.813V472.103" stroke="white" stroke-width="1.37451" stroke-miterlimit="10"/>
<path vector-effect="non-scaling-stroke" d="M554.519 321.813V472.103" stroke="white" stroke-width="1.37451" stroke-miterlimit="10"/>
<path vector-effect="non-scaling-stroke" d="M681.909 463.361V392.944" stroke="white" stroke-width="1.37451" stroke-miterlimit="10"/>
<path vector-effect="non-scaling-stroke" d="M747.446 393.082V434.785" stroke="white" stroke-width="1.37451" stroke-miterlimit="10"/>
<path vector-effect="non-scaling-stroke" d="M606.888 472.103V406.594" stroke="white" stroke-width="1.37451" stroke-miterlimit="10"/>
<path vector-effect="non-scaling-stroke" d="M652.068 406.594V463.361" stroke="white" stroke-width="1.37451" stroke-miterlimit="10"/>
<path vector-effect="non-scaling-stroke" d="M766.304 453.643H681.909" stroke="white" stroke-width="1.37451" stroke-miterlimit="10"/>
<path vector-effect="non-scaling-stroke" d="M666.995 478.288H606.888" stroke="white" stroke-width="1.37451" stroke-miterlimit="10"/>
<path vector-effect="non-scaling-stroke" d="M435.899 368.644H427.226V399.268H435.899V368.644Z" stroke="white" stroke-width="1.37451" stroke-miterlimit="10"/>
<path vector-effect="non-scaling-stroke" d="M452.736 372.945H447.884V394.979H452.736V372.945Z" stroke="white" stroke-width="1.37451" stroke-miterlimit="10"/>
<path vector-effect="non-scaling-stroke" d="M568.828 389.495C571.887 389.495 574.367 387.015 574.367 383.955C574.367 380.896 571.887 378.416 568.828 378.416C565.768 378.416 563.288 380.896 563.288 383.955C563.288 387.015 565.768 389.495 568.828 389.495Z" stroke="white" stroke-width="1.37451" stroke-miterlimit="10"/>
<path vector-effect="non-scaling-stroke" d="M525.654 324.508H543.221" stroke="white" stroke-width="1.37451" stroke-miterlimit="10"/>
<path vector-effect="non-scaling-stroke" d="M477.464 324.508H513.133" stroke="white" stroke-width="1.37451" stroke-miterlimit="10"/>
<path vector-effect="non-scaling-stroke" d="M531.922 443.403H543.22" stroke="white" stroke-width="1.37451" stroke-miterlimit="10"/>
<path vector-effect="non-scaling-stroke" d="M477.464 443.403H513.133" stroke="white" stroke-width="1.37451" stroke-miterlimit="10"/>
<path vector-effect="non-scaling-stroke" d="M502.686 456.09H543.221" stroke="white" stroke-width="1.37451" stroke-miterlimit="10"/>
<path vector-effect="non-scaling-stroke" d="M477.464 456.09H485.368" stroke="white" stroke-width="1.37451" stroke-miterlimit="10"/>
<path vector-effect="non-scaling-stroke" d="M536.087 468.776H543.221" stroke="white" stroke-width="1.37451" stroke-miterlimit="10"/>
<path vector-effect="non-scaling-stroke" d="M510.342 468.776H519.181" stroke="white" stroke-width="1.37451" stroke-miterlimit="10"/>
<path vector-effect="non-scaling-stroke" d="M477.464 468.776H496.639" stroke="white" stroke-width="1.37451" stroke-miterlimit="10"/>
<path vector-effect="non-scaling-stroke" d="M529.833 481.463H543.22" stroke="white" stroke-width="1.37451" stroke-miterlimit="10"/>
<path vector-effect="non-scaling-stroke" d="M485.367 481.463H510.342" stroke="white" stroke-width="1.37451" stroke-miterlimit="10"/>
<path vector-effect="non-scaling-stroke" d="M508.391 412.092C523.93 412.092 536.527 399.495 536.527 383.956C536.527 368.416 523.93 355.819 508.391 355.819C492.851 355.819 480.254 368.416 480.254 383.956C480.254 399.495 492.851 412.092 508.391 412.092Z" fill="#A100FF" stroke="white" stroke-width="1.37451" stroke-miterlimit="10"/>
<path vector-effect="non-scaling-stroke" d="M508.212 397.427V402.842" stroke="white" stroke-width="1.37451" stroke-miterlimit="10"/>
<path vector-effect="non-scaling-stroke" d="M508.212 365.51V370.925" stroke="white" stroke-width="1.37451" stroke-miterlimit="10"/>
<path vector-effect="non-scaling-stroke" d="M516.817 377.317C516.652 373.675 512.995 370.926 508.143 370.926C504.295 370.926 500.13 373.372 500.13 377.317C500.13 380.932 503.869 384.107 508.143 384.107C513.092 384.107 516.817 387.063 516.817 390.98C516.817 393.839 514.233 396.382 510.521 397.165C509.793 397.316 509.037 397.426 508.281 397.426C507.525 397.426 506.728 397.33 505.972 397.165C502.439 396.368 499.965 393.825 499.965 390.98" stroke="white" stroke-width="1.37451" stroke-miterlimit="10"/>
<path vector-effect="non-scaling-stroke" d="M501.01 308.743H522.246V300.922V318.681L521.38 320.041C519.731 322.626 520.308 326.048 522.713 327.945C524.129 329.058 526.108 329.141 527.593 328.124L527.359 328.508L529.71 324.646C530.864 322.749 531.469 320.577 531.469 318.365V306.269V318.337C531.469 320.578 530.851 322.763 529.696 324.674L527.593 328.124V330.034C527.593 331.34 528.225 332.55 529.284 333.305C529.957 333.787 530.768 334.048 531.593 334.048H531.868C532.844 334.048 533.792 333.69 534.534 333.031L535.441 332.22L537.888 326.9C538.974 324.55 539.537 321.993 539.537 319.409V307.973V319.423C539.537 322.007 538.974 324.55 537.902 326.9L535.441 332.22L536.472 333.855C537.173 334.969 538.397 335.628 539.702 335.628C541.077 335.628 542.341 334.886 543.029 333.704L544.912 330.405C546.616 327.423 547.51 324.041 547.51 320.619V310.489V320.797C547.51 324.11 546.644 327.368 545.008 330.24L543.551 332.811L544.912 335.642C545.2 336.233 545.654 336.728 546.231 337.072C547.042 337.539 548.032 337.649 548.925 337.347L550.286 336.893C551.138 336.604 551.826 336 552.21 335.189L555.386 328.591C555.605 328.151 555.715 327.656 555.715 327.161V311.423V320.399L570.175 324.976C571.069 325.265 572.017 325.292 572.924 325.058L573.68 324.866C574.931 324.55 576.017 323.766 576.718 322.68L576.773 322.584C577.57 321.333 577.776 319.808 577.337 318.392C576.965 317.182 576.168 316.165 575.082 315.519L562.258 310.186C560.004 309.252 558.093 307.63 556.801 305.568C556.499 294.297 547.276 285.321 535.991 285.321H525.078C512.033 285.321 501.367 295.713 501.01 308.743Z" fill="#020202"/>
<path vector-effect="non-scaling-stroke" d="M527.593 328.124C526.108 329.141 524.129 329.058 522.713 327.945C520.308 326.048 519.731 322.626 521.38 320.041L522.246 318.681V300.922V308.743H501.01C501.367 295.713 512.033 285.321 525.078 285.321H535.991C547.276 285.321 556.499 294.297 556.801 305.568C558.093 307.63 560.004 309.252 562.258 310.186L575.082 315.519C576.168 316.165 576.965 317.182 577.337 318.392C577.776 319.808 577.57 321.333 576.773 322.584L576.718 322.68C576.017 323.766 574.931 324.55 573.68 324.866L572.924 325.058C572.017 325.292 571.069 325.265 570.175 324.976L555.715 320.399V311.423V327.161C555.715 327.656 555.605 328.151 555.386 328.591L552.21 335.189C551.826 336 551.138 336.604 550.286 336.893L548.925 337.347C548.032 337.649 547.042 337.539 546.231 337.072C545.654 336.728 545.2 336.233 544.912 335.642L543.551 332.811L545.008 330.24C546.644 327.368 547.51 324.11 547.51 320.797V310.489V320.619C547.51 324.041 546.616 327.423 544.912 330.405L543.029 333.704C542.341 334.886 541.077 335.628 539.702 335.628C538.397 335.628 537.173 334.969 536.472 333.855L535.441 332.22M527.593 328.124L527.359 328.508L529.71 324.646C530.864 322.749 531.469 320.577 531.469 318.365V306.269V318.337C531.469 320.578 530.851 322.763 529.696 324.674L527.593 328.124ZM527.593 328.124V330.034C527.593 331.34 528.225 332.55 529.284 333.305C529.957 333.787 530.768 334.048 531.593 334.048H531.868C532.844 334.048 533.792 333.69 534.534 333.031L535.441 332.22M535.441 332.22L537.888 326.9C538.974 324.55 539.537 321.993 539.537 319.409V307.973V319.423C539.537 322.007 538.974 324.55 537.902 326.9L535.441 332.22Z" stroke="white" stroke-width="1.37451" stroke-linecap="round" stroke-linejoin="round"/>
<path vector-effect="non-scaling-stroke" d="M760.146 90.6626H675.765V136.008H733.068L748.806 151.746V136.008H760.146V90.6626Z" fill="#020202" stroke="white" stroke-width="1.37451" stroke-miterlimit="10"/>
<path vector-effect="non-scaling-stroke" d="M702.114 49.4546H794.11V108.641H731.639L714.471 125.809V108.641H702.114V49.4546Z" fill="#020202" stroke="white" stroke-width="1.37451" stroke-miterlimit="10"/>
<path vector-effect="non-scaling-stroke" d="M749.054 18.0742H650.446V71.0616H717.412L735.803 89.4663V71.0616H749.054V18.0742Z" fill="#202020" stroke="white" stroke-width="1.37451" stroke-miterlimit="10"/>
<path vector-effect="non-scaling-stroke" d="M452.737 140.778C445.411 135.458 436.49 132.476 427.226 132.476V175.896L452.737 140.778Z" fill="#A2A2A0" stroke="white" stroke-width="1.37451" stroke-miterlimit="10"/>
<path vector-effect="non-scaling-stroke" d="M414.594 134.359C409.838 135.802 405.522 138.001 401.715 140.778C394.237 146.207 388.767 153.863 385.949 162.481C383.282 170.646 383.008 179.69 385.702 188.528C385.784 188.789 385.88 189.05 385.963 189.312C388.904 198.37 394.54 205.806 401.728 211.015L427.239 175.896V132.476C423.061 132.476 418.814 133.08 414.608 134.359H414.594Z" fill="#404040" stroke="white" stroke-width="1.37451" stroke-miterlimit="10"/>
<path vector-effect="non-scaling-stroke" d="M468.764 163.264C468.681 163.003 468.585 162.742 468.502 162.481C465.561 153.437 459.925 145.987 452.737 140.777L427.226 175.896L468.502 189.311C471.169 181.147 471.444 172.102 468.75 163.264H468.764Z" fill="#020202" stroke="white" stroke-width="1.37451" stroke-linejoin="round"/>
<path vector-effect="non-scaling-stroke" d="M427.226 175.896L401.715 211.015C409.041 216.334 417.961 219.317 427.226 219.317C431.404 219.317 435.651 218.712 439.857 217.434C444.613 215.99 448.929 213.791 452.737 211.015C460.214 205.585 465.684 197.929 468.502 189.311L427.226 175.896Z" fill="#A100FF" stroke="white" stroke-width="1.37451" stroke-miterlimit="10"/>
</g>
<defs>
<clipPath id="clip0_20_12237">
<rect width="802" height="515.373" fill="white"/>
</clipPath>
<clipPath id="clip1_20_12237">
<rect width="802" height="515.373" fill="white"/>
</clipPath>
</defs>
</svg>
