<svg width="595" height="398" viewBox="0 0 595 398" fill="none" xmlns="http://www.w3.org/2000/svg">
<g clip-path="url(#clip0_408_3832)">
<path vector-effect="non-scaling-stroke" d="M595 0.5H0V397.17H595V0.5Z" fill="black"/>
<path vector-effect="non-scaling-stroke" d="M565.28 124.679C565.28 124.279 564.96 123.869 564.56 123.759C564.16 123.649 563.84 123.879 563.84 124.269C563.84 124.669 564.16 125.079 564.56 125.189C564.96 125.299 565.28 125.069 565.28 124.679Z" stroke="white" stroke-miterlimit="10"/>
<path vector-effect="non-scaling-stroke" d="M559.299 124.159C559.299 123.759 558.979 123.349 558.579 123.239C558.179 123.129 557.859 123.359 557.859 123.749C557.859 124.149 558.179 124.559 558.579 124.669C558.979 124.779 559.299 124.549 559.299 124.159Z" stroke="white" stroke-miterlimit="10"/>
<path vector-effect="non-scaling-stroke" d="M556.43 125.489C556.43 125.089 556.11 124.679 555.71 124.569C555.31 124.459 554.99 124.69 554.99 125.08C554.99 125.48 555.31 125.889 555.71 125.999C556.11 126.109 556.43 125.879 556.43 125.489Z" stroke="white" stroke-miterlimit="10"/>
<path vector-effect="non-scaling-stroke" d="M562.238 127.633C562.497 127.409 562.463 126.947 562.163 126.6C561.863 126.254 561.41 126.155 561.151 126.379C560.892 126.603 560.926 127.066 561.226 127.412C561.527 127.759 561.98 127.858 562.238 127.633Z" stroke="white" stroke-miterlimit="10"/>
<path vector-effect="non-scaling-stroke" d="M559.54 132.359V129.009L557.62 128.469V131.809L559.54 132.359Z" stroke="white" stroke-miterlimit="10"/>
<path vector-effect="non-scaling-stroke" d="M556.43 131.469V129.559L554.51 129.009V130.919L556.43 131.469Z" stroke="white" stroke-miterlimit="10"/>
<path vector-effect="non-scaling-stroke" d="M566 134.219V128.469L564.08 127.929V133.669L566 134.219Z" stroke="white" stroke-miterlimit="10"/>
<path vector-effect="non-scaling-stroke" d="M562.89 133.319V131.409L560.97 130.859V132.779L562.89 133.319Z" stroke="white" stroke-miterlimit="10"/>
<path vector-effect="non-scaling-stroke" d="M562.16 126.589L564.1 124.879" stroke="white" stroke-miterlimit="10"/>
<path vector-effect="non-scaling-stroke" d="M559.17 124.529L561.1 126.419" stroke="white" stroke-miterlimit="10"/>
<path vector-effect="non-scaling-stroke" d="M556.279 125.019L558.009 124.219" stroke="white" stroke-miterlimit="10"/>
<path vector-effect="non-scaling-stroke" d="M554.51 132.359L566 135.649" stroke="white" stroke-miterlimit="10"/>
<path vector-effect="non-scaling-stroke" d="M565.99 139.1L553.48 135.51C551.76 135.02 550.35 133.21 550.35 131.48V118.97C550.35 117.24 551.75 116.24 553.48 116.74L565.99 120.33C567.71 120.82 569.12 122.63 569.12 124.36V136.87C569.12 138.6 567.72 139.6 565.99 139.1Z" stroke="white" stroke-miterlimit="10"/>
<path vector-effect="non-scaling-stroke" d="M479.16 39.6296C452.8 23.8796 437.04 22.8496 404.09 22.8496C320.78 22.8496 251 80.7396 232.76 158.48C209.69 135.02 177.6 120.47 142.1 120.47C71.8697 120.47 14.9297 177.41 14.9297 247.64C14.9297 317.87 71.8697 374.81 142.1 374.81H404.81C553.85 374.81 580.07 334.67 580.07 198.83C580.07 198.19 580.05 201.53 580.05 200.89" fill="#020202"/>
<path vector-effect="non-scaling-stroke" d="M479.16 39.6296C452.8 23.8796 437.04 22.8496 404.09 22.8496C320.78 22.8496 251 80.7396 232.76 158.48C209.69 135.02 177.6 120.47 142.1 120.47C71.8697 120.47 14.9297 177.41 14.9297 247.64C14.9297 317.87 71.8697 374.81 142.1 374.81H404.81C553.85 374.81 580.07 334.67 580.07 198.83C580.07 198.19 580.05 201.53 580.05 200.89" stroke="white" stroke-linecap="round"/>
<path vector-effect="non-scaling-stroke" d="M28.3301 224.93C28.3301 224.93 36.0301 236.48 52.4301 234.66C95.3601 229.88 96.1601 217.02 79.7701 177.9C69.8901 154.33 55.0401 118.9 69.3801 102.36C89.9801 78.6 120.98 95.12 164.37 141.75C207.76 188.38 304.53 253.11 380.59 169.25" stroke="#A100FF"/>
<path vector-effect="non-scaling-stroke" d="M553.039 207.35L412.889 348.86C406.739 355.13 398.519 358.62 389.759 358.68L245.939 359.29V374.23L389.859 373.62C396.149 373.58 402.269 372.31 408.069 369.85C413.859 367.39 419.039 363.86 423.459 359.36L580.039 200.89H580.069" stroke="white" stroke-linejoin="round"/>
<path vector-effect="non-scaling-stroke" d="M482.389 260.939L465.029 278.519L473.829 287.209L491.189 269.629L482.389 260.939Z" fill="#A100FF" stroke="white" stroke-linejoin="round"/>
<path vector-effect="non-scaling-stroke" d="M526.009 216.45L508.649 234.03L517.449 242.72L534.809 225.14L526.009 216.45Z" fill="#A100FF" stroke="white" stroke-linejoin="round"/>
<path vector-effect="non-scaling-stroke" d="M475.711 51.4098C475.711 54.0698 474.161 56.2298 472.251 56.2298C470.341 56.2298 468.791 54.0698 468.791 51.4098C468.791 48.7498 470.341 46.5898 472.251 46.5898C474.161 46.5898 475.711 48.7498 475.711 51.4098Z" stroke="#A100FF"/>
<path vector-effect="non-scaling-stroke" d="M480.041 46.5898V56.2298" stroke="#A100FF"/>
<path vector-effect="non-scaling-stroke" d="M475.711 64.2697C475.711 66.9297 474.161 69.0897 472.251 69.0897C470.341 69.0897 468.791 66.9297 468.791 64.2697C468.791 61.6097 470.341 59.4497 472.251 59.4497C474.161 59.4497 475.711 61.6097 475.711 64.2697Z" stroke="#A100FF"/>
<path vector-effect="non-scaling-stroke" d="M480.041 59.4399V69.0799" stroke="#A100FF"/>
<path vector-effect="non-scaling-stroke" d="M475.711 78.7297C475.711 81.3897 474.161 83.5497 472.251 83.5497C470.341 83.5497 468.791 81.3897 468.791 78.7297C468.791 76.0697 470.341 73.9097 472.251 73.9097C474.161 73.9097 475.711 76.0697 475.711 78.7297Z" stroke="#A100FF"/>
<path vector-effect="non-scaling-stroke" d="M480.041 73.9097V83.5497" stroke="#A100FF"/>
<path vector-effect="non-scaling-stroke" d="M475.711 91.59C475.711 94.25 474.161 96.41 472.251 96.41C470.341 96.41 468.791 94.25 468.791 91.59C468.791 88.93 470.341 86.77 472.251 86.77C474.161 86.77 475.711 88.93 475.711 91.59Z" stroke="#A100FF"/>
<path vector-effect="non-scaling-stroke" d="M480.041 86.77V96.41" stroke="#A100FF"/>
<path vector-effect="non-scaling-stroke" d="M485.241 46.5898V56.2298" stroke="#A100FF"/>
<path vector-effect="non-scaling-stroke" d="M496.501 51.4098C496.501 54.0698 494.951 56.2298 493.041 56.2298C491.131 56.2298 489.581 54.0698 489.581 51.4098C489.581 48.7498 491.131 46.5898 493.041 46.5898C494.951 46.5898 496.501 48.7498 496.501 51.4098Z" stroke="#A100FF"/>
<path vector-effect="non-scaling-stroke" d="M500.831 46.5898V56.2298" stroke="#A100FF"/>
<path vector-effect="non-scaling-stroke" d="M512.091 51.4098C512.091 54.0698 510.541 56.2298 508.631 56.2298C506.721 56.2298 505.171 54.0698 505.171 51.4098C505.171 48.7498 506.721 46.5898 508.631 46.5898C510.541 46.5898 512.091 48.7498 512.091 51.4098Z" stroke="#A100FF"/>
<path vector-effect="non-scaling-stroke" d="M516.421 46.5898V56.2298" stroke="#A100FF"/>
<path vector-effect="non-scaling-stroke" d="M521.611 46.5898V56.2298" stroke="#A100FF"/>
<path vector-effect="non-scaling-stroke" d="M491.301 64.2697C491.301 66.9297 489.751 69.0897 487.841 69.0897C485.931 69.0897 484.381 66.9297 484.381 64.2697C484.381 61.6097 485.931 59.4497 487.841 59.4497C489.751 59.4497 491.301 61.6097 491.301 64.2697Z" stroke="#A100FF"/>
<path vector-effect="non-scaling-stroke" d="M495.631 59.4399V69.0799" stroke="#A100FF"/>
<path vector-effect="non-scaling-stroke" d="M506.891 64.2697C506.891 66.9297 505.341 69.0897 503.431 69.0897C501.521 69.0897 499.971 66.9297 499.971 64.2697C499.971 61.6097 501.521 59.4497 503.431 59.4497C505.341 59.4497 506.891 61.6097 506.891 64.2697Z" stroke="#A100FF"/>
<path vector-effect="non-scaling-stroke" d="M511.221 59.4399V69.0799" stroke="#A100FF"/>
<path vector-effect="non-scaling-stroke" d="M522.481 64.2697C522.481 66.9297 520.931 69.0897 519.021 69.0897C517.111 69.0897 515.561 66.9297 515.561 64.2697C515.561 61.6097 517.111 59.4497 519.021 59.4497C520.931 59.4497 522.481 61.6097 522.481 64.2697Z" stroke="#A100FF"/>
<path vector-effect="non-scaling-stroke" d="M485.241 73.9097V83.5497" stroke="#A100FF"/>
<path vector-effect="non-scaling-stroke" d="M496.501 78.7297C496.501 81.3897 494.951 83.5497 493.041 83.5497C491.131 83.5497 489.581 81.3897 489.581 78.7297C489.581 76.0697 491.131 73.9097 493.041 73.9097C494.951 73.9097 496.501 76.0697 496.501 78.7297Z" stroke="#A100FF"/>
<path vector-effect="non-scaling-stroke" d="M500.831 73.9097V83.5497" stroke="#A100FF"/>
<path vector-effect="non-scaling-stroke" d="M512.091 78.7297C512.091 81.3897 510.541 83.5497 508.631 83.5497C506.721 83.5497 505.171 81.3897 505.171 78.7297C505.171 76.0697 506.721 73.9097 508.631 73.9097C510.541 73.9097 512.091 76.0697 512.091 78.7297Z" stroke="#A100FF"/>
<path vector-effect="non-scaling-stroke" d="M516.421 73.9097V83.5497" stroke="#A100FF"/>
<path vector-effect="non-scaling-stroke" d="M521.611 73.9097V83.5497" stroke="#A100FF"/>
<path vector-effect="non-scaling-stroke" d="M491.301 91.59C491.301 94.25 489.751 96.41 487.841 96.41C485.931 96.41 484.381 94.25 484.381 91.59C484.381 88.93 485.931 86.77 487.841 86.77C489.751 86.77 491.301 88.93 491.301 91.59Z" stroke="#A100FF"/>
<path vector-effect="non-scaling-stroke" d="M495.631 86.77V96.41" stroke="#A100FF"/>
<path vector-effect="non-scaling-stroke" d="M511.221 86.77V96.41" stroke="#A100FF"/>
<path vector-effect="non-scaling-stroke" d="M522.481 91.59C522.481 94.25 520.931 96.41 519.021 96.41C517.111 96.41 515.561 94.25 515.561 91.59C515.561 88.93 517.111 86.77 519.021 86.77C520.931 86.77 522.481 88.93 522.481 91.59Z" stroke="#A100FF"/>
<path vector-effect="non-scaling-stroke" d="M506.021 86.77V96.41" stroke="#A100FF"/>
<path vector-effect="non-scaling-stroke" d="M500.831 86.77V96.41" stroke="#A100FF"/>
<path vector-effect="non-scaling-stroke" d="M533.171 51.4098C533.171 54.0698 531.621 56.2298 529.711 56.2298C527.801 56.2298 526.251 54.0698 526.251 51.4098C526.251 48.7498 527.801 46.5898 529.711 46.5898C531.621 46.5898 533.171 48.7498 533.171 51.4098Z" stroke="#A100FF"/>
<path vector-effect="non-scaling-stroke" d="M537.511 46.5898V56.2298" stroke="#A100FF"/>
<path vector-effect="non-scaling-stroke" d="M533.171 64.2697C533.171 66.9297 531.621 69.0897 529.711 69.0897C527.801 69.0897 526.251 66.9297 526.251 64.2697C526.251 61.6097 527.801 59.4497 529.711 59.4497C531.621 59.4497 533.171 61.6097 533.171 64.2697Z" stroke="#A100FF"/>
<path vector-effect="non-scaling-stroke" d="M537.511 59.4399V69.0799" stroke="#A100FF"/>
<path vector-effect="non-scaling-stroke" d="M533.171 78.7297C533.171 81.3897 531.621 83.5497 529.711 83.5497C527.801 83.5497 526.251 81.3897 526.251 78.7297C526.251 76.0697 527.801 73.9097 529.711 73.9097C531.621 73.9097 533.171 76.0697 533.171 78.7297Z" stroke="#A100FF"/>
<path vector-effect="non-scaling-stroke" d="M537.511 73.9097V83.5497" stroke="#A100FF"/>
<path vector-effect="non-scaling-stroke" d="M533.171 91.59C533.171 94.25 531.621 96.41 529.711 96.41C527.801 96.41 526.251 94.25 526.251 91.59C526.251 88.93 527.801 86.77 529.711 86.77C531.621 86.77 533.171 88.93 533.171 91.59Z" stroke="#A100FF"/>
<path vector-effect="non-scaling-stroke" d="M537.511 86.77V96.41" stroke="#A100FF"/>
<path vector-effect="non-scaling-stroke" d="M542.701 46.5898V56.2298" stroke="#A100FF"/>
<path vector-effect="non-scaling-stroke" d="M553.961 51.4098C553.961 54.0698 552.411 56.2298 550.501 56.2298C548.591 56.2298 547.041 54.0698 547.041 51.4098C547.041 48.7498 548.591 46.5898 550.501 46.5898C552.411 46.5898 553.961 48.7498 553.961 51.4098Z" stroke="#A100FF"/>
<path vector-effect="non-scaling-stroke" d="M558.291 46.5898V56.2298" stroke="#A100FF"/>
<path vector-effect="non-scaling-stroke" d="M569.551 51.4098C569.551 54.0698 568.001 56.2298 566.091 56.2298C564.181 56.2298 562.631 54.0698 562.631 51.4098C562.631 48.7498 564.181 46.5898 566.091 46.5898C568.001 46.5898 569.551 48.7498 569.551 51.4098Z" stroke="#A100FF"/>
<path vector-effect="non-scaling-stroke" d="M573.881 46.5898V56.2298" stroke="#A100FF"/>
<path vector-effect="non-scaling-stroke" d="M579.081 46.5898V56.2298" stroke="#A100FF"/>
<path vector-effect="non-scaling-stroke" d="M548.761 64.2697C548.761 66.9297 547.211 69.0897 545.301 69.0897C543.391 69.0897 541.841 66.9297 541.841 64.2697C541.841 61.6097 543.391 59.4497 545.301 59.4497C547.211 59.4497 548.761 61.6097 548.761 64.2697Z" stroke="#A100FF"/>
<path vector-effect="non-scaling-stroke" d="M553.101 59.4399V69.0799" stroke="#A100FF"/>
<path vector-effect="non-scaling-stroke" d="M564.351 64.2697C564.351 66.9297 562.801 69.0897 560.891 69.0897C558.981 69.0897 557.431 66.9297 557.431 64.2697C557.431 61.6097 558.981 59.4497 560.891 59.4497C562.801 59.4497 564.351 61.6097 564.351 64.2697Z" stroke="#A100FF"/>
<path vector-effect="non-scaling-stroke" d="M568.691 59.4399V69.0799" stroke="#A100FF"/>
<path vector-effect="non-scaling-stroke" d="M579.941 64.2697C579.941 66.9297 578.391 69.0897 576.481 69.0897C574.571 69.0897 573.021 66.9297 573.021 64.2697C573.021 61.6097 574.571 59.4497 576.481 59.4497C578.391 59.4497 579.941 61.6097 579.941 64.2697Z" stroke="#A100FF"/>
<path vector-effect="non-scaling-stroke" d="M542.701 73.9097V83.5497" stroke="#A100FF"/>
<path vector-effect="non-scaling-stroke" d="M553.961 78.7297C553.961 81.3897 552.411 83.5497 550.501 83.5497C548.591 83.5497 547.041 81.3897 547.041 78.7297C547.041 76.0697 548.591 73.9097 550.501 73.9097C552.411 73.9097 553.961 76.0697 553.961 78.7297Z" stroke="#A100FF"/>
<path vector-effect="non-scaling-stroke" d="M558.291 73.9097V83.5497" stroke="#A100FF"/>
<path vector-effect="non-scaling-stroke" d="M569.551 78.7297C569.551 81.3897 568.001 83.5497 566.091 83.5497C564.181 83.5497 562.631 81.3897 562.631 78.7297C562.631 76.0697 564.181 73.9097 566.091 73.9097C568.001 73.9097 569.551 76.0697 569.551 78.7297Z" stroke="#A100FF"/>
<path vector-effect="non-scaling-stroke" d="M573.881 73.9097V83.5497" stroke="#A100FF"/>
<path vector-effect="non-scaling-stroke" d="M579.081 73.9097V83.5497" stroke="#A100FF"/>
<path vector-effect="non-scaling-stroke" d="M548.761 91.59C548.761 94.25 547.211 96.41 545.301 96.41C543.391 96.41 541.841 94.25 541.841 91.59C541.841 88.93 543.391 86.77 545.301 86.77C547.211 86.77 548.761 88.93 548.761 91.59Z" stroke="#A100FF"/>
<path vector-effect="non-scaling-stroke" d="M553.101 86.77V96.41" stroke="#A100FF"/>
<path vector-effect="non-scaling-stroke" d="M568.691 86.77V96.41" stroke="#A100FF"/>
<path vector-effect="non-scaling-stroke" d="M579.941 91.59C579.941 94.25 578.391 96.41 576.481 96.41C574.571 96.41 573.021 94.25 573.021 91.59C573.021 88.93 574.571 86.77 576.481 86.77C578.391 86.77 579.941 88.93 579.941 91.59Z" stroke="#A100FF"/>
<path vector-effect="non-scaling-stroke" d="M563.491 86.77V96.41" stroke="#A100FF"/>
<path vector-effect="non-scaling-stroke" d="M558.291 86.77V96.41" stroke="#A100FF"/>
<path vector-effect="non-scaling-stroke" d="M360.681 51.4098C360.681 54.0698 359.131 56.2298 357.221 56.2298C355.311 56.2298 353.761 54.0698 353.761 51.4098C353.761 48.7498 355.311 46.5898 357.221 46.5898C359.131 46.5898 360.681 48.7498 360.681 51.4098Z" stroke="#A100FF"/>
<path vector-effect="non-scaling-stroke" d="M365.011 46.5898V56.2298" stroke="#A100FF"/>
<path vector-effect="non-scaling-stroke" d="M360.681 64.2697C360.681 66.9297 359.131 69.0897 357.221 69.0897C355.311 69.0897 353.761 66.9297 353.761 64.2697C353.761 61.6097 355.311 59.4497 357.221 59.4497C359.131 59.4497 360.681 61.6097 360.681 64.2697Z" stroke="#A100FF"/>
<path vector-effect="non-scaling-stroke" d="M365.011 59.4399V69.0799" stroke="#A100FF"/>
<path vector-effect="non-scaling-stroke" d="M360.681 78.7297C360.681 81.3897 359.131 83.5497 357.221 83.5497C355.311 83.5497 353.761 81.3897 353.761 78.7297C353.761 76.0697 355.311 73.9097 357.221 73.9097C359.131 73.9097 360.681 76.0697 360.681 78.7297Z" stroke="#A100FF"/>
<path vector-effect="non-scaling-stroke" d="M365.011 73.9097V83.5497" stroke="#A100FF"/>
<path vector-effect="non-scaling-stroke" d="M360.681 91.59C360.681 94.25 359.131 96.41 357.221 96.41C355.311 96.41 353.761 94.25 353.761 91.59C353.761 88.93 355.311 86.77 357.221 86.77C359.131 86.77 360.681 88.93 360.681 91.59Z" stroke="#A100FF"/>
<path vector-effect="non-scaling-stroke" d="M365.011 86.77V96.41" stroke="#A100FF"/>
<path vector-effect="non-scaling-stroke" d="M370.201 46.5898V56.2298" stroke="#A100FF"/>
<path vector-effect="non-scaling-stroke" d="M381.461 51.4098C381.461 54.0698 379.911 56.2298 378.001 56.2298C376.091 56.2298 374.541 54.0698 374.541 51.4098C374.541 48.7498 376.091 46.5898 378.001 46.5898C379.911 46.5898 381.461 48.7498 381.461 51.4098Z" stroke="#A100FF"/>
<path vector-effect="non-scaling-stroke" d="M385.791 46.5898V56.2298" stroke="#A100FF"/>
<path vector-effect="non-scaling-stroke" d="M397.051 51.4098C397.051 54.0698 395.501 56.2298 393.591 56.2298C391.681 56.2298 390.131 54.0698 390.131 51.4098C390.131 48.7498 391.681 46.5898 393.591 46.5898C395.501 46.5898 397.051 48.7498 397.051 51.4098Z" stroke="#A100FF"/>
<path vector-effect="non-scaling-stroke" d="M401.381 46.5898V56.2298" stroke="#A100FF"/>
<path vector-effect="non-scaling-stroke" d="M406.581 46.5898V56.2298" stroke="#A100FF"/>
<path vector-effect="non-scaling-stroke" d="M376.271 64.2697C376.271 66.9297 374.721 69.0897 372.811 69.0897C370.901 69.0897 369.351 66.9297 369.351 64.2697C369.351 61.6097 370.901 59.4497 372.811 59.4497C374.721 59.4497 376.271 61.6097 376.271 64.2697Z" stroke="#A100FF"/>
<path vector-effect="non-scaling-stroke" d="M380.601 59.4399V69.0799" stroke="#A100FF"/>
<path vector-effect="non-scaling-stroke" d="M391.86 64.2697C391.86 66.9297 390.31 69.0897 388.4 69.0897C386.49 69.0897 384.94 66.9297 384.94 64.2697C384.94 61.6097 386.49 59.4497 388.4 59.4497C390.31 59.4497 391.86 61.6097 391.86 64.2697Z" stroke="#A100FF"/>
<path vector-effect="non-scaling-stroke" d="M396.19 59.4399V69.0799" stroke="#A100FF"/>
<path vector-effect="non-scaling-stroke" d="M407.45 64.2697C407.45 66.9297 405.9 69.0897 403.99 69.0897C402.08 69.0897 400.53 66.9297 400.53 64.2697C400.53 61.6097 402.08 59.4497 403.99 59.4497C405.9 59.4497 407.45 61.6097 407.45 64.2697Z" stroke="#A100FF"/>
<path vector-effect="non-scaling-stroke" d="M370.201 73.9097V83.5497" stroke="#A100FF"/>
<path vector-effect="non-scaling-stroke" d="M381.461 78.7297C381.461 81.3897 379.911 83.5497 378.001 83.5497C376.091 83.5497 374.541 81.3897 374.541 78.7297C374.541 76.0697 376.091 73.9097 378.001 73.9097C379.911 73.9097 381.461 76.0697 381.461 78.7297Z" stroke="#A100FF"/>
<path vector-effect="non-scaling-stroke" d="M385.791 73.9097V83.5497" stroke="#A100FF"/>
<path vector-effect="non-scaling-stroke" d="M397.051 78.7297C397.051 81.3897 395.501 83.5497 393.591 83.5497C391.681 83.5497 390.131 81.3897 390.131 78.7297C390.131 76.0697 391.681 73.9097 393.591 73.9097C395.501 73.9097 397.051 76.0697 397.051 78.7297Z" stroke="#A100FF"/>
<path vector-effect="non-scaling-stroke" d="M401.381 73.9097V83.5497" stroke="#A100FF"/>
<path vector-effect="non-scaling-stroke" d="M406.581 73.9097V83.5497" stroke="#A100FF"/>
<path vector-effect="non-scaling-stroke" d="M376.271 91.59C376.271 94.25 374.721 96.41 372.811 96.41C370.901 96.41 369.351 94.25 369.351 91.59C369.351 88.93 370.901 86.77 372.811 86.77C374.721 86.77 376.271 88.93 376.271 91.59Z" stroke="#A100FF"/>
<path vector-effect="non-scaling-stroke" d="M380.601 86.77V96.41" stroke="#A100FF"/>
<path vector-effect="non-scaling-stroke" d="M396.19 86.77V96.41" stroke="#A100FF"/>
<path vector-effect="non-scaling-stroke" d="M407.45 91.59C407.45 94.25 405.9 96.41 403.99 96.41C402.08 96.41 400.53 94.25 400.53 91.59C400.53 88.93 402.08 86.77 403.99 86.77C405.9 86.77 407.45 88.93 407.45 91.59Z" stroke="#A100FF"/>
<path vector-effect="non-scaling-stroke" d="M390.99 86.77V96.41" stroke="#A100FF"/>
<path vector-effect="non-scaling-stroke" d="M385.791 86.77V96.41" stroke="#A100FF"/>
<path vector-effect="non-scaling-stroke" d="M418.141 51.4098C418.141 54.0698 416.591 56.2298 414.681 56.2298C412.771 56.2298 411.221 54.0698 411.221 51.4098C411.221 48.7498 412.771 46.5898 414.681 46.5898C416.591 46.5898 418.141 48.7498 418.141 51.4098Z" stroke="#A100FF"/>
<path vector-effect="non-scaling-stroke" d="M422.471 46.5898V56.2298" stroke="#A100FF"/>
<path vector-effect="non-scaling-stroke" d="M418.141 64.2697C418.141 66.9297 416.591 69.0897 414.681 69.0897C412.771 69.0897 411.221 66.9297 411.221 64.2697C411.221 61.6097 412.771 59.4497 414.681 59.4497C416.591 59.4497 418.141 61.6097 418.141 64.2697Z" stroke="#A100FF"/>
<path vector-effect="non-scaling-stroke" d="M422.471 59.4399V69.0799" stroke="#A100FF"/>
<path vector-effect="non-scaling-stroke" d="M418.141 78.7297C418.141 81.3897 416.591 83.5497 414.681 83.5497C412.771 83.5497 411.221 81.3897 411.221 78.7297C411.221 76.0697 412.771 73.9097 414.681 73.9097C416.591 73.9097 418.141 76.0697 418.141 78.7297Z" stroke="#A100FF"/>
<path vector-effect="non-scaling-stroke" d="M422.471 73.9097V83.5497" stroke="#A100FF"/>
<path vector-effect="non-scaling-stroke" d="M418.141 91.59C418.141 94.25 416.591 96.41 414.681 96.41C412.771 96.41 411.221 94.25 411.221 91.59C411.221 88.93 412.771 86.77 414.681 86.77C416.591 86.77 418.141 88.93 418.141 91.59Z" stroke="#A100FF"/>
<path vector-effect="non-scaling-stroke" d="M422.471 86.77V96.41" stroke="#A100FF"/>
<path vector-effect="non-scaling-stroke" d="M427.671 46.5898V56.2298" stroke="#A100FF"/>
<path vector-effect="non-scaling-stroke" d="M438.931 51.4098C438.931 54.0698 437.381 56.2298 435.471 56.2298C433.561 56.2298 432.011 54.0698 432.011 51.4098C432.011 48.7498 433.561 46.5898 435.471 46.5898C437.381 46.5898 438.931 48.7498 438.931 51.4098Z" stroke="#A100FF"/>
<path vector-effect="non-scaling-stroke" d="M443.261 46.5898V56.2298" stroke="#A100FF"/>
<path vector-effect="non-scaling-stroke" d="M454.521 51.4098C454.521 54.0698 452.971 56.2298 451.061 56.2298C449.151 56.2298 447.601 54.0698 447.601 51.4098C447.601 48.7498 449.151 46.5898 451.061 46.5898C452.971 46.5898 454.521 48.7498 454.521 51.4098Z" stroke="#A100FF"/>
<path vector-effect="non-scaling-stroke" d="M458.851 46.5898V56.2298" stroke="#A100FF"/>
<path vector-effect="non-scaling-stroke" d="M464.051 46.5898V56.2298" stroke="#A100FF"/>
<path vector-effect="non-scaling-stroke" d="M433.731 64.2697C433.731 66.9297 432.181 69.0897 430.271 69.0897C428.361 69.0897 426.811 66.9297 426.811 64.2697C426.811 61.6097 428.361 59.4497 430.271 59.4497C432.181 59.4497 433.731 61.6097 433.731 64.2697Z" stroke="#A100FF"/>
<path vector-effect="non-scaling-stroke" d="M438.061 59.4399V69.0799" stroke="#A100FF"/>
<path vector-effect="non-scaling-stroke" d="M449.32 64.2697C449.32 66.9297 447.77 69.0897 445.86 69.0897C443.95 69.0897 442.4 66.9297 442.4 64.2697C442.4 61.6097 443.95 59.4497 445.86 59.4497C447.77 59.4497 449.32 61.6097 449.32 64.2697Z" stroke="#A100FF"/>
<path vector-effect="non-scaling-stroke" d="M453.65 59.4399V69.0799" stroke="#A100FF"/>
<path vector-effect="non-scaling-stroke" d="M464.91 64.2697C464.91 66.9297 463.36 69.0897 461.45 69.0897C459.54 69.0897 457.99 66.9297 457.99 64.2697C457.99 61.6097 459.54 59.4497 461.45 59.4497C463.36 59.4497 464.91 61.6097 464.91 64.2697Z" stroke="#A100FF"/>
<path vector-effect="non-scaling-stroke" d="M427.671 73.9097V83.5497" stroke="#A100FF"/>
<path vector-effect="non-scaling-stroke" d="M438.931 78.7297C438.931 81.3897 437.381 83.5497 435.471 83.5497C433.561 83.5497 432.011 81.3897 432.011 78.7297C432.011 76.0697 433.561 73.9097 435.471 73.9097C437.381 73.9097 438.931 76.0697 438.931 78.7297Z" stroke="#A100FF"/>
<path vector-effect="non-scaling-stroke" d="M443.261 73.9097V83.5497" stroke="#A100FF"/>
<path vector-effect="non-scaling-stroke" d="M454.521 78.7297C454.521 81.3897 452.971 83.5497 451.061 83.5497C449.151 83.5497 447.601 81.3897 447.601 78.7297C447.601 76.0697 449.151 73.9097 451.061 73.9097C452.971 73.9097 454.521 76.0697 454.521 78.7297Z" stroke="#A100FF"/>
<path vector-effect="non-scaling-stroke" d="M458.851 73.9097V83.5497" stroke="#A100FF"/>
<path vector-effect="non-scaling-stroke" d="M464.051 73.9097V83.5497" stroke="#A100FF"/>
<path vector-effect="non-scaling-stroke" d="M433.731 91.59C433.731 94.25 432.181 96.41 430.271 96.41C428.361 96.41 426.811 94.25 426.811 91.59C426.811 88.93 428.361 86.77 430.271 86.77C432.181 86.77 433.731 88.93 433.731 91.59Z" stroke="#A100FF"/>
<path vector-effect="non-scaling-stroke" d="M438.061 86.77V96.41" stroke="#A100FF"/>
<path vector-effect="non-scaling-stroke" d="M453.65 86.77V96.41" stroke="#A100FF"/>
<path vector-effect="non-scaling-stroke" d="M464.91 91.59C464.91 94.25 463.36 96.41 461.45 96.41C459.54 96.41 457.99 94.25 457.99 91.59C457.99 88.93 459.54 86.77 461.45 86.77C463.36 86.77 464.91 88.93 464.91 91.59Z" stroke="#A100FF"/>
<path vector-effect="non-scaling-stroke" d="M448.461 86.77V96.41" stroke="#A100FF"/>
<path vector-effect="non-scaling-stroke" d="M443.261 86.77V96.41" stroke="#A100FF"/>
<path vector-effect="non-scaling-stroke" d="M328.471 46.5898V56.2298" stroke="#A100FF"/>
<path vector-effect="non-scaling-stroke" d="M339.731 51.4098C339.731 54.0698 338.181 56.2298 336.271 56.2298C334.361 56.2298 332.811 54.0698 332.811 51.4098C332.811 48.7498 334.361 46.5898 336.271 46.5898C338.181 46.5898 339.731 48.7498 339.731 51.4098Z" stroke="#A100FF"/>
<path vector-effect="non-scaling-stroke" d="M344.061 46.5898V56.2298" stroke="#A100FF"/>
<path vector-effect="non-scaling-stroke" d="M349.261 46.5898V56.2298" stroke="#A100FF"/>
<path vector-effect="non-scaling-stroke" d="M318.95 64.2697C318.95 66.9297 317.4 69.0897 315.49 69.0897C313.58 69.0897 312.03 66.9297 312.03 64.2697C312.03 61.6097 313.58 59.4497 315.49 59.4497C317.4 59.4497 318.95 61.6097 318.95 64.2697Z" stroke="#A100FF"/>
<path vector-effect="non-scaling-stroke" d="M323.28 59.4399V69.0799" stroke="#A100FF"/>
<path vector-effect="non-scaling-stroke" d="M334.54 64.2697C334.54 66.9297 332.99 69.0897 331.08 69.0897C329.17 69.0897 327.62 66.9297 327.62 64.2697C327.62 61.6097 329.17 59.4497 331.08 59.4497C332.99 59.4497 334.54 61.6097 334.54 64.2697Z" stroke="#A100FF"/>
<path vector-effect="non-scaling-stroke" d="M338.87 59.4399V69.0799" stroke="#A100FF"/>
<path vector-effect="non-scaling-stroke" d="M350.13 64.2697C350.13 66.9297 348.58 69.0897 346.67 69.0897C344.76 69.0897 343.21 66.9297 343.21 64.2697C343.21 61.6097 344.76 59.4497 346.67 59.4497C348.58 59.4497 350.13 61.6097 350.13 64.2697Z" stroke="#A100FF"/>
<path vector-effect="non-scaling-stroke" d="M312.88 73.9097V83.5497" stroke="#A100FF"/>
<path vector-effect="non-scaling-stroke" d="M324.141 78.7297C324.141 81.3897 322.591 83.5497 320.681 83.5497C318.771 83.5497 317.221 81.3897 317.221 78.7297C317.221 76.0697 318.771 73.9097 320.681 73.9097C322.591 73.9097 324.141 76.0697 324.141 78.7297Z" stroke="#A100FF"/>
<path vector-effect="non-scaling-stroke" d="M328.471 73.9097V83.5497" stroke="#A100FF"/>
<path vector-effect="non-scaling-stroke" d="M339.731 78.7297C339.731 81.3897 338.181 83.5497 336.271 83.5497C334.361 83.5497 332.811 81.3897 332.811 78.7297C332.811 76.0697 334.361 73.9097 336.271 73.9097C338.181 73.9097 339.731 76.0697 339.731 78.7297Z" stroke="#A100FF"/>
<path vector-effect="non-scaling-stroke" d="M344.061 73.9097V83.5497" stroke="#A100FF"/>
<path vector-effect="non-scaling-stroke" d="M349.261 73.9097V83.5497" stroke="#A100FF"/>
<path vector-effect="non-scaling-stroke" d="M318.95 91.59C318.95 94.25 317.4 96.41 315.49 96.41C313.58 96.41 312.03 94.25 312.03 91.59C312.03 88.93 313.58 86.77 315.49 86.77C317.4 86.77 318.95 88.93 318.95 91.59Z" stroke="#A100FF"/>
<path vector-effect="non-scaling-stroke" d="M323.28 86.77V96.41" stroke="#A100FF"/>
<path vector-effect="non-scaling-stroke" d="M338.87 86.77V96.41" stroke="#A100FF"/>
<path vector-effect="non-scaling-stroke" d="M350.13 91.59C350.13 94.25 348.58 96.41 346.67 96.41C344.76 96.41 343.21 94.25 343.21 91.59C343.21 88.93 344.76 86.77 346.67 86.77C348.58 86.77 350.13 88.93 350.13 91.59Z" stroke="#A100FF"/>
<path vector-effect="non-scaling-stroke" d="M333.67 86.77V96.41" stroke="#A100FF"/>
<path vector-effect="non-scaling-stroke" d="M328.471 86.77V96.41" stroke="#A100FF"/>
<path vector-effect="non-scaling-stroke" d="M401.3 163.55C401.3 183.58 395.57 202.27 385.67 218.07C367.49 247.07 335.25 266.35 298.5 266.35C241.73 266.35 195.7 220.33 195.7 163.55C195.7 127.16 214.61 95.19 243.13 76.92C249.12 73.08 255.54 69.85 262.29 67.31C273.55 63.07 285.75 60.75 298.49 60.75C309.45 60.75 320 62.46 329.9 65.64C351.95 72.71 370.76 87.02 383.52 105.77C384.9 107.8 386.21 109.88 387.45 112C396.25 127.15 401.29 144.76 401.29 163.55H401.3Z" fill="#050505" stroke="white" stroke-miterlimit="10"/>
<path vector-effect="non-scaling-stroke" d="M319.25 223.36C301.83 247.97 296.16 239.64 291.23 244.75C286.31 249.86 288.75 262.2 284.23 260.84C275.64 258.27 271.36 251.75 271.17 240.02C270.98 228.28 274.01 223.74 267.01 219.77C260.01 215.8 247.32 199.52 248.08 193.46C248.84 187.4 253.76 188.16 254.71 183.24C255.66 178.32 258.31 173.4 252.63 174.91C246.95 176.42 242.03 170.56 241.27 166.01C240.51 161.47 236.16 163.93 233.7 160.71C231.24 157.49 216.85 152.76 218.37 147.08C219.88 141.4 213.83 109.22 220.07 105.06C226.32 100.9 241.46 85.1798 243.16 79.1298C243.38 78.3598 243.35 77.6298 243.14 76.9298C249.13 73.0898 255.55 69.8598 262.3 67.3198C262.42 68.6898 262.43 69.8998 262.28 70.7998C261.52 75.3398 277.42 70.4198 281.78 74.3998C286.13 78.3798 288.22 81.9698 287.27 86.1398C286.32 90.2998 273.26 75.9198 261.72 88.9798C250.17 102.04 274.78 87.4698 282.54 90.4898C290.3 93.5198 295.22 100.52 293.14 103.93C291.06 107.34 279.32 103.17 279.51 107.72C279.7 112.26 268.53 119.83 264.93 121.16C261.33 122.48 252.82 133.09 256.41 142.55C256.41 142.55 252.25 147.09 249.22 133.27C249.22 133.27 232.44 127.24 230.1 141.98C227.76 156.72 237.29 145.77 241.27 147.66C245.25 149.55 238.05 155.99 240.51 157.31C242.97 158.63 247.51 157.31 247.51 160.91C247.51 164.51 254.32 172.08 259.81 170.37C265.3 168.67 275.33 170.18 279.5 172.45C283.66 174.72 299.19 193.27 308.84 194.03C318.49 194.79 336.67 198.76 319.25 223.37V223.36Z" fill="#232323" stroke="white" stroke-miterlimit="10"/>
<path vector-effect="non-scaling-stroke" d="M247.641 147.65C247.641 147.65 249.101 150.93 256.751 153.24C264.401 155.55 265.621 160.29 269.991 158.95C274.361 157.61 254.441 143.77 247.641 147.65Z" fill="#232323" stroke="white" stroke-miterlimit="10"/>
<path vector-effect="non-scaling-stroke" d="M303.46 91.5898C303.46 91.5898 293.74 86.9198 294 81.6198C294.25 76.3198 291.73 74.5498 289.2 73.9198C286.67 73.2898 295 64.5798 303.96 67.2298C312.92 69.8798 317.21 76.3198 311.41 82.1198C305.61 87.9198 304.79 92.2898 303.46 91.5798V91.5898Z" fill="#232323" stroke="white" stroke-miterlimit="10"/>
<path vector-effect="non-scaling-stroke" d="M383.53 105.77C383.53 105.77 383.5 105.8 383.48 105.81C378.2 109.58 377.25 106.38 371.97 102.23C366.69 98.0799 364.24 106 363.67 112.79C363.1 119.58 355.18 118.83 349.33 111.85C343.48 104.87 350.46 108.64 353.67 107.13C356.88 105.62 350.84 101.47 348.58 99.2099C346.32 96.9499 337.26 97.6999 334.62 91.6699C331.98 85.6399 340.28 88.8399 345.18 92.7999C350.08 96.7599 350.65 89.7799 348.95 87.8999C347.25 86.0099 345.55 86.9599 341.4 85.2599C337.25 83.5599 338.95 79.2199 333.29 76.7699C329.21 74.9999 329.44 68.9099 329.89 65.6499C351.94 72.7199 370.75 87.0299 383.51 105.78L383.53 105.77Z" fill="#232323" stroke="white" stroke-miterlimit="10"/>
<path vector-effect="non-scaling-stroke" d="M401.3 163.55C401.3 183.58 395.57 202.27 385.67 218.07C385.32 214.75 385.44 210.77 386.84 206.74C390.28 196.84 393.51 192.32 388.99 175.11C384.47 157.89 374.73 176.41 369.84 173.82C364.74 171.12 357.94 167.79 357.76 163.06C357.58 158.33 358.65 153.9 355.64 146.97C352.63 140.04 356.5 135.52 360.16 130.57C363.82 125.62 357.15 122.61 363.39 118.95C369.63 115.29 371.57 110.34 376.73 114.22C380.19 116.82 384.14 115.93 387.47 112.01C396.27 127.16 401.31 144.77 401.31 163.56L401.3 163.55Z" fill="#232323" stroke="white" stroke-miterlimit="10"/>
<path vector-effect="non-scaling-stroke" d="M389.99 114.89C407.08 112.61 417.53 114.1 419.99 119.79C423.11 127.02 411.44 139.83 390.03 154.7C368.63 169.56 337.5 186.48 301.71 201.93C262.06 219.05 225.02 230.77 198.8 235.36C177.7 239.06 163.61 238.13 160.82 231.68C157.33 223.59 172.61 208.41 199.05 191.29" stroke="#A100FF"/>
<path vector-effect="non-scaling-stroke" d="M38.5996 362.8L7.30957 254.95H169.46L199.61 362.8H38.5996Z" fill="#202020" stroke="white" stroke-miterlimit="10"/>
<path vector-effect="non-scaling-stroke" d="M44.0697 362.8L14.9297 264.31H166.8L194.08 362.8H44.0697Z" fill="#020202" stroke="white" stroke-miterlimit="10"/>
<path vector-effect="non-scaling-stroke" d="M110.709 236.49H120.269V216.63V225.16C120.269 225.16 124.639 226.05 126.069 221.88C127.499 217.71 130.029 206.49 123.749 202.08C117.469 197.67 109.619 204.78 109.619 204.78L110.709 236.49Z" fill="#020202" stroke="white" stroke-miterlimit="10"/>
<path vector-effect="non-scaling-stroke" d="M105.37 299.66H120.65C140.51 299.66 156.64 315.79 156.64 335.65V362.81H69.3896V335.65C69.3896 315.79 85.5196 299.66 105.38 299.66H105.37Z" fill="#404040" stroke="white" stroke-miterlimit="10"/>
<path vector-effect="non-scaling-stroke" d="M45.7291 272.56L33.4991 286.07C25.9891 294.37 31.8791 307.64 43.0691 307.64H74.8291V271.59L45.7291 272.56Z" fill="#020202" stroke="white" stroke-miterlimit="10"/>
<path vector-effect="non-scaling-stroke" d="M162.4 286.33L176.93 299.64C183.11 305.3 192.96 303.61 196.91 296.22L220.36 252.24C221.76 249.62 225.02 248.64 227.63 250.05L238.2 255.78C238.79 256.1 239.44 256.3 240.1 256.36L251.63 257.43C253.45 257.6 255.02 256.17 255.02 254.34C255.02 252.7 253.74 251.34 252.11 251.24L236.09 250.23L248.22 250.99L255.62 248.49C257.3 247.92 258.27 246.17 257.86 244.45C257.4 242.53 255.42 241.39 253.53 241.96L245.98 244.24L257.02 240.91L258.29 240.6C259.91 240.21 260.95 238.64 260.67 237C260.35 235.08 258.39 233.9 256.55 234.51L246.98 237.68L260.06 233.35C261.35 232.9 261.94 231.42 261.32 230.2C260.14 227.87 257.4 226.79 254.95 227.69L244.12 231.64L227.83 229.03C226.88 228.88 226.81 227.53 227.74 227.29L236.43 225C239.06 224.31 240.41 221.39 239.23 218.93C238.27 216.94 235.97 215.98 233.89 216.71L219.76 221.66C216.93 222.65 214.41 224.39 212.48 226.69L182.3 262.63L174.62 265.75L162.38 286.34L162.4 286.33Z" fill="#020202"/>
<path vector-effect="non-scaling-stroke" d="M245.98 244.24L253.53 241.96C255.42 241.39 257.4 242.53 257.86 244.45C258.27 246.17 257.3 247.92 255.62 248.49L248.22 250.99L236.09 250.23L252.11 251.24C253.74 251.34 255.02 252.7 255.02 254.34C255.02 256.17 253.45 257.6 251.63 257.43L240.1 256.36C239.44 256.3 238.79 256.1 238.2 255.78L227.63 250.05C225.02 248.64 221.76 249.62 220.36 252.24L196.91 296.22C192.96 303.61 183.11 305.3 176.93 299.64L162.4 286.33L162.38 286.34L174.62 265.75L182.3 262.63L212.48 226.69C214.41 224.39 216.93 222.65 219.76 221.66L233.89 216.71C235.97 215.98 238.27 216.94 239.23 218.93C240.41 221.39 239.06 224.31 236.43 225L227.74 227.29C226.81 227.53 226.88 228.88 227.83 229.03L244.12 231.64L254.95 227.69C257.4 226.79 260.14 227.87 261.32 230.2C261.94 231.42 261.35 232.9 260.06 233.35L246.98 237.68M245.98 244.24L234.99 243.53M245.98 244.24L257.02 240.91L258.29 240.6C259.91 240.21 260.95 238.64 260.67 237C260.35 235.08 258.39 233.9 256.55 234.51L246.98 237.68M246.98 237.68L233.85 237.06" stroke="white" stroke-miterlimit="10"/>
<path vector-effect="non-scaling-stroke" d="M44.0693 271.07C44.0693 271.07 61.2193 247.77 76.5993 238.06C91.9693 228.35 137.119 230.45 149.909 239.19C162.689 247.93 182.319 262.61 182.319 262.61L167.639 293.81L130.649 260.5L150.429 278.31L152.979 309.42H71.2593L75.9493 261.36L73.6593 284.82L67.0493 291.62L44.0693 271.07Z" fill="#020202" stroke="white" stroke-miterlimit="10"/>
<path vector-effect="non-scaling-stroke" d="M44.0693 362.8H273.039V365.55C273.039 372.7 267.239 378.5 260.089 378.5H57.0193C49.8693 378.5 44.0693 372.7 44.0693 365.55V362.8Z" fill="#202020" stroke="white" stroke-miterlimit="10"/>
<path vector-effect="non-scaling-stroke" d="M237.599 360.46H224.829V362.81H237.599V360.46Z" fill="#020202" stroke="white" stroke-miterlimit="10"/>
<path vector-effect="non-scaling-stroke" d="M223.089 360.46H210.319V362.81H223.089V360.46Z" fill="#020202" stroke="white" stroke-miterlimit="10"/>
<path vector-effect="non-scaling-stroke" d="M208.58 360.46H195.81V362.81H208.58V360.46Z" fill="#020202" stroke="white" stroke-miterlimit="10"/>
<path vector-effect="non-scaling-stroke" d="M194.08 360.46H181.31V362.81H194.08V360.46Z" fill="#020202" stroke="white" stroke-miterlimit="10"/>
<path vector-effect="non-scaling-stroke" d="M179.57 360.46H166.8V362.81H179.57V360.46Z" fill="#020202" stroke="white" stroke-miterlimit="10"/>
<path vector-effect="non-scaling-stroke" d="M165.07 360.46H152.3V362.81H165.07V360.46Z" fill="#020202" stroke="white" stroke-miterlimit="10"/>
<path vector-effect="non-scaling-stroke" d="M150.56 360.46H137.79V362.81H150.56V360.46Z" fill="#020202" stroke="white" stroke-miterlimit="10"/>
<path vector-effect="non-scaling-stroke" d="M136.06 360.46H123.29V362.81H136.06V360.46Z" fill="#020202" stroke="white" stroke-miterlimit="10"/>
<path vector-effect="non-scaling-stroke" d="M121.549 360.46H108.779V362.81H121.549V360.46Z" fill="#020202" stroke="white" stroke-miterlimit="10"/>
<path vector-effect="non-scaling-stroke" d="M107.04 360.46H94.2695V362.81H107.04V360.46Z" fill="#020202" stroke="white" stroke-miterlimit="10"/>
<path vector-effect="non-scaling-stroke" d="M92.5395 360.46H79.7695V362.81H92.5395V360.46Z" fill="#020202" stroke="white" stroke-miterlimit="10"/>
<path vector-effect="non-scaling-stroke" d="M78.0298 360.46H65.2598V362.81H78.0298V360.46Z" fill="#020202" stroke="white" stroke-miterlimit="10"/>
<path vector-effect="non-scaling-stroke" d="M114.59 322.59H138.04V336.37C138.04 341.71 133.71 346.04 128.37 346.04H124.26C118.92 346.04 114.59 341.71 114.59 336.37V322.59Z" fill="#404040" stroke="white" stroke-miterlimit="10"/>
<path vector-effect="non-scaling-stroke" d="M116.1 194.97C108.37 194.39 104.81 198.84 101.89 203.94C99.3799 208.34 95.2599 216.06 92.3199 224.15C87.8099 236.57 79.4199 254.95 79.4199 254.95H111.99L116.83 209.8C116.83 209.8 121.13 209.15 124.2 206.57C127.27 203.99 127.15 201.09 122.96 197.7C121.28 196.35 118.81 195.17 116.11 194.96L116.1 194.97Z" fill="#404040" stroke="white" stroke-miterlimit="10"/>
<path vector-effect="non-scaling-stroke" d="M159.63 116.96C163.13 116.96 165.98 119.8 165.98 123.31C165.98 126.82 163.14 129.66 159.63 129.66" fill="#A100FF"/>
<path vector-effect="non-scaling-stroke" d="M159.63 116.96C163.13 116.96 165.98 119.8 165.98 123.31C165.98 126.82 163.14 129.66 159.63 129.66" stroke="white" stroke-miterlimit="10"/>
<path vector-effect="non-scaling-stroke" d="M114.44 129.65C110.94 129.65 108.09 126.81 108.09 123.3C108.09 119.79 110.93 116.95 114.44 116.95" fill="#A100FF"/>
<path vector-effect="non-scaling-stroke" d="M114.44 129.65C110.94 129.65 108.09 126.81 108.09 123.3C108.09 119.79 110.93 116.95 114.44 116.95" stroke="white" stroke-miterlimit="10"/>
<path vector-effect="non-scaling-stroke" d="M153.559 105.29H120.509C117.157 105.29 114.439 108.008 114.439 111.36V133.52C114.439 136.872 117.157 139.59 120.509 139.59H153.559C156.912 139.59 159.629 136.872 159.629 133.52V111.36C159.629 108.008 156.912 105.29 153.559 105.29Z" fill="#A100FF" stroke="white" stroke-miterlimit="10"/>
<path vector-effect="non-scaling-stroke" d="M143.38 126.71C143.38 130.21 140.54 133.06 137.03 133.06C133.52 133.06 130.68 130.22 130.68 126.71H143.37H143.38Z" fill="#202020" stroke="white" stroke-miterlimit="10"/>
<path vector-effect="non-scaling-stroke" d="M137.05 99.47C138.635 99.47 139.92 98.185 139.92 96.6C139.92 95.0149 138.635 93.73 137.05 93.73C135.465 93.73 134.18 95.0149 134.18 96.6C134.18 98.185 135.465 99.47 137.05 99.47Z" fill="#A100FF" stroke="white" stroke-miterlimit="10"/>
<path vector-effect="non-scaling-stroke" d="M137.05 99.4702V105.25" stroke="white" stroke-miterlimit="10"/>
<path vector-effect="non-scaling-stroke" d="M128.76 121.57C129.992 121.57 130.99 120.571 130.99 119.34C130.99 118.108 129.992 117.11 128.76 117.11C127.529 117.11 126.53 118.108 126.53 119.34C126.53 120.571 127.529 121.57 128.76 121.57Z" fill="#202020" stroke="white" stroke-miterlimit="10"/>
<path vector-effect="non-scaling-stroke" d="M145.3 121.57C146.532 121.57 147.53 120.571 147.53 119.34C147.53 118.108 146.532 117.11 145.3 117.11C144.069 117.11 143.07 118.108 143.07 119.34C143.07 120.571 144.069 121.57 145.3 121.57Z" fill="#202020" stroke="white" stroke-miterlimit="10"/>
<path vector-effect="non-scaling-stroke" d="M175.54 92.1999H158.3L154.11 97.1199L152.57 92.1999H150.07C148.35 92.1999 146.96 90.8099 146.96 89.0899V81.7199C146.96 79.9999 148.35 78.6099 150.07 78.6099H175.53C177.25 78.6099 178.64 79.9999 178.64 81.7199V89.0899C178.64 90.8099 177.25 92.1999 175.53 92.1999H175.54Z" fill="#A100FF" stroke="white" stroke-miterlimit="10"/>
<path vector-effect="non-scaling-stroke" d="M155.38 86.9497C156.208 86.9497 156.88 86.2781 156.88 85.4497C156.88 84.6213 156.208 83.9497 155.38 83.9497C154.551 83.9497 153.88 84.6213 153.88 85.4497C153.88 86.2781 154.551 86.9497 155.38 86.9497Z" stroke="white" stroke-miterlimit="10"/>
<path vector-effect="non-scaling-stroke" d="M162.88 86.9497C163.708 86.9497 164.38 86.2781 164.38 85.4497C164.38 84.6213 163.708 83.9497 162.88 83.9497C162.051 83.9497 161.38 84.6213 161.38 85.4497C161.38 86.2781 162.051 86.9497 162.88 86.9497Z" stroke="white" stroke-miterlimit="10"/>
<path vector-effect="non-scaling-stroke" d="M170.38 86.9497C171.208 86.9497 171.88 86.2781 171.88 85.4497C171.88 84.6213 171.208 83.9497 170.38 83.9497C169.551 83.9497 168.88 84.6213 168.88 85.4497C168.88 86.2781 169.551 86.9497 170.38 86.9497Z" stroke="white" stroke-miterlimit="10"/>
<path vector-effect="non-scaling-stroke" d="M301.04 288.43V273.7H291.22L310.85 244.25L330.48 273.7H320.66V290.88H310.84L330.47 320.33L350.1 290.88H340.28V276.15" fill="#020202"/>
<path vector-effect="non-scaling-stroke" d="M301.04 288.43V273.7H291.22L310.85 244.25L330.48 273.7H320.66V290.88H310.84L330.47 320.33L350.1 290.88H340.28V276.15" stroke="white" stroke-miterlimit="10"/>
<path vector-effect="non-scaling-stroke" d="M439.129 156.009C439.549 156.319 440.619 156.809 441.099 156.949C443.729 157.729 444.739 158.229 446.809 158.239C446.659 158.819 445.349 159.619 444.739 160.249C444.319 160.689 444.199 161.309 444.699 161.649C445.169 161.979 445.689 161.739 446.099 161.339C447.089 160.369 450.299 158.839 452.269 156.919C452.619 156.579 453.369 155.879 453.619 155.509C453.499 155.639 451.259 154.359 450.269 153.549C449.979 153.309 449.759 153.149 449.669 153.109C449.249 153.719 448.069 154.279 447.259 154.549C445.169 155.249 443.129 154.629 441.119 153.419C441.009 153.359 440.879 153.409 440.839 153.529C440.769 153.809 440.859 154.179 441.089 154.329C440.419 154.189 439.399 153.219 439.089 153.919C438.959 154.209 439.129 154.409 439.649 154.709C439.239 154.659 438.849 154.169 438.429 154.569C438.219 155.099 438.719 155.709 439.139 156.019L439.129 156.009Z" fill="#202020" stroke="white" stroke-miterlimit="10"/>
<path vector-effect="non-scaling-stroke" d="M549.619 133.909L552.849 139.009C552.849 139.009 552.929 138.929 553.059 138.809C553.169 138.709 553.309 138.579 553.479 138.419C553.669 138.249 553.889 138.049 554.119 137.839C554.849 137.179 555.729 136.419 556.289 136.049C557.449 135.269 557.629 135.489 558.689 134.869C558.769 134.829 558.839 134.779 558.919 134.739L559.039 134.669C560.089 134.029 560.959 133.299 561.129 133.179C561.389 132.989 563.689 132.819 563.819 132.259C563.929 131.779 563.359 131.579 563.189 131.519C563.159 131.509 563.139 131.509 563.139 131.509C563.139 131.509 563.139 131.489 563.139 131.479C563.339 130.469 562.799 130.049 562.659 129.959L562.629 129.939C562.629 129.919 562.629 129.889 562.639 129.869C562.849 128.689 561.779 128.089 561.659 128.019H561.649C561.649 128.019 561.649 128.009 561.649 127.979C561.649 127.979 561.649 127.969 561.649 127.959C562.339 127.839 563.039 127.719 563.729 127.599C563.849 127.579 563.919 127.439 563.859 127.319C563.559 126.759 562.829 126.539 562.199 126.459C561.259 126.359 560.239 126.389 559.249 126.589C559.199 126.589 559.139 126.589 559.089 126.589C558.289 126.599 557.409 127.049 556.579 127.649H556.589C556.529 127.689 556.469 127.729 556.409 127.779C555.639 128.329 554.949 129.029 554.299 129.729C554.109 129.929 553.709 130.269 553.519 130.569C553.439 130.629 553.349 130.689 553.259 130.739C553.249 130.739 553.239 130.759 553.229 130.759L550.089 133.499L549.839 133.719L549.689 133.849L549.619 133.909Z" fill="#202020" stroke="white" stroke-miterlimit="10"/>
<path vector-effect="non-scaling-stroke" d="M558.819 128.36C558.819 128.36 558.779 128.34 558.779 128.32C558.779 128.3 558.799 128.28 558.819 128.27C559.139 128.25 559.489 128.18 559.849 128.1C560.459 127.97 561.089 127.84 561.639 127.96C561.659 127.96 561.679 127.99 561.669 128.01C561.669 128.03 561.639 128.05 561.619 128.04C561.089 127.93 560.469 128.06 559.869 128.18C559.499 128.26 559.149 128.33 558.819 128.35V128.36Z" fill="#202020" stroke="white" stroke-miterlimit="10"/>
<path vector-effect="non-scaling-stroke" d="M559.77 130.06C559.77 130.06 559.729 130.05 559.729 130.03C559.729 130.01 559.73 129.98 559.76 129.98C560.68 129.78 561.72 129.56 562.68 129.87C562.7 129.87 562.71 129.9 562.71 129.92C562.71 129.94 562.679 129.95 562.659 129.95C561.729 129.65 560.699 129.87 559.789 130.06H559.77Z" fill="#202020" stroke="white" stroke-miterlimit="10"/>
<path vector-effect="non-scaling-stroke" d="M559.839 131.77C559.839 131.77 559.799 131.75 559.799 131.73C559.799 131.71 559.819 131.69 559.839 131.69C560.229 131.68 560.639 131.62 561.039 131.56C561.739 131.46 562.469 131.35 563.149 131.48C563.169 131.48 563.189 131.51 563.179 131.53C563.179 131.55 563.149 131.57 563.129 131.56C562.469 131.43 561.749 131.54 561.049 131.64C560.649 131.7 560.229 131.76 559.839 131.77Z" fill="#202020" stroke="white" stroke-miterlimit="10"/>
<path vector-effect="non-scaling-stroke" d="M446.4 188.23L435.82 180.89L420.35 205.7C421.61 207.32 425.18 205.43 425.94 204.52C428.75 201.16 438.57 198.18 441.46 200.45L446.4 188.23Z" fill="black" stroke="white" stroke-miterlimit="10"/>
<path vector-effect="non-scaling-stroke" d="M438.42 191.659C439.458 191.659 440.3 190.818 440.3 189.779C440.3 188.741 439.458 187.899 438.42 187.899C437.382 187.899 436.54 188.741 436.54 189.779C436.54 190.818 437.382 191.659 438.42 191.659Z" fill="black" stroke="white" stroke-miterlimit="10"/>
<path vector-effect="non-scaling-stroke" d="M494.61 234.66L489.02 245.24L511.65 263.76C513.42 262.72 512 258.93 511.19 258.06C508.21 254.84 505.56 243.8 508.18 241.23L494.6 234.66H494.61Z" fill="black" stroke="white" stroke-miterlimit="10"/>
<path vector-effect="non-scaling-stroke" d="M497.419 245.829C498.457 245.829 499.299 244.988 499.299 243.949C499.299 242.911 498.457 242.069 497.419 242.069C496.381 242.069 495.539 242.911 495.539 243.949C495.539 244.988 496.381 245.829 497.419 245.829Z" fill="black" stroke="white" stroke-miterlimit="10"/>
<path vector-effect="non-scaling-stroke" d="M496.399 174.259L516.829 192.599C516.829 192.599 521.299 196.159 519.359 202.549L511.219 244.049L492.219 235.539L498.779 203.889C498.779 203.889 500.089 199.739 496.619 195.369L489.019 189.139L489.509 224.149C489.549 224.749 487.659 234.009 478.929 231.889C477.999 231.659 477.109 231.259 476.309 230.739L437.609 205.619L444.599 186.779L461.259 199.219V201.899L470.299 204.529L468.699 177.799C468.359 172.749 472.209 168.489 472.869 167.309C473.529 166.129 496.399 174.259 496.399 174.259Z" fill="black" stroke="white" stroke-miterlimit="10"/>
<path vector-effect="non-scaling-stroke" d="M504.39 135.439L505.04 130.199C505.04 130.199 509.84 133.939 512.23 132.109C513.91 130.819 513.48 128.489 513.16 125.659L513.39 125.739C513.98 125.959 514.55 125.359 514.3 124.779C513.9 123.839 513.37 122.879 512.97 122.199C512.97 122.069 512.97 121.929 512.99 121.799C513.25 117.289 509.11 114.959 506.93 114.249C504.75 113.549 501.68 112.399 499.06 114.619C496.39 116.879 499.03 121.449 497.96 127.869C497.74 129.189 497.09 131.089 495.25 133.549L504.38 135.429L504.39 135.439Z" fill="#202020" stroke="white" stroke-miterlimit="10"/>
<path vector-effect="non-scaling-stroke" d="M513.349 127.159C511.169 127.289 510.609 125.479 510.609 125.459" stroke="white" stroke-miterlimit="10"/>
<path vector-effect="non-scaling-stroke" d="M510.799 150.75C510.799 150.75 524.489 158.37 533.759 153.84C541.689 150.33 549.049 146.28 555.749 141.58L550.979 132.48C550.979 132.48 531.259 143.79 523.769 140.64L508.759 134.25C508.759 134.25 498.039 128.38 480.279 132.12C480.279 132.12 459.359 139.22 448.029 152.43L456.729 158.78L481.389 142.87C481.389 142.87 479.219 150.26 476.249 154.17L468.879 166.13L500.089 175.69L510.799 150.75Z" fill="#202020" stroke="white" stroke-miterlimit="10"/>
<path vector-effect="non-scaling-stroke" d="M479.35 134.86C479.98 132.64 482.03 130.51 484.21 129.53C484.84 129.25 485.55 128.99 485.88 128.39C486.18 127.83 486.05 127.21 485.88 126.58C485.54 125.37 485.77 124.04 486.59 123.08C488.25 121.14 490.65 122.47 492.34 121.29C493.83 120.25 493.84 118.24 494.35 116.66C494.79 115.28 495.69 114.13 496.83 113.27C498.29 112.17 500.16 111.55 502 111.54C502.13 111.54 502.25 111.54 502.38 111.54C504.3 111.61 510.42 112.8 513.04 114.62C513.78 115.14 514.09 116.09 513.8 116.95C513.61 117.53 513.11 117.95 512.51 118.04C512.06 118.11 511.67 118.15 511.54 118.35C510.77 119.53 509.07 120.58 508.25 121.3C507.67 121.81 507.16 122.31 506.74 122.84C505.98 123.81 505.53 124.9 505.53 126.4C505.53 127.97 505.99 129.49 506.51 130.97C506.6 131.22 506.69 131.47 506.78 131.72C507.4 133.45 508.1 135.18 508.64 136.93C509.04 138.23 507.94 139.89 507.08 140.82C506.36 141.59 505.4 142.14 504.38 142.42C502.8 142.85 501.07 142.64 499.83 141.6C499.8 141.57 499.76 141.54 499.73 141.51C500.47 142.16 498.53 144.81 498.04 145.23C496.99 146.11 495.59 146.43 494.25 146.49C491.41 146.63 487.43 145.6 485.64 143.23C485.11 142.52 484.89 141.5 485.34 140.75C485.36 140.71 485.34 140.66 485.29 140.67C483.98 140.9 482.58 140.63 481.46 139.92C479.32 138.56 478.87 136.68 479.38 134.85L479.35 134.86Z" fill="#666666" stroke="white" stroke-miterlimit="10"/>
<path vector-effect="non-scaling-stroke" d="M506.66 123.02C506.66 123.02 505.23 121.86 504.42 122.92C503.39 124.27 505.52 125.89 506.2 125.95" fill="#202020"/>
<path vector-effect="non-scaling-stroke" d="M506.66 123.02C506.66 123.02 505.23 121.86 504.42 122.92C503.39 124.27 505.52 125.89 506.2 125.95" stroke="white" stroke-miterlimit="10"/>
<path vector-effect="non-scaling-stroke" d="M491.04 190.85L483.64 184.66" stroke="white"/>
<path vector-effect="non-scaling-stroke" d="M510.8 150.75L506.09 147.93" stroke="white"/>
<path vector-effect="non-scaling-stroke" d="M505.819 123.62H515.399V120.47H505.819V123.62Z" fill="#921CF4" stroke="white" stroke-linecap="round" stroke-linejoin="round"/>
<path vector-effect="non-scaling-stroke" d="M546.22 152.229C545.05 151.919 543.87 151.629 542.66 151.339" stroke="white" stroke-linejoin="round"/>
<path vector-effect="non-scaling-stroke" d="M559.29 156.63C556.88 155.61 554.3 154.66 551.57 153.79" stroke="white" stroke-linejoin="round"/>
<path vector-effect="non-scaling-stroke" d="M575.919 167.63C573.379 164.67 569.749 161.93 565.229 159.47" stroke="white" stroke-linejoin="round"/>
<path vector-effect="non-scaling-stroke" d="M541.46 109.479C535.74 108.199 529.56 107.219 523.04 106.589V138.949" stroke="white" stroke-linejoin="round"/>
<path vector-effect="non-scaling-stroke" d="M580.08 136.07V177.66C580.08 194.4 546.83 207.96 505.82 207.96C489.1 207.96 473.67 205.7 461.26 201.9V160.31C473.67 164.11 489.1 166.37 505.82 166.37C527.11 166.37 546.3 162.72 559.84 156.86C572.39 151.44 580.09 144.12 580.09 136.07C580.09 128.68 573.35 115.49 541.47 109.49" stroke="white" stroke-linejoin="round"/>
<path vector-effect="non-scaling-stroke" d="M443.44 186.18V161.21V152.52C435.92 147.78 431.56 142.13 431.56 136.07C431.56 119.33 464.81 105.77 505.82 105.77V110.89" stroke="white" stroke-linejoin="round"/>
<path vector-effect="non-scaling-stroke" d="M431.55 136.069V177.659C431.55 180.529 432.24 182.599 433.9 183.969" stroke="white" stroke-linejoin="round"/>
<path vector-effect="non-scaling-stroke" d="M317.56 343.44C319.87 336.46 326.43 331.43 334.18 331.43C335.27 331.43 336.34 331.54 337.38 331.73C339.03 329.75 341.23 328.24 343.75 327.43C345.28 318.87 352.74 312.38 361.73 312.38C370.5 312.38 377.83 318.57 379.59 326.82C379.96 326.79 380.34 326.77 380.72 326.77C385.41 326.77 389.55 329.12 392.04 332.71C394.27 330.75 397.18 329.56 400.38 329.56C407.36 329.56 413.02 335.23 413.02 342.21C413.02 342.62 413 343.03 412.96 343.44H317.58H317.56Z" fill="#404040" stroke="white" stroke-miterlimit="10"/>
<path vector-effect="non-scaling-stroke" d="M348.329 350.08C345.529 341.61 337.559 335.5 328.16 335.5C326.83 335.5 325.539 335.63 324.279 335.86C322.269 333.45 319.599 331.62 316.549 330.64C314.699 320.26 305.64 312.37 294.73 312.37C283.82 312.37 275.189 319.88 273.049 329.9C272.599 329.86 272.139 329.84 271.679 329.84C265.989 329.84 260.959 332.69 257.939 337.04C255.239 334.66 251.7 333.22 247.82 333.22C239.35 333.22 232.479 340.1 232.479 348.58C232.479 349.08 232.509 349.58 232.549 350.07H348.309L348.329 350.08Z" fill="#020202" stroke="white" stroke-miterlimit="10"/>
<path vector-effect="non-scaling-stroke" d="M63.8693 173.57C77.0293 173.57 87.7093 162.9 87.7093 149.73C87.7093 136.56 77.0393 125.89 63.8693 125.89C50.6993 125.89 40.0293 136.56 40.0293 149.73C40.0293 162.9 50.6993 173.57 63.8693 173.57Z" fill="#A100FF" stroke="white" stroke-miterlimit="10"/>
<path vector-effect="non-scaling-stroke" d="M64.5895 157.829H56.2095C55.9995 157.829 55.7895 157.619 55.7895 157.409V152.789C53.5495 151.389 52.4395 149.149 52.4395 146.139C52.4395 141.379 56.1395 137.669 60.8195 137.669C64.7295 137.669 68.8495 140.329 68.8495 144.739C68.8495 144.879 69.1995 145.509 69.4095 145.929C70.0395 146.979 70.6695 148.169 70.5995 149.079V149.219C70.5995 149.359 70.5995 149.639 70.4595 149.849C70.3195 150.129 69.9695 150.269 69.6895 150.269H68.7795C68.7795 151.249 68.7095 153.419 68.0095 154.119C67.3795 154.749 66.4795 154.889 65.0095 154.889V157.409C65.0095 157.619 64.7995 157.829 64.5895 157.829Z" stroke="white" stroke-miterlimit="10"/>
<path vector-effect="non-scaling-stroke" d="M70.6695 161.91H62.2895C62.0795 161.91 61.8695 161.7 61.8695 161.49V156.87C59.6295 155.47 58.5195 153.23 58.5195 150.22C58.5195 145.46 62.2195 141.75 66.8995 141.75C70.8095 141.75 74.9295 144.41 74.9295 148.82C74.9295 148.96 75.2795 149.59 75.4895 150.01C76.1195 151.06 76.7495 152.25 76.6795 153.16V153.3C76.6795 153.44 76.6795 153.72 76.5395 153.93C76.3995 154.21 76.0495 154.35 75.7695 154.35H74.8595C74.8595 155.33 74.7895 157.5 74.0895 158.2C73.4595 158.83 72.5495 158.97 71.0895 158.97V161.49C71.0895 161.7 70.8795 161.91 70.6695 161.91Z" stroke="white" stroke-miterlimit="10"/>
<path vector-effect="non-scaling-stroke" d="M58.5098 150.22C58.5098 153.23 59.6298 155.47 61.8598 156.87V157.83H64.5798C64.7898 157.83 64.9998 157.62 64.9998 157.41V154.89C66.4598 154.89 67.3798 154.75 67.9998 154.12C68.6998 153.42 68.7698 151.25 68.7698 150.27H69.6798C69.9598 150.27 70.3098 150.13 70.4498 149.85C70.5898 149.64 70.5898 149.36 70.5898 149.22V149.08C70.6598 148.17 70.0298 146.98 69.3998 145.93C69.1898 145.51 68.8398 144.88 68.8398 144.74C68.8398 143.67 68.5898 142.7 68.1698 141.84C67.7498 141.78 67.3198 141.75 66.8898 141.75C62.2098 141.75 58.5098 145.46 58.5098 150.22Z" stroke="white" stroke-miterlimit="10"/>
<path vector-effect="non-scaling-stroke" d="M63.3801 152.76H63.5101C63.6001 152.76 63.6901 152.72 63.7301 152.64L66.7401 148.22C66.7801 148.14 66.7801 148.05 66.7401 147.96C66.7001 147.88 66.6101 147.83 66.5201 147.83H65.5201L66.2601 146.13C66.3001 146.05 66.3001 145.96 66.2601 145.87C66.2201 145.83 66.1301 145.79 66.0401 145.79H64.1601C64.0701 145.79 63.9801 145.83 63.9401 145.91L62.4101 149.48C62.3701 149.56 62.4101 149.65 62.4501 149.74C62.4901 149.82 62.5801 149.86 62.6701 149.86H63.7601L63.2301 152.45C63.1901 152.57 63.2701 152.71 63.3601 152.75L63.3801 152.76Z" stroke="white" stroke-miterlimit="10"/>
<path vector-effect="non-scaling-stroke" d="M40.4998 148.8C41.7398 148.8 42.7398 147.8 42.7398 146.56C42.7398 145.32 41.7398 144.32 40.4998 144.32C39.2598 144.32 38.2598 145.32 38.2598 146.56C38.2598 147.8 39.2598 148.8 40.4998 148.8Z" fill="#020202" stroke="white" stroke-miterlimit="10"/>
<path vector-effect="non-scaling-stroke" d="M28.3198 233.56C41.1498 233.56 51.5498 223.16 51.5498 210.32C51.5498 197.48 41.1498 187.08 28.3198 187.08C15.4898 187.08 5.08984 197.48 5.08984 210.32C5.08984 223.16 15.4898 233.56 28.3198 233.56Z" fill="#A100FF" stroke="white" stroke-miterlimit="10"/>
<path vector-effect="non-scaling-stroke" d="M28.3298 209.27C27.4598 209.27 26.7598 209.97 26.7598 210.84V225.85C26.7598 226.72 27.4598 227.42 28.3298 227.42C29.1998 227.42 29.8998 226.72 29.8998 225.85V210.84C29.8998 209.97 29.1998 209.27 28.3298 209.27Z" fill="#A100FF" stroke="white" stroke-miterlimit="10"/>
<path vector-effect="non-scaling-stroke" d="M27.0097 205.78C27.0097 204.62 25.6797 203.3 25.6797 203.3C25.6797 203.3 27.5297 192.63 27.6397 192.23C27.7497 191.84 28.3297 191.89 28.3297 191.89C28.3297 191.89 28.9097 191.84 29.0097 192.23C29.1197 192.62 30.9697 203.3 30.9697 203.3C30.9697 203.3 29.6497 204.62 29.6497 205.78H27.0097Z" fill="#A100FF" stroke="white" stroke-miterlimit="10"/>
<path vector-effect="non-scaling-stroke" d="M27.0802 208.91C26.0502 209.45 25.5002 211.24 25.5002 211.24C25.5002 211.24 15.1902 214.57 14.7902 214.66C14.3902 214.75 14.1602 214.21 14.1602 214.21C14.1602 214.21 13.8502 213.72 14.1602 213.45C14.4602 213.17 23.0402 206.56 23.0402 206.56C23.0402 206.56 24.8202 207.11 25.8502 206.57L27.0802 208.9V208.91Z" fill="#A100FF" stroke="white" stroke-miterlimit="10"/>
<path vector-effect="non-scaling-stroke" d="M29.5002 208.91C30.5302 209.45 31.0802 211.24 31.0802 211.24C31.0802 211.24 41.3902 214.57 41.7802 214.66C42.1802 214.75 42.4102 214.21 42.4102 214.21C42.4102 214.21 42.7202 213.72 42.4102 213.45C42.1102 213.17 33.5302 206.56 33.5302 206.56C33.5302 206.56 31.7502 207.11 30.7202 206.57L29.4902 208.9L29.5002 208.91Z" fill="#A100FF" stroke="white" stroke-miterlimit="10"/>
<path vector-effect="non-scaling-stroke" d="M28.3301 210.04C29.5701 210.04 30.5701 209.03 30.5701 207.79C30.5701 206.55 29.5601 205.54 28.3301 205.54C27.1001 205.54 26.0801 206.55 26.0801 207.79C26.0801 209.03 27.0901 210.04 28.3301 210.04Z" fill="#A100FF" stroke="white" stroke-miterlimit="10"/>
<path vector-effect="non-scaling-stroke" d="M421.91 275.91L426.49 242.2L439.5 243.01L431.03 276.07L421.91 275.91Z" fill="#232323" stroke="white" stroke-miterlimit="10"/>
<path vector-effect="non-scaling-stroke" d="M426.84 280.46C429.43 280.32 431.41 278.07 431.27 275.42C431.13 272.78 428.91 270.75 426.32 270.89C423.73 271.03 421.75 273.28 421.89 275.92C422.03 278.56 424.25 280.59 426.84 280.45V280.46Z" fill="#050505" stroke="white" stroke-miterlimit="10"/>
<path vector-effect="non-scaling-stroke" d="M426.55 277.11C427.32 277.07 427.9 276.39 427.86 275.59C427.82 274.79 427.16 274.18 426.4 274.22C425.64 274.26 425.05 274.94 425.09 275.74C425.13 276.54 425.79 277.15 426.55 277.11Z" fill="#232323" stroke="white" stroke-miterlimit="10"/>
<path vector-effect="non-scaling-stroke" d="M439.599 283.41L418.109 288.6L420.709 299.36L442.199 294.17L439.599 283.41Z" fill="#A100FF" stroke="white" stroke-linejoin="round"/>
<path vector-effect="non-scaling-stroke" d="M480.73 194.1L544.58 222.31L531.28 251.52L474.46 216.29L480.73 194.1Z" fill="#232323" stroke="white" stroke-miterlimit="10"/>
<path vector-effect="non-scaling-stroke" d="M427.54 236.92L470.34 197.18L486.72 212.42L439.46 247.06L427.54 236.92Z" fill="#232323" stroke="white" stroke-miterlimit="10"/>
<path vector-effect="non-scaling-stroke" d="M498.87 378.5L521.2 236.33H552.26L553.85 374.01C553.88 376.48 551.88 378.5 549.41 378.5H498.88H498.87Z" fill="#232323" stroke="white" stroke-miterlimit="10"/>
<path vector-effect="non-scaling-stroke" d="M536.719 252.559C545.299 252.559 552.249 245.289 552.249 236.329C552.249 227.359 545.299 220.089 536.719 220.089C528.149 220.089 521.189 227.359 521.189 236.329C521.189 245.299 528.139 252.559 536.719 252.559Z" fill="#050505" stroke="white" stroke-miterlimit="10"/>
<path vector-effect="non-scaling-stroke" d="M536.73 241.249C539.34 241.249 541.45 239.039 541.45 236.309C541.45 233.589 539.34 231.379 536.73 231.379C534.12 231.379 532 233.589 532 236.309C532 239.039 534.11 241.249 536.73 241.249Z" fill="#232323" stroke="white" stroke-miterlimit="10"/>
<path vector-effect="non-scaling-stroke" d="M478.169 216.96C484.349 216.96 489.359 211.72 489.359 205.26C489.359 198.79 484.349 193.56 478.169 193.56C471.989 193.56 466.979 198.79 466.979 205.26C466.979 211.72 471.989 216.96 478.169 216.96Z" fill="#050505" stroke="white" stroke-miterlimit="10"/>
<path vector-effect="non-scaling-stroke" d="M478.17 208.809C480.05 208.809 481.57 207.209 481.57 205.249C481.57 203.279 480.05 201.689 478.17 201.689C476.29 201.689 474.76 203.289 474.76 205.249C474.76 207.219 476.28 208.809 478.17 208.809Z" fill="#232323" stroke="white" stroke-miterlimit="10"/>
<path vector-effect="non-scaling-stroke" d="M428.79 248.019C432.4 250.669 437.57 249.769 440.35 245.989C443.12 242.219 442.44 237.009 438.83 234.359C435.22 231.709 430.05 232.619 427.28 236.389C424.5 240.169 425.18 245.379 428.79 248.029V248.019Z" fill="#050505" stroke="white" stroke-miterlimit="10"/>
<path vector-effect="non-scaling-stroke" d="M432.39 242.959C433.45 243.739 434.97 243.479 435.79 242.369C436.6 241.259 436.4 239.729 435.34 238.949C434.28 238.169 432.76 238.439 431.94 239.539C431.12 240.649 431.33 242.179 432.39 242.959Z" fill="#232323" stroke="white" stroke-miterlimit="10"/>
<path vector-effect="non-scaling-stroke" d="M442.76 276.49L412.43 284.03Z" fill="white"/>
<path vector-effect="non-scaling-stroke" d="M442.76 276.49L412.43 284.03" stroke="white" stroke-miterlimit="10"/>
<path vector-effect="non-scaling-stroke" d="M412.44 284.02C409.22 284.81 407.25 288.05 408.03 291.27C408.82 294.49 412.06 296.46 415.28 295.68" stroke="white" stroke-linejoin="round"/>
<path vector-effect="non-scaling-stroke" d="M445.59 288.15C448.81 287.36 450.78 284.12 450 280.9C449.22 277.68 445.97 275.71 442.75 276.49" stroke="white" stroke-linejoin="round"/>
<path vector-effect="non-scaling-stroke" d="M403.04 170.87C403.04 170.87 416.85 171.64 420.36 183.97C423.87 196.3 412.81 203.89 345.2 209.27C277.59 214.65 136.06 160.02 208.59 83.5498C257.36 32.1298 424.71 -25.1002 495.26 40.3498" stroke="#A100FF"/>
<path vector-effect="non-scaling-stroke" d="M541.579 129.86L529.199 127.9V115.52" stroke="white" stroke-miterlimit="10"/>
<path vector-effect="non-scaling-stroke" d="M541.579 118.77C540.009 118.52 538.599 119.25 537.979 120.62L536.909 122.99C536.519 123.86 535.229 123.68 534.799 122.7L534.509 122.02C533.939 120.71 532.729 119.74 531.409 119.53L530.749 119.42" stroke="white" stroke-miterlimit="10"/>
<path vector-effect="non-scaling-stroke" d="M530.739 121.44L531.269 121.52C532.989 121.79 534.539 121.01 535.219 119.54L536.249 117.3C536.619 116.49 537.839 116.66 538.239 117.58L538.649 118.51C539.189 119.73 540.319 120.63 541.579 120.83" stroke="white" stroke-miterlimit="10"/>
<path vector-effect="non-scaling-stroke" d="M541.579 123.16C540.149 122.93 538.819 123.44 538.059 124.51L536.979 126.03C536.479 126.73 535.339 126.6 534.779 125.77C534.229 124.96 533.109 124.82 532.599 125.48L532.359 125.8C531.979 126.29 531.399 126.58 530.749 126.6" stroke="white" stroke-miterlimit="10"/>
<path vector-effect="non-scaling-stroke" d="M542.209 133.8L528.559 131.64C526.679 131.34 525.149 129.56 525.149 127.69V114.04C525.149 112.16 526.679 110.87 528.559 111.17L542.209 113.33C544.089 113.63 545.619 115.41 545.619 117.28V130.93C545.619 132.81 544.089 134.1 542.209 133.8Z" stroke="white" stroke-miterlimit="10"/>
</g>
<defs>
<clipPath id="clip0_408_3832">
<rect width="595" height="396.67" fill="white" transform="translate(0 0.5)"/>
</clipPath>
</defs>
</svg>
