<svg width="802" height="535" viewBox="0 0 802 535" fill="none" xmlns="http://www.w3.org/2000/svg">
<g clip-path="url(#clip0_20_13717)">
<path vector-effect="non-scaling-stroke" d="M768.778 248.01C768.778 122.108 666.726 20.0557 540.824 20.0557C432.919 20.0557 342.531 95.0398 318.901 195.742C289.022 165.358 247.45 146.516 201.458 146.516C110.484 146.516 36.728 220.273 36.728 311.247C36.728 402.221 110.484 475.977 201.458 475.977H541.752C667.217 475.459 768.765 373.611 768.765 248.023L768.778 248.01Z" fill="#020202" stroke="white" stroke-width="1.36434"/>
<path vector-effect="non-scaling-stroke" d="M801.317 282.145C801.317 403.667 702.812 502.172 581.29 502.172C459.769 502.172 361.263 403.667 361.263 282.145C361.263 213.383 392.807 151.974 442.223 111.63C471.27 87.9042 506.497 71.4639 545.108 65.0788C553.076 63.7554 561.18 62.8686 569.407 62.432C573.268 62.2273 577.156 62.1182 581.072 62.1182H581.277C623.653 62.1182 663.219 74.0971 696.795 94.8487C753.525 129.912 793.131 190.025 800.171 259.743C800.922 267.11 801.304 274.587 801.304 282.145H801.317Z" fill="#020202" stroke="white" stroke-width="1.36434" stroke-linecap="round" stroke-linejoin="round"/>
<path vector-effect="non-scaling-stroke" d="M602.588 78.8863C598.891 67.344 592.969 63.2373 581.55 62.214C580.95 62.1595 580.336 62.1185 579.694 62.0776C576.379 61.8866 573.118 62.1185 569.885 62.5278C562.954 63.4147 556.105 65.1064 548.983 65.1747C547.796 65.1747 546.664 65.1747 545.586 65.1747C506.975 71.5598 471.748 88.0001 442.701 111.726C440.341 114.714 438.103 117.961 435.879 121.522C432.591 126.788 430.463 131.714 426.083 136.229C421.99 140.459 417.461 144.443 414.186 149.409C405.305 162.889 399.479 177.801 393.244 192.386C389.233 201.772 389.246 215.825 390.542 225.867C391.129 230.396 394.281 233.016 396.027 237.136C398.483 242.948 395.44 246.427 396.436 252.13C397.228 256.673 401.171 259.293 403.763 262.799C405.332 264.928 406.41 268.325 408.497 270.235C411.389 272.895 416.997 274.205 420.776 275.856C423.737 277.152 428.812 277.875 430.968 280.085C433.41 282.596 432.291 284.765 432.673 288.162C433.492 295.503 437.858 300.592 445.143 298.409C448.882 297.29 446.467 296.758 450.969 298.49C452.47 299.077 451.706 299.855 452.906 300.974C452.906 300.974 453.875 301.396 453.875 301.41C453.343 303.225 455.157 303.661 455.799 305.967C457.422 311.765 458.759 313.566 455.499 319.61C454.366 321.711 452.142 323.894 451.337 326.146C450.055 329.707 450.805 328.861 451.515 332.203C452.647 337.524 451.296 343.145 454.584 347.47C458.882 353.146 461.911 354.606 464.531 361.714C467.164 368.863 468.842 372.015 476.264 375.057C485.541 378.864 487.192 386.04 488.993 395.631C489.894 400.461 489.948 405.455 491.217 410.162C492.718 415.728 496.183 420.381 497.766 425.92C499.348 431.459 499.417 437.039 501.736 442.36C503.837 447.19 507.125 449.264 510.481 452.988C514.697 457.668 516.457 464.026 520.141 469.06C523.606 473.808 528.095 476.305 532.802 479.538C533.28 475.036 528.068 467.996 526.39 463.671C524.548 458.937 521.192 454.694 521.041 449.632C520.728 439.631 534.153 441.937 528.204 430.463C531.356 428.621 535.053 428.457 537.768 425.797C540.224 423.382 539.201 421.977 540.606 419.944C540.702 419.808 543.608 416.247 543.58 416.288C547.469 408.661 543.048 400.98 554.031 397.269C558.574 395.741 566.283 396.395 569.025 391.238C569.762 389.86 570.458 383.161 570.717 381.77C571.454 377.868 570.062 373.529 571.045 369.9C572.641 364.047 579.162 360.909 582.369 356.611C589.081 347.634 577.675 340.335 569.489 337.497C565.069 335.969 560.716 335.369 556.46 333.254C551.985 331.03 548.724 327.032 543.526 327.333C539.01 327.592 537.973 331.316 533.621 328.028C528.709 324.331 533.634 321.957 532.352 317.045C530.005 308.109 517.522 309.91 511.477 307.386C505.843 305.026 499.048 297.508 494.15 293.511C488.816 289.145 490.999 289.991 484.832 290.25C478.774 290.509 475.636 288.012 469.483 286.948C464.49 286.075 460.71 287.153 459.919 292.324C458.596 294.356 457.381 292.992 456.535 294.725C455.567 293.647 454.489 292.596 453.52 291.928C450.273 289.704 446.917 293.974 443.902 291.887C438.062 287.849 443.397 279.321 439.631 274.655C437.503 272.009 434.215 273.073 432.018 271.135C429.822 269.171 430.436 266.783 427.898 265.037C423.287 261.872 417.433 263.522 414.186 257.669C410.612 251.243 414.828 240.015 414.855 233.002C414.282 232.784 419.084 226.972 420.612 225.184C423.819 221.446 427.775 218.349 433.151 219.904C438.117 221.351 439.549 231.788 443.711 230.778C447.872 229.755 448.431 219.945 450.178 216.957C453.766 210.804 462.143 213.151 466.14 206.861C468.378 203.341 467.982 198.416 470.452 194.91C471.83 192.945 474.34 191.772 475.977 190.053C481.394 184.336 485.146 176.641 492.622 173.23C500.795 169.506 510.522 175.932 516.416 166.572C511.559 165.44 503.892 163.08 499.744 159.928C503.537 152.806 510.018 156.394 516.157 154.321C519.118 153.325 529.037 147.799 530.278 145.33C532.734 140.391 527.59 137.444 525.489 133.351C523.934 130.336 523.879 127.02 522.324 124.005C515.134 125.669 517.521 124.442 515.093 119.503C512.61 114.455 508.844 110.853 502.718 114.359C497.602 117.292 497.316 123.637 495.528 128.685C493.577 134.156 492.281 133.665 487.683 136.966C483.181 140.2 478.611 152.479 474.149 144.607C472.648 141.973 474.504 137.594 472.335 134.633C470.22 131.727 461.379 129.913 462.266 125.26C462.798 122.504 470.52 120.226 472.976 118.493C477.328 115.41 481.817 110.266 487.192 108.943C490.317 108.165 497.22 110.061 499.567 106.705C501.149 104.427 498.68 100.156 500.331 97.5914C502.377 94.3852 518.49 85.8581 521.628 88.9551C523.006 90.3058 522.679 96.6636 521.956 98.1371C520.673 100.77 514.52 102.08 514.438 104.863C514.233 112.408 532.325 103.704 534.248 100.729C538.041 94.8763 531.397 87.0996 534.917 81.4922C537.85 76.8261 553.445 69.7179 557.156 74.7523C558.029 75.9257 558.22 83.2658 558.67 85.0395C559.966 90.0602 560.485 89.3371 557.865 93.0618C555.341 96.65 549.502 97.4822 551.193 102.53C552.135 105.354 557.156 107.074 559.093 109.202C563.159 113.691 563.977 118.984 569.38 113.199C571.918 110.484 571.986 105.682 575.342 103.431C578.016 101.63 582.137 101.875 585.125 100.211C588.372 98.41 590.445 96.1725 594.197 94.8218C604.048 91.2745 605.835 88.8596 602.629 78.8726L602.588 78.8863Z" fill="#202020" stroke="white" stroke-width="1.36434" stroke-linecap="round" stroke-linejoin="round"/>
<path vector-effect="non-scaling-stroke" d="M800.649 259.838C798.644 261.885 796.474 264.054 794.905 264.791C790.867 266.674 789.68 266.756 786.651 262.84C782.763 257.847 784.291 249.292 782.04 243.316C780.43 239.032 778.888 234.503 776.964 230.369C775.422 227.067 772.98 223.629 771.752 220.054C767.591 220.409 766.636 215.388 765.913 212.264C764.249 205.169 764.781 200.544 756.513 197.993C751.547 196.451 743.429 193.395 745.161 186.437C747.522 176.955 756.663 184.923 762.27 184.295C762.925 180.884 761.847 177.924 759.692 175.236C758.573 173.83 756.84 174.021 755.817 172.78C754.835 171.593 755.749 170.079 754.835 168.946C753.129 166.818 750.414 163.775 747.44 163.612C734.861 162.957 741.819 183.954 731.518 183.817C721.708 183.695 717.383 167.445 707.478 167.132C705.091 167.05 700.588 169.546 697.164 169.56C693.78 169.56 687.695 167.132 685.199 170.747C683.043 173.871 686.986 177.282 687.027 180.311C687.081 183.954 683.766 191.662 681.842 194.377C678.391 199.234 673.07 197.979 667.735 200.858C661.527 204.214 661.459 205.169 658.035 199.794C654.747 194.637 654.119 187.569 658.921 183.067C664.038 178.292 672.906 178.469 670.587 170.024C669.168 164.853 666.193 165.904 669.645 161.115C671.187 158.986 674.325 158.577 675.935 156.544C677.49 154.593 677.395 152.247 678.445 150.023C682.729 141.004 689.496 141.264 697.423 138.139C704.068 135.533 705.609 124.046 700.056 118.52C696.645 115.123 694.722 118.97 691.024 115.6C689.101 113.84 689.851 110.675 687.627 108.82C682.606 104.618 680.424 109.857 677.668 113.8C675.048 117.551 672.469 119.762 668.636 122.845C664.065 126.529 656.397 128.207 659.222 120.116C660.695 115.914 664.133 112.844 665.157 108.206C666.603 101.616 660.818 98.7236 661.527 93.0616C662.278 87.113 668.922 90.3738 673.152 91.82C681.228 94.5896 688.964 100.784 697.259 94.9444C753.989 130.008 793.596 190.121 800.636 259.838H800.649Z" fill="#202020" stroke="white" stroke-width="1.36434" stroke-linecap="round" stroke-linejoin="round"/>
<path vector-effect="non-scaling-stroke" d="M739.227 212.851C741.519 222.661 732.173 218.186 728.08 215.675C724.478 213.465 716.92 212.005 714.75 208.144C713.031 205.074 715.856 202.332 712.186 200.463C709.552 199.126 705.446 201.691 703.044 202.182C696.959 203.437 691.707 199.235 686.563 200.518C684.517 201.022 681.351 203.751 679.032 204.611C676.413 205.566 673.834 205.525 671.76 207.639C669.359 210.109 668.281 214.693 666.262 217.613C664.365 220.355 661.5 222.429 659.74 225.021C657.939 227.681 657.271 230.41 655.306 233.03C653.423 235.554 650.708 236.659 649.208 239.551C645.087 247.505 647.802 256.578 649.003 264.696C649.767 269.908 648.034 272.582 647.298 277.521C646.383 283.633 649.33 286.266 653.232 290.673C658.321 296.417 663.288 308.737 670.396 311.916C679.919 316.159 692.635 307.045 701.339 304.085C709.266 301.383 708.133 304.903 714.287 308.805C719.157 311.889 721.408 310.811 721.981 317.823C722.445 323.567 718.148 325.846 718.994 330.962C719.444 333.704 722.2 336.542 722.65 339.762C723.168 343.487 722.705 347.73 721.586 351.195C719.908 356.393 718.475 361.96 716.401 367.062C714.682 371.306 711.108 375.085 711.312 380.01C711.544 385.686 714.969 390.72 714.355 397.146C713.85 402.426 711.954 407.542 711.326 412.809C710.685 418.13 708.42 426.875 716.715 424.488C724.792 422.168 731.068 408.457 737.576 403.177C740.823 400.543 745.025 399.547 748.15 396.996C751.547 394.213 750.878 391.334 752.638 387.964C754.753 383.939 758.928 381.047 761.711 377.404C765.395 372.602 768.642 368.522 770.197 362.615C773.513 350.008 772.789 338.739 780.621 327.606C787.32 318.069 792.791 309.214 794.373 297.481C795.901 286.212 789.503 287.044 784.345 278.953C782.285 275.72 783.295 272.145 781.917 268.748C780.321 264.792 776.828 261.694 774.863 257.574C767.523 242.225 770.975 219.195 750.469 213.438C747.836 212.701 738.954 211.064 739.186 212.851H739.227Z" fill="#202020" stroke="white" stroke-width="1.36434" stroke-linecap="round" stroke-linejoin="round"/>
<path vector-effect="non-scaling-stroke" d="M624.417 70.4948L501.162 153.351C500.153 154.033 498.707 153.706 497.956 152.628L441.077 71.0132C440.572 70.2765 440.941 69.3896 441.896 69.0213L566.351 21.2148C566.842 21.0238 567.66 21.2421 568.192 21.6923L623.967 68.8848C624.662 69.4715 624.867 70.1946 624.417 70.4948Z" fill="#020202" stroke="white" stroke-width="1.36434" stroke-linecap="round" stroke-linejoin="round"/>
<path vector-effect="non-scaling-stroke" d="M479.414 70.2884L500.288 61.543L506.892 69.1696L485.704 78.7337L479.414 70.2884Z" fill="#404040"/>
<path vector-effect="non-scaling-stroke" d="M500.098 62.3618L505.787 68.9243L485.936 77.888L480.506 70.5888L500.111 62.3755M500.493 60.7383L478.377 70.0158L485.499 79.5935L508.025 69.4291L500.493 60.7383Z" fill="white"/>
<path vector-effect="non-scaling-stroke" d="M525.202 51.093L540.578 44.6533L547.1 51.0248L531.683 57.9829L525.202 51.093Z" fill="#404040"/>
<path vector-effect="non-scaling-stroke" d="M540.428 45.4449L545.899 50.8067L531.847 57.1509L526.375 51.3388L540.428 45.4449ZM540.742 43.835L524.042 50.834L531.533 58.7881L548.287 51.2297L540.742 43.835Z" fill="white"/>
<path vector-effect="non-scaling-stroke" d="M488.829 82.9364L510.249 73.0449L516.961 80.7944L495.35 91.7091L488.829 82.9364Z" fill="#404040"/>
<path vector-effect="non-scaling-stroke" d="M510.072 73.8774L515.884 80.5763L495.569 90.8361L489.893 83.1958L510.085 73.8637M510.44 72.1992L487.792 82.6637L495.159 92.5688L518.067 80.9992L510.44 72.1992Z" fill="white"/>
<path vector-effect="non-scaling-stroke" d="M504.614 59.7291L522.856 52.0752L529.377 59.0197L511.19 67.233L504.614 59.7291Z" fill="#404040"/>
<path vector-effect="non-scaling-stroke" d="M522.678 52.8941L528.231 58.788L511.368 66.401L505.747 59.9886L522.678 52.8941ZM523.019 51.2705L503.468 59.4702L510.999 68.0655L530.523 59.2519L523.019 51.2705Z" fill="white"/>
<path vector-effect="non-scaling-stroke" d="M554.208 81.9136L569.761 73.25L577.129 80.481L561.766 89.9495L554.208 81.9136Z" fill="#404040"/>
<path vector-effect="non-scaling-stroke" d="M569.652 74.096L576.038 80.3447L561.876 89.0765L555.3 82.0774L569.652 74.0824M569.884 72.3906L553.117 81.7227L561.657 90.7955L578.248 80.563L569.898 72.377L569.884 72.3906Z" fill="white"/>
<path vector-effect="non-scaling-stroke" d="M533.962 93.1831L552.053 83.1143L559.68 91.2321L541.875 102.215L533.962 93.1831Z" fill="#404040"/>
<path vector-effect="non-scaling-stroke" d="M551.916 83.974L558.615 91.0958L542.011 101.328L535.026 93.3743L551.916 83.974ZM552.176 82.2686L532.884 93.0059L541.738 103.102L560.744 91.3824L552.176 82.2686Z" fill="white"/>
<path vector-effect="non-scaling-stroke" d="M496.811 93.6606L518.572 82.6641L526.103 91.3549L504.014 103.347L496.811 93.6606Z" fill="#404040"/>
<path vector-effect="non-scaling-stroke" d="M518.408 83.5101L525.039 91.1641L504.206 102.474L497.834 93.9064L518.408 83.5101ZM518.749 81.8184L495.774 93.4289L503.824 104.248L527.181 91.5597L518.749 81.8184Z" fill="white"/>
<path vector-effect="non-scaling-stroke" d="M507.438 107.958L529.732 95.543L537.727 104.766L515.338 118.573L507.438 107.958Z" fill="#404040"/>
<path vector-effect="non-scaling-stroke" d="M529.582 96.4026L536.69 104.602L515.515 117.659L508.448 108.163L529.582 96.4026ZM529.882 94.6699L506.415 107.727L515.147 119.474L538.764 104.916L529.882 94.6562V94.6699Z" fill="white"/>
<path vector-effect="non-scaling-stroke" d="M543.197 70.222L558.696 62.4043L566.091 69.6489L550.578 78.0669L543.197 70.222Z" fill="#404040"/>
<path vector-effect="non-scaling-stroke" d="M558.56 63.2221L564.945 69.4844L550.715 77.2066L544.317 70.4122L558.56 63.2221ZM558.82 61.5576L542.079 70.0165L550.443 78.912L567.224 69.7982L558.82 61.5576Z" fill="white"/>
<path vector-effect="non-scaling-stroke" d="M535.066 61.571L550.551 54.4082L556.882 60.6296L541.492 68.4063L535.066 61.571Z" fill="#404040"/>
<path vector-effect="non-scaling-stroke" d="M550.401 55.2271L555.722 60.4388L541.628 67.5607L536.198 61.7895L550.387 55.2271M550.674 53.5898L533.906 61.3393L541.328 69.2388L558.028 60.8072L550.674 53.5898Z" fill="white"/>
<path vector-effect="non-scaling-stroke" d="M590.622 61.6258L602.478 55.0088L609.191 60.7117L597.348 68.0109L590.622 61.6258Z" fill="#404040"/>
<path vector-effect="non-scaling-stroke" d="M602.396 55.8413L608.031 60.6301L597.443 67.1653L591.768 61.7762L602.41 55.8413M602.573 54.1904L589.489 61.4896L597.28 68.8844L610.364 60.8211L602.573 54.2041V54.1904Z" fill="white"/>
<path vector-effect="non-scaling-stroke" d="M514.547 71.0537L532.774 62.6357L539.269 69.5257L521.205 78.6531L514.547 71.0537Z" fill="#404040"/>
<path vector-effect="non-scaling-stroke" d="M532.61 63.4546L538.136 69.3349L521.368 77.8074L515.652 71.2995L532.61 63.4682M532.924 61.8174L513.414 70.8357L521.027 79.5129L540.373 69.7442L532.924 61.8174Z" fill="white"/>
<path vector-effect="non-scaling-stroke" d="M599.149 69.717L611.115 62.3496L619.205 69.2259L607.035 77.2073L599.149 69.717Z" fill="#404040"/>
<path vector-effect="non-scaling-stroke" d="M611.047 63.182L618.073 69.1442L607.131 76.3343L600.268 69.8264L611.047 63.182ZM611.169 61.5039L598.031 69.6081L606.954 78.0806L620.324 69.2943L611.156 61.5039H611.169Z" fill="white"/>
<path vector-effect="non-scaling-stroke" d="M544.413 43.0435L560.485 36.3037L566.624 42.1431L550.934 49.2786L544.413 43.0435Z" fill="#404040"/>
<path vector-effect="non-scaling-stroke" d="M560.334 37.1089L565.423 41.9387L551.07 48.4603L545.627 43.2621L560.321 37.0953M560.621 35.499L543.185 42.8119L550.798 50.0838L567.825 42.3344L560.621 35.499Z" fill="white"/>
<path vector-effect="non-scaling-stroke" d="M522.841 80.5082L540.973 71.3398L548.409 79.2394L530.332 89.0626L522.841 80.5082Z" fill="#404040"/>
<path vector-effect="non-scaling-stroke" d="M540.824 72.1859L547.305 79.0759L530.496 88.2033L523.933 80.7267L540.824 72.1859ZM541.124 70.5078L521.75 80.2901L530.196 89.9087L549.528 79.4169L541.138 70.5078H541.124Z" fill="white"/>
<path vector-effect="non-scaling-stroke" d="M562.6 60.4254L577.798 52.7441L584.838 59.4294L570.008 67.5063L562.6 60.4254Z" fill="#404040"/>
<path vector-effect="non-scaling-stroke" d="M577.676 53.5766L583.692 59.2932L570.117 66.6743L563.759 60.603L577.662 53.5766M577.907 51.9258L561.426 60.2482L569.899 68.3388L585.984 59.5797L577.907 51.9121V51.9258Z" fill="white"/>
<path vector-effect="non-scaling-stroke" d="M554.413 52.6069L570.008 45.3486L575.956 50.997L560.771 58.6646L554.413 52.6069Z" fill="#404040"/>
<path vector-effect="non-scaling-stroke" d="M569.871 46.1538L574.783 50.8199L560.894 57.8326L555.614 52.7845L569.871 46.1402M570.131 44.5166L553.213 52.3888L560.635 59.4834L577.116 51.1609L570.117 44.5166H570.131Z" fill="white"/>
<path vector-effect="non-scaling-stroke" d="M573.718 71.0395L588.426 62.8398L595.248 69.3068L581.058 78.0522L573.718 71.0395Z" fill="#404040"/>
<path vector-effect="non-scaling-stroke" d="M588.33 63.6859L594.142 69.1979L581.154 77.2066L574.864 71.1898L588.33 63.6859ZM588.548 62.0078L572.585 70.9033L580.976 78.9256L596.366 69.4435L588.548 62.0215V62.0078Z" fill="white"/>
<path vector-effect="non-scaling-stroke" d="M517.822 43.2347L533.116 37.3271L538.723 42.8254L523.457 49.2378L517.822 43.2347Z" fill="#404040"/>
<path vector-effect="non-scaling-stroke" d="M532.952 38.1324L537.509 42.6075L523.62 48.4332L518.995 43.5216L532.939 38.1324M533.266 36.5498L516.607 42.9758L523.265 50.0568L539.924 43.0713L533.266 36.5498Z" fill="white"/>
<path vector-effect="non-scaling-stroke" d="M491.954 135.806L514.724 121.767L522.829 132.654L500.194 147.566L491.954 135.806Z" fill="#404040"/>
<path vector-effect="non-scaling-stroke" d="M514.547 122.667L521.846 132.477L500.385 146.625L492.936 135.997L514.561 122.667M514.915 120.853L490.999 135.601L500.03 148.494L523.811 132.818L514.915 120.853Z" fill="white"/>
<path vector-effect="non-scaling-stroke" d="M482.266 121.972L505.323 109.134L513.291 119.83L490.575 133.842L482.266 121.972Z" fill="#404040"/>
<path vector-effect="non-scaling-stroke" d="M505.133 110.02L512.296 119.652L490.766 132.927L483.249 122.203L505.133 110.02ZM505.515 108.246L481.271 121.739L490.384 134.755L514.274 120.02L505.515 108.232V108.246Z" fill="white"/>
<path vector-effect="non-scaling-stroke" d="M516.771 120.497L539.323 106.595L547.686 116.254L524.82 131.33L516.771 120.497Z" fill="#404040"/>
<path vector-effect="non-scaling-stroke" d="M539.186 107.482L546.663 116.118L524.984 130.403L517.753 120.688L539.173 107.482M539.446 105.708L515.774 120.306L524.656 132.244L548.71 116.391L539.459 105.708H539.446Z" fill="white"/>
<path vector-effect="non-scaling-stroke" d="M471.42 106.485L494.641 94.752L501.886 104.507L478.815 117.032L471.42 106.485Z" fill="#404040"/>
<path vector-effect="non-scaling-stroke" d="M494.436 95.6253L500.876 104.289L479.019 116.159L472.429 106.745L494.436 95.6253ZM494.845 93.8926L470.41 106.24L478.61 117.932L502.909 104.739L494.845 93.8926Z" fill="white"/>
<path vector-effect="non-scaling-stroke" d="M463.221 94.7792L486.619 83.96L493.182 92.8009L470.029 104.507L463.221 94.7792Z" fill="#404040"/>
<path vector-effect="non-scaling-stroke" d="M486.401 84.8197L492.158 92.5692L470.261 103.634L464.257 95.0659L486.401 84.8334M486.837 83.1279L462.197 94.5202L469.81 105.394L494.218 93.0603L486.824 83.1279H486.837Z" fill="white"/>
<path vector-effect="non-scaling-stroke" d="M543.484 104.029L561.357 93.0186L569.625 101.791L551.82 113.538L543.484 104.029Z" fill="#404040"/>
<path vector-effect="non-scaling-stroke" d="M561.248 93.8919L568.574 101.682L551.943 112.652L544.535 104.206L561.248 93.9055M561.48 92.1592L542.434 103.893L551.697 114.452L570.675 101.941L561.48 92.1592Z" fill="white"/>
<path vector-effect="non-scaling-stroke" d="M582.845 79.7718L597.034 71.0127L604.988 78.5575L591.113 87.6713L582.845 79.7718Z" fill="#404040"/>
<path vector-effect="non-scaling-stroke" d="M596.953 71.8724L603.897 78.4622L591.195 86.7983L583.95 79.8811L596.953 71.8724ZM597.13 70.1533L581.74 79.6491L591.045 88.531L606.094 78.6532L597.144 70.1533H597.13Z" fill="white"/>
<path vector-effect="non-scaling-stroke" d="M563.43 91.7379L578.901 82.2012L587.115 90.2644L571.643 100.456L563.43 91.7379Z" fill="#404040"/>
<path vector-effect="non-scaling-stroke" d="M578.792 83.0609L586.023 90.1554L571.739 99.5694L564.494 91.8745L578.792 83.0609ZM578.983 81.3418L562.352 91.588L571.466 101.275L571.097 101.63L588.193 90.3601L578.983 81.3418Z" fill="white"/>
<path vector-effect="non-scaling-stroke" d="M536.895 35.8665L553.267 29.4541L558.588 34.5022L542.529 41.242L536.895 35.8665Z" fill="#404040"/>
<path vector-effect="non-scaling-stroke" d="M553.116 30.2457L557.36 34.2705L542.679 40.4237L538.15 36.0987L553.116 30.232M553.43 28.6494L535.667 35.6075L542.379 42.0336L559.815 34.7207L553.43 28.6631V28.6494Z" fill="white"/>
<path vector-effect="non-scaling-stroke" d="M555.736 28.4991L566.378 24.3242L571.822 28.9493L560.989 33.4926L555.736 28.4991Z" fill="#404040"/>
<path vector-effect="non-scaling-stroke" d="M566.242 25.1159L570.526 28.7587L561.139 32.7016L556.978 28.745L566.242 25.1159ZM566.501 23.5469L554.481 28.2538L560.852 34.2979L573.118 29.1543L566.514 23.5469H566.501Z" fill="white"/>
<path vector-effect="non-scaling-stroke" d="M453.643 81.1083L477.15 71.2441L483.467 79.744L460.082 90.2903L453.643 81.1083Z" fill="#404040"/>
<path vector-effect="non-scaling-stroke" d="M476.918 72.0766L482.416 79.4577L460.314 89.431L454.693 81.395L476.932 72.0766M477.382 70.4121L452.605 80.8084L459.85 91.1501L484.531 80.0171L477.382 70.4121Z" fill="white"/>
<path vector-effect="non-scaling-stroke" d="M572.34 44.2585L583.637 38.9922L589.626 44.0948L578.22 49.8523L572.34 44.2585Z" fill="#404040"/>
<path vector-effect="non-scaling-stroke" d="M583.527 39.7974L588.412 43.945L578.357 49.0204L573.54 44.4498L583.541 39.7974M583.759 38.1875L571.153 44.0542L578.125 50.6712L590.881 44.2315L583.773 38.1875H583.759Z" fill="white"/>
<path vector-effect="non-scaling-stroke" d="M580.062 51.5982L591.604 45.7725L598.767 51.8574L587.047 58.2289L580.062 51.5982Z" fill="#404040"/>
<path vector-effect="non-scaling-stroke" d="M591.509 46.5776L597.566 51.7212L587.157 57.3832L581.235 51.7621L591.509 46.5776ZM591.7 44.9541L578.889 51.421L586.938 59.0614L599.968 51.9668L591.7 44.9404V44.9541Z" fill="white"/>
<path vector-effect="non-scaling-stroke" d="M562.885 35.2931L573.868 30.6953L580.116 36.0026L568.97 41.0643L562.885 35.2931Z" fill="#404040"/>
<path vector-effect="non-scaling-stroke" d="M573.745 31.4869L578.861 35.8255L569.12 40.2596L564.126 35.5254L573.745 31.4869ZM573.99 29.9043L561.67 35.0751L568.847 41.8832L581.385 36.1803L574.004 29.9043H573.99Z" fill="white"/>
<path vector-effect="non-scaling-stroke" d="M446.425 70.8081L470.042 61.6807L475.676 69.2664L452.237 79.1033L446.425 70.8081Z" fill="#404040"/>
<path vector-effect="non-scaling-stroke" d="M469.796 62.5131L474.612 68.9801L452.482 78.2576L447.489 71.1221L469.809 62.4995M470.287 60.8486L445.374 70.4672L452.005 79.9358L476.754 69.5531L470.287 60.8486Z" fill="white"/>
<path vector-effect="non-scaling-stroke" d="M497.137 51.2168L515.406 44.1768L521.095 50.2208L502.949 57.8338L497.137 51.2168Z" fill="#404040"/>
<path vector-effect="non-scaling-stroke" d="M515.228 44.9683L519.935 49.9754L503.14 57.0154L498.311 51.5035L515.242 44.9683M515.61 43.3584L496.005 50.9305L502.772 58.6527L522.296 50.4666L515.61 43.3584Z" fill="white"/>
<path vector-effect="non-scaling-stroke" d="M472.348 60.7931L492.799 52.8936L498.639 59.647L477.955 68.3106L472.348 60.7931Z" fill="#404040"/>
<path vector-effect="non-scaling-stroke" d="M492.594 53.7124L497.506 59.3744L478.187 67.4786L473.439 61.1072L492.594 53.7124ZM493.004 52.0889L471.283 60.4796L477.737 69.1568L499.784 59.9065L493.017 52.0889H493.004Z" fill="white"/>
<path vector-effect="non-scaling-stroke" d="M659.072 159.859L670.75 189.356L708.242 351.003H635.932L633.681 164.594L659.072 159.859Z" fill="#020202"/>
<path vector-effect="non-scaling-stroke" d="M653.273 126.679L748.368 467.6" stroke="white" stroke-width="1.36434" stroke-linecap="round" stroke-linejoin="round"/>
<path vector-effect="non-scaling-stroke" d="M696.372 467.6L617.159 125.901" stroke="white" stroke-width="1.36434" stroke-linecap="round" stroke-linejoin="round"/>
<path vector-effect="non-scaling-stroke" d="M666.37 173.667H628.455" stroke="white" stroke-width="1.36434" stroke-linecap="round" stroke-linejoin="round"/>
<path vector-effect="non-scaling-stroke" d="M672.865 196.915H633.681" stroke="white" stroke-width="1.36434" stroke-linecap="round" stroke-linejoin="round"/>
<path vector-effect="non-scaling-stroke" d="M680.396 223.916H639.862" stroke="white" stroke-width="1.36434" stroke-linecap="round" stroke-linejoin="round"/>
<path vector-effect="non-scaling-stroke" d="M687.64 249.906H645.864" stroke="white" stroke-width="1.36434" stroke-linecap="round" stroke-linejoin="round"/>
<path vector-effect="non-scaling-stroke" d="M652.25 277.262H694.858" stroke="white" stroke-width="1.36434" stroke-linecap="round" stroke-linejoin="round"/>
<path vector-effect="non-scaling-stroke" d="M658.116 302.624H702.348" stroke="white" stroke-width="1.36434" stroke-linecap="round" stroke-linejoin="round"/>
<path vector-effect="non-scaling-stroke" d="M664.897 331.876H710.193" stroke="white" stroke-width="1.36434" stroke-linecap="round" stroke-linejoin="round"/>
<path vector-effect="non-scaling-stroke" d="M671.309 359.504H717.778" stroke="white" stroke-width="1.36434" stroke-linecap="round" stroke-linejoin="round"/>
<path vector-effect="non-scaling-stroke" d="M677.858 387.773H726.415" stroke="white" stroke-width="1.36434" stroke-linecap="round" stroke-linejoin="round"/>
<path vector-effect="non-scaling-stroke" d="M734.655 417.365H685.266" stroke="white" stroke-width="1.36434" stroke-linecap="round" stroke-linejoin="round"/>
<path vector-effect="non-scaling-stroke" d="M589.736 41.5437C589.19 41.38 588.754 41.0526 588.727 40.6023C588.727 40.6023 588.727 40.6023 588.727 40.5887C588.727 40.5887 588.727 40.5751 588.727 40.5614C588.74 40.5205 588.767 40.4932 588.781 40.4523C588.795 40.4113 588.822 40.3704 588.836 40.3295C588.849 40.3158 588.863 40.3022 588.877 40.2749C588.89 40.2749 588.918 40.2476 588.931 40.234C588.986 40.2067 589.04 40.1658 589.095 40.1385C589.109 40.1385 589.136 40.1385 589.15 40.1248C589.245 40.0975 589.341 40.0839 589.436 40.0703C589.477 40.0703 589.518 40.0566 589.559 40.043C593.283 41.1208 593.515 40.2476 595.248 40.3704C595.453 40.3841 594.184 43.4675 594.102 43.522C594.102 43.6175 592.929 42.1986 589.682 41.5574L589.736 41.5437Z" fill="#020202" stroke="white" stroke-width="1.36434" stroke-linecap="round" stroke-linejoin="round"/>
<path vector-effect="non-scaling-stroke" d="M671.61 191.689C671.46 191.294 671.255 190.912 670.996 190.571C670.846 190.38 670.75 190.175 670.491 190.107C670.491 190.107 670.437 190.12 670.355 190.148C670.191 189.124 670.232 188.388 670.191 187.487C670.136 186.942 670.082 186.396 670.027 185.85C670 185.577 669.986 185.154 669.632 185.141C667.844 185.564 666.016 185.877 664.188 186.191C664.161 186.164 664.12 186.15 664.079 186.15C664.051 186.15 664.024 186.15 663.997 186.178C663.847 186.205 663.806 186.45 663.97 186.519C664.215 187.951 664.365 189.425 664.379 190.885C664.352 190.885 664.324 190.871 664.297 190.871C664.174 190.871 663.983 191.007 663.847 191.103C662.824 192.044 661.609 192.658 660.381 193.299C659.535 193.722 658.649 194.05 657.789 194.445C656.889 194.814 655.838 195.073 655.251 195.905C654.733 197.038 655.401 197.952 656.616 197.993C658.226 197.993 659.822 197.556 661.405 197.256C663.11 196.738 664.788 196.219 666.575 196.083C667.803 195.987 669.045 195.905 670.273 195.701C670.709 195.632 671.132 195.564 671.46 195.237C671.692 195.005 671.705 194.623 671.76 194.323C671.842 193.845 671.883 193.368 671.869 192.89C671.855 192.494 671.787 192.085 671.637 191.703L671.61 191.689Z" fill="#020202" stroke="white" stroke-width="1.36434" stroke-linecap="round" stroke-linejoin="round"/>
<path vector-effect="non-scaling-stroke" d="M673.888 187.665C673.916 187.87 673.834 188.102 673.588 188.115C672.142 188.224 670.655 188.811 669.209 188.948C666.344 189.07 663.219 189.057 660.341 189.084C660.177 189.084 660.013 188.975 659.972 188.811C659.795 188.238 659.863 187.201 659.781 186.71C659.672 185.291 659.536 183.872 659.467 182.467C659.181 178.824 658.567 175.222 658.035 171.607C657.243 165.945 656.207 160.324 655.756 154.621C655.756 151.838 655.947 149.054 655.975 146.271C656.029 143.297 656.548 140.377 657.039 137.457C657.762 132.737 657.639 127.962 658.117 123.241C658.362 120.021 662.332 120.403 664.584 121.14C665.743 121.426 668.909 122.668 668.69 122.654C668.608 123.991 668.731 127.129 668.731 129.108C668.731 131.509 669.632 141.087 669.891 143.488C670.464 150.091 671.828 175.209 673.834 186.969C673.847 187.201 673.875 187.433 673.875 187.679L673.888 187.665Z" fill="#020202" stroke="white" stroke-width="1.36434" stroke-linecap="round" stroke-linejoin="round"/>
<path vector-effect="non-scaling-stroke" d="M650.121 36.5912C650.121 36.5912 650.121 36.5643 650.121 36.5508C650.121 36.5508 650.121 36.5777 650.121 36.5912Z" fill="#020202" stroke="white" stroke-width="1.36434" stroke-linecap="round" stroke-linejoin="round"/>
<path vector-effect="non-scaling-stroke" d="M661.282 29.142C659.74 27.2865 656.656 26.1951 654.583 27.7777C654.542 27.7777 654.487 27.7777 654.446 27.7913C652.973 28.7327 652.045 30.7519 651.677 32.5119C651.636 32.5802 651.595 32.6484 651.554 32.7166C651.554 32.7166 651.527 32.7439 651.513 32.7575C651.513 32.7575 651.513 32.7712 651.513 32.7848C651.213 33.2214 650.831 33.6171 650.435 33.9581C650.258 34.0946 650.053 34.1901 649.889 34.3402C649.78 34.4084 649.671 34.4902 649.589 34.5721C649.344 34.7085 649.398 35.0906 649.589 35.2952C649.685 35.4043 649.78 35.5271 649.876 35.6363C650.012 35.7727 650.162 35.7864 650.312 35.8682C650.258 36.1002 650.189 36.3321 650.135 36.5504C650.135 36.5777 650.135 36.605 650.121 36.6323C650.094 36.9324 650.053 37.2326 650.012 37.5327C649.93 38.2149 649.576 39.4019 649.93 40.0295C650.435 40.7389 651.363 40.9709 652.277 41.08C653.355 41.2437 654.433 41.3529 655.51 41.462C655.197 42.4716 654.856 44.218 654.132 44.3954C653.246 44.8729 652.427 45.1594 651.677 45.8279C649.93 47.356 652.018 47.6016 653.014 47.6834C653.164 47.6971 653.327 47.7107 653.478 47.7107C654.337 47.7107 655.183 47.4788 655.988 47.2059C656.616 47.0149 657.229 46.7829 657.816 46.4828C658.457 46.6329 659.099 46.7693 659.74 46.933C660.163 47.0831 660.436 46.6602 660.463 46.2918C660.64 45.1457 660.722 43.986 660.763 42.8264C660.845 41.5575 660.913 40.2614 661.131 38.9926C661.636 37.8874 662.114 36.7687 662.373 35.5681C663.082 32.9485 663.001 31.3386 661.295 29.142H661.282Z" fill="#020202" stroke="white" stroke-width="1.36434" stroke-linecap="round" stroke-linejoin="round"/>
<path vector-effect="non-scaling-stroke" d="M652.4 192.781C652.4 192.781 652.277 192.754 652.223 192.754C652.032 191.526 652.032 190.366 652.223 189.507C652.25 188.592 652.345 188.552 652.345 187.637C652.345 187.365 652.168 187.174 651.895 187.215C650.149 187.351 648.402 187.419 646.642 187.406C646.465 187.378 646.165 187.392 646.233 187.637C646.22 187.801 646.151 188.033 646.26 188.17C646.274 189.561 646.329 190.966 646.124 192.358C646.124 192.508 646.083 192.713 646.042 192.917C645.919 192.917 645.838 192.945 645.742 193.068C644.732 193.968 643.545 194.486 642.358 195.141C641.185 195.769 639.889 196.137 638.647 196.601C637.897 196.888 635.891 197.433 636.369 198.607C636.587 199.057 636.969 199.166 637.433 199.248C637.447 199.248 637.46 199.248 637.474 199.248C639.029 199.534 640.598 199.343 642.167 199.193C643.736 199.03 645.319 198.893 646.874 198.839C648.716 198.784 652.455 199.248 653.191 197.925C653.778 196.301 653.682 194.009 652.373 192.754L652.4 192.781Z" fill="#020202" stroke="white" stroke-width="1.36434" stroke-linecap="round" stroke-linejoin="round"/>
<path vector-effect="non-scaling-stroke" d="M586.229 79.3911C586.024 79.2681 586.229 78.9537 586.421 79.0904C586.626 79.2134 586.421 79.5277 586.229 79.3911Z" fill="#020202" stroke="white" stroke-width="1.36434" stroke-linecap="round" stroke-linejoin="round"/>
<path vector-effect="non-scaling-stroke" d="M598.127 77.4673C598.086 76.7988 598.14 76.1439 598.222 75.489C598.208 75.4072 598.154 75.3526 598.099 75.3253C598.086 75.2844 598.058 75.2571 598.017 75.2298C597.513 74.8614 596.953 74.534 596.408 74.2611C596.08 74.0974 595.753 73.961 595.412 73.8246C594.702 73.5653 593.952 73.3743 593.215 73.197C592.847 73.1015 592.478 73.0196 592.11 72.9241C591.769 72.8422 591.441 72.6785 591.1 72.583C590.896 72.5284 590.473 72.2692 590.295 72.1601C590.091 72.0373 589.927 71.8326 589.668 71.8599C589.422 71.8735 589.19 72.0509 589.122 72.2828C589.067 72.4602 589.19 72.6649 589.286 72.8013C589.586 73.2515 590.05 73.6063 590.486 73.9064C590.554 73.961 590.636 74.0156 590.705 74.0565C590.745 74.0838 590.868 74.1929 590.909 74.1793C590.636 74.1793 590.35 74.2884 590.063 74.3294C588.972 74.4931 587.867 74.4794 586.789 74.1929C586.448 74.0974 586.107 74.0156 585.766 73.9473C585.438 73.8791 585.07 73.8109 584.742 73.8655C584.51 73.9064 584.36 74.1111 584.388 74.3294C584.415 74.6841 584.879 74.8614 585.165 74.9842C585.602 75.1752 586.325 75.4481 586.775 75.6118C586.461 75.5709 585.738 75.5573 584.892 75.4072C584.715 75.3799 584.333 75.339 584.156 75.339C583.828 75.339 583.651 75.5436 583.692 75.8301C583.746 76.1849 584.156 76.2667 584.429 76.3895C584.892 76.5805 585.875 76.9352 586.352 77.0717C586.052 77.0717 585.234 76.908 584.947 76.9216C584.647 76.9489 584.278 76.9625 584.101 77.249C583.965 77.6038 584.224 77.863 584.701 78.054C585.165 78.2177 586.079 78.4224 586.148 78.436C586.134 78.4224 585.67 78.4497 585.561 78.5997C585.465 78.7225 585.438 78.8999 585.534 79.0363C585.779 79.4183 586.298 79.4729 586.707 79.5548C588.221 79.8549 589.668 80.0732 591.209 80.0459C592.369 80.0187 593.57 79.9914 594.716 79.814C595.766 79.6503 596.899 79.6366 597.936 79.3911C598.031 79.3638 598.113 79.2819 598.127 79.1864C598.249 79.0363 598.168 78.7225 598.154 78.5315C598.154 78.1768 598.168 77.8357 598.154 77.481L598.127 77.4673Z" fill="#020202" stroke="white" stroke-width="1.36434" stroke-linecap="round" stroke-linejoin="round"/>
<path vector-effect="non-scaling-stroke" d="M664.106 121.727C664.202 121.713 664.297 121.781 664.311 121.877C664.297 122.204 663.792 122.082 663.574 122.15C663.206 122.191 662.837 122.218 662.469 122.232C662.305 122.232 662.141 122.232 661.978 122.232C661.978 122.505 661.964 122.764 661.964 123.037C661.923 127.593 661.555 132.15 660.968 136.666C660.354 141.182 659.863 145.712 659.44 150.255C659.154 152.752 658.731 155.249 658.526 157.745C658.308 162.602 658.39 167.473 657.816 172.303C657.639 176.71 657.53 181.117 657.121 185.51C657.012 186.751 656.943 188.02 656.698 189.248C656.616 189.998 655.715 189.944 655.142 189.944C652.646 189.862 650.149 189.494 647.693 189.057C646.465 188.757 645.21 188.607 643.955 188.743C643.818 188.771 643.655 188.784 643.559 188.675C643.464 188.566 643.464 188.402 643.45 188.266C643.409 187.652 643.423 187.038 643.395 186.41C643.15 177.46 642.672 168.496 642.768 159.546C642.85 150.514 643.123 141.469 643.436 132.437C643.477 130.513 643.655 128.589 643.805 126.666C643.887 125.288 643.941 123.896 644.05 122.505C644.023 122.505 643.996 122.505 643.968 122.505C643.818 122.423 643.573 122.368 643.614 122.163C643.641 122.027 643.791 121.986 643.914 121.986C643.982 121.986 644.05 121.986 644.119 121.986C644.159 121.604 644.2 121.236 644.255 120.854C644.296 120.649 644.35 120.376 644.596 120.349C644.814 120.349 644.883 120.622 644.664 120.69C644.582 121.113 644.514 121.549 644.473 121.972C645.415 121.959 646.37 121.931 647.311 121.863C650.572 121.618 653.874 121.495 657.148 121.604C658.649 121.659 660.163 121.836 661.664 121.863C661.664 121.781 661.664 121.7 661.664 121.604C661.691 120.963 661.718 120.335 661.732 119.694C661.732 119.598 661.814 119.517 661.91 119.517C662.005 119.517 662.087 119.598 662.087 119.694C662.073 120.417 662.032 121.14 662.019 121.863C662.728 121.863 663.438 121.822 664.133 121.727H664.106Z" fill="#020202" stroke="white" stroke-width="1.36434" stroke-linecap="round" stroke-linejoin="round"/>
<path vector-effect="non-scaling-stroke" d="M663.86 121.972C663.86 121.89 663.86 121.808 663.86 121.712C663.86 121.439 663.874 121.18 663.888 120.907C662.1 120.457 659.726 120.348 658.662 121.685C658.894 121.685 659.112 121.685 659.344 121.699C660.845 121.753 662.359 121.931 663.86 121.958V121.972Z" fill="#020202" stroke="white" stroke-width="1.36434" stroke-linecap="round" stroke-linejoin="round"/>
<path vector-effect="non-scaling-stroke" d="M664.284 119.802C664.284 119.707 664.202 119.625 664.107 119.625C664.011 119.625 663.929 119.707 663.929 119.802C663.929 120.171 663.915 120.539 663.902 120.907C664.025 120.935 664.134 120.976 664.257 121.003C664.27 120.607 664.284 120.198 664.298 119.802H664.284Z" fill="#020202" stroke="white" stroke-width="1.36434" stroke-linecap="round" stroke-linejoin="round"/>
<path vector-effect="non-scaling-stroke" d="M676.59 111.671C676.071 106.091 674.98 100.579 674.352 95.0125C673.725 89.3232 673.302 83.6203 672.783 77.931C672.497 74.9022 672.469 71.8051 671.965 68.7899C671.91 68.3533 671.842 67.9304 671.774 67.4938C671.76 67.3437 671.746 67.2073 671.746 67.0709C671.746 67.0299 671.719 66.989 671.692 66.9617C671.514 65.8839 671.323 64.8197 671.105 63.7555C670.764 61.9136 670.45 60.0718 669.85 58.2845C669.291 56.5382 668.404 54.9146 667.544 53.3047C666.848 51.7084 665.907 50.2485 664.775 48.9251C663.67 47.2879 660.791 43.9453 660.695 44.0408C660.545 44.2454 660.163 44.491 659.972 44.6684C659.044 45.4597 657.939 46.0191 656.793 46.442C655.988 46.7422 655.142 46.9741 654.283 47.056C653.86 47.0969 653.451 47.0969 653.028 47.0833C652.687 47.0833 652.305 47.0696 652.045 46.7968C651.445 46.1555 652.919 45.2551 653.437 45.0231C653.655 44.8867 654.256 44.6138 654.569 44.0954C654.392 44.1227 649.562 45.0095 647.147 45.4734C646.056 45.7872 644.992 45.9918 643.846 46.0191C638.92 46.6603 633.941 46.8513 628.974 46.8923C625.782 46.9196 622.603 46.7285 619.438 46.3602C616.354 46.0054 613.203 45.6098 610.228 44.682C607.854 43.9316 605.453 43.2085 603.147 42.2672C601.988 41.8033 600.855 41.2848 599.764 40.6845C598.727 40.1115 597.772 39.4703 596.667 39.0064C596.448 38.9109 596.217 38.8154 595.985 38.7881C595.712 38.7881 595.453 38.9518 595.289 39.1701C594.811 39.9478 594.661 40.8619 594.211 41.6532C593.379 43.1676 592.656 44.7366 591.864 46.251C591.687 46.6467 592.11 46.8377 592.41 46.9741C593.774 47.5881 595.057 48.4749 596.367 49.2116C597.485 49.8392 598.618 50.4532 599.75 51.0671C600.255 51.34 600.76 51.6129 601.278 51.8857C601.783 52.145 602.438 52.3223 602.902 52.6361C606.817 54.1369 610.665 55.8696 614.772 56.7701C617.773 57.5614 620.843 57.9161 623.913 58.38C627.924 59.0076 631.949 59.5806 636.014 59.6761C633.599 60.9995 631.28 62.514 628.729 63.6054C624.881 65.2699 620.802 66.8526 616.763 68.1214C613.148 69.4175 609.396 70.2771 605.699 71.3276C602.697 71.9143 599.75 72.9784 596.653 72.9512C595.916 72.8966 595.739 73.2513 595.944 73.9062C596.189 74.6975 596.394 75.4615 596.517 76.2938C596.708 77.5353 596.817 78.7905 596.967 80.0457C597.021 80.4414 597.09 82.5561 597.69 82.597C599.6 82.1741 601.551 82.3924 603.488 82.1332C605.999 81.8057 608.536 81.8467 611.033 81.451C613.516 81.0553 615.986 80.646 618.469 80.3186C621.552 79.9093 624.622 79.309 627.637 78.5313C631.88 77.4398 636.055 75.9118 640.189 74.4519C640.694 74.2609 641.212 74.0563 641.717 73.8516C641.676 74.4792 641.608 75.175 641.526 75.8163C641.267 78.4358 640.858 81.0281 640.776 83.6612C640.708 86.158 640.503 88.6547 640.339 91.1515C640.053 97.2091 640.053 103.267 639.862 109.324C639.807 113.186 639.371 117.047 639.521 120.908C639.562 121.726 639.589 122.518 639.671 123.35C639.671 123.65 639.739 124.005 640.053 124.128C640.326 124.196 641.704 124.237 642.154 124.25C644.923 124.332 647.679 123.909 650.435 123.623C653.137 123.35 655.865 123.309 658.581 123.473C662.987 123.718 667.435 124.646 671.842 123.868C673.343 123.623 676.699 123.336 676.74 122.968C677.081 119.23 676.958 115.464 676.617 111.712L676.59 111.671Z" fill="#404040" stroke="white" stroke-width="1.36434" stroke-miterlimit="10"/>
<path vector-effect="non-scaling-stroke" d="M664.979 33.9854C664.979 33.9854 665.007 34.0403 665.034 34.054C665.034 34.0678 665.034 34.0815 665.034 34.0952C665.034 34.0952 665.034 34.0952 665.021 34.0952C665.021 34.054 664.993 34.0129 664.979 33.9717V33.9854Z" fill="#020202" stroke="white" stroke-width="1.36434" stroke-linecap="round" stroke-linejoin="round"/>
<path vector-effect="non-scaling-stroke" d="M694.19 67.3573C696.523 57.534 692.566 51.5446 686.986 44.1089C685.322 41.885 684.981 39.1564 683.534 36.9188C681.529 33.8218 678.036 31.7344 675.539 29.033C674.939 28.3781 674.475 27.5868 673.725 27.082C673.111 26.659 672.374 26.4407 671.665 26.2497C670.478 25.9223 669.25 25.9495 668.035 25.9495C666.221 25.895 664.338 26.5226 663.26 28.0643C661.978 27.041 661.528 26.0041 658.24 26.1133C657.803 25.9086 656.248 26.0723 655.702 26.1406C653.874 26.3725 652.346 27.9551 651.813 29.1285C651.813 29.1557 651.813 29.183 651.813 29.2103C652.728 30.793 654.774 31.2841 655.606 31.748C656.398 32.0618 657.216 32.2801 658.049 32.4575C658.076 33.1669 658.199 33.9992 658.758 34.5176C659.208 34.3266 659.604 34.2857 659.945 34.5722C660.136 34.7359 660.163 35.1179 660.163 35.3499C660.163 35.8819 659.931 36.5778 659.29 36.5641C659.154 36.5641 659.004 36.4686 658.867 36.5095C658.799 36.5368 658.744 36.5778 658.703 36.6187C658.608 36.7142 658.567 36.8506 658.553 36.9734C658.512 37.2736 658.608 37.601 658.717 37.8875C658.772 38.024 658.867 38.2286 658.949 38.3378C659.154 38.6516 659.413 38.9517 659.658 39.2246C659.918 39.5111 660.6 39.9477 660.941 40.1114C665.812 37.9967 665.28 33.2897 665.075 32.4847C665.198 32.553 665.307 32.6348 665.402 32.744C665.566 32.935 665.675 33.1669 665.784 33.3852C666.453 34.8041 666.726 36.4686 667.026 37.9967C667.394 39.8931 667.544 41.8305 667.926 43.7133C668.963 50.1666 669.591 54.9964 673.425 60.5492C675.007 62.9777 677.217 66.7024 679.864 67.7666C682.115 68.6807 684.53 69.0218 686.822 69.7721C689.087 70.5225 692.921 71.9005 693.822 68.6943C693.944 68.2441 694.067 67.7939 694.176 67.33L694.19 67.3573Z" fill="#404040" stroke="white" stroke-width="1.36434" stroke-miterlimit="10"/>
<path vector-effect="non-scaling-stroke" d="M641.923 73.9337C641.841 73.9337 641.773 73.8791 641.745 73.7973C641.718 73.7018 641.773 73.6063 641.868 73.579C641.923 73.5653 647.967 71.9008 653.383 66.7846C653.451 66.7163 653.56 66.7163 653.629 66.7846C653.697 66.8528 653.697 66.9619 653.629 67.0301C648.144 72.201 642.032 73.8928 641.964 73.9064C641.95 73.9064 641.936 73.9064 641.923 73.9064V73.9337Z" fill="#020202" stroke="white" stroke-width="1.36434" stroke-linecap="round" stroke-linejoin="round"/>
<path vector-effect="non-scaling-stroke" d="M635.987 59.8263C635.987 59.8263 635.864 59.7853 635.823 59.7308C635.782 59.6489 635.823 59.5398 635.891 59.4852C635.959 59.4442 643.081 55.706 646.424 53.9187C646.506 53.8777 646.615 53.9187 646.669 53.9869C646.71 54.0688 646.669 54.1779 646.601 54.2325C643.245 56.0198 636.137 59.7717 636.069 59.8126C636.041 59.8263 636.014 59.8263 635.987 59.8263Z" fill="#020202" stroke="white" stroke-width="1.36434" stroke-linecap="round" stroke-linejoin="round"/>
<path vector-effect="non-scaling-stroke" d="M197.215 475.759V502.172H233.82C233.82 502.172 234.761 496.033 227.312 490.316C221.023 485.487 217.816 481.421 216.739 475.759C215.647 470.083 197.215 475.759 197.215 475.759Z" fill="#404040" stroke="white" stroke-width="1.36434" stroke-miterlimit="10"/>
<path vector-effect="non-scaling-stroke" d="M197.215 502.172H233.82C233.82 502.172 234.584 497.22 229.331 492.062H197.215V502.172Z" fill="#020202" stroke="white" stroke-width="1.36434" stroke-miterlimit="10"/>
<path vector-effect="non-scaling-stroke" d="M254.123 475.759V502.172H290.728C290.728 502.172 291.669 496.033 284.22 490.316C277.93 485.487 274.724 481.421 273.646 475.759C272.555 470.083 254.123 475.759 254.123 475.759Z" fill="#404040" stroke="white" stroke-width="1.36434" stroke-miterlimit="10"/>
<path vector-effect="non-scaling-stroke" d="M254.123 502.172H290.728C290.728 502.172 291.492 497.22 286.239 492.062H254.123V502.172Z" fill="#020202" stroke="white" stroke-width="1.36434" stroke-miterlimit="10"/>
<path vector-effect="non-scaling-stroke" d="M435.034 4.5165L326.609 0.723633L345.724 36.5376L243.999 98.0966L215.416 44.5462L42.4312 146.79L60.1949 180.052L201.922 96.7322L230.519 150.283L363.488 69.8138L382.616 105.641L435.034 4.5165Z" fill="#A100FF" stroke="white" stroke-width="1.36434" stroke-miterlimit="10"/>
<path vector-effect="non-scaling-stroke" d="M275.284 146.859C275.284 146.859 280.877 127.24 257.029 133.502C257.029 133.502 229.974 118.03 224.667 141.524C222.893 149.396 218.459 156.286 212.169 160.83C190.776 176.301 150.774 212.142 189.48 241.981C204.652 253.673 225.021 254.082 240.739 243.222C254.068 234.013 267.739 220.724 266.429 205.512L275.284 146.859Z" fill="#404040" stroke="white" stroke-width="1.36434" stroke-miterlimit="10"/>
<path vector-effect="non-scaling-stroke" d="M196.288 481.394L222.06 481.053C223.875 481.025 225.771 479.661 226.139 477.778L248.146 329.174L250.015 385.167C250.547 392.725 250.302 399.861 250.206 407.433L248.337 475.186C248.269 476.305 249.101 477.274 250.152 477.274L277.78 477.451C279.185 477.519 280.372 476.359 280.413 474.859L282.855 380.105L285.093 286.675L209.276 286.43L192.331 476.851C192.113 479.32 193.955 481.435 196.274 481.394H196.288Z" fill="#020202" stroke="white" stroke-width="1.36434" stroke-miterlimit="10"/>
<path vector-effect="non-scaling-stroke" d="M207.325 289.677L210.463 228.814L185.55 178.238C181.007 169.015 178.019 158.782 177.009 148.359L174.13 116.733C174.185 115.587 181.853 114.537 182.93 114.537L192.153 114.291C193.081 114.291 193.859 116.815 194.104 117.77L199.453 147.936C201.144 154.798 203.996 161.279 207.87 167.05L220.532 185.878C220.968 186.533 221.719 186.833 222.455 186.669L234.857 183.818C237.067 183.313 239.305 183.054 241.556 183.054H249.278C251.161 183.054 253.044 183.231 254.899 183.586L263.754 185.278C264.532 185.428 265.323 185.032 265.719 184.295L280.822 156.081C282.036 153.816 283.032 151.415 283.81 148.932L293.142 118.821C293.415 117.934 294.192 117.333 295.079 117.333H306.43C307.604 117.333 309.064 118.384 308.995 119.639L305.844 152.179C304.875 156.34 302.856 160.269 301.464 164.076L281.995 217.34L286.511 289.063C286.607 290.523 285.979 291.914 284.847 292.76C279.335 296.867 259.906 306.704 210.326 293.961C208.498 293.483 207.229 291.683 207.338 289.677H207.325Z" fill="#202020" stroke="white" stroke-width="1.36434" stroke-miterlimit="10"/>
<path vector-effect="non-scaling-stroke" d="M263.482 157.172C263.4 158.523 263.263 160.01 263.045 161.552C262.295 166.6 260.562 172.153 256.646 174.759C255.814 175.318 254.873 175.741 253.822 176C253.549 176.068 253.276 176.109 252.99 176.164L253.317 183.286C247.683 193.586 243.972 193.737 238.269 183.286L239.469 173.19C239.647 172.535 239.483 171.825 239.033 171.348C237.75 169.983 236.59 168.251 235.663 166.054C234.326 162.902 233.452 158.796 233.412 153.448C233.412 152.875 233.412 152.302 233.412 151.701C233.412 151.701 232.893 149.505 235.172 150.746C239.292 152.997 240.015 145.657 253.126 149.204C256.578 150.132 263.686 153.461 263.468 157.172H263.482Z" fill="#020202" stroke="white" stroke-width="1.36434" stroke-miterlimit="10"/>
<path vector-effect="non-scaling-stroke" d="M299.254 108.465C298.722 109.871 298.313 110.771 298.313 110.771C292.692 101.152 290.604 104.836 290.604 104.836C289.513 111.412 296.43 117.906 296.43 117.906L307.413 119.093C309.459 109.297 309.65 104.44 309.623 102.571L299.268 108.465H299.254Z" fill="#020202" stroke="white" stroke-width="1.36434" stroke-miterlimit="10"/>
<path vector-effect="non-scaling-stroke" d="M188.225 104.782C187.924 105.26 187.611 105.764 187.297 106.31C187.297 106.31 181.348 93.1578 183.818 86.4316C183.818 86.4316 175.072 87.0183 174.199 95.6273C174.199 95.6273 173.462 100.512 176.696 116.011L189.493 114.633C189.493 114.633 197.134 107.456 196.356 100.007L188.225 104.796V104.782Z" fill="#020202" stroke="white" stroke-width="1.36434" stroke-miterlimit="10"/>
<path vector-effect="non-scaling-stroke" d="M179.411 98.6833C179.411 98.6833 177.282 90.6064 179.411 87.7686Z" fill="#020202"/>
<path vector-effect="non-scaling-stroke" d="M179.411 98.6833C179.411 98.6833 177.282 90.6064 179.411 87.7686" stroke="white" stroke-width="1.36434" stroke-miterlimit="10"/>
<path vector-effect="non-scaling-stroke" d="M229.741 147.472L231.692 159.997L235.321 156.381L240.574 152.138L245.186 147.554L250.438 150.31L256.701 155.33L265.773 157.814L264.75 143.829" fill="#404040"/>
<path vector-effect="non-scaling-stroke" d="M229.741 147.472L231.692 159.997L235.321 156.381L240.574 152.138L245.186 147.554L250.438 150.31L256.701 155.33L265.773 157.814L264.75 143.829" stroke="white" stroke-width="1.36434" stroke-miterlimit="10"/>
<path vector-effect="non-scaling-stroke" fill-rule="evenodd" clip-rule="evenodd" d="M477.369 295.203C477.532 297.086 478.487 300.578 482.921 304.085L486.441 306.868L487.042 306.5L488.897 309.133C491.803 313.239 495.064 315.463 498.625 315.777C502.718 316.132 507.452 313.499 510.986 308.901L511.027 308.846C513.756 305.463 515.215 301.902 516.771 298.122C517.153 297.195 517.535 296.281 517.93 295.339C519.527 289.964 521.764 284.138 527.126 277.903C527.044 277.78 526.962 277.671 526.908 277.644C515.27 271.122 493.427 273.537 485.555 280.1C480.698 284.165 477.928 288.695 477.519 293.252L477.341 295.216L477.369 295.203Z" fill="#A100FF" stroke="white" stroke-width="1.36434" stroke-miterlimit="10"/>
<path vector-effect="non-scaling-stroke" d="M471.174 314.999C483.985 309.378 498.025 301.11 504.478 288.148" stroke="white" stroke-width="1.36434" stroke-miterlimit="10"/>
<path vector-effect="non-scaling-stroke" d="M488.187 340.404C467.804 320.02 417.842 304.099 418.005 321.085C418.101 331.713 461.937 332.395 461.937 332.395L488.187 340.39V340.404Z" fill="#404040" stroke="white" stroke-width="1.36434" stroke-miterlimit="10"/>
<path vector-effect="non-scaling-stroke" d="M398.14 356.148C381.632 348.617 355.3 347.279 346.418 347.034C344.495 346.979 342.953 345.288 343.212 343.377C344.058 337.129 351.521 325.805 397.745 335.178L398.14 356.148Z" fill="#404040" stroke="white" stroke-width="1.36434" stroke-miterlimit="10"/>
<path vector-effect="non-scaling-stroke" d="M393.079 351.674L356.706 328.794C354.236 327.239 353.827 323.869 355.805 321.727C359.189 318.07 367.075 315.669 377.649 320.253C394.907 327.73 393.079 351.674 393.079 351.674Z" fill="#404040" stroke="white" stroke-width="1.36434" stroke-miterlimit="10"/>
<path vector-effect="non-scaling-stroke" d="M442.045 386.492C442.045 386.492 442.004 386.533 441.991 386.547C432.263 375.618 420.202 366.845 407.063 360.419C402.493 358.182 397.704 356.176 393.857 352.834C388.508 348.181 385.52 341.455 382.696 334.947C379.326 327.184 375.956 319.421 372.587 311.658C372.095 310.539 371.563 309.148 372.259 307.988C373.473 305.969 377.034 306.596 378.944 306.951C381.346 307.388 383.624 308.397 385.643 309.761C389.027 312.067 391.66 315.301 393.966 318.684C396.926 323.023 399.409 327.675 401.824 332.341C402.998 334.62 404.226 336.994 406.258 338.576C409.724 341.278 414.731 341.018 418.797 339.368C422.862 337.717 426.314 334.879 430.066 332.587C438.989 327.143 449.781 324.824 460.15 326.12C469.591 327.307 478.951 331.509 485.895 338.058C486.645 338.767 487.45 339.654 487.205 340.773C486.946 341.974 485.636 342.901 484.817 343.72C482.784 345.766 480.738 347.827 478.705 349.873C474.626 353.966 470.546 358.059 466.453 362.152C458.335 370.27 450.217 378.374 442.072 386.465L442.045 386.492Z" fill="#404040" stroke="white" stroke-width="1.36434" stroke-miterlimit="10"/>
<path vector-effect="non-scaling-stroke" d="M478.678 349.9C478.678 349.9 471.597 322.34 424.363 336.338Z" fill="#404040"/>
<path vector-effect="non-scaling-stroke" d="M478.678 349.9C478.678 349.9 471.597 322.34 424.363 336.338" stroke="white" stroke-width="1.36434" stroke-miterlimit="10"/>
<path vector-effect="non-scaling-stroke" d="M509.395 361.606L488.19 340.401L442.076 386.516L463.281 407.72L509.395 361.606Z" fill="#020202" stroke="white" stroke-width="1.36434" stroke-miterlimit="10"/>
<path vector-effect="non-scaling-stroke" d="M552.434 500.059C554.03 501.423 556.063 502.174 558.15 502.174H703.807V481.545C703.807 442.484 672.141 410.818 633.08 410.818H582.627C580.744 410.818 578.902 410.217 577.387 409.085L516.21 363.761C512.704 361.169 507.833 361.524 504.75 364.607L468.95 400.408C458.69 410.667 460.682 420.15 468.868 428.527C469.086 428.745 552.461 500.045 552.461 500.045L552.434 500.059Z" fill="#202020" stroke="white" stroke-width="1.36434" stroke-miterlimit="10"/>
<path vector-effect="non-scaling-stroke" fill-rule="evenodd" clip-rule="evenodd" d="M387.527 302.325C389.382 301.998 392.779 300.743 395.89 296.009L398.346 292.257L397.923 291.697L400.379 289.623C404.212 286.376 406.15 282.925 406.15 279.35C406.15 275.243 403.121 270.755 398.223 267.63L398.155 267.589C394.553 265.174 390.869 264.015 386.967 262.8C385.999 262.5 385.057 262.2 384.102 261.886C378.604 260.768 372.601 259.049 365.929 254.246C365.82 254.342 365.711 254.423 365.684 254.492C360.199 266.662 364.51 288.205 371.728 295.476C376.203 299.965 380.964 302.325 385.521 302.325H387.499H387.527Z" fill="#A100FF" stroke="white" stroke-width="1.36434" stroke-miterlimit="10"/>
<path vector-effect="non-scaling-stroke" fill-rule="evenodd" clip-rule="evenodd" d="M444.12 289.896C449.618 289.896 456.003 285.967 462.102 278.831C471.134 267.725 475.377 237.696 467.505 221.665C467.396 221.556 467.259 221.447 467.15 221.365C466.973 221.365 466.754 221.393 466.563 221.447C459.414 227.805 451.283 230.138 443.424 232.389C433.997 235.336 426.916 237.915 421.649 244.163C415.619 251.217 413.231 257.507 414.541 262.868C415.81 267.48 419.385 271.6 424.883 274.779L427.625 276.362L427.939 275.802L430.968 280.891C433.956 285.899 437.83 289.009 442.224 289.91H444.134L444.12 289.896Z" fill="#A100FF" stroke="white" stroke-width="1.36434" stroke-miterlimit="10"/>
<path vector-effect="non-scaling-stroke" d="M455.689 242.977C455.689 242.977 419.343 274.07 411.539 314.345C411.539 314.345 398.714 283.961 378.126 275.912" stroke="white" stroke-width="1.36434" stroke-miterlimit="10"/>
<path vector-effect="non-scaling-stroke" fill-rule="evenodd" clip-rule="evenodd" d="M319.255 292.979C320.455 291.52 322.202 288.354 321.465 282.733L320.878 278.285L320.182 278.135L320.687 274.956C321.465 269.99 320.687 266.116 318.354 263.401C315.68 260.29 310.441 258.871 304.697 259.703H304.615C300.304 260.235 296.757 261.777 293.019 263.401C292.091 263.796 291.177 264.192 290.249 264.574C285.351 267.316 279.689 269.936 271.503 270.659C271.476 270.809 271.462 270.932 271.476 271C275.268 283.797 292.596 297.304 302.814 298.082C309.131 298.56 314.275 297.25 317.74 294.262L319.241 292.979H319.255Z" fill="#A100FF" stroke="white" stroke-width="1.36434" stroke-miterlimit="10"/>
<path vector-effect="non-scaling-stroke" d="M337.496 283.115C324.398 278.203 308.572 274.329 294.901 279.117" stroke="white" stroke-width="1.36434" stroke-miterlimit="10"/>
<path vector-effect="non-scaling-stroke" fill-rule="evenodd" clip-rule="evenodd" d="M383.543 396.205C382.356 395.223 379.763 393.804 375.193 394.391L371.564 394.868L371.441 395.427L368.849 395.018C364.797 394.377 361.631 395.018 359.435 396.915C356.897 399.098 355.737 403.368 356.406 408.048V408.102C356.843 411.622 358.084 414.501 359.407 417.571C359.735 418.321 360.049 419.071 360.362 419.835C362.6 423.833 364.728 428.458 365.315 435.13C365.438 435.157 365.533 435.171 365.588 435.157C376.025 432.074 387.049 417.939 387.69 409.617C388.086 404.473 387.008 400.271 384.58 397.447L383.529 396.232L383.543 396.205Z" fill="#A100FF" stroke="white" stroke-width="1.36434" stroke-miterlimit="10"/>
<path vector-effect="non-scaling-stroke" d="M375.494 381.334C371.482 392.017 368.317 404.91 372.219 416.07" stroke="white" stroke-width="1.36434" stroke-miterlimit="10"/>
<path vector-effect="non-scaling-stroke" d="M128.562 334.399C131.714 324.876 140.664 318.013 151.238 318.013C152.725 318.013 154.185 318.163 155.604 318.422C157.855 315.721 160.856 313.661 164.295 312.556C166.382 300.877 176.56 292.022 188.825 292.022C200.791 292.022 210.791 300.468 213.192 311.724C213.697 311.683 214.216 311.655 214.734 311.655C221.133 311.655 226.781 314.862 230.179 319.759C233.221 317.085 237.191 315.462 241.557 315.462C251.08 315.462 258.802 323.198 258.802 332.721C258.802 333.28 258.775 333.839 258.721 334.399H128.59H128.562Z" fill="#404040" stroke="white" stroke-width="1.36434" stroke-miterlimit="10"/>
<path vector-effect="non-scaling-stroke" d="M158.728 343.458C154.908 331.902 144.034 323.566 131.209 323.566C129.394 323.566 127.634 323.743 125.915 324.057C123.173 320.769 119.53 318.272 115.369 316.935C112.845 302.773 100.484 292.009 85.5991 292.009C70.7142 292.009 58.9399 302.255 56.0202 315.926C55.4063 315.871 54.7787 315.844 54.1511 315.844C46.388 315.844 39.5253 319.732 35.405 325.667C31.7213 322.42 26.8916 320.455 21.5979 320.455C10.042 320.455 0.668945 329.842 0.668945 341.412C0.668945 342.094 0.709876 342.776 0.764449 343.444H158.7L158.728 343.458Z" fill="#020202" stroke="white" stroke-width="1.36434" stroke-miterlimit="10"/>
<path vector-effect="non-scaling-stroke" d="M632.972 490.548C637.01 478.337 648.498 469.523 662.046 469.523C663.956 469.523 665.825 469.714 667.64 470.042C670.532 466.576 674.379 463.929 678.786 462.524C681.46 447.557 694.517 436.179 710.248 436.179C725.597 436.179 738.421 447.012 741.505 461.46C742.16 461.405 742.815 461.378 743.47 461.378C751.683 461.378 758.928 465.485 763.28 471.761C767.182 468.336 772.284 466.249 777.878 466.249C790.103 466.249 799.994 476.167 799.994 488.392C799.994 489.115 799.953 489.838 799.885 490.548H632.958H632.972Z" fill="#404040" stroke="white" stroke-width="1.36434" stroke-miterlimit="10"/>
<path vector-effect="non-scaling-stroke" d="M671.664 502.172C666.766 487.355 652.823 476.659 636.369 476.659C634.049 476.659 631.785 476.877 629.574 477.286C626.068 473.07 621.388 469.878 616.054 468.159C612.807 449.986 596.953 436.192 577.866 436.192C558.779 436.192 543.675 449.345 539.924 466.876C539.132 466.808 538.341 466.767 537.536 466.767C527.576 466.767 518.776 471.761 513.496 479.374C508.762 475.212 502.568 472.688 495.774 472.688C480.943 472.688 468.923 484.722 468.923 499.566C468.923 500.453 468.964 501.312 469.046 502.172H671.651H671.664Z" fill="#020202" stroke="white" stroke-width="1.36434" stroke-miterlimit="10"/>
<path vector-effect="non-scaling-stroke" d="M153.337 448.909L154.088 460.451L165.18 457.191" fill="black"/>
<path vector-effect="non-scaling-stroke" d="M153.337 448.909L154.088 460.451L165.18 457.191" stroke="white" stroke-width="1.36434" stroke-linecap="round" stroke-linejoin="round"/>
<path vector-effect="non-scaling-stroke" d="M55.4053 393.641L66.4974 390.38L67.2477 401.922" fill="black"/>
<path vector-effect="non-scaling-stroke" d="M55.4053 393.641L66.4974 390.38L67.2477 401.922" stroke="white" stroke-width="1.36434" stroke-linecap="round" stroke-linejoin="round"/>
<path vector-effect="non-scaling-stroke" d="M146.325 468.269C127.401 484.205 99.4461 486.129 78.217 471.285C52.8812 453.575 46.7144 418.676 64.4235 393.34" fill="black"/>
<path vector-effect="non-scaling-stroke" d="M146.325 468.269C127.401 484.205 99.4461 486.129 78.217 471.285C52.8812 453.575 46.7144 418.676 64.4235 393.34" stroke="white" stroke-width="1.36434" stroke-linecap="round" stroke-linejoin="round"/>
<path vector-effect="non-scaling-stroke" d="M74.2744 382.548C93.1978 366.626 121.139 364.703 142.369 379.547C167.704 397.256 173.871 432.156 156.162 457.491" fill="black"/>
<path vector-effect="non-scaling-stroke" d="M74.2744 382.548C93.1978 366.626 121.139 364.703 142.369 379.547C167.704 397.256 173.871 432.156 156.162 457.491" stroke="white" stroke-width="1.36434" stroke-linecap="round" stroke-linejoin="round"/>
</g>
<defs>
<clipPath id="clip0_20_13717">
<rect width="802" height="502.855" fill="white"/>
</clipPath>
</defs>
</svg>
