<svg width="802" height="535" viewBox="0 0 802 535" fill="none" xmlns="http://www.w3.org/2000/svg">
<g clip-path="url(#clip0_20_13875)">
<path vector-effect="non-scaling-stroke" d="M542.049 172.533C559.326 155.256 587.352 155.256 604.643 172.533C621.919 189.809 621.919 217.836 604.643 235.126L542.049 297.72L479.456 235.126C462.179 217.85 462.179 189.823 479.456 172.533C496.732 155.256 524.759 155.256 542.049 172.533Z" fill="#020202" stroke="white" stroke-width="1.37993" stroke-miterlimit="10"/>
<path vector-effect="non-scaling-stroke" d="M473.632 14.8613H421.443V67.0502H473.632V14.8613Z" stroke="white" stroke-width="1.37993" stroke-miterlimit="10"/>
<path vector-effect="non-scaling-stroke" d="M525.822 14.8613H473.633V67.0502H525.822V14.8613Z" fill="#404040"/>
<path vector-effect="non-scaling-stroke" d="M473.632 67.0498H421.443V119.239H473.632V67.0498Z" fill="#202020"/>
<path vector-effect="non-scaling-stroke" d="M525.822 14.8613H473.633V67.0502H525.822V14.8613Z" stroke="white" stroke-width="1.37993" stroke-miterlimit="10"/>
<path vector-effect="non-scaling-stroke" d="M473.632 67.0498H421.443V119.239H473.632V67.0498Z" stroke="white" stroke-width="1.37993" stroke-miterlimit="10"/>
<path vector-effect="non-scaling-stroke" d="M421.444 67.0498H369.255V119.239H421.444V67.0498Z" stroke="white" stroke-width="1.37993" stroke-miterlimit="10"/>
<path vector-effect="non-scaling-stroke" d="M525.822 67.0498H473.633V119.239H525.822V67.0498Z" stroke="white" stroke-width="1.37993" stroke-miterlimit="10"/>
<path vector-effect="non-scaling-stroke" d="M525.504 67.0664H577.692V14.8775L525.504 14.8775V67.0664Z" fill="#202020" stroke="white" stroke-width="1.37993" stroke-miterlimit="10"/>
<path vector-effect="non-scaling-stroke" d="M682.07 119.254H734.259V67.065H682.07V119.254Z" fill="#202020" stroke="white" stroke-width="1.37993" stroke-miterlimit="10"/>
<path vector-effect="non-scaling-stroke" d="M369.254 78.1871C375.412 78.1871 380.404 73.2013 380.404 67.0511C380.404 60.9008 375.412 55.915 369.254 55.915C363.096 55.915 358.104 60.9008 358.104 67.0511C358.104 73.2013 363.096 78.1871 369.254 78.1871Z" fill="#020202" stroke="white" stroke-width="1.37993" stroke-miterlimit="10"/>
<path vector-effect="non-scaling-stroke" d="M473.646 25.9986C479.804 25.9986 484.796 21.0128 484.796 14.8626C484.796 8.71233 479.804 3.72656 473.646 3.72656C467.489 3.72656 462.497 8.71233 462.497 14.8626C462.497 21.0128 467.489 25.9986 473.646 25.9986Z" fill="#020202" stroke="white" stroke-width="1.37993" stroke-miterlimit="10"/>
<path vector-effect="non-scaling-stroke" d="M577.403 33.6021C583.561 33.6021 588.553 28.6163 588.553 22.4661C588.553 16.3158 583.561 11.3301 577.403 11.3301C571.245 11.3301 566.253 16.3158 566.253 22.4661C566.253 28.6163 571.245 33.6021 577.403 33.6021Z" fill="#020202" stroke="white" stroke-width="1.37993" stroke-miterlimit="10"/>
<path vector-effect="non-scaling-stroke" d="M782.902 227.838C786.462 218.068 789.07 206.904 789.857 194.374C792.713 148.657 733.473 102.112 733.473 102.112L717.328 101.257L733.473 207.525L730.934 216.219C740.662 221.504 762.506 231.522 782.902 227.838Z" fill="#202020" stroke="white" stroke-width="1.37993" stroke-miterlimit="10"/>
<path vector-effect="non-scaling-stroke" d="M730.934 216.219L717.328 262.695C717.328 262.695 740.648 283.035 750.294 275.362C757.304 269.788 773.477 253.711 782.902 227.838C762.506 231.522 740.662 221.504 730.934 216.219Z" fill="#020202" stroke="white" stroke-width="1.37993" stroke-miterlimit="10"/>
<path vector-effect="non-scaling-stroke" d="M657.563 262.71H756.269L775.602 175.595H676.896L657.563 262.71Z" fill="#000002" stroke="white" stroke-width="1.37993" stroke-miterlimit="10"/>
<path vector-effect="non-scaling-stroke" d="M595.149 294.67C617.062 231.428 636.354 166.516 658.212 103.895C658.777 102.267 658.778 101.77 662.49 101.301C697.015 100.169 733.459 102.115 733.459 102.115L737.806 294.67H595.135H595.149Z" fill="#202020" stroke="white" stroke-width="1.37993" stroke-miterlimit="10"/>
<path vector-effect="non-scaling-stroke" d="M662.489 101.3L580.991 111.47C580.991 111.47 582.081 107.731 583.53 101.962C563.134 112.685 547.955 105.371 540.973 99.2578C532.79 111.208 525.297 126.277 528.54 138.324C534.943 162.072 586.096 176.741 660.143 155.338" fill="#202020"/>
<path vector-effect="non-scaling-stroke" d="M662.489 101.3L580.991 111.47C580.991 111.47 582.081 107.731 583.53 101.962C563.134 112.685 547.955 105.371 540.973 99.2578C532.79 111.208 525.297 126.277 528.54 138.324C534.943 162.072 586.096 176.741 660.143 155.338" stroke="white" stroke-width="1.37993" stroke-miterlimit="10"/>
<path vector-effect="non-scaling-stroke" d="M583.544 101.977C586.276 91.1028 590.25 73.0395 590.471 59.1574C590.816 37.9342 580.756 28.7024 577.1 30.11C573.443 31.5175 575.582 35.7815 577.1 39.4935C578.618 43.2055 579.39 46.4483 579.39 46.4483C579.39 46.4483 573.898 40.3904 569.772 47.2349C569.772 47.2349 563.397 40.7768 560.389 47.9386C560.389 47.9386 553.53 42.7363 550.646 51.0021C547.762 59.254 554.841 59.1574 554.841 59.1574C554.841 59.1574 554.966 72.5703 557.532 79.0008C557.532 79.0008 548.935 87.653 540.973 99.2581C547.956 105.371 563.135 112.685 583.53 101.963L583.544 101.977Z" fill="#020202" stroke="white" stroke-width="1.37993" stroke-miterlimit="10"/>
<path vector-effect="non-scaling-stroke" d="M677.986 75.2192L681.85 99.5198L672.273 101.424C672.273 101.424 673.86 105.191 708.758 103.439C734.204 102.155 694.835 61.627 694.835 61.627C694.835 61.627 686.735 67.0915 677.986 75.233V75.2192Z" fill="#020202" stroke="white" stroke-width="1.37993" stroke-miterlimit="10"/>
<path vector-effect="non-scaling-stroke" d="M666.988 24.2436C677.296 21.4147 683.671 19.3587 699.403 28.1764C713.712 36.1938 753.937 91.7083 759.526 104.21C765.128 116.713 764.025 132.195 755.855 143.152C747.672 154.122 732.41 159.642 719.315 155.489C707.765 151.832 699.209 141.579 695.028 130.25C690.847 118.934 690.488 106.598 690.999 94.5509C691.247 88.7138 691.661 71.9477 688.46 67.0352C686.459 63.9579 683.202 72.3065 680.139 70.278C674.785 66.7316 669.679 54.2708 662.586 49.5929C650.098 41.3685 655.631 27.3484 667.002 24.2298L666.988 24.2436Z" fill="#020202" stroke="white" stroke-width="1.37993" stroke-miterlimit="10"/>
<path vector-effect="non-scaling-stroke" d="M663.828 44.0456C662.462 59.9561 664.021 70.9404 668.327 75.8529C670.01 77.771 672.149 78.7922 674.674 78.9026C685.493 79.3717 688.542 71.2164 688.667 70.8714C688.749 70.6368 688.956 70.485 689.205 70.4712C692.917 70.2366 696.491 68.0701 697.926 65.2275C699.002 63.0748 698.795 60.7427 697.333 58.4934C696.449 57.1411 695.332 56.3821 693.924 56.1889C690.005 55.6508 685.313 59.694 685.272 59.7354C685.106 59.8734 684.886 59.9285 684.679 59.8596C680.608 58.5072 679.228 55.4024 677.682 48.9581C676.482 43.9352 666.27 43.9766 663.814 44.0594L663.828 44.0456Z" fill="#020202" stroke="white" stroke-width="1.37993" stroke-miterlimit="10"/>
<path vector-effect="non-scaling-stroke" d="M769.53 103.274H800.468L801.089 103.895V294.063L800.468 294.67H573.967L573.346 294.063V266.409" stroke="white" stroke-width="1.37993" stroke-miterlimit="10"/>
<path vector-effect="non-scaling-stroke" d="M332.507 119.24H0.689941V520.661H332.507V119.24Z" fill="#020202" stroke="white" stroke-width="1.37993" stroke-miterlimit="10"/>
<path vector-effect="non-scaling-stroke" d="M228.323 449.402L179.501 519.088H304.633C308.124 512.175 312.857 502.777 317.921 492.566C337.268 453.528 330.879 406.651 301.762 374.237C259.757 327.471 194.735 269.804 166.957 243.075C161.658 237.969 157.505 234.271 154.828 232.367C129.271 214.124 66.1812 276.883 66.1812 276.883L143.94 365.281L228.336 449.402H228.323Z" fill="#020202" stroke="white" stroke-width="1.37993" stroke-miterlimit="10"/>
<path vector-effect="non-scaling-stroke" d="M228.323 449.401L248.373 467.492Z" fill="#020202"/>
<path vector-effect="non-scaling-stroke" d="M228.323 449.401L248.373 467.492" stroke="white" stroke-width="1.37993" stroke-miterlimit="10"/>
<path vector-effect="non-scaling-stroke" d="M93.4486 519.088H245.089L105.758 266.216L35.0776 226.336C34.4015 228.171 6.45793 255.163 27.2396 328.547C43.2192 384.945 78.1176 478.697 93.4209 519.088H93.4486Z" fill="#020202" stroke="white" stroke-width="1.37993" stroke-miterlimit="10"/>
<path vector-effect="non-scaling-stroke" d="M93.4488 519.695C93.2004 519.695 92.9658 519.543 92.8692 519.294C78.3248 480.905 42.764 385.51 26.6603 328.699C14.3789 285.355 16.918 249.243 33.8359 227.04C34.1395 226.639 34.4569 226.212 34.5121 226.101C34.6501 225.798 35.0088 225.646 35.3262 225.77C35.6298 225.894 35.7954 226.225 35.6712 226.543C35.5746 226.791 35.34 227.109 34.8156 227.785C18.1461 249.684 15.6761 285.397 27.847 328.354C43.9232 385.11 79.4839 480.477 94.0145 518.839C94.1387 519.156 93.9731 519.515 93.6557 519.639C93.5868 519.667 93.504 519.681 93.435 519.681L93.4488 519.695Z" fill="#020202" stroke="white" stroke-width="1.37993" stroke-miterlimit="10"/>
<path vector-effect="non-scaling-stroke" d="M148.908 301.39C148.908 301.39 75.0957 327.029 13.2473 246.166C6.56846 237.431 7.20322 225.149 14.7928 217.201C48.601 181.82 141.277 87.7914 172.201 86.6875C210.301 85.3351 283.906 167.234 283.906 167.234L256.653 214.027L235.112 195.164L148.922 301.39H148.908Z" fill="#202020" stroke="white" stroke-width="1.37993" stroke-miterlimit="10"/>
<path vector-effect="non-scaling-stroke" d="M245.972 180.992L235.098 195.164Z" fill="#020202"/>
<path vector-effect="non-scaling-stroke" d="M245.972 180.992L235.098 195.164" stroke="white" stroke-width="1.37993" stroke-miterlimit="10"/>
<path vector-effect="non-scaling-stroke" d="M425.045 141.057H249.091V317.011H425.045V141.057Z" fill="#020202" stroke="white" stroke-width="1.37993" stroke-miterlimit="10"/>
<path vector-effect="non-scaling-stroke" d="M120.564 262.352C120.564 262.352 126.415 324.379 163.632 328.837C200.862 333.294 267.499 261.648 271.859 257.108C276.234 252.554 276.013 246.427 261.731 255.176C261.731 255.176 275.378 246.51 276.772 240.852C278.166 235.208 267.885 236.078 255.935 243.861C255.935 243.861 277.945 231.924 276.772 224.252C276.165 220.305 266.036 219.132 243.805 233.622C243.805 233.622 256.128 225.963 261.786 220.291C267.609 214.454 261.731 206.892 241.211 219.008C221.023 230.931 189.119 260.516 189.119 260.516L181.929 233.635C181.929 233.635 140.449 241.873 120.55 262.338L120.564 262.352Z" fill="#020202" stroke="white" stroke-width="1.37993" stroke-miterlimit="10"/>
<path vector-effect="non-scaling-stroke" d="M189.284 260.392L173.995 274.577Z" fill="#020202"/>
<path vector-effect="non-scaling-stroke" d="M189.284 260.392L173.995 274.577" stroke="white" stroke-width="1.37993" stroke-miterlimit="10"/>
<path vector-effect="non-scaling-stroke" d="M192.044 59.0879L164.018 91.668C158.816 97.7259 158.788 106.668 163.963 112.739C172.422 122.689 185.821 136.336 198.185 140.076C218.277 146.134 209.694 122.661 201.166 106.695C201.166 106.695 199.013 59.5433 192.058 59.0879H192.044Z" fill="#020202" stroke="white" stroke-width="1.37993" stroke-miterlimit="10"/>
<path vector-effect="non-scaling-stroke" d="M196.375 118.172L197.952 97.6583C197.98 97.3114 198.032 97.2123 198.073 97.4436C198.114 97.6748 198.126 98.1208 198.099 98.4676" fill="#020202"/>
<path vector-effect="non-scaling-stroke" d="M196.375 118.172L197.952 97.6583C197.98 97.3114 198.032 97.2123 198.073 97.4436C198.114 97.6748 198.126 98.1208 198.099 98.4676" stroke="white" stroke-width="1.37993" stroke-miterlimit="10"/>
<path vector-effect="non-scaling-stroke" d="M175.113 64.635C175.113 64.635 160.32 39.9343 163.618 34.6906C166.916 29.4468 173.029 32.0963 173.029 32.0963C173.029 32.0963 200.186 -9.8949 211.198 8.16835C211.198 8.16835 219.45 -4.45798 229.717 3.09022C239.983 10.6384 236.437 18.9318 229.192 24.1341C229.192 24.1341 235.264 37.4228 228.847 43.5221C222.431 49.6214 228.254 65.5457 232.739 67.6846C232.739 67.6846 244.537 98.8296 230.559 106.516C216.58 114.202 190.127 113.926 185.173 79.9936L175.099 64.6212L175.113 64.635Z" fill="#202020" stroke="white" stroke-width="1.37993" stroke-miterlimit="10"/>
<path vector-effect="non-scaling-stroke" d="M183.393 67.1599L185.187 80.007C185.187 80.007 171.856 82.9601 167.385 72.3208C163.287 62.5648 172.298 54.368 180.771 62.137C182.206 63.4479 183.13 65.2418 183.393 67.1737V67.1599Z" fill="#020202" stroke="white" stroke-width="1.37993" stroke-miterlimit="10"/>
<path vector-effect="non-scaling-stroke" d="M228.447 34.4697C228.447 34.4697 227.039 36.926 222.334 38.8717C218.594 40.4172 214.454 40.7898 210.453 40.1551C204.891 39.2719 194.859 38.2094 190.582 41.1072C187.049 43.5083 188.056 50.4493 188.305 59.0463C188.443 63.738 190.444 82.0359 194.652 84.3265C202.987 88.8527 209.818 91.2124 209.763 88.5767C209.404 72.9007 235.277 70.3203 235.995 79.207L228.447 34.4697Z" fill="#020202"/>
<path vector-effect="non-scaling-stroke" d="M228.447 34.4697L229.127 34.355C229.079 34.0676 228.855 33.8417 228.568 33.7905C228.281 33.7393 227.993 33.8739 227.848 34.1267L228.447 34.4697ZM222.334 38.8717L222.597 39.5094L222.597 39.5093L222.334 38.8717ZM210.453 40.1551L210.344 40.8365L210.344 40.8365L210.453 40.1551ZM190.582 41.1072L190.195 40.536L190.194 40.5366L190.582 41.1072ZM188.305 59.0463L187.615 59.0662L187.615 59.0665L188.305 59.0463ZM194.652 84.3265L194.323 84.9326L194.323 84.9329L194.652 84.3265ZM209.763 88.5767L210.452 88.5623L210.452 88.5609L209.763 88.5767ZM235.995 79.207L235.315 79.3218L236.683 79.1515L235.995 79.207ZM228.447 34.4697C227.848 34.1267 227.848 34.1264 227.849 34.1261C227.849 34.126 227.849 34.1257 227.849 34.1255C227.849 34.1252 227.849 34.1249 227.849 34.1246C227.85 34.124 227.85 34.1236 227.85 34.1233C227.85 34.1228 227.85 34.1228 227.85 34.1235C227.849 34.1247 227.847 34.1283 227.844 34.134C227.836 34.1455 227.824 34.1659 227.804 34.1943C227.766 34.2512 227.703 34.3406 227.611 34.4568C227.428 34.6892 227.131 35.0291 226.69 35.4313C225.809 36.2346 224.349 37.2918 222.07 38.2341L222.597 39.5093C225.024 38.5059 226.62 37.3622 227.62 36.4509C228.119 35.9958 228.467 35.6001 228.695 35.3111C228.809 35.1666 228.893 35.0489 228.95 34.9639C228.978 34.9214 229 34.887 229.016 34.8616C229.024 34.8489 229.03 34.8384 229.035 34.8302C229.038 34.8261 229.04 34.8226 229.041 34.8197C229.042 34.8183 229.043 34.817 229.044 34.8158C229.044 34.8152 229.044 34.8147 229.045 34.8142C229.045 34.8139 229.045 34.8136 229.045 34.8135C229.045 34.8131 229.045 34.8128 228.447 34.4697ZM222.07 38.2341C218.46 39.7259 214.451 40.0907 210.561 39.4736L210.344 40.8365C214.458 41.489 218.728 41.1085 222.597 39.5094L222.07 38.2341ZM210.561 39.4736C207.765 39.0296 203.827 38.5373 200.038 38.5233C198.144 38.5163 196.27 38.6287 194.586 38.9327C192.91 39.2354 191.376 39.736 190.195 40.536L190.969 41.6784C191.926 41.0295 193.25 40.5762 194.832 40.2907C196.406 40.0065 198.19 39.8964 200.033 39.9032C203.72 39.9168 207.579 40.3974 210.344 40.8365L210.561 39.4736ZM190.194 40.5366C188.129 41.9401 187.495 44.5975 187.336 47.7181C187.176 50.8636 187.492 54.8244 187.615 59.0662L188.994 59.0263C188.869 54.6712 188.557 50.8629 188.714 47.7884C188.872 44.689 189.502 42.6754 190.969 41.6778L190.194 40.5366ZM187.615 59.0665C187.685 61.4522 188.224 67.2363 189.274 72.7166C189.799 75.4566 190.457 78.1473 191.257 80.3095C191.658 81.3902 192.101 82.3589 192.593 83.1421C193.079 83.9161 193.648 84.5652 194.323 84.9326L194.982 83.7205C194.605 83.5152 194.19 83.0914 193.761 82.408C193.338 81.7338 192.933 80.8604 192.551 79.8303C191.789 77.7708 191.148 75.1643 190.63 72.457C189.592 67.0428 189.062 61.3321 188.994 59.026L187.615 59.0665ZM194.323 84.9329C198.506 87.2042 202.345 88.9516 205.155 89.7979C206.543 90.2161 207.762 90.4408 208.668 90.3474C209.125 90.3001 209.585 90.1639 209.934 89.8482C210.307 89.5109 210.463 89.0526 210.452 88.5623L209.073 88.5912C209.076 88.7598 209.031 88.8043 209.008 88.8248C208.962 88.8668 208.831 88.9432 208.526 88.9747C207.906 89.0387 206.907 88.8848 205.553 88.4767C202.877 87.6706 199.134 85.9751 194.982 83.7202L194.323 84.9329ZM210.452 88.5609C210.284 81.2027 216.259 76.8144 222.629 75.3533C225.798 74.6267 228.963 74.6575 231.343 75.3779C233.736 76.102 235.161 77.4481 235.307 79.2625L236.683 79.1515C236.47 76.5225 234.392 74.8587 231.743 74.0571C229.082 73.2518 225.666 73.2412 222.321 74.0083C215.665 75.5348 208.882 80.2747 209.073 88.5925L210.452 88.5609ZM236.675 79.0922L229.127 34.355L227.766 34.5845L235.315 79.3218L236.675 79.0922Z" fill="white"/>
<path vector-effect="non-scaling-stroke" d="M524.938 231.124H437.354V318.708H524.938V231.124Z" fill="#020202" stroke="white" stroke-width="1.37993" stroke-miterlimit="10"/>
<path vector-effect="non-scaling-stroke" d="M524.938 327.085H437.354V414.669H524.938V327.085Z" fill="#020202" stroke="white" stroke-width="1.37993" stroke-miterlimit="10"/>
<path vector-effect="non-scaling-stroke" d="M427.529 327.085H339.945V414.669H427.529V327.085Z" fill="#020202" stroke="white" stroke-width="1.37993" stroke-miterlimit="10"/>
<path vector-effect="non-scaling-stroke" d="M353.675 252.623H317.052L305.778 276.372H288.612L335.833 180.467H359.168L375.671 276.372H357.567L353.675 252.623ZM323.22 239.611H351.661L344.554 195.08L323.22 239.611Z" fill="#A100FF" stroke="white" stroke-width="1.37993" stroke-miterlimit="10"/>
<path vector-effect="non-scaling-stroke" d="M478.393 253.341H462.083V251.216H497.326V253.341H480.946V301.928H478.393V253.341Z" fill="white"/>
<path vector-effect="non-scaling-stroke" d="M385.635 398.481C382.088 398.481 378.804 397.819 375.782 396.494C372.76 395.169 370.138 393.348 367.944 391.03C365.75 388.711 364.025 386.007 362.769 382.916C361.514 379.825 360.893 376.499 360.893 372.953V372.387C360.893 368.799 361.514 365.432 362.769 362.313C364.025 359.195 365.764 356.49 367.985 354.186C370.207 351.895 372.801 350.087 375.782 348.762C378.763 347.438 382.005 346.775 385.497 346.775C388.988 346.775 392.231 347.424 395.211 348.721C398.192 350.018 400.772 351.812 402.98 354.117C405.188 356.421 406.899 359.112 408.155 362.203C409.411 365.294 410.032 368.62 410.032 372.166V372.732C410.032 376.32 409.411 379.687 408.155 382.805C406.899 385.924 405.188 388.642 403.008 390.961C400.828 393.279 398.261 395.114 395.28 396.453C392.3 397.791 389.084 398.467 385.635 398.467V398.481ZM385.635 396.356C388.795 396.356 391.706 395.749 394.356 394.549C397.005 393.334 399.296 391.678 401.242 389.581C403.174 387.469 404.691 384.986 405.782 382.115C406.872 379.245 407.41 376.14 407.41 372.773V372.207C407.41 368.937 406.872 365.901 405.782 363.086C404.691 360.271 403.187 357.801 401.242 355.704C399.296 353.592 396.991 351.936 394.328 350.736C391.651 349.521 388.712 348.928 385.497 348.928C382.281 348.928 379.328 349.535 376.638 350.736C373.947 351.95 371.628 353.592 369.683 355.676C367.737 357.76 366.233 360.243 365.143 363.128C364.053 366.012 363.514 369.116 363.514 372.428V372.994C363.514 376.306 364.066 379.383 365.184 382.226C366.288 385.068 367.847 387.538 369.835 389.65C371.822 391.761 374.167 393.403 376.858 394.59C379.549 395.777 382.488 396.37 385.648 396.37L385.635 396.356Z" fill="white"/>
<path vector-effect="non-scaling-stroke" d="M457.487 396.564L487.846 356.201H466.498L467.92 347.259H505.799L505.592 348.611L475.592 389.029H498.14L496.719 397.971H457.28L457.487 396.55V396.564Z" fill="#A100FF" stroke="white" stroke-width="1.37993" stroke-miterlimit="10"/>
<path vector-effect="non-scaling-stroke" d="M755.51 496.222L801.089 339.131H564.915L520.992 496.222H755.51Z" fill="#202020" stroke="white" stroke-width="1.37993" stroke-miterlimit="10"/>
<path vector-effect="non-scaling-stroke" d="M747.547 496.223L789.98 352.779H568.778L529.05 496.223H747.547Z" fill="#020202" stroke="white" stroke-width="1.37993" stroke-miterlimit="10"/>
<path vector-effect="non-scaling-stroke" d="M650.484 312.25H636.56V283.313V295.746C636.56 295.746 630.199 297.043 628.115 290.972C626.031 284.9 622.347 268.548 631.496 262.145C640.645 255.728 652.07 266.078 652.07 266.078L650.484 312.264V312.25Z" fill="#020202" stroke="white" stroke-width="1.37993" stroke-miterlimit="10"/>
<path vector-effect="non-scaling-stroke" d="M710.676 496.236H583.599V459.792C583.599 429.144 608.479 404.264 639.127 404.264H655.148C685.796 404.264 710.676 429.144 710.676 459.792V496.236Z" fill="#404040" stroke="white" stroke-width="1.37993" stroke-miterlimit="10"/>
<path vector-effect="non-scaling-stroke" d="M745.119 364.785L762.934 384.476C773.877 396.564 765.294 415.883 748.997 415.883H702.742V363.363L745.119 364.785Z" fill="#020202" stroke="white" stroke-width="1.37993" stroke-miterlimit="10"/>
<path vector-effect="non-scaling-stroke" d="M575.195 384.833L554.041 404.221C545.043 412.473 530.692 410.003 524.952 399.24L490.798 335.183C488.77 331.361 484.009 329.94 480.201 331.996L464.801 340.344C463.945 340.814 463.007 341.09 462.027 341.186L445.233 342.746C442.584 342.994 440.293 340.896 440.293 338.233C440.293 335.846 442.156 333.873 444.529 333.721L467.864 332.258L450.187 333.362L439.41 329.719C436.967 328.891 435.546 326.338 436.153 323.827C436.816 321.025 439.7 319.37 442.46 320.197L453.458 323.523L437.381 318.68L435.532 318.238C433.173 317.672 431.655 315.382 432.055 312.994C432.524 310.193 435.367 308.482 438.058 309.365L451.995 313.974L432.938 307.668C431.061 307.005 430.206 304.853 431.103 303.073C432.828 299.678 436.802 298.105 440.376 299.416L456.148 305.17L479.869 301.361C481.263 301.141 481.36 299.181 479.994 298.822L467.34 295.483C463.503 294.476 461.544 290.225 463.255 286.651C464.649 283.754 468.002 282.36 471.038 283.422L491.613 290.639C495.739 292.088 499.409 294.614 502.21 297.967L546.175 350.308L557.352 354.861L575.181 384.861L575.195 384.833Z" fill="#020202"/>
<path vector-effect="non-scaling-stroke" d="M453.458 323.523L442.46 320.197C439.7 319.37 436.816 321.025 436.153 323.827C435.546 326.338 436.967 328.891 439.41 329.719L450.187 333.362L467.864 332.258L444.529 333.721C442.156 333.873 440.293 335.846 440.293 338.233C440.293 340.896 442.584 342.994 445.233 342.746L462.027 341.186C463.007 341.09 463.945 340.814 464.801 340.344L480.201 331.996C484.009 329.94 488.77 331.361 490.798 335.183L524.952 399.24C530.692 410.003 545.043 412.473 554.041 404.221L575.195 384.833L575.181 384.861L557.352 354.861L546.175 350.308L502.21 297.967C499.409 294.614 495.739 292.088 491.613 290.639L471.038 283.422C468.002 282.36 464.649 283.754 463.255 286.651C461.544 290.225 463.503 294.476 467.34 295.483L479.994 298.822C481.36 299.181 481.263 301.141 479.869 301.361L456.148 305.17L440.376 299.416C436.802 298.105 432.828 299.678 431.103 303.073C430.206 304.853 431.061 307.005 432.938 307.668L451.995 313.974M453.458 323.523L469.465 322.488M453.458 323.523L437.381 318.68L435.532 318.238C433.173 317.672 431.655 315.382 432.055 312.994C432.524 310.193 435.367 308.482 438.058 309.365L451.995 313.974M451.995 313.974L471.121 313.077" stroke="white" stroke-width="1.37993" stroke-miterlimit="10"/>
<path vector-effect="non-scaling-stroke" d="M747.547 362.604C747.547 362.604 722.557 328.657 700.175 314.513C677.778 300.369 612.025 303.432 593.396 316.169C574.781 328.892 546.188 350.281 546.188 350.281L567.564 395.736L621.45 347.217L592.637 373.16L588.911 418.477H707.944L701.113 348.473L704.452 382.654L714.084 392.562L747.561 362.631L747.547 362.604Z" fill="#020202" stroke="white" stroke-width="1.37993" stroke-miterlimit="10"/>
<path vector-effect="non-scaling-stroke" d="M727.567 519.089H434.029C423.003 519.089 414.048 510.133 414.048 499.108V496.223L747.548 496.223V499.108C747.548 510.133 738.593 519.089 727.567 519.089Z" fill="#202020" stroke="white" stroke-width="1.37993" stroke-miterlimit="10"/>
<path vector-effect="non-scaling-stroke" d="M465.671 496.223H484.272V492.8H465.671V496.223Z" fill="#020202" stroke="white" stroke-width="1.37993" stroke-miterlimit="10"/>
<path vector-effect="non-scaling-stroke" d="M486.797 496.223H505.398V492.8H486.797V496.223Z" fill="#020202" stroke="white" stroke-width="1.37993" stroke-miterlimit="10"/>
<path vector-effect="non-scaling-stroke" d="M507.923 496.223H526.524V492.8H507.923V496.223Z" fill="#020202" stroke="white" stroke-width="1.37993" stroke-miterlimit="10"/>
<path vector-effect="non-scaling-stroke" d="M529.05 496.223H547.651V492.8H529.05V496.223Z" fill="#020202" stroke="white" stroke-width="1.37993" stroke-miterlimit="10"/>
<path vector-effect="non-scaling-stroke" d="M550.191 496.223H568.792V492.8H550.191V496.223Z" fill="#020202" stroke="white" stroke-width="1.37993" stroke-miterlimit="10"/>
<path vector-effect="non-scaling-stroke" d="M571.303 496.223H589.905V492.8H571.303V496.223Z" fill="#020202" stroke="white" stroke-width="1.37993" stroke-miterlimit="10"/>
<path vector-effect="non-scaling-stroke" d="M592.43 496.223H611.032V492.8H592.43V496.223Z" fill="#020202" stroke="white" stroke-width="1.37993" stroke-miterlimit="10"/>
<path vector-effect="non-scaling-stroke" d="M613.557 496.223H632.159V492.8H613.557V496.223Z" fill="#020202" stroke="white" stroke-width="1.37993" stroke-miterlimit="10"/>
<path vector-effect="non-scaling-stroke" d="M634.684 496.223H653.285V492.8H634.684V496.223Z" fill="#020202" stroke="white" stroke-width="1.37993" stroke-miterlimit="10"/>
<path vector-effect="non-scaling-stroke" d="M655.824 496.223H674.425V492.8H655.824V496.223Z" fill="#020202" stroke="white" stroke-width="1.37993" stroke-miterlimit="10"/>
<path vector-effect="non-scaling-stroke" d="M676.951 496.223H695.552V492.8H676.951V496.223Z" fill="#020202" stroke="white" stroke-width="1.37993" stroke-miterlimit="10"/>
<path vector-effect="non-scaling-stroke" d="M698.078 496.223H716.679V492.8H698.078V496.223Z" fill="#020202" stroke="white" stroke-width="1.37993" stroke-miterlimit="10"/>
<path vector-effect="non-scaling-stroke" d="M629.895 471.798H625.589C617.351 471.798 610.672 465.105 610.672 456.881V437.658H644.826V456.881C644.826 465.119 638.133 471.798 629.909 471.798H629.895Z" fill="#404040" stroke="white" stroke-width="1.37993" stroke-miterlimit="10"/>
<path vector-effect="non-scaling-stroke" d="M642.632 251.768C653.892 250.926 659.081 257.398 663.331 264.836C666.988 271.239 672.991 282.485 677.282 294.27C683.864 312.361 696.077 339.131 696.077 339.131H648.635L641.583 273.364C641.583 273.364 635.319 272.426 630.848 268.659C626.39 264.905 626.542 260.669 632.655 255.742C635.098 253.769 638.699 252.058 642.632 251.754V251.768Z" fill="#404040" stroke="white" stroke-width="1.37993" stroke-miterlimit="10"/>
<path vector-effect="non-scaling-stroke" d="M332.507 424.534H546.865C558.912 424.534 568.696 434.318 568.696 446.365C568.696 458.411 558.912 468.195 546.865 468.195H332.507V424.548V424.534Z" fill="#020202" stroke="white" stroke-width="1.37993" stroke-miterlimit="10"/>
<path vector-effect="non-scaling-stroke" d="M431.696 437.672L434.898 444.13L442.018 445.179L436.857 450.202L438.085 457.308L431.696 453.955L425.321 457.308L426.535 450.202L421.375 445.179L428.509 444.13L431.696 437.672Z" fill="#A100FF" stroke="white" stroke-width="1.37993" stroke-miterlimit="10"/>
<path vector-effect="non-scaling-stroke" d="M402.111 437.672L405.299 444.13L412.433 445.179L407.272 450.202L408.5 457.308L402.111 453.955L395.736 457.308L396.95 450.202L391.789 445.179L398.923 444.13L402.111 437.672Z" fill="#A100FF" stroke="white" stroke-width="1.37993" stroke-miterlimit="10"/>
<path vector-effect="non-scaling-stroke" d="M461.296 437.672L464.484 444.13L471.618 445.179L466.457 450.202L467.671 457.308L461.296 453.955L454.907 457.308L456.135 450.202L450.974 445.179L458.108 444.13L461.296 437.672Z" fill="#A100FF" stroke="white" stroke-width="1.37993" stroke-miterlimit="10"/>
<path vector-effect="non-scaling-stroke" d="M490.881 437.672L494.069 444.13L501.203 445.179L496.042 450.202L497.257 457.308L490.881 453.955L484.506 457.308L485.72 450.202L480.56 445.179L487.694 444.13L490.881 437.672Z" fill="#A100FF" stroke="white" stroke-width="1.37993" stroke-miterlimit="10"/>
<path vector-effect="non-scaling-stroke" d="M520.467 437.672L523.655 444.13L530.789 445.179L525.628 450.202L526.843 457.308L520.467 453.955L514.092 457.308L515.306 450.202L510.146 445.179L517.28 444.13L520.467 437.672Z" fill="#A100FF" stroke="white" stroke-width="1.37993" stroke-miterlimit="10"/>
<path vector-effect="non-scaling-stroke" d="M120.564 262.352L98.168 202.933" stroke="white" stroke-width="1.37993" stroke-miterlimit="10"/>
<path vector-effect="non-scaling-stroke" d="M181.943 233.636L181.64 165.729" stroke="white" stroke-width="1.37993" stroke-miterlimit="10"/>
<path vector-effect="non-scaling-stroke" d="M542.049 188.955C553.392 177.612 571.773 177.612 583.102 188.955C594.445 200.298 594.445 218.678 583.102 230.007L542.049 271.06L500.997 230.007C489.654 218.664 489.654 200.284 500.997 188.955C512.34 177.612 530.72 177.612 542.049 188.955Z" fill="#A100FF" stroke="white" stroke-width="1.37993" stroke-miterlimit="10"/>
<path vector-effect="non-scaling-stroke" d="M234.008 81.9395C227.647 83.7334 226.474 83.5816 218.098 84.0369" stroke="white" stroke-width="1.37993" stroke-miterlimit="10"/>
<path vector-effect="non-scaling-stroke" d="M224.804 53.9824C230.007 68.0715 234.174 70.169 231.58 72.846C228.985 75.5231 222.955 74.4329 222.955 74.4329" fill="#020202"/>
<path vector-effect="non-scaling-stroke" d="M224.804 53.9824C230.007 68.0715 234.174 70.169 231.58 72.846C228.985 75.5231 222.955 74.4329 222.955 74.4329" stroke="white" stroke-width="1.37993" stroke-miterlimit="10" stroke-linecap="round"/>
</g>
<defs>
<clipPath id="clip0_20_13875">
<rect width="802" height="521.351" fill="white"/>
</clipPath>
</defs>
</svg>
