<svg width="802" height="535" viewBox="0 0 802 535" fill="none" xmlns="http://www.w3.org/2000/svg">
<g clip-path="url(#clip0_21_15594)">
<path vector-effect="non-scaling-stroke" d="M766.42 0.702148H39.8022C29.313 0.702148 20.8098 9.441 20.8098 20.2209V501.773C20.8098 512.553 29.313 521.292 39.8022 521.292H766.42C776.909 521.292 785.412 512.553 785.412 501.773V20.2209C785.412 9.441 776.909 0.702148 766.42 0.702148Z" stroke="white" stroke-width="1.40423" stroke-linecap="round" stroke-linejoin="round"/>
<path vector-effect="non-scaling-stroke" d="M797.942 79.002H47.7136V514.551H797.942V79.002Z" fill="#020202"/>
<path vector-effect="non-scaling-stroke" d="M598.535 351.717V275.215C598.535 268.713 603.659 263.447 609.985 263.447H796.029C797.327 263.447 798.366 264.529 798.366 265.849V351.717" fill="#404040"/>
<path vector-effect="non-scaling-stroke" d="M598.535 351.717V275.215C598.535 268.713 603.659 263.447 609.985 263.447H796.029C797.327 263.447 798.366 264.529 798.366 265.849V351.717" stroke="white" stroke-width="1.40423" stroke-miterlimit="10"/>
<path vector-effect="non-scaling-stroke" d="M614.44 352.573V289.594H798.366V499.975" fill="#020202"/>
<path vector-effect="non-scaling-stroke" d="M614.44 352.573V289.594H798.366V499.975" stroke="white" stroke-width="1.40423" stroke-miterlimit="10"/>
<path vector-effect="non-scaling-stroke" d="M407.886 99.2652H512.782C512.782 99.2652 515.337 70.4224 496.823 69.8326C478.309 69.2428 474.592 84.5489 474.592 84.5489C474.592 84.5489 473.69 28.1973 442.565 28.1973C411.439 28.1973 407.886 99.2652 407.886 99.2652Z" stroke="white" stroke-width="1.40423" stroke-linejoin="round"/>
<path vector-effect="non-scaling-stroke" d="M680.667 131.224H801.317V82.1045C801.317 82.1045 768.757 89.8558 758.55 107.114C758.55 107.114 716.411 67.6971 687.69 89.4767C658.969 111.256 680.667 131.224 680.667 131.224Z" stroke="white" stroke-width="1.40423" stroke-miterlimit="10"/>
<path vector-effect="non-scaling-stroke" d="M291.008 231.936H212.114C212.114 231.936 212.784 205.031 234.14 205.031C255.496 205.031 261.891 212.249 261.891 212.249C261.891 212.249 261.891 171.934 288.699 171.934" stroke="white" stroke-width="1.40423" stroke-linejoin="round"/>
<path vector-effect="non-scaling-stroke" d="M117.097 73.1741H188.435C188.435 73.1741 185.129 47.561 169.579 47.561C154.03 47.561 150.163 60.3676 150.163 60.3676C150.163 60.3676 145.709 23.4785 128.165 23.4785C126.102 23.4785 119.584 23.7313 117.111 27.4525V73.1741" stroke="white" stroke-width="1.40423" stroke-linejoin="round"/>
<path vector-effect="non-scaling-stroke" d="M144.192 433.162C144.192 447.008 119.803 492.547 119.803 492.547C119.803 492.547 95.4133 447.008 95.4133 433.162C95.4133 419.316 106.331 408.097 119.803 408.097C133.275 408.097 144.192 419.316 144.192 433.162Z" fill="#AF00FF" stroke="white" stroke-width="1.40423" stroke-miterlimit="10"/>
<path vector-effect="non-scaling-stroke" d="M117.097 0.702148V286.701C117.097 322.607 145.422 351.717 180.36 351.717H604.206C639.143 351.717 667.468 380.827 667.468 416.733V513.667" stroke="white" stroke-width="1.40423" stroke-miterlimit="10"/>
<path vector-effect="non-scaling-stroke" d="M291.008 0.702148V236.851C291.008 261.762 271.36 281.969 247.107 281.969H160.999C136.759 281.969 117.097 261.776 117.097 236.851V2.80849" stroke="white" stroke-width="1.40423" stroke-miterlimit="10"/>
<path vector-effect="non-scaling-stroke" d="M614.44 311.388H798.366" stroke="white" stroke-width="1.40423" stroke-miterlimit="10"/>
<path vector-effect="non-scaling-stroke" d="M660.322 311.388V386.781" stroke="white" stroke-width="1.40423" stroke-miterlimit="10"/>
<path vector-effect="non-scaling-stroke" d="M706.191 311.388V513.667" stroke="white" stroke-width="1.40423" stroke-miterlimit="10"/>
<path vector-effect="non-scaling-stroke" d="M752.06 311.388V513.667" stroke="white" stroke-width="1.40423" stroke-miterlimit="10"/>
<path vector-effect="non-scaling-stroke" d="M798.366 358.541H632.763" stroke="white" stroke-width="1.40423" stroke-miterlimit="10"/>
<path vector-effect="non-scaling-stroke" d="M798.366 311.388H614.44" stroke="white" stroke-width="1.40423" stroke-miterlimit="10"/>
<path vector-effect="non-scaling-stroke" d="M798.365 405.682H666.552" stroke="white" stroke-width="1.40423" stroke-miterlimit="10"/>
<path vector-effect="non-scaling-stroke" d="M798.366 452.835H667.468" stroke="white" stroke-width="1.40423" stroke-miterlimit="10"/>
<path vector-effect="non-scaling-stroke" d="M798.366 499.975H667.468" stroke="white" stroke-width="1.40423" stroke-miterlimit="10"/>
<path vector-effect="non-scaling-stroke" d="M207.551 513.666V351.717H226.898V513.666" fill="#202020"/>
<path vector-effect="non-scaling-stroke" d="M207.551 513.666V351.717H226.898V513.666" stroke="white" stroke-width="1.40423" stroke-miterlimit="10"/>
<path vector-effect="non-scaling-stroke" d="M379.125 513.666V351.717H398.472V513.666" fill="#202020"/>
<path vector-effect="non-scaling-stroke" d="M379.125 513.666V351.717H398.472V513.666" stroke="white" stroke-width="1.40423" stroke-miterlimit="10"/>
<path vector-effect="non-scaling-stroke" d="M550.712 513.666V351.717H570.046V513.666" fill="#202020"/>
<path vector-effect="non-scaling-stroke" d="M550.712 513.666V351.717H570.046V513.666" stroke="white" stroke-width="1.40423" stroke-miterlimit="10"/>
<path vector-effect="non-scaling-stroke" d="M226.898 513.666V443.848C226.898 424.681 242.024 409.136 260.675 409.136H345.348C363.999 409.136 379.125 424.681 379.125 443.848V513.666" stroke="white" stroke-width="1.40423" stroke-miterlimit="10"/>
<path vector-effect="non-scaling-stroke" d="M398.472 513.666V443.848C398.472 424.681 413.598 409.136 432.249 409.136H516.922C535.573 409.136 550.699 424.681 550.699 443.848V513.666" stroke="white" stroke-width="1.40423" stroke-miterlimit="10"/>
<path vector-effect="non-scaling-stroke" d="M570.046 513.666V443.848C570.046 424.681 585.172 409.136 603.823 409.136H667.031" stroke="white" stroke-width="1.40423" stroke-miterlimit="10"/>
<path vector-effect="non-scaling-stroke" d="M61.1997 521.389V383.143C61.1997 372.19 69.8351 363.315 80.4927 363.315H163.021C173.679 363.315 182.314 372.19 182.314 383.143V521.389" stroke="white" stroke-width="1.40423" stroke-miterlimit="10"/>
<path vector-effect="non-scaling-stroke" d="M77.186 521.389V391.976C77.186 385.699 82.1459 380.602 88.2536 380.602H155.274C161.381 380.602 166.341 385.699 166.341 391.976V521.389" stroke="white" stroke-width="1.40423" stroke-miterlimit="10"/>
<path vector-effect="non-scaling-stroke" d="M495.183 311.388H242.898L217.648 351.717H520.434L495.183 311.388Z" fill="#404040" stroke="white" stroke-width="1.40423" stroke-miterlimit="10"/>
<path vector-effect="non-scaling-stroke" d="M495.183 311.388H242.898L217.648 351.717H520.434L495.183 311.388Z" stroke="white" stroke-width="1.40423" stroke-miterlimit="10"/>
<path vector-effect="non-scaling-stroke" d="M296.009 311.388V351.717" stroke="white" stroke-width="1.40423" stroke-miterlimit="10"/>
<path vector-effect="non-scaling-stroke" d="M369.041 311.388V351.717" stroke="white" stroke-width="1.40423" stroke-miterlimit="10"/>
<path vector-effect="non-scaling-stroke" d="M442.073 311.388V351.717" stroke="white" stroke-width="1.40423" stroke-miterlimit="10"/>
<path vector-effect="non-scaling-stroke" d="M411.931 231.937H798.366" stroke="white" stroke-width="1.40423" stroke-miterlimit="10"/>
<path vector-effect="non-scaling-stroke" d="M332.873 7.41504V15.8404" stroke="white" stroke-width="1.40423" stroke-miterlimit="10"/>
<path vector-effect="non-scaling-stroke" d="M332.873 33.5342V272.323" stroke="white" stroke-width="1.40423" stroke-miterlimit="10"/>
<path vector-effect="non-scaling-stroke" d="M332.873 281.169V289.594H341.071" stroke="white" stroke-width="1.40423" stroke-miterlimit="10"/>
<path vector-effect="non-scaling-stroke" d="M357.687 289.595H582.03" stroke="white" stroke-width="1.40423" stroke-miterlimit="10"/>
<path vector-effect="non-scaling-stroke" d="M590.337 289.595H598.536" stroke="white" stroke-width="1.40423" stroke-miterlimit="10"/>
<path vector-effect="non-scaling-stroke" d="M670.16 499.975H661.961" stroke="white" stroke-width="1.40423" stroke-miterlimit="10"/>
<path vector-effect="non-scaling-stroke" d="M645.77 499.975H136.09" stroke="white" stroke-width="1.40423" stroke-miterlimit="10"/>
<path vector-effect="non-scaling-stroke" d="M127.987 499.975H119.789" stroke="white" stroke-width="1.40423" stroke-miterlimit="10"/>
<path vector-effect="non-scaling-stroke" d="M119.789 444.045C125.894 444.045 130.843 438.958 130.843 432.684C130.843 426.41 125.894 421.324 119.789 421.324C113.684 421.324 108.735 426.41 108.735 432.684C108.735 438.958 113.684 444.045 119.789 444.045Z" fill="#020202" stroke="white" stroke-width="1.40423" stroke-miterlimit="10"/>
<path vector-effect="non-scaling-stroke" d="M415.853 214.958L449.506 234.294C452.416 235.965 454.548 238.788 455.409 242.102L455.914 244.04C457.062 248.491 455.764 253.237 452.526 256.425C449.875 259.037 446.213 260.286 442.565 259.851L410.127 255.905" fill="#020202"/>
<path vector-effect="non-scaling-stroke" d="M415.853 214.958L449.506 234.294C452.416 235.965 454.548 238.788 455.409 242.102L455.914 244.04C457.062 248.491 455.764 253.237 452.526 256.425C449.875 259.037 446.213 260.286 442.565 259.851L410.127 255.905" stroke="white" stroke-width="1.40423" stroke-miterlimit="10"/>
<path vector-effect="non-scaling-stroke" d="M381.106 214.958L347.452 234.294C344.542 235.965 342.41 238.788 341.55 242.102L341.044 244.04C339.896 248.491 341.194 253.237 344.433 256.425C347.083 259.037 350.745 260.286 354.393 259.851L386.831 255.905" fill="#020202"/>
<path vector-effect="non-scaling-stroke" d="M381.106 214.958L347.452 234.294C344.542 235.965 342.41 238.788 341.55 242.102L341.044 244.04C339.896 248.491 341.194 253.237 344.433 256.425C347.083 259.037 350.745 260.286 354.393 259.851L386.831 255.905" stroke="white" stroke-width="1.40423" stroke-miterlimit="10"/>
<path vector-effect="non-scaling-stroke" d="M423.244 79.001L527.416 160.91C530.189 163.086 532.157 166.189 532.963 169.686L533.455 171.806C534.89 177.985 532.539 184.43 527.511 188.124C523.685 190.932 518.807 191.76 514.298 190.37L419.145 160.91" fill="#020202"/>
<path vector-effect="non-scaling-stroke" d="M423.244 79.001L527.416 160.91C530.189 163.086 532.157 166.189 532.963 169.686L533.455 171.806C534.89 177.985 532.539 184.43 527.511 188.124C523.685 190.932 518.807 191.76 514.298 190.37L419.145 160.91" stroke="white" stroke-width="1.40423" stroke-miterlimit="10"/>
<path vector-effect="non-scaling-stroke" d="M373.7 79.001L269.529 160.91C266.755 163.086 264.788 166.189 263.981 169.686L263.489 171.806C262.055 177.985 264.405 184.43 269.433 188.124C273.259 190.932 278.137 191.76 282.646 190.37L377.799 160.91" fill="#020202"/>
<path vector-effect="non-scaling-stroke" d="M373.7 79.001L269.529 160.91C266.755 163.086 264.788 166.189 263.981 169.686L263.489 171.806C262.055 177.985 264.405 184.43 269.433 188.124C273.259 190.932 278.137 191.76 282.646 190.37L377.799 160.91" stroke="white" stroke-width="1.40423" stroke-miterlimit="10"/>
<path vector-effect="non-scaling-stroke" d="M398.472 2.80762C411.986 4.95609 420.252 15.572 424.789 32.1981C427.289 41.3537 428.163 50.9165 427.836 60.4231C424.597 153.832 418.339 228.088 414.869 258.166C414.076 265.019 411.344 271.549 406.657 276.478C404.074 279.202 401.287 281.308 398.472 281.659" fill="#020202"/>
<path vector-effect="non-scaling-stroke" d="M398.472 2.80762C411.986 4.95609 420.252 15.572 424.789 32.1981C427.289 41.3537 428.163 50.9165 427.836 60.4231C424.597 153.832 418.339 228.088 414.869 258.166C414.076 265.019 411.344 271.549 406.657 276.478C404.074 279.202 401.287 281.308 398.472 281.659" stroke="white" stroke-width="1.40423" stroke-miterlimit="10"/>
<path vector-effect="non-scaling-stroke" d="M398.472 18.1982C408.174 18.7178 413.338 24.5594 416.454 32.8022C416.604 33.1954 416.672 33.6026 416.672 34.0239V41.9578C416.672 44.0641 414.773 45.6088 412.778 45.1594C408.611 43.5305 404.963 41.4523 398.472 41.8454" fill="#020202"/>
<path vector-effect="non-scaling-stroke" d="M398.472 18.1982C408.174 18.7178 413.338 24.5594 416.454 32.8022C416.604 33.1954 416.672 33.6026 416.672 34.0239V41.9578C416.672 44.0641 414.773 45.6088 412.778 45.1594C408.611 43.5305 404.963 41.4523 398.472 41.8454" stroke="white" stroke-width="1.40423" stroke-miterlimit="10"/>
<path vector-effect="non-scaling-stroke" d="M398.472 2.80762C384.959 4.95609 376.693 15.572 372.156 32.1981C369.656 41.3537 368.781 50.9165 369.109 60.4231C372.348 153.832 378.605 228.088 382.076 258.166C382.869 265.019 385.601 271.549 390.288 276.478C392.87 279.202 395.658 281.308 398.472 281.659" fill="#020202"/>
<path vector-effect="non-scaling-stroke" d="M398.472 2.80762C384.959 4.95609 376.693 15.572 372.156 32.1981C369.656 41.3537 368.781 50.9165 369.109 60.4231C372.348 153.832 378.605 228.088 382.076 258.166C382.869 265.019 385.601 271.549 390.288 276.478C392.87 279.202 395.658 281.308 398.472 281.659" stroke="white" stroke-width="1.40423" stroke-miterlimit="10"/>
<path vector-effect="non-scaling-stroke" d="M398.472 18.1982C388.771 18.7178 383.606 24.5594 380.491 32.8022C380.341 33.1954 380.272 33.6026 380.272 34.0239V41.9578C380.272 44.0641 382.172 45.6088 384.167 45.1594C388.334 43.5305 391.982 41.4523 398.472 41.8454" fill="#020202"/>
<path vector-effect="non-scaling-stroke" d="M398.472 18.1982C388.771 18.7178 383.606 24.5594 380.491 32.8022C380.341 33.1954 380.272 33.6026 380.272 34.0239V41.9578C380.272 44.0641 382.172 45.6088 384.167 45.1594C388.334 43.5305 391.982 41.4523 398.472 41.8454" stroke="white" stroke-width="1.40423" stroke-miterlimit="10"/>
<path vector-effect="non-scaling-stroke" d="M415.853 214.958L449.506 234.294C452.416 235.965 454.548 238.788 455.409 242.102L455.914 244.04C457.062 248.491 455.764 253.237 452.526 256.425C449.875 259.037 446.213 260.286 442.565 259.851L410.127 255.905" fill="#202020"/>
<path vector-effect="non-scaling-stroke" d="M415.853 214.958L449.506 234.294C452.416 235.965 454.548 238.788 455.409 242.102L455.914 244.04C457.062 248.491 455.764 253.237 452.526 256.425C449.875 259.037 446.213 260.286 442.565 259.851L410.127 255.905" stroke="white" stroke-width="1.40423" stroke-miterlimit="10"/>
<path vector-effect="non-scaling-stroke" d="M381.106 214.958L347.452 234.294C344.542 235.965 342.41 238.788 341.55 242.102L341.044 244.04C339.896 248.491 341.194 253.237 344.433 256.425C347.083 259.037 350.745 260.286 354.393 259.851L386.831 255.905" fill="#202020"/>
<path vector-effect="non-scaling-stroke" d="M381.106 214.958L347.452 234.294C344.542 235.965 342.41 238.788 341.55 242.102L341.044 244.04C339.896 248.491 341.194 253.237 344.433 256.425C347.083 259.037 350.745 260.286 354.393 259.851L386.831 255.905" stroke="white" stroke-width="1.40423" stroke-miterlimit="10"/>
<path vector-effect="non-scaling-stroke" d="M423.244 79.001L527.416 160.91C530.189 163.086 532.157 166.189 532.963 169.686L533.455 171.806C534.89 177.985 532.539 184.43 527.511 188.124C523.685 190.932 518.807 191.76 514.298 190.37L419.145 160.91" fill="#202020"/>
<path vector-effect="non-scaling-stroke" d="M423.244 79.001L527.416 160.91C530.189 163.086 532.157 166.189 532.963 169.686L533.455 171.806C534.89 177.985 532.539 184.43 527.511 188.124C523.685 190.932 518.807 191.76 514.298 190.37L419.145 160.91" stroke="white" stroke-width="1.40423" stroke-miterlimit="10"/>
<path vector-effect="non-scaling-stroke" d="M373.7 79.001L269.529 160.91C266.755 163.086 264.788 166.189 263.981 169.686L263.489 171.806C262.055 177.985 264.405 184.43 269.433 188.124C273.259 190.932 278.137 191.76 282.646 190.37L377.799 160.91" fill="#202020"/>
<path vector-effect="non-scaling-stroke" d="M373.7 79.001L269.529 160.91C266.755 163.086 264.788 166.189 263.981 169.686L263.489 171.806C262.055 177.985 264.405 184.43 269.433 188.124C273.259 190.932 278.137 191.76 282.646 190.37L377.799 160.91" stroke="white" stroke-width="1.40423" stroke-miterlimit="10"/>
<path vector-effect="non-scaling-stroke" d="M398.472 2.80762C411.986 4.95609 420.252 15.572 424.789 32.1981C427.289 41.3537 428.163 50.9165 427.836 60.4231C424.597 153.832 418.339 228.088 414.869 258.166C414.076 265.019 411.344 271.549 406.657 276.478C404.074 279.202 401.287 281.308 398.472 281.659" fill="#202020"/>
<path vector-effect="non-scaling-stroke" d="M398.472 2.80762C411.986 4.95609 420.252 15.572 424.789 32.1981C427.289 41.3537 428.163 50.9165 427.836 60.4231C424.597 153.832 418.339 228.088 414.869 258.166C414.076 265.019 411.344 271.549 406.657 276.478C404.074 279.202 401.287 281.308 398.472 281.659" stroke="white" stroke-width="1.40423" stroke-miterlimit="10"/>
<path vector-effect="non-scaling-stroke" d="M398.472 18.1982C408.174 18.7178 413.338 24.5594 416.454 32.8022C416.604 33.1954 416.672 33.6026 416.672 34.0239V41.9578C416.672 44.0641 414.773 45.6088 412.778 45.1594C408.611 43.5305 404.963 41.4523 398.472 41.8454" fill="#020202"/>
<path vector-effect="non-scaling-stroke" d="M398.472 18.1982C408.174 18.7178 413.338 24.5594 416.454 32.8022C416.604 33.1954 416.672 33.6026 416.672 34.0239V41.9578C416.672 44.0641 414.773 45.6088 412.778 45.1594C408.611 43.5305 404.963 41.4523 398.472 41.8454" stroke="white" stroke-width="1.40423" stroke-miterlimit="10"/>
<path vector-effect="non-scaling-stroke" d="M398.472 2.80762C384.959 4.95609 376.693 15.572 372.156 32.1981C369.656 41.3537 368.781 50.9165 369.109 60.4231C372.348 153.832 378.605 228.088 382.076 258.166C382.869 265.019 385.601 271.549 390.288 276.478C392.87 279.202 395.658 281.308 398.472 281.659" fill="#202020"/>
<path vector-effect="non-scaling-stroke" d="M398.472 2.80762C384.959 4.95609 376.693 15.572 372.156 32.1981C369.656 41.3537 368.781 50.9165 369.109 60.4231C372.348 153.832 378.605 228.088 382.076 258.166C382.869 265.019 385.601 271.549 390.288 276.478C392.87 279.202 395.658 281.308 398.472 281.659" stroke="white" stroke-width="1.40423" stroke-miterlimit="10"/>
<path vector-effect="non-scaling-stroke" d="M398.472 18.1982C388.771 18.7178 383.606 24.5594 380.491 32.8022C380.341 33.1954 380.272 33.6026 380.272 34.0239V41.9578C380.272 44.0641 382.172 45.6088 384.167 45.1594C388.334 43.5305 391.982 41.4523 398.472 41.8454" fill="#020202"/>
<path vector-effect="non-scaling-stroke" d="M398.472 18.1982C388.771 18.7178 383.606 24.5594 380.491 32.8022C380.341 33.1954 380.272 33.6026 380.272 34.0239V41.9578C380.272 44.0641 382.172 45.6088 384.167 45.1594C388.334 43.5305 391.982 41.4523 398.472 41.8454" stroke="white" stroke-width="1.40423" stroke-miterlimit="10"/>
<path vector-effect="non-scaling-stroke" d="M727.629 282.418C730.293 282.418 732.452 280.198 732.452 277.461C732.452 274.723 730.293 272.504 727.629 272.504C724.965 272.504 722.806 274.723 722.806 277.461C722.806 280.198 724.965 282.418 727.629 282.418Z" fill="#020202" stroke="white" stroke-width="1.40423" stroke-miterlimit="10"/>
<path vector-effect="non-scaling-stroke" d="M626.901 305.63C628.863 305.63 630.453 303.996 630.453 301.979C630.453 299.963 628.863 298.328 626.901 298.328C624.939 298.328 623.348 299.963 623.348 301.979C623.348 303.996 624.939 305.63 626.901 305.63Z" fill="#020202" stroke="white" stroke-width="1.40423" stroke-miterlimit="10"/>
<path vector-effect="non-scaling-stroke" d="M638.952 305.63C640.914 305.63 642.505 303.996 642.505 301.979C642.505 299.963 640.914 298.328 638.952 298.328C636.99 298.328 635.4 299.963 635.4 301.979C635.4 303.996 636.99 305.63 638.952 305.63Z" fill="#020202" stroke="white" stroke-width="1.40423" stroke-miterlimit="10"/>
<path vector-effect="non-scaling-stroke" d="M651.017 305.63C652.979 305.63 654.57 303.996 654.57 301.979C654.57 299.963 652.979 298.328 651.017 298.328C649.055 298.328 647.465 299.963 647.465 301.979C647.465 303.996 649.055 305.63 651.017 305.63Z" fill="#020202" stroke="white" stroke-width="1.40423" stroke-miterlimit="10"/>
<path vector-effect="non-scaling-stroke" d="M93.5686 155.953L18.7192 218.02L114.351 246.54L142.129 195.679L93.5822 155.953H93.5686Z" fill="#404040" stroke="white" stroke-width="1.40423" stroke-miterlimit="10"/>
<path vector-effect="non-scaling-stroke" d="M152.127 216.312L254.504 97.8898C260.063 91.4602 259.497 81.6172 253.241 75.9047L204.13 31.062C197.873 25.3495 188.296 25.9308 182.737 32.3604L80.36 150.783C74.8016 157.213 75.3673 167.056 81.6235 172.768L130.735 217.611C136.991 223.323 146.568 222.742 152.127 216.312Z" fill="#404040" stroke="white" stroke-width="1.40423" stroke-miterlimit="10"/>
<path vector-effect="non-scaling-stroke" d="M152.28 214.619L252.098 99.1562L181.935 35.0911L82.1169 150.553L152.28 214.619Z" fill="#202020" stroke="white" stroke-width="1.40423" stroke-miterlimit="10"/>
<path vector-effect="non-scaling-stroke" d="M71.9802 151.81C71.9802 151.81 66.2141 151.389 62.6479 156.051C59.0817 160.713 59.4916 168.97 59.8742 175.078C60.0791 178.125 60.735 182.773 61.3635 186.649C62.0604 191.016 66.542 193.572 70.5181 191.803C75.9699 189.401 82.0639 183.799 81.2031 170.767C79.7001 147.738 71.9528 151.824 71.9528 151.824L71.9802 151.81Z" fill="#404040" stroke="white" stroke-width="1.40423" stroke-miterlimit="10"/>
<path vector-effect="non-scaling-stroke" d="M112.424 100.009C118.532 93.437 126.621 92.6366 131.212 98.9416C135.817 105.233 137.333 112.45 130.228 118.657C122.836 125.116 114.72 119.893 110.102 115.708C105.374 111.425 106.74 106.145 112.424 100.023V100.009Z" fill="#404040" stroke="white" stroke-width="1.40423" stroke-miterlimit="10"/>
<path vector-effect="non-scaling-stroke" d="M125.651 99.3201C123.205 100.879 118.109 104.628 112.766 111.481C112.288 112.099 111.331 111.818 111.277 111.031C111.099 108.925 111.577 105.26 115.663 101.272C119.789 97.2419 123.396 97.2278 125.419 97.7333C126.143 97.9159 126.293 98.8989 125.665 99.3061L125.651 99.3201Z" fill="#020202" stroke="white" stroke-width="1.40423" stroke-miterlimit="10"/>
<path vector-effect="non-scaling-stroke" d="M87.5566 133.457C87.5566 133.457 80.7111 131.294 74.3985 138.442C68.0722 145.589 70.1218 151.515 72.103 157.371C74.0842 163.226 77.0902 173.21 83.8947 172.691C90.6992 172.157 97.3261 161.752 96.233 152.905C95.1399 144.059 94.5797 136.546 94.5797 136.546L87.5566 133.457Z" fill="#404040" stroke="white" stroke-width="1.40423" stroke-miterlimit="10"/>
<path vector-effect="non-scaling-stroke" d="M91.4645 118.881C98.5423 111.761 107.15 110.75 111.386 117.35C115.608 123.964 116.524 131.603 108.421 138.371C100.004 145.407 91.9564 140.014 87.4884 135.647C82.9248 131.182 84.865 125.523 91.4645 118.895V118.881Z" fill="#404040" stroke="white" stroke-width="1.40423" stroke-miterlimit="10"/>
<path vector-effect="non-scaling-stroke" d="M105.456 117.885C102.723 119.598 96.9847 123.684 90.6994 131.099C90.1392 131.759 89.1554 131.478 89.1691 130.663C89.1827 128.417 90.0572 124.513 94.7438 120.174C99.4851 115.793 103.27 115.722 105.36 116.214C106.112 116.382 106.167 117.435 105.456 117.885Z" fill="#020202" stroke="white" stroke-width="1.40423" stroke-miterlimit="10"/>
<path vector-effect="non-scaling-stroke" d="M67.5121 179.249C66.4054 175.458 64.1782 171.329 59.7375 172.41C59.7785 173.337 59.8332 174.222 59.8878 175.078C60.0791 178.14 60.7487 182.774 61.3772 186.649C61.3772 186.649 62.3063 186.144 64.0143 185.666C66.7197 184.908 68.3046 182.015 67.5121 179.263V179.249Z" fill="#020202" stroke="white" stroke-width="1.40423" stroke-miterlimit="10"/>
<path vector-effect="non-scaling-stroke" d="M77.7188 162.398C79.7273 160.475 82.9793 158.087 87.8299 156.416C89.2372 155.925 90.18 154.408 89.9067 153.004C89.1962 149.255 86.8051 143.427 78.8255 148.244C72.7316 151.923 72.7726 157.708 73.6607 161.57C74.0843 163.381 76.2431 163.803 77.7188 162.398Z" fill="#020202" stroke="white" stroke-width="1.40423" stroke-miterlimit="10"/>
<path vector-effect="non-scaling-stroke" d="M100.865 209.678C100.865 209.678 115.294 191.929 132.537 186.747C132.537 186.747 139.068 155.223 144.097 147.738C149.945 139.046 158.457 140.927 159.332 151.249C160.192 161.584 163.28 199.863 161.504 212.248C155.615 253.027 116.51 276.506 116.51 276.506L65.7904 308.859L18.6919 235.46" fill="#404040"/>
<path vector-effect="non-scaling-stroke" d="M100.865 209.678C100.865 209.678 115.294 191.929 132.537 186.747C132.537 186.747 139.068 155.223 144.097 147.738C149.945 139.046 158.457 140.927 159.332 151.249C160.192 161.584 163.28 199.863 161.504 212.248C155.615 253.027 116.51 276.506 116.51 276.506L65.7904 308.859L18.6919 235.46" stroke="white" stroke-width="1.40423" stroke-miterlimit="10"/>
<path vector-effect="non-scaling-stroke" d="M100.865 209.678C100.865 209.678 115.294 191.929 132.537 186.747C132.537 186.747 139.069 155.223 144.097 147.738C149.945 139.046 158.457 140.927 159.332 151.249C160.192 161.584 163.28 199.863 161.504 212.248C155.615 253.027 116.51 276.506 116.51 276.506L65.7905 308.859" stroke="white" stroke-width="1.40423" stroke-miterlimit="10"/>
<path vector-effect="non-scaling-stroke" d="M159.345 151.263C159.181 149.255 158.717 147.584 158.047 146.236C158.034 146.236 156.941 146.039 155.642 145.829C154.385 145.618 153.142 146.334 152.636 147.542C151.106 151.235 148.483 158.944 151.639 162.384C154.508 165.502 158.102 165.684 160.11 165.474C159.851 159.323 159.591 154.184 159.332 151.277L159.345 151.263Z" fill="#020202" stroke="white" stroke-width="1.40423" stroke-miterlimit="10"/>
<path vector-effect="non-scaling-stroke" d="M159.769 162.061C158.676 161.64 154.877 160.418 151.694 162.104" stroke="white" stroke-width="1.40423" stroke-miterlimit="10"/>
<path vector-effect="non-scaling-stroke" d="M86.5592 300.027L116.524 276.506L34.5008 201.604L3.96265 224.606L86.5592 300.027Z" fill="#202020" stroke="white" stroke-width="1.40423" stroke-miterlimit="10"/>
<path vector-effect="non-scaling-stroke" d="M0.68335 224.353V362.936C0.68335 366.559 4.78244 368.553 7.5015 366.25L86.0673 299.956L4.01727 222.85C2.74656 221.657 0.68335 222.583 0.68335 224.353Z" fill="#020202" stroke="white" stroke-width="1.40423" stroke-miterlimit="10"/>
<path vector-effect="non-scaling-stroke" d="M187.861 77.1484L186.03 79.2407" stroke="white" stroke-width="1.40423" stroke-miterlimit="10"/>
<path vector-effect="non-scaling-stroke" d="M182.368 83.4258L154.946 114.796" stroke="white" stroke-width="1.40423" stroke-miterlimit="10"/>
<path vector-effect="non-scaling-stroke" d="M153.115 116.888L151.297 118.966" stroke="white" stroke-width="1.40423" stroke-miterlimit="10"/>
<path vector-effect="non-scaling-stroke" d="M187.971 90.7412L206.444 107.789" stroke="white" stroke-width="1.40423" stroke-miterlimit="10"/>
<path vector-effect="non-scaling-stroke" d="M182.669 96.8076L201.129 113.855" stroke="white" stroke-width="1.40423" stroke-miterlimit="10"/>
<path vector-effect="non-scaling-stroke" d="M211.076 112.071L223.783 123.811" stroke="white" stroke-width="1.40423" stroke-miterlimit="10"/>
<path vector-effect="non-scaling-stroke" d="M205.774 118.151L218.482 129.877" stroke="white" stroke-width="1.40423" stroke-miterlimit="10"/>
<path vector-effect="non-scaling-stroke" d="M191.755 130.72L210.229 147.781" stroke="white" stroke-width="1.40423" stroke-miterlimit="10"/>
<path vector-effect="non-scaling-stroke" d="M186.454 136.786L204.913 153.847" stroke="white" stroke-width="1.40423" stroke-miterlimit="10"/>
<path vector-effect="non-scaling-stroke" d="M177.764 102.41L217.416 139.018" stroke="white" stroke-width="1.40423" stroke-miterlimit="10"/>
<path vector-effect="non-scaling-stroke" d="M182 71.7419C179.021 68.9897 174.43 69.2424 171.752 72.3036L161.914 83.5515C163.69 85.1944 163.827 87.9889 162.242 89.8143C160.657 91.6398 157.924 91.7803 156.148 90.1514L144.575 103.393C141.897 106.454 142.143 111.173 145.122 113.925L197.248 162.062L234.154 119.907L182 71.7419Z" stroke="white" stroke-width="1.40423" stroke-miterlimit="10"/>
<path vector-effect="non-scaling-stroke" d="M191.018 123.203L175.193 108.59L163.979 121.417L179.804 136.029L191.018 123.203Z" fill="#AF00FF" stroke="white" stroke-width="1.40423" stroke-miterlimit="10"/>
<path vector-effect="non-scaling-stroke" d="M688.606 51.3103C696.084 51.3103 702.146 45.08 702.146 37.3944C702.146 29.7089 696.084 23.4785 688.606 23.4785C681.127 23.4785 675.065 29.7089 675.065 37.3944C675.065 45.08 681.127 51.3103 688.606 51.3103Z" stroke="white" stroke-width="1.40423" stroke-miterlimit="10"/>
<path vector-effect="non-scaling-stroke" d="M590.692 76.1796H663.096C663.096 76.1796 663.178 58.2195 652.493 58.2195C641.808 58.2195 636.916 67.1925 636.916 67.1925C636.916 67.1925 629.128 51.2686 616.216 51.2686C593.247 51.2686 590.692 76.1796 590.692 76.1796Z" stroke="white" stroke-width="1.40423" stroke-miterlimit="10"/>
<path vector-effect="non-scaling-stroke" d="M432.563 321.905H378.551C377.276 321.905 376.242 322.968 376.242 324.278V332.634C376.242 333.944 377.276 335.007 378.551 335.007H432.563C433.838 335.007 434.872 333.944 434.872 332.634V324.278C434.872 322.968 433.838 321.905 432.563 321.905Z" fill="#202020" stroke="white" stroke-width="1.40423" stroke-miterlimit="10"/>
<path vector-effect="non-scaling-stroke" d="M451.583 335.007H509.968L501.769 321.905H451.583C450.312 321.905 449.274 322.972 449.274 324.278V332.634C449.274 333.94 450.312 335.007 451.583 335.007Z" fill="#202020" stroke="white" stroke-width="1.40423" stroke-miterlimit="10"/>
<path vector-effect="non-scaling-stroke" d="M286.499 321.905H255.332C254.057 321.905 253.023 322.968 253.023 324.278V332.634C253.023 333.944 254.057 335.007 255.332 335.007H286.499C287.774 335.007 288.808 333.944 288.808 332.634V324.278C288.808 322.968 287.774 321.905 286.499 321.905Z" fill="#202020" stroke="white" stroke-width="1.40423" stroke-miterlimit="10"/>
<path vector-effect="non-scaling-stroke" d="M359.531 321.905H305.519C304.244 321.905 303.21 322.968 303.21 324.278V332.634C303.21 333.944 304.244 335.007 305.519 335.007H359.531C360.806 335.007 361.84 333.944 361.84 332.634V324.278C361.84 322.968 360.806 321.905 359.531 321.905Z" fill="#202020" stroke="white" stroke-width="1.40423" stroke-miterlimit="10"/>
<path vector-effect="non-scaling-stroke" d="M599.246 49.0781L645.538 108.87L635.249 118.587L601.022 85.7566L599.246 49.0781Z" fill="#020202" stroke="white" stroke-width="1.40423" stroke-miterlimit="10"/>
<path vector-effect="non-scaling-stroke" d="M552.721 52.7708L555.795 51.8159C556.287 51.6615 556.56 51.1419 556.41 50.6504L551.751 35.5129C551.6 35.0214 551.081 34.7405 550.589 34.895L547.515 35.8499C547.023 36.0043 546.75 36.5239 546.9 37.0154L551.559 52.153C551.71 52.6444 552.229 52.9253 552.721 52.7708Z" fill="#9F00FF" stroke="white" stroke-width="1.40423" stroke-miterlimit="10"/>
<path vector-effect="non-scaling-stroke" d="M557.271 53.5437C557.271 53.5437 559.812 47.5897 557.271 43.9949C557.271 43.9949 554.921 42.4222 554.06 49.8646C554.06 49.8646 547.652 44.6689 547.365 40.5967C547.365 40.5967 542.76 43.1524 544.359 47.7863C544.359 47.7863 545.138 50.4684 550.644 57.5738" fill="#404040"/>
<path vector-effect="non-scaling-stroke" d="M557.271 53.5437C557.271 53.5437 559.812 47.5897 557.271 43.9949C557.271 43.9949 554.921 42.4222 554.06 49.8646C554.06 49.8646 547.652 44.6689 547.365 40.5967C547.365 40.5967 542.76 43.1524 544.359 47.7863C544.359 47.7863 545.138 50.4684 550.644 57.5738" stroke="white" stroke-width="1.40423" stroke-miterlimit="10"/>
<path vector-effect="non-scaling-stroke" d="M547.939 47.9824C547.939 47.9824 544.837 44.4016 545.302 42.3936Z" fill="white"/>
<path vector-effect="non-scaling-stroke" d="M547.939 47.9824C547.939 47.9824 544.837 44.4016 545.302 42.3936" stroke="white" stroke-width="1.40423" stroke-miterlimit="10"/>
<path vector-effect="non-scaling-stroke" d="M629.415 210.003L638.255 223.722C638.255 223.722 632.448 231.319 623.444 231.319H609.821C609.821 231.319 609.575 227.106 613.442 224.312C617.309 221.518 616.981 218.906 616.721 216.448C616.475 213.991 629.415 210.003 629.415 210.003Z" fill="#404040" stroke="white" stroke-width="1.40423" stroke-miterlimit="10"/>
<path vector-effect="non-scaling-stroke" d="M605.599 213.878V231.319H579.953C579.953 231.319 579.283 227.275 584.516 223.497C588.93 220.31 591.17 217.628 591.922 213.878C592.687 210.129 605.599 213.878 605.599 213.878Z" fill="#404040" stroke="white" stroke-width="1.40423" stroke-miterlimit="10"/>
<path vector-effect="non-scaling-stroke" d="M585.336 148.933H612.704V213.878H585.336V148.933Z" fill="#202020" stroke="white" stroke-width="1.40423" stroke-miterlimit="10"/>
<path vector-effect="non-scaling-stroke" d="M585.841 107.466L578.026 161.107C576.837 168.03 578.545 175.15 582.726 180.781L612.704 221.124L635.645 205.86L602.771 157.33L614.767 117.534L585.828 107.48L585.841 107.466Z" fill="#202020" stroke="white" stroke-width="1.40423" stroke-miterlimit="10"/>
<path vector-effect="non-scaling-stroke" d="M605.6 231.319H579.953C579.953 231.319 579.42 228.047 583.096 224.648H605.6V231.319Z" fill="#020202" stroke="white" stroke-width="1.40423" stroke-miterlimit="10"/>
<path vector-effect="non-scaling-stroke" d="M612.8 224.817C626.504 227.387 634.962 218.597 634.962 218.597L638.255 223.708C638.255 223.708 632.448 231.305 623.444 231.305H609.821C609.821 231.305 609.602 227.57 612.8 224.803V224.817Z" fill="#020202" stroke="white" stroke-width="1.40423" stroke-miterlimit="10"/>
<path vector-effect="non-scaling-stroke" d="M585.172 148.596H572.288L586.703 75.1973L594.067 91.4442L585.172 148.596Z" fill="#202020" stroke="white" stroke-width="1.40423" stroke-miterlimit="10"/>
<path vector-effect="non-scaling-stroke" d="M586.935 52.4057L585.609 45.2722C585.609 45.2722 580.349 47.1258 577.671 46.3114C575.266 44.6965 573.941 43.6433 574.145 39.7255L573.845 39.866C573.052 40.217 572.233 39.4447 572.519 38.6162C572.984 37.2962 573.64 35.9341 574.132 34.9652C574.118 34.7827 574.091 34.6001 574.077 34.4176C573.353 28.267 578.805 24.7144 581.729 23.5769C584.653 22.4255 588.738 20.614 592.509 23.4365C596.335 26.3152 593.124 32.7887 595.105 41.4949C595.515 43.2923 596.567 45.8339 599.273 49.0637L586.948 52.3917L586.935 52.4057Z" fill="#404040" stroke="white" stroke-width="1.40423" stroke-miterlimit="10"/>
<path vector-effect="non-scaling-stroke" d="M575.403 28.2816C577.438 25.2625 580.69 23.8161 581.647 23.437L582.057 23.2685C584.953 22.1311 588.916 20.5583 592.578 23.3106C594.819 24.9957 594.723 27.8884 594.586 31.5675C594.518 33.5755 594.436 35.8363 594.709 38.3359V38.4903L594.573 38.5044C594.217 38.5465 593.862 38.5605 593.52 38.5605C586.32 38.5605 583.546 30.2615 582.494 29.1522C578.354 29.8824 575.484 28.5203 575.457 28.5063L575.293 28.422L575.403 28.2675V28.2816Z" fill="#A0A09E" stroke="white" stroke-width="1.40423" stroke-miterlimit="10"/>
<path vector-effect="non-scaling-stroke" d="M595.475 47.9688H583.874L584.626 55.0039L595.488 47.9688H595.475Z" fill="#202020" stroke="white" stroke-width="1.40423" stroke-miterlimit="10"/>
<path vector-effect="non-scaling-stroke" d="M583.86 32.6492C583.86 32.6492 585.924 30.3041 587.7 31.7505C589.954 33.59 587.7 36.4406 586.538 36.7636" fill="white"/>
<path vector-effect="non-scaling-stroke" d="M583.86 32.6492C583.86 32.6492 585.924 30.3041 587.7 31.7505C589.954 33.59 587.7 36.4406 586.538 36.7636" stroke="white" stroke-width="1.40423" stroke-miterlimit="10"/>
<path vector-effect="non-scaling-stroke" d="M583.86 32.6492C583.86 32.6492 585.924 30.3041 587.7 31.7505C589.954 33.59 587.7 36.4406 586.538 36.7636" stroke="white" stroke-width="1.40423" stroke-miterlimit="10"/>
<path vector-effect="non-scaling-stroke" d="M574.05 41.8604C577.042 41.8604 577.643 39.3328 577.657 39.3047" stroke="white" stroke-width="1.40423" stroke-miterlimit="10"/>
<path vector-effect="non-scaling-stroke" d="M583.765 83.8613L585.186 148.596H630.426L607.731 57.3635C605.626 48.9241 595.242 45.1186 588.287 50.4266C585.964 52.1959 584.707 54.8078 582.863 56.9703C581.483 58.5992 580.007 60.1579 578.586 61.7587L571.795 69.3416L571.768 69.3697L560.441 51.6623L546.135 60.7477L560.495 86.5012C564.526 94.056 574.938 94.9968 580.253 88.2986L583.778 83.8613H583.765Z" fill="#020202" stroke="white" stroke-width="1.40423" stroke-miterlimit="10"/>
<path vector-effect="non-scaling-stroke" d="M583.765 83.8606L589.681 77.373" stroke="white" stroke-width="1.40423" stroke-miterlimit="10"/>
<path vector-effect="non-scaling-stroke" d="M582.631 30.6265L572.288 31.2725C572.288 31.2725 575.348 16.0787 593.056 20.811C593.056 20.811 604.561 25.6696 605.108 40.5685L583.847 43.8263L582.617 30.6125L582.631 30.6265Z" fill="#020202" stroke="white" stroke-width="1.40423"/>
<path vector-effect="non-scaling-stroke" d="M756.536 189.559L726.006 220.936C724.054 222.942 720.885 222.942 718.933 220.936L675.862 176.671C673.91 174.665 673.91 171.408 675.862 169.402L691.823 152.999C701.822 142.722 718.054 142.722 728.054 152.999L756.556 182.291C758.507 184.296 758.507 187.553 756.556 189.559L756.536 189.559Z" fill="#020202" stroke="white" stroke-width="1.40423" stroke-miterlimit="10"/>
<path vector-effect="non-scaling-stroke" d="M727.834 229.9C733.66 229.9 738.382 225.047 738.382 219.059C738.382 213.072 733.66 208.219 727.834 208.219C722.008 208.219 717.286 213.072 717.286 219.059C717.286 225.047 722.008 229.9 727.834 229.9Z" fill="#020202" stroke="white" stroke-width="1.40423" stroke-miterlimit="10"/>
<path vector-effect="non-scaling-stroke" d="M747.524 173.043L731.114 189.922L693.498 151.264" fill="#020202"/>
<path vector-effect="non-scaling-stroke" d="M747.524 173.043L731.114 189.922L693.498 151.264" stroke="white" stroke-width="1.40423" stroke-miterlimit="10"/>
<path vector-effect="non-scaling-stroke" d="M729.941 180.084L721.554 188.702C719.912 190.39 717.255 190.38 715.622 188.702L709.043 181.94L723.371 167.215L729.95 173.977C731.593 175.665 731.583 178.396 729.95 180.074L729.941 180.084Z" fill="#020202" stroke="white" stroke-width="1.40423" stroke-miterlimit="10"/>
<path vector-effect="non-scaling-stroke" d="M709.027 181.947L723.355 167.222L719.471 163.23L705.143 177.955L709.027 181.947Z" fill="#020202" stroke="white" stroke-width="1.40423" stroke-miterlimit="10"/>
<path vector-effect="non-scaling-stroke" d="M679.088 166.075L685.146 159.85L650.132 123.866L644.074 130.091L679.088 166.075Z" fill="#020202" stroke="white" stroke-width="1.40423" stroke-miterlimit="10"/>
<path vector-effect="non-scaling-stroke" d="M645.539 113.742L650.444 116.803C652.206 117.899 653.204 119.921 653.054 122.027L652.657 127.307C652.411 130.508 649.597 132.84 646.509 132.418C643.803 132.039 641.795 129.68 641.795 126.872V120.595L638.925 115.146L642.833 111.453L645.566 113.756L645.539 113.742Z" fill="#404040" stroke="white" stroke-width="1.40423" stroke-miterlimit="10"/>
<path vector-effect="non-scaling-stroke" d="M660.322 358.542C660.322 358.542 680.886 387.343 692.213 389.954C721.221 396.639 719.075 353.725 738.97 349.822C797.942 338.223 752.073 452.836 752.073 452.836" stroke="white" stroke-width="1.40423" stroke-miterlimit="10"/>
<path vector-effect="non-scaling-stroke" d="M660.322 367.275C665.016 367.275 668.821 363.365 668.821 358.541C668.821 353.717 665.016 349.807 660.322 349.807C655.628 349.807 651.823 353.717 651.823 358.541C651.823 363.365 655.628 367.275 660.322 367.275Z" fill="#202020" stroke="white" stroke-width="1.40423" stroke-miterlimit="10"/>
<path vector-effect="non-scaling-stroke" d="M741.333 442.233C744.039 439.34 747.851 437.543 752.059 437.543" stroke="white" stroke-width="1.40423" stroke-miterlimit="10"/>
<path vector-effect="non-scaling-stroke" d="M745.542 466.569C743.205 465.389 741.197 463.606 739.749 461.401" stroke="white" stroke-width="1.40423" stroke-miterlimit="10"/>
<path vector-effect="non-scaling-stroke" d="M762.58 442.022C765.272 444.789 766.939 448.608 766.939 452.835C766.939 457.581 764.835 461.822 761.542 464.616" stroke="white" stroke-width="1.40423" stroke-miterlimit="10"/>
<path vector-effect="non-scaling-stroke" d="M744.039 459.463C742.618 457.652 741.771 455.349 741.771 452.835C741.771 451.628 741.962 450.462 742.331 449.381" stroke="white" stroke-width="1.40423" stroke-miterlimit="10"/>
<path vector-effect="non-scaling-stroke" d="M752.059 442.248C755.612 442.248 758.755 444.102 760.599 446.91C761.706 448.595 762.362 450.631 762.362 452.822C762.362 456.346 760.681 459.478 758.099 461.402C756.404 462.665 754.314 463.41 752.059 463.41" stroke="white" stroke-width="1.40423" stroke-miterlimit="10"/>
<path vector-effect="non-scaling-stroke" d="M752.059 458.2C754.942 458.2 757.279 455.798 757.279 452.836C757.279 449.873 754.942 447.472 752.059 447.472C749.177 447.472 746.84 449.873 746.84 452.836C746.84 455.798 749.177 458.2 752.059 458.2Z" fill="#AF00FF" stroke="white" stroke-width="1.40423" stroke-miterlimit="10"/>
<path vector-effect="non-scaling-stroke" d="M782.037 333.982H741.033C739.101 333.982 737.535 335.592 737.535 337.577V365.844C737.535 367.83 739.101 369.439 741.033 369.439H782.037C783.969 369.439 785.535 367.83 785.535 365.844V337.577C785.535 335.592 783.969 333.982 782.037 333.982Z" fill="black" stroke="white" stroke-width="1.40423" stroke-miterlimit="10"/>
<path vector-effect="non-scaling-stroke" d="M752.346 344.304H780.917" stroke="white" stroke-width="1.40423" stroke-miterlimit="10"/>
<path vector-effect="non-scaling-stroke" d="M752.346 339.979H766.953" stroke="white" stroke-width="1.40423" stroke-miterlimit="10"/>
<path vector-effect="non-scaling-stroke" d="M748.07 339.979H743.41C742.724 339.979 742.167 340.551 742.167 341.256V343.138C742.167 343.844 742.724 344.416 743.41 344.416H748.07C748.756 344.416 749.313 343.844 749.313 343.138V341.256C749.313 340.551 748.756 339.979 748.07 339.979Z" fill="black" stroke="white" stroke-width="1.40423" stroke-miterlimit="10"/>
<path vector-effect="non-scaling-stroke" d="M748.07 348.614H743.41C742.724 348.614 742.167 349.186 742.167 349.892V351.774C742.167 352.48 742.724 353.052 743.41 353.052H748.07C748.756 353.052 749.313 352.48 749.313 351.774V349.892C749.313 349.186 748.756 348.614 748.07 348.614Z" fill="black" stroke="white" stroke-width="1.40423" stroke-miterlimit="10"/>
<path vector-effect="non-scaling-stroke" d="M747.359 363.514V360.607L752.811 358.936V356.97L758.263 354.148L763.715 354.134L769.166 350.665L772.063 348.728H774.591V363.5" fill="black"/>
<path vector-effect="non-scaling-stroke" d="M747.359 363.514V360.607L752.811 358.936V356.97L758.263 354.148L763.715 354.134L769.166 350.665L772.063 348.728H774.591V363.5" stroke="white" stroke-width="1.40423" stroke-miterlimit="10"/>
<path vector-effect="non-scaling-stroke" d="M752.811 356.971V363.514" stroke="white" stroke-width="1.40423" stroke-miterlimit="10"/>
<path vector-effect="non-scaling-stroke" d="M758.263 354.147V363.514" stroke="white" stroke-width="1.40423" stroke-miterlimit="10"/>
<path vector-effect="non-scaling-stroke" d="M763.715 354.134V363.5" stroke="white" stroke-width="1.40423" stroke-miterlimit="10"/>
<path vector-effect="non-scaling-stroke" d="M769.166 350.665V363.514" stroke="white" stroke-width="1.40423" stroke-miterlimit="10"/>
<path vector-effect="non-scaling-stroke" d="M774.591 348.727H779.687V363.499H742.167V360.606H747.359" stroke="white" stroke-width="1.40423" stroke-miterlimit="10"/>
<path vector-effect="non-scaling-stroke" d="M108.749 372.008H130.843" stroke="white" stroke-width="1.40423" stroke-miterlimit="10"/>
</g>
<defs>
<clipPath id="clip0_21_15594">
<rect width="802" height="521.994" fill="white"/>
</clipPath>
</defs>
</svg>
