<svg width="802" height="535" viewBox="0 0 802 535" fill="none" xmlns="http://www.w3.org/2000/svg">
<g clip-path="url(#clip0_21_15598)">
<g clip-path="url(#clip1_21_15598)">
<path vector-effect="non-scaling-stroke" d="M134.979 306.747H167.451V274.275H134.979V306.747Z" stroke="white" stroke-width="1.31776" stroke-miterlimit="10"/>
<path vector-effect="non-scaling-stroke" d="M199.922 371.691H232.394V339.22H199.922V371.691Z" stroke="white" stroke-width="1.31776" stroke-miterlimit="10"/>
<path vector-effect="non-scaling-stroke" d="M167.451 371.691H199.922V339.22H167.451V371.691Z" fill="#202020"/>
<path vector-effect="non-scaling-stroke" d="M199.922 339.219H232.394V306.747H199.922V339.219Z" fill="#202020"/>
<path vector-effect="non-scaling-stroke" d="M167.451 371.691H199.922V339.22H167.451V371.691Z" stroke="white" stroke-width="1.31776" stroke-miterlimit="10"/>
<path vector-effect="non-scaling-stroke" d="M199.922 339.219H232.394V306.747H199.922V339.219Z" stroke="white" stroke-width="1.31776" stroke-miterlimit="10"/>
<path vector-effect="non-scaling-stroke" d="M232.394 339.219H264.866V306.747H232.394V339.219Z" stroke="white" stroke-width="1.31776" stroke-miterlimit="10"/>
<path vector-effect="non-scaling-stroke" d="M167.451 339.219H199.922V306.747H167.451V339.219Z" stroke="white" stroke-width="1.31776" stroke-miterlimit="10"/>
<path vector-effect="non-scaling-stroke" d="M200.349 457.264H232.821V424.792H200.349V457.264Z" stroke="white" stroke-width="1.31776" stroke-miterlimit="10"/>
<path vector-effect="non-scaling-stroke" d="M265.293 522.207H297.765V489.735H265.293V522.207Z" stroke="white" stroke-width="1.31776" stroke-miterlimit="10"/>
<path vector-effect="non-scaling-stroke" d="M232.821 522.207H265.293V489.735H232.821V522.207Z" fill="#202020"/>
<path vector-effect="non-scaling-stroke" d="M265.293 489.735H297.765V457.264H265.293V489.735Z" fill="#202020"/>
<path vector-effect="non-scaling-stroke" d="M232.821 522.207H265.293V489.735H232.821V522.207Z" stroke="white" stroke-width="1.31776" stroke-miterlimit="10"/>
<path vector-effect="non-scaling-stroke" d="M265.293 489.735H297.765V457.264H265.293V489.735Z" stroke="white" stroke-width="1.31776" stroke-miterlimit="10"/>
<path vector-effect="non-scaling-stroke" d="M297.765 489.735H330.237V457.264H297.765V489.735Z" stroke="white" stroke-width="1.31776" stroke-miterlimit="10"/>
<path vector-effect="non-scaling-stroke" d="M232.821 489.735H265.293V457.264H232.821V489.735Z" stroke="white" stroke-width="1.31776" stroke-miterlimit="10"/>
<path vector-effect="non-scaling-stroke" d="M406.955 484.984V388.326" stroke="white" stroke-width="1.31776" stroke-linecap="round" stroke-linejoin="round"/>
<path vector-effect="non-scaling-stroke" d="M555.97 385.916V393.958L546.302 398.792V406.848L552.747 409.272L549.525 462.427H536.635V393.958L519.725 376.249V431.828L511.669 439.871V468.073L531.003 487.394V522.207" stroke="white" stroke-width="1.31776" stroke-linecap="round" stroke-linejoin="round"/>
<path vector-effect="non-scaling-stroke" d="M560.803 396.382L566.436 398.792V406.848L559.991 409.271L564.067 476.115" stroke="white" stroke-width="1.31776" stroke-linecap="round" stroke-linejoin="round"/>
<path vector-effect="non-scaling-stroke" d="M582.548 394.771V422.961H575.304V491.429H559.991L560.294 522.207" stroke="white" stroke-width="1.31776" stroke-linecap="round" stroke-linejoin="round"/>
<path vector-effect="non-scaling-stroke" d="M592.215 403.626V445.517H598.66V484.985H632.33V522.207" stroke="white" stroke-width="1.31776" stroke-linecap="round" stroke-linejoin="round"/>
<path vector-effect="non-scaling-stroke" d="M592.215 394.771V399.605" stroke="white" stroke-width="1.31776" stroke-linecap="round" stroke-linejoin="round"/>
<path vector-effect="non-scaling-stroke" d="M453.183 437.269C453.183 426.775 456.75 415.249 462.672 406.587C466.514 400.955 472.27 394.771 479.445 394.771V481.762H489.112V417.328H501.189V472.908L514.078 485.797V508.354" stroke="white" stroke-width="1.31776" stroke-linecap="round" stroke-linejoin="round"/>
<path vector-effect="non-scaling-stroke" d="M750.952 17.3926H39.2848C28.9185 17.3926 20.515 25.7961 20.515 36.1623V503.437C20.515 513.803 28.9185 522.207 39.2848 522.207H750.952C761.318 522.207 769.722 513.803 769.722 503.437V36.1623C769.722 25.7961 761.318 17.3926 750.952 17.3926Z" stroke="white" stroke-width="1.31776" stroke-linecap="round" stroke-linejoin="round"/>
<path vector-effect="non-scaling-stroke" d="M6.19332 64.586L28.8878 79.4723L78.6008 68.373C79.4408 68.1802 79.6749 67.0785 78.9726 66.569L58.5366 51.6826L6.5376 62.7682C5.67003 62.9472 5.44969 64.104 6.19332 64.586Z" fill="#202020" stroke="white" stroke-width="1.31776" stroke-miterlimit="10"/>
<path vector-effect="non-scaling-stroke" d="M75.8327 16.9515L53.5927 0.743164L1.71765 14.638L4.08625 61.3903C4.14133 62.368 5.05021 63.0703 6.01418 62.8775L58.5364 51.6955" fill="#020202"/>
<path vector-effect="non-scaling-stroke" d="M75.8327 16.9515L53.5927 0.743164L1.71765 14.638L4.08625 61.3903C4.14133 62.368 5.05021 63.0703 6.01418 62.8775L58.5364 51.6955" stroke="white" stroke-width="1.31776" stroke-miterlimit="10"/>
<path vector-effect="non-scaling-stroke" d="M80.7765 67.8901L75.8327 16.9515L53.5927 0.743164L1.71765 14.638L4.18264 63.2631L28.8877 79.4715L80.7765 67.8901Z" stroke="white" stroke-width="1.31776" stroke-miterlimit="10"/>
<path vector-effect="non-scaling-stroke" d="M80.7764 67.8901L58.5364 51.6818L53.5927 0.743164" stroke="white" stroke-width="1.31776" stroke-miterlimit="10"/>
<path vector-effect="non-scaling-stroke" d="M711.264 5.30176H541.372C539.22 5.30176 537.475 7.04658 537.475 9.19893V129.157C537.475 131.31 539.22 133.055 541.372 133.055H711.264C713.417 133.055 715.161 131.31 715.161 129.157V9.19893C715.161 7.04658 713.417 5.30176 711.264 5.30176Z" fill="black" stroke="white" stroke-width="1.31776" stroke-linecap="round" stroke-linejoin="round"/>
<path vector-effect="non-scaling-stroke" d="M592.27 42.4424H698.058" stroke="white" stroke-width="1.31776" stroke-linecap="round" stroke-linejoin="round"/>
<path vector-effect="non-scaling-stroke" d="M592.27 26.8945H646.348" stroke="white" stroke-width="1.31776" stroke-linecap="round" stroke-linejoin="round"/>
<path vector-effect="non-scaling-stroke" d="M579.669 26.8945H555.983C555.215 26.8945 554.592 27.5172 554.592 28.2854V41.4779C554.592 42.2461 555.215 42.8688 555.983 42.8688H579.669C580.437 42.8688 581.06 42.2461 581.06 41.4779V28.2854C581.06 27.5172 580.437 26.8945 579.669 26.8945Z" fill="#9F20F5" stroke="white" stroke-width="1.31776" stroke-linecap="round" stroke-linejoin="round"/>
<path vector-effect="non-scaling-stroke" d="M579.669 57.9893H555.983C555.215 57.9893 554.592 58.612 554.592 59.3801V72.5727C554.592 73.3408 555.215 73.9635 555.983 73.9635H579.669C580.437 73.9635 581.06 73.3408 581.06 72.5727V59.3801C581.06 58.612 580.437 57.9893 579.669 57.9893Z" fill="black" stroke="white" stroke-width="1.31776" stroke-linecap="round" stroke-linejoin="round"/>
<path vector-effect="non-scaling-stroke" d="M573.83 111.653V101.201L594.018 95.1971V88.1051L614.193 77.9284L634.381 77.8733L654.555 65.3556L665.297 58.415H674.633V111.598" fill="black"/>
<path vector-effect="non-scaling-stroke" d="M573.83 111.653V101.201L594.018 95.1971V88.1051L614.193 77.9284L634.381 77.8733L654.555 65.3556L665.297 58.415H674.633V111.598" stroke="white" stroke-width="1.31776" stroke-linecap="round" stroke-linejoin="round"/>
<path vector-effect="non-scaling-stroke" d="M594.018 88.1045V111.653" stroke="white" stroke-width="1.31776" stroke-linecap="round" stroke-linejoin="round"/>
<path vector-effect="non-scaling-stroke" d="M614.193 77.9287V111.654" stroke="white" stroke-width="1.31776" stroke-linecap="round" stroke-linejoin="round"/>
<path vector-effect="non-scaling-stroke" d="M634.381 77.873V111.612" stroke="white" stroke-width="1.31776" stroke-linecap="round" stroke-linejoin="round"/>
<path vector-effect="non-scaling-stroke" d="M654.555 65.3555V111.653" stroke="white" stroke-width="1.31776" stroke-linecap="round" stroke-linejoin="round"/>
<path vector-effect="non-scaling-stroke" d="M674.633 58.416H693.513V111.613H554.592V101.202H573.83" stroke="white" stroke-width="1.31776" stroke-linecap="round" stroke-linejoin="round"/>
<path vector-effect="non-scaling-stroke" d="M652.711 364.461H595.713C587.877 364.461 581.46 358.126 581.46 350.387V294.105C581.46 286.338 587.836 280.031 595.713 280.031H652.711C660.546 280.031 666.964 286.366 666.964 294.105V350.387C666.964 358.154 660.588 364.461 652.711 364.461Z" stroke="white" stroke-width="1.31776" stroke-linecap="round" stroke-linejoin="round"/>
<path vector-effect="non-scaling-stroke" d="M524.476 364.461H467.478C459.642 364.461 453.225 358.126 453.225 350.387V294.105C453.225 286.338 459.601 280.031 467.478 280.031H524.476C532.311 280.031 538.728 286.366 538.728 294.105V350.387C538.728 358.154 532.353 364.461 524.476 364.461Z" stroke="white" stroke-width="1.31776" stroke-linecap="round" stroke-linejoin="round"/>
<path vector-effect="non-scaling-stroke" d="M780.931 364.461H723.934C716.098 364.461 709.681 358.126 709.681 350.387V294.105C709.681 286.338 716.057 280.031 723.934 280.031H780.931C788.767 280.031 795.184 286.366 795.184 294.105V350.387C795.184 358.154 788.808 364.461 780.931 364.461Z" fill="black" stroke="white" stroke-width="1.31776" stroke-linecap="round" stroke-linejoin="round"/>
<path vector-effect="non-scaling-stroke" d="M624.205 133.041V280.046" stroke="white" stroke-width="1.31776" stroke-linecap="round" stroke-linejoin="round"/>
<path vector-effect="non-scaling-stroke" d="M752.439 280.046V223.764C752.439 215.998 746.063 209.69 738.186 209.69H510.223C502.36 209.69 495.97 215.984 495.97 223.764V280.046" stroke="white" stroke-width="1.31776" stroke-linecap="round" stroke-linejoin="round"/>
<path vector-effect="non-scaling-stroke" d="M753.707 291.295C753.638 292.094 753.665 292.92 753.817 293.705Z" fill="#404040"/>
<path vector-effect="non-scaling-stroke" d="M753.018 291.295C752.935 292.163 752.99 293.03 753.156 293.884C753.183 294.049 753.335 294.215 753.472 294.297C753.624 294.38 753.844 294.421 754.01 294.366C754.395 294.242 754.56 293.898 754.491 293.512C754.464 293.374 754.45 293.237 754.423 293.099L754.45 293.278C754.368 292.617 754.354 291.942 754.409 291.281C754.423 291.116 754.326 290.909 754.202 290.799C754.078 290.689 753.886 290.593 753.72 290.593C753.321 290.607 753.073 290.896 753.032 291.281L753.018 291.295Z" fill="white"/>
<path vector-effect="non-scaling-stroke" d="M771.416 315.354C771.416 305.852 763.36 298.223 753.707 298.939C745.802 299.531 739.371 305.797 738.586 313.688C738.076 318.866 739.963 323.603 743.268 326.935C746.422 330.117 748.308 333.174 748.308 337.663V339.288H761.611V337.691C761.611 333.298 763.291 330.199 766.445 327.128C769.516 324.14 771.416 319.967 771.416 315.34V315.354Z" fill="#020202" stroke="white" stroke-width="1.31776" stroke-linecap="round" stroke-linejoin="round"/>
<path vector-effect="non-scaling-stroke" d="M748.336 341.023H761.583" stroke="white" stroke-width="1.31776" stroke-linecap="round" stroke-linejoin="round"/>
<path vector-effect="non-scaling-stroke" d="M736.107 303.4C736.479 303.676 736.865 303.965 737.237 304.24Z" fill="#404040"/>
<path vector-effect="non-scaling-stroke" d="M735.763 303.993C736.135 304.268 736.52 304.558 736.892 304.833C736.975 304.888 737.058 304.916 737.154 304.916C737.25 304.929 737.333 304.929 737.429 304.916C737.595 304.874 737.76 304.75 737.842 304.599C737.925 304.434 737.966 304.241 737.911 304.062L737.842 303.897C737.787 303.786 737.705 303.718 737.595 303.649C737.223 303.373 736.837 303.084 736.465 302.809C736.383 302.754 736.3 302.726 736.204 302.726C736.107 302.712 736.025 302.712 735.928 302.726C735.763 302.767 735.598 302.891 735.515 303.043C735.433 303.208 735.391 303.401 735.446 303.58L735.515 303.745C735.57 303.855 735.653 303.924 735.763 303.993Z" fill="white"/>
<path vector-effect="non-scaling-stroke" d="M773.881 316.166C774.57 316.125 775.258 316.097 775.947 316.056Z" fill="#404040"/>
<path vector-effect="non-scaling-stroke" d="M773.881 316.855C774.57 316.814 775.258 316.786 775.947 316.745C776.305 316.731 776.649 316.442 776.635 316.056C776.621 315.698 776.332 315.354 775.947 315.368C775.258 315.409 774.57 315.436 773.881 315.478C773.523 315.492 773.179 315.781 773.192 316.166C773.206 316.524 773.495 316.869 773.881 316.855Z" fill="white"/>
<path vector-effect="non-scaling-stroke" d="M769.584 330.405C769.929 330.694 770.273 330.97 770.631 331.259Z" fill="#404040"/>
<path vector-effect="non-scaling-stroke" d="M769.089 330.887C769.433 331.176 769.777 331.452 770.135 331.741C770.204 331.81 770.273 331.851 770.356 331.879C770.438 331.92 770.521 331.947 770.617 331.934C770.782 331.934 770.989 331.865 771.099 331.727C771.209 331.589 771.306 331.424 771.306 331.245C771.306 331.08 771.237 330.873 771.099 330.763C770.755 330.474 770.411 330.198 770.053 329.909C769.984 329.84 769.915 329.799 769.832 329.772C769.75 329.73 769.667 329.703 769.571 329.716C769.405 329.716 769.199 329.785 769.089 329.923C768.979 330.061 768.882 330.226 768.882 330.405C768.882 330.57 768.951 330.777 769.089 330.887Z" fill="white"/>
<path vector-effect="non-scaling-stroke" d="M769.915 295.51C769.474 296.019 769.034 296.515 768.593 297.025Z" fill="#404040"/>
<path vector-effect="non-scaling-stroke" d="M769.419 295.028C768.979 295.537 768.538 296.033 768.097 296.543C767.973 296.68 767.891 296.846 767.891 297.025C767.891 297.19 767.959 297.396 768.097 297.507C768.235 297.617 768.4 297.713 768.579 297.713C768.758 297.713 768.951 297.644 769.061 297.507C769.502 296.997 769.942 296.501 770.383 295.992C770.507 295.854 770.59 295.689 770.59 295.51C770.59 295.345 770.521 295.138 770.383 295.028C770.245 294.918 770.08 294.821 769.901 294.821C769.722 294.821 769.529 294.89 769.419 295.028Z" fill="white"/>
<path vector-effect="non-scaling-stroke" d="M732.596 317.764C733.353 317.695 734.111 317.64 734.868 317.571Z" fill="#404040"/>
<path vector-effect="non-scaling-stroke" d="M732.596 318.453C733.353 318.384 734.111 318.329 734.868 318.26C735.047 318.247 735.226 318.192 735.35 318.054C735.474 317.93 735.556 317.737 735.556 317.572C735.543 317.228 735.254 316.856 734.868 316.883C734.111 316.952 733.353 317.007 732.596 317.076C732.417 317.09 732.238 317.145 732.114 317.283C731.99 317.407 731.907 317.599 731.907 317.765C731.921 318.109 732.21 318.481 732.596 318.453Z" fill="white"/>
<path vector-effect="non-scaling-stroke" d="M740.184 330.074C739.77 330.515 739.357 330.956 738.958 331.396Z" fill="#404040"/>
<path vector-effect="non-scaling-stroke" d="M739.688 329.592C739.275 330.033 738.861 330.474 738.462 330.914C738.338 331.052 738.255 331.217 738.255 331.396C738.255 331.562 738.324 331.768 738.462 331.878C738.6 331.988 738.765 332.085 738.944 332.085C739.123 332.085 739.302 332.016 739.426 331.878C739.839 331.438 740.252 330.997 740.652 330.556C740.776 330.419 740.858 330.253 740.858 330.074C740.858 329.909 740.789 329.702 740.652 329.592C740.514 329.482 740.349 329.386 740.17 329.386C739.991 329.386 739.812 329.455 739.688 329.592Z" fill="white"/>
<path vector-effect="non-scaling-stroke" d="M761.597 335.226V346.146C761.597 346.463 761.336 346.711 761.033 346.711H748.873C748.556 346.711 748.308 346.463 748.308 346.146V335.226H761.611H761.597Z" fill="#404040" stroke="white" stroke-width="1.31776" stroke-linecap="round" stroke-linejoin="round"/>
<path vector-effect="non-scaling-stroke" d="M758.499 346.71C758.196 348.39 756.722 349.671 754.946 349.671C753.169 349.671 751.696 348.404 751.393 346.71H758.499Z" fill="#404040" stroke="white" stroke-width="1.31776" stroke-linecap="round" stroke-linejoin="round"/>
<path vector-effect="non-scaling-stroke" d="M754.051 334.895C752.839 331.507 750.346 328.753 749.19 325.352C748.639 323.741 748.129 321.51 748.777 319.857C749.451 318.108 752.068 318.563 753.417 319.21C754.175 319.582 754.85 320.133 755.332 320.835C755.566 321.179 755.758 321.537 755.896 321.923C755.979 322.157 756.323 323.093 756.158 323.328C755.703 323.975 754.794 322.611 754.657 322.267C754.381 321.606 754.354 320.821 754.615 320.146C755.208 318.563 757.08 317.737 758.678 317.819C760.867 317.929 761.473 320.243 761.336 322.088C761.17 324.264 760.206 326.371 759.38 328.354C758.499 330.488 757.604 332.637 756.722 334.771C756.378 335.584 757.714 335.942 758.044 335.143C759.132 332.513 760.261 329.91 761.294 327.252C762.203 324.952 763.14 322.364 762.547 319.871C761.997 317.53 760.151 316.194 757.769 316.483C755.813 316.717 753.858 317.929 753.252 319.885C752.715 321.592 753.335 323.782 755.015 324.636C755.786 325.021 756.833 325.008 757.315 324.195C757.797 323.383 757.466 322.143 757.136 321.317C756.309 319.265 754.45 317.792 752.274 317.42C750.099 317.048 747.964 317.516 747.358 319.816C746.683 322.364 747.551 325.324 748.666 327.61C749.933 330.213 751.751 332.513 752.729 335.253C753.018 336.079 754.354 335.721 754.051 334.881V334.895Z" fill="white"/>
<path vector-effect="non-scaling-stroke" d="M587.216 205.793C584.393 205.793 582.093 208.079 582.093 210.902C582.093 213.725 584.379 215.997 587.216 215.997C590.053 215.997 592.339 213.711 592.339 210.902C592.339 208.093 590.053 205.793 587.216 205.793Z" fill="#020202" stroke="white" stroke-width="1.31776" stroke-linecap="round" stroke-linejoin="round"/>
<path vector-effect="non-scaling-stroke" d="M533.013 206.412C530.19 206.412 527.891 208.698 527.891 211.521C527.891 214.344 530.177 216.616 533.013 216.616C535.85 216.616 538.136 214.33 538.136 211.521C538.136 208.712 535.85 206.412 533.013 206.412Z" fill="#020202" stroke="white" stroke-width="1.31776" stroke-linecap="round" stroke-linejoin="round"/>
<path vector-effect="non-scaling-stroke" d="M720.615 205.476C717.792 205.476 715.492 207.762 715.492 210.585C715.492 213.408 717.778 215.68 720.615 215.68C723.451 215.68 725.738 213.394 725.738 210.585C725.738 207.775 723.451 205.476 720.615 205.476Z" fill="#020202" stroke="white" stroke-width="1.31776" stroke-linecap="round" stroke-linejoin="round"/>
<path vector-effect="non-scaling-stroke" d="M666.399 206.096C663.576 206.096 661.276 208.382 661.276 211.205C661.276 214.028 663.562 216.3 666.399 216.3C669.235 216.3 671.521 214.014 671.521 211.205C671.521 208.395 669.235 206.096 666.399 206.096Z" fill="#020202" stroke="white" stroke-width="1.31776" stroke-linecap="round" stroke-linejoin="round"/>
<path vector-effect="non-scaling-stroke" d="M597.448 343.79V309.267H604.347V343.79" stroke="white" stroke-width="1.31776" stroke-linecap="round" stroke-linejoin="round"/>
<path vector-effect="non-scaling-stroke" d="M597.448 313.577H604.347" stroke="white" stroke-width="1.31776" stroke-linecap="round" stroke-linejoin="round"/>
<path vector-effect="non-scaling-stroke" d="M610.392 340.334V321.344C610.392 319.443 611.935 317.887 613.849 317.887C615.763 317.887 617.305 319.429 617.305 321.344V331.699C617.305 333.6 618.848 335.156 620.762 335.156C622.676 335.156 624.218 333.613 624.218 331.699V307.531C624.218 306.099 625.375 304.942 626.807 304.942H636.296C637.728 304.942 638.884 306.099 638.884 307.531V309.253" stroke="white" stroke-width="1.31776" stroke-linecap="round" stroke-linejoin="round"/>
<path vector-effect="non-scaling-stroke" d="M648.373 325.654V321.344C648.373 317.006 645.453 313.343 641.473 312.214V309.253H636.295V312.214C632.316 313.343 629.396 316.992 629.396 321.344V325.654" stroke="white" stroke-width="1.31776" stroke-linecap="round" stroke-linejoin="round"/>
<path vector-effect="non-scaling-stroke" d="M629.383 325.654H648.373C649.323 325.654 650.094 326.425 650.094 327.376C650.094 328.326 649.323 329.097 648.373 329.097H629.383C628.432 329.097 627.661 328.326 627.661 327.376C627.661 326.425 628.432 325.654 629.383 325.654Z" stroke="white" stroke-width="1.31776" stroke-linecap="round" stroke-linejoin="round"/>
<path vector-effect="non-scaling-stroke" d="M629.383 329.111V339.467" stroke="white" stroke-width="1.31776" stroke-linecap="round" stroke-linejoin="round"/>
<path vector-effect="non-scaling-stroke" d="M648.373 329.111V339.467" stroke="white" stroke-width="1.31776" stroke-linecap="round" stroke-linejoin="round"/>
<path vector-effect="non-scaling-stroke" d="M626.794 343.791V339.48H650.962V348.115H597.448V343.805H634.561" stroke="white" stroke-width="1.31776" stroke-linecap="round" stroke-linejoin="round"/>
<path vector-effect="non-scaling-stroke" d="M607.803 343.79V340.334H612.981V343.79" stroke="white" stroke-width="1.31776" stroke-linecap="round" stroke-linejoin="round"/>
<path vector-effect="non-scaling-stroke" d="M619.027 294.587C617.54 294.587 616.121 295.234 615.143 296.35C614.166 295.234 612.747 294.587 611.26 294.587C609.773 294.587 608.354 295.234 607.377 296.35C606.399 295.234 604.98 294.587 603.493 294.587C600.629 294.587 598.315 296.9 598.315 299.765V306.664M619.027 304.943C617.54 304.943 616.121 304.295 615.143 303.18C614.166 304.295 612.747 304.943 611.26 304.943C609.773 304.943 608.354 304.295 607.377 303.18C606.399 304.295 604.98 304.943 603.493 304.943V306.664" stroke="white" stroke-width="1.31776" stroke-linecap="round" stroke-linejoin="round"/>
<path vector-effect="non-scaling-stroke" d="M487.17 335.335L479.954 301.335V294.587H464.779V347.853" stroke="white" stroke-width="1.31776" stroke-linecap="round" stroke-linejoin="round"/>
<path vector-effect="non-scaling-stroke" d="M479.871 294.587H510.732V301.335L518.747 339.453L515.455 339.59L506.849 301.335V298.043H500.555V300.825H497.498V298.043H490.585V300.825H487.542V298.043H480.037L479.871 294.587Z" stroke="white" stroke-width="1.31776" stroke-linecap="round" stroke-linejoin="round"/>
<path vector-effect="non-scaling-stroke" d="M475.892 294.67V301.39L483.907 336.575" stroke="white" stroke-width="1.31776" stroke-linecap="round" stroke-linejoin="round"/>
<path vector-effect="non-scaling-stroke" d="M480.216 301.128C480.216 301.128 489.194 300.247 491.604 309.046L496.493 332.732" stroke="white" stroke-width="1.31776" stroke-linecap="round" stroke-linejoin="round"/>
<path vector-effect="non-scaling-stroke" d="M514.23 334.344C513.679 331.714 512.192 330.24 509.699 330.24C507.207 330.24 505.348 332.113 505.21 334.468C505.017 332.154 503.089 330.337 500.734 330.337C498.256 330.337 496.231 332.347 496.231 334.84H496.094C496.094 332.361 494.083 330.337 491.591 330.337H486.812" stroke="white" stroke-width="1.31776" stroke-linecap="round" stroke-linejoin="round"/>
<path vector-effect="non-scaling-stroke" d="M505.678 332.388L500.762 309.047C498.696 300.481 489.373 301.128 489.373 301.128H479.954" stroke="white" stroke-width="1.31776" stroke-linecap="round" stroke-linejoin="round"/>
<path vector-effect="non-scaling-stroke" d="M518.747 339.453C523.388 339.453 525.191 342.565 525.191 345.802H525.371C525.371 342.565 527.987 339.949 531.223 339.949" stroke="white" stroke-width="1.31776" stroke-linecap="round" stroke-linejoin="round"/>
<path vector-effect="non-scaling-stroke" d="M508.639 309.047C506.573 300.481 497.25 301.128 497.25 301.128H491.205" stroke="white" stroke-width="1.31776" stroke-linecap="round" stroke-linejoin="round"/>
<path vector-effect="non-scaling-stroke" d="M508.79 325.599C509.3 325.599 509.713 325.186 509.713 324.677C509.713 324.167 509.3 323.754 508.79 323.754C508.281 323.754 507.868 324.167 507.868 324.677C507.868 325.186 508.281 325.599 508.79 325.599Z" stroke="white" stroke-width="1.31776" stroke-linecap="round" stroke-linejoin="round"/>
<path vector-effect="non-scaling-stroke" d="M505.017 322.969C505.702 322.969 506.257 322.414 506.257 321.73C506.257 321.045 505.702 320.49 505.017 320.49C504.333 320.49 503.778 321.045 503.778 321.73C503.778 322.414 504.333 322.969 505.017 322.969Z" stroke="white" stroke-width="1.31776" stroke-linecap="round" stroke-linejoin="round"/>
<path vector-effect="non-scaling-stroke" d="M498.201 328.244C498.201 328.739 498.6 329.139 499.096 329.139C499.591 329.139 499.991 328.739 499.991 328.244C499.991 327.748 499.591 327.349 499.096 327.349C498.6 327.349 498.201 327.748 498.201 328.244Z" stroke="white" stroke-width="1.31776" stroke-linecap="round" stroke-linejoin="round"/>
<path vector-effect="non-scaling-stroke" d="M498.435 318.163C498.435 318.563 498.765 318.893 499.165 318.893C499.564 318.893 499.894 318.563 499.894 318.163C499.894 317.764 499.564 317.434 499.165 317.434C498.765 317.434 498.435 317.764 498.435 318.163Z" stroke="white" stroke-width="1.31776" stroke-linecap="round" stroke-linejoin="round"/>
<path vector-effect="non-scaling-stroke" d="M491.343 327.183C491.343 327.706 491.77 328.133 492.293 328.133C492.816 328.133 493.243 327.706 493.243 327.183C493.243 326.659 492.816 326.232 492.293 326.232C491.77 326.232 491.343 326.659 491.343 327.183Z" stroke="white" stroke-width="1.31776" stroke-linecap="round" stroke-linejoin="round"/>
<path vector-effect="non-scaling-stroke" d="M489.497 322.831C490.113 322.831 490.613 322.332 490.613 321.716C490.613 321.1 490.113 320.601 489.497 320.601C488.881 320.601 488.382 321.1 488.382 321.716C488.382 322.332 488.881 322.831 489.497 322.831Z" stroke="white" stroke-width="1.31776" stroke-linecap="round" stroke-linejoin="round"/>
<path vector-effect="non-scaling-stroke" d="M407.808 505.998C401.088 515.238 384.425 517.193 384.425 517.193C364.003 519.121 366.165 533.347 366.165 533.347H453.541L449.107 501.839L407.808 505.998Z" fill="black" stroke="white" stroke-width="1.31776" stroke-linecap="round" stroke-linejoin="round"/>
<path vector-effect="non-scaling-stroke" d="M306.468 495.904C305.422 497.612 303.452 499.623 301.097 501.702C292.973 508.849 282.975 513.504 272.358 515.569C252.83 519.37 256.686 533.347 256.686 533.347H347.877L344.021 498.328L306.468 495.891V495.904Z" fill="black" stroke="white" stroke-width="1.31776" stroke-linecap="round" stroke-linejoin="round"/>
<path vector-effect="non-scaling-stroke" d="M131.825 492.517C135.764 510.639 155.208 513.696 155.208 513.696C180.96 516.629 180.106 534.256 180.106 534.256H83.8198L90.5263 492.517H131.825Z" fill="black" stroke="white" stroke-width="1.31776" stroke-linecap="round" stroke-linejoin="round"/>
<path vector-effect="non-scaling-stroke" d="M54.9837 492.517C58.9222 510.639 78.3667 513.696 78.3667 513.696C104.118 516.629 103.265 534.256 103.265 534.256H6.97827L13.6847 492.517H54.9837Z" fill="black" stroke="white" stroke-width="1.31776" stroke-linecap="round" stroke-linejoin="round"/>
<path vector-effect="non-scaling-stroke" d="M238.922 239.875L240.712 238.705C247.418 234.298 255.144 231.654 263.145 231.048L306.496 227.743L306.537 197.736L247.652 201.565C243.576 201.826 239.541 203.465 235.672 204.773L230.824 206.398L220.166 223.956L238.922 239.875Z" fill="black" stroke="white" stroke-width="1.31776" stroke-miterlimit="10"/>
<path vector-effect="non-scaling-stroke" d="M238.922 240.302C238.825 240.302 238.729 240.275 238.646 240.206L219.89 224.287C219.725 224.149 219.697 223.929 219.808 223.75L230.466 206.192C230.521 206.109 230.604 206.04 230.687 206.013L235.534 204.388C236.195 204.167 236.856 203.933 237.531 203.699C240.808 202.556 244.182 201.386 247.625 201.165L306.509 197.337C306.633 197.337 306.743 197.364 306.826 197.447C306.909 197.53 306.964 197.64 306.964 197.75L306.922 227.757C306.922 227.977 306.757 228.156 306.537 228.184L263.186 231.489C255.268 232.095 247.583 234.711 240.96 239.077L239.169 240.247C239.101 240.288 239.018 240.316 238.935 240.316L238.922 240.302Z" fill="black" stroke="white" stroke-width="1.31776" stroke-miterlimit="10"/>
<path vector-effect="non-scaling-stroke" d="M237.324 126.127C237.613 125.067 237.407 123.896 236.746 122.864C236.099 121.845 235.121 121.156 234.047 120.963C233.634 119.614 232.491 118.526 230.962 118.03C229.64 117.603 228.47 117.851 227.671 118.168C228.387 117.08 229.103 115.978 229.805 114.89C231.637 111.998 232.201 110.979 231.857 109.919C231.458 108.652 230.026 107.867 228.883 107.688C227.492 107.454 225.385 108.032 220.235 114.036C212.798 122.712 210.168 129.653 209.714 130.975L208.378 139.513C210.127 142.102 212.867 144.098 219.987 145.916C221.694 146.357 223.305 146.536 224.807 146.536C228.18 146.536 230.99 145.627 232.959 144.691C233.042 144.649 233.11 144.567 233.124 144.47C233.634 141.151 234.019 137.805 234.267 134.486C236.126 134.362 237.848 133.109 238.522 131.347C239.197 129.57 238.701 127.449 237.338 126.127H237.324Z" fill="black" stroke="white" stroke-width="1.31776" stroke-miterlimit="10"/>
<path vector-effect="non-scaling-stroke" d="M215.704 125.783C217.246 123.745 219.56 122.257 222.052 121.72C224.545 121.183 227.271 121.569 229.516 122.781C230.755 123.455 231.416 124.323 231.389 125.259C231.361 126.168 230.645 127.008 229.489 127.504C229.199 127.628 228.896 127.738 228.593 127.835C228.015 128.041 227.464 128.22 226.996 128.564C226.142 129.198 225.702 130.286 225.385 131.264C225.343 131.415 225.288 131.567 225.247 131.718C224.958 132.668 224.641 133.646 224.021 134.445C223.457 135.174 222.52 135.753 221.556 135.753" fill="black"/>
<path vector-effect="non-scaling-stroke" d="M215.704 125.783C217.246 123.745 219.56 122.257 222.052 121.72C224.545 121.183 227.271 121.569 229.516 122.781C230.755 123.455 231.416 124.323 231.389 125.259C231.361 126.168 230.645 127.008 229.489 127.504C229.199 127.628 228.896 127.738 228.593 127.835C228.015 128.041 227.464 128.22 226.996 128.564C226.142 129.198 225.702 130.286 225.385 131.264C225.343 131.415 225.288 131.567 225.247 131.718C224.958 132.668 224.641 133.646 224.021 134.445C223.457 135.174 222.52 135.753 221.556 135.753" stroke="white" stroke-width="1.31776" stroke-miterlimit="10"/>
<path vector-effect="non-scaling-stroke" d="M234.047 120.963C233.895 123.084 233.248 126.003 232.146 127.807C231.348 129.129 230.48 129.969 229.475 130.396C229.048 130.575 228.566 130.685 228.07 130.685C227.23 130.685 226.555 130.589 226.005 129.886" stroke="white" stroke-width="1.31776" stroke-miterlimit="10"/>
<path vector-effect="non-scaling-stroke" d="M237.324 126.127C236.884 127.339 236.167 129.253 235.272 130.479C234.281 131.828 232.917 132.696 231.554 132.833C231.43 132.847 231.293 132.861 231.169 132.861C229.668 132.861 228.235 131.938 227.822 130.63" stroke="white" stroke-width="1.31776" stroke-miterlimit="10"/>
<path vector-effect="non-scaling-stroke" d="M234.253 134.486C233.234 134.486 231.706 133.729 231.155 132.875Z" fill="black"/>
<path vector-effect="non-scaling-stroke" d="M234.253 134.486C233.234 134.486 231.706 133.729 231.155 132.875" stroke="white" stroke-width="1.31776" stroke-miterlimit="10"/>
<path vector-effect="non-scaling-stroke" d="M205.789 138.851C202.938 150.859 201.465 162.33 196.741 177.148C185.16 170.716 156.117 146.521 145.982 133.962L143.131 171.97C150.306 188.164 201.85 209.991 216.957 219.314L235.727 145.171L205.761 138.851H205.789Z" fill="#232323" stroke="white" stroke-width="1.31776" stroke-miterlimit="10"/>
<path vector-effect="non-scaling-stroke" d="M146.546 128.964C146.009 126.994 144.481 125.466 142.498 124.956C138.669 123.951 95.0018 121.996 90.5401 127.449C88.681 129.721 98.6511 144.718 98.5685 147.499C98.2931 157.304 130.035 156.45 132.032 166.035C134.896 179.723 139.427 192.985 143.957 206.218C148.626 219.865 140.074 274.247 145.913 287.453L149.548 284.795C159.161 277.786 164.159 266.094 162.534 254.307C157.398 216.85 153.019 153.035 146.519 128.964H146.546Z" fill="#232323" stroke="white" stroke-width="1.31776" stroke-miterlimit="10"/>
<path vector-effect="non-scaling-stroke" d="M151.917 217.016H77.1822C67.1019 234.945 42.7136 277.153 46.3216 334.44C48.0568 362.106 12.0871 467.729 2.14453 495.904H65.5458L116.168 296.253C112.284 320.477 96.6405 443.52 80.983 495.904H145.5C168.538 360.839 151.917 217.016 151.917 217.016Z" fill="black" stroke="white" stroke-width="1.31776" stroke-miterlimit="10"/>
<path vector-effect="non-scaling-stroke" d="M95.0017 226.325H158.265C161.488 226.325 151.394 225.761 150.54 222.649C148.571 215.515 142.071 200.078 150.788 184.241C162.576 162.828 140.156 136.511 137.526 130.204C134.896 123.884 134.442 120.468 123.728 120C113.854 119.559 101.997 118.045 100.827 129.199C100.606 131.361 99.4221 133.317 97.6732 134.611L90.6638 139.803L94.9879 226.339L95.0017 226.325Z" fill="#A2A2A0" stroke="white" stroke-width="1.31776" stroke-miterlimit="10"/>
<path vector-effect="non-scaling-stroke" d="M178.591 204.526L205.472 198.467C210.443 197.351 215.58 197.048 220.634 197.751C227.258 198.66 233.73 200.56 239.83 203.411L231.706 206.413L247.363 233.541C249.993 238.099 244.747 243.332 240.863 240C240.781 239.917 240.684 239.848 240.602 239.766C241.566 244.462 235.162 245.673 231.912 241.57C232.793 245.88 226.941 248.028 223.03 243.415C224.462 248.359 217.494 250.3 214.299 245.233C210.939 239.876 200.597 222.208 200.597 222.208H178.206L178.619 204.54L178.591 204.526Z" fill="black" stroke="white" stroke-width="1.31776" stroke-miterlimit="10"/>
<path vector-effect="non-scaling-stroke" d="M211.242 224.797L202.263 228.666C200.446 229.451 198.352 228.611 197.567 226.807C196.782 225.003 197.622 222.896 199.426 222.111L208.405 218.242C210.223 217.457 212.316 218.297 213.101 220.101C213.886 221.905 213.046 224.012 211.242 224.797Z" fill="black" stroke="white" stroke-width="1.31776" stroke-miterlimit="10"/>
<path vector-effect="non-scaling-stroke" d="M214.822 230.87L205.844 234.74C204.026 235.524 201.933 234.684 201.148 232.88C200.363 231.076 201.203 228.97 203.007 228.185L211.986 224.315C213.803 223.53 215.896 224.37 216.681 226.174C217.466 227.978 216.626 230.085 214.822 230.87Z" fill="black" stroke="white" stroke-width="1.31776" stroke-miterlimit="10"/>
<path vector-effect="non-scaling-stroke" d="M218.912 236.942L209.934 240.812C208.116 241.597 206.023 240.757 205.238 238.953C204.453 237.149 205.293 235.042 207.097 234.257L216.076 230.387C217.893 229.602 219.987 230.442 220.772 232.246C221.556 234.05 220.716 236.157 218.912 236.942Z" fill="black" stroke="white" stroke-width="1.31776" stroke-miterlimit="10"/>
<path vector-effect="non-scaling-stroke" d="M222.286 241.914L214.878 245.109C213.39 245.756 211.655 245.068 211.008 243.566C210.361 242.079 211.049 240.344 212.55 239.697L219.959 236.502C221.446 235.855 223.181 236.543 223.829 238.044C224.476 239.532 223.787 241.267 222.286 241.914Z" fill="black" stroke="white" stroke-width="1.31776" stroke-miterlimit="10"/>
<path vector-effect="non-scaling-stroke" d="M213.721 245.77C212.413 245.77 211.173 245.012 210.622 243.732C210.264 242.905 210.25 241.997 210.581 241.157C210.911 240.317 211.545 239.669 212.371 239.311L219.78 236.116C221.488 235.373 223.471 236.171 224.214 237.879C224.572 238.705 224.586 239.614 224.255 240.454C223.925 241.294 223.292 241.941 222.465 242.3L215.057 245.494C214.63 245.687 214.175 245.77 213.721 245.77Z" fill="black" stroke="white" stroke-width="1.31776" stroke-miterlimit="10"/>
<path vector-effect="non-scaling-stroke" d="M240.712 202.612L218.031 210.957C218.031 210.957 217.604 217.857 224.393 216.356C233.936 214.235 235.878 218.091 240.932 219.454C249.153 221.671 253.491 217.154 253.491 217.154" fill="black"/>
<path vector-effect="non-scaling-stroke" d="M240.712 202.612L218.031 210.957C218.031 210.957 217.604 217.857 224.393 216.356C233.936 214.235 235.878 218.091 240.932 219.454C249.153 221.671 253.491 217.154 253.491 217.154" stroke="white" stroke-width="1.31776" stroke-miterlimit="10"/>
<path vector-effect="non-scaling-stroke" d="M103.98 142.241C103.705 140.313 103.237 138.412 102.479 136.622C98.2654 126.583 90.5537 127.437 90.5537 127.437C87.4277 127.712 84.8938 129.998 82.8971 132.408C79.6058 136.347 77.8982 140.574 76.2595 143.921C73.7807 148.947 71.2469 175.608 70.5308 197.242C70.1314 209.443 67.6664 221.492 63.3011 232.908L44.3385 296.255L67.1156 291.366C87.5103 282.47 102.121 263.989 106.074 242.094L106.101 241.97C111.348 213.657 107.96 169.232 103.994 142.241H103.98Z" fill="#232323" stroke="white" stroke-width="1.31776" stroke-miterlimit="10"/>
<path vector-effect="non-scaling-stroke" d="M133.684 201.814L101.157 133.979L80.9829 191.885L95.9519 209.663C105.867 221.451 120.12 228.736 135.474 229.879L192.004 229.535V197.118L133.698 201.814H133.684Z" fill="#232323" stroke="white" stroke-width="1.31776" stroke-miterlimit="10"/>
<path vector-effect="non-scaling-stroke" d="M129.223 128.676L130.214 112.963C115.424 98.1733 111.279 105.128 111.279 105.128C111.279 105.128 108.084 126.142 108.222 126.321L117.545 128.511L123.425 132.132L124.788 147.129L134.111 160.404C135.764 161.451 137.871 160.032 137.526 158.104L131.04 134.749L129.236 128.676H129.223Z" fill="black" stroke="white" stroke-width="1.31776" stroke-miterlimit="10"/>
<path vector-effect="non-scaling-stroke" d="M136.797 90.7518C136.797 90.7518 143.503 108.406 136.797 114.093C132.817 117.467 120.244 119.23 112.216 107.098C112.216 107.098 106.652 107.373 105.385 101.686C104.118 95.9985 106.955 93.8502 111.555 97.8575C111.555 97.8575 117.118 100.694 115.287 92.8036C114.488 89.3747 117.421 86.2349 123.852 84.3896C135.475 81.0433 134.401 83.9627 136.81 90.7655L136.797 90.7518Z" fill="black" stroke="white" stroke-width="1.31776" stroke-miterlimit="10"/>
<path vector-effect="non-scaling-stroke" d="M127.804 119.629C126.895 119.587 125.959 119.491 124.995 119.312C120.754 118.527 114.763 116.007 110.122 108.461C108.883 108.378 103.733 107.662 102.686 101.837C102.094 98.5042 102.659 96.1081 104.242 95.2543C105.785 94.4143 107.96 95.1992 110.37 97.4576C110.673 97.6091 112.381 98.4491 113.386 97.7193C114.281 97.072 114.488 95.2956 113.965 92.5552C113.18 88.3551 116.87 84.9399 124.086 83.191C135.144 80.5056 136.177 82.2683 137.761 88.2862C137.981 89.1262 138.229 90.0764 138.546 91.0955C138.835 91.9768 145.073 111.146 137.306 117.191C135.433 118.651 131.949 119.808 127.804 119.643V119.629Z" fill="black" stroke="white" stroke-width="1.31776" stroke-miterlimit="10"/>
<path vector-effect="non-scaling-stroke" d="M333.941 242.091L347.767 123.303C347.767 123.303 352.601 116.886 352.849 116.721C353.097 116.556 355.259 114.986 355.259 114.986L367.336 113.443L388.46 112.231L391.559 113.099L389.287 236.927L333.928 242.105L333.941 242.091Z" fill="black" stroke="white" stroke-width="1.31776" stroke-miterlimit="10"/>
<path vector-effect="non-scaling-stroke" d="M412.229 234.201L326.298 232.934C326.298 232.934 313.45 343.211 285.219 503.202L359.706 511.368C363.177 476.954 374.262 332.966 374.262 332.966L383.778 507.953L463.264 509.467C448.928 402.302 433.684 272.318 412.229 234.187V234.201Z" fill="black" stroke="white" stroke-width="1.31776" stroke-miterlimit="10"/>
<path vector-effect="non-scaling-stroke" d="M355.258 115.014C355.258 115.014 355.258 114.986 355.231 115C337.645 123.414 329.989 124.323 325.169 130.726C318.146 140.049 312.1 159.604 309.112 166.875C305.27 176.17 302.97 184.364 301.538 190.478C286.018 193.687 270.498 196.882 254.979 200.09C257.774 211.259 261.024 225.594 263.819 236.762C273.624 237.203 287.244 233.939 303.865 231.103C318.793 228.555 326.257 227.274 331.145 223.914C339.862 217.91 347.257 207.678 352.697 139.788C354.115 122.064 355.189 115.537 355.286 115.027L355.258 115.014Z" fill="#232323" stroke="white" stroke-width="1.31776" stroke-miterlimit="10"/>
<path vector-effect="non-scaling-stroke" d="M326.257 156.932L308.947 289.022C308.947 289.022 333.101 291.074 337.191 280.154L349.626 170.551" fill="#232323"/>
<path vector-effect="non-scaling-stroke" d="M326.257 156.932L308.947 289.022C308.947 289.022 333.101 291.074 337.191 280.154L349.626 170.551" stroke="white" stroke-width="1.31776" stroke-miterlimit="10"/>
<path vector-effect="non-scaling-stroke" d="M458.361 276.821C459.78 254.801 462.024 254.402 458.471 232.672C456.309 219.438 448.35 151.203 440.197 129.817C439.454 127.861 437.939 126.291 436.011 125.451C422.02 119.392 401.35 113.636 389.768 112.534C388.722 118.153 389.025 126.663 388.708 129.72C388.377 132.777 383.792 189.486 382.91 219.465C382.8 223.418 384.797 271.712 385.678 275.582C387.923 285.483 396.268 286.709 402.947 287.177C409.64 287.631 422.488 287.177 422.488 287.177L421.73 270.858C421.73 270.858 433.326 277.455 443.048 278.088C449.382 278.501 452.357 278.818 458.375 276.821H458.361Z" fill="#232323" stroke="white" stroke-width="1.31776" stroke-miterlimit="10"/>
<path vector-effect="non-scaling-stroke" d="M485.448 234.2L458.471 232.672C458.747 239.158 458.512 249.211 458.512 255.063C458.512 264.221 456.887 284.932 456.887 284.932C456.887 284.932 455.648 298.635 455.304 302.683H455.745L478.15 304.019C479.623 304.074 480.904 302.986 481.069 301.513L488.147 237.34C488.326 235.715 487.087 234.269 485.448 234.214V234.2Z" fill="white" stroke="white" stroke-width="1.31776" stroke-linejoin="round"/>
<path vector-effect="non-scaling-stroke" d="M422.419 271.327C422.419 271.327 422.157 255.394 419.885 231.13L397.852 230.565C396.337 230.51 395.056 231.653 394.932 233.154L389.617 297.767C389.479 299.379 390.718 300.77 392.343 300.825L457.714 302.615C450.994 296.845 422.433 271.314 422.433 271.314L422.419 271.327Z" fill="white" stroke="white" stroke-width="1.31776" stroke-linejoin="round"/>
<path vector-effect="non-scaling-stroke" d="M459.642 302.696C460.523 293.484 463.828 280.773 458.361 276.821C452.343 278.818 449.355 278.625 443.034 278.088C435.488 277.454 427.914 274.246 422.419 271.326C422.612 277.165 422.185 282.536 422.543 288.375C422.984 295.646 423.824 303.564 428.891 308.797C433.036 313.093 439.743 314.705 445.403 312.777C448.363 314.98 452.949 314.539 455.455 311.84C457.907 313.809 462.121 312.818 463.429 309.954C464.737 307.089 462.74 303.261 459.656 302.683L459.642 302.696Z" fill="black" stroke="white" stroke-width="1.31776" stroke-miterlimit="10"/>
<path vector-effect="non-scaling-stroke" d="M360.643 93.53L362.116 111.653L356.663 114.792L368.368 117.064C368.368 117.064 385.086 114.902 389.754 112.548C385.43 110.496 384.618 108.155 384.645 108.127C384.783 107.934 381.313 84.9782 381.313 84.9782C381.313 84.9782 376.782 77.3905 360.643 93.53Z" fill="black" stroke="white" stroke-width="1.31776" stroke-miterlimit="10"/>
<path vector-effect="non-scaling-stroke" d="M368.134 117.423L363.893 123.895L366.123 130.423L354.955 224.96L361.414 233.787L368.988 225.69L368.712 130.147L372.844 123.441L368.616 117.423C368.492 117.258 368.244 117.258 368.134 117.423Z" fill="black" stroke="white" stroke-width="1.31776" stroke-miterlimit="10"/>
<path vector-effect="non-scaling-stroke" d="M389.107 118.441L378.393 129.954C378.311 130.037 378.2 130.092 378.077 130.092C377.953 130.092 377.842 130.037 377.76 129.954L372.83 123.426" fill="black"/>
<path vector-effect="non-scaling-stroke" d="M389.107 118.441L378.393 129.954C378.311 130.037 378.2 130.092 378.077 130.092C377.953 130.092 377.842 130.037 377.76 129.954L372.83 123.426" stroke="white" stroke-width="1.31776" stroke-miterlimit="10"/>
<path vector-effect="non-scaling-stroke" d="M363.893 123.895L359.913 129.913C359.83 130.024 359.706 130.092 359.568 130.092C359.431 130.092 359.307 130.024 359.224 129.913L354.225 123.083" fill="black"/>
<path vector-effect="non-scaling-stroke" d="M363.893 123.895L359.913 129.913C359.83 130.024 359.706 130.092 359.568 130.092C359.431 130.092 359.307 130.024 359.224 129.913L354.225 123.083" stroke="white" stroke-width="1.31776" stroke-miterlimit="10"/>
<path vector-effect="non-scaling-stroke" d="M351.223 76.6327C351.223 76.6327 347.96 73.4792 345.825 65.4921C343.691 57.4912 347.285 50.9638 351.912 51.7487C356.525 52.5336 359.114 54.9022 364.072 53.8832C369.029 52.8641 375.446 51.6248 379.04 53.8832C382.648 56.1416 383.998 59.4053 383.998 59.4053C383.998 59.4053 388.281 58.2761 390.525 62.5589C392.784 66.8416 392.44 87.4429 387.482 91.946C382.525 96.4491 372.059 96.1186 366.537 91.4916C361.014 86.8783 351.223 76.6327 351.223 76.6327Z" fill="white" stroke="white" stroke-width="1.31776" stroke-linejoin="round"/>
<path vector-effect="non-scaling-stroke" d="M350.851 69.3066C350.851 69.3066 349.901 80.5575 352.118 90.8994C354.335 101.241 363.617 105.923 370.861 103.335C380.349 99.9469 383.062 90.6929 383.902 86.961C383.902 86.961 387.647 90.0319 390.512 86.2586C394.078 81.5765 392.219 76.2472 389.052 74.5809C385.885 72.9146 382.373 74.8563 381.258 79.3043C381.258 79.3043 378.476 76.6741 372.72 69.4857C363.135 72.3638 350.838 69.3066 350.838 69.3066H350.851Z" fill="black" stroke="white" stroke-width="1.31776" stroke-miterlimit="10"/>
<path vector-effect="non-scaling-stroke" d="M352.862 116.708L340.579 130.093L348.483 134.004L338.967 141.055L341.102 229.092" stroke="white" stroke-width="1.31776" stroke-miterlimit="10"/>
<path vector-effect="non-scaling-stroke" d="M384.604 230.58L403.539 135.768L393.266 131.953L402.947 125.495L394.079 114.987" stroke="white" stroke-width="1.31776" stroke-miterlimit="10"/>
<path vector-effect="non-scaling-stroke" d="M419.885 231.145L413.785 165.939" stroke="white" stroke-width="1.31776" stroke-miterlimit="10"/>
<path vector-effect="non-scaling-stroke" d="M746.256 462.482H648.372V515.074H714.845L733.105 533.334V515.074H746.256V462.482Z" fill="#020202" stroke="white" stroke-width="1.31776" stroke-miterlimit="10"/>
<path vector-effect="non-scaling-stroke" d="M691.999 407.274H798.709V475.922H726.247L706.334 495.835V475.922H691.999V407.274Z" fill="#020202" stroke="white" stroke-width="1.31776" stroke-miterlimit="10"/>
<path vector-effect="non-scaling-stroke" d="M724.14 375.602H609.759V437.061H687.44L708.785 458.406V437.061H724.14V375.602Z" fill="#A100FF" stroke="white" stroke-width="1.31776" stroke-miterlimit="10"/>
<path vector-effect="non-scaling-stroke" d="M123.797 91.6452C125.656 96.5615 124.541 102.607 122.227 107.551C119.349 113.72 114.887 119.104 112.56 125.508C109.847 132.986 110.288 141.179 109.461 149.084C107.905 163.86 101.653 178.099 91.8485 189.24C89.7002 191.677 87.2765 194.046 84.2332 195.189C81.1898 196.332 77.3615 195.946 75.1995 193.522C70.5587 188.29 76.8244 179.793 74.5109 173.183C72.9273 168.666 67.6392 166.105 66.4549 161.464C64.83 155.047 71.7292 149.896 74.0978 143.713C76.7143 136.855 73.5607 128.813 76.2047 121.969C78.6422 115.662 85.3486 112.012 88.75 106.174C91.821 100.899 91.8898 94.482 93.0603 88.5055C95.6906 75.065 113.496 64.8057 126.813 67.7252C136.976 69.956 151.38 85.4896 135.984 91.9482C131.137 93.9863 125.023 92.3751 121.8 88.2163C122.668 89.2629 123.315 90.4196 123.769 91.659L123.797 91.6452Z" fill="#414040" stroke="white" stroke-width="1.31776" stroke-miterlimit="10"/>
<path vector-effect="non-scaling-stroke" d="M121.828 133.978L117.366 145.683L110.48 135.396" fill="#A2A2A0"/>
<path vector-effect="non-scaling-stroke" d="M121.828 133.978L117.366 145.683L110.48 135.396" stroke="white" stroke-width="1.31776" stroke-miterlimit="10"/>
<path vector-effect="non-scaling-stroke" d="M131.743 130.19L136.48 133.977L137.527 130.19" stroke="white" stroke-width="1.31776" stroke-miterlimit="10"/>
</g>
</g>
<defs>
<clipPath id="clip0_21_15598">
<rect width="802" height="535" fill="white"/>
</clipPath>
<clipPath id="clip1_21_15598">
<rect width="798.396" height="535" fill="white" transform="translate(1.00171)"/>
</clipPath>
</defs>
</svg>
